<svg width="40" height="40" viewBox="0 0 40 40" fill="none" xmlns="http://www.w3.org/2000/svg">
    <path fill-rule="evenodd" clip-rule="evenodd" d="M11.1202 23.0055L12.9215 26.0504C13.0276 26.2266 13.1944 26.3596 13.3919 26.4253C13.4961 26.4589 13.6064 26.4704 13.7155 26.459C13.8246 26.4476 13.93 26.4135 14.0246 26.359L15.8744 25.5305C16.2649 25.8027 16.6801 26.0392 17.1147 26.2368L17.3024 28.2543C17.3016 28.2688 17.3016 28.2833 17.3024 28.2978C17.3377 28.4908 17.4396 28.666 17.5909 28.7938C17.7423 28.9217 17.9338 28.9945 18.1334 29H21.7339C21.9461 29.0007 22.1508 28.9229 22.3072 28.782C22.4635 28.6411 22.5601 28.4475 22.5776 28.2398L22.7632 26.2368C23.2003 26.046 23.6165 25.8121 24.0056 25.5388L25.8638 26.3797H25.8828C26.0741 26.4597 26.2885 26.469 26.4863 26.4058C26.684 26.3426 26.8518 26.2112 26.9585 26.0359L28.7492 23.0097C28.8585 22.8281 28.8953 22.6132 28.8524 22.4066C28.8096 22.1999 28.6901 22.0162 28.5172 21.8911L26.9585 20.725C27.0294 20.2497 27.0294 19.7669 26.9585 19.2916L28.6459 18.1171C28.8191 17.9923 28.939 17.8088 28.9822 17.6021C29.0255 17.3955 28.9891 17.1804 28.88 16.9986L27.0323 13.9579C26.9828 13.8648 26.9147 13.7825 26.8322 13.7158C26.7496 13.6491 26.6542 13.5994 26.5517 13.5697C26.4492 13.5399 26.3416 13.5307 26.2354 13.5426C26.1292 13.5545 26.0265 13.5872 25.9334 13.6389L24.0836 14.4674C23.693 14.196 23.2778 13.9602 22.8434 13.7632L22.6578 11.7457V11.7022C22.6225 11.5092 22.5206 11.334 22.3692 11.2062C22.2179 11.0783 22.0263 11.0055 21.8267 11H18.2199C18.0074 10.9993 17.8024 11.0775 17.646 11.2188C17.4896 11.3601 17.3932 11.5542 17.3762 11.7623L17.1906 13.7632C16.7512 13.955 16.3328 14.1902 15.9419 14.4654L14.0921 13.6306H14.0731C13.8816 13.5523 13.6676 13.5446 13.4707 13.6089C13.2739 13.6732 13.1073 13.8053 13.0016 13.9807L11.2067 16.9986C11.0965 17.1823 11.0603 17.3997 11.1052 17.6083C11.1501 17.8168 11.2728 18.0013 11.4492 18.1254L13.124 19.2937C13.0543 19.7635 13.0543 20.2407 13.124 20.7105L11.3501 21.8911C11.1783 22.0161 11.0597 22.1992 11.0172 22.405C10.9748 22.6108 11.0114 22.8247 11.1202 23.0055Z" stroke="#555555" stroke-width="2"/>
    <circle cx="20" cy="20" r="3" stroke="#555555" stroke-width="2"/>
</svg>
