<svg width="90" height="21" viewBox="0 0 90 21" fill="none" xmlns="http://www.w3.org/2000/svg">
<path fill-rule="evenodd" clip-rule="evenodd" d="M18.4314 5.44774H18.3524L17.9969 5.52617L17.7204 5.56539H17.5625H17.128H17.049C14.6 5.56539 12.4671 3.8007 12.0721 1.36936H17.8784L16.3775 4.34971H16.6145C16.7132 4.34971 16.8218 4.33991 16.9305 4.33011C17.0391 4.3203 17.1477 4.3105 17.2465 4.3105L19.1819 0.624268H0.696289L3.22424 5.64382H7.41115V19.9182L7.45065 19.8397C7.50989 19.7417 7.55925 19.6535 7.60861 19.5653L7.60865 19.5652C7.65802 19.477 7.7074 19.3888 7.76665 19.2907L7.80615 19.2515C10.8081 14.0359 14.521 9.36926 18.8659 5.33009L18.4314 5.44774ZM7.41115 4.8203H3.69823L1.96026 1.40857H11.8351C11.5813 2.39112 10.7244 5.42919 9.77741 8.78631L9.77726 8.78686L9.77725 8.78689C9.25026 10.6552 8.69541 12.6222 8.20114 14.3888V4.8203H7.41115ZM11.6779 19.8401H8.20194V19.1734L8.20191 19.1734C7.92543 19.4479 7.64894 19.7224 7.41196 20.0361V20.6244H12.4679V15.2519C12.2802 15.385 12.1107 15.5361 11.9347 15.6931L11.9347 15.6931C11.8514 15.7674 11.7667 15.843 11.6779 15.9185V19.8401ZM70.8178 8.00366H72.9485V12.0193L74.213 12.0195L76.667 8.00391L78.8345 8.00366V8.31836L75.9739 12.6843L76.2978 13.1589L76.2998 13.16C76.3006 13.1605 76.3013 13.1611 76.3017 13.1616L76.3048 13.166L76.37 13.2648L76.4387 13.3655L76.4374 13.3667L79.365 17.7991V18.1138H76.9483L74.4914 14.0935H73.359C73.209 14.0955 73.0678 14.0955 72.9485 14.0955V18.1138H70.8178V8.00366ZM20.5732 13.1239C20.5732 11.5318 21.0784 10.2782 22.089 9.36298C23.0995 8.43825 24.3007 7.98542 25.6926 8.00448C26.7984 8.00448 27.7899 8.30955 28.667 8.91968C29.544 9.52028 30.0922 10.4021 30.3115 11.5652H28.238C27.809 10.4784 26.9605 9.93498 25.6926 9.93498C24.806 9.93498 24.091 10.2305 23.5476 10.8216C23.0042 11.4031 22.7325 12.1706 22.7325 13.1239C22.7325 14.001 23.0042 14.7446 23.5476 15.3547C24.091 15.9648 24.8012 16.2699 25.6783 16.2699C26.317 16.2699 26.8699 16.1174 27.3371 15.8123C27.8042 15.5072 28.1188 15.0592 28.2809 14.4681H30.3401C30.1399 15.7074 29.6012 16.6417 28.7242 17.2709C27.8471 17.9001 26.8366 18.2147 25.6926 18.2147C25.0252 18.2147 24.3865 18.1051 23.7764 17.8858C23.1662 17.657 22.6228 17.3376 22.1462 16.9277C21.6695 16.5082 21.2882 15.9696 21.0022 15.3118C20.7162 14.654 20.5732 13.9247 20.5732 13.1239ZM32.0095 8.10458H40.1176V18.1146H37.9726V10.0494H34.1545V18.1146H32.0095V8.10458ZM42.4416 18.1003H44.5866V15.2689H46.7173C47.8136 15.2689 48.6811 14.9257 49.3199 14.2393C49.9586 13.5529 50.278 12.7187 50.278 11.7368C50.278 10.7358 49.9586 9.87778 49.3199 9.16278C48.6907 8.44778 47.8231 8.09028 46.7173 8.09028H42.4416V18.1003ZM46.7173 13.4385H44.5437V9.96358H46.7173C47.1749 9.96358 47.5419 10.1304 47.8184 10.4641C48.0948 10.7882 48.2331 11.1934 48.2331 11.6796C48.2331 12.1753 48.0901 12.5948 47.8041 12.938C47.5276 13.2717 47.1653 13.4385 46.7173 13.4385ZM57.1174 16.4558H52.9561L52.1839 18.1146H49.9531V17.8286L54.5577 8.01878H55.5444L60.1204 17.8286V18.1146H57.9039L57.1174 16.4558ZM55.0439 11.3507L53.6568 14.654H56.431L55.0439 11.3507ZM68.3457 12.1372C68.5268 11.8035 68.6174 11.4508 68.6174 11.079C68.6174 10.1638 68.3266 9.44402 67.7451 8.91968C67.1635 8.38582 66.4056 8.11888 65.4714 8.11888H61.2243V18.1146H65.8718C66.8633 18.1146 67.6402 17.8477 68.2027 17.3138C68.7652 16.7704 69.0464 16.0506 69.0464 15.1545C69.0464 14.0677 68.5697 13.3241 67.6164 12.9237C67.931 12.733 68.1741 12.4709 68.3457 12.1372ZM63.355 9.94928H65.3141C65.6859 9.94928 65.9814 10.0589 66.2007 10.2782C66.42 10.4974 66.5248 10.7882 66.5153 11.1505C66.5058 11.4842 66.3913 11.7463 66.1721 11.937C65.9624 12.1277 65.6763 12.223 65.3141 12.223H63.355V9.94928ZM63.355 13.9676H65.6287C66.01 13.9676 66.296 14.0343 66.4867 14.1678C66.8013 14.3871 66.9491 14.716 66.93 15.1545C66.9109 15.4977 66.7965 15.7694 66.5868 15.9696C66.3771 16.1603 66.091 16.2556 65.7288 16.2556H63.355V13.9676ZM82.7373 16.4558H86.8986L87.6851 18.1146H89.9016V17.8286L85.3256 8.0188H84.3389L79.7343 17.8286V18.1146H81.9651L82.7373 16.4558ZM83.438 14.654L84.8251 11.3507L86.2122 14.654H83.438Z" fill="white"/>
</svg>
