<svg width="171" height="23" viewBox="0 0 171 23" fill="none" xmlns="http://www.w3.org/2000/svg">
<rect x="0.918091" y="1.10101" width="168.583" height="21" rx="1.5" fill="#ECF5DD" stroke="#C5D2B1"/>
<path d="M69.746 14.976H68.7094V8.00433H64.853V14.976H63.8217V7.1557H69.746V14.976ZM76.3793 12.1347C76.3793 13.0191 76.177 13.7317 75.7724 14.2724C75.3678 14.8131 74.8199 15.0834 74.1288 15.0834C73.4234 15.0834 72.8684 14.8596 72.4638 14.412V17.2104H71.4702V9.16449H72.3779L72.4262 9.80902C72.8308 9.30772 73.393 9.05707 74.1127 9.05707C74.811 9.05707 75.3624 9.32025 75.767 9.84662C76.1752 10.373 76.3793 11.1052 76.3793 12.0434V12.1347ZM75.3857 12.0219C75.3857 11.3666 75.246 10.8492 74.9667 10.4697C74.6874 10.0901 74.3043 9.90033 73.8173 9.90033C73.2158 9.90033 72.7646 10.1671 72.4638 10.7006V13.4775C72.761 14.0074 73.2158 14.2724 73.8281 14.2724C74.3043 14.2724 74.6821 14.0844 74.9614 13.7084C75.2442 13.3289 75.3857 12.7667 75.3857 12.0219ZM81.4067 9.16449H82.4003V14.976H81.4067V10.7382L78.7265 14.976H77.7328V9.16449H78.7265V13.4077L81.4067 9.16449ZM88.7436 14.976H87.7499V12.4946H85.0805V14.976H84.0815V9.16449H85.0805V11.6835H87.7499V9.16449H88.7436V14.976ZM94.7861 9.16449V14.976H93.787V12.7148H92.2885L90.9189 14.976H89.8447L91.3056 12.5644C90.9332 12.4283 90.6467 12.2189 90.4462 11.936C90.2493 11.6495 90.1508 11.3165 90.1508 10.937C90.1508 10.407 90.3495 9.9809 90.747 9.65863C91.1445 9.33278 91.6762 9.16807 92.3422 9.16449H94.7861ZM91.1498 10.9477C91.1498 11.2306 91.2465 11.4597 91.4399 11.6352C91.6332 11.8071 91.8893 11.8948 92.2079 11.8984H93.787V9.97015H92.3583C91.9895 9.97015 91.6959 10.0615 91.4775 10.2441C91.2591 10.4231 91.1498 10.6577 91.1498 10.9477ZM100.7 9.97015H98.7499V14.976H97.7563V9.97015H95.8442V9.16449H100.7V9.97015ZM102.751 11.1679H104.261C104.92 11.1751 105.441 11.3469 105.824 11.6835C106.207 12.0201 106.398 12.4767 106.398 13.0532C106.398 13.6332 106.201 14.0987 105.808 14.4496C105.414 14.8006 104.884 14.976 104.218 14.976H101.758V9.16449H102.751V11.1679ZM102.751 11.9789V14.165H104.228C104.601 14.165 104.889 14.0701 105.093 13.8803C105.297 13.687 105.399 13.4238 105.399 13.0908C105.399 12.7685 105.299 12.5053 105.099 12.3012C104.902 12.0935 104.624 11.9861 104.266 11.9789H102.751Z" fill="#555555"/>
</svg>
