<svg width="171" height="23" viewBox="0 0 171 23" fill="none" xmlns="http://www.w3.org/2000/svg">
<rect x="0.918091" y="1.10101" width="168.583" height="21" rx="1.5" fill="#ECF5DD" stroke="#C5D2B1"/>
<path d="M24.4247 11.3183C24.4247 12.0846 24.2958 12.7542 24.038 13.3271C23.7802 13.8964 23.415 14.3315 22.9423 14.6323C22.4697 14.933 21.9182 15.0834 21.288 15.0834C20.6721 15.0834 20.1261 14.933 19.6498 14.6323C19.1736 14.3279 18.803 13.8964 18.538 13.3378C18.2766 12.7757 18.1424 12.1258 18.1352 11.3881V10.8242C18.1352 10.0722 18.2659 9.40798 18.5273 8.83148C18.7887 8.25498 19.1575 7.81455 19.6337 7.51019C20.1135 7.20225 20.6614 7.04828 21.2773 7.04828C21.9039 7.04828 22.4553 7.20046 22.9316 7.50482C23.4114 7.8056 23.7802 8.24424 24.038 8.82074C24.2958 9.39366 24.4247 10.0615 24.4247 10.8242V11.3183ZM23.3989 10.8134C23.3989 9.88601 23.2127 9.17523 22.8403 8.68109C22.4679 8.18337 21.9469 7.93451 21.2773 7.93451C20.6256 7.93451 20.1118 8.18337 19.7358 8.68109C19.3634 9.17523 19.1718 9.86273 19.1611 10.7436V11.3183C19.1611 12.2171 19.3491 12.9243 19.725 13.4399C20.1046 13.9519 20.6256 14.2079 21.288 14.2079C21.954 14.2079 22.4697 13.9662 22.8349 13.4828C23.2001 12.9959 23.3881 12.2994 23.3989 11.3935V10.8134ZM30.1342 9.97015H28.1845V14.976H27.1909V9.97015H25.2787V9.16449H30.1342V9.97015ZM35.8544 14.976H34.8608V9.98627H32.186V14.976H31.187V9.16449H35.8544V14.976ZM42.3588 12.1347C42.3588 13.0191 42.1565 13.7317 41.7519 14.2724C41.3473 14.8131 40.7994 15.0834 40.1083 15.0834C39.4029 15.0834 38.8479 14.8596 38.4433 14.412V17.2104H37.4496V9.16449H38.3574L38.4057 9.80902C38.8103 9.30772 39.3725 9.05707 40.0922 9.05707C40.7905 9.05707 41.3419 9.32025 41.7465 9.84662C42.1547 10.373 42.3588 11.1052 42.3588 12.0434V12.1347ZM41.3652 12.0219C41.3652 11.3666 41.2255 10.8492 40.9462 10.4697C40.6669 10.0901 40.2838 9.90033 39.7968 9.90033C39.1953 9.90033 38.7441 10.1671 38.4433 10.7006V13.4775C38.7405 14.0074 39.1953 14.2724 39.8076 14.2724C40.2838 14.2724 40.6616 14.0844 40.9409 13.7084C41.2237 13.3289 41.3652 12.7667 41.3652 12.0219ZM47.2143 14.976C47.157 14.8614 47.1105 14.6573 47.0746 14.3637C46.6127 14.8435 46.0613 15.0834 45.4203 15.0834C44.8474 15.0834 44.3766 14.9223 44.0078 14.6C43.6425 14.2742 43.4599 13.8624 43.4599 13.3647C43.4599 12.7595 43.6891 12.2905 44.1474 11.9575C44.6093 11.6209 45.2574 11.4526 46.0917 11.4526H47.0585V10.996C47.0585 10.6487 46.9547 10.373 46.747 10.1689C46.5393 9.9612 46.2332 9.85736 45.8286 9.85736C45.4741 9.85736 45.1769 9.94688 44.937 10.1259C44.697 10.305 44.5771 10.5216 44.5771 10.7758H43.5781C43.5781 10.4858 43.6801 10.2065 43.8842 9.93793C44.0919 9.66579 44.3712 9.45095 44.7221 9.2934C45.0766 9.13584 45.4651 9.05707 45.8876 9.05707C46.5572 9.05707 47.0818 9.22536 47.4614 9.56195C47.8409 9.89496 48.0379 10.3551 48.0522 10.9423V13.6171C48.0522 14.1507 48.1202 14.575 48.2563 14.8901V14.976H47.2143ZM45.5654 14.2187C45.8769 14.2187 46.1723 14.1381 46.4516 13.977C46.7309 13.8159 46.9332 13.6064 47.0585 13.3486V12.1562H46.2797C45.0623 12.1562 44.4536 12.5125 44.4536 13.225C44.4536 13.5366 44.5574 13.78 44.7651 13.9555C44.9728 14.131 45.2395 14.2187 45.5654 14.2187ZM49.7011 14.976V9.16449H51.9677C52.7411 9.16449 53.3338 9.30056 53.7455 9.57269C54.1609 9.84125 54.3686 10.2369 54.3686 10.7597C54.3686 11.0283 54.288 11.2717 54.1269 11.4902C53.9658 11.705 53.7276 11.8697 53.4125 11.9843C53.7634 12.0667 54.0445 12.2278 54.2558 12.4677C54.4706 12.7076 54.5781 12.9941 54.5781 13.3271C54.5781 13.8606 54.3811 14.2688 53.9872 14.5517C53.5969 14.8346 53.0437 14.976 52.3276 14.976H49.7011ZM50.6948 12.4247V14.1757H52.3383C52.7537 14.1757 53.0634 14.0987 53.2675 13.9448C53.4752 13.7908 53.579 13.5742 53.579 13.2949C53.579 12.7148 53.1529 12.4247 52.3007 12.4247H50.6948ZM50.6948 11.6298H51.9785C52.9094 11.6298 53.3749 11.3577 53.3749 10.8134C53.3749 10.2691 52.9345 9.98806 52.0536 9.97015H50.6948V11.6298ZM59.6537 9.16449H60.6474V14.976H59.6537V10.7382L56.9736 14.976H55.9799V9.16449H56.9736V13.4077L59.6537 9.16449ZM66.561 9.97015H64.6113V14.976H63.6176V9.97015H61.7055V9.16449H66.561V9.97015ZM68.6127 11.1679H70.122C70.7809 11.1751 71.3019 11.3469 71.685 11.6835C72.0681 12.0201 72.2597 12.4767 72.2597 13.0532C72.2597 13.6332 72.0628 14.0987 71.6689 14.4496C71.275 14.8006 70.7451 14.976 70.079 14.976H67.6191V9.16449H68.6127V11.1679ZM68.6127 11.9789V14.165H70.0898C70.4622 14.165 70.7504 14.0701 70.9545 13.8803C71.1586 13.687 71.2607 13.4238 71.2607 13.0908C71.2607 12.7685 71.1604 12.5053 70.9599 12.3012C70.763 12.0935 70.4855 11.9861 70.1274 11.9789H68.6127ZM80.977 14.976H79.9833V12.4946H77.3139V14.976H76.3149V9.16449H77.3139V11.6835H79.9833V9.16449H80.977V14.976ZM86.1655 14.976C86.1082 14.8614 86.0616 14.6573 86.0258 14.3637C85.5639 14.8435 85.0125 15.0834 84.3715 15.0834C83.7986 15.0834 83.3277 14.9223 82.9589 14.6C82.5937 14.2742 82.4111 13.8624 82.4111 13.3647C82.4111 12.7595 82.6402 12.2905 83.0986 11.9575C83.5605 11.6209 84.2086 11.4526 85.0429 11.4526H86.0097V10.996C86.0097 10.6487 85.9059 10.373 85.6982 10.1689C85.4905 9.9612 85.1843 9.85736 84.7797 9.85736C84.4252 9.85736 84.128 9.94688 83.8881 10.1259C83.6482 10.305 83.5283 10.5216 83.5283 10.7758H82.5292C82.5292 10.4858 82.6313 10.2065 82.8354 9.93793C83.0431 9.66579 83.3224 9.45095 83.6733 9.2934C84.0278 9.13584 84.4163 9.05707 84.8388 9.05707C85.5084 9.05707 86.033 9.22536 86.4125 9.56195C86.7921 9.89496 86.989 10.3551 87.0034 10.9423V13.6171C87.0034 14.1507 87.0714 14.575 87.2075 14.8901V14.976H86.1655ZM84.5165 14.2187C84.8281 14.2187 85.1235 14.1381 85.4028 13.977C85.6821 13.8159 85.8844 13.6064 86.0097 13.3486V12.1562H85.2309C84.0134 12.1562 83.4047 12.5125 83.4047 13.225C83.4047 13.5366 83.5086 13.78 83.7162 13.9555C83.9239 14.131 84.1907 14.2187 84.5165 14.2187ZM95.0493 9.16449H96.0429V14.976H95.0493V10.7382L92.3691 14.976H91.3754V9.16449H92.3691V13.4077L95.0493 9.16449ZM99.9692 14.2724C100.324 14.2724 100.633 14.165 100.898 13.9501C101.163 13.7353 101.31 13.4667 101.339 13.1445H102.279C102.261 13.4775 102.146 13.7944 101.935 14.0952C101.724 14.3959 101.441 14.6358 101.086 14.8149C100.735 14.9939 100.363 15.0834 99.9692 15.0834C99.1778 15.0834 98.5476 14.8203 98.0786 14.2939C97.6131 13.7639 97.3803 13.0406 97.3803 12.124V11.9575C97.3803 11.3917 97.4842 10.8886 97.6918 10.4482C97.8995 10.0078 98.1967 9.66579 98.5834 9.4223C98.9737 9.17881 99.4339 9.05707 99.9638 9.05707C100.615 9.05707 101.156 9.25222 101.586 9.64252C102.019 10.0328 102.25 10.5395 102.279 11.1625H101.339C101.31 10.7866 101.167 10.4786 100.909 10.2387C100.655 9.99522 100.34 9.87347 99.9638 9.87347C99.4589 9.87347 99.0668 10.0561 98.7875 10.4213C98.5118 10.783 98.374 11.3076 98.374 11.9951V12.183C98.374 12.8526 98.5118 13.3683 98.7875 13.7299C99.0633 14.0916 99.4571 14.2724 99.9692 14.2724ZM108.149 14.976H107.156V9.98627H104.481V14.976H103.482V9.16449H108.149V14.976ZM109.481 12.0165C109.481 11.4472 109.592 10.9352 109.814 10.4804C110.04 10.0257 110.352 9.67474 110.749 9.42767C111.15 9.1806 111.607 9.05707 112.119 9.05707C112.91 9.05707 113.549 9.33099 114.036 9.87885C114.527 10.4267 114.772 11.1554 114.772 12.0649V12.1347C114.772 12.7005 114.663 13.2089 114.444 13.6601C114.229 14.1077 113.92 14.4568 113.515 14.7075C113.114 14.9581 112.652 15.0834 112.129 15.0834C111.342 15.0834 110.702 14.8095 110.212 14.2617C109.725 13.7138 109.481 12.9887 109.481 12.0864V12.0165ZM110.48 12.1347C110.48 12.7792 110.629 13.2967 110.926 13.687C111.227 14.0773 111.628 14.2724 112.129 14.2724C112.634 14.2724 113.035 14.0755 113.332 13.6816C113.63 13.2841 113.778 12.7291 113.778 12.0165C113.778 11.3792 113.626 10.8635 113.322 10.4697C113.021 10.0722 112.62 9.87347 112.119 9.87347C111.628 9.87347 111.232 10.0686 110.932 10.4589C110.631 10.8492 110.48 11.4078 110.48 12.1347ZM120.696 9.16449V14.976H119.697V9.98627H117.721L117.602 12.1616C117.538 13.1606 117.37 13.8749 117.098 14.3046C116.829 14.7343 116.401 14.9581 115.814 14.976H115.416V14.1005L115.701 14.079C116.023 14.0432 116.254 13.857 116.394 13.5204C116.534 13.1839 116.623 12.5608 116.663 11.6513L116.77 9.16449H120.696ZM127.039 14.976H126.046V12.4946H123.376V14.976H122.377V9.16449H123.376V11.6835H126.046V9.16449H127.039V14.976ZM131.052 15.0834C130.264 15.0834 129.623 14.8256 129.129 14.31C128.635 13.7908 128.388 13.0979 128.388 12.2314V12.0488C128.388 11.4723 128.497 10.9584 128.715 10.5073C128.937 10.0525 129.245 9.69802 129.639 9.44379C130.037 9.18597 130.466 9.05707 130.928 9.05707C131.684 9.05707 132.271 9.30593 132.69 9.80365C133.109 10.3014 133.318 11.0139 133.318 11.9413V12.3549H129.381C129.396 12.9278 129.562 13.3915 129.881 13.746C130.203 14.0969 130.611 14.2724 131.105 14.2724C131.456 14.2724 131.754 14.2008 131.997 14.0576C132.24 13.9143 132.454 13.7245 132.636 13.4882L133.243 13.9609C132.756 14.7092 132.026 15.0834 131.052 15.0834ZM130.928 9.87347C130.527 9.87347 130.191 10.0203 129.918 10.3139C129.646 10.6039 129.478 11.0121 129.414 11.5385H132.325V11.4633C132.296 10.9584 132.16 10.5681 131.916 10.2924C131.673 10.0131 131.344 9.87347 130.928 9.87347ZM139.221 14.976H138.227V12.4946H135.558V14.976H134.559V9.16449H135.558V11.6835H138.227V9.16449H139.221V14.976ZM144.581 9.16449H145.575V14.976H144.581V10.7382L141.901 14.976H140.908V9.16449H141.901V13.4077L144.581 9.16449ZM149.582 15.0834C148.794 15.0834 148.153 14.8256 147.659 14.31C147.165 13.7908 146.918 13.0979 146.918 12.2314V12.0488C146.918 11.4723 147.027 10.9584 147.246 10.5073C147.468 10.0525 147.775 9.69802 148.169 9.44379C148.567 9.18597 148.997 9.05707 149.458 9.05707C150.214 9.05707 150.801 9.30593 151.22 9.80365C151.639 10.3014 151.849 11.0139 151.849 11.9413V12.3549H147.912C147.926 12.9278 148.092 13.3915 148.411 13.746C148.733 14.0969 149.142 14.2724 149.636 14.2724C149.987 14.2724 150.284 14.2008 150.527 14.0576C150.771 13.9143 150.984 13.7245 151.166 13.4882L151.773 13.9609C151.286 14.7092 150.556 15.0834 149.582 15.0834ZM149.458 9.87347C149.057 9.87347 148.721 10.0203 148.449 10.3139C148.177 10.6039 148.008 11.0121 147.944 11.5385H150.855V11.4633C150.826 10.9584 150.69 10.5681 150.447 10.2924C150.203 10.0131 149.874 9.87347 149.458 9.87347Z" fill="#555555"/>
</svg>
