<svg width="170" height="22" viewBox="0 0 170 22" fill="none" xmlns="http://www.w3.org/2000/svg">
<rect x="0.690369" y="0.5" width="168.583" height="21" rx="1.5" fill="#FBE4E5" stroke="#E6B3B5"/>
<path d="M33.1184 14.375V6.55469H35.675C36.5237 6.55469 37.1611 6.73014 37.5872 7.08105C38.0168 7.43197 38.2317 7.95117 38.2317 8.63867C38.2317 9.00391 38.1278 9.32796 37.9202 9.61084C37.7125 9.89014 37.4296 10.1068 37.0715 10.2607C37.4941 10.3789 37.8271 10.6045 38.0706 10.9375C38.3176 11.2669 38.4412 11.6608 38.4412 12.1191C38.4412 12.821 38.2138 13.3724 37.759 13.7734C37.3043 14.1745 36.6615 14.375 35.8308 14.375H33.1184ZM34.1497 10.7173V13.5317H35.8523C36.3321 13.5317 36.7099 13.4082 36.9856 13.1611C37.2649 12.9105 37.4045 12.5667 37.4045 12.1299C37.4045 11.1882 36.8925 10.7173 35.8684 10.7173H34.1497ZM34.1497 9.89014H35.7073C36.1584 9.89014 36.5183 9.77734 36.7869 9.55176C37.059 9.32617 37.1951 9.02002 37.1951 8.6333C37.1951 8.20361 37.0697 7.89209 36.8191 7.69873C36.5684 7.50179 36.1871 7.40332 35.675 7.40332H34.1497V9.89014ZM42.2278 14.4824C41.44 14.4824 40.7991 14.2246 40.3049 13.709C39.8108 13.1898 39.5637 12.4969 39.5637 11.6304V11.4478C39.5637 10.8713 39.6729 10.3574 39.8914 9.90625C40.1134 9.4515 40.4213 9.09701 40.8152 8.84277C41.2126 8.58496 41.6423 8.45605 42.1042 8.45605C42.8598 8.45605 43.447 8.70492 43.866 9.20264C44.2849 9.70036 44.4944 10.4129 44.4944 11.3403V11.7539H40.5574C40.5717 12.3268 40.7382 12.7905 41.0569 13.145C41.3792 13.4959 41.7874 13.6714 42.2815 13.6714C42.6324 13.6714 42.9296 13.5998 43.1731 13.4565C43.4166 13.3133 43.6296 13.1235 43.8123 12.8872L44.4192 13.3599C43.9322 14.1082 43.2017 14.4824 42.2278 14.4824ZM42.1042 9.27246C41.7032 9.27246 41.3666 9.41927 41.0945 9.71289C40.8223 10.0029 40.6541 10.4111 40.5896 10.9375H43.5007V10.8623C43.4721 10.3574 43.336 9.96712 43.0925 9.69141C42.849 9.41211 42.5196 9.27246 42.1042 9.27246ZM50.5583 11.5337C50.5583 12.4181 50.356 13.1307 49.9514 13.6714C49.5468 14.2121 48.9989 14.4824 48.3079 14.4824C47.6025 14.4824 47.0474 14.2586 46.6428 13.811V16.6094H45.6492V8.56348H46.5569L46.6052 9.20801C47.0098 8.70671 47.572 8.45605 48.2917 8.45605C48.99 8.45605 49.5414 8.71924 49.946 9.24561C50.3542 9.77197 50.5583 10.5042 50.5583 11.4424V11.5337ZM49.5647 11.4209C49.5647 10.7656 49.425 10.2482 49.1458 9.86865C48.8665 9.4891 48.4833 9.29932 47.9963 9.29932C47.3948 9.29932 46.9436 9.56608 46.6428 10.0996V12.8765C46.94 13.4064 47.3948 13.6714 48.0071 13.6714C48.4833 13.6714 48.8611 13.4834 49.1404 13.1074C49.4233 12.7279 49.5647 12.1657 49.5647 11.4209ZM56.574 14.375H55.5803V11.8936H52.9109V14.375H51.9119V8.56348H52.9109V11.0825H55.5803V8.56348H56.574V14.375ZM60.0759 12.9194L61.4294 8.56348H62.4929L60.1565 15.272C59.7948 16.2388 59.2201 16.7222 58.4324 16.7222L58.2444 16.7061L57.8738 16.6362V15.8306L58.1423 15.8521C58.4789 15.8521 58.7403 15.784 58.9265 15.6479C59.1163 15.5119 59.2721 15.263 59.3938 14.9014L59.614 14.3105L57.5408 8.56348H58.6257L60.0759 12.9194ZM67.7029 9.36914H65.7532V14.375H64.7595V9.36914H62.8474V8.56348H67.7029V9.36914ZM69.7546 10.5669H71.2639C71.9228 10.5741 72.4438 10.7459 72.8269 11.0825C73.21 11.4191 73.4016 11.8757 73.4016 12.4521C73.4016 13.0322 73.2047 13.4977 72.8108 13.8486C72.4169 14.1995 71.887 14.375 71.2209 14.375H68.761V8.56348H69.7546V10.5669ZM69.7546 11.3779V13.564H71.2317C71.6041 13.564 71.8923 13.4691 72.0964 13.2793C72.3005 13.0859 72.4026 12.8228 72.4026 12.4897C72.4026 12.1675 72.3023 11.9043 72.1018 11.7002C71.9049 11.4925 71.6274 11.3851 71.2693 11.3779H69.7546ZM81.1306 8.56348H82.1243V14.375H81.1306V10.1372L78.4504 14.375H77.4568V8.56348H78.4504V12.8066L81.1306 8.56348ZM88.4675 14.375H87.4739V11.8936H84.8044V14.375H83.8054V8.56348H84.8044V11.0825H87.4739V8.56348H88.4675V14.375ZM93.8279 8.56348H94.8215V14.375H93.8279V10.1372L91.1477 14.375H90.1541V8.56348H91.1477V12.8066L93.8279 8.56348ZM96.5027 8.56348H97.5017V13.564H100.177V8.56348H101.17V13.564H101.863L101.766 16.0991H100.875V14.375H96.5027V8.56348ZM106.697 8.56348H107.691V14.375H106.697V10.1372L104.017 14.375H103.023V8.56348H104.017V12.8066L106.697 8.56348ZM112.874 14.375C112.816 14.2604 112.77 14.0563 112.734 13.7627C112.272 14.2425 111.721 14.4824 111.08 14.4824C110.507 14.4824 110.036 14.3213 109.667 13.999C109.302 13.6732 109.119 13.2614 109.119 12.7637C109.119 12.1585 109.349 11.6895 109.807 11.3564C110.269 11.0199 110.917 10.8516 111.751 10.8516H112.718V10.395C112.718 10.0477 112.614 9.77197 112.406 9.56787C112.199 9.36019 111.893 9.25635 111.488 9.25635C111.134 9.25635 110.836 9.34587 110.596 9.5249C110.357 9.70394 110.237 9.92057 110.237 10.1748H109.238C109.238 9.88477 109.34 9.60547 109.544 9.33691C109.751 9.06478 110.031 8.84993 110.382 8.69238C110.736 8.53483 111.125 8.45605 111.547 8.45605C112.217 8.45605 112.741 8.62435 113.121 8.96094C113.5 9.29395 113.697 9.75407 113.712 10.3413V13.0161C113.712 13.5496 113.78 13.974 113.916 14.2891V14.375H112.874ZM111.225 13.6177C111.536 13.6177 111.832 13.5371 112.111 13.376C112.39 13.2148 112.593 13.0054 112.718 12.7476V11.5552H111.939C110.722 11.5552 110.113 11.9115 110.113 12.624C110.113 12.9355 110.217 13.179 110.425 13.3545C110.632 13.5299 110.899 13.6177 111.225 13.6177ZM119.502 9.36914H117.552V14.375H116.558V9.36914H114.646V8.56348H119.502V9.36914ZM119.98 11.4155C119.98 10.8462 120.091 10.3341 120.313 9.87939C120.538 9.42464 120.85 9.07373 121.247 8.82666C121.648 8.57959 122.105 8.45605 122.617 8.45605C123.408 8.45605 124.047 8.72998 124.534 9.27783C125.025 9.82568 125.27 10.5544 125.27 11.4639V11.5337C125.27 12.0994 125.161 12.6079 124.943 13.0591C124.728 13.5067 124.418 13.8558 124.013 14.1064C123.612 14.3571 123.15 14.4824 122.628 14.4824C121.84 14.4824 121.201 14.2085 120.71 13.6606C120.223 13.1128 119.98 12.3877 119.98 11.4854V11.4155ZM120.979 11.5337C120.979 12.1782 121.127 12.6956 121.425 13.0859C121.725 13.4762 122.126 13.6714 122.628 13.6714C123.133 13.6714 123.534 13.4744 123.831 13.0806C124.128 12.6831 124.277 12.1281 124.277 11.4155C124.277 10.7782 124.124 10.2625 123.82 9.86865C123.519 9.47119 123.118 9.27246 122.617 9.27246C122.126 9.27246 121.731 9.46761 121.43 9.85791C121.129 10.2482 120.979 10.8068 120.979 11.5337ZM131.426 11.5337C131.426 12.4181 131.223 13.1307 130.819 13.6714C130.414 14.2121 129.866 14.4824 129.175 14.4824C128.47 14.4824 127.915 14.2586 127.51 13.811V16.6094H126.516V8.56348H127.424L127.472 9.20801C127.877 8.70671 128.439 8.45605 129.159 8.45605C129.857 8.45605 130.409 8.71924 130.813 9.24561C131.221 9.77197 131.426 10.5042 131.426 11.4424V11.5337ZM130.432 11.4209C130.432 10.7656 130.292 10.2482 130.013 9.86865C129.734 9.4891 129.351 9.29932 128.864 9.29932C128.262 9.29932 127.811 9.56608 127.51 10.0996V12.8765C127.807 13.4064 128.262 13.6714 128.874 13.6714C129.351 13.6714 129.728 13.4834 130.008 13.1074C130.29 12.7279 130.432 12.1657 130.432 11.4209ZM134.53 12.9194L135.884 8.56348H136.947L134.611 15.272C134.249 16.2388 133.674 16.7222 132.886 16.7222L132.698 16.7061L132.328 16.6362V15.8306L132.596 15.8521C132.933 15.8521 133.194 15.784 133.381 15.6479C133.57 15.5119 133.726 15.263 133.848 14.9014L134.068 14.3105L131.995 8.56348H133.08L134.53 12.9194Z" fill="#555555"/>
</svg>
