<svg width="115" height="23" viewBox="0 0 115 23" fill="none" xmlns="http://www.w3.org/2000/svg">
<rect x="0.501465" y="0.826416" width="113" height="21" rx="1.5" fill="#F8F8F8" stroke="#DADADA"/>
<path d="M30.2779 8.9812C30.2779 8.56584 30.1257 8.23641 29.8214 7.99292C29.5206 7.74585 29.0963 7.62231 28.5484 7.62231C28.0901 7.62231 27.7051 7.74943 27.3936 8.00366C27.0857 8.25431 26.9317 8.56584 26.9317 8.93823H25.9005C25.9005 8.52287 26.0132 8.15047 26.2388 7.82104C26.468 7.49162 26.7867 7.2356 27.1949 7.05298C27.6031 6.86678 28.0543 6.77368 28.5484 6.77368C29.4221 6.77368 30.1006 6.97062 30.584 7.3645C31.0674 7.7548 31.3091 8.29907 31.3091 8.99731C31.3091 9.35897 31.1981 9.6884 30.9761 9.9856C30.7541 10.2828 30.4444 10.5173 30.0469 10.6892C30.9672 10.9972 31.4273 11.6077 31.4273 12.5208C31.4273 13.2226 31.1659 13.7794 30.6431 14.1912C30.1203 14.6029 29.4221 14.8088 28.5484 14.8088C28.0292 14.8088 27.5565 14.7175 27.1304 14.5349C26.7079 14.3487 26.3785 14.0855 26.1422 13.7454C25.9058 13.4052 25.7877 13.0006 25.7877 12.5315H26.8189C26.8189 12.9433 26.9818 13.287 27.3077 13.5627C27.6335 13.8349 28.0471 13.9709 28.5484 13.9709C29.1106 13.9709 29.5582 13.8403 29.8912 13.5789C30.2278 13.3175 30.3961 12.9719 30.3961 12.5422C30.3961 11.6256 29.8285 11.1583 28.6934 11.1404H27.7266V10.2917H28.688C29.2108 10.281 29.6065 10.1628 29.8751 9.93726C30.1436 9.71167 30.2779 9.39299 30.2779 8.9812ZM36.2291 14.7014C36.1718 14.5868 36.1252 14.3827 36.0894 14.0891C35.6275 14.5689 35.0761 14.8088 34.4351 14.8088C33.8622 14.8088 33.3913 14.6477 33.0225 14.3254C32.6573 13.9996 32.4747 13.5878 32.4747 13.0901C32.4747 12.4849 32.7038 12.0159 33.1622 11.6829C33.6241 11.3463 34.2722 11.178 35.1065 11.178H36.0733V10.7214C36.0733 10.3741 35.9695 10.0984 35.7618 9.89429C35.5541 9.6866 35.2479 9.58276 34.8433 9.58276C34.4888 9.58276 34.1916 9.67228 33.9517 9.85132C33.7118 10.0304 33.5919 10.247 33.5919 10.5012H32.5928C32.5928 10.2112 32.6949 9.93188 32.899 9.66333C33.1067 9.39119 33.386 9.17635 33.7369 9.0188C34.0914 8.86125 34.4799 8.78247 34.9024 8.78247C35.572 8.78247 36.0966 8.95076 36.4761 9.28735C36.8557 9.62036 37.0526 10.0805 37.067 10.6677V13.3425C37.067 13.8761 37.135 14.3004 37.2711 14.6155V14.7014H36.2291ZM34.5801 13.9441C34.8917 13.9441 35.1871 13.8635 35.4664 13.7024C35.7457 13.5413 35.948 13.3318 36.0733 13.074V11.8816H35.2945C34.077 11.8816 33.4683 12.2379 33.4683 12.9504C33.4683 13.262 33.5722 13.5055 33.7798 13.6809C33.9875 13.8564 34.2543 13.9441 34.5801 13.9441ZM43.378 14.7014H42.3843V9.71167H39.7095V14.7014H38.7105V8.88989H43.378V14.7014ZM46.8746 13.2458L48.2281 8.88989H49.2916L46.9551 15.5984C46.5935 16.5652 46.0188 17.0486 45.231 17.0486L45.043 17.0325L44.6724 16.9626V16.157L44.941 16.1785C45.2776 16.1785 45.539 16.1104 45.7252 15.9744C45.9149 15.8383 46.0707 15.5894 46.1924 15.2278L46.4127 14.637L44.3394 8.88989H45.4244L46.8746 13.2458ZM52.439 13.9978C52.7935 13.9978 53.1033 13.8904 53.3682 13.6755C53.6332 13.4607 53.78 13.1921 53.8087 12.8699H54.7486C54.7307 13.2029 54.6161 13.5198 54.4048 13.8206C54.1936 14.1213 53.9107 14.3612 53.5562 14.5403C53.2053 14.7193 52.8329 14.8088 52.439 14.8088C51.6477 14.8088 51.0175 14.5457 50.5484 14.0193C50.0829 13.4893 49.8502 12.766 49.8502 11.8494V11.6829C49.8502 11.1171 49.954 10.614 50.1617 10.1736C50.3694 9.73315 50.6666 9.39119 51.0533 9.14771C51.4436 8.90422 51.9037 8.78247 52.4337 8.78247C53.0853 8.78247 53.626 8.97762 54.0557 9.36792C54.489 9.75822 54.72 10.2649 54.7486 10.8879H53.8087C53.78 10.512 53.6368 10.204 53.379 9.96411C53.1247 9.72062 52.8096 9.59888 52.4337 9.59888C51.9288 9.59888 51.5367 9.78149 51.2574 10.1467C50.9817 10.5084 50.8438 11.033 50.8438 11.7205V11.9084C50.8438 12.578 50.9817 13.0937 51.2574 13.4553C51.5331 13.817 51.927 13.9978 52.439 13.9978ZM60.1841 9.69556H58.2344V14.7014H57.2408V9.69556H55.3287V8.88989H60.1841V9.69556ZM64.9107 8.88989H65.9044V14.7014H64.9107V10.4636L62.2305 14.7014H61.2369V8.88989H62.2305V13.1331L64.9107 8.88989ZM71.8179 9.69556H69.8682V14.7014H68.8746V9.69556H66.9625V8.88989H71.8179V9.69556ZM73.8697 10.8933H75.379C76.0378 10.9005 76.5588 11.0723 76.942 11.4089C77.3251 11.7455 77.5167 12.2021 77.5167 12.7786C77.5167 13.3586 77.3197 13.8241 76.9258 14.175C76.532 14.526 76.002 14.7014 75.336 14.7014H72.876V8.88989H73.8697V10.8933ZM73.8697 11.7043V13.8904H75.3467C75.7191 13.8904 76.0074 13.7955 76.2115 13.6057C76.4156 13.4124 76.5176 13.1492 76.5176 12.8162C76.5176 12.4939 76.4174 12.2307 76.2169 12.0266C76.0199 11.8189 75.7424 11.7115 75.3843 11.7043H73.8697Z" fill="#555555"/>
<path d="M88.9974 10.3304H83.0054L86.0014 13.3204L88.9974 10.3304Z" fill="#555555"/>
</svg>
