<svg width="107" height="23" viewBox="0 0 107 23" fill="none" xmlns="http://www.w3.org/2000/svg">
<rect x="0.501465" y="0.826416" width="105" height="21" rx="1.5" fill="#F8F8F8" stroke="#DADADA"/>
<path d="M18.1024 12.22C18.0057 13.0471 17.6996 13.6863 17.184 14.1375C16.6719 14.585 15.9898 14.8088 15.1376 14.8088C14.2137 14.8088 13.4725 14.4776 12.9139 13.8152C12.3589 13.1528 12.0814 12.2665 12.0814 11.1565V10.4045C12.0814 9.67765 12.2103 9.03849 12.4681 8.48706C12.7295 7.93563 13.0983 7.5131 13.5746 7.21948C14.0508 6.92228 14.6023 6.77368 15.2289 6.77368C16.0596 6.77368 16.7256 7.00643 17.2269 7.47192C17.7282 7.93384 18.0201 8.57479 18.1024 9.39478H17.0658C16.9763 8.77173 16.7811 8.32056 16.4803 8.04126C16.1831 7.76196 15.766 7.62231 15.2289 7.62231C14.57 7.62231 14.0526 7.8658 13.6766 8.35278C13.3042 8.83976 13.118 9.53263 13.118 10.4314V11.1887C13.118 12.0374 13.2953 12.7123 13.6498 13.2136C14.0043 13.7149 14.5002 13.9656 15.1376 13.9656C15.7105 13.9656 16.1491 13.8367 16.4535 13.5789C16.7614 13.3175 16.9655 12.8645 17.0658 12.22H18.1024ZM19.0961 11.7419C19.0961 11.1726 19.2071 10.6606 19.4291 10.2058C19.6547 9.75106 19.9662 9.40015 20.3636 9.15308C20.7647 8.90601 21.2212 8.78247 21.7333 8.78247C22.5246 8.78247 23.1638 9.0564 23.6508 9.60425C24.1413 10.1521 24.3866 10.8808 24.3866 11.7903V11.8601C24.3866 12.4259 24.2774 12.9343 24.059 13.3855C23.8441 13.8331 23.5344 14.1822 23.1298 14.4329C22.7287 14.6835 22.2668 14.8088 21.744 14.8088C20.9563 14.8088 20.3171 14.5349 19.8265 13.9871C19.3396 13.4392 19.0961 12.7141 19.0961 11.8118V11.7419ZM20.0951 11.8601C20.0951 12.5046 20.2437 13.0221 20.5409 13.4124C20.8417 13.8027 21.2427 13.9978 21.744 13.9978C22.2489 13.9978 22.6499 13.8009 22.9471 13.407C23.2443 13.0095 23.3929 12.4545 23.3929 11.7419C23.3929 11.1046 23.2408 10.5889 22.9364 10.1951C22.6356 9.79761 22.2346 9.59888 21.7333 9.59888C21.2427 9.59888 20.847 9.79403 20.5463 10.1843C20.2455 10.5746 20.0951 11.1332 20.0951 11.8601ZM28.8285 10.4797C28.8285 10.2076 28.7247 9.99276 28.517 9.83521C28.3093 9.67407 28.0246 9.59351 27.663 9.59351C27.3121 9.59351 27.0184 9.68481 26.7821 9.86743C26.5494 10.05 26.433 10.2649 26.433 10.512H25.4447C25.4447 10.0071 25.656 9.59351 26.0785 9.27124C26.501 8.94897 27.0292 8.78784 27.663 8.78784C28.3433 8.78784 28.8733 8.93465 29.2528 9.22827C29.6324 9.51831 29.8221 9.93368 29.8221 10.4744C29.8221 10.7358 29.7434 10.9757 29.5858 11.1941C29.4283 11.4125 29.2045 11.5862 28.9144 11.7151C29.5912 11.9443 29.9296 12.3954 29.9296 13.0686C29.9296 13.6021 29.7237 14.0247 29.3119 14.3362C28.9001 14.6477 28.3505 14.8035 27.663 14.8035C26.9934 14.8035 26.4401 14.6405 26.0033 14.3147C25.57 13.9853 25.3534 13.5413 25.3534 12.9827H26.3417C26.3417 13.2655 26.467 13.509 26.7177 13.7131C26.9719 13.9137 27.287 14.0139 27.663 14.0139C28.0425 14.0139 28.3487 13.9262 28.5814 13.7507C28.8142 13.5753 28.9305 13.3479 28.9305 13.0686C28.9305 12.7428 28.8321 12.51 28.6351 12.3704C28.4418 12.2271 28.1392 12.1555 27.7274 12.1555H26.7338V11.3176H27.8134C28.4901 11.2997 28.8285 11.0204 28.8285 10.4797ZM31.1703 13.8904L31.514 13.4661C31.9008 12.9648 32.121 12.2128 32.1747 11.2102L32.266 8.88989H36.0096V13.8904H36.7562V16.4094H35.7626V14.7014H31.7074V16.4094H30.7137L30.7191 13.8904H31.1703ZM32.3466 13.8904H35.016V9.80835H33.2274L33.1683 11.1941C33.1075 12.3507 32.8335 13.2494 32.3466 13.8904ZM41.4452 14.7014C41.3879 14.5868 41.3413 14.3827 41.3055 14.0891C40.8436 14.5689 40.2922 14.8088 39.6512 14.8088C39.0783 14.8088 38.6075 14.6477 38.2386 14.3254C37.8734 13.9996 37.6908 13.5878 37.6908 13.0901C37.6908 12.4849 37.92 12.0159 38.3783 11.6829C38.8402 11.3463 39.4883 11.178 40.3226 11.178H41.2894V10.7214C41.2894 10.3741 41.1856 10.0984 40.9779 9.89429C40.7702 9.6866 40.4641 9.58276 40.0594 9.58276C39.705 9.58276 39.4078 9.67228 39.1678 9.85132C38.9279 10.0304 38.808 10.247 38.808 10.5012H37.809C37.809 10.2112 37.911 9.93188 38.1151 9.66333C38.3228 9.39119 38.6021 9.17635 38.953 9.0188C39.3075 8.86125 39.696 8.78247 40.1185 8.78247C40.7881 8.78247 41.3127 8.95076 41.6923 9.28735C42.0718 9.62036 42.2688 10.0805 42.2831 10.6677V13.3425C42.2831 13.8761 42.3511 14.3004 42.4872 14.6155V14.7014H41.4452ZM39.7963 13.9441C40.1078 13.9441 40.4032 13.8635 40.6825 13.7024C40.9618 13.5413 41.1641 13.3318 41.2894 13.074V11.8816H40.5106C39.2932 11.8816 38.6844 12.2379 38.6844 12.9504C38.6844 13.262 38.7883 13.5055 38.996 13.6809C39.2037 13.8564 39.4704 13.9441 39.7963 13.9441ZM48.0731 9.69556H46.1234V14.7014H45.1298V9.69556H43.2177V8.88989H48.0731V9.69556ZM50.1249 10.8933H51.6342C52.293 10.9005 52.814 11.0723 53.1971 11.4089C53.5803 11.7455 53.7719 12.2021 53.7719 12.7786C53.7719 13.3586 53.5749 13.8241 53.181 14.175C52.7872 14.526 52.2572 14.7014 51.5912 14.7014H49.1312V8.88989H50.1249V10.8933ZM50.1249 11.7043V13.8904H51.6019C51.9743 13.8904 52.2626 13.7955 52.4667 13.6057C52.6708 13.4124 52.7728 13.1492 52.7728 12.8162C52.7728 12.4939 52.6726 12.2307 52.472 12.0266C52.2751 11.8189 51.9976 11.7115 51.6395 11.7043H50.1249ZM60.9369 10.4797C60.9369 10.2076 60.833 9.99276 60.6254 9.83521C60.4177 9.67407 60.133 9.59351 59.7714 9.59351C59.4205 9.59351 59.1268 9.68481 58.8905 9.86743C58.6578 10.05 58.5414 10.2649 58.5414 10.512H57.5531C57.5531 10.0071 57.7644 9.59351 58.1869 9.27124C58.6094 8.94897 59.1376 8.78784 59.7714 8.78784C60.4517 8.78784 60.9816 8.93465 61.3612 9.22827C61.7408 9.51831 61.9305 9.93368 61.9305 10.4744C61.9305 10.7358 61.8518 10.9757 61.6942 11.1941C61.5367 11.4125 61.3129 11.5862 61.0228 11.7151C61.6996 11.9443 62.038 12.3954 62.038 13.0686C62.038 13.6021 61.8321 14.0247 61.4203 14.3362C61.0085 14.6477 60.4589 14.8035 59.7714 14.8035C59.1018 14.8035 58.5485 14.6405 58.1117 14.3147C57.6784 13.9853 57.4618 13.5413 57.4618 12.9827H58.4501C58.4501 13.2655 58.5754 13.509 58.826 13.7131C59.0803 13.9137 59.3954 14.0139 59.7714 14.0139C60.1509 14.0139 60.4571 13.9262 60.6898 13.7507C60.9226 13.5753 61.0389 13.3479 61.0389 13.0686C61.0389 12.7428 60.9405 12.51 60.7435 12.3704C60.5502 12.2271 60.2476 12.1555 59.8358 12.1555H58.8422V11.3176H59.9218C60.5985 11.2997 60.9369 11.0204 60.9369 10.4797ZM66.9149 14.7014C66.8576 14.5868 66.8111 14.3827 66.7753 14.0891C66.3134 14.5689 65.7619 14.8088 65.121 14.8088C64.5481 14.8088 64.0772 14.6477 63.7084 14.3254C63.3431 13.9996 63.1605 13.5878 63.1605 13.0901C63.1605 12.4849 63.3897 12.0159 63.848 11.6829C64.3099 11.3463 64.958 11.178 65.7924 11.178H66.7592V10.7214C66.7592 10.3741 66.6553 10.0984 66.4476 9.89429C66.2399 9.6866 65.9338 9.58276 65.5292 9.58276C65.1747 9.58276 64.8775 9.67228 64.6376 9.85132C64.3977 10.0304 64.2777 10.247 64.2777 10.5012H63.2787C63.2787 10.2112 63.3807 9.93188 63.5848 9.66333C63.7925 9.39119 64.0718 9.17635 64.4227 9.0188C64.7772 8.86125 65.1657 8.78247 65.5883 8.78247C66.2579 8.78247 66.7824 8.95076 67.162 9.28735C67.5415 9.62036 67.7385 10.0805 67.7528 10.6677V13.3425C67.7528 13.8761 67.8208 14.3004 67.9569 14.6155V14.7014H66.9149ZM65.266 13.9441C65.5775 13.9441 65.8729 13.8635 66.1522 13.7024C66.4315 13.5413 66.6338 13.3318 66.7592 13.074V11.8816H65.9803C64.7629 11.8816 64.1542 12.2379 64.1542 12.9504C64.1542 13.262 64.258 13.5055 64.4657 13.6809C64.6734 13.8564 64.9401 13.9441 65.266 13.9441ZM69.2621 13.8904L69.6058 13.4661C69.9926 12.9648 70.2128 12.2128 70.2665 11.2102L70.3578 8.88989H74.1014V13.8904H74.848V16.4094H73.8544V14.7014H69.7992V16.4094H68.8055L68.8109 13.8904H69.2621ZM70.4384 13.8904H73.1078V9.80835H71.3192L71.2601 11.1941C71.1993 12.3507 70.9253 13.2494 70.4384 13.8904ZM79.537 14.7014C79.4797 14.5868 79.4331 14.3827 79.3973 14.0891C78.9354 14.5689 78.384 14.8088 77.743 14.8088C77.1701 14.8088 76.6993 14.6477 76.3304 14.3254C75.9652 13.9996 75.7826 13.5878 75.7826 13.0901C75.7826 12.4849 76.0118 12.0159 76.4701 11.6829C76.932 11.3463 77.5801 11.178 78.4144 11.178H79.3812V10.7214C79.3812 10.3741 79.2774 10.0984 79.0697 9.89429C78.862 9.6866 78.5559 9.58276 78.1512 9.58276C77.7968 9.58276 77.4996 9.67228 77.2596 9.85132C77.0197 10.0304 76.8998 10.247 76.8998 10.5012H75.9008C75.9008 10.2112 76.0028 9.93188 76.2069 9.66333C76.4146 9.39119 76.6939 9.17635 77.0448 9.0188C77.3993 8.86125 77.7878 8.78247 78.2103 8.78247C78.8799 8.78247 79.4045 8.95076 79.7841 9.28735C80.1636 9.62036 80.3606 10.0805 80.3749 10.6677V13.3425C80.3749 13.8761 80.4429 14.3004 80.579 14.6155V14.7014H79.537ZM77.8881 13.9441C78.1996 13.9441 78.495 13.8635 78.7743 13.7024C79.0536 13.5413 79.2559 13.3318 79.3812 13.074V11.8816H78.6024C77.385 11.8816 76.7762 12.2379 76.7762 12.9504C76.7762 13.262 76.8801 13.5055 77.0878 13.6809C77.2955 13.8564 77.5622 13.9441 77.8881 13.9441ZM86.3207 14.7014H85.3217V12.5959C84.8848 12.7105 84.4372 12.7678 83.9789 12.7678C83.252 12.7678 82.697 12.5816 82.3138 12.2092C81.9343 11.8368 81.7409 11.3069 81.7338 10.6194V8.88452H82.7274V10.6516C82.7453 11.5181 83.1625 11.9514 83.9789 11.9514C84.4372 11.9514 84.8848 11.8941 85.3217 11.7795V8.88989H86.3207V14.7014ZM91.6757 8.88989H92.6693V14.7014H91.6757V10.4636L88.9955 14.7014H88.0018V8.88989H88.9955V13.1331L91.6757 8.88989Z" fill="#555555"/>
</svg>
