<svg width="107" height="23" viewBox="0 0 107 23" fill="none" xmlns="http://www.w3.org/2000/svg">
<rect x="0.918091" y="0.826416" width="105" height="21" rx="1.5" fill="#F8F8F8" stroke="#DADADA"/>
<path d="M19.0884 12.22C18.9917 13.0471 18.6855 13.6863 18.1699 14.1375C17.6579 14.585 16.9757 14.8088 16.1235 14.8088C15.1997 14.8088 14.4585 14.4776 13.8999 13.8152C13.3449 13.1528 13.0674 12.2665 13.0674 11.1565V10.4045C13.0674 9.67765 13.1963 9.03849 13.4541 8.48706C13.7155 7.93563 14.0843 7.5131 14.5605 7.21948C15.0368 6.92228 15.5882 6.77368 16.2148 6.77368C17.0456 6.77368 17.7116 7.00643 18.2129 7.47192C18.7142 7.93384 19.006 8.57479 19.0884 9.39478H18.0518C17.9622 8.77173 17.7671 8.32056 17.4663 8.04126C17.1691 7.76196 16.752 7.62231 16.2148 7.62231C15.556 7.62231 15.0386 7.8658 14.6626 8.35278C14.2902 8.83976 14.104 9.53263 14.104 10.4314V11.1887C14.104 12.0374 14.2812 12.7123 14.6357 13.2136C14.9902 13.7149 15.4862 13.9656 16.1235 13.9656C16.6965 13.9656 17.1351 13.8367 17.4395 13.5789C17.7474 13.3175 17.9515 12.8645 18.0518 12.22H19.0884ZM20.082 11.7419C20.082 11.1726 20.193 10.6606 20.415 10.2058C20.6406 9.75106 20.9521 9.40015 21.3496 9.15308C21.7507 8.90601 22.2072 8.78247 22.7192 8.78247C23.5106 8.78247 24.1497 9.0564 24.6367 9.60425C25.1273 10.1521 25.3726 10.8808 25.3726 11.7903V11.8601C25.3726 12.4259 25.2633 12.9343 25.0449 13.3855C24.8301 13.8331 24.5203 14.1822 24.1157 14.4329C23.7147 14.6835 23.2528 14.8088 22.73 14.8088C21.9422 14.8088 21.3031 14.5349 20.8125 13.9871C20.3255 13.4392 20.082 12.7141 20.082 11.8118V11.7419ZM21.0811 11.8601C21.0811 12.5046 21.2297 13.0221 21.5269 13.4124C21.8276 13.8027 22.2287 13.9978 22.73 13.9978C23.2349 13.9978 23.6359 13.8009 23.9331 13.407C24.2303 13.0095 24.3789 12.4545 24.3789 11.7419C24.3789 11.1046 24.2267 10.5889 23.9224 10.1951C23.6216 9.79761 23.2205 9.59888 22.7192 9.59888C22.2287 9.59888 21.833 9.79403 21.5322 10.1843C21.2314 10.5746 21.0811 11.1332 21.0811 11.8601ZM29.8145 10.4797C29.8145 10.2076 29.7106 9.99276 29.5029 9.83521C29.2952 9.67407 29.0106 9.59351 28.6489 9.59351C28.298 9.59351 28.0044 9.68481 27.7681 9.86743C27.5353 10.05 27.4189 10.2649 27.4189 10.512H26.4307C26.4307 10.0071 26.6419 9.59351 27.0645 9.27124C27.487 8.94897 28.0151 8.78784 28.6489 8.78784C29.3293 8.78784 29.8592 8.93465 30.2388 9.22827C30.6183 9.51831 30.8081 9.93368 30.8081 10.4744C30.8081 10.7358 30.7293 10.9757 30.5718 11.1941C30.4142 11.4125 30.1904 11.5862 29.9004 11.7151C30.5771 11.9443 30.9155 12.3954 30.9155 13.0686C30.9155 13.6021 30.7096 14.0247 30.2979 14.3362C29.8861 14.6477 29.3364 14.8035 28.6489 14.8035C27.9793 14.8035 27.4261 14.6405 26.9893 14.3147C26.556 13.9853 26.3394 13.5413 26.3394 12.9827H27.3276C27.3276 13.2655 27.453 13.509 27.7036 13.7131C27.9578 13.9137 28.2729 14.0139 28.6489 14.0139C29.0285 14.0139 29.3346 13.9262 29.5674 13.7507C29.8001 13.5753 29.9165 13.3479 29.9165 13.0686C29.9165 12.7428 29.818 12.51 29.6211 12.3704C29.4277 12.2271 29.1252 12.1555 28.7134 12.1555H27.7197V11.3176H28.7993C29.4761 11.2997 29.8145 11.0204 29.8145 10.4797ZM32.1562 13.8904L32.5 13.4661C32.8867 12.9648 33.1069 12.2128 33.1606 11.2102L33.252 8.88989H36.9956V13.8904H37.7422V16.4094H36.7485V14.7014H32.6934V16.4094H31.6997L31.7051 13.8904H32.1562ZM33.3325 13.8904H36.002V9.80835H34.2134L34.1543 11.1941C34.0934 12.3507 33.8195 13.2494 33.3325 13.8904ZM42.4312 14.7014C42.3739 14.5868 42.3273 14.3827 42.2915 14.0891C41.8296 14.5689 41.2782 14.8088 40.6372 14.8088C40.0643 14.8088 39.5934 14.6477 39.2246 14.3254C38.8594 13.9996 38.6768 13.5878 38.6768 13.0901C38.6768 12.4849 38.9059 12.0159 39.3643 11.6829C39.8262 11.3463 40.4743 11.178 41.3086 11.178H42.2754V10.7214C42.2754 10.3741 42.1715 10.0984 41.9639 9.89429C41.7562 9.6866 41.45 9.58276 41.0454 9.58276C40.6909 9.58276 40.3937 9.67228 40.1538 9.85132C39.9139 10.0304 39.7939 10.247 39.7939 10.5012H38.7949C38.7949 10.2112 38.897 9.93188 39.1011 9.66333C39.3088 9.39119 39.5881 9.17635 39.939 9.0188C40.2935 8.86125 40.682 8.78247 41.1045 8.78247C41.7741 8.78247 42.2987 8.95076 42.6782 9.28735C43.0578 9.62036 43.2547 10.0805 43.269 10.6677V13.3425C43.269 13.8761 43.3371 14.3004 43.4731 14.6155V14.7014H42.4312ZM40.7822 13.9441C41.0938 13.9441 41.3892 13.8635 41.6685 13.7024C41.9478 13.5413 42.1501 13.3318 42.2754 13.074V11.8816H41.4966C40.2791 11.8816 39.6704 12.2379 39.6704 12.9504C39.6704 13.262 39.7743 13.5055 39.9819 13.6809C40.1896 13.8564 40.4564 13.9441 40.7822 13.9441ZM49.0591 9.69556H47.1094V14.7014H46.1157V9.69556H44.2036V8.88989H49.0591V9.69556ZM51.1108 10.8933H52.6201C53.279 10.9005 53.8 11.0723 54.1831 11.4089C54.5662 11.7455 54.7578 12.2021 54.7578 12.7786C54.7578 13.3586 54.5609 13.8241 54.167 14.175C53.7731 14.526 53.2432 14.7014 52.5771 14.7014H50.1172V8.88989H51.1108V10.8933ZM51.1108 11.7043V13.8904H52.5879C52.9603 13.8904 53.2485 13.7955 53.4526 13.6057C53.6567 13.4124 53.7588 13.1492 53.7588 12.8162C53.7588 12.4939 53.6585 12.2307 53.458 12.0266C53.2611 11.8189 52.9836 11.7115 52.6255 11.7043H51.1108ZM61.9229 10.4797C61.9229 10.2076 61.819 9.99276 61.6113 9.83521C61.4036 9.67407 61.119 9.59351 60.7573 9.59351C60.4064 9.59351 60.1128 9.68481 59.8765 9.86743C59.6437 10.05 59.5273 10.2649 59.5273 10.512H58.5391C58.5391 10.0071 58.7503 9.59351 59.1729 9.27124C59.5954 8.94897 60.1235 8.78784 60.7573 8.78784C61.4377 8.78784 61.9676 8.93465 62.3472 9.22827C62.7267 9.51831 62.9165 9.93368 62.9165 10.4744C62.9165 10.7358 62.8377 10.9757 62.6802 11.1941C62.5226 11.4125 62.2988 11.5862 62.0088 11.7151C62.6855 11.9443 63.0239 12.3954 63.0239 13.0686C63.0239 13.6021 62.818 14.0247 62.4062 14.3362C61.9945 14.6477 61.4448 14.8035 60.7573 14.8035C60.0877 14.8035 59.5345 14.6405 59.0977 14.3147C58.6644 13.9853 58.4478 13.5413 58.4478 12.9827H59.436C59.436 13.2655 59.5614 13.509 59.812 13.7131C60.0662 13.9137 60.3813 14.0139 60.7573 14.0139C61.1369 14.0139 61.443 13.9262 61.6758 13.7507C61.9085 13.5753 62.0249 13.3479 62.0249 13.0686C62.0249 12.7428 61.9264 12.51 61.7295 12.3704C61.5361 12.2271 61.2336 12.1555 60.8218 12.1555H59.8281V11.3176H60.9077C61.5845 11.2997 61.9229 11.0204 61.9229 10.4797ZM67.9009 14.7014C67.8436 14.5868 67.797 14.3827 67.7612 14.0891C67.2993 14.5689 66.7479 14.8088 66.1069 14.8088C65.534 14.8088 65.0632 14.6477 64.6943 14.3254C64.3291 13.9996 64.1465 13.5878 64.1465 13.0901C64.1465 12.4849 64.3757 12.0159 64.834 11.6829C65.2959 11.3463 65.944 11.178 66.7783 11.178H67.7451V10.7214C67.7451 10.3741 67.6413 10.0984 67.4336 9.89429C67.2259 9.6866 66.9198 9.58276 66.5151 9.58276C66.1606 9.58276 65.8634 9.67228 65.6235 9.85132C65.3836 10.0304 65.2637 10.247 65.2637 10.5012H64.2646C64.2646 10.2112 64.3667 9.93188 64.5708 9.66333C64.7785 9.39119 65.0578 9.17635 65.4087 9.0188C65.7632 8.86125 66.1517 8.78247 66.5742 8.78247C67.2438 8.78247 67.7684 8.95076 68.1479 9.28735C68.5275 9.62036 68.7244 10.0805 68.7388 10.6677V13.3425C68.7388 13.8761 68.8068 14.3004 68.9429 14.6155V14.7014H67.9009ZM66.252 13.9441C66.5635 13.9441 66.8589 13.8635 67.1382 13.7024C67.4175 13.5413 67.6198 13.3318 67.7451 13.074V11.8816H66.9663C65.7489 11.8816 65.1401 12.2379 65.1401 12.9504C65.1401 13.262 65.244 13.5055 65.4517 13.6809C65.6593 13.8564 65.9261 13.9441 66.252 13.9441ZM70.248 13.8904L70.5918 13.4661C70.9785 12.9648 71.1987 12.2128 71.2524 11.2102L71.3438 8.88989H75.0874V13.8904H75.834V16.4094H74.8403V14.7014H70.7852V16.4094H69.7915L69.7969 13.8904H70.248ZM71.4243 13.8904H74.0938V9.80835H72.3052L72.2461 11.1941C72.1852 12.3507 71.9113 13.2494 71.4243 13.8904ZM80.5229 14.7014C80.4657 14.5868 80.4191 14.3827 80.3833 14.0891C79.9214 14.5689 79.37 14.8088 78.729 14.8088C78.1561 14.8088 77.6852 14.6477 77.3164 14.3254C76.9512 13.9996 76.7686 13.5878 76.7686 13.0901C76.7686 12.4849 76.9977 12.0159 77.4561 11.6829C77.918 11.3463 78.5661 11.178 79.4004 11.178H80.3672V10.7214C80.3672 10.3741 80.2633 10.0984 80.0557 9.89429C79.848 9.6866 79.5418 9.58276 79.1372 9.58276C78.7827 9.58276 78.4855 9.67228 78.2456 9.85132C78.0057 10.0304 77.8857 10.247 77.8857 10.5012H76.8867C76.8867 10.2112 76.9888 9.93188 77.1929 9.66333C77.4006 9.39119 77.6799 9.17635 78.0308 9.0188C78.3853 8.86125 78.7738 8.78247 79.1963 8.78247C79.8659 8.78247 80.3905 8.95076 80.77 9.28735C81.1496 9.62036 81.3465 10.0805 81.3608 10.6677V13.3425C81.3608 13.8761 81.4289 14.3004 81.5649 14.6155V14.7014H80.5229ZM78.874 13.9441C79.1855 13.9441 79.481 13.8635 79.7603 13.7024C80.0396 13.5413 80.2419 13.3318 80.3672 13.074V11.8816H79.5884C78.3709 11.8816 77.7622 12.2379 77.7622 12.9504C77.7622 13.262 77.866 13.5055 78.0737 13.6809C78.2814 13.8564 78.5482 13.9441 78.874 13.9441ZM87.3066 14.7014H86.3076V12.5959C85.8708 12.7105 85.4232 12.7678 84.9648 12.7678C84.238 12.7678 83.6829 12.5816 83.2998 12.2092C82.9202 11.8368 82.7269 11.3069 82.7197 10.6194V8.88452H83.7134V10.6516C83.7313 11.5181 84.1484 11.9514 84.9648 11.9514C85.4232 11.9514 85.8708 11.8941 86.3076 11.7795V8.88989H87.3066V14.7014ZM90.8032 13.2458L92.1567 8.88989H93.2202L90.8838 15.5984C90.5221 16.5652 89.9474 17.0486 89.1597 17.0486L88.9717 17.0325L88.6011 16.9626V16.157L88.8696 16.1785C89.2062 16.1785 89.4676 16.1104 89.6538 15.9744C89.8436 15.8383 89.9993 15.5894 90.1211 15.2278L90.3413 14.637L88.2681 8.88989H89.353L90.8032 13.2458Z" fill="#555555"/>
</svg>
