<svg width="47" height="22" viewBox="0 0 47 22" fill="none" xmlns="http://www.w3.org/2000/svg">
<rect x="0.418091" width="46" height="22" rx="2" fill="#3F7ABE"/>
<path d="M24.4033 16.2925H23.3774V14.375H17.7646V16.2979H16.7333L16.728 13.5317H17.3671C17.7037 13.1522 17.9705 12.6437 18.1674 12.0063C18.3679 11.3654 18.4933 10.6636 18.5434 9.90088L18.7153 6.55469H23.3935V13.5317H24.414L24.4033 16.2925ZM18.5434 13.5317H22.3569V7.40332H19.7089L19.5961 9.70215C19.5496 10.6009 19.4296 11.3672 19.2363 12.001C19.0465 12.6348 18.8155 13.145 18.5434 13.5317ZM29.0707 14.375C29.0134 14.2604 28.9669 14.0563 28.9311 13.7627C28.4692 14.2425 27.9177 14.4824 27.2768 14.4824C26.7039 14.4824 26.233 14.3213 25.8642 13.999C25.499 13.6732 25.3163 13.2614 25.3163 12.7637C25.3163 12.1585 25.5455 11.6895 26.0038 11.3564C26.4658 11.0199 27.1139 10.8516 27.9482 10.8516H28.915V10.395C28.915 10.0477 28.8111 9.77197 28.6035 9.56787C28.3958 9.36019 28.0896 9.25635 27.685 9.25635C27.3305 9.25635 27.0333 9.34587 26.7934 9.5249C26.5535 9.70394 26.4335 9.92057 26.4335 10.1748H25.4345C25.4345 9.88477 25.5366 9.60547 25.7407 9.33691C25.9483 9.06478 26.2276 8.84993 26.5786 8.69238C26.933 8.53483 27.3216 8.45605 27.7441 8.45605C28.4137 8.45605 28.9383 8.62435 29.3178 8.96094C29.6974 9.29395 29.8943 9.75407 29.9086 10.3413V13.0161C29.9086 13.5496 29.9767 13.974 30.1127 14.2891V14.375H29.0707ZM27.4218 13.6177C27.7333 13.6177 28.0287 13.5371 28.308 13.376C28.5873 13.2148 28.7897 13.0054 28.915 12.7476V11.5552H28.1362C26.9187 11.5552 26.31 11.9115 26.31 12.624C26.31 12.9355 26.4138 13.179 26.6215 13.3545C26.8292 13.5299 27.096 13.6177 27.4218 13.6177Z" fill="white"/>
</svg>
