<svg width="79" height="23" viewBox="0 0 79 23" fill="none" xmlns="http://www.w3.org/2000/svg">
<rect x="1.08334" y="0.972992" width="77" height="21" rx="1.5" fill="#F8F8F8" stroke="#DADADA"/>
<path d="M19.4291 12.3665C19.3324 13.1937 19.0263 13.8329 18.5107 14.284C17.9986 14.7316 17.3165 14.9554 16.4643 14.9554C15.5404 14.9554 14.7992 14.6242 14.2406 13.9618C13.6856 13.2993 13.4081 12.4131 13.4081 11.3031V10.5511C13.4081 9.82423 13.537 9.18507 13.7948 8.63364C14.0562 8.0822 14.425 7.65968 14.9013 7.36606C15.3775 7.06886 15.9289 6.92026 16.5556 6.92026C17.3863 6.92026 18.0523 7.153 18.5536 7.6185C19.0549 8.08041 19.3468 8.72136 19.4291 9.54135H18.3925C18.303 8.9183 18.1078 8.46713 17.807 8.18784C17.5098 7.90854 17.0927 7.76889 16.5556 7.76889C15.8967 7.76889 15.3793 8.01238 15.0033 8.49936C14.6309 8.98634 14.4447 9.67921 14.4447 10.578V11.3353C14.4447 12.1839 14.622 12.8589 14.9765 13.3602C15.331 13.8615 15.8269 14.1122 16.4643 14.1122C17.0372 14.1122 17.4758 13.9832 17.7802 13.7254C18.0881 13.464 18.2922 13.0111 18.3925 12.3665H19.4291ZM20.4228 11.8885C20.4228 11.3192 20.5338 10.8071 20.7558 10.3524C20.9814 9.89763 21.2929 9.54672 21.6903 9.29965C22.0914 9.05258 22.5479 8.92905 23.06 8.92905C23.8513 8.92905 24.4905 9.20297 24.9774 9.75082C25.468 10.2987 25.7133 11.0274 25.7133 11.9369V12.0067C25.7133 12.5724 25.6041 13.0809 25.3857 13.5321C25.1708 13.9797 24.8611 14.3288 24.4565 14.5794C24.0554 14.8301 23.5935 14.9554 23.0707 14.9554C22.2829 14.9554 21.6438 14.6815 21.1532 14.1336C20.6662 13.5858 20.4228 12.8607 20.4228 11.9583V11.8885ZM21.4218 12.0067C21.4218 12.6512 21.5704 13.1686 21.8676 13.5589C22.1684 13.9492 22.5694 14.1444 23.0707 14.1444C23.5756 14.1444 23.9766 13.9474 24.2738 13.5536C24.571 13.1561 24.7196 12.6011 24.7196 11.8885C24.7196 11.2511 24.5675 10.7355 24.2631 10.3416C23.9623 9.94418 23.5613 9.74545 23.06 9.74545C22.5694 9.74545 22.1737 9.9406 21.873 10.3309C21.5722 10.7212 21.4218 11.2798 21.4218 12.0067ZM30.1552 10.6263C30.1552 10.3542 30.0513 10.1393 29.8437 9.98178C29.636 9.82065 29.3513 9.74008 28.9897 9.74008C28.6387 9.74008 28.3451 9.83139 28.1088 10.014C27.876 10.1966 27.7597 10.4115 27.7597 10.6585H26.7714C26.7714 10.1537 26.9827 9.74008 27.4052 9.41782C27.8277 9.09555 28.3559 8.93442 28.9897 8.93442C29.67 8.93442 30.1999 9.08123 30.5795 9.37485C30.9591 9.66489 31.1488 10.0803 31.1488 10.6209C31.1488 10.8823 31.0701 11.1222 30.9125 11.3407C30.755 11.5591 30.5312 11.7328 30.2411 11.8617C30.9179 12.0908 31.2563 12.542 31.2563 13.2152C31.2563 13.7487 31.0504 14.1712 30.6386 14.4828C30.2268 14.7943 29.6772 14.95 28.9897 14.95C28.3201 14.95 27.7668 14.7871 27.33 14.4613C26.8967 14.1318 26.6801 13.6878 26.6801 13.1292H27.6684C27.6684 13.4121 27.7937 13.6556 28.0443 13.8597C28.2986 14.0602 28.6137 14.1605 28.9897 14.1605C29.3692 14.1605 29.6754 14.0728 29.9081 13.8973C30.1409 13.7219 30.2572 13.4945 30.2572 13.2152C30.2572 12.8893 30.1588 12.6566 29.9618 12.5169C29.7685 12.3737 29.4659 12.3021 29.0541 12.3021H28.0605V11.4642H29.14C29.8168 11.4463 30.1552 11.167 30.1552 10.6263ZM32.497 14.037L32.8407 13.6126C33.2274 13.1113 33.4477 12.3594 33.5014 11.3568L33.5927 9.03647H37.3363V14.037H38.0829V16.556H37.0893V14.848H33.0341V16.556H32.0404L32.0458 14.037H32.497ZM33.6732 14.037H36.3427V9.95493H34.5541L34.495 11.3407C34.4342 12.4972 34.1602 13.396 33.6732 14.037ZM42.7719 14.848C42.7146 14.7334 42.668 14.5293 42.6322 14.2357C42.1703 14.7155 41.6189 14.9554 40.9779 14.9554C40.405 14.9554 39.9342 14.7943 39.5653 14.472C39.2001 14.1462 39.0175 13.7344 39.0175 13.2367C39.0175 12.6315 39.2467 12.1624 39.705 11.8294C40.1669 11.4928 40.815 11.3246 41.6493 11.3246H42.6161V10.868C42.6161 10.5207 42.5123 10.245 42.3046 10.0409C42.0969 9.83318 41.7908 9.72934 41.3861 9.72934C41.0316 9.72934 40.7344 9.81886 40.4945 9.99789C40.2546 10.1769 40.1347 10.3936 40.1347 10.6478H39.1357C39.1357 10.3578 39.2377 10.0785 39.4418 9.80991C39.6495 9.53777 39.9288 9.32293 40.2797 9.16537C40.6342 9.00782 41.0227 8.92905 41.4452 8.92905C42.1148 8.92905 42.6394 9.09734 43.019 9.43393C43.3985 9.76694 43.5954 10.2271 43.6098 10.8143V13.4891C43.6098 14.0226 43.6778 14.447 43.8139 14.7621V14.848H42.7719ZM41.123 14.0907C41.4345 14.0907 41.7299 14.0101 42.0092 13.849C42.2885 13.6878 42.4908 13.4784 42.6161 13.2206V12.0282H41.8373C40.6199 12.0282 40.0111 12.3845 40.0111 13.097C40.0111 13.4085 40.115 13.652 40.3227 13.8275C40.5303 14.0029 40.7971 14.0907 41.123 14.0907ZM49.3998 9.84213H47.4501V14.848H46.4565V9.84213H44.5443V9.03647H49.3998V9.84213ZM51.4516 11.0399H52.9608C53.6197 11.047 54.1407 11.2189 54.5238 11.5555C54.907 11.8921 55.0985 12.3486 55.0985 12.9251C55.0985 13.5052 54.9016 13.9707 54.5077 14.3216C54.1138 14.6725 53.5839 14.848 52.9179 14.848H50.4579V9.03647H51.4516V11.0399ZM51.4516 11.8509V14.037H52.9286C53.301 14.037 53.5893 13.9421 53.7934 13.7523C53.9975 13.5589 54.0995 13.2957 54.0995 12.9627C54.0995 12.6405 53.9993 12.3773 53.7987 12.1732C53.6018 11.9655 53.3243 11.8581 52.9662 11.8509H51.4516Z" fill="#555555"/>
<path d="M66.5793 10.477H60.5873L63.5833 13.467L66.5793 10.477Z" fill="#555555"/>
</svg>
