<svg width="132" height="23" viewBox="0 0 132 23" fill="none" xmlns="http://www.w3.org/2000/svg">
<rect x="0.918091" y="0.826416" width="129.583" height="21" rx="1.5" fill="#F8F8F8" stroke="#DADADA"/>
<path d="M40.0927 14.7014H39.0561V7.72974H35.1996V14.7014H34.1684V6.8811H40.0927V14.7014ZM41.5536 11.7419C41.5536 11.1726 41.6647 10.6606 41.8867 10.2058C42.1122 9.75106 42.4238 9.40015 42.8212 9.15308C43.2223 8.90601 43.6788 8.78247 44.1909 8.78247C44.9822 8.78247 45.6214 9.0564 46.1083 9.60425C46.5989 10.1521 46.8442 10.8808 46.8442 11.7903V11.8601C46.8442 12.4259 46.735 12.9343 46.5165 13.3855C46.3017 13.8331 45.992 14.1822 45.5873 14.4329C45.1863 14.6835 44.7244 14.8088 44.2016 14.8088C43.4138 14.8088 42.7747 14.5349 42.2841 13.9871C41.7971 13.4392 41.5536 12.7141 41.5536 11.8118V11.7419ZM42.5527 11.8601C42.5527 12.5046 42.7013 13.0221 42.9985 13.4124C43.2993 13.8027 43.7003 13.9978 44.2016 13.9978C44.7065 13.9978 45.1075 13.8009 45.4047 13.407C45.7019 13.0095 45.8505 12.4545 45.8505 11.7419C45.8505 11.1046 45.6983 10.5889 45.394 10.1951C45.0932 9.79761 44.6922 9.59888 44.1909 9.59888C43.7003 9.59888 43.3046 9.79403 43.0038 10.1843C42.7031 10.5746 42.5527 11.1332 42.5527 11.8601ZM52.7685 8.88989V14.7014H51.7695V9.71167H49.7929L49.6747 11.887C49.6103 12.886 49.442 13.6003 49.1699 14.03C48.9013 14.4597 48.4734 14.6835 47.8862 14.7014H47.4887V13.8259L47.7734 13.8044C48.0956 13.7686 48.3266 13.5824 48.4662 13.2458C48.6059 12.9093 48.6954 12.2862 48.7348 11.3767L48.8422 8.88989H52.7685ZM56.2651 13.2458L57.6186 8.88989H58.6821L56.3456 15.5984C55.984 16.5652 55.4093 17.0486 54.6215 17.0486L54.4335 17.0325L54.0629 16.9626V16.157L54.3315 16.1785C54.6681 16.1785 54.9295 16.1104 55.1157 15.9744C55.3054 15.8383 55.4612 15.5894 55.5829 15.2278L55.8032 14.637L53.7299 8.88989H54.8149L56.2651 13.2458ZM63.9619 14.7014H62.9628V12.5959C62.526 12.7105 62.0784 12.7678 61.6201 12.7678C60.8932 12.7678 60.3382 12.5816 59.955 12.2092C59.5755 11.8368 59.3821 11.3069 59.3749 10.6194V8.88452H60.3686V10.6516C60.3865 11.5181 60.8036 11.9514 61.6201 11.9514C62.0784 11.9514 62.526 11.8941 62.9628 11.7795V8.88989H63.9619V14.7014ZM69.3168 8.88989H70.3105V14.7014H69.3168V10.4636L66.6367 14.7014H65.643V8.88989H66.6367V13.1331L69.3168 8.88989ZM76.2241 9.69556H74.2744V14.7014H73.2807V9.69556H71.3686V8.88989H76.2241V9.69556ZM78.2758 10.8933H79.7851C80.4439 10.9005 80.9649 11.0723 81.3481 11.4089C81.7312 11.7455 81.9228 12.2021 81.9228 12.7786C81.9228 13.3586 81.7259 13.8241 81.332 14.175C80.9381 14.526 80.4081 14.7014 79.7421 14.7014H77.2822V8.88989H78.2758V10.8933ZM78.2758 11.7043V13.8904H79.7529C80.1253 13.8904 80.4135 13.7955 80.6176 13.6057C80.8217 13.4124 80.9238 13.1492 80.9238 12.8162C80.9238 12.4939 80.8235 12.2307 80.623 12.0266C80.426 11.8189 80.1485 11.7115 79.7905 11.7043H78.2758ZM90.6401 14.7014H89.6464V12.22H86.977V14.7014H85.978V8.88989H86.977V11.4089H89.6464V8.88989H90.6401V14.7014ZM91.9775 11.7419C91.9775 11.1726 92.0885 10.6606 92.3105 10.2058C92.5361 9.75106 92.8476 9.40015 93.2451 9.15308C93.6461 8.90601 94.1026 8.78247 94.6147 8.78247C95.406 8.78247 96.0452 9.0564 96.5322 9.60425C97.0227 10.1521 97.268 10.8808 97.268 11.7903V11.8601C97.268 12.4259 97.1588 12.9343 96.9404 13.3855C96.7255 13.8331 96.4158 14.1822 96.0112 14.4329C95.6101 14.6835 95.1482 14.8088 94.6254 14.8088C93.8377 14.8088 93.1985 14.5349 92.7079 13.9871C92.221 13.4392 91.9775 12.7141 91.9775 11.8118V11.7419ZM92.9765 11.8601C92.9765 12.5046 93.1251 13.0221 93.4223 13.4124C93.7231 13.8027 94.1241 13.9978 94.6254 13.9978C95.1303 13.9978 95.5314 13.8009 95.8286 13.407C96.1258 13.0095 96.2744 12.4545 96.2744 11.7419C96.2744 11.1046 96.1222 10.5889 95.8178 10.1951C95.517 9.79761 95.116 9.59888 94.6147 9.59888C94.1241 9.59888 93.7285 9.79403 93.4277 10.1843C93.1269 10.5746 92.9765 11.1332 92.9765 11.8601ZM101.86 13.3855L103.837 8.88989H105.078V14.7014H104.084V10.4744L102.204 14.7014H101.517L99.5991 10.3831V14.7014H98.6054V8.88989H99.8945L101.86 13.3855ZM109.09 14.8088C108.302 14.8088 107.661 14.551 107.167 14.0354C106.673 13.5162 106.426 12.8233 106.426 11.9568V11.7742C106.426 11.1977 106.535 10.6838 106.753 10.2327C106.975 9.77791 107.283 9.42342 107.677 9.16919C108.075 8.91138 108.504 8.78247 108.966 8.78247C109.722 8.78247 110.309 9.03133 110.728 9.52905C111.147 10.0268 111.356 10.7393 111.356 11.6667V12.0803H107.419C107.434 12.6532 107.6 13.1169 107.919 13.4714C108.241 13.8223 108.649 13.9978 109.143 13.9978C109.494 13.9978 109.792 13.9262 110.035 13.783C110.279 13.6397 110.492 13.45 110.674 13.2136L111.281 13.6863C110.794 14.4347 110.064 14.8088 109.09 14.8088ZM108.966 9.59888C108.565 9.59888 108.229 9.74569 107.956 10.0393C107.684 10.3293 107.516 10.7375 107.452 11.2639H110.363V11.1887C110.334 10.6838 110.198 10.2935 109.955 10.0178C109.711 9.73853 109.382 9.59888 108.966 9.59888ZM117.42 11.8601C117.42 12.7445 117.218 13.4571 116.813 13.9978C116.409 14.5385 115.861 14.8088 115.17 14.8088C114.464 14.8088 113.909 14.585 113.505 14.1375V16.9358H112.511V8.88989H113.419L113.467 9.53442C113.872 9.03312 114.434 8.78247 115.154 8.78247C115.852 8.78247 116.403 9.04565 116.808 9.57202C117.216 10.0984 117.42 10.8306 117.42 11.7688V11.8601ZM116.427 11.7473C116.427 11.092 116.287 10.5746 116.008 10.1951C115.728 9.81551 115.345 9.62573 114.858 9.62573C114.257 9.62573 113.806 9.8925 113.505 10.426V13.2029C113.802 13.7328 114.257 13.9978 114.869 13.9978C115.345 13.9978 115.723 13.8098 116.002 13.4338C116.285 13.0543 116.427 12.4921 116.427 11.7473Z" fill="#555555"/>
<rect x="13.506" y="4.32642" width="11" height="14" fill="white" stroke="#B7C6CD"/>
<path d="M14.506 5.32642H23.506V17.3264H14.506V5.32642Z" fill="url(#paint0_linear)" stroke="url(#paint1_linear)"/>
<path fill-rule="evenodd" clip-rule="evenodd" d="M19.0228 7.36316H18.0968V9.1379L16.3337 9.1379L16.3337 10.0638H17.2153V11.813H15.4406V12.7389H16.3337V14.4902H17.2597V12.7389L19.0228 12.7389V14.4902H19.9487V12.7389H21.6784V11.813H20.8303V10.0638H22.5716V9.1379H21.7118V7.36316H20.7859V9.1379L19.0228 9.1379V7.36316ZM19.9043 10.0638L18.1412 10.0638V11.813L19.9043 11.813V10.0638Z" fill="#949EA8"/>
<rect x="13.006" y="3.82642" width="12" height="1" fill="#A3B0B6"/>
<rect x="13.006" y="17.8264" width="12" height="1" fill="#A3B0B6"/>
<defs>
<linearGradient id="paint0_linear" x1="24.006" y1="4.82642" x2="14.006" y2="17.8264" gradientUnits="userSpaceOnUse">
<stop stop-color="#E0E6E8"/>
<stop offset="0.702054" stop-color="white"/>
</linearGradient>
<linearGradient id="paint1_linear" x1="26.5669" y1="1.06464" x2="14.006" y2="17.8264" gradientUnits="userSpaceOnUse">
<stop stop-color="#CED7DB"/>
<stop offset="0.853517" stop-color="#F0F4F6"/>
</linearGradient>
</defs>
</svg>
