<svg width="113" height="23" viewBox="0 0 113 23" fill="none" xmlns="http://www.w3.org/2000/svg">
<rect x="0.918091" y="0.826416" width="111" height="21" rx="1.5" fill="#F8F8F8" stroke="#DADADA"/>
<path d="M18.1956 12.22C18.0989 13.0471 17.7928 13.6863 17.2772 14.1375C16.7651 14.585 16.083 14.8088 15.2308 14.8088C14.3069 14.8088 13.5657 14.4776 13.0071 13.8152C12.4521 13.1528 12.1746 12.2665 12.1746 11.1565V10.4045C12.1746 9.67765 12.3035 9.03849 12.5613 8.48706C12.8227 7.93563 13.1915 7.5131 13.6678 7.21948C14.144 6.92228 14.6955 6.77368 15.3221 6.77368C16.1528 6.77368 16.8188 7.00643 17.3201 7.47192C17.8214 7.93384 18.1133 8.57479 18.1956 9.39478H17.159C17.0695 8.77173 16.8743 8.32056 16.5735 8.04126C16.2763 7.76196 15.8592 7.62231 15.3221 7.62231C14.6632 7.62231 14.1458 7.8658 13.7698 8.35278C13.3974 8.83976 13.2112 9.53263 13.2112 10.4314V11.1887C13.2112 12.0374 13.3885 12.7123 13.743 13.2136C14.0975 13.7149 14.5934 13.9656 15.2308 13.9656C15.8037 13.9656 16.2423 13.8367 16.5467 13.5789C16.8546 13.3175 17.0587 12.8645 17.159 12.22H18.1956ZM19.1893 11.7419C19.1893 11.1726 19.3003 10.6606 19.5223 10.2058C19.7479 9.75106 20.0594 9.40015 20.4568 9.15308C20.8579 8.90601 21.3144 8.78247 21.8265 8.78247C22.6178 8.78247 23.257 9.0564 23.744 9.60425C24.2345 10.1521 24.4798 10.8808 24.4798 11.7903V11.8601C24.4798 12.4259 24.3706 12.9343 24.1522 13.3855C23.9373 13.8331 23.6276 14.1822 23.223 14.4329C22.8219 14.6835 22.36 14.8088 21.8372 14.8088C21.0495 14.8088 20.4103 14.5349 19.9197 13.9871C19.4328 13.4392 19.1893 12.7141 19.1893 11.8118V11.7419ZM20.1883 11.8601C20.1883 12.5046 20.3369 13.0221 20.6341 13.4124C20.9349 13.8027 21.3359 13.9978 21.8372 13.9978C22.3421 13.9978 22.7431 13.8009 23.0403 13.407C23.3375 13.0095 23.4861 12.4545 23.4861 11.7419C23.4861 11.1046 23.334 10.5889 23.0296 10.1951C22.7288 9.79761 22.3278 9.59888 21.8265 9.59888C21.3359 9.59888 20.9402 9.79403 20.6395 10.1843C20.3387 10.5746 20.1883 11.1332 20.1883 11.8601ZM28.9217 10.4797C28.9217 10.2076 28.8179 9.99276 28.6102 9.83521C28.4025 9.67407 28.1178 9.59351 27.7562 9.59351C27.4053 9.59351 27.1116 9.68481 26.8753 9.86743C26.6426 10.05 26.5262 10.2649 26.5262 10.512H25.5379C25.5379 10.0071 25.7492 9.59351 26.1717 9.27124C26.5942 8.94897 27.1224 8.78784 27.7562 8.78784C28.4365 8.78784 28.9665 8.93465 29.346 9.22827C29.7256 9.51831 29.9153 9.93368 29.9153 10.4744C29.9153 10.7358 29.8366 10.9757 29.679 11.1941C29.5215 11.4125 29.2977 11.5862 29.0076 11.7151C29.6844 11.9443 30.0228 12.3954 30.0228 13.0686C30.0228 13.6021 29.8169 14.0247 29.4051 14.3362C28.9933 14.6477 28.4437 14.8035 27.7562 14.8035C27.0866 14.8035 26.5333 14.6405 26.0965 14.3147C25.6632 13.9853 25.4466 13.5413 25.4466 12.9827H26.4349C26.4349 13.2655 26.5602 13.509 26.8109 13.7131C27.0651 13.9137 27.3802 14.0139 27.7562 14.0139C28.1357 14.0139 28.4419 13.9262 28.6746 13.7507C28.9074 13.5753 29.0237 13.3479 29.0237 13.0686C29.0237 12.7428 28.9253 12.51 28.7283 12.3704C28.535 12.2271 28.2324 12.1555 27.8206 12.1555H26.827V11.3176H27.9066C28.5833 11.2997 28.9217 11.0204 28.9217 10.4797ZM31.2635 13.8904L31.6072 13.4661C31.994 12.9648 32.2142 12.2128 32.2679 11.2102L32.3592 8.88989H36.1028V13.8904H36.8494V16.4094H35.8558V14.7014H31.8006V16.4094H30.8069L30.8123 13.8904H31.2635ZM32.4398 13.8904H35.1092V9.80835H33.3206L33.2615 11.1941C33.2007 12.3507 32.9267 13.2494 32.4398 13.8904ZM41.5384 14.7014C41.4811 14.5868 41.4345 14.3827 41.3987 14.0891C40.9368 14.5689 40.3854 14.8088 39.7444 14.8088C39.1715 14.8088 38.7007 14.6477 38.3318 14.3254C37.9666 13.9996 37.784 13.5878 37.784 13.0901C37.784 12.4849 38.0132 12.0159 38.4715 11.6829C38.9334 11.3463 39.5815 11.178 40.4158 11.178H41.3826V10.7214C41.3826 10.3741 41.2788 10.0984 41.0711 9.89429C40.8634 9.6866 40.5573 9.58276 40.1526 9.58276C39.7982 9.58276 39.501 9.67228 39.261 9.85132C39.0211 10.0304 38.9012 10.247 38.9012 10.5012H37.9022C37.9022 10.2112 38.0042 9.93188 38.2083 9.66333C38.416 9.39119 38.6953 9.17635 39.0462 9.0188C39.4007 8.86125 39.7892 8.78247 40.2117 8.78247C40.8813 8.78247 41.4059 8.95076 41.7855 9.28735C42.165 9.62036 42.362 10.0805 42.3763 10.6677V13.3425C42.3763 13.8761 42.4443 14.3004 42.5804 14.6155V14.7014H41.5384ZM39.8895 13.9441C40.201 13.9441 40.4964 13.8635 40.7757 13.7024C41.055 13.5413 41.2573 13.3318 41.3826 13.074V11.8816H40.6038C39.3864 11.8816 38.7776 12.2379 38.7776 12.9504C38.7776 13.262 38.8815 13.5055 39.0892 13.6809C39.2969 13.8564 39.5636 13.9441 39.8895 13.9441ZM48.1663 9.69556H46.2166V14.7014H45.223V9.69556H43.3109V8.88989H48.1663V9.69556ZM50.2181 10.8933H51.7274C52.3862 10.9005 52.9072 11.0723 53.2903 11.4089C53.6735 11.7455 53.8651 12.2021 53.8651 12.7786C53.8651 13.3586 53.6681 13.8241 53.2742 14.175C52.8804 14.526 52.3504 14.7014 51.6844 14.7014H49.2244V8.88989H50.2181V10.8933ZM50.2181 11.7043V13.8904H51.6951C52.0675 13.8904 52.3558 13.7955 52.5599 13.6057C52.764 13.4124 52.866 13.1492 52.866 12.8162C52.866 12.4939 52.7658 12.2307 52.5652 12.0266C52.3683 11.8189 52.0908 11.7115 51.7327 11.7043H50.2181ZM57.7859 13.8904L58.1297 13.4661C58.5164 12.9648 58.7366 12.2128 58.7903 11.2102L58.8817 8.88989H62.6253V13.8904H63.3719V16.4094H62.3782V14.7014H58.3231V16.4094H57.3294L57.3348 13.8904H57.7859ZM58.9622 13.8904H61.6317V9.80835H59.8431L59.784 11.1941C59.7231 12.3507 59.4492 13.2494 58.9622 13.8904ZM64.2098 11.7419C64.2098 11.1726 64.3208 10.6606 64.5428 10.2058C64.7684 9.75106 65.0799 9.40015 65.4774 9.15308C65.8784 8.90601 66.3349 8.78247 66.847 8.78247C67.6383 8.78247 68.2775 9.0564 68.7645 9.60425C69.255 10.1521 69.5003 10.8808 69.5003 11.7903V11.8601C69.5003 12.4259 69.3911 12.9343 69.1727 13.3855C68.9578 13.8331 68.6481 14.1822 68.2435 14.4329C67.8424 14.6835 67.3805 14.8088 66.8577 14.8088C66.07 14.8088 65.4308 14.5349 64.9402 13.9871C64.4533 13.4392 64.2098 12.7141 64.2098 11.8118V11.7419ZM65.2088 11.8601C65.2088 12.5046 65.3574 13.0221 65.6546 13.4124C65.9554 13.8027 66.3564 13.9978 66.8577 13.9978C67.3626 13.9978 67.7637 13.8009 68.0609 13.407C68.3581 13.0095 68.5067 12.4545 68.5067 11.7419C68.5067 11.1046 68.3545 10.5889 68.0501 10.1951C67.7493 9.79761 67.3483 9.59888 66.847 9.59888C66.3564 9.59888 65.9608 9.79403 65.66 10.1843C65.3592 10.5746 65.2088 11.1332 65.2088 11.8601ZM74.5008 9.71167H71.8206V14.7014H70.8216V8.88989H74.5008V9.71167ZM74.9949 11.7419C74.9949 11.1726 75.1059 10.6606 75.3279 10.2058C75.5535 9.75106 75.8651 9.40015 76.2625 9.15308C76.6636 8.90601 77.1201 8.78247 77.6321 8.78247C78.4235 8.78247 79.0626 9.0564 79.5496 9.60425C80.0402 10.1521 80.2855 10.8808 80.2855 11.7903V11.8601C80.2855 12.4259 80.1762 12.9343 79.9578 13.3855C79.743 13.8331 79.4332 14.1822 79.0286 14.4329C78.6276 14.6835 78.1657 14.8088 77.6429 14.8088C76.8551 14.8088 76.216 14.5349 75.7254 13.9871C75.2384 13.4392 74.9949 12.7141 74.9949 11.8118V11.7419ZM75.994 11.8601C75.994 12.5046 76.1426 13.0221 76.4398 13.4124C76.7405 13.8027 77.1416 13.9978 77.6429 13.9978C78.1478 13.9978 78.5488 13.8009 78.846 13.407C79.1432 13.0095 79.2918 12.4545 79.2918 11.7419C79.2918 11.1046 79.1396 10.5889 78.8353 10.1951C78.5345 9.79761 78.1334 9.59888 77.6321 9.59888C77.1416 9.59888 76.7459 9.79403 76.4451 10.1843C76.1443 10.5746 75.994 11.1332 75.994 11.8601ZM81.6229 14.7014V8.88989H83.8895C84.6629 8.88989 85.2555 9.02596 85.6673 9.2981C86.0827 9.56665 86.2903 9.96232 86.2903 10.4851C86.2903 10.7537 86.2098 10.9972 86.0486 11.2156C85.8875 11.4304 85.6494 11.5951 85.3343 11.7097C85.6852 11.7921 85.9663 11.9532 86.1776 12.1931C86.3924 12.433 86.4998 12.7195 86.4998 13.0525C86.4998 13.586 86.3029 13.9942 85.909 14.2771C85.5187 14.56 84.9655 14.7014 84.2493 14.7014H81.6229ZM82.6165 12.1501V13.9011H84.2601C84.6754 13.9011 84.9852 13.8241 85.1893 13.6702C85.397 13.5162 85.5008 13.2996 85.5008 13.0203C85.5008 12.4402 85.0747 12.1501 84.2225 12.1501H82.6165ZM82.6165 11.3552H83.9002C84.8312 11.3552 85.2967 11.0831 85.2967 10.5388C85.2967 9.99455 84.8563 9.71346 83.9754 9.69556H82.6165V11.3552ZM87.5526 11.7419C87.5526 11.1726 87.6636 10.6606 87.8856 10.2058C88.1111 9.75106 88.4227 9.40015 88.8201 9.15308C89.2212 8.90601 89.6777 8.78247 90.1898 8.78247C90.9811 8.78247 91.6203 9.0564 92.1072 9.60425C92.5978 10.1521 92.8431 10.8808 92.8431 11.7903V11.8601C92.8431 12.4259 92.7339 12.9343 92.5154 13.3855C92.3006 13.8331 91.9909 14.1822 91.5862 14.4329C91.1852 14.6835 90.7233 14.8088 90.2005 14.8088C89.4127 14.8088 88.7736 14.5349 88.283 13.9871C87.796 13.4392 87.5526 12.7141 87.5526 11.8118V11.7419ZM88.5516 11.8601C88.5516 12.5046 88.7002 13.0221 88.9974 13.4124C89.2982 13.8027 89.6992 13.9978 90.2005 13.9978C90.7054 13.9978 91.1064 13.8009 91.4036 13.407C91.7008 13.0095 91.8494 12.4545 91.8494 11.7419C91.8494 11.1046 91.6972 10.5889 91.3929 10.1951C91.0921 9.79761 90.6911 9.59888 90.1898 9.59888C89.6992 9.59888 89.3035 9.79403 89.0027 10.1843C88.702 10.5746 88.5516 11.1332 88.5516 11.8601ZM98.9984 11.8601C98.9984 12.7445 98.796 13.4571 98.3914 13.9978C97.9868 14.5385 97.4389 14.8088 96.7479 14.8088C96.0425 14.8088 95.4874 14.585 95.0828 14.1375V16.9358H94.0892V8.88989H94.9969L95.0452 9.53442C95.4498 9.03312 96.012 8.78247 96.7318 8.78247C97.43 8.78247 97.9814 9.04565 98.386 9.57202C98.7943 10.0984 98.9984 10.8306 98.9984 11.7688V11.8601ZM98.0047 11.7473C98.0047 11.092 97.8651 10.5746 97.5858 10.1951C97.3065 9.81551 96.9233 9.62573 96.4363 9.62573C95.8348 9.62573 95.3836 9.8925 95.0828 10.426V13.2029C95.38 13.7328 95.8348 13.9978 96.4471 13.9978C96.9233 13.9978 97.3011 13.8098 97.5804 13.4338C97.8633 13.0543 98.0047 12.4921 98.0047 11.7473Z" fill="#555555"/>
</svg>
