<svg width="133" height="23" viewBox="0 0 133 23" fill="none" xmlns="http://www.w3.org/2000/svg">
<rect x="0.918091" y="0.826416" width="131" height="21" rx="1.5" fill="#F8F8F8" stroke="#DADADA"/>
<path d="M20.3 12.22C20.2034 13.0471 19.8972 13.6863 19.3816 14.1375C18.8695 14.585 18.1874 14.8088 17.3352 14.8088C16.4114 14.8088 15.6702 14.4776 15.1116 13.8152C14.5566 13.1528 14.2791 12.2665 14.2791 11.1565V10.4045C14.2791 9.67765 14.408 9.03849 14.6658 8.48706C14.9272 7.93563 15.296 7.5131 15.7722 7.21948C16.2485 6.92228 16.7999 6.77368 17.4265 6.77368C18.2572 6.77368 18.9233 7.00643 19.4246 7.47192C19.9259 7.93384 20.2177 8.57479 20.3 9.39478H19.2634C19.1739 8.77173 18.9788 8.32056 18.678 8.04126C18.3808 7.76196 17.9636 7.62231 17.4265 7.62231C16.7677 7.62231 16.2502 7.8658 15.8743 8.35278C15.5019 8.83976 15.3157 9.53263 15.3157 10.4314V11.1887C15.3157 12.0374 15.4929 12.7123 15.8474 13.2136C16.2019 13.7149 16.6978 13.9656 17.3352 13.9656C17.9081 13.9656 18.3468 13.8367 18.6511 13.5789C18.9591 13.3175 19.1632 12.8645 19.2634 12.22H20.3ZM21.2937 11.7419C21.2937 11.1726 21.4047 10.6606 21.6267 10.2058C21.8523 9.75106 22.1638 9.40015 22.5613 9.15308C22.9623 8.90601 23.4189 8.78247 23.9309 8.78247C24.7222 8.78247 25.3614 9.0564 25.8484 9.60425C26.3389 10.1521 26.5842 10.8808 26.5842 11.7903V11.8601C26.5842 12.4259 26.475 12.9343 26.2566 13.3855C26.0417 13.8331 25.732 14.1822 25.3274 14.4329C24.9264 14.6835 24.4644 14.8088 23.9417 14.8088C23.1539 14.8088 22.5147 14.5349 22.0242 13.9871C21.5372 13.4392 21.2937 12.7141 21.2937 11.8118V11.7419ZM22.2927 11.8601C22.2927 12.5046 22.4413 13.0221 22.7385 13.4124C23.0393 13.8027 23.4403 13.9978 23.9417 13.9978C24.4465 13.9978 24.8476 13.8009 25.1448 13.407C25.442 13.0095 25.5906 12.4545 25.5906 11.7419C25.5906 11.1046 25.4384 10.5889 25.134 10.1951C24.8333 9.79761 24.4322 9.59888 23.9309 9.59888C23.4403 9.59888 23.0447 9.79403 22.7439 10.1843C22.4431 10.5746 22.2927 11.1332 22.2927 11.8601ZM31.0261 10.4797C31.0261 10.2076 30.9223 9.99276 30.7146 9.83521C30.5069 9.67407 30.2222 9.59351 29.8606 9.59351C29.5097 9.59351 29.2161 9.68481 28.9797 9.86743C28.747 10.05 28.6306 10.2649 28.6306 10.512H27.6423C27.6423 10.0071 27.8536 9.59351 28.2761 9.27124C28.6986 8.94897 29.2268 8.78784 29.8606 8.78784C30.5409 8.78784 31.0709 8.93465 31.4504 9.22827C31.83 9.51831 32.0198 9.93368 32.0198 10.4744C32.0198 10.7358 31.941 10.9757 31.7834 11.1941C31.6259 11.4125 31.4021 11.5862 31.1121 11.7151C31.7888 11.9443 32.1272 12.3954 32.1272 13.0686C32.1272 13.6021 31.9213 14.0247 31.5095 14.3362C31.0977 14.6477 30.5481 14.8035 29.8606 14.8035C29.191 14.8035 28.6378 14.6405 28.2009 14.3147C27.7677 13.9853 27.551 13.5413 27.551 12.9827H28.5393C28.5393 13.2655 28.6646 13.509 28.9153 13.7131C29.1695 13.9137 29.4846 14.0139 29.8606 14.0139C30.2402 14.0139 30.5463 13.9262 30.7791 13.7507C31.0118 13.5753 31.1282 13.3479 31.1282 13.0686C31.1282 12.7428 31.0297 12.51 30.8328 12.3704C30.6394 12.2271 30.3368 12.1555 29.925 12.1555H28.9314V11.3176H30.011C30.6877 11.2997 31.0261 11.0204 31.0261 10.4797ZM33.3679 13.8904L33.7117 13.4661C34.0984 12.9648 34.3186 12.2128 34.3723 11.2102L34.4636 8.88989H38.2073V13.8904H38.9539V16.4094H37.9602V14.7014H33.905V16.4094H32.9114L32.9167 13.8904H33.3679ZM34.5442 13.8904H37.2136V9.80835H35.425L35.366 11.1941C35.3051 12.3507 35.0312 13.2494 34.5442 13.8904ZM43.6428 14.7014C43.5855 14.5868 43.539 14.3827 43.5032 14.0891C43.0413 14.5689 42.4898 14.8088 41.8489 14.8088C41.276 14.8088 40.8051 14.6477 40.4363 14.3254C40.071 13.9996 39.8884 13.5878 39.8884 13.0901C39.8884 12.4849 40.1176 12.0159 40.5759 11.6829C41.0378 11.3463 41.686 11.178 42.5203 11.178H43.4871V10.7214C43.4871 10.3741 43.3832 10.0984 43.1755 9.89429C42.9679 9.6866 42.6617 9.58276 42.2571 9.58276C41.9026 9.58276 41.6054 9.67228 41.3655 9.85132C41.1256 10.0304 41.0056 10.247 41.0056 10.5012H40.0066C40.0066 10.2112 40.1086 9.93188 40.3127 9.66333C40.5204 9.39119 40.7997 9.17635 41.1506 9.0188C41.5051 8.86125 41.8936 8.78247 42.3162 8.78247C42.9858 8.78247 43.5103 8.95076 43.8899 9.28735C44.2694 9.62036 44.4664 10.0805 44.4807 10.6677V13.3425C44.4807 13.8761 44.5487 14.3004 44.6848 14.6155V14.7014H43.6428ZM41.9939 13.9441C42.3054 13.9441 42.6008 13.8635 42.8801 13.7024C43.1594 13.5413 43.3617 13.3318 43.4871 13.074V11.8816H42.7083C41.4908 11.8816 40.8821 12.2379 40.8821 12.9504C40.8821 13.262 40.9859 13.5055 41.1936 13.6809C41.4013 13.8564 41.6681 13.9441 41.9939 13.9441ZM50.2708 9.69556H48.321V14.7014H47.3274V9.69556H45.4153V8.88989H50.2708V9.69556ZM52.3225 10.8933H53.8318C54.4906 10.9005 55.0116 11.0723 55.3948 11.4089C55.7779 11.7455 55.9695 12.2021 55.9695 12.7786C55.9695 13.3586 55.7725 13.8241 55.3787 14.175C54.9848 14.526 54.4548 14.7014 53.7888 14.7014H51.3289V8.88989H52.3225V10.8933ZM52.3225 11.7043V13.8904H53.7996C54.172 13.8904 54.4602 13.7955 54.6643 13.6057C54.8684 13.4124 54.9705 13.1492 54.9705 12.8162C54.9705 12.4939 54.8702 12.2307 54.6697 12.0266C54.4727 11.8189 54.1952 11.7115 53.8372 11.7043H52.3225ZM62.2698 13.9978C62.6243 13.9978 62.934 13.8904 63.199 13.6755C63.4639 13.4607 63.6108 13.1921 63.6394 12.8699H64.5793C64.5614 13.2029 64.4469 13.5198 64.2356 13.8206C64.0243 14.1213 63.7415 14.3612 63.387 14.5403C63.0361 14.7193 62.6637 14.8088 62.2698 14.8088C61.4784 14.8088 60.8482 14.5457 60.3792 14.0193C59.9137 13.4893 59.6809 12.766 59.6809 11.8494V11.6829C59.6809 11.1171 59.7847 10.614 59.9924 10.1736C60.2001 9.73315 60.4973 9.39119 60.884 9.14771C61.2743 8.90422 61.7345 8.78247 62.2644 8.78247C62.9161 8.78247 63.4568 8.97762 63.8865 9.36792C64.3197 9.75822 64.5507 10.2649 64.5793 10.8879H63.6394C63.6108 10.512 63.4675 10.204 63.2097 9.96411C62.9555 9.72062 62.6404 9.59888 62.2644 9.59888C61.7595 9.59888 61.3674 9.78149 61.0881 10.1467C60.8124 10.5084 60.6746 11.033 60.6746 11.7205V11.9084C60.6746 12.578 60.8124 13.0937 61.0881 13.4553C61.3639 13.817 61.7577 13.9978 62.2698 13.9978ZM65.4333 11.7419C65.4333 11.1726 65.5444 10.6606 65.7664 10.2058C65.9919 9.75106 66.3035 9.40015 66.7009 9.15308C67.102 8.90601 67.5585 8.78247 68.0706 8.78247C68.8619 8.78247 69.5011 9.0564 69.988 9.60425C70.4786 10.1521 70.7239 10.8808 70.7239 11.7903V11.8601C70.7239 12.4259 70.6147 12.9343 70.3962 13.3855C70.1814 13.8331 69.8717 14.1822 69.467 14.4329C69.066 14.6835 68.6041 14.8088 68.0813 14.8088C67.2935 14.8088 66.6544 14.5349 66.1638 13.9871C65.6768 13.4392 65.4333 12.7141 65.4333 11.8118V11.7419ZM66.4324 11.8601C66.4324 12.5046 66.581 13.0221 66.8782 13.4124C67.179 13.8027 67.58 13.9978 68.0813 13.9978C68.5862 13.9978 68.9872 13.8009 69.2844 13.407C69.5816 13.0095 69.7302 12.4545 69.7302 11.7419C69.7302 11.1046 69.578 10.5889 69.2737 10.1951C68.9729 9.79761 68.5719 9.59888 68.0706 9.59888C67.58 9.59888 67.1843 9.79403 66.8835 10.1843C66.5828 10.5746 66.4324 11.1332 66.4324 11.8601ZM72.0613 14.7014V8.88989H74.3279C75.1013 8.88989 75.6939 9.02596 76.1057 9.2981C76.5211 9.56665 76.7288 9.96232 76.7288 10.4851C76.7288 10.7537 76.6482 10.9972 76.4871 11.2156C76.3259 11.4304 76.0878 11.5951 75.7727 11.7097C76.1236 11.7921 76.4047 11.9532 76.616 12.1931C76.8308 12.433 76.9382 12.7195 76.9382 13.0525C76.9382 13.586 76.7413 13.9942 76.3474 14.2771C75.9571 14.56 75.4039 14.7014 74.6877 14.7014H72.0613ZM73.0549 12.1501V13.9011H74.6985C75.1139 13.9011 75.4236 13.8241 75.6277 13.6702C75.8354 13.5162 75.9392 13.2996 75.9392 13.0203C75.9392 12.4402 75.5131 12.1501 74.6609 12.1501H73.0549ZM73.0549 11.3552H74.3386C75.2696 11.3552 75.7351 11.0831 75.7351 10.5388C75.7351 9.99455 75.2947 9.71346 74.4138 9.69556H73.0549V11.3552ZM80.6658 14.8088C79.878 14.8088 79.2371 14.551 78.7429 14.0354C78.2488 13.5162 78.0017 12.8233 78.0017 11.9568V11.7742C78.0017 11.1977 78.1109 10.6838 78.3293 10.2327C78.5514 9.77791 78.8593 9.42342 79.2532 9.16919C79.6506 8.91138 80.0803 8.78247 80.5422 8.78247C81.2978 8.78247 81.885 9.03133 82.304 9.52905C82.7229 10.0268 82.9324 10.7393 82.9324 11.6667V12.0803H78.9954C79.0097 12.6532 79.1762 13.1169 79.4949 13.4714C79.8171 13.8223 80.2253 13.9978 80.7195 13.9978C81.0704 13.9978 81.3676 13.9262 81.6111 13.783C81.8546 13.6397 82.0676 13.45 82.2502 13.2136L82.8572 13.6863C82.3702 14.4347 81.6397 14.8088 80.6658 14.8088ZM80.5422 9.59888C80.1412 9.59888 79.8046 9.74569 79.5325 10.0393C79.2603 10.3293 79.092 10.7375 79.0276 11.2639H81.9387V11.1887C81.9101 10.6838 81.774 10.2935 81.5305 10.0178C81.287 9.73853 80.9576 9.59888 80.5422 9.59888ZM85.113 8.88989V13.8904H87.24V8.88989H88.2336V13.8904H90.3552V8.88989H91.3542V13.8904H92.1707L92.074 16.4255H91.1824V14.7014H84.114V8.88989H85.113ZM96.7737 14.7014C96.7164 14.5868 96.6698 14.3827 96.634 14.0891C96.1721 14.5689 95.6207 14.8088 94.9797 14.8088C94.4068 14.8088 93.936 14.6477 93.5671 14.3254C93.2019 13.9996 93.0193 13.5878 93.0193 13.0901C93.0193 12.4849 93.2485 12.0159 93.7068 11.6829C94.1687 11.3463 94.8168 11.178 95.6511 11.178H96.6179V10.7214C96.6179 10.3741 96.5141 10.0984 96.3064 9.89429C96.0987 9.6866 95.7926 9.58276 95.3879 9.58276C95.0334 9.58276 94.7362 9.67228 94.4963 9.85132C94.2564 10.0304 94.1365 10.247 94.1365 10.5012H93.1375C93.1375 10.2112 93.2395 9.93188 93.4436 9.66333C93.6513 9.39119 93.9306 9.17635 94.2815 9.0188C94.636 8.86125 95.0245 8.78247 95.447 8.78247C96.1166 8.78247 96.6412 8.95076 97.0208 9.28735C97.4003 9.62036 97.5972 10.0805 97.6116 10.6677V13.3425C97.6116 13.8761 97.6796 14.3004 97.8157 14.6155V14.7014H96.7737ZM95.1248 13.9441C95.4363 13.9441 95.7317 13.8635 96.011 13.7024C96.2903 13.5413 96.4926 13.3318 96.6179 13.074V11.8816H95.8391C94.6217 11.8816 94.0129 12.2379 94.0129 12.9504C94.0129 13.262 94.1168 13.5055 94.3245 13.6809C94.5321 13.8564 94.7989 13.9441 95.1248 13.9441ZM103.917 14.7014H102.924V12.22H100.254V14.7014H99.2551V8.88989H100.254V11.4089H102.924V8.88989H103.917V14.7014ZM109.278 8.88989H110.271V14.7014H109.278V10.4636L106.597 14.7014H105.604V8.88989H106.597V13.1331L109.278 8.88989ZM114.278 14.8088C113.49 14.8088 112.849 14.551 112.355 14.0354C111.861 13.5162 111.614 12.8233 111.614 11.9568V11.7742C111.614 11.1977 111.723 10.6838 111.942 10.2327C112.164 9.77791 112.472 9.42342 112.865 9.16919C113.263 8.91138 113.693 8.78247 114.155 8.78247C114.91 8.78247 115.497 9.03133 115.916 9.52905C116.335 10.0268 116.545 10.7393 116.545 11.6667V12.0803H112.608C112.622 12.6532 112.788 13.1169 113.107 13.4714C113.429 13.8223 113.838 13.9978 114.332 13.9978C114.683 13.9978 114.98 13.9262 115.223 13.783C115.467 13.6397 115.68 13.45 115.863 13.2136L116.469 13.6863C115.983 14.4347 115.252 14.8088 114.278 14.8088ZM114.155 9.59888C113.753 9.59888 113.417 9.74569 113.145 10.0393C112.873 10.3293 112.704 10.7375 112.64 11.2639H115.551V11.1887C115.522 10.6838 115.386 10.2935 115.143 10.0178C114.899 9.73853 114.57 9.59888 114.155 9.59888Z" fill="#555555"/>
</svg>
