<svg width="19" height="23" viewBox="0 0 19 23" fill="none" xmlns="http://www.w3.org/2000/svg">
<rect x="0.710083" y="1.43494" width="17" height="21" rx="1.5" fill="#F8F8F8" stroke="#DADADA"/>
<path fill-rule="evenodd" clip-rule="evenodd" d="M10.0875 6.68493C10.0875 6.51925 9.9532 6.38493 9.78751 6.38493H8.61524C8.44956 6.38493 8.31524 6.51925 8.31524 6.68493V7.66447C8.31524 7.8052 8.21705 7.92588 8.08166 7.96428C7.76882 8.05301 7.4711 8.17773 7.19326 8.33366C7.07032 8.40266 6.91524 8.38688 6.81555 8.2872L6.12438 7.59602C6.00722 7.47886 5.81727 7.47886 5.70011 7.59602L4.87119 8.42494C4.75404 8.54209 4.75404 8.73204 4.87119 8.8492L5.56237 9.54038C5.66205 9.64006 5.67783 9.79515 5.60883 9.91808C5.45156 10.1983 5.32604 10.4988 5.23716 10.8146C5.19897 10.9503 5.07816 11.0488 4.93718 11.0488H3.9601C3.79441 11.0488 3.6601 11.1831 3.6601 11.3488V12.5211C3.6601 12.6867 3.79441 12.8211 3.9601 12.8211H4.93718C5.07816 12.8211 5.19897 12.9196 5.23717 13.0553C5.32604 13.3711 5.45156 13.6715 5.60883 13.9518C5.67783 14.0747 5.66205 14.2298 5.56237 14.3295L4.87119 15.0206C4.75404 15.1378 4.75404 15.3278 4.87119 15.4449L5.70011 16.2738C5.81727 16.391 6.00722 16.391 6.12438 16.2738L6.81555 15.5827C6.91524 15.483 7.07032 15.4672 7.19326 15.5362C7.47109 15.6921 7.76881 15.8168 8.08166 15.9056C8.21705 15.944 8.31524 16.0647 8.31524 16.2054V17.1849C8.31524 17.3506 8.44956 17.4849 8.61524 17.4849H9.78751C9.9532 17.4849 10.0875 17.3506 10.0875 17.1849V16.2103C10.0875 16.0691 10.1864 15.9481 10.3224 15.9101C10.6411 15.8211 10.9443 15.6948 11.2269 15.5362C11.3499 15.4672 11.505 15.483 11.6046 15.5827L12.2958 16.2738C12.413 16.391 12.6029 16.391 12.7201 16.2738L13.549 15.4449C13.6662 15.3278 13.6662 15.1378 13.549 15.0206L12.8578 14.3295C12.7581 14.2298 12.7424 14.0747 12.8114 13.9518C12.9686 13.6715 13.0941 13.3711 13.183 13.0553C13.2212 12.9196 13.342 12.8211 13.483 12.8211H14.4601C14.6258 12.8211 14.7601 12.6867 14.7601 12.5211V11.3488C14.7601 11.1831 14.6258 11.0488 14.4601 11.0488H13.483C13.342 11.0488 13.2212 10.9503 13.183 10.8146C13.0941 10.4988 12.9686 10.1983 12.8114 9.91809C12.7424 9.79516 12.7581 9.64007 12.8578 9.54039L13.549 8.84922C13.6662 8.73206 13.6662 8.54211 13.549 8.42496L12.7201 7.59604C12.6029 7.47888 12.413 7.47888 12.2958 7.59604L11.6046 8.2872C11.505 8.38689 11.3499 8.40266 11.2269 8.33367C10.9443 8.17505 10.6411 8.04874 10.3224 7.95974C10.1864 7.92176 10.0875 7.8008 10.0875 7.65958V6.68493ZM11.5028 11.9349C11.5028 13.2011 10.4763 14.2276 9.21009 14.2276C7.94388 14.2276 6.91741 13.2011 6.91741 11.9349C6.91741 10.6687 7.94388 9.64225 9.21009 9.64225C10.4763 9.64225 11.5028 10.6687 11.5028 11.9349Z" fill="#555555"/>
</svg>
