<svg width="170" height="23" viewBox="0 0 170 23" fill="none" xmlns="http://www.w3.org/2000/svg">
<rect x="0.501465" y="1.10101" width="168.583" height="21" rx="1.5" fill="#ECF5DD" stroke="#C5D2B1"/>
<path d="M28.8846 11.3183C28.8846 12.0846 28.7557 12.7542 28.4979 13.3271C28.2401 13.8964 27.8748 14.3315 27.4022 14.6323C26.9295 14.933 26.3781 15.0834 25.7479 15.0834C25.132 15.0834 24.5859 14.933 24.1097 14.6323C23.6334 14.3279 23.2628 13.8964 22.9979 13.3378C22.7365 12.7757 22.6022 12.1258 22.595 11.3881V10.8242C22.595 10.0722 22.7257 9.40798 22.9871 8.83148C23.2485 8.25498 23.6173 7.81455 24.0936 7.51019C24.5734 7.20225 25.1212 7.04828 25.7371 7.04828C26.3637 7.04828 26.9152 7.20046 27.3914 7.50482C27.8712 7.8056 28.2401 8.24424 28.4979 8.82074C28.7557 9.39366 28.8846 10.0615 28.8846 10.8242V11.3183ZM27.8587 10.8134C27.8587 9.88601 27.6725 9.17523 27.3001 8.68109C26.9277 8.18337 26.4067 7.93451 25.7371 7.93451C25.0854 7.93451 24.5716 8.18337 24.1956 8.68109C23.8232 9.17523 23.6317 9.86273 23.6209 10.7436V11.3183C23.6209 12.2171 23.8089 12.9243 24.1849 13.4399C24.5644 13.9519 25.0854 14.2079 25.7479 14.2079C26.4139 14.2079 26.9295 13.9662 27.2947 13.4828C27.66 12.9959 27.848 12.2994 27.8587 11.3935V10.8134ZM32.827 9.4975C33.5574 9.4975 34.1411 9.74278 34.5779 10.2333C35.0184 10.7203 35.2386 11.3631 35.2386 12.1616V12.2529C35.2386 12.8007 35.133 13.2913 34.9217 13.7245C34.7104 14.1542 34.4061 14.489 34.0086 14.7289C33.6147 14.9653 33.16 15.0834 32.6443 15.0834C31.8637 15.0834 31.2353 14.8238 30.7591 14.3046C30.2829 13.7818 30.0447 13.0818 30.0447 12.2045V11.7211C30.0447 10.5001 30.2703 9.52972 30.7215 8.81C31.1762 8.09027 31.8458 7.65163 32.7303 7.49408C33.2316 7.40456 33.57 7.29535 33.7454 7.16644C33.9209 7.03754 34.0086 6.86029 34.0086 6.6347H34.825C34.825 7.0823 34.723 7.43142 34.5189 7.68207C34.3183 7.93272 33.9961 8.10997 33.5521 8.21381L32.8109 8.38031C32.22 8.51996 31.776 8.75629 31.4788 9.08929C31.1852 9.41872 30.9936 9.85915 30.9041 10.4106C31.4305 9.80186 32.0714 9.4975 32.827 9.4975ZM32.6336 10.3139C32.1466 10.3139 31.7599 10.4786 31.4734 10.808C31.187 11.1339 31.0438 11.5869 31.0438 12.1669V12.2529C31.0438 12.8759 31.187 13.3701 31.4734 13.7353C31.7635 14.0969 32.1538 14.2778 32.6443 14.2778C33.1385 14.2778 33.5288 14.0952 33.8152 13.7299C34.1017 13.3647 34.2449 12.8312 34.2449 12.1293C34.2449 11.5815 34.0999 11.1428 33.8099 10.8134C33.5234 10.4804 33.1313 10.3139 32.6336 10.3139ZM41.1683 12.1347C41.1683 13.0191 40.966 13.7317 40.5613 14.2724C40.1567 14.8131 39.6089 15.0834 38.9178 15.0834C38.2124 15.0834 37.6574 14.8596 37.2527 14.412V17.2104H36.2591V9.16449H37.1668L37.2151 9.80902C37.6198 9.30772 38.1819 9.05707 38.9017 9.05707C39.5999 9.05707 40.1513 9.32025 40.556 9.84662C40.9642 10.373 41.1683 11.1052 41.1683 12.0434V12.1347ZM40.1746 12.0219C40.1746 11.3666 40.035 10.8492 39.7557 10.4697C39.4764 10.0901 39.0932 9.90033 38.6063 9.90033C38.0047 9.90033 37.5535 10.1671 37.2527 10.7006V13.4775C37.5499 14.0074 38.0047 14.2724 38.617 14.2724C39.0932 14.2724 39.471 14.0844 39.7503 13.7084C40.0332 13.3289 40.1746 12.7667 40.1746 12.0219ZM46.0237 14.976C45.9665 14.8614 45.9199 14.6573 45.8841 14.3637C45.4222 14.8435 44.8707 15.0834 44.2298 15.0834C43.6569 15.0834 43.186 14.9223 42.8172 14.6C42.452 14.2742 42.2693 13.8624 42.2693 13.3647C42.2693 12.7595 42.4985 12.2905 42.9568 11.9575C43.4188 11.6209 44.0669 11.4526 44.9012 11.4526H45.868V10.996C45.868 10.6487 45.7641 10.373 45.5565 10.1689C45.3488 9.9612 45.0426 9.85736 44.638 9.85736C44.2835 9.85736 43.9863 9.94688 43.7464 10.1259C43.5065 10.305 43.3865 10.5216 43.3865 10.7758H42.3875C42.3875 10.4858 42.4896 10.2065 42.6937 9.93793C42.9013 9.66579 43.1806 9.45095 43.5316 9.2934C43.886 9.13584 44.2746 9.05707 44.6971 9.05707C45.3667 9.05707 45.8913 9.22536 46.2708 9.56195C46.6504 9.89496 46.8473 10.3551 46.8616 10.9423V13.6171C46.8616 14.1507 46.9297 14.575 47.0657 14.8901V14.976H46.0237ZM44.3748 14.2187C44.6863 14.2187 44.9818 14.1381 45.261 13.977C45.5403 13.8159 45.7427 13.6064 45.868 13.3486V12.1562H45.0892C43.8717 12.1562 43.263 12.5125 43.263 13.225C43.263 13.5366 43.3668 13.78 43.5745 13.9555C43.7822 14.131 44.049 14.2187 44.3748 14.2187ZM50.9705 9.4975C51.701 9.4975 52.2846 9.74278 52.7215 10.2333C53.1619 10.7203 53.3821 11.3631 53.3821 12.1616V12.2529C53.3821 12.8007 53.2765 13.2913 53.0652 13.7245C52.854 14.1542 52.5496 14.489 52.1522 14.7289C51.7583 14.9653 51.3035 15.0834 50.7879 15.0834C50.0073 15.0834 49.3789 14.8238 48.9026 14.3046C48.4264 13.7818 48.1883 13.0818 48.1883 12.2045V11.7211C48.1883 10.5001 48.4139 9.52972 48.8651 8.81C49.3198 8.09027 49.9894 7.65163 50.8738 7.49408C51.3751 7.40456 51.7135 7.29535 51.889 7.16644C52.0644 7.03754 52.1522 6.86029 52.1522 6.6347H52.9686C52.9686 7.0823 52.8665 7.43142 52.6624 7.68207C52.4619 7.93272 52.1396 8.10997 51.6956 8.21381L50.9544 8.38031C50.3636 8.51996 49.9196 8.75629 49.6224 9.08929C49.3288 9.41872 49.1372 9.85915 49.0477 10.4106C49.574 9.80186 50.215 9.4975 50.9705 9.4975ZM50.7772 10.3139C50.2902 10.3139 49.9035 10.4786 49.617 10.808C49.3305 11.1339 49.1873 11.5869 49.1873 12.1669V12.2529C49.1873 12.8759 49.3305 13.3701 49.617 13.7353C49.907 14.0969 50.2973 14.2778 50.7879 14.2778C51.282 14.2778 51.6723 14.0952 51.9588 13.7299C52.2453 13.3647 52.3885 12.8312 52.3885 12.1293C52.3885 11.5815 52.2435 11.1428 51.9534 10.8134C51.667 10.4804 51.2749 10.3139 50.7772 10.3139ZM54.2361 12.0165C54.2361 11.4472 54.3471 10.9352 54.5692 10.4804C54.7947 10.0257 55.1063 9.67474 55.5037 9.42767C55.9048 9.1806 56.3613 9.05707 56.8734 9.05707C57.6647 9.05707 58.3039 9.33099 58.7908 9.87885C59.2814 10.4267 59.5267 11.1554 59.5267 12.0649V12.1347C59.5267 12.7005 59.4175 13.2089 59.199 13.6601C58.9842 14.1077 58.6745 14.4568 58.2698 14.7075C57.8688 14.9581 57.4069 15.0834 56.8841 15.0834C56.0963 15.0834 55.4572 14.8095 54.9666 14.2617C54.4796 13.7138 54.2361 12.9887 54.2361 12.0864V12.0165ZM55.2352 12.1347C55.2352 12.7792 55.3838 13.2967 55.681 13.687C55.9818 14.0773 56.3828 14.2724 56.8841 14.2724C57.389 14.2724 57.79 14.0755 58.0872 13.6816C58.3844 13.2841 58.533 12.7291 58.533 12.0165C58.533 11.3792 58.3808 10.8635 58.0765 10.4697C57.7757 10.0722 57.3747 9.87347 56.8734 9.87347C56.3828 9.87347 55.9871 10.0686 55.6863 10.4589C55.3856 10.8492 55.2352 11.4078 55.2352 12.1347ZM64.973 9.97015H63.0233V14.976H62.0296V9.97015H60.1175V9.16449H64.973V9.97015ZM69.4417 14.976C69.3844 14.8614 69.3379 14.6573 69.3021 14.3637C68.8401 14.8435 68.2887 15.0834 67.6478 15.0834C67.0748 15.0834 66.604 14.9223 66.2352 14.6C65.8699 14.2742 65.6873 13.8624 65.6873 13.3647C65.6873 12.7595 65.9165 12.2905 66.3748 11.9575C66.8367 11.6209 67.4848 11.4526 68.3192 11.4526H69.2859V10.996C69.2859 10.6487 69.1821 10.373 68.9744 10.1689C68.7667 9.9612 68.4606 9.85736 68.056 9.85736C67.7015 9.85736 67.4043 9.94688 67.1644 10.1259C66.9245 10.305 66.8045 10.5216 66.8045 10.7758H65.8055C65.8055 10.4858 65.9075 10.2065 66.1116 9.93793C66.3193 9.66579 66.5986 9.45095 66.9495 9.2934C67.304 9.13584 67.6925 9.05707 68.1151 9.05707C68.7846 9.05707 69.3092 9.22536 69.6888 9.56195C70.0683 9.89496 70.2653 10.3551 70.2796 10.9423V13.6171C70.2796 14.1507 70.3476 14.575 70.4837 14.8901V14.976H69.4417ZM67.7928 14.2187C68.1043 14.2187 68.3997 14.1381 68.679 13.977C68.9583 13.8159 69.1606 13.6064 69.2859 13.3486V12.1562H68.5071C67.2897 12.1562 66.681 12.5125 66.681 13.225C66.681 13.5366 66.7848 13.78 66.9925 13.9555C67.2002 14.131 67.4669 14.2187 67.7928 14.2187ZM76.0696 9.97015H74.1199V14.976H73.1263V9.97015H71.2142V9.16449H76.0696V9.97015ZM78.1214 11.1679H79.6307C80.2895 11.1751 80.8105 11.3469 81.1937 11.6835C81.5768 12.0201 81.7684 12.4767 81.7684 13.0532C81.7684 13.6332 81.5714 14.0987 81.1776 14.4496C80.7837 14.8006 80.2537 14.976 79.5877 14.976H77.1277V9.16449H78.1214V11.1679ZM78.1214 11.9789V14.165H79.5984C79.9708 14.165 80.2591 14.0701 80.4632 13.8803C80.6673 13.687 80.7693 13.4238 80.7693 13.0908C80.7693 12.7685 80.6691 12.5053 80.4686 12.3012C80.2716 12.0935 79.9941 11.9861 79.636 11.9789H78.1214ZM90.6468 12.1347C90.6468 13.0191 90.4445 13.7317 90.0399 14.2724C89.6352 14.8131 89.0874 15.0834 88.3963 15.0834C87.6909 15.0834 87.1359 14.8596 86.7313 14.412V17.2104H85.7376V9.16449H86.6453L86.6937 9.80902C87.0983 9.30772 87.6605 9.05707 88.3802 9.05707C89.0784 9.05707 89.6299 9.32025 90.0345 9.84662C90.4427 10.373 90.6468 11.1052 90.6468 12.0434V12.1347ZM89.6531 12.0219C89.6531 11.3666 89.5135 10.8492 89.2342 10.4697C88.9549 10.0901 88.5718 9.90033 88.0848 9.90033C87.4832 9.90033 87.032 10.1671 86.7313 10.7006V13.4775C87.0285 14.0074 87.4832 14.2724 88.0955 14.2724C88.5718 14.2724 88.9495 14.0844 89.2288 13.7084C89.5117 13.3289 89.6531 12.7667 89.6531 12.0219ZM94.326 15.0834C93.5382 15.0834 92.8973 14.8256 92.4031 14.31C91.909 13.7908 91.6619 13.0979 91.6619 12.2314V12.0488C91.6619 11.4723 91.7711 10.9584 91.9896 10.5073C92.2116 10.0525 92.5195 9.69802 92.9134 9.44379C93.3109 9.18597 93.7405 9.05707 94.2025 9.05707C94.958 9.05707 95.5452 9.30593 95.9642 9.80365C96.3831 10.3014 96.5926 11.0139 96.5926 11.9413V12.3549H92.6556C92.6699 12.9278 92.8364 13.3915 93.1551 13.746C93.4774 14.0969 93.8856 14.2724 94.3797 14.2724C94.7306 14.2724 95.0278 14.2008 95.2713 14.0576C95.5148 13.9143 95.7278 13.7245 95.9105 13.4882L96.5174 13.9609C96.0304 14.7092 95.2999 15.0834 94.326 15.0834ZM94.2025 9.87347C93.8014 9.87347 93.4648 10.0203 93.1927 10.3139C92.9206 10.6039 92.7523 11.0121 92.6878 11.5385H95.5989V11.4633C95.5703 10.9584 95.4342 10.5681 95.1907 10.2924C94.9472 10.0131 94.6178 9.87347 94.2025 9.87347ZM100.943 10.7543C100.943 10.4822 100.839 10.2674 100.632 10.1098C100.424 9.94867 100.139 9.8681 99.7776 9.8681C99.4267 9.8681 99.1331 9.95941 98.8968 10.142C98.664 10.3246 98.5477 10.5395 98.5477 10.7866H97.5594C97.5594 10.2817 97.7707 9.8681 98.1932 9.54584C98.6157 9.22357 99.1439 9.06244 99.7776 9.06244C100.458 9.06244 100.988 9.20925 101.367 9.50287C101.747 9.79291 101.937 10.2083 101.937 10.749C101.937 11.0104 101.858 11.2503 101.701 11.4687C101.543 11.6871 101.319 11.8608 101.029 11.9897C101.706 12.2189 102.044 12.67 102.044 13.3432C102.044 13.8767 101.838 14.2993 101.427 14.6108C101.015 14.9223 100.465 15.0781 99.7776 15.0781C99.1081 15.0781 98.5548 14.9151 98.118 14.5893C97.6847 14.2599 97.4681 13.8159 97.4681 13.2573H98.4564C98.4564 13.5401 98.5817 13.7836 98.8323 13.9877C99.0866 14.1883 99.4017 14.2885 99.7776 14.2885C100.157 14.2885 100.463 14.2008 100.696 14.0253C100.929 13.8499 101.045 13.6225 101.045 13.3432C101.045 13.0174 100.947 12.7846 100.75 12.645C100.556 12.5017 100.254 12.4301 99.8421 12.4301H98.8484V11.5922H99.928C100.605 11.5743 100.943 11.295 100.943 10.7543ZM103.07 12.0165C103.07 11.4472 103.181 10.9352 103.403 10.4804C103.629 10.0257 103.94 9.67474 104.338 9.42767C104.739 9.1806 105.195 9.05707 105.707 9.05707C106.499 9.05707 107.138 9.33099 107.625 9.87885C108.115 10.4267 108.361 11.1554 108.361 12.0649V12.1347C108.361 12.7005 108.251 13.2089 108.033 13.6601C107.818 14.1077 107.508 14.4568 107.104 14.7075C106.703 14.9581 106.241 15.0834 105.718 15.0834C104.93 15.0834 104.291 14.8095 103.801 14.2617C103.314 13.7138 103.07 12.9887 103.07 12.0864V12.0165ZM104.069 12.1347C104.069 12.7792 104.218 13.2967 104.515 13.687C104.816 14.0773 105.217 14.2724 105.718 14.2724C106.223 14.2724 106.624 14.0755 106.921 13.6816C107.218 13.2841 107.367 12.7291 107.367 12.0165C107.367 11.3792 107.215 10.8635 106.91 10.4697C106.61 10.0722 106.209 9.87347 105.707 9.87347C105.217 9.87347 104.821 10.0686 104.52 10.4589C104.22 10.8492 104.069 11.4078 104.069 12.1347ZM114.285 9.16449V14.976H113.286V9.98627H111.309L111.191 12.1616C111.127 13.1606 110.958 13.8749 110.686 14.3046C110.418 14.7343 109.99 14.9581 109.403 14.976H109.005V14.1005L109.29 14.079C109.612 14.0432 109.843 13.857 109.983 13.5204C110.122 13.1839 110.212 12.5608 110.251 11.6513L110.359 9.16449H114.285ZM116.965 11.6298H118.362C118.437 10.8564 118.711 10.2351 119.183 9.76605C119.66 9.2934 120.259 9.05707 120.983 9.05707C121.742 9.05707 122.363 9.31309 122.846 9.82513C123.33 10.3372 123.591 11.0032 123.631 11.8232L123.636 12.1347C123.636 12.7005 123.525 13.2107 123.303 13.6655C123.081 14.1202 122.77 14.4711 122.368 14.7182C121.967 14.9617 121.509 15.0834 120.993 15.0834C120.245 15.0834 119.633 14.8399 119.157 14.353C118.68 13.8624 118.414 13.2268 118.356 12.4462H116.965V14.976H115.971V9.16449H116.965V11.6298ZM119.339 12.1347C119.339 12.7792 119.488 13.2967 119.785 13.687C120.086 14.0773 120.489 14.2724 120.993 14.2724C121.498 14.2724 121.898 14.0737 122.191 13.6762C122.488 13.2787 122.637 12.7255 122.637 12.0165C122.637 11.3828 122.487 10.8671 122.186 10.4697C121.885 10.0722 121.484 9.87347 120.983 9.87347C120.489 9.87347 120.091 10.0686 119.79 10.4589C119.49 10.8492 119.339 11.4078 119.339 12.1347ZM124.947 9.16449H125.946V14.165H128.62V9.16449H129.614V14.165H130.307L130.21 16.7001H129.319V14.976H124.947V9.16449ZM135.141 9.16449H136.135V14.976H135.141V10.7382L132.461 14.976H131.467V9.16449H132.461V13.4077L135.141 9.16449ZM138.815 11.6298H140.211C140.286 10.8564 140.56 10.2351 141.033 9.76605C141.509 9.2934 142.109 9.05707 142.832 9.05707C143.591 9.05707 144.213 9.31309 144.696 9.82513C145.18 10.3372 145.441 11.0032 145.48 11.8232L145.486 12.1347C145.486 12.7005 145.375 13.2107 145.153 13.6655C144.931 14.1202 144.619 14.4711 144.218 14.7182C143.817 14.9617 143.359 15.0834 142.843 15.0834C142.095 15.0834 141.482 14.8399 141.006 14.353C140.53 13.8624 140.263 13.2268 140.206 12.4462H138.815V14.976H137.821V9.16449H138.815V11.6298ZM141.189 12.1347C141.189 12.7792 141.337 13.2967 141.635 13.687C141.935 14.0773 142.338 14.2724 142.843 14.2724C143.348 14.2724 143.747 14.0737 144.041 13.6762C144.338 13.2787 144.487 12.7255 144.487 12.0165C144.487 11.3828 144.336 10.8671 144.035 10.4697C143.735 10.0722 143.334 9.87347 142.832 9.87347C142.338 9.87347 141.941 10.0686 141.64 10.4589C141.339 10.8492 141.189 11.4078 141.189 12.1347Z" fill="#555555"/>
</svg>
