<svg width="117" height="23" viewBox="0 0 117 23" fill="none" xmlns="http://www.w3.org/2000/svg">
<rect x="0.918091" y="0.826416" width="115" height="21" rx="1.5" fill="#F8F8F8" stroke="#DADADA"/>
<path d="M44.6135 11.0437C44.6135 11.81 44.4846 12.4796 44.2267 13.0525C43.9689 13.6218 43.6037 14.0569 43.131 14.3577C42.6584 14.6584 42.107 14.8088 41.4767 14.8088C40.8609 14.8088 40.3148 14.6584 39.8386 14.3577C39.3623 14.0533 38.9917 13.6218 38.7267 13.0632C38.4654 12.5011 38.3311 11.8512 38.3239 11.1135V10.5496C38.3239 9.79761 38.4546 9.13338 38.716 8.55688C38.9774 7.98039 39.3462 7.53996 39.8224 7.2356C40.3023 6.92765 40.8501 6.77368 41.466 6.77368C42.0926 6.77368 42.6441 6.92586 43.1203 7.23022C43.6001 7.53101 43.9689 7.96965 44.2267 8.54614C44.4846 9.11906 44.6135 9.78687 44.6135 10.5496V11.0437ZM43.5876 10.5388C43.5876 9.61141 43.4014 8.90063 43.029 8.40649C42.6566 7.90877 42.1356 7.65991 41.466 7.65991C40.8143 7.65991 40.3005 7.90877 39.9245 8.40649C39.5521 8.90063 39.3605 9.58813 39.3498 10.469V11.0437C39.3498 11.9425 39.5378 12.6497 39.9138 13.1653C40.2933 13.6773 40.8143 13.9333 41.4767 13.9333C42.1428 13.9333 42.6584 13.6917 43.0236 13.2083C43.3889 12.7213 43.5768 12.0248 43.5876 11.1189V10.5388ZM50.3229 9.69556H48.3732V14.7014H47.3796V9.69556H45.4675V8.88989H50.3229V9.69556ZM54.6359 13.3855L56.6125 8.88989H57.8532V14.7014H56.8596V10.4744L54.9797 14.7014H54.2922L52.3747 10.3831V14.7014H51.381V8.88989H52.6701L54.6359 13.3855ZM61.8654 14.8088C61.0777 14.8088 60.4367 14.551 59.9426 14.0354C59.4484 13.5162 59.2014 12.8233 59.2014 11.9568V11.7742C59.2014 11.1977 59.3106 10.6838 59.529 10.2327C59.751 9.77791 60.0589 9.42342 60.4528 9.16919C60.8503 8.91138 61.28 8.78247 61.7419 8.78247C62.4974 8.78247 63.0847 9.03133 63.5036 9.52905C63.9225 10.0268 64.132 10.7393 64.132 11.6667V12.0803H60.195C60.2093 12.6532 60.3758 13.1169 60.6945 13.4714C61.0168 13.8223 61.425 13.9978 61.9191 13.9978C62.27 13.9978 62.5672 13.9262 62.8107 13.783C63.0542 13.6397 63.2673 13.45 63.4499 13.2136L64.0568 13.6863C63.5698 14.4347 62.8394 14.8088 61.8654 14.8088ZM61.7419 9.59888C61.3408 9.59888 61.0043 9.74569 60.7321 10.0393C60.46 10.3293 60.2917 10.7375 60.2272 11.2639H63.1384V11.1887C63.1097 10.6838 62.9737 10.2935 62.7302 10.0178C62.4867 9.73853 62.1572 9.59888 61.7419 9.59888ZM70.0349 14.7014H69.0412V12.22H66.3718V14.7014H65.3727V8.88989H66.3718V11.4089H69.0412V8.88989H70.0349V14.7014ZM75.2233 14.7014C75.166 14.5868 75.1195 14.3827 75.0837 14.0891C74.6218 14.5689 74.0703 14.8088 73.4294 14.8088C72.8565 14.8088 72.3856 14.6477 72.0168 14.3254C71.6516 13.9996 71.4689 13.5878 71.4689 13.0901C71.4689 12.4849 71.6981 12.0159 72.1564 11.6829C72.6183 11.3463 73.2665 11.178 74.1008 11.178H75.0676V10.7214C75.0676 10.3741 74.9637 10.0984 74.756 9.89429C74.5484 9.6866 74.2422 9.58276 73.8376 9.58276C73.4831 9.58276 73.1859 9.67228 72.946 9.85132C72.7061 10.0304 72.5861 10.247 72.5861 10.5012H71.5871C71.5871 10.2112 71.6891 9.93188 71.8932 9.66333C72.1009 9.39119 72.3802 9.17635 72.7311 9.0188C73.0856 8.86125 73.4741 8.78247 73.8967 8.78247C74.5663 8.78247 75.0908 8.95076 75.4704 9.28735C75.85 9.62036 76.0469 10.0805 76.0612 10.6677V13.3425C76.0612 13.8761 76.1293 14.3004 76.2653 14.6155V14.7014H75.2233ZM73.5744 13.9441C73.8859 13.9441 74.1813 13.8635 74.4606 13.7024C74.7399 13.5413 74.9422 13.3318 75.0676 13.074V11.8816H74.2888C73.0713 11.8816 72.4626 12.2379 72.4626 12.9504C72.4626 13.262 72.5664 13.5055 72.7741 13.6809C72.9818 13.8564 73.2486 13.9441 73.5744 13.9441Z" fill="#555555"/>
</svg>
