<svg width="124" height="23" viewBox="0 0 124 23" fill="none" xmlns="http://www.w3.org/2000/svg">
<rect x="0.501465" y="0.826416" width="122" height="21" rx="1.5" fill="#F8F8F8" stroke="#DADADA"/>
<path d="M17.9061 12.22C17.8094 13.0471 17.5033 13.6863 16.9877 14.1375C16.4756 14.585 15.7935 14.8088 14.9413 14.8088C14.0175 14.8088 13.2762 14.4776 12.7177 13.8152C12.1626 13.1528 11.8851 12.2665 11.8851 11.1565V10.4045C11.8851 9.67765 12.014 9.03849 12.2719 8.48706C12.5332 7.93563 12.9021 7.5131 13.3783 7.21948C13.8545 6.92228 14.406 6.77368 15.0326 6.77368C15.8633 6.77368 16.5293 7.00643 17.0306 7.47192C17.5319 7.93384 17.8238 8.57479 17.9061 9.39478H16.8695C16.78 8.77173 16.5848 8.32056 16.2841 8.04126C15.9869 7.76196 15.5697 7.62231 15.0326 7.62231C14.3737 7.62231 13.8563 7.8658 13.4803 8.35278C13.108 8.83976 12.9218 9.53263 12.9218 10.4314V11.1887C12.9218 12.0374 13.099 12.7123 13.4535 13.2136C13.808 13.7149 14.3039 13.9656 14.9413 13.9656C15.5142 13.9656 15.9528 13.8367 16.2572 13.5789C16.5651 13.3175 16.7692 12.8645 16.8695 12.22H17.9061ZM19.1146 13.8904L19.4584 13.4661C19.8451 12.9648 20.0653 12.2128 20.119 11.2102L20.2103 8.88989H23.954V13.8904H24.7006V16.4094H23.7069V14.7014H19.6517V16.4094H18.6581L18.6635 13.8904H19.1146ZM20.2909 13.8904H22.9603V9.80835H21.1718L21.1127 11.1941C21.0518 12.3507 20.7779 13.2494 20.2909 13.8904ZM28.2133 14.8088C27.4255 14.8088 26.7845 14.551 26.2904 14.0354C25.7963 13.5162 25.5492 12.8233 25.5492 11.9568V11.7742C25.5492 11.1977 25.6584 10.6838 25.8768 10.2327C26.0988 9.77791 26.4068 9.42342 26.8007 9.16919C27.1981 8.91138 27.6278 8.78247 28.0897 8.78247C28.8453 8.78247 29.4325 9.03133 29.8514 9.52905C30.2704 10.0268 30.4799 10.7393 30.4799 11.6667V12.0803H26.5428C26.5572 12.6532 26.7237 13.1169 27.0424 13.4714C27.3646 13.8223 27.7728 13.9978 28.267 13.9978C28.6179 13.9978 28.9151 13.9262 29.1586 13.783C29.4021 13.6397 29.6151 13.45 29.7977 13.2136L30.4047 13.6863C29.9177 14.4347 29.1872 14.8088 28.2133 14.8088ZM28.0897 9.59888C27.6887 9.59888 27.3521 9.74569 27.08 10.0393C26.8078 10.3293 26.6395 10.7375 26.5751 11.2639H29.4862V11.1887C29.4576 10.6838 29.3215 10.2935 29.078 10.0178C28.8345 9.73853 28.5051 9.59888 28.0897 9.59888ZM36.3988 8.88989V14.7014H35.3998V9.71167H33.4232L33.3051 11.887C33.2406 12.886 33.0723 13.6003 32.8002 14.03C32.5316 14.4597 32.1037 14.6835 31.5165 14.7014H31.119V13.8259L31.4037 13.8044C31.726 13.7686 31.9569 13.5824 32.0966 13.2458C32.2362 12.9093 32.3257 12.2862 32.3651 11.3767L32.4725 8.88989H36.3988ZM41.5819 14.7014C41.5246 14.5868 41.4781 14.3827 41.4423 14.0891C40.9803 14.5689 40.4289 14.8088 39.788 14.8088C39.215 14.8088 38.7442 14.6477 38.3754 14.3254C38.0101 13.9996 37.8275 13.5878 37.8275 13.0901C37.8275 12.4849 38.0567 12.0159 38.515 11.6829C38.9769 11.3463 39.625 11.178 40.4594 11.178H41.4261V10.7214C41.4261 10.3741 41.3223 10.0984 41.1146 9.89429C40.9069 9.6866 40.6008 9.58276 40.1962 9.58276C39.8417 9.58276 39.5445 9.67228 39.3046 9.85132C39.0647 10.0304 38.9447 10.247 38.9447 10.5012H37.9457C37.9457 10.2112 38.0477 9.93188 38.2518 9.66333C38.4595 9.39119 38.7388 9.17635 39.0897 9.0188C39.4442 8.86125 39.8327 8.78247 40.2552 8.78247C40.9248 8.78247 41.4494 8.95076 41.829 9.28735C42.2085 9.62036 42.4055 10.0805 42.4198 10.6677V13.3425C42.4198 13.8761 42.4878 14.3004 42.6239 14.6155V14.7014H41.5819ZM39.933 13.9441C40.2445 13.9441 40.5399 13.8635 40.8192 13.7024C41.0985 13.5413 41.3008 13.3318 41.4261 13.074V11.8816H40.6473C39.4299 11.8816 38.8212 12.2379 38.8212 12.9504C38.8212 13.262 38.925 13.5055 39.1327 13.6809C39.3404 13.8564 39.6071 13.9441 39.933 13.9441ZM48.2098 9.69556H46.2601V14.7014H45.2665V9.69556H43.3544V8.88989H48.2098V9.69556ZM50.2616 10.8933H51.7709C52.4297 10.9005 52.9507 11.0723 53.3339 11.4089C53.717 11.7455 53.9086 12.2021 53.9086 12.7786C53.9086 13.3586 53.7116 13.8241 53.3177 14.175C52.9239 14.526 52.3939 14.7014 51.7279 14.7014H49.2679V8.88989H50.2616V10.8933ZM50.2616 11.7043V13.8904H51.7386C52.111 13.8904 52.3993 13.7955 52.6034 13.6057C52.8075 13.4124 52.9095 13.1492 52.9095 12.8162C52.9095 12.4939 52.8093 12.2307 52.6088 12.0266C52.4118 11.8189 52.1343 11.7115 51.7762 11.7043H50.2616ZM57.6146 11.7419C57.6146 11.1726 57.7256 10.6606 57.9476 10.2058C58.1732 9.75106 58.4847 9.40015 58.8822 9.15308C59.2832 8.90601 59.7398 8.78247 60.2518 8.78247C61.0432 8.78247 61.6823 9.0564 62.1693 9.60425C62.6599 10.1521 62.9052 10.8808 62.9052 11.7903V11.8601C62.9052 12.4259 62.7959 12.9343 62.5775 13.3855C62.3627 13.8331 62.0529 14.1822 61.6483 14.4329C61.2473 14.6835 60.7854 14.8088 60.2626 14.8088C59.4748 14.8088 58.8357 14.5349 58.3451 13.9871C57.8581 13.4392 57.6146 12.7141 57.6146 11.8118V11.7419ZM58.6136 11.8601C58.6136 12.5046 58.7622 13.0221 59.0594 13.4124C59.3602 13.8027 59.7613 13.9978 60.2626 13.9978C60.7675 13.9978 61.1685 13.8009 61.4657 13.407C61.7629 13.0095 61.9115 12.4545 61.9115 11.7419C61.9115 11.1046 61.7593 10.5889 61.455 10.1951C61.1542 9.79761 60.7531 9.59888 60.2518 9.59888C59.7613 9.59888 59.3656 9.79403 59.0648 10.1843C58.764 10.5746 58.6136 11.1332 58.6136 11.8601ZM66.4823 13.9978C66.8368 13.9978 67.1465 13.8904 67.4115 13.6755C67.6765 13.4607 67.8233 13.1921 67.8519 12.8699H68.7919C68.774 13.2029 68.6594 13.5198 68.4481 13.8206C68.2369 14.1213 67.954 14.3612 67.5995 14.5403C67.2486 14.7193 66.8762 14.8088 66.4823 14.8088C65.691 14.8088 65.0608 14.5457 64.5917 14.0193C64.1262 13.4893 63.8934 12.766 63.8934 11.8494V11.6829C63.8934 11.1171 63.9973 10.614 64.205 10.1736C64.4126 9.73315 64.7098 9.39119 65.0966 9.14771C65.4869 8.90422 65.947 8.78247 66.4769 8.78247C67.1286 8.78247 67.6693 8.97762 68.099 9.36792C68.5323 9.75822 68.7632 10.2649 68.7919 10.8879H67.8519C67.8233 10.512 67.6801 10.204 67.4222 9.96411C67.168 9.72062 66.8529 9.59888 66.4769 9.59888C65.972 9.59888 65.58 9.78149 65.3007 10.1467C65.0249 10.5084 64.8871 11.033 64.8871 11.7205V11.9084C64.8871 12.578 65.0249 13.0937 65.3007 13.4553C65.5764 13.817 65.9703 13.9978 66.4823 13.9978ZM74.6571 14.7014H73.6635V12.22H70.994V14.7014H69.995V8.88989H70.994V11.4089H73.6635V8.88989H74.6571V14.7014ZM75.9945 11.7419C75.9945 11.1726 76.1055 10.6606 76.3275 10.2058C76.5531 9.75106 76.8646 9.40015 77.2621 9.15308C77.6631 8.90601 78.1197 8.78247 78.6317 8.78247C79.4231 8.78247 80.0622 9.0564 80.5492 9.60425C81.0398 10.1521 81.285 10.8808 81.285 11.7903V11.8601C81.285 12.4259 81.1758 12.9343 80.9574 13.3855C80.7426 13.8331 80.4328 14.1822 80.0282 14.4329C79.6272 14.6835 79.1652 14.8088 78.6425 14.8088C77.8547 14.8088 77.2155 14.5349 76.725 13.9871C76.238 13.4392 75.9945 12.7141 75.9945 11.8118V11.7419ZM76.9935 11.8601C76.9935 12.5046 77.1421 13.0221 77.4393 13.4124C77.7401 13.8027 78.1412 13.9978 78.6425 13.9978C79.1473 13.9978 79.5484 13.8009 79.8456 13.407C80.1428 13.0095 80.2914 12.4545 80.2914 11.7419C80.2914 11.1046 80.1392 10.5889 79.8348 10.1951C79.5341 9.79761 79.133 9.59888 78.6317 9.59888C78.1412 9.59888 77.7455 9.79403 77.4447 10.1843C77.1439 10.5746 76.9935 11.1332 76.9935 11.8601ZM82.6224 14.7014V8.88989H84.889C85.6625 8.88989 86.2551 9.02596 86.6669 9.2981C87.0822 9.56665 87.2899 9.96232 87.2899 10.4851C87.2899 10.7537 87.2094 10.9972 87.0482 11.2156C86.8871 11.4304 86.649 11.5951 86.3339 11.7097C86.6848 11.7921 86.9659 11.9532 87.1771 12.1931C87.392 12.433 87.4994 12.7195 87.4994 13.0525C87.4994 13.586 87.3024 13.9942 86.9086 14.2771C86.5183 14.56 85.965 14.7014 85.2489 14.7014H82.6224ZM83.6161 12.1501V13.9011H85.2596C85.675 13.9011 85.9847 13.8241 86.1888 13.6702C86.3965 13.5162 86.5004 13.2996 86.5004 13.0203C86.5004 12.4402 86.0743 12.1501 85.222 12.1501H83.6161ZM83.6161 11.3552H84.8998C85.8308 11.3552 86.2963 11.0831 86.2963 10.5388C86.2963 9.99455 85.8558 9.71346 84.975 9.69556H83.6161V11.3552ZM93.5634 14.7014H92.5697V12.22H89.9003V14.7014H88.9012V8.88989H89.9003V11.4089H92.5697V8.88989H93.5634V14.7014ZM96.2489 10.8933H97.7582C98.417 10.9005 98.938 11.0723 99.3212 11.4089C99.7043 11.7455 99.8959 12.2021 99.8959 12.7786C99.8959 13.3586 99.6989 13.8241 99.3051 14.175C98.9112 14.526 98.3812 14.7014 97.7152 14.7014H95.2552V8.88989H96.2489V10.8933ZM101.969 14.7014H100.97V8.88989H101.969V14.7014ZM96.2489 11.7043V13.8904H97.726C98.0983 13.8904 98.3866 13.7955 98.5907 13.6057C98.7948 13.4124 98.8969 13.1492 98.8969 12.8162C98.8969 12.4939 98.7966 12.2307 98.5961 12.0266C98.3991 11.8189 98.1216 11.7115 97.7635 11.7043H96.2489ZM107.05 13.3855L109.027 8.88989H110.267V14.7014H109.274V10.4744L107.394 14.7014H106.706L104.789 10.3831V14.7014H103.795V8.88989H105.084L107.05 13.3855Z" fill="#555555"/>
</svg>
