<svg width="171" height="22" viewBox="0 0 171 22" fill="none" xmlns="http://www.w3.org/2000/svg">
<rect x="1.27374" y="0.5" width="168.583" height="21" rx="1.5" fill="#FBE4E5" stroke="#E6B3B5"/>
<path d="M29.0875 10.7173C29.0875 11.4836 28.9586 12.1532 28.7008 12.7261C28.443 13.2954 28.0778 13.7305 27.6051 14.0312C27.1324 14.332 26.581 14.4824 25.9508 14.4824C25.3349 14.4824 24.7889 14.332 24.3126 14.0312C23.8364 13.7269 23.4658 13.2954 23.2008 12.7368C22.9394 12.1746 22.8051 11.5247 22.798 10.7871V10.2231C22.798 9.47119 22.9287 8.80697 23.1901 8.23047C23.4515 7.65397 23.8203 7.21354 24.2965 6.90918C24.7763 6.60124 25.3242 6.44727 25.9401 6.44727C26.5667 6.44727 27.1181 6.59945 27.5944 6.90381C28.0742 7.20459 28.443 7.64323 28.7008 8.21973C28.9586 8.79264 29.0875 9.46045 29.0875 10.2231V10.7173ZM28.0616 10.2124C28.0616 9.28499 27.8754 8.57422 27.5031 8.08008C27.1307 7.58236 26.6097 7.3335 25.9401 7.3335C25.2884 7.3335 24.7745 7.58236 24.3986 8.08008C24.0262 8.57422 23.8346 9.26172 23.8239 10.1426V10.7173C23.8239 11.616 24.0118 12.3232 24.3878 12.8389C24.7674 13.3509 25.2884 13.6069 25.9508 13.6069C26.6168 13.6069 27.1324 13.3652 27.4977 12.8818C27.8629 12.3949 28.0509 11.6984 28.0616 10.7925V10.2124ZM34.797 9.36914H32.8473V14.375H31.8536V9.36914H29.9415V8.56348H34.797V9.36914ZM39.11 13.0591L41.0865 8.56348H42.3273V14.375H41.3336V10.1479L39.4537 14.375H38.7662L36.8488 10.0566V14.375H35.8551V8.56348H37.1442L39.11 13.0591ZM46.3395 14.4824C45.5517 14.4824 44.9108 14.2246 44.4166 13.709C43.9225 13.1898 43.6754 12.4969 43.6754 11.6304V11.4478C43.6754 10.8713 43.7846 10.3574 44.0031 9.90625C44.2251 9.4515 44.533 9.09701 44.9269 8.84277C45.3243 8.58496 45.754 8.45605 46.2159 8.45605C46.9715 8.45605 47.5587 8.70492 47.9777 9.20264C48.3966 9.70036 48.6061 10.4129 48.6061 11.3403V11.7539H44.6691C44.6834 12.3268 44.8499 12.7905 45.1686 13.145C45.4908 13.4959 45.899 13.6714 46.3932 13.6714C46.7441 13.6714 47.0413 13.5998 47.2848 13.4565C47.5283 13.3133 47.7413 13.1235 47.924 12.8872L48.5309 13.3599C48.0439 14.1082 47.3134 14.4824 46.3395 14.4824ZM46.2159 9.27246C45.8149 9.27246 45.4783 9.41927 45.2062 9.71289C44.934 10.0029 44.7657 10.4111 44.7013 10.9375H47.6124V10.8623C47.5838 10.3574 47.4477 9.96712 47.2042 9.69141C46.9607 9.41211 46.6313 9.27246 46.2159 9.27246ZM54.5089 14.375H53.5153V11.8936H50.8458V14.375H49.8468V8.56348H50.8458V11.0825H53.5153V8.56348H54.5089V14.375ZM59.8693 8.56348H60.8629V14.375H59.8693V10.1372L57.1891 14.375H56.1954V8.56348H57.1891V12.8066L59.8693 8.56348ZM66.7765 9.36914H64.8268V14.375H63.8331V9.36914H61.921V8.56348H66.7765V9.36914ZM68.8282 10.5669H70.3375C70.9964 10.5741 71.5174 10.7459 71.9005 11.0825C72.2837 11.4191 72.4752 11.8757 72.4752 12.4521C72.4752 13.0322 72.2783 13.4977 71.8844 13.8486C71.4905 14.1995 70.9606 14.375 70.2946 14.375H67.8346V8.56348H68.8282V10.5669ZM68.8282 11.3779V13.564H70.3053C70.6777 13.564 70.9659 13.4691 71.17 13.2793C71.3741 13.0859 71.4762 12.8228 71.4762 12.4897C71.4762 12.1675 71.3759 11.9043 71.1754 11.7002C70.9785 11.4925 70.701 11.3851 70.3429 11.3779H68.8282ZM78.7755 13.6714C79.13 13.6714 79.4397 13.564 79.7047 13.3491C79.9697 13.1343 80.1165 12.8657 80.1451 12.5435H81.0851C81.0672 12.8765 80.9526 13.1934 80.7413 13.4941C80.5301 13.7949 80.2472 14.0348 79.8927 14.2139C79.5418 14.3929 79.1694 14.4824 78.7755 14.4824C77.9842 14.4824 77.354 14.2192 76.8849 13.6929C76.4194 13.1629 76.1866 12.4396 76.1866 11.5229V11.3564C76.1866 10.7907 76.2905 10.2876 76.4982 9.84717C76.7059 9.40674 77.0031 9.06478 77.3898 8.82129C77.7801 8.5778 78.2402 8.45605 78.7701 8.45605C79.4218 8.45605 79.9625 8.6512 80.3922 9.0415C80.8255 9.4318 81.0564 9.93848 81.0851 10.5615H80.1451C80.1165 10.1855 79.9733 9.8776 79.7155 9.6377C79.4612 9.39421 79.1461 9.27246 78.7701 9.27246C78.2653 9.27246 77.8732 9.45508 77.5939 9.82031C77.3182 10.182 77.1803 10.7065 77.1803 11.394V11.582C77.1803 12.2516 77.3182 12.7673 77.5939 13.1289C77.8696 13.4906 78.2635 13.6714 78.7755 13.6714ZM81.9391 11.4155C81.9391 10.8462 82.0501 10.3341 82.2721 9.87939C82.4977 9.42464 82.8092 9.07373 83.2067 8.82666C83.6077 8.57959 84.0642 8.45605 84.5763 8.45605C85.3676 8.45605 86.0068 8.72998 86.4938 9.27783C86.9843 9.82568 87.2296 10.5544 87.2296 11.4639V11.5337C87.2296 12.0994 87.1204 12.6079 86.902 13.0591C86.6871 13.5067 86.3774 13.8558 85.9728 14.1064C85.5717 14.3571 85.1098 14.4824 84.587 14.4824C83.7993 14.4824 83.1601 14.2085 82.6696 13.6606C82.1826 13.1128 81.9391 12.3877 81.9391 11.4854V11.4155ZM82.9381 11.5337C82.9381 12.1782 83.0867 12.6956 83.3839 13.0859C83.6847 13.4762 84.0857 13.6714 84.587 13.6714C85.0919 13.6714 85.493 13.4744 85.7902 13.0806C86.0874 12.6831 86.236 12.1281 86.236 11.4155C86.236 10.7782 86.0838 10.2625 85.7794 9.86865C85.4786 9.47119 85.0776 9.27246 84.5763 9.27246C84.0857 9.27246 83.6901 9.46761 83.3893 9.85791C83.0885 10.2482 82.9381 10.8068 82.9381 11.5337ZM92.2301 9.38525H89.5499V14.375H88.5509V8.56348H92.2301V9.38525ZM97.6442 8.56348V14.375H96.6451V9.38525H94.6686L94.5504 11.5605C94.486 12.5596 94.3177 13.2739 94.0455 13.7036C93.777 14.1333 93.3491 14.3571 92.7618 14.375H92.3644V13.4995L92.649 13.478C92.9713 13.4422 93.2023 13.256 93.3419 12.9194C93.4816 12.5828 93.5711 11.9598 93.6105 11.0503L93.7179 8.56348H97.6442ZM102.827 14.375C102.77 14.2604 102.723 14.0563 102.688 13.7627C102.226 14.2425 101.674 14.4824 101.033 14.4824C100.46 14.4824 99.9895 14.3213 99.6207 13.999C99.2555 13.6732 99.0729 13.2614 99.0729 12.7637C99.0729 12.1585 99.302 11.6895 99.7604 11.3564C100.222 11.0199 100.87 10.8516 101.705 10.8516H102.672V10.395C102.672 10.0477 102.568 9.77197 102.36 9.56787C102.152 9.36019 101.846 9.25635 101.442 9.25635C101.087 9.25635 100.79 9.34587 100.55 9.5249C100.31 9.70394 100.19 9.92057 100.19 10.1748H99.191C99.191 9.88477 99.2931 9.60547 99.4972 9.33691C99.7049 9.06478 99.9842 8.84993 100.335 8.69238C100.69 8.53483 101.078 8.45605 101.501 8.45605C102.17 8.45605 102.695 8.62435 103.074 8.96094C103.454 9.29395 103.651 9.75407 103.665 10.3413V13.0161C103.665 13.5496 103.733 13.974 103.869 14.2891V14.375H102.827ZM101.178 13.6177C101.49 13.6177 101.785 13.5371 102.065 13.376C102.344 13.2148 102.546 13.0054 102.672 12.7476V11.5552H101.893C100.675 11.5552 100.067 11.9115 100.067 12.624C100.067 12.9355 100.17 13.179 100.378 13.3545C100.586 13.5299 100.852 13.6177 101.178 13.6177ZM107.554 13.6714C107.908 13.6714 108.218 13.564 108.483 13.3491C108.748 13.1343 108.895 12.8657 108.923 12.5435H109.863C109.845 12.8765 109.731 13.1934 109.52 13.4941C109.308 13.7949 109.026 14.0348 108.671 14.2139C108.32 14.3929 107.948 14.4824 107.554 14.4824C106.762 14.4824 106.132 14.2192 105.663 13.6929C105.198 13.1629 104.965 12.4396 104.965 11.5229V11.3564C104.965 10.7907 105.069 10.2876 105.276 9.84717C105.484 9.40674 105.781 9.06478 106.168 8.82129C106.558 8.5778 107.019 8.45605 107.548 8.45605C108.2 8.45605 108.741 8.6512 109.171 9.0415C109.604 9.4318 109.835 9.93848 109.863 10.5615H108.923C108.895 10.1855 108.752 9.8776 108.494 9.6377C108.24 9.39421 107.924 9.27246 107.548 9.27246C107.044 9.27246 106.651 9.45508 106.372 9.82031C106.096 10.182 105.959 10.7065 105.959 11.394V11.582C105.959 12.2516 106.096 12.7673 106.372 13.1289C106.648 13.4906 107.042 13.6714 107.554 13.6714ZM110.717 11.4155C110.717 10.8462 110.828 10.3341 111.05 9.87939C111.276 9.42464 111.588 9.07373 111.985 8.82666C112.386 8.57959 112.843 8.45605 113.355 8.45605C114.146 8.45605 114.785 8.72998 115.272 9.27783C115.763 9.82568 116.008 10.5544 116.008 11.4639V11.5337C116.008 12.0994 115.899 12.6079 115.68 13.0591C115.465 13.5067 115.156 13.8558 114.751 14.1064C114.35 14.3571 113.888 14.4824 113.365 14.4824C112.578 14.4824 111.938 14.2085 111.448 13.6606C110.961 13.1128 110.717 12.3877 110.717 11.4854V11.4155ZM111.716 11.5337C111.716 12.1782 111.865 12.6956 112.162 13.0859C112.463 13.4762 112.864 13.6714 113.365 13.6714C113.87 13.6714 114.271 13.4744 114.568 13.0806C114.866 12.6831 115.014 12.1281 115.014 11.4155C115.014 10.7782 114.862 10.2625 114.558 9.86865C114.257 9.47119 113.856 9.27246 113.355 9.27246C112.864 9.27246 112.468 9.46761 112.168 9.85791C111.867 10.2482 111.716 10.8068 111.716 11.5337ZM117.345 14.375V8.56348H119.612C120.385 8.56348 120.978 8.69954 121.39 8.97168C121.805 9.24023 122.013 9.6359 122.013 10.1587C122.013 10.4272 121.932 10.6707 121.771 10.8892C121.61 11.104 121.372 11.2687 121.057 11.3833C121.408 11.4657 121.689 11.6268 121.9 11.8667C122.115 12.1066 122.222 12.3931 122.222 12.7261C122.222 13.2596 122.025 13.6678 121.631 13.9507C121.241 14.2336 120.688 14.375 119.972 14.375H117.345ZM118.339 11.8237V13.5747H119.983C120.398 13.5747 120.708 13.4977 120.912 13.3438C121.119 13.1898 121.223 12.9731 121.223 12.6938C121.223 12.1138 120.797 11.8237 119.945 11.8237H118.339ZM118.339 11.0288H119.623C120.554 11.0288 121.019 10.7567 121.019 10.2124C121.019 9.66813 120.579 9.38704 119.698 9.36914H118.339V11.0288ZM127.126 14.375C127.069 14.2604 127.022 14.0563 126.986 13.7627C126.525 14.2425 125.973 14.4824 125.332 14.4824C124.759 14.4824 124.288 14.3213 123.92 13.999C123.554 13.6732 123.372 13.2614 123.372 12.7637C123.372 12.1585 123.601 11.6895 124.059 11.3564C124.521 11.0199 125.169 10.8516 126.004 10.8516H126.97V10.395C126.97 10.0477 126.866 9.77197 126.659 9.56787C126.451 9.36019 126.145 9.25635 125.74 9.25635C125.386 9.25635 125.089 9.34587 124.849 9.5249C124.609 9.70394 124.489 9.92057 124.489 10.1748H123.49C123.49 9.88477 123.592 9.60547 123.796 9.33691C124.004 9.06478 124.283 8.84993 124.634 8.69238C124.988 8.53483 125.377 8.45605 125.799 8.45605C126.469 8.45605 126.994 8.62435 127.373 8.96094C127.753 9.29395 127.95 9.75407 127.964 10.3413V13.0161C127.964 13.5496 128.032 13.974 128.168 14.2891V14.375H127.126ZM125.477 13.6177C125.789 13.6177 126.084 13.5371 126.363 13.376C126.643 13.2148 126.845 13.0054 126.97 12.7476V11.5552H126.192C124.974 11.5552 124.365 11.9115 124.365 12.624C124.365 12.9355 124.469 13.179 124.677 13.3545C124.885 13.5299 125.151 13.6177 125.477 13.6177ZM134.27 14.375H133.276V11.8936H130.607V14.375H129.608V8.56348H130.607V11.0825H133.276V8.56348H134.27V14.375ZM139.63 8.56348H140.624V14.375H139.63V10.1372L136.95 14.375H135.956V8.56348H136.95V12.8066L139.63 8.56348ZM144.63 14.4824C143.843 14.4824 143.202 14.2246 142.708 13.709C142.214 13.1898 141.966 12.4969 141.966 11.6304V11.4478C141.966 10.8713 142.076 10.3574 142.294 9.90625C142.516 9.4515 142.824 9.09701 143.218 8.84277C143.615 8.58496 144.045 8.45605 144.507 8.45605C145.262 8.45605 145.85 8.70492 146.269 9.20264C146.688 9.70036 146.897 10.4129 146.897 11.3403V11.7539H142.96C142.974 12.3268 143.141 12.7905 143.46 13.145C143.782 13.4959 144.19 13.6714 144.684 13.6714C145.035 13.6714 145.332 13.5998 145.576 13.4565C145.819 13.3133 146.032 13.1235 146.215 12.8872L146.822 13.3599C146.335 14.1082 145.604 14.4824 144.63 14.4824ZM144.507 9.27246C144.106 9.27246 143.769 9.41927 143.497 9.71289C143.225 10.0029 143.057 10.4111 142.992 10.9375H145.903V10.8623C145.875 10.3574 145.739 9.96712 145.495 9.69141C145.252 9.41211 144.922 9.27246 144.507 9.27246Z" fill="#555555"/>
</svg>
