<svg width="170" height="23" viewBox="0 0 170 23" fill="none" xmlns="http://www.w3.org/2000/svg">
<rect x="0.833344" y="1.10101" width="168.583" height="21" rx="1.5" fill="#ECF5DD" stroke="#C5D2B1"/>
<path d="M53.3434 11.9145V14.976H52.3122V7.1557H55.1964C56.0522 7.1557 56.7218 7.37413 57.2052 7.81097C57.6922 8.24782 57.9357 8.82611 57.9357 9.54584C57.9357 10.305 57.6976 10.8904 57.2213 11.3022C56.7487 11.7104 56.0701 11.9145 55.1857 11.9145H53.3434ZM53.3434 11.0712H55.1964C55.7479 11.0712 56.1704 10.9423 56.464 10.6845C56.7576 10.4231 56.9044 10.0471 56.9044 9.55658C56.9044 9.09108 56.7576 8.71869 56.464 8.43939C56.1704 8.1601 55.7676 8.01508 55.2555 8.00433H53.3434V11.0712ZM61.4323 15.0834C60.6445 15.0834 60.0036 14.8256 59.5094 14.31C59.0153 13.7908 58.7682 13.0979 58.7682 12.2314V12.0488C58.7682 11.4723 58.8774 10.9584 59.0959 10.5073C59.3179 10.0525 59.6258 9.69802 60.0197 9.44379C60.4171 9.18597 60.8468 9.05707 61.3087 9.05707C62.0643 9.05707 62.6515 9.30593 63.0705 9.80365C63.4894 10.3014 63.6989 11.0139 63.6989 11.9413V12.3549H59.7619C59.7762 12.9278 59.9427 13.3915 60.2614 13.746C60.5836 14.0969 60.9919 14.2724 61.486 14.2724C61.8369 14.2724 62.1341 14.2008 62.3776 14.0576C62.6211 13.9143 62.8341 13.7245 63.0168 13.4882L63.6237 13.9609C63.1367 14.7092 62.4062 15.0834 61.4323 15.0834ZM61.3087 9.87347C60.9077 9.87347 60.5711 10.0203 60.299 10.3139C60.0268 10.6039 59.8586 11.0121 59.7941 11.5385H62.7052V11.4633C62.6766 10.9584 62.5405 10.5681 62.297 10.2924C62.0535 10.0131 61.7241 9.87347 61.3087 9.87347ZM68.6081 9.98627H65.9279V14.976H64.9289V9.16449H68.6081V9.98627ZM73.2326 9.16449H74.2262V14.976H73.2326V10.7382L70.5524 14.976H69.5587V9.16449H70.5524V13.4077L73.2326 9.16449ZM78.1525 14.2724C78.507 14.2724 78.8167 14.165 79.0817 13.9501C79.3467 13.7353 79.4935 13.4667 79.5221 13.1445H80.4621C80.4442 13.4775 80.3296 13.7944 80.1183 14.0952C79.9071 14.3959 79.6242 14.6358 79.2697 14.8149C78.9188 14.9939 78.5464 15.0834 78.1525 15.0834C77.3612 15.0834 76.7309 14.8203 76.2619 14.2939C75.7964 13.7639 75.5636 13.0406 75.5636 12.124V11.9575C75.5636 11.3917 75.6675 10.8886 75.8752 10.4482C76.0828 10.0078 76.38 9.66579 76.7668 9.4223C77.1571 9.17881 77.6172 9.05707 78.1471 9.05707C78.7988 9.05707 79.3395 9.25222 79.7692 9.64252C80.2025 10.0328 80.4334 10.5395 80.4621 11.1625H79.5221C79.4935 10.7866 79.3503 10.4786 79.0924 10.2387C78.8382 9.99522 78.5231 9.87347 78.1471 9.87347C77.6422 9.87347 77.2502 10.0561 76.9709 10.4213C76.6951 10.783 76.5573 11.3076 76.5573 11.9951V12.183C76.5573 12.8526 76.6951 13.3683 76.9709 13.7299C77.2466 14.0916 77.6405 14.2724 78.1525 14.2724ZM85.8976 9.97015H83.9479V14.976H82.9543V9.97015H81.0421V9.16449H85.8976V9.97015ZM91.7736 12.1347C91.7736 13.0191 91.5713 13.7317 91.1667 14.2724C90.762 14.8131 90.2142 15.0834 89.5231 15.0834C88.8177 15.0834 88.2627 14.8596 87.8581 14.412V17.2104H86.8644V9.16449H87.7721L87.8205 9.80902C88.2251 9.30772 88.7873 9.05707 89.507 9.05707C90.2052 9.05707 90.7567 9.32025 91.1613 9.84662C91.5695 10.373 91.7736 11.1052 91.7736 12.0434V12.1347ZM90.7799 12.0219C90.7799 11.3666 90.6403 10.8492 90.361 10.4697C90.0817 10.0901 89.6986 9.90033 89.2116 9.90033C88.61 9.90033 88.1588 10.1671 87.8581 10.7006V13.4775C88.1553 14.0074 88.61 14.2724 89.2223 14.2724C89.6986 14.2724 90.0763 14.0844 90.3556 13.7084C90.6385 13.3289 90.7799 12.7667 90.7799 12.0219ZM96.6291 14.976C96.5718 14.8614 96.5252 14.6573 96.4894 14.3637C96.0275 14.8435 95.4761 15.0834 94.8351 15.0834C94.2622 15.0834 93.7913 14.9223 93.4225 14.6C93.0573 14.2742 92.8747 13.8624 92.8747 13.3647C92.8747 12.7595 93.1038 12.2905 93.5622 11.9575C94.0241 11.6209 94.6722 11.4526 95.5065 11.4526H96.4733V10.996C96.4733 10.6487 96.3695 10.373 96.1618 10.1689C95.9541 9.9612 95.6479 9.85736 95.2433 9.85736C94.8888 9.85736 94.5916 9.94688 94.3517 10.1259C94.1118 10.305 93.9919 10.5216 93.9919 10.7758H92.9928C92.9928 10.4858 93.0949 10.2065 93.299 9.93793C93.5067 9.66579 93.786 9.45095 94.1369 9.2934C94.4914 9.13584 94.8799 9.05707 95.3024 9.05707C95.972 9.05707 96.4966 9.22536 96.8761 9.56195C97.2557 9.89496 97.4526 10.3551 97.4669 10.9423V13.6171C97.4669 14.1507 97.535 14.575 97.6711 14.8901V14.976H96.6291ZM94.9801 14.2187C95.2917 14.2187 95.5871 14.1381 95.8664 13.977C96.1457 13.8159 96.348 13.6064 96.4733 13.3486V12.1562H95.6945C94.477 12.1562 93.8683 12.5125 93.8683 13.225C93.8683 13.5366 93.9722 13.78 94.1798 13.9555C94.3875 14.131 94.6543 14.2187 94.9801 14.2187ZM99.1105 9.16449H100.11V14.165H102.784V9.16449H103.778V14.165H104.471L104.374 16.7001H103.483V14.976H99.1105V9.16449ZM109.305 9.16449H110.298V14.976H109.305V10.7382L106.625 14.976H105.631V9.16449H106.625V13.4077L109.305 9.16449ZM116.336 9.16449V14.976H115.337V12.7148H113.838L112.468 14.976H111.394L112.855 12.5644C112.483 12.4283 112.196 12.2189 111.996 11.936C111.799 11.6495 111.7 11.3165 111.7 10.937C111.7 10.407 111.899 9.9809 112.297 9.65863C112.694 9.33278 113.226 9.16807 113.892 9.16449H116.336ZM112.699 10.9477C112.699 11.2306 112.796 11.4597 112.989 11.6352C113.183 11.8071 113.439 11.8948 113.757 11.8984H115.337V9.97015H113.908C113.539 9.97015 113.245 10.0615 113.027 10.2441C112.809 10.4231 112.699 10.6577 112.699 10.9477Z" fill="#555555"/>
</svg>
