<svg width="171" height="23" viewBox="0 0 171 23" fill="none" xmlns="http://www.w3.org/2000/svg">
<rect x="1.08484" y="1.10101" width="168.583" height="21" rx="1.5" fill="#ECF5DD" stroke="#C5D2B1"/>
<path d="M23.7643 11.3183C23.7643 12.0846 23.6354 12.7542 23.3776 13.3271C23.1198 13.8964 22.7546 14.3315 22.2819 14.6323C21.8093 14.933 21.2578 15.0834 20.6276 15.0834C20.0117 15.0834 19.4657 14.933 18.9894 14.6323C18.5132 14.3279 18.1426 13.8964 17.8776 13.3378C17.6162 12.7757 17.482 12.1258 17.4748 11.3881V10.8242C17.4748 10.0722 17.6055 9.40798 17.8669 8.83148C18.1283 8.25498 18.4971 7.81455 18.9733 7.51019C19.4531 7.20225 20.001 7.04828 20.6169 7.04828C21.2435 7.04828 21.7949 7.20046 22.2712 7.50482C22.751 7.8056 23.1198 8.24424 23.3776 8.82074C23.6354 9.39366 23.7643 10.0615 23.7643 10.8242V11.3183ZM22.7385 10.8134C22.7385 9.88601 22.5523 9.17523 22.1799 8.68109C21.8075 8.18337 21.2865 7.93451 20.6169 7.93451C19.9652 7.93451 19.4514 8.18337 19.0754 8.68109C18.703 9.17523 18.5114 9.86273 18.5007 10.7436V11.3183C18.5007 12.2171 18.6887 12.9243 19.0646 13.4399C19.4442 13.9519 19.9652 14.2079 20.6276 14.2079C21.2936 14.2079 21.8093 13.9662 22.1745 13.4828C22.5397 12.9959 22.7277 12.2994 22.7385 11.3935V10.8134ZM28.3513 10.7543C28.3513 10.4822 28.2474 10.2674 28.0397 10.1098C27.8321 9.94867 27.5474 9.8681 27.1857 9.8681C26.8348 9.8681 26.5412 9.95941 26.3049 10.142C26.0721 10.3246 25.9557 10.5395 25.9557 10.7866H24.9675C24.9675 10.2817 25.1787 9.8681 25.6013 9.54584C26.0238 9.22357 26.5519 9.06244 27.1857 9.06244C27.8661 9.06244 28.396 9.20925 28.7756 9.50287C29.1551 9.79291 29.3449 10.2083 29.3449 10.749C29.3449 11.0104 29.2661 11.2503 29.1086 11.4687C28.951 11.6871 28.7272 11.8608 28.4372 11.9897C29.114 12.2189 29.4523 12.67 29.4523 13.3432C29.4523 13.8767 29.2464 14.2993 28.8347 14.6108C28.4229 14.9223 27.8732 15.0781 27.1857 15.0781C26.5161 15.0781 25.9629 14.9151 25.5261 14.5893C25.0928 14.2599 24.8762 13.8159 24.8762 13.2573H25.8644C25.8644 13.5401 25.9898 13.7836 26.2404 13.9877C26.4946 14.1883 26.8098 14.2885 27.1857 14.2885C27.5653 14.2885 27.8714 14.2008 28.1042 14.0253C28.3369 13.8499 28.4533 13.6225 28.4533 13.3432C28.4533 13.0174 28.3548 12.7846 28.1579 12.645C27.9645 12.5017 27.662 12.4301 27.2502 12.4301H26.2565V11.5922H27.3361C28.0129 11.5743 28.3513 11.295 28.3513 10.7543ZM35.4894 14.976H34.4958V12.4946H31.8264V14.976H30.8273V9.16449H31.8264V11.6835H34.4958V9.16449H35.4894V14.976ZM40.6779 14.976C40.6206 14.8614 40.5741 14.6573 40.5383 14.3637C40.0764 14.8435 39.5249 15.0834 38.884 15.0834C38.3111 15.0834 37.8402 14.9223 37.4714 14.6C37.1061 14.2742 36.9235 13.8624 36.9235 13.3647C36.9235 12.7595 37.1527 12.2905 37.611 11.9575C38.0729 11.6209 38.721 11.4526 39.5554 11.4526H40.5222V10.996C40.5222 10.6487 40.4183 10.373 40.2106 10.1689C40.003 9.9612 39.6968 9.85736 39.2922 9.85736C38.9377 9.85736 38.6405 9.94688 38.4006 10.1259C38.1607 10.305 38.0407 10.5216 38.0407 10.7758H37.0417C37.0417 10.4858 37.1437 10.2065 37.3478 9.93793C37.5555 9.66579 37.8348 9.45095 38.1857 9.2934C38.5402 9.13584 38.9287 9.05707 39.3513 9.05707C40.0209 9.05707 40.5454 9.22536 40.925 9.56195C41.3045 9.89496 41.5015 10.3551 41.5158 10.9423V13.6171C41.5158 14.1507 41.5838 14.575 41.7199 14.8901V14.976H40.6779ZM39.029 14.2187C39.3405 14.2187 39.6359 14.1381 39.9152 13.977C40.1945 13.8159 40.3968 13.6064 40.5222 13.3486V12.1562H39.7433C38.5259 12.1562 37.9172 12.5125 37.9172 13.225C37.9172 13.5366 38.021 13.78 38.2287 13.9555C38.4364 14.131 38.7031 14.2187 39.029 14.2187ZM44.8835 12.4999H44.1584V14.976H43.1594V9.16449H44.1584V11.6245H44.8083L46.7634 9.16449H47.9665L45.6677 11.9575L48.1599 14.976H46.8976L44.8835 12.4999ZM48.6325 12.0165C48.6325 11.4472 48.7435 10.9352 48.9655 10.4804C49.1911 10.0257 49.5026 9.67474 49.9001 9.42767C50.3011 9.1806 50.7577 9.05707 51.2697 9.05707C52.0611 9.05707 52.7002 9.33099 53.1872 9.87885C53.6778 10.4267 53.923 11.1554 53.923 12.0649V12.1347C53.923 12.7005 53.8138 13.2089 53.5954 13.6601C53.3806 14.1077 53.0708 14.4568 52.6662 14.7075C52.2652 14.9581 51.8032 15.0834 51.2805 15.0834C50.4927 15.0834 49.8535 14.8095 49.363 14.2617C48.876 13.7138 48.6325 12.9887 48.6325 12.0864V12.0165ZM49.6315 12.1347C49.6315 12.7792 49.7801 13.2967 50.0773 13.687C50.3781 14.0773 50.7792 14.2724 51.2805 14.2724C51.7853 14.2724 52.1864 14.0755 52.4836 13.6816C52.7808 13.2841 52.9294 12.7291 52.9294 12.0165C52.9294 11.3792 52.7772 10.8635 52.4728 10.4697C52.1721 10.0722 51.771 9.87347 51.2697 9.87347C50.7792 9.87347 50.3835 10.0686 50.0827 10.4589C49.7819 10.8492 49.6315 11.4078 49.6315 12.1347ZM58.5153 13.6601L60.4919 9.16449H61.7326V14.976H60.739V10.749L58.8591 14.976H58.1716L56.2541 10.6577V14.976H55.2604V9.16449H56.5495L58.5153 13.6601ZM68.0974 9.16449V14.976H67.0983V9.98627H65.1218L65.0036 12.1616C64.9391 13.1606 64.7709 13.8749 64.4987 14.3046C64.2302 14.7343 63.8023 14.9581 63.215 14.976H62.8176V14.1005L63.1022 14.079C63.4245 14.0432 63.6555 13.857 63.7951 13.5204C63.9348 13.1839 64.0243 12.5608 64.0637 11.6513L64.1711 9.16449H68.0974ZM72.1042 15.0834C71.3164 15.0834 70.6755 14.8256 70.1813 14.31C69.6872 13.7908 69.4401 13.0979 69.4401 12.2314V12.0488C69.4401 11.4723 69.5493 10.9584 69.7678 10.5073C69.9898 10.0525 70.2977 9.69802 70.6916 9.44379C71.0891 9.18597 71.5187 9.05707 71.9807 9.05707C72.7362 9.05707 73.3234 9.30593 73.7424 9.80365C74.1613 10.3014 74.3708 11.0139 74.3708 11.9413V12.3549H70.4338C70.4481 12.9278 70.6146 13.3915 70.9333 13.746C71.2556 14.0969 71.6638 14.2724 72.1579 14.2724C72.5088 14.2724 72.806 14.2008 73.0495 14.0576C73.293 13.9143 73.506 13.7245 73.6887 13.4882L74.2956 13.9609C73.8086 14.7092 73.0781 15.0834 72.1042 15.0834ZM71.9807 9.87347C71.5796 9.87347 71.243 10.0203 70.9709 10.3139C70.6988 10.6039 70.5305 11.0121 70.466 11.5385H73.3771V11.4633C73.3485 10.9584 73.2124 10.5681 72.9689 10.2924C72.7254 10.0131 72.396 9.87347 71.9807 9.87347ZM80.2736 14.976H79.28V12.4946H76.6105V14.976H75.6115V9.16449H76.6105V11.6835H79.28V9.16449H80.2736V14.976ZM85.634 9.16449H86.6276V14.976H85.634V10.7382L82.9538 14.976H81.9601V9.16449H82.9538V13.4077L85.634 9.16449ZM90.6345 15.0834C89.8467 15.0834 89.2057 14.8256 88.7116 14.31C88.2175 13.7908 87.9704 13.0979 87.9704 12.2314V12.0488C87.9704 11.4723 88.0796 10.9584 88.298 10.5073C88.52 10.0525 88.828 9.69802 89.2219 9.44379C89.6193 9.18597 90.049 9.05707 90.5109 9.05707C91.2665 9.05707 91.8537 9.30593 92.2726 9.80365C92.6916 10.3014 92.9011 11.0139 92.9011 11.9413V12.3549H88.9641C88.9784 12.9278 89.1449 13.3915 89.4636 13.746C89.7858 14.0969 90.194 14.2724 90.6882 14.2724C91.0391 14.2724 91.3363 14.2008 91.5798 14.0576C91.8233 13.9143 92.0363 13.7245 92.2189 13.4882L92.8259 13.9609C92.3389 14.7092 91.6084 15.0834 90.6345 15.0834ZM90.5109 9.87347C90.1099 9.87347 89.7733 10.0203 89.5012 10.3139C89.229 10.6039 89.0607 11.0121 88.9963 11.5385H91.9074V11.4633C91.8788 10.9584 91.7427 10.5681 91.4992 10.2924C91.2557 10.0131 90.9263 9.87347 90.5109 9.87347ZM99.9802 10.7543C99.9802 10.4822 99.8763 10.2674 99.6686 10.1098C99.461 9.94867 99.1763 9.8681 98.8146 9.8681C98.4637 9.8681 98.1701 9.95941 97.9338 10.142C97.701 10.3246 97.5847 10.5395 97.5847 10.7866H96.5964C96.5964 10.2817 96.8076 9.8681 97.2302 9.54584C97.6527 9.22357 98.1808 9.06244 98.8146 9.06244C99.495 9.06244 100.025 9.20925 100.404 9.50287C100.784 9.79291 100.974 10.2083 100.974 10.749C100.974 11.0104 100.895 11.2503 100.737 11.4687C100.58 11.6871 100.356 11.8608 100.066 11.9897C100.743 12.2189 101.081 12.67 101.081 13.3432C101.081 13.8767 100.875 14.2993 100.464 14.6108C100.052 14.9223 99.5021 15.0781 98.8146 15.0781C98.145 15.0781 97.5918 14.9151 97.155 14.5893C96.7217 14.2599 96.5051 13.8159 96.5051 13.2573H97.4933C97.4933 13.5401 97.6187 13.7836 97.8693 13.9877C98.1236 14.1883 98.4387 14.2885 98.8146 14.2885C99.1942 14.2885 99.5003 14.2008 99.7331 14.0253C99.9658 13.8499 100.082 13.6225 100.082 13.3432C100.082 13.0174 99.9837 12.7846 99.7868 12.645C99.5934 12.5017 99.2909 12.4301 98.8791 12.4301H97.8854V11.5922H98.965C99.6418 11.5743 99.9802 11.295 99.9802 10.7543ZM105.958 14.976C105.901 14.8614 105.854 14.6573 105.819 14.3637C105.357 14.8435 104.805 15.0834 104.164 15.0834C103.591 15.0834 103.12 14.9223 102.752 14.6C102.386 14.2742 102.204 13.8624 102.204 13.3647C102.204 12.7595 102.433 12.2905 102.891 11.9575C103.353 11.6209 104.001 11.4526 104.836 11.4526H105.802V10.996C105.802 10.6487 105.699 10.373 105.491 10.1689C105.283 9.9612 104.977 9.85736 104.572 9.85736C104.218 9.85736 103.921 9.94688 103.681 10.1259C103.441 10.305 103.321 10.5216 103.321 10.7758H102.322C102.322 10.4858 102.424 10.2065 102.628 9.93793C102.836 9.66579 103.115 9.45095 103.466 9.2934C103.82 9.13584 104.209 9.05707 104.632 9.05707C105.301 9.05707 105.826 9.22536 106.205 9.56195C106.585 9.89496 106.782 10.3551 106.796 10.9423V13.6171C106.796 14.1507 106.864 14.575 107 14.8901V14.976H105.958ZM104.309 14.2187C104.621 14.2187 104.916 14.1381 105.195 13.977C105.475 13.8159 105.677 13.6064 105.802 13.3486V12.1562H105.024C103.806 12.1562 103.197 12.5125 103.197 13.225C103.197 13.5366 103.301 13.78 103.509 13.9555C103.717 14.131 103.983 14.2187 104.309 14.2187ZM108.445 14.976V9.16449H110.712C111.485 9.16449 112.078 9.30056 112.489 9.57269C112.905 9.84125 113.112 10.2369 113.112 10.7597C113.112 11.0283 113.032 11.2717 112.871 11.4902C112.71 11.705 112.472 11.8697 112.156 11.9843C112.507 12.0667 112.788 12.2278 113 12.4677C113.215 12.7076 113.322 12.9941 113.322 13.3271C113.322 13.8606 113.125 14.2688 112.731 14.5517C112.341 14.8346 111.788 14.976 111.071 14.976H108.445ZM109.439 12.4247V14.1757H111.082C111.498 14.1757 111.807 14.0987 112.011 13.9448C112.219 13.7908 112.323 13.5742 112.323 13.2949C112.323 12.7148 111.897 12.4247 111.045 12.4247H109.439ZM109.439 11.6298H110.722C111.653 11.6298 112.119 11.3577 112.119 10.8134C112.119 10.2691 111.678 9.98806 110.798 9.97015H109.439V11.6298ZM117.049 15.0834C116.262 15.0834 115.621 14.8256 115.127 14.31C114.633 13.7908 114.385 13.0979 114.385 12.2314V12.0488C114.385 11.4723 114.495 10.9584 114.713 10.5073C114.935 10.0525 115.243 9.69802 115.637 9.44379C116.034 9.18597 116.464 9.05707 116.926 9.05707C117.681 9.05707 118.269 9.30593 118.688 9.80365C119.107 10.3014 119.316 11.0139 119.316 11.9413V12.3549H115.379C115.393 12.9278 115.56 13.3915 115.879 13.746C116.201 14.0969 116.609 14.2724 117.103 14.2724C117.454 14.2724 117.751 14.2008 117.995 14.0576C118.238 13.9143 118.451 13.7245 118.634 13.4882L119.241 13.9609C118.754 14.7092 118.023 15.0834 117.049 15.0834ZM116.926 9.87347C116.525 9.87347 116.188 10.0203 115.916 10.3139C115.644 10.6039 115.476 11.0121 115.411 11.5385H118.322V11.4633C118.294 10.9584 118.158 10.5681 117.914 10.2924C117.671 10.0131 117.341 9.87347 116.926 9.87347ZM125.38 12.1347C125.38 13.0191 125.178 13.7317 124.773 14.2724C124.369 14.8131 123.821 15.0834 123.13 15.0834C122.424 15.0834 121.869 14.8596 121.465 14.412V17.2104H120.471V9.16449H121.379L121.427 9.80902C121.832 9.30772 122.394 9.05707 123.113 9.05707C123.812 9.05707 124.363 9.32025 124.768 9.84662C125.176 10.373 125.38 11.1052 125.38 12.0434V12.1347ZM124.386 12.0219C124.386 11.3666 124.247 10.8492 123.967 10.4697C123.688 10.0901 123.305 9.90033 122.818 9.90033C122.216 9.90033 121.765 10.1671 121.465 10.7006V13.4775C121.762 14.0074 122.216 14.2724 122.829 14.2724C123.305 14.2724 123.683 14.0844 123.962 13.7084C124.245 13.3289 124.386 12.7667 124.386 12.0219ZM127.733 9.16449V14.165H129.86V9.16449H130.853V14.165H132.975V9.16449H133.974V14.976H126.734V9.16449H127.733ZM137.954 15.0834C137.166 15.0834 136.525 14.8256 136.031 14.31C135.537 13.7908 135.29 13.0979 135.29 12.2314V12.0488C135.29 11.4723 135.399 10.9584 135.617 10.5073C135.839 10.0525 136.147 9.69802 136.541 9.44379C136.939 9.18597 137.368 9.05707 137.83 9.05707C138.586 9.05707 139.173 9.30593 139.592 9.80365C140.011 10.3014 140.22 11.0139 140.22 11.9413V12.3549H136.283C136.298 12.9278 136.464 13.3915 136.783 13.746C137.105 14.0969 137.513 14.2724 138.008 14.2724C138.358 14.2724 138.656 14.2008 138.899 14.0576C139.143 13.9143 139.356 13.7245 139.538 13.4882L140.145 13.9609C139.658 14.7092 138.928 15.0834 137.954 15.0834ZM137.83 9.87347C137.429 9.87347 137.093 10.0203 136.82 10.3139C136.548 10.6039 136.38 11.0121 136.316 11.5385H139.227V11.4633C139.198 10.9584 139.062 10.5681 138.819 10.2924C138.575 10.0131 138.246 9.87347 137.83 9.87347ZM146.123 14.976H145.13V12.4946H142.46V14.976H141.461V9.16449H142.46V11.6835H145.13V9.16449H146.123V14.976ZM147.461 12.0165C147.461 11.4472 147.572 10.9352 147.794 10.4804C148.019 10.0257 148.331 9.67474 148.728 9.42767C149.129 9.1806 149.586 9.05707 150.098 9.05707C150.889 9.05707 151.528 9.33099 152.015 9.87885C152.506 10.4267 152.751 11.1554 152.751 12.0649V12.1347C152.751 12.7005 152.642 13.2089 152.424 13.6601C152.209 14.1077 151.899 14.4568 151.494 14.7075C151.093 14.9581 150.631 15.0834 150.109 15.0834C149.321 15.0834 148.682 14.8095 148.191 14.2617C147.704 13.7138 147.461 12.9887 147.461 12.0864V12.0165ZM148.46 12.1347C148.46 12.7792 148.608 13.2967 148.905 13.687C149.206 14.0773 149.607 14.2724 150.109 14.2724C150.613 14.2724 151.015 14.0755 151.312 13.6816C151.609 13.2841 151.758 12.7291 151.758 12.0165C151.758 11.3792 151.605 10.8635 151.301 10.4697C151 10.0722 150.599 9.87347 150.098 9.87347C149.607 9.87347 149.212 10.0686 148.911 10.4589C148.61 10.8492 148.46 11.4078 148.46 12.1347Z" fill="#555555"/>
</svg>
