<svg width="171" height="23" viewBox="0 0 171 23" fill="none" xmlns="http://www.w3.org/2000/svg">
<rect x="1.08484" y="1.33643" width="168.583" height="21" rx="1.5" fill="#E9F3FA" stroke="#AFC9DC"/>
<path d="M29.2961 12.73C29.1994 13.5571 28.8932 14.1963 28.3776 14.6475C27.8656 15.0951 27.1835 15.3188 26.3312 15.3188C25.4074 15.3188 24.6662 14.9876 24.1076 14.3252C23.5526 13.6628 23.2751 12.7765 23.2751 11.6665V10.9146C23.2751 10.1877 23.404 9.5485 23.6618 8.99707C23.9232 8.44564 24.292 8.02311 24.7682 7.72949C25.2445 7.43229 25.7959 7.28369 26.4225 7.28369C27.2533 7.28369 27.9193 7.51644 28.4206 7.98193C28.9219 8.44385 29.2137 9.0848 29.2961 9.90479H28.2595C28.1699 9.28174 27.9748 8.83057 27.674 8.55127C27.3768 8.27197 26.9597 8.13232 26.4225 8.13232C25.7637 8.13232 25.2463 8.37581 24.8703 8.86279C24.4979 9.34977 24.3117 10.0426 24.3117 10.9414V11.6987C24.3117 12.5474 24.489 13.2223 24.8434 13.7236C25.1979 14.2249 25.6939 14.4756 26.3312 14.4756C26.9042 14.4756 27.3428 14.3467 27.6472 14.0889C27.9551 13.8275 28.1592 13.3745 28.2595 12.73H29.2961ZM30.2897 12.252C30.2897 11.6826 30.4007 11.1706 30.6227 10.7158C30.8483 10.2611 31.1599 9.91016 31.5573 9.66309C31.9584 9.41602 32.4149 9.29248 32.9269 9.29248C33.7183 9.29248 34.3574 9.56641 34.8444 10.1143C35.335 10.6621 35.5803 11.3908 35.5803 12.3003V12.3701C35.5803 12.9359 35.471 13.4443 35.2526 13.8955C35.0378 14.3431 34.728 14.6922 34.3234 14.9429C33.9224 15.1935 33.4605 15.3188 32.9377 15.3188C32.1499 15.3188 31.5108 15.0449 31.0202 14.4971C30.5332 13.9492 30.2897 13.2241 30.2897 12.3218V12.252ZM31.2888 12.3701C31.2888 13.0146 31.4374 13.5321 31.7346 13.9224C32.0353 14.3127 32.4364 14.5078 32.9377 14.5078C33.4426 14.5078 33.8436 14.3109 34.1408 13.917C34.438 13.5195 34.5866 12.9645 34.5866 12.252C34.5866 11.6146 34.4344 11.099 34.1301 10.7051C33.8293 10.3076 33.4282 10.1089 32.9269 10.1089C32.4364 10.1089 32.0407 10.304 31.7399 10.6943C31.4391 11.0846 31.2888 11.6432 31.2888 12.3701ZM40.5807 10.2217H37.9006V15.2114H36.9016V9.3999H40.5807V10.2217ZM45.9948 9.3999V15.2114H44.9958V10.2217H43.0192L42.9011 12.397C42.8366 13.396 42.6683 14.1104 42.3962 14.54C42.1276 14.9697 41.6997 15.1935 41.1125 15.2114H40.715V14.3359L40.9997 14.3145C41.322 14.2786 41.5529 14.0924 41.6926 13.7559C41.8322 13.4193 41.9217 12.7962 41.9611 11.8867L42.0685 9.3999H45.9948ZM51.1779 15.2114C51.1206 15.0968 51.0741 14.8927 51.0383 14.5991C50.5764 15.0789 50.0249 15.3188 49.384 15.3188C48.8111 15.3188 48.3402 15.1577 47.9714 14.8354C47.6061 14.5096 47.4235 14.0978 47.4235 13.6001C47.4235 12.995 47.6527 12.5259 48.111 12.1929C48.5729 11.8563 49.221 11.688 50.0554 11.688H51.0222V11.2314C51.0222 10.8841 50.9183 10.6084 50.7106 10.4043C50.503 10.1966 50.1968 10.0928 49.7922 10.0928C49.4377 10.0928 49.1405 10.1823 48.9006 10.3613C48.6607 10.5404 48.5407 10.757 48.5407 11.0112H47.5417C47.5417 10.7212 47.6437 10.4419 47.8478 10.1733C48.0555 9.9012 48.3348 9.68636 48.6857 9.52881C49.0402 9.37126 49.4287 9.29248 49.8513 9.29248C50.5209 9.29248 51.0454 9.46077 51.425 9.79736C51.8045 10.1304 52.0015 10.5905 52.0158 11.1777V13.8525C52.0158 14.3861 52.0838 14.8104 52.2199 15.1255V15.2114H51.1779ZM49.529 14.4541C49.8405 14.4541 50.1359 14.3735 50.4152 14.2124C50.6945 14.0513 50.8968 13.8418 51.0222 13.584V12.3916H50.2433C49.0259 12.3916 48.4172 12.7479 48.4172 13.4604C48.4172 13.772 48.521 14.0155 48.7287 14.1909C48.9364 14.3664 49.2031 14.4541 49.529 14.4541ZM55.9045 14.5078C56.259 14.5078 56.5687 14.4004 56.8337 14.1855C57.0987 13.9707 57.2455 13.7021 57.2741 13.3799H58.2141C58.1961 13.7129 58.0816 14.0298 57.8703 14.3306C57.659 14.6313 57.3762 14.8713 57.0217 15.0503C56.6708 15.2293 56.2984 15.3188 55.9045 15.3188C55.1131 15.3188 54.4829 15.0557 54.0139 14.5293C53.5484 13.9993 53.3156 13.276 53.3156 12.3594V12.1929C53.3156 11.6271 53.4195 11.124 53.6271 10.6836C53.8348 10.2432 54.132 9.9012 54.5187 9.65771C54.909 9.41423 55.3692 9.29248 55.8991 9.29248C56.5508 9.29248 57.0915 9.48763 57.5212 9.87793C57.9544 10.2682 58.1854 10.7749 58.2141 11.3979H57.2741C57.2455 11.022 57.1022 10.714 56.8444 10.4741C56.5902 10.2306 56.2751 10.1089 55.8991 10.1089C55.3942 10.1089 55.0021 10.2915 54.7228 10.6567C54.4471 11.0184 54.3093 11.543 54.3093 12.2305V12.4185C54.3093 13.0881 54.4471 13.6037 54.7228 13.9653C54.9986 14.327 55.3924 14.5078 55.9045 14.5078ZM59.0681 12.252C59.0681 11.6826 59.1791 11.1706 59.4011 10.7158C59.6266 10.2611 59.9382 9.91016 60.3356 9.66309C60.7367 9.41602 61.1932 9.29248 61.7053 9.29248C62.4966 9.29248 63.1358 9.56641 63.6227 10.1143C64.1133 10.6621 64.3586 11.3908 64.3586 12.3003V12.3701C64.3586 12.9359 64.2494 13.4443 64.0309 13.8955C63.8161 14.3431 63.5064 14.6922 63.1017 14.9429C62.7007 15.1935 62.2388 15.3188 61.716 15.3188C60.9282 15.3188 60.2891 15.0449 59.7985 14.4971C59.3115 13.9492 59.0681 13.2241 59.0681 12.3218V12.252ZM60.0671 12.3701C60.0671 13.0146 60.2157 13.5321 60.5129 13.9224C60.8137 14.3127 61.2147 14.5078 61.716 14.5078C62.2209 14.5078 62.6219 14.3109 62.9191 13.917C63.2163 13.5195 63.3649 12.9645 63.3649 12.252C63.3649 11.6146 63.2127 11.099 62.9084 10.7051C62.6076 10.3076 62.2066 10.1089 61.7053 10.1089C61.2147 10.1089 60.819 10.304 60.5182 10.6943C60.2175 11.0846 60.0671 11.6432 60.0671 12.3701ZM65.696 15.2114V9.3999H67.9626C68.736 9.3999 69.3286 9.53597 69.7404 9.80811C70.1558 10.0767 70.3635 10.4723 70.3635 10.9951C70.3635 11.2637 70.2829 11.5072 70.1218 11.7256C69.9606 11.9404 69.7225 12.1051 69.4074 12.2197C69.7583 12.3021 70.0394 12.4632 70.2507 12.7031C70.4655 12.943 70.5729 13.2295 70.5729 13.5625C70.5729 14.096 70.376 14.5042 69.9821 14.7871C69.5918 15.07 69.0386 15.2114 68.3224 15.2114H65.696ZM66.6896 12.6602V14.4111H68.3332C68.7486 14.4111 69.0583 14.3341 69.2624 14.1802C69.4701 14.0262 69.5739 13.8096 69.5739 13.5303C69.5739 12.9502 69.1478 12.6602 68.2956 12.6602H66.6896ZM66.6896 11.8652H67.9733C68.9043 11.8652 69.3698 11.5931 69.3698 11.0488C69.3698 10.5046 68.9294 10.2235 68.0485 10.2056H66.6896V11.8652ZM75.4767 15.2114C75.4195 15.0968 75.3729 14.8927 75.3371 14.5991C74.8752 15.0789 74.3238 15.3188 73.6828 15.3188C73.1099 15.3188 72.639 15.1577 72.2702 14.8354C71.905 14.5096 71.7224 14.0978 71.7224 13.6001C71.7224 12.995 71.9515 12.5259 72.4099 12.1929C72.8718 11.8563 73.5199 11.688 74.3542 11.688H75.321V11.2314C75.321 10.8841 75.2171 10.6084 75.0095 10.4043C74.8018 10.1966 74.4956 10.0928 74.091 10.0928C73.7365 10.0928 73.4393 10.1823 73.1994 10.3613C72.9595 10.5404 72.8395 10.757 72.8395 11.0112H71.8405C71.8405 10.7212 71.9426 10.4419 72.1467 10.1733C72.3543 9.9012 72.6336 9.68636 72.9846 9.52881C73.3391 9.37126 73.7276 9.29248 74.1501 9.29248C74.8197 9.29248 75.3443 9.46077 75.7238 9.79736C76.1034 10.1304 76.3003 10.5905 76.3146 11.1777V13.8525C76.3146 14.3861 76.3827 14.8104 76.5187 15.1255V15.2114H75.4767ZM73.8278 14.4541C74.1393 14.4541 74.4348 14.3735 74.7141 14.2124C74.9933 14.0513 75.1957 13.8418 75.321 13.584V12.3916H74.5422C73.3247 12.3916 72.716 12.7479 72.716 13.4604C72.716 13.772 72.8198 14.0155 73.0275 14.1909C73.2352 14.3664 73.502 14.4541 73.8278 14.4541ZM82.6203 15.2114H81.6266V12.73H78.9572V15.2114H77.9582V9.3999H78.9572V11.9189H81.6266V9.3999H82.6203V15.2114ZM87.9807 9.3999H88.9743V15.2114H87.9807V10.9736L85.3005 15.2114H84.3068V9.3999H85.3005V13.6431L87.9807 9.3999ZM92.9811 15.3188C92.1934 15.3188 91.5524 15.061 91.0583 14.5454C90.5641 14.0262 90.3171 13.3333 90.3171 12.4668V12.2842C90.3171 11.7077 90.4263 11.1938 90.6447 10.7427C90.8667 10.2879 91.1747 9.93343 91.5685 9.6792C91.966 9.42139 92.3957 9.29248 92.8576 9.29248C93.6131 9.29248 94.2004 9.54134 94.6193 10.0391C95.0383 10.5368 95.2477 11.2493 95.2477 12.1768V12.5903H91.3107C91.3251 13.1632 91.4916 13.627 91.8102 13.9814C92.1325 14.3324 92.5407 14.5078 93.0349 14.5078C93.3858 14.5078 93.683 14.4362 93.9265 14.293C94.1699 14.1497 94.383 13.96 94.5656 13.7236L95.1725 14.1963C94.6856 14.9447 93.9551 15.3188 92.9811 15.3188ZM92.8576 10.1089C92.4566 10.1089 92.12 10.2557 91.8478 10.5493C91.5757 10.8394 91.4074 11.2476 91.343 11.7739H94.2541V11.6987C94.2254 11.1938 94.0894 10.8035 93.8459 10.5278C93.6024 10.2485 93.273 10.1089 92.8576 10.1089ZM103.884 15.2114H102.891V10.2217H100.216V15.2114H99.217V9.3999H103.884V15.2114ZM105.216 12.252C105.216 11.6826 105.327 11.1706 105.549 10.7158C105.775 10.2611 106.087 9.91016 106.484 9.66309C106.885 9.41602 107.342 9.29248 107.854 9.29248C108.645 9.29248 109.284 9.56641 109.771 10.1143C110.262 10.6621 110.507 11.3908 110.507 12.3003V12.3701C110.507 12.9359 110.398 13.4443 110.179 13.8955C109.965 14.3431 109.655 14.6922 109.25 14.9429C108.849 15.1935 108.387 15.3188 107.864 15.3188C107.077 15.3188 106.438 15.0449 105.947 14.4971C105.46 13.9492 105.216 13.2241 105.216 12.3218V12.252ZM106.216 12.3701C106.216 13.0146 106.364 13.5321 106.661 13.9224C106.962 14.3127 107.363 14.5078 107.864 14.5078C108.369 14.5078 108.77 14.3109 109.068 13.917C109.365 13.5195 109.513 12.9645 109.513 12.252C109.513 11.6146 109.361 11.099 109.057 10.7051C108.756 10.3076 108.355 10.1089 107.854 10.1089C107.363 10.1089 106.967 10.304 106.667 10.6943C106.366 11.0846 106.216 11.6432 106.216 12.3701ZM111.844 15.2114V9.3999H114.111C114.884 9.3999 115.477 9.53597 115.889 9.80811C116.304 10.0767 116.512 10.4723 116.512 10.9951C116.512 11.2637 116.431 11.5072 116.27 11.7256C116.109 11.9404 115.871 12.1051 115.556 12.2197C115.907 12.3021 116.188 12.4632 116.399 12.7031C116.614 12.943 116.721 13.2295 116.721 13.5625C116.721 14.096 116.524 14.5042 116.131 14.7871C115.74 15.07 115.187 15.2114 114.471 15.2114H111.844ZM112.838 12.6602V14.4111H114.482C114.897 14.4111 115.207 14.3341 115.411 14.1802C115.619 14.0262 115.722 13.8096 115.722 13.5303C115.722 12.9502 115.296 12.6602 114.444 12.6602H112.838ZM112.838 11.8652H114.122C115.053 11.8652 115.518 11.5931 115.518 11.0488C115.518 10.5046 115.078 10.2235 114.197 10.2056H112.838V11.8652ZM120.449 15.3188C119.661 15.3188 119.02 15.061 118.526 14.5454C118.032 14.0262 117.785 13.3333 117.785 12.4668V12.2842C117.785 11.7077 117.894 11.1938 118.112 10.7427C118.334 10.2879 118.642 9.93343 119.036 9.6792C119.434 9.42139 119.863 9.29248 120.325 9.29248C121.081 9.29248 121.668 9.54134 122.087 10.0391C122.506 10.5368 122.716 11.2493 122.716 12.1768V12.5903H118.779C118.793 13.1632 118.959 13.627 119.278 13.9814C119.6 14.3324 120.008 14.5078 120.503 14.5078C120.854 14.5078 121.151 14.4362 121.394 14.293C121.638 14.1497 121.851 13.96 122.033 13.7236L122.64 14.1963C122.153 14.9447 121.423 15.3188 120.449 15.3188ZM120.325 10.1089C119.924 10.1089 119.588 10.2557 119.316 10.5493C119.043 10.8394 118.875 11.2476 118.811 11.7739H121.722V11.6987C121.693 11.1938 121.557 10.8035 121.314 10.5278C121.07 10.2485 120.741 10.1089 120.325 10.1089ZM126.201 14.5078C126.556 14.5078 126.866 14.4004 127.131 14.1855C127.396 13.9707 127.542 13.7021 127.571 13.3799H128.511C128.493 13.7129 128.378 14.0298 128.167 14.3306C127.956 14.6313 127.673 14.8713 127.319 15.0503C126.968 15.2293 126.595 15.3188 126.201 15.3188C125.41 15.3188 124.78 15.0557 124.311 14.5293C123.845 13.9993 123.612 13.276 123.612 12.3594V12.1929C123.612 11.6271 123.716 11.124 123.924 10.6836C124.132 10.2432 124.429 9.9012 124.816 9.65771C125.206 9.41423 125.666 9.29248 126.196 9.29248C126.848 9.29248 127.388 9.48763 127.818 9.87793C128.251 10.2682 128.482 10.7749 128.511 11.3979H127.571C127.542 11.022 127.399 10.714 127.141 10.4741C126.887 10.2306 126.572 10.1089 126.196 10.1089C125.691 10.1089 125.299 10.2915 125.02 10.6567C124.744 11.0184 124.606 11.543 124.606 12.2305V12.4185C124.606 13.0881 124.744 13.6037 125.02 13.9653C125.295 14.327 125.689 14.5078 126.201 14.5078ZM133.946 10.2056H131.997V15.2114H131.003V10.2056H129.091V9.3999H133.946V10.2056ZM136.723 12.7354H135.998V15.2114H134.999V9.3999H135.998V11.8599H136.648L138.603 9.3999H139.806L137.508 12.1929L140 15.2114H138.737L136.723 12.7354ZM144.613 9.3999H145.607V15.2114H144.613V10.9736L141.933 15.2114H140.94V9.3999H141.933V13.6431L144.613 9.3999Z" fill="#555555"/>
</svg>
