<svg width="171" height="23" viewBox="0 0 171 23" fill="none" xmlns="http://www.w3.org/2000/svg">
<rect x="0.918091" y="0.826416" width="168.583" height="21" rx="1.5" fill="#F8F8F8" stroke="#DADADA"/>
<path d="M36.4453 12.22C36.3486 13.0471 36.0424 13.6863 35.5268 14.1375C35.0148 14.585 34.3326 14.8088 33.4804 14.8088C32.5566 14.8088 31.8154 14.4776 31.2568 13.8152C30.7018 13.1528 30.4243 12.2665 30.4243 11.1565V10.4045C30.4243 9.67765 30.5532 9.03849 30.811 8.48706C31.0724 7.93563 31.4412 7.5131 31.9174 7.21948C32.3937 6.92228 32.9451 6.77368 33.5717 6.77368C34.4024 6.77368 35.0685 7.00643 35.5698 7.47192C36.0711 7.93384 36.3629 8.57479 36.4453 9.39478H35.4086C35.3191 8.77173 35.124 8.32056 34.8232 8.04126C34.526 7.76196 34.1088 7.62231 33.5717 7.62231C32.9129 7.62231 32.3954 7.8658 32.0195 8.35278C31.6471 8.83976 31.4609 9.53263 31.4609 10.4314V11.1887C31.4609 12.0374 31.6381 12.7123 31.9926 13.2136C32.3471 13.7149 32.843 13.9656 33.4804 13.9656C34.0533 13.9656 34.492 13.8367 34.7963 13.5789C35.1043 13.3175 35.3084 12.8645 35.4086 12.22H36.4453ZM37.4389 11.7419C37.4389 11.1726 37.5499 10.6606 37.7719 10.2058C37.9975 9.75106 38.309 9.40015 38.7065 9.15308C39.1075 8.90601 39.5641 8.78247 40.0761 8.78247C40.8675 8.78247 41.5066 9.0564 41.9936 9.60425C42.4842 10.1521 42.7294 10.8808 42.7294 11.7903V11.8601C42.7294 12.4259 42.6202 12.9343 42.4018 13.3855C42.187 13.8331 41.8772 14.1822 41.4726 14.4329C41.0716 14.6835 40.6096 14.8088 40.0869 14.8088C39.2991 14.8088 38.6599 14.5349 38.1694 13.9871C37.6824 13.4392 37.4389 12.7141 37.4389 11.8118V11.7419ZM38.4379 11.8601C38.4379 12.5046 38.5865 13.0221 38.8837 13.4124C39.1845 13.8027 39.5856 13.9978 40.0869 13.9978C40.5917 13.9978 40.9928 13.8009 41.29 13.407C41.5872 13.0095 41.7358 12.4545 41.7358 11.7419C41.7358 11.1046 41.5836 10.5889 41.2792 10.1951C40.9785 9.79761 40.5774 9.59888 40.0761 9.59888C39.5856 9.59888 39.1899 9.79403 38.8891 10.1843C38.5883 10.5746 38.4379 11.1332 38.4379 11.8601ZM45.8071 11.0115L47.0961 8.88989H48.2563L46.3549 11.7634L48.3154 14.7014H47.166L45.8232 12.5261L44.4804 14.7014H43.3256L45.2861 11.7634L43.3847 8.88989H44.5341L45.8071 11.0115ZM54.2236 11.8601C54.2236 12.7445 54.0213 13.4571 53.6166 13.9978C53.212 14.5385 52.6642 14.8088 51.9731 14.8088C51.2677 14.8088 50.7127 14.585 50.308 14.1375V16.9358H49.3144V8.88989H50.2221L50.2704 9.53442C50.6751 9.03312 51.2372 8.78247 51.957 8.78247C52.6552 8.78247 53.2066 9.04565 53.6113 9.57202C54.0195 10.0984 54.2236 10.8306 54.2236 11.7688V11.8601ZM53.2299 11.7473C53.2299 11.092 53.0903 10.5746 52.811 10.1951C52.5317 9.81551 52.1485 9.62573 51.6616 9.62573C51.06 9.62573 50.6088 9.8925 50.308 10.426V13.2029C50.6052 13.7328 51.06 13.9978 51.6723 13.9978C52.1485 13.9978 52.5263 13.8098 52.8056 13.4338C53.0885 13.0543 53.2299 12.4921 53.2299 11.7473ZM59.079 14.7014C59.0217 14.5868 58.9752 14.3827 58.9394 14.0891C58.4775 14.5689 57.926 14.8088 57.2851 14.8088C56.7122 14.8088 56.2413 14.6477 55.8725 14.3254C55.5073 13.9996 55.3246 13.5878 55.3246 13.0901C55.3246 12.4849 55.5538 12.0159 56.0121 11.6829C56.4741 11.3463 57.1222 11.178 57.9565 11.178H58.9233V10.7214C58.9233 10.3741 58.8194 10.0984 58.6118 9.89429C58.4041 9.6866 58.0979 9.58276 57.6933 9.58276C57.3388 9.58276 57.0416 9.67228 56.8017 9.85132C56.5618 10.0304 56.4418 10.247 56.4418 10.5012H55.4428C55.4428 10.2112 55.5449 9.93188 55.749 9.66333C55.9566 9.39119 56.2359 9.17635 56.5869 9.0188C56.9413 8.86125 57.3299 8.78247 57.7524 8.78247C58.422 8.78247 58.9466 8.95076 59.3261 9.28735C59.7057 9.62036 59.9026 10.0805 59.9169 10.6677V13.3425C59.9169 13.8761 59.985 14.3004 60.121 14.6155V14.7014H59.079ZM57.4301 13.9441C57.7416 13.9441 58.037 13.8635 58.3163 13.7024C58.5956 13.5413 58.798 13.3318 58.9233 13.074V11.8816H58.1445C56.927 11.8816 56.3183 12.2379 56.3183 12.9504C56.3183 13.262 56.4221 13.5055 56.6298 13.6809C56.8375 13.8564 57.1043 13.9441 57.4301 13.9441ZM66.2226 14.7014H65.2289V12.22H62.5595V14.7014H61.5605V8.88989H62.5595V11.4089H65.2289V8.88989H66.2226V14.7014ZM71.5829 8.88989H72.5766V14.7014H71.5829V10.4636L68.9028 14.7014H67.9091V8.88989H68.9028V13.1331L71.5829 8.88989ZM78.4902 9.69556H76.5405V14.7014H75.5468V9.69556H73.6347V8.88989H78.4902V9.69556ZM80.5419 10.8933H82.0512C82.7101 10.9005 83.2311 11.0723 83.6142 11.4089C83.9973 11.7455 84.1889 12.2021 84.1889 12.7786C84.1889 13.3586 83.992 13.8241 83.5981 14.175C83.2042 14.526 82.6743 14.7014 82.0082 14.7014H79.5483V8.88989H80.5419V10.8933ZM80.5419 11.7043V13.8904H82.019C82.3914 13.8904 82.6796 13.7955 82.8837 13.6057C83.0878 13.4124 83.1899 13.1492 83.1899 12.8162C83.1899 12.4939 83.0896 12.2307 82.8891 12.0266C82.6922 11.8189 82.4147 11.7115 82.0566 11.7043H80.5419ZM91.9179 8.88989H92.9116V14.7014H91.9179V10.4636L89.2377 14.7014H88.2441V8.88989H89.2377V13.1331L91.9179 8.88989ZM100.431 10.4797C100.431 10.2076 100.327 9.99276 100.12 9.83521C99.9119 9.67407 99.6272 9.59351 99.2656 9.59351C98.9147 9.59351 98.621 9.68481 98.3847 9.86743C98.152 10.05 98.0356 10.2649 98.0356 10.512H97.0473C97.0473 10.0071 97.2586 9.59351 97.6811 9.27124C98.1036 8.94897 98.6318 8.78784 99.2656 8.78784C99.9459 8.78784 100.476 8.93465 100.855 9.22827C101.235 9.51831 101.425 9.93368 101.425 10.4744C101.425 10.7358 101.346 10.9757 101.188 11.1941C101.031 11.4125 100.807 11.5862 100.517 11.7151C101.194 11.9443 101.532 12.3954 101.532 13.0686C101.532 13.6021 101.326 14.0247 100.914 14.3362C100.503 14.6477 99.9531 14.8035 99.2656 14.8035C98.596 14.8035 98.0427 14.6405 97.6059 14.3147C97.1726 13.9853 96.956 13.5413 96.956 12.9827H97.9443C97.9443 13.2655 98.0696 13.509 98.3203 13.7131C98.5745 13.9137 98.8896 14.0139 99.2656 14.0139C99.6451 14.0139 99.9513 13.9262 100.184 13.7507C100.417 13.5753 100.533 13.3479 100.533 13.0686C100.533 12.7428 100.435 12.51 100.238 12.3704C100.044 12.2271 99.7418 12.1555 99.33 12.1555H98.3364V11.3176H99.416C100.093 11.2997 100.431 11.0204 100.431 10.4797ZM106.409 14.7014C106.352 14.5868 106.305 14.3827 106.269 14.0891C105.808 14.5689 105.256 14.8088 104.615 14.8088C104.042 14.8088 103.571 14.6477 103.203 14.3254C102.837 13.9996 102.655 13.5878 102.655 13.0901C102.655 12.4849 102.884 12.0159 103.342 11.6829C103.804 11.3463 104.452 11.178 105.287 11.178H106.253V10.7214C106.253 10.3741 106.15 10.0984 105.942 9.89429C105.734 9.6866 105.428 9.58276 105.023 9.58276C104.669 9.58276 104.372 9.67228 104.132 9.85132C103.892 10.0304 103.772 10.247 103.772 10.5012H102.773C102.773 10.2112 102.875 9.93188 103.079 9.66333C103.287 9.39119 103.566 9.17635 103.917 9.0188C104.271 8.86125 104.66 8.78247 105.082 8.78247C105.752 8.78247 106.277 8.95076 106.656 9.28735C107.036 9.62036 107.233 10.0805 107.247 10.6677V13.3425C107.247 13.8761 107.315 14.3004 107.451 14.6155V14.7014H106.409ZM104.76 13.9441C105.072 13.9441 105.367 13.8635 105.646 13.7024C105.926 13.5413 106.128 13.3318 106.253 13.074V11.8816H105.475C104.257 11.8816 103.648 12.2379 103.648 12.9504C103.648 13.262 103.752 13.5055 103.96 13.6809C104.168 13.8564 104.434 13.9441 104.76 13.9441ZM110.615 12.2253H109.89V14.7014H108.891V8.88989H109.89V11.3499H110.539L112.495 8.88989H113.698L111.399 11.6829L113.891 14.7014H112.629L110.615 12.2253ZM119.654 11.8601C119.654 12.7445 119.452 13.4571 119.047 13.9978C118.643 14.5385 118.095 14.8088 117.404 14.8088C116.698 14.8088 116.143 14.585 115.739 14.1375V16.9358H114.745V8.88989H115.653L115.701 9.53442C116.106 9.03312 116.668 8.78247 117.388 8.78247C118.086 8.78247 118.637 9.04565 119.042 9.57202C119.45 10.0984 119.654 10.8306 119.654 11.7688V11.8601ZM118.661 11.7473C118.661 11.092 118.521 10.5746 118.242 10.1951C117.962 9.81551 117.579 9.62573 117.092 9.62573C116.491 9.62573 116.039 9.8925 115.739 10.426V13.2029C116.036 13.7328 116.491 13.9978 117.103 13.9978C117.579 13.9978 117.957 13.8098 118.236 13.4338C118.519 13.0543 118.661 12.4921 118.661 11.7473ZM122.007 10.8933H123.516C124.175 10.9005 124.696 11.0723 125.079 11.4089C125.462 11.7455 125.654 12.2021 125.654 12.7786C125.654 13.3586 125.457 13.8241 125.063 14.175C124.669 14.526 124.139 14.7014 123.473 14.7014H121.013V8.88989H122.007V10.8933ZM127.727 14.7014H126.728V8.88989H127.727V14.7014ZM122.007 11.7043V13.8904H123.484C123.856 13.8904 124.144 13.7955 124.349 13.6057C124.553 13.4124 124.655 13.1492 124.655 12.8162C124.655 12.4939 124.554 12.2307 124.354 12.0266C124.157 11.8189 123.879 11.7115 123.521 11.7043H122.007ZM133.78 9.69556H131.831V14.7014H130.837V9.69556H128.925V8.88989H133.78V9.69556ZM135.832 10.8933H137.341C138 10.9005 138.521 11.0723 138.904 11.4089C139.287 11.7455 139.479 12.2021 139.479 12.7786C139.479 13.3586 139.282 13.8241 138.888 14.175C138.494 14.526 137.964 14.7014 137.298 14.7014H134.838V8.88989H135.832V10.8933ZM135.832 11.7043V13.8904H137.309C137.681 13.8904 137.97 13.7955 138.174 13.6057C138.378 13.4124 138.48 13.1492 138.48 12.8162C138.48 12.4939 138.38 12.2307 138.179 12.0266C137.982 11.8189 137.705 11.7115 137.347 11.7043H135.832Z" fill="#555555"/>
</svg>
