<svg width="170" height="23" viewBox="0 0 170 23" fill="none" xmlns="http://www.w3.org/2000/svg">
<rect x="0.532166" y="1.33643" width="168.583" height="21" rx="1.5" fill="#E9F3FA" stroke="#AFC9DC"/>
<path d="M53.0422 12.1499V15.2114H52.011V7.39111H54.8953C55.7511 7.39111 56.4207 7.60954 56.9041 8.04639C57.391 8.48324 57.6345 9.06152 57.6345 9.78125C57.6345 10.5404 57.3964 11.1258 56.9202 11.5376C56.4475 11.9458 55.769 12.1499 54.8845 12.1499H53.0422ZM53.0422 11.3066H54.8953C55.4467 11.3066 55.8692 11.1777 56.1628 10.9199C56.4565 10.6585 56.6033 10.2826 56.6033 9.79199C56.6033 9.3265 56.4565 8.9541 56.1628 8.6748C55.8692 8.39551 55.4664 8.25049 54.9543 8.23975H53.0422V11.3066ZM61.1311 15.3188C60.3433 15.3188 59.7024 15.061 59.2083 14.5454C58.7141 14.0262 58.467 13.3333 58.467 12.4668V12.2842C58.467 11.7077 58.5763 11.1938 58.7947 10.7427C59.0167 10.2879 59.3246 9.93343 59.7185 9.6792C60.116 9.42139 60.5457 9.29248 61.0076 9.29248C61.7631 9.29248 62.3503 9.54134 62.7693 10.0391C63.1882 10.5368 63.3977 11.2493 63.3977 12.1768V12.5903H59.4607C59.475 13.1632 59.6415 13.627 59.9602 13.9814C60.2825 14.3324 60.6907 14.5078 61.1848 14.5078C61.5357 14.5078 61.8329 14.4362 62.0764 14.293C62.3199 14.1497 62.533 13.96 62.7156 13.7236L63.3225 14.1963C62.8355 14.9447 62.1051 15.3188 61.1311 15.3188ZM61.0076 10.1089C60.6065 10.1089 60.2699 10.2557 59.9978 10.5493C59.7257 10.8394 59.5574 11.2476 59.4929 11.7739H62.4041V11.6987C62.3754 11.1938 62.2393 10.8035 61.9958 10.5278C61.7524 10.2485 61.4229 10.1089 61.0076 10.1089ZM68.3069 10.2217H65.6267V15.2114H64.6277V9.3999H68.3069V10.2217ZM72.9314 9.3999H73.925V15.2114H72.9314V10.9736L70.2512 15.2114H69.2576V9.3999H70.2512V13.6431L72.9314 9.3999ZM77.8513 14.5078C78.2058 14.5078 78.5155 14.4004 78.7805 14.1855C79.0455 13.9707 79.1923 13.7021 79.2209 13.3799H80.1609C80.143 13.7129 80.0284 14.0298 79.8171 14.3306C79.6059 14.6313 79.323 14.8713 78.9685 15.0503C78.6176 15.2293 78.2452 15.3188 77.8513 15.3188C77.06 15.3188 76.4298 15.0557 75.9607 14.5293C75.4952 13.9993 75.2625 13.276 75.2625 12.3594V12.1929C75.2625 11.6271 75.3663 11.124 75.574 10.6836C75.7817 10.2432 76.0789 9.9012 76.4656 9.65771C76.8559 9.41423 77.316 9.29248 77.8459 9.29248C78.4976 9.29248 79.0383 9.48763 79.468 9.87793C79.9013 10.2682 80.1322 10.7749 80.1609 11.3979H79.2209C79.1923 11.022 79.0491 10.714 78.7913 10.4741C78.537 10.2306 78.2219 10.1089 77.8459 10.1089C77.3411 10.1089 76.949 10.2915 76.6697 10.6567C76.394 11.0184 76.2561 11.543 76.2561 12.2305V12.4185C76.2561 13.0881 76.394 13.6037 76.6697 13.9653C76.9454 14.327 77.3393 14.5078 77.8513 14.5078ZM85.5964 10.2056H83.6467V15.2114H82.6531V10.2056H80.741V9.3999H85.5964V10.2056ZM91.4724 12.3701C91.4724 13.2546 91.2701 13.9671 90.8655 14.5078C90.4609 15.0485 89.913 15.3188 89.2219 15.3188C88.5165 15.3188 87.9615 15.0951 87.5569 14.6475V17.4458H86.5632V9.3999H87.4709L87.5193 10.0444C87.9239 9.54313 88.4861 9.29248 89.2058 9.29248C89.9041 9.29248 90.4555 9.55566 90.8601 10.082C91.2683 10.6084 91.4724 11.3407 91.4724 12.2788V12.3701ZM90.4788 12.2573C90.4788 11.6021 90.3391 11.0846 90.0598 10.7051C89.7805 10.3255 89.3974 10.1357 88.9104 10.1357C88.3088 10.1357 87.8577 10.4025 87.5569 10.936V13.7129C87.8541 14.2428 88.3088 14.5078 88.9211 14.5078C89.3974 14.5078 89.7751 14.3198 90.0544 13.9438C90.3373 13.5643 90.4788 13.0021 90.4788 12.2573ZM96.3279 15.2114C96.2706 15.0968 96.224 14.8927 96.1882 14.5991C95.7263 15.0789 95.1749 15.3188 94.5339 15.3188C93.961 15.3188 93.4902 15.1577 93.1213 14.8354C92.7561 14.5096 92.5735 14.0978 92.5735 13.6001C92.5735 12.995 92.8027 12.5259 93.261 12.1929C93.7229 11.8563 94.371 11.688 95.2053 11.688H96.1721V11.2314C96.1721 10.8841 96.0683 10.6084 95.8606 10.4043C95.6529 10.1966 95.3468 10.0928 94.9421 10.0928C94.5876 10.0928 94.2904 10.1823 94.0505 10.3613C93.8106 10.5404 93.6907 10.757 93.6907 11.0112H92.6917C92.6917 10.7212 92.7937 10.4419 92.9978 10.1733C93.2055 9.9012 93.4848 9.68636 93.8357 9.52881C94.1902 9.37126 94.5787 9.29248 95.0012 9.29248C95.6708 9.29248 96.1954 9.46077 96.575 9.79736C96.9545 10.1304 97.1514 10.5905 97.1658 11.1777V13.8525C97.1658 14.3861 97.2338 14.8104 97.3699 15.1255V15.2114H96.3279ZM94.679 14.4541C94.9905 14.4541 95.2859 14.3735 95.5652 14.2124C95.8445 14.0513 96.0468 13.8418 96.1721 13.584V12.3916H95.3933C94.1759 12.3916 93.5671 12.7479 93.5671 13.4604C93.5671 13.772 93.671 14.0155 93.8787 14.1909C94.0863 14.3664 94.3531 14.4541 94.679 14.4541ZM98.8093 9.3999H99.8083V14.4004H102.483V9.3999H103.477V14.4004H104.17L104.073 16.9355H103.181V15.2114H98.8093V9.3999ZM109.004 9.3999H109.997V15.2114H109.004V10.9736L106.323 15.2114H105.33V9.3999H106.323V13.6431L109.004 9.3999ZM116.034 9.3999V15.2114H115.035V12.9502H113.537L112.167 15.2114H111.093L112.554 12.7998C112.182 12.6637 111.895 12.4543 111.695 12.1714C111.498 11.8849 111.399 11.5519 111.399 11.1724C111.399 10.6424 111.598 10.2163 111.995 9.89404C112.393 9.5682 112.925 9.40348 113.591 9.3999H116.034ZM112.398 11.1831C112.398 11.466 112.495 11.6951 112.688 11.8706C112.882 12.0425 113.138 12.1302 113.456 12.1338H115.035V10.2056H113.607C113.238 10.2056 112.944 10.2969 112.726 10.4795C112.507 10.6585 112.398 10.8931 112.398 11.1831Z" fill="#555555"/>
</svg>
