<svg width="170" height="23" viewBox="0 0 170 23" fill="none" xmlns="http://www.w3.org/2000/svg">
<rect x="0.501465" y="0.826416" width="168.583" height="21" rx="1.5" fill="#F8F8F8" stroke="#DADADA"/>
<path d="M51.1268 14.7014H50.0901V7.72974H46.2337V14.7014H45.2025V6.8811H51.1268V14.7014ZM55.2625 14.8088C54.4748 14.8088 53.8338 14.551 53.3397 14.0354C52.8455 13.5162 52.5984 12.8233 52.5984 11.9568V11.7742C52.5984 11.1977 52.7077 10.6838 52.9261 10.2327C53.1481 9.77791 53.456 9.42342 53.8499 9.16919C54.2474 8.91138 54.6771 8.78247 55.139 8.78247C55.8945 8.78247 56.4818 9.03133 56.9007 9.52905C57.3196 10.0268 57.5291 10.7393 57.5291 11.6667V12.0803H53.5921C53.6064 12.6532 53.7729 13.1169 54.0916 13.4714C54.4139 13.8223 54.8221 13.9978 55.3162 13.9978C55.6671 13.9978 55.9643 13.9262 56.2078 13.783C56.4513 13.6397 56.6644 13.45 56.847 13.2136L57.4539 13.6863C56.9669 14.4347 56.2365 14.8088 55.2625 14.8088ZM55.139 9.59888C54.7379 9.59888 54.4013 9.74569 54.1292 10.0393C53.8571 10.3293 53.6888 10.7375 53.6243 11.2639H56.5355V11.1887C56.5068 10.6838 56.3707 10.2935 56.1273 10.0178C55.8838 9.73853 55.5543 9.59888 55.139 9.59888ZM63.5931 11.8601C63.5931 12.7445 63.3908 13.4571 62.9861 13.9978C62.5815 14.5385 62.0337 14.8088 61.3426 14.8088C60.6372 14.8088 60.0822 14.585 59.6776 14.1375V16.9358H58.6839V8.88989H59.5916L59.64 9.53442C60.0446 9.03312 60.6068 8.78247 61.3265 8.78247C62.0247 8.78247 62.5762 9.04565 62.9808 9.57202C63.389 10.0984 63.5931 10.8306 63.5931 11.7688V11.8601ZM62.5994 11.7473C62.5994 11.092 62.4598 10.5746 62.1805 10.1951C61.9012 9.81551 61.518 9.62573 61.0311 9.62573C60.4295 9.62573 59.9783 9.8925 59.6776 10.426V13.2029C59.9748 13.7328 60.4295 13.9978 61.0418 13.9978C61.518 13.9978 61.8958 13.8098 62.1751 13.4338C62.458 13.0543 62.5994 12.4921 62.5994 11.7473ZM67.2723 14.8088C66.4845 14.8088 65.8436 14.551 65.3494 14.0354C64.8553 13.5162 64.6082 12.8233 64.6082 11.9568V11.7742C64.6082 11.1977 64.7174 10.6838 64.9359 10.2327C65.1579 9.77791 65.4658 9.42342 65.8597 9.16919C66.2571 8.91138 66.6868 8.78247 67.1487 8.78247C67.9043 8.78247 68.4915 9.03133 68.9105 9.52905C69.3294 10.0268 69.5389 10.7393 69.5389 11.6667V12.0803H65.6019C65.6162 12.6532 65.7827 13.1169 66.1014 13.4714C66.4236 13.8223 66.8318 13.9978 67.326 13.9978C67.6769 13.9978 67.9741 13.9262 68.2176 13.783C68.4611 13.6397 68.6741 13.45 68.8568 13.2136L69.4637 13.6863C68.9767 14.4347 68.2462 14.8088 67.2723 14.8088ZM67.1487 9.59888C66.7477 9.59888 66.4111 9.74569 66.139 10.0393C65.8668 10.3293 65.6985 10.7375 65.6341 11.2639H68.5452V11.1887C68.5166 10.6838 68.3805 10.2935 68.137 10.0178C67.8935 9.73853 67.5641 9.59888 67.1487 9.59888ZM75.4417 14.7014H74.4481V12.22H71.7786V14.7014H70.7796V8.88989H71.7786V11.4089H74.4481V8.88989H75.4417V14.7014ZM80.6302 14.7014C80.5729 14.5868 80.5263 14.3827 80.4905 14.0891C80.0286 14.5689 79.4772 14.8088 78.8362 14.8088C78.2633 14.8088 77.7925 14.6477 77.4236 14.3254C77.0584 13.9996 76.8758 13.5878 76.8758 13.0901C76.8758 12.4849 77.105 12.0159 77.5633 11.6829C78.0252 11.3463 78.6733 11.178 79.5076 11.178H80.4744V10.7214C80.4744 10.3741 80.3706 10.0984 80.1629 9.89429C79.9552 9.6866 79.6491 9.58276 79.2444 9.58276C78.89 9.58276 78.5928 9.67228 78.3528 9.85132C78.1129 10.0304 77.993 10.247 77.993 10.5012H76.994C76.994 10.2112 77.096 9.93188 77.3001 9.66333C77.5078 9.39119 77.7871 9.17635 78.138 9.0188C78.4925 8.86125 78.881 8.78247 79.3035 8.78247C79.9731 8.78247 80.4977 8.95076 80.8773 9.28735C81.2568 9.62036 81.4538 10.0805 81.4681 10.6677V13.3425C81.4681 13.8761 81.5361 14.3004 81.6722 14.6155V14.7014H80.6302ZM78.9813 13.9441C79.2928 13.9441 79.5882 13.8635 79.8675 13.7024C80.1468 13.5413 80.3491 13.3318 80.4744 13.074V11.8816H79.6956C78.4782 11.8816 77.8694 12.2379 77.8694 12.9504C77.8694 13.262 77.9733 13.5055 78.181 13.6809C78.3887 13.8564 78.6554 13.9441 78.9813 13.9441ZM87.7791 14.7014H86.7855V9.71167H84.1107V14.7014H83.1116V8.88989H87.7791V14.7014ZM94.2835 11.8601C94.2835 12.7445 94.0812 13.4571 93.6766 13.9978C93.272 14.5385 92.7241 14.8088 92.033 14.8088C91.3276 14.8088 90.7726 14.585 90.368 14.1375V16.9358H89.3743V8.88989H90.282L90.3304 9.53442C90.735 9.03312 91.2972 8.78247 92.0169 8.78247C92.7151 8.78247 93.2666 9.04565 93.6712 9.57202C94.0794 10.0984 94.2835 10.8306 94.2835 11.7688V11.8601ZM93.2899 11.7473C93.2899 11.092 93.1502 10.5746 92.8709 10.1951C92.5916 9.81551 92.2085 9.62573 91.7215 9.62573C91.1199 9.62573 90.6688 9.8925 90.368 10.426V13.2029C90.6652 13.7328 91.1199 13.9978 91.7322 13.9978C92.2085 13.9978 92.5862 13.8098 92.8655 13.4338C93.1484 13.0543 93.2899 12.4921 93.2899 11.7473ZM99.139 14.7014C99.0817 14.5868 99.0351 14.3827 98.9993 14.0891C98.5374 14.5689 97.986 14.8088 97.345 14.8088C96.7721 14.8088 96.3012 14.6477 95.9324 14.3254C95.5672 13.9996 95.3846 13.5878 95.3846 13.0901C95.3846 12.4849 95.6137 12.0159 96.0721 11.6829C96.534 11.3463 97.1821 11.178 98.0164 11.178H98.9832V10.7214C98.9832 10.3741 98.8794 10.0984 98.6717 9.89429C98.464 9.6866 98.1579 9.58276 97.7532 9.58276C97.3987 9.58276 97.1015 9.67228 96.8616 9.85132C96.6217 10.0304 96.5018 10.247 96.5018 10.5012H95.5027C95.5027 10.2112 95.6048 9.93188 95.8089 9.66333C96.0166 9.39119 96.2959 9.17635 96.6468 9.0188C97.0013 8.86125 97.3898 8.78247 97.8123 8.78247C98.4819 8.78247 99.0065 8.95076 99.386 9.28735C99.7656 9.62036 99.9625 10.0805 99.9769 10.6677V13.3425C99.9769 13.8761 100.045 14.3004 100.181 14.6155V14.7014H99.139ZM97.4901 13.9441C97.8016 13.9441 98.097 13.8635 98.3763 13.7024C98.6556 13.5413 98.8579 13.3318 98.9832 13.074V11.8816H98.2044C96.987 11.8816 96.3782 12.2379 96.3782 12.9504C96.3782 13.262 96.4821 13.5055 96.6898 13.6809C96.8974 13.8564 97.1642 13.9441 97.4901 13.9441ZM101.626 14.7014V8.88989H103.892C104.666 8.88989 105.258 9.02596 105.67 9.2981C106.086 9.56665 106.293 9.96232 106.293 10.4851C106.293 10.7537 106.213 10.9972 106.052 11.2156C105.89 11.4304 105.652 11.5951 105.337 11.7097C105.688 11.7921 105.969 11.9532 106.18 12.1931C106.395 12.433 106.503 12.7195 106.503 13.0525C106.503 13.586 106.306 13.9942 105.912 14.2771C105.522 14.56 104.968 14.7014 104.252 14.7014H101.626ZM102.619 12.1501V13.9011H104.263C104.678 13.9011 104.988 13.8241 105.192 13.6702C105.4 13.5162 105.504 13.2996 105.504 13.0203C105.504 12.4402 105.078 12.1501 104.225 12.1501H102.619ZM102.619 11.3552H103.903C104.834 11.3552 105.3 11.0831 105.3 10.5388C105.3 9.99455 104.859 9.71346 103.978 9.69556H102.619V11.3552ZM111.578 8.88989H112.572V14.7014H111.578V10.4636L108.898 14.7014H107.905V8.88989H108.898V13.1331L111.578 8.88989ZM118.486 9.69556H116.536V14.7014H115.542V9.69556H113.63V8.88989H118.486V9.69556ZM120.537 10.8933H122.047C122.706 10.9005 123.227 11.0723 123.61 11.4089C123.993 11.7455 124.184 12.2021 124.184 12.7786C124.184 13.3586 123.987 13.8241 123.594 14.175C123.2 14.526 122.67 14.7014 122.004 14.7014H119.544V8.88989H120.537V10.8933ZM120.537 11.7043V13.8904H122.014C122.387 13.8904 122.675 13.7955 122.879 13.6057C123.083 13.4124 123.185 13.1492 123.185 12.8162C123.185 12.4939 123.085 12.2307 122.885 12.0266C122.688 11.8189 122.41 11.7115 122.052 11.7043H120.537Z" fill="#555555"/>
</svg>
