<svg width="171" height="22" viewBox="0 0 171 22" fill="none" xmlns="http://www.w3.org/2000/svg">
<rect x="1.27368" y="0.5" width="168.583" height="21" rx="1.5" fill="#FBE4E5" stroke="#E6B3B5"/>
<path d="M28.7657 10.7173C28.7657 11.4836 28.6368 12.1532 28.379 12.7261C28.1212 13.2954 27.7559 13.7305 27.2833 14.0312C26.8106 14.332 26.2592 14.4824 25.629 14.4824C25.0131 14.4824 24.467 14.332 23.9908 14.0312C23.5145 13.7269 23.1439 13.2954 22.879 12.7368C22.6176 12.1746 22.4833 11.5247 22.4761 10.7871V10.2231C22.4761 9.47119 22.6068 8.80697 22.8682 8.23047C23.1296 7.65397 23.4984 7.21354 23.9747 6.90918C24.4545 6.60124 25.0023 6.44727 25.6182 6.44727C26.2449 6.44727 26.7963 6.59945 27.2725 6.90381C27.7523 7.20459 28.1212 7.64323 28.379 8.21973C28.6368 8.79264 28.7657 9.46045 28.7657 10.2231V10.7173ZM27.7398 10.2124C27.7398 9.28499 27.5536 8.57422 27.1812 8.08008C26.8088 7.58236 26.2878 7.3335 25.6182 7.3335C24.9665 7.3335 24.4527 7.58236 24.0767 8.08008C23.7043 8.57422 23.5128 9.26172 23.502 10.1426V10.7173C23.502 11.616 23.69 12.3232 24.066 12.8389C24.4455 13.3509 24.9665 13.6069 25.629 13.6069C26.295 13.6069 26.8106 13.3652 27.1758 12.8818C27.5411 12.3949 27.7291 11.6984 27.7398 10.7925V10.2124ZM34.4752 9.36914H32.5255V14.375H31.5318V9.36914H29.6197V8.56348H34.4752V9.36914ZM40.1954 14.375H39.2017V9.38525H36.5269V14.375H35.5279V8.56348H40.1954V14.375ZM46.6998 11.5337C46.6998 12.4181 46.4975 13.1307 46.0928 13.6714C45.6882 14.2121 45.1404 14.4824 44.4493 14.4824C43.7439 14.4824 43.1889 14.2586 42.7842 13.811V16.6094H41.7906V8.56348H42.6983L42.7466 9.20801C43.1513 8.70671 43.7134 8.45605 44.4332 8.45605C45.1314 8.45605 45.6828 8.71924 46.0875 9.24561C46.4957 9.77197 46.6998 10.5042 46.6998 11.4424V11.5337ZM45.7061 11.4209C45.7061 10.7656 45.5665 10.2482 45.2872 9.86865C45.0079 9.4891 44.6247 9.29932 44.1378 9.29932C43.5362 9.29932 43.085 9.56608 42.7842 10.0996V12.8765C43.0814 13.4064 43.5362 13.6714 44.1485 13.6714C44.6247 13.6714 45.0025 13.4834 45.2818 13.1074C45.5647 12.7279 45.7061 12.1657 45.7061 11.4209ZM51.5552 14.375C51.4979 14.2604 51.4514 14.0563 51.4156 13.7627C50.9537 14.2425 50.4022 14.4824 49.7613 14.4824C49.1884 14.4824 48.7175 14.3213 48.3487 13.999C47.9835 13.6732 47.8008 13.2614 47.8008 12.7637C47.8008 12.1585 48.03 11.6895 48.4883 11.3564C48.9503 11.0199 49.5984 10.8516 50.4327 10.8516H51.3995V10.395C51.3995 10.0477 51.2956 9.77197 51.088 9.56787C50.8803 9.36019 50.5741 9.25635 50.1695 9.25635C49.815 9.25635 49.5178 9.34587 49.2779 9.5249C49.038 9.70394 48.918 9.92057 48.918 10.1748H47.919C47.919 9.88477 48.0211 9.60547 48.2252 9.33691C48.4328 9.06478 48.7121 8.84993 49.063 8.69238C49.4175 8.53483 49.8061 8.45605 50.2286 8.45605C50.8982 8.45605 51.4227 8.62435 51.8023 8.96094C52.1819 9.29395 52.3788 9.75407 52.3931 10.3413V13.0161C52.3931 13.5496 52.4612 13.974 52.5972 14.2891V14.375H51.5552ZM49.9063 13.6177C50.2178 13.6177 50.5132 13.5371 50.7925 13.376C51.0718 13.2148 51.2741 13.0054 51.3995 12.7476V11.5552H50.6207C49.4032 11.5552 48.7945 11.9115 48.7945 12.624C48.7945 12.9355 48.8983 13.179 49.106 13.3545C49.3137 13.5299 49.5805 13.6177 49.9063 13.6177ZM54.0421 14.375V8.56348H56.3087C57.0821 8.56348 57.6747 8.69954 58.0865 8.97168C58.5019 9.24023 58.7095 9.6359 58.7095 10.1587C58.7095 10.4272 58.629 10.6707 58.4678 10.8892C58.3067 11.104 58.0686 11.2687 57.7535 11.3833C58.1044 11.4657 58.3855 11.6268 58.5967 11.8667C58.8116 12.1066 58.919 12.3931 58.919 12.7261C58.919 13.2596 58.7221 13.6678 58.3282 13.9507C57.9379 14.2336 57.3847 14.375 56.6685 14.375H54.0421ZM55.0357 11.8237V13.5747H56.6793C57.0946 13.5747 57.4044 13.4977 57.6085 13.3438C57.8161 13.1898 57.92 12.9731 57.92 12.6938C57.92 12.1138 57.4939 11.8237 56.6417 11.8237H55.0357ZM55.0357 11.0288H56.3194C57.2504 11.0288 57.7159 10.7567 57.7159 10.2124C57.7159 9.66813 57.2755 9.38704 56.3946 9.36914H55.0357V11.0288ZM63.9947 8.56348H64.9883V14.375H63.9947V10.1372L61.3145 14.375H60.3209V8.56348H61.3145V12.8066L63.9947 8.56348ZM70.9019 9.36914H68.9522V14.375H67.9586V9.36914H66.0464V8.56348H70.9019V9.36914ZM72.9537 10.5669H74.463C75.1218 10.5741 75.6428 10.7459 76.0259 11.0825C76.4091 11.4191 76.6006 11.8757 76.6006 12.4521C76.6006 13.0322 76.4037 13.4977 76.0098 13.8486C75.6159 14.1995 75.086 14.375 74.42 14.375H71.96V8.56348H72.9537V10.5669ZM72.9537 11.3779V13.564H74.4307C74.8031 13.564 75.0914 13.4691 75.2955 13.2793C75.4996 13.0859 75.6016 12.8228 75.6016 12.4897C75.6016 12.1675 75.5014 11.9043 75.3008 11.7002C75.1039 11.4925 74.8264 11.3851 74.4683 11.3779H72.9537ZM85.3179 14.375H84.3243V11.8936H81.6548V14.375H80.6558V8.56348H81.6548V11.0825H84.3243V8.56348H85.3179V14.375ZM90.5064 14.375C90.4491 14.2604 90.4026 14.0563 90.3668 13.7627C89.9048 14.2425 89.3534 14.4824 88.7125 14.4824C88.1395 14.4824 87.6687 14.3213 87.2999 13.999C86.9346 13.6732 86.752 13.2614 86.752 12.7637C86.752 12.1585 86.9812 11.6895 87.4395 11.3564C87.9014 11.0199 88.5495 10.8516 89.3839 10.8516H90.3506V10.395C90.3506 10.0477 90.2468 9.77197 90.0391 9.56787C89.8314 9.36019 89.5253 9.25635 89.1207 9.25635C88.7662 9.25635 88.469 9.34587 88.2291 9.5249C87.9892 9.70394 87.8692 9.92057 87.8692 10.1748H86.8702C86.8702 9.88477 86.9722 9.60547 87.1763 9.33691C87.384 9.06478 87.6633 8.84993 88.0142 8.69238C88.3687 8.53483 88.7572 8.45605 89.1797 8.45605C89.8493 8.45605 90.3739 8.62435 90.7535 8.96094C91.133 9.29395 91.33 9.75407 91.3443 10.3413V13.0161C91.3443 13.5496 91.4123 13.974 91.5484 14.2891V14.375H90.5064ZM88.8575 13.6177C89.169 13.6177 89.4644 13.5371 89.7437 13.376C90.023 13.2148 90.2253 13.0054 90.3506 12.7476V11.5552H89.5718C88.3544 11.5552 87.7457 11.9115 87.7457 12.624C87.7457 12.9355 87.8495 13.179 88.0572 13.3545C88.2649 13.5299 88.5316 13.6177 88.8575 13.6177ZM95.5821 13.564L95.9258 13.1396C96.3126 12.6383 96.5328 11.8864 96.5865 10.8838L96.6778 8.56348H100.421V13.564H101.168V16.083H100.174V14.375H96.1192V16.083H95.1255L95.1309 13.564H95.5821ZM96.7584 13.564H99.4278V9.48193H97.6392L97.5801 10.8677C97.5193 12.0243 97.2453 12.923 96.7584 13.564ZM102.006 11.4155C102.006 10.8462 102.117 10.3341 102.339 9.87939C102.565 9.42464 102.876 9.07373 103.273 8.82666C103.675 8.57959 104.131 8.45605 104.643 8.45605C105.434 8.45605 106.074 8.72998 106.561 9.27783C107.051 9.82568 107.296 10.5544 107.296 11.4639V11.5337C107.296 12.0994 107.187 12.6079 106.969 13.0591C106.754 13.5067 106.444 13.8558 106.04 14.1064C105.639 14.3571 105.177 14.4824 104.654 14.4824C103.866 14.4824 103.227 14.2085 102.736 13.6606C102.249 13.1128 102.006 12.3877 102.006 11.4854V11.4155ZM103.005 11.5337C103.005 12.1782 103.154 12.6956 103.451 13.0859C103.752 13.4762 104.153 13.6714 104.654 13.6714C105.159 13.6714 105.56 13.4744 105.857 13.0806C106.154 12.6831 106.303 12.1281 106.303 11.4155C106.303 10.7782 106.151 10.2625 105.846 9.86865C105.545 9.47119 105.144 9.27246 104.643 9.27246C104.153 9.27246 103.757 9.46761 103.456 9.85791C103.155 10.2482 103.005 10.8068 103.005 11.5337ZM113.452 11.5337C113.452 12.4181 113.249 13.1307 112.845 13.6714C112.44 14.2121 111.892 14.4824 111.201 14.4824C110.496 14.4824 109.941 14.2586 109.536 13.811V16.6094H108.543V8.56348H109.45L109.499 9.20801C109.903 8.70671 110.465 8.45605 111.185 8.45605C111.883 8.45605 112.435 8.71924 112.839 9.24561C113.248 9.77197 113.452 10.5042 113.452 11.4424V11.5337ZM112.458 11.4209C112.458 10.7656 112.318 10.2482 112.039 9.86865C111.76 9.4891 111.377 9.29932 110.89 9.29932C110.288 9.29932 109.837 9.56608 109.536 10.0996V12.8765C109.833 13.4064 110.288 13.6714 110.9 13.6714C111.377 13.6714 111.754 13.4834 112.034 13.1074C112.317 12.7279 112.458 12.1657 112.458 11.4209ZM118.307 14.375C118.25 14.2604 118.203 14.0563 118.168 13.7627C117.706 14.2425 117.154 14.4824 116.513 14.4824C115.94 14.4824 115.469 14.3213 115.101 13.999C114.735 13.6732 114.553 13.2614 114.553 12.7637C114.553 12.1585 114.782 11.6895 115.24 11.3564C115.702 11.0199 116.35 10.8516 117.185 10.8516H118.151V10.395C118.151 10.0477 118.048 9.77197 117.84 9.56787C117.632 9.36019 117.326 9.25635 116.921 9.25635C116.567 9.25635 116.27 9.34587 116.03 9.5249C115.79 9.70394 115.67 9.92057 115.67 10.1748H114.671C114.671 9.88477 114.773 9.60547 114.977 9.33691C115.185 9.06478 115.464 8.84993 115.815 8.69238C116.169 8.53483 116.558 8.45605 116.981 8.45605C117.65 8.45605 118.175 8.62435 118.554 8.96094C118.934 9.29395 119.131 9.75407 119.145 10.3413V13.0161C119.145 13.5496 119.213 13.974 119.349 14.2891V14.375H118.307ZM116.658 13.6177C116.97 13.6177 117.265 13.5371 117.544 13.376C117.824 13.2148 118.026 13.0054 118.151 12.7476V11.5552H117.373C116.155 11.5552 115.546 11.9115 115.546 12.624C115.546 12.9355 115.65 13.179 115.858 13.3545C116.066 13.5299 116.332 13.6177 116.658 13.6177ZM123.254 8.89648C123.984 8.89648 124.568 9.14176 125.005 9.63232C125.445 10.1193 125.666 10.762 125.666 11.5605V11.6519C125.666 12.1997 125.56 12.6903 125.349 13.1235C125.137 13.5532 124.833 13.888 124.436 14.1279C124.042 14.3643 123.587 14.4824 123.071 14.4824C122.291 14.4824 121.662 14.2228 121.186 13.7036C120.71 13.1808 120.472 12.4808 120.472 11.6035V11.1201C120.472 9.89909 120.697 8.92871 121.148 8.20898C121.603 7.48926 122.273 7.05062 123.157 6.89307C123.659 6.80355 123.997 6.69434 124.172 6.56543C124.348 6.43652 124.436 6.25928 124.436 6.03369H125.252C125.252 6.48128 125.15 6.8304 124.946 7.08105C124.745 7.33171 124.423 7.50895 123.979 7.61279L123.238 7.7793C122.647 7.91895 122.203 8.15527 121.906 8.48828C121.612 8.81771 121.421 9.25814 121.331 9.80957C121.857 9.20085 122.498 8.89648 123.254 8.89648ZM123.061 9.71289C122.574 9.71289 122.187 9.8776 121.9 10.207C121.614 10.5329 121.471 10.9858 121.471 11.5659V11.6519C121.471 12.2749 121.614 12.769 121.9 13.1343C122.19 13.4959 122.581 13.6768 123.071 13.6768C123.565 13.6768 123.956 13.4941 124.242 13.1289C124.529 12.7637 124.672 12.2301 124.672 11.5283C124.672 10.9805 124.527 10.5418 124.237 10.2124C123.95 9.87939 123.558 9.71289 123.061 9.71289ZM126.52 11.4155C126.52 10.8462 126.631 10.3341 126.853 9.87939C127.078 9.42464 127.39 9.07373 127.787 8.82666C128.188 8.57959 128.645 8.45605 129.157 8.45605C129.948 8.45605 130.587 8.72998 131.074 9.27783C131.565 9.82568 131.81 10.5544 131.81 11.4639V11.5337C131.81 12.0994 131.701 12.6079 131.482 13.0591C131.268 13.5067 130.958 13.8558 130.553 14.1064C130.152 14.3571 129.69 14.4824 129.168 14.4824C128.38 14.4824 127.741 14.2085 127.25 13.6606C126.763 13.1128 126.52 12.3877 126.52 11.4854V11.4155ZM127.519 11.5337C127.519 12.1782 127.667 12.6956 127.964 13.0859C128.265 13.4762 128.666 13.6714 129.168 13.6714C129.672 13.6714 130.073 13.4744 130.371 13.0806C130.668 12.6831 130.816 12.1281 130.816 11.4155C130.816 10.7782 130.664 10.2625 130.36 9.86865C130.059 9.47119 129.658 9.27246 129.157 9.27246C128.666 9.27246 128.271 9.46761 127.97 9.85791C127.669 10.2482 127.519 10.8068 127.519 11.5337ZM137.256 9.36914H135.307V14.375H134.313V9.36914H132.401V8.56348H137.256V9.36914ZM140.033 11.8989H139.308V14.375H138.309V8.56348H139.308V11.0234H139.958L141.913 8.56348H143.116L140.817 11.3564L143.31 14.375H142.047L140.033 11.8989ZM146.065 12.9194L147.419 8.56348H148.482L146.146 15.272C145.784 16.2388 145.209 16.7222 144.421 16.7222L144.233 16.7061L143.863 16.6362V15.8306L144.131 15.8521C144.468 15.8521 144.729 15.784 144.916 15.6479C145.105 15.5119 145.261 15.263 145.383 14.9014L145.603 14.3105L143.53 8.56348H144.615L146.065 12.9194Z" fill="#555555"/>
</svg>
