<svg width="107" height="23" viewBox="0 0 107 23" fill="none" xmlns="http://www.w3.org/2000/svg">
<rect x="0.501465" y="0.826416" width="105" height="21" rx="1.5" fill="#F8F8F8" stroke="#DADADA"/>
<path d="M18.1024 12.22C18.0057 13.0471 17.6995 13.6863 17.1839 14.1375C16.6719 14.585 15.9897 14.8088 15.1375 14.8088C14.2137 14.8088 13.4725 14.4776 12.9139 13.8152C12.3589 13.1528 12.0814 12.2665 12.0814 11.1565V10.4045C12.0814 9.67765 12.2103 9.03849 12.4681 8.48706C12.7295 7.93563 13.0983 7.5131 13.5745 7.21948C14.0508 6.92228 14.6022 6.77368 15.2288 6.77368C16.0595 6.77368 16.7256 7.00643 17.2269 7.47192C17.7282 7.93384 18.02 8.57479 18.1024 9.39478H17.0657C16.9762 8.77173 16.7811 8.32056 16.4803 8.04126C16.1831 7.76196 15.7659 7.62231 15.2288 7.62231C14.57 7.62231 14.0526 7.8658 13.6766 8.35278C13.3042 8.83976 13.118 9.53263 13.118 10.4314V11.1887C13.118 12.0374 13.2952 12.7123 13.6497 13.2136C14.0042 13.7149 14.5001 13.9656 15.1375 13.9656C15.7104 13.9656 16.1491 13.8367 16.4534 13.5789C16.7614 13.3175 16.9655 12.8645 17.0657 12.22H18.1024ZM19.096 11.7419C19.096 11.1726 19.207 10.6606 19.429 10.2058C19.6546 9.75106 19.9661 9.40015 20.3636 9.15308C20.7646 8.90601 21.2212 8.78247 21.7332 8.78247C22.5246 8.78247 23.1637 9.0564 23.6507 9.60425C24.1413 10.1521 24.3865 10.8808 24.3865 11.7903V11.8601C24.3865 12.4259 24.2773 12.9343 24.0589 13.3855C23.8441 13.8331 23.5343 14.1822 23.1297 14.4329C22.7287 14.6835 22.2667 14.8088 21.744 14.8088C20.9562 14.8088 20.317 14.5349 19.8265 13.9871C19.3395 13.4392 19.096 12.7141 19.096 11.8118V11.7419ZM20.095 11.8601C20.095 12.5046 20.2436 13.0221 20.5408 13.4124C20.8416 13.8027 21.2427 13.9978 21.744 13.9978C22.2488 13.9978 22.6499 13.8009 22.9471 13.407C23.2443 13.0095 23.3929 12.4545 23.3929 11.7419C23.3929 11.1046 23.2407 10.5889 22.9363 10.1951C22.6356 9.79761 22.2345 9.59888 21.7332 9.59888C21.2427 9.59888 20.847 9.79403 20.5462 10.1843C20.2454 10.5746 20.095 11.1332 20.095 11.8601ZM28.8284 10.4797C28.8284 10.2076 28.7246 9.99276 28.5169 9.83521C28.3092 9.67407 28.0246 9.59351 27.6629 9.59351C27.312 9.59351 27.0184 9.68481 26.782 9.86743C26.5493 10.05 26.4329 10.2649 26.4329 10.512H25.4446C25.4446 10.0071 25.6559 9.59351 26.0784 9.27124C26.501 8.94897 27.0291 8.78784 27.6629 8.78784C28.3432 8.78784 28.8732 8.93465 29.2527 9.22827C29.6323 9.51831 29.8221 9.93368 29.8221 10.4744C29.8221 10.7358 29.7433 10.9757 29.5858 11.1941C29.4282 11.4125 29.2044 11.5862 28.9144 11.7151C29.5911 11.9443 29.9295 12.3954 29.9295 13.0686C29.9295 13.6021 29.7236 14.0247 29.3118 14.3362C28.9 14.6477 28.3504 14.8035 27.6629 14.8035C26.9933 14.8035 26.4401 14.6405 26.0032 14.3147C25.57 13.9853 25.3533 13.5413 25.3533 12.9827H26.3416C26.3416 13.2655 26.4669 13.509 26.7176 13.7131C26.9718 13.9137 27.2869 14.0139 27.6629 14.0139C28.0425 14.0139 28.3486 13.9262 28.5814 13.7507C28.8141 13.5753 28.9305 13.3479 28.9305 13.0686C28.9305 12.7428 28.832 12.51 28.6351 12.3704C28.4417 12.2271 28.1391 12.1555 27.7274 12.1555H26.7337V11.3176H27.8133C28.4901 11.2997 28.8284 11.0204 28.8284 10.4797ZM31.1702 13.8904L31.514 13.4661C31.9007 12.9648 32.1209 12.2128 32.1746 11.2102L32.2659 8.88989H36.0096V13.8904H36.7562V16.4094H35.7625V14.7014H31.7073V16.4094H30.7137L30.7191 13.8904H31.1702ZM32.3465 13.8904H35.0159V9.80835H33.2274L33.1683 11.1941C33.1074 12.3507 32.8335 13.2494 32.3465 13.8904ZM41.4451 14.7014C41.3878 14.5868 41.3413 14.3827 41.3055 14.0891C40.8436 14.5689 40.2921 14.8088 39.6512 14.8088C39.0783 14.8088 38.6074 14.6477 38.2386 14.3254C37.8734 13.9996 37.6907 13.5878 37.6907 13.0901C37.6907 12.4849 37.9199 12.0159 38.3782 11.6829C38.8401 11.3463 39.4883 11.178 40.3226 11.178H41.2894V10.7214C41.2894 10.3741 41.1855 10.0984 40.9778 9.89429C40.7702 9.6866 40.464 9.58276 40.0594 9.58276C39.7049 9.58276 39.4077 9.67228 39.1678 9.85132C38.9279 10.0304 38.8079 10.247 38.8079 10.5012H37.8089C37.8089 10.2112 37.9109 9.93188 38.1151 9.66333C38.3227 9.39119 38.602 9.17635 38.9529 9.0188C39.3074 8.86125 39.6959 8.78247 40.1185 8.78247C40.7881 8.78247 41.3126 8.95076 41.6922 9.28735C42.0718 9.62036 42.2687 10.0805 42.283 10.6677V13.3425C42.283 13.8761 42.3511 14.3004 42.4871 14.6155V14.7014H41.4451ZM39.7962 13.9441C40.1077 13.9441 40.4031 13.8635 40.6824 13.7024C40.9617 13.5413 41.164 13.3318 41.2894 13.074V11.8816H40.5106C39.2931 11.8816 38.6844 12.2379 38.6844 12.9504C38.6844 13.262 38.7882 13.5055 38.9959 13.6809C39.2036 13.8564 39.4704 13.9441 39.7962 13.9441ZM48.0731 9.69556H46.1234V14.7014H45.1297V9.69556H43.2176V8.88989H48.0731V9.69556ZM50.1248 10.8933H51.6341C52.2929 10.9005 52.8139 11.0723 53.1971 11.4089C53.5802 11.7455 53.7718 12.2021 53.7718 12.7786C53.7718 13.3586 53.5748 13.8241 53.181 14.175C52.7871 14.526 52.2571 14.7014 51.5911 14.7014H49.1312V8.88989H50.1248V10.8933ZM50.1248 11.7043V13.8904H51.6019C51.9743 13.8904 52.2625 13.7955 52.4666 13.6057C52.6707 13.4124 52.7728 13.1492 52.7728 12.8162C52.7728 12.4939 52.6725 12.2307 52.472 12.0266C52.275 11.8189 51.9975 11.7115 51.6395 11.7043H50.1248ZM60.9368 10.4797C60.9368 10.2076 60.833 9.99276 60.6253 9.83521C60.4176 9.67407 60.133 9.59351 59.7713 9.59351C59.4204 9.59351 59.1268 9.68481 58.8904 9.86743C58.6577 10.05 58.5413 10.2649 58.5413 10.512H57.553C57.553 10.0071 57.7643 9.59351 58.1868 9.27124C58.6094 8.94897 59.1375 8.78784 59.7713 8.78784C60.4516 8.78784 60.9816 8.93465 61.3611 9.22827C61.7407 9.51831 61.9305 9.93368 61.9305 10.4744C61.9305 10.7358 61.8517 10.9757 61.6942 11.1941C61.5366 11.4125 61.3128 11.5862 61.0228 11.7151C61.6995 11.9443 62.0379 12.3954 62.0379 13.0686C62.0379 13.6021 61.832 14.0247 61.4202 14.3362C61.0084 14.6477 60.4588 14.8035 59.7713 14.8035C59.1017 14.8035 58.5485 14.6405 58.1116 14.3147C57.6784 13.9853 57.4617 13.5413 57.4617 12.9827H58.45C58.45 13.2655 58.5753 13.509 58.826 13.7131C59.0802 13.9137 59.3953 14.0139 59.7713 14.0139C60.1509 14.0139 60.457 13.9262 60.6898 13.7507C60.9225 13.5753 61.0389 13.3479 61.0389 13.0686C61.0389 12.7428 60.9404 12.51 60.7435 12.3704C60.5501 12.2271 60.2475 12.1555 59.8358 12.1555H58.8421V11.3176H59.9217C60.5984 11.2997 60.9368 11.0204 60.9368 10.4797ZM66.9149 14.7014C66.8576 14.5868 66.811 14.3827 66.7752 14.0891C66.3133 14.5689 65.7619 14.8088 65.1209 14.8088C64.548 14.8088 64.0771 14.6477 63.7083 14.3254C63.3431 13.9996 63.1605 13.5878 63.1605 13.0901C63.1605 12.4849 63.3896 12.0159 63.848 11.6829C64.3099 11.3463 64.958 11.178 65.7923 11.178H66.7591V10.7214C66.7591 10.3741 66.6553 10.0984 66.4476 9.89429C66.2399 9.6866 65.9337 9.58276 65.5291 9.58276C65.1746 9.58276 64.8774 9.67228 64.6375 9.85132C64.3976 10.0304 64.2776 10.247 64.2776 10.5012H63.2786C63.2786 10.2112 63.3807 9.93188 63.5848 9.66333C63.7925 9.39119 64.0718 9.17635 64.4227 9.0188C64.7772 8.86125 65.1657 8.78247 65.5882 8.78247C66.2578 8.78247 66.7824 8.95076 67.1619 9.28735C67.5415 9.62036 67.7384 10.0805 67.7527 10.6677V13.3425C67.7527 13.8761 67.8208 14.3004 67.9568 14.6155V14.7014H66.9149ZM65.2659 13.9441C65.5775 13.9441 65.8729 13.8635 66.1522 13.7024C66.4315 13.5413 66.6338 13.3318 66.7591 13.074V11.8816H65.9803C64.7628 11.8816 64.1541 12.2379 64.1541 12.9504C64.1541 13.262 64.258 13.5055 64.4656 13.6809C64.6733 13.8564 64.9401 13.9441 65.2659 13.9441ZM69.262 13.8904L69.6058 13.4661C69.9925 12.9648 70.2127 12.2128 70.2664 11.2102L70.3577 8.88989H74.1014V13.8904H74.848V16.4094H73.8543V14.7014H69.7991V16.4094H68.8055L68.8109 13.8904H69.262ZM70.4383 13.8904H73.1077V9.80835H71.3192L71.2601 11.1941C71.1992 12.3507 70.9253 13.2494 70.4383 13.8904ZM79.5369 14.7014C79.4796 14.5868 79.4331 14.3827 79.3973 14.0891C78.9354 14.5689 78.3839 14.8088 77.743 14.8088C77.1701 14.8088 76.6992 14.6477 76.3304 14.3254C75.9651 13.9996 75.7825 13.5878 75.7825 13.0901C75.7825 12.4849 76.0117 12.0159 76.47 11.6829C76.9319 11.3463 77.5801 11.178 78.4144 11.178H79.3812V10.7214C79.3812 10.3741 79.2773 10.0984 79.0696 9.89429C78.862 9.6866 78.5558 9.58276 78.1512 9.58276C77.7967 9.58276 77.4995 9.67228 77.2596 9.85132C77.0197 10.0304 76.8997 10.247 76.8997 10.5012H75.9007C75.9007 10.2112 76.0027 9.93188 76.2068 9.66333C76.4145 9.39119 76.6938 9.17635 77.0447 9.0188C77.3992 8.86125 77.7877 8.78247 78.2103 8.78247C78.8799 8.78247 79.4044 8.95076 79.784 9.28735C80.1636 9.62036 80.3605 10.0805 80.3748 10.6677V13.3425C80.3748 13.8761 80.4429 14.3004 80.5789 14.6155V14.7014H79.5369ZM77.888 13.9441C78.1995 13.9441 78.4949 13.8635 78.7742 13.7024C79.0535 13.5413 79.2558 13.3318 79.3812 13.074V11.8816H78.6024C77.3849 11.8816 76.7762 12.2379 76.7762 12.9504C76.7762 13.262 76.88 13.5055 77.0877 13.6809C77.2954 13.8564 77.5622 13.9441 77.888 13.9441ZM86.3206 14.7014H85.3216V12.5959C84.8847 12.7105 84.4372 12.7678 83.9788 12.7678C83.2519 12.7678 82.6969 12.5816 82.3138 12.2092C81.9342 11.8368 81.7409 11.3069 81.7337 10.6194V8.88452H82.7274V10.6516C82.7453 11.5181 83.1624 11.9514 83.9788 11.9514C84.4372 11.9514 84.8847 11.8941 85.3216 11.7795V8.88989H86.3206V14.7014ZM91.6756 8.88989H92.6693V14.7014H91.6756V10.4636L88.9954 14.7014H88.0018V8.88989H88.9954V13.1331L91.6756 8.88989Z" fill="#555555"/>
</svg>
