<svg width="66" height="23" viewBox="0 0 66 23" fill="none" xmlns="http://www.w3.org/2000/svg">
<rect x="0.918091" y="0.826416" width="64" height="21" rx="1.5" fill="#F8F8F8" stroke="#DADADA"/>
<path d="M14.5454 12.22C14.4487 13.0471 14.1426 13.6863 13.627 14.1375C13.1149 14.585 12.4328 14.8088 11.5806 14.8088C10.6567 14.8088 9.91553 14.4776 9.35693 13.8152C8.80192 13.1528 8.52441 12.2665 8.52441 11.1565V10.4045C8.52441 9.67765 8.65332 9.03849 8.91113 8.48706C9.17253 7.93563 9.54134 7.5131 10.0176 7.21948C10.4938 6.92228 11.0452 6.77368 11.6719 6.77368C12.5026 6.77368 13.1686 7.00643 13.6699 7.47192C14.1712 7.93384 14.4631 8.57479 14.5454 9.39478H13.5088C13.4193 8.77173 13.2241 8.32056 12.9233 8.04126C12.6261 7.76196 12.209 7.62231 11.6719 7.62231C11.013 7.62231 10.4956 7.8658 10.1196 8.35278C9.74723 8.83976 9.56104 9.53263 9.56104 10.4314V11.1887C9.56104 12.0374 9.73828 12.7123 10.0928 13.2136C10.4473 13.7149 10.9432 13.9656 11.5806 13.9656C12.1535 13.9656 12.5921 13.8367 12.8965 13.5789C13.2044 13.3175 13.4085 12.8645 13.5088 12.22H14.5454ZM20.7114 11.8601C20.7114 12.7445 20.5091 13.4571 20.1045 13.9978C19.6999 14.5385 19.152 14.8088 18.4609 14.8088C17.7555 14.8088 17.2005 14.585 16.7959 14.1375V16.9358H15.8022V8.88989H16.71L16.7583 9.53442C17.1629 9.03312 17.7251 8.78247 18.4448 8.78247C19.1431 8.78247 19.6945 9.04565 20.0991 9.57202C20.5073 10.0984 20.7114 10.8306 20.7114 11.7688V11.8601ZM19.7178 11.7473C19.7178 11.092 19.5781 10.5746 19.2988 10.1951C19.0195 9.81551 18.6364 9.62573 18.1494 9.62573C17.5479 9.62573 17.0967 9.8925 16.7959 10.426V13.2029C17.0931 13.7328 17.5479 13.9978 18.1602 13.9978C18.6364 13.9978 19.0142 13.8098 19.2935 13.4338C19.5763 13.0543 19.7178 12.4921 19.7178 11.7473ZM25.5669 14.7014C25.5096 14.5868 25.4631 14.3827 25.4272 14.0891C24.9653 14.5689 24.4139 14.8088 23.7729 14.8088C23.2 14.8088 22.7292 14.6477 22.3604 14.3254C21.9951 13.9996 21.8125 13.5878 21.8125 13.0901C21.8125 12.4849 22.0417 12.0159 22.5 11.6829C22.9619 11.3463 23.61 11.178 24.4443 11.178H25.4111V10.7214C25.4111 10.3741 25.3073 10.0984 25.0996 9.89429C24.8919 9.6866 24.5858 9.58276 24.1812 9.58276C23.8267 9.58276 23.5295 9.67228 23.2896 9.85132C23.0496 10.0304 22.9297 10.247 22.9297 10.5012H21.9307C21.9307 10.2112 22.0327 9.93188 22.2368 9.66333C22.4445 9.39119 22.7238 9.17635 23.0747 9.0188C23.4292 8.86125 23.8177 8.78247 24.2402 8.78247C24.9098 8.78247 25.4344 8.95076 25.814 9.28735C26.1935 9.62036 26.3905 10.0805 26.4048 10.6677V13.3425C26.4048 13.8761 26.4728 14.3004 26.6089 14.6155V14.7014H25.5669ZM23.918 13.9441C24.2295 13.9441 24.5249 13.8635 24.8042 13.7024C25.0835 13.5413 25.2858 13.3318 25.4111 13.074V11.8816H24.6323C23.4149 11.8816 22.8062 12.2379 22.8062 12.9504C22.8062 13.262 22.91 13.5055 23.1177 13.6809C23.3254 13.8564 23.5921 13.9441 23.918 13.9441ZM28.0537 14.7014V8.88989H30.3203C31.0938 8.88989 31.6864 9.02596 32.0981 9.2981C32.5135 9.56665 32.7212 9.96232 32.7212 10.4851C32.7212 10.7537 32.6406 10.9972 32.4795 11.2156C32.3184 11.4304 32.0802 11.5951 31.7651 11.7097C32.116 11.7921 32.3971 11.9532 32.6084 12.1931C32.8232 12.433 32.9307 12.7195 32.9307 13.0525C32.9307 13.586 32.7337 13.9942 32.3398 14.2771C31.9495 14.56 31.3963 14.7014 30.6802 14.7014H28.0537ZM29.0474 12.1501V13.9011H30.6909C31.1063 13.9011 31.416 13.8241 31.6201 13.6702C31.8278 13.5162 31.9316 13.2996 31.9316 13.0203C31.9316 12.4402 31.5055 12.1501 30.6533 12.1501H29.0474ZM29.0474 11.3552H30.3311C31.262 11.3552 31.7275 11.0831 31.7275 10.5388C31.7275 9.99455 31.2871 9.71346 30.4062 9.69556H29.0474V11.3552ZM38.9946 14.7014H38.001V12.22H35.3315V14.7014H34.3325V8.88989H35.3315V11.4089H38.001V8.88989H38.9946V14.7014ZM44.355 8.88989H45.3486V14.7014H44.355V10.4636L41.6748 14.7014H40.6812V8.88989H41.6748V13.1331L44.355 8.88989ZM51.2622 9.69556H49.3125V14.7014H48.3188V9.69556H46.4067V8.88989H51.2622V9.69556ZM53.314 10.8933H54.8232C55.4821 10.9005 56.0031 11.0723 56.3862 11.4089C56.7694 11.7455 56.9609 12.2021 56.9609 12.7786C56.9609 13.3586 56.764 13.8241 56.3701 14.175C55.9762 14.526 55.4463 14.7014 54.7803 14.7014H52.3203V8.88989H53.314V10.8933ZM53.314 11.7043V13.8904H54.791C55.1634 13.8904 55.4517 13.7955 55.6558 13.6057C55.8599 13.4124 55.9619 13.1492 55.9619 12.8162C55.9619 12.4939 55.8617 12.2307 55.6611 12.0266C55.4642 11.8189 55.1867 11.7115 54.8286 11.7043H53.314Z" fill="#555555"/>
</svg>
