<svg width="171" height="23" viewBox="0 0 171 23" fill="none" xmlns="http://www.w3.org/2000/svg">
<rect x="0.918091" y="0.826416" width="168.583" height="21" rx="1.5" fill="#F8F8F8" stroke="#DADADA"/>
<path d="M65.0555 12.22C64.9589 13.0471 64.6527 13.6863 64.1371 14.1375C63.625 14.585 62.9429 14.8088 62.0907 14.8088C61.1669 14.8088 60.4257 14.4776 59.8671 13.8152C59.3121 13.1528 59.0345 12.2665 59.0345 11.1565V10.4045C59.0345 9.67765 59.1635 9.03849 59.4213 8.48706C59.6827 7.93563 60.0515 7.5131 60.5277 7.21948C61.0039 6.92228 61.5554 6.77368 62.182 6.77368C63.0127 6.77368 63.6788 7.00643 64.1801 7.47192C64.6814 7.93384 64.9732 8.57479 65.0555 9.39478H64.0189C63.9294 8.77173 63.7343 8.32056 63.4335 8.04126C63.1363 7.76196 62.7191 7.62231 62.182 7.62231C61.5232 7.62231 61.0057 7.8658 60.6298 8.35278C60.2574 8.83976 60.0712 9.53263 60.0712 10.4314V11.1887C60.0712 12.0374 60.2484 12.7123 60.6029 13.2136C60.9574 13.7149 61.4533 13.9656 62.0907 13.9656C62.6636 13.9656 63.1023 13.8367 63.4066 13.5789C63.7146 13.3175 63.9187 12.8645 64.0189 12.22H65.0555ZM66.0492 11.7419C66.0492 11.1726 66.1602 10.6606 66.3822 10.2058C66.6078 9.75106 66.9193 9.40015 67.3168 9.15308C67.7178 8.90601 68.1744 8.78247 68.6864 8.78247C69.4777 8.78247 70.1169 9.0564 70.6039 9.60425C71.0944 10.1521 71.3397 10.8808 71.3397 11.7903V11.8601C71.3397 12.4259 71.2305 12.9343 71.0121 13.3855C70.7972 13.8331 70.4875 14.1822 70.0829 14.4329C69.6818 14.6835 69.2199 14.8088 68.6971 14.8088C67.9094 14.8088 67.2702 14.5349 66.7797 13.9871C66.2927 13.4392 66.0492 12.7141 66.0492 11.8118V11.7419ZM67.0482 11.8601C67.0482 12.5046 67.1968 13.0221 67.494 13.4124C67.7948 13.8027 68.1958 13.9978 68.6971 13.9978C69.202 13.9978 69.6031 13.8009 69.9003 13.407C70.1975 13.0095 70.3461 12.4545 70.3461 11.7419C70.3461 11.1046 70.1939 10.5889 69.8895 10.1951C69.5887 9.79761 69.1877 9.59888 68.6864 9.59888C68.1958 9.59888 67.8002 9.79403 67.4994 10.1843C67.1986 10.5746 67.0482 11.1332 67.0482 11.8601ZM75.7816 10.4797C75.7816 10.2076 75.6778 9.99276 75.4701 9.83521C75.2624 9.67407 74.9777 9.59351 74.6161 9.59351C74.2652 9.59351 73.9716 9.68481 73.7352 9.86743C73.5025 10.05 73.3861 10.2649 73.3861 10.512H72.3978C72.3978 10.0071 72.6091 9.59351 73.0316 9.27124C73.4541 8.94897 73.9823 8.78784 74.6161 8.78784C75.2964 8.78784 75.8264 8.93465 76.2059 9.22827C76.5855 9.51831 76.7753 9.93368 76.7753 10.4744C76.7753 10.7358 76.6965 10.9757 76.5389 11.1941C76.3814 11.4125 76.1576 11.5862 75.8676 11.7151C76.5443 11.9443 76.8827 12.3954 76.8827 13.0686C76.8827 13.6021 76.6768 14.0247 76.265 14.3362C75.8532 14.6477 75.3036 14.8035 74.6161 14.8035C73.9465 14.8035 73.3933 14.6405 72.9564 14.3147C72.5232 13.9853 72.3065 13.5413 72.3065 12.9827H73.2948C73.2948 13.2655 73.4201 13.509 73.6708 13.7131C73.925 13.9137 74.2401 14.0139 74.6161 14.0139C74.9956 14.0139 75.3018 13.9262 75.5345 13.7507C75.7673 13.5753 75.8837 13.3479 75.8837 13.0686C75.8837 12.7428 75.7852 12.51 75.5883 12.3704C75.3949 12.2271 75.0923 12.1555 74.6805 12.1555H73.6869V11.3176H74.7665C75.4432 11.2997 75.7816 11.0204 75.7816 10.4797ZM78.1234 13.8904L78.4672 13.4661C78.8539 12.9648 79.0741 12.2128 79.1278 11.2102L79.2191 8.88989H82.9628V13.8904H83.7094V16.4094H82.7157V14.7014H78.6605V16.4094H77.6669L77.6722 13.8904H78.1234ZM79.2997 13.8904H81.9691V9.80835H80.1805L80.1215 11.1941C80.0606 12.3507 79.7867 13.2494 79.2997 13.8904ZM88.3983 14.7014C88.341 14.5868 88.2945 14.3827 88.2587 14.0891C87.7968 14.5689 87.2453 14.8088 86.6044 14.8088C86.0315 14.8088 85.5606 14.6477 85.1918 14.3254C84.8265 13.9996 84.6439 13.5878 84.6439 13.0901C84.6439 12.4849 84.8731 12.0159 85.3314 11.6829C85.7933 11.3463 86.4414 11.178 87.2758 11.178H88.2426V10.7214C88.2426 10.3741 88.1387 10.0984 87.931 9.89429C87.7233 9.6866 87.4172 9.58276 87.0126 9.58276C86.6581 9.58276 86.3609 9.67228 86.121 9.85132C85.8811 10.0304 85.7611 10.247 85.7611 10.5012H84.7621C84.7621 10.2112 84.8641 9.93188 85.0682 9.66333C85.2759 9.39119 85.5552 9.17635 85.9061 9.0188C86.2606 8.86125 86.6491 8.78247 87.0717 8.78247C87.7413 8.78247 88.2658 8.95076 88.6454 9.28735C89.0249 9.62036 89.2219 10.0805 89.2362 10.6677V13.3425C89.2362 13.8761 89.3042 14.3004 89.4403 14.6155V14.7014H88.3983ZM86.7494 13.9441C87.0609 13.9441 87.3563 13.8635 87.6356 13.7024C87.9149 13.5413 88.1172 13.3318 88.2426 13.074V11.8816H87.4637C86.2463 11.8816 85.6376 12.2379 85.6376 12.9504C85.6376 13.262 85.7414 13.5055 85.9491 13.6809C86.1568 13.8564 86.4235 13.9441 86.7494 13.9441ZM95.0262 9.69556H93.0765V14.7014H92.0829V9.69556H90.1708V8.88989H95.0262V9.69556ZM97.078 10.8933H98.5873C99.2461 10.9005 99.7671 11.0723 100.15 11.4089C100.533 11.7455 100.725 12.2021 100.725 12.7786C100.725 13.3586 100.528 13.8241 100.134 14.175C99.7403 14.526 99.2103 14.7014 98.5443 14.7014H96.0844V8.88989H97.078V10.8933ZM97.078 11.7043V13.8904H98.5551C98.9274 13.8904 99.2157 13.7955 99.4198 13.6057C99.6239 13.4124 99.726 13.1492 99.726 12.8162C99.726 12.4939 99.6257 12.2307 99.4252 12.0266C99.2282 11.8189 98.9507 11.7115 98.5927 11.7043H97.078Z" fill="#555555"/>
<path d="M112.206 10.3304H106.214L109.21 13.3204L112.206 10.3304Z" fill="#555555"/>
</svg>
