<svg width="171" height="23" viewBox="0 0 171 23" fill="none" xmlns="http://www.w3.org/2000/svg">
<rect x="0.918091" y="0.826416" width="168.583" height="21" rx="1.5" fill="#F8F8F8" stroke="#DADADA"/>
<path d="M25.3535 16.6189H24.3276V14.7014H18.7148V16.6243H17.6835L17.6782 13.8582H18.3173C18.6539 13.4786 18.9207 12.9701 19.1176 12.3328C19.3181 11.6918 19.4435 10.99 19.4936 10.2273L19.6655 6.8811H24.3437V13.8582H25.3642L25.3535 16.6189ZM19.4936 13.8582H23.3071V7.72974H20.6591L20.5463 10.0286C20.4998 10.9273 20.3798 11.6936 20.1865 12.3274C19.9967 12.9612 19.7657 13.4714 19.4936 13.8582ZM26.1699 11.7419C26.1699 11.1726 26.2809 10.6606 26.5029 10.2058C26.7285 9.75106 27.04 9.40015 27.4374 9.15308C27.8385 8.90601 28.295 8.78247 28.8071 8.78247C29.5984 8.78247 30.2376 9.0564 30.7245 9.60425C31.2151 10.1521 31.4604 10.8808 31.4604 11.7903V11.8601C31.4604 12.4259 31.3512 12.9343 31.1328 13.3855C30.9179 13.8331 30.6082 14.1822 30.2036 14.4329C29.8025 14.6835 29.3406 14.8088 28.8178 14.8088C28.03 14.8088 27.3909 14.5349 26.9003 13.9871C26.4134 13.4392 26.1699 12.7141 26.1699 11.8118V11.7419ZM27.1689 11.8601C27.1689 12.5046 27.3175 13.0221 27.6147 13.4124C27.9155 13.8027 28.3165 13.9978 28.8178 13.9978C29.3227 13.9978 29.7237 13.8009 30.0209 13.407C30.3181 13.0095 30.4667 12.4545 30.4667 11.7419C30.4667 11.1046 30.3146 10.5889 30.0102 10.1951C29.7094 9.79761 29.3084 9.59888 28.8071 9.59888C28.3165 9.59888 27.9208 9.79403 27.6201 10.1843C27.3193 10.5746 27.1689 11.1332 27.1689 11.8601ZM35.2578 9.2229C35.9882 9.2229 36.5719 9.46818 37.0087 9.95874C37.4492 10.4457 37.6694 11.0885 37.6694 11.887V11.9783C37.6694 12.5261 37.5637 13.0167 37.3525 13.45C37.1412 13.8796 36.8369 14.2144 36.4394 14.4543C36.0455 14.6907 35.5908 14.8088 35.0751 14.8088C34.2945 14.8088 33.6661 14.5492 33.1899 14.03C32.7136 13.5072 32.4755 12.8072 32.4755 11.9299V11.4465C32.4755 10.2255 32.7011 9.25513 33.1523 8.5354C33.607 7.81567 34.2766 7.37703 35.1611 7.21948C35.6624 7.12996 36.0008 7.02075 36.1762 6.89185C36.3517 6.76294 36.4394 6.58569 36.4394 6.36011H37.2558C37.2558 6.8077 37.1537 7.15682 36.9496 7.40747C36.7491 7.65812 36.4269 7.83537 35.9828 7.93921L35.2416 8.10571C34.6508 8.24536 34.2068 8.48169 33.9096 8.8147C33.616 9.14412 33.4244 9.58455 33.3349 10.136C33.8613 9.52726 34.5022 9.2229 35.2578 9.2229ZM35.0644 10.0393C34.5774 10.0393 34.1907 10.204 33.9042 10.5334C33.6178 10.8593 33.4745 11.3123 33.4745 11.8923V11.9783C33.4745 12.6013 33.6178 13.0955 33.9042 13.4607C34.1943 13.8223 34.5846 14.0032 35.0751 14.0032C35.5693 14.0032 35.9596 13.8206 36.246 13.4553C36.5325 13.0901 36.6757 12.5566 36.6757 11.8547C36.6757 11.3069 36.5307 10.8682 36.2407 10.5388C35.9542 10.2058 35.5621 10.0393 35.0644 10.0393ZM42.3745 14.7014C42.3172 14.5868 42.2706 14.3827 42.2348 14.0891C41.7729 14.5689 41.2215 14.8088 40.5805 14.8088C40.0076 14.8088 39.5367 14.6477 39.1679 14.3254C38.8027 13.9996 38.6201 13.5878 38.6201 13.0901C38.6201 12.4849 38.8492 12.0159 39.3076 11.6829C39.7695 11.3463 40.4176 11.178 41.2519 11.178H42.2187V10.7214C42.2187 10.3741 42.1148 10.0984 41.9072 9.89429C41.6995 9.6866 41.3933 9.58276 40.9887 9.58276C40.6342 9.58276 40.337 9.67228 40.0971 9.85132C39.8572 10.0304 39.7372 10.247 39.7372 10.5012H38.7382C38.7382 10.2112 38.8403 9.93188 39.0444 9.66333C39.2521 9.39119 39.5314 9.17635 39.8823 9.0188C40.2368 8.86125 40.6253 8.78247 41.0478 8.78247C41.7174 8.78247 42.242 8.95076 42.6215 9.28735C43.0011 9.62036 43.198 10.0805 43.2123 10.6677V13.3425C43.2123 13.8761 43.2804 14.3004 43.4164 14.6155V14.7014H42.3745ZM40.7255 13.9441C41.037 13.9441 41.3325 13.8635 41.6118 13.7024C41.8911 13.5413 42.0934 13.3318 42.2187 13.074V11.8816H41.4399C40.2224 11.8816 39.6137 12.2379 39.6137 12.9504C39.6137 13.262 39.7175 13.5055 39.9252 13.6809C40.1329 13.8564 40.3997 13.9441 40.7255 13.9441ZM44.8613 14.7014V8.88989H47.1279C47.9013 8.88989 48.4939 9.02596 48.9057 9.2981C49.3211 9.56665 49.5287 9.96232 49.5287 10.4851C49.5287 10.7537 49.4482 10.9972 49.287 11.2156C49.1259 11.4304 48.8878 11.5951 48.5727 11.7097C48.9236 11.7921 49.2047 11.9532 49.416 12.1931C49.6308 12.433 49.7382 12.7195 49.7382 13.0525C49.7382 13.586 49.5413 13.9942 49.1474 14.2771C48.7571 14.56 48.2039 14.7014 47.4877 14.7014H44.8613ZM45.8549 12.1501V13.9011H47.4985C47.9138 13.9011 48.2236 13.8241 48.4277 13.6702C48.6354 13.5162 48.7392 13.2996 48.7392 13.0203C48.7392 12.4402 48.3131 12.1501 47.4609 12.1501H45.8549ZM45.8549 11.3552H47.1386C48.0696 11.3552 48.5351 11.0831 48.5351 10.5388C48.5351 9.99455 48.0947 9.71346 47.2138 9.69556H45.8549V11.3552ZM54.8139 8.88989H55.8076V14.7014H54.8139V10.4636L52.1337 14.7014H51.1401V8.88989H52.1337V13.1331L54.8139 8.88989ZM61.7211 9.69556H59.7714V14.7014H58.7778V9.69556H56.8657V8.88989H61.7211V9.69556ZM63.7729 10.8933H65.2822C65.941 10.9005 66.462 11.0723 66.8452 11.4089C67.2283 11.7455 67.4199 12.2021 67.4199 12.7786C67.4199 13.3586 67.2229 13.8241 66.829 14.175C66.4352 14.526 65.9052 14.7014 65.2392 14.7014H62.7792V8.88989H63.7729V10.8933ZM63.7729 11.7043V13.8904H65.2499C65.6223 13.8904 65.9106 13.7955 66.1147 13.6057C66.3188 13.4124 66.4208 13.1492 66.4208 12.8162C66.4208 12.4939 66.3206 12.2307 66.1201 12.0266C65.9231 11.8189 65.6456 11.7115 65.2875 11.7043H63.7729ZM73.7202 13.9978C74.0746 13.9978 74.3844 13.8904 74.6494 13.6755C74.9143 13.4607 75.0611 13.1921 75.0898 12.8699H76.0297C76.0118 13.2029 75.8972 13.5198 75.686 13.8206C75.4747 14.1213 75.1918 14.3612 74.8373 14.5403C74.4864 14.7193 74.114 14.8088 73.7202 14.8088C72.9288 14.8088 72.2986 14.5457 71.8295 14.0193C71.364 13.4893 71.1313 12.766 71.1313 11.8494V11.6829C71.1313 11.1171 71.2351 10.614 71.4428 10.1736C71.6505 9.73315 71.9477 9.39119 72.3344 9.14771C72.7247 8.90422 73.1848 8.78247 73.7148 8.78247C74.3665 8.78247 74.9072 8.97762 75.3369 9.36792C75.7701 9.75822 76.0011 10.2649 76.0297 10.8879H75.0898C75.0611 10.512 74.9179 10.204 74.6601 9.96411C74.4059 9.72062 74.0908 9.59888 73.7148 9.59888C73.2099 9.59888 72.8178 9.78149 72.5385 10.1467C72.2628 10.5084 72.1249 11.033 72.1249 11.7205V11.9084C72.1249 12.578 72.2628 13.0937 72.5385 13.4553C72.8142 13.817 73.2081 13.9978 73.7202 13.9978ZM79.0483 13.2458L80.4018 8.88989H81.4653L79.1288 15.5984C78.7672 16.5652 78.1925 17.0486 77.4047 17.0486L77.2167 17.0325L76.8461 16.9626V16.157L77.1147 16.1785C77.4513 16.1785 77.7127 16.1104 77.8989 15.9744C78.0886 15.8383 78.2444 15.5894 78.3661 15.2278L78.5864 14.637L76.5131 8.88989H77.5981L79.0483 13.2458ZM83.3828 8.88989V13.8904H85.5097V8.88989H86.5034V13.8904H88.6249V8.88989H89.624V13.8904H90.4404L90.3437 16.4255H89.4521V14.7014H82.3837V8.88989H83.3828ZM93.9316 14.8088C93.1438 14.8088 92.5029 14.551 92.0087 14.0354C91.5146 13.5162 91.2675 12.8233 91.2675 11.9568V11.7742C91.2675 11.1977 91.3767 10.6838 91.5952 10.2327C91.8172 9.77791 92.1251 9.42342 92.519 9.16919C92.9164 8.91138 93.3461 8.78247 93.808 8.78247C94.5636 8.78247 95.1508 9.03133 95.5698 9.52905C95.9887 10.0268 96.1982 10.7393 96.1982 11.6667V12.0803H92.2612C92.2755 12.6532 92.442 13.1169 92.7607 13.4714C93.0829 13.8223 93.4911 13.9978 93.9853 13.9978C94.3362 13.9978 94.6334 13.9262 94.8769 13.783C95.1204 13.6397 95.3334 13.45 95.5161 13.2136L96.123 13.6863C95.636 14.4347 94.9055 14.8088 93.9316 14.8088ZM93.808 9.59888C93.407 9.59888 93.0704 9.74569 92.7983 10.0393C92.5261 10.3293 92.3578 10.7375 92.2934 11.2639H95.2045V11.1887C95.1759 10.6838 95.0398 10.2935 94.7963 10.0178C94.5528 9.73853 94.2234 9.59888 93.808 9.59888ZM99.684 13.9978C100.039 13.9978 100.348 13.8904 100.613 13.6755C100.878 13.4607 101.025 13.1921 101.054 12.8699H101.994C101.976 13.2029 101.861 13.5198 101.65 13.8206C101.439 14.1213 101.156 14.3612 100.801 14.5403C100.45 14.7193 100.078 14.8088 99.684 14.8088C98.8927 14.8088 98.2625 14.5457 97.7934 14.0193C97.3279 13.4893 97.0952 12.766 97.0952 11.8494V11.6829C97.0952 11.1171 97.199 10.614 97.4067 10.1736C97.6144 9.73315 97.9116 9.39119 98.2983 9.14771C98.6886 8.90422 99.1487 8.78247 99.6786 8.78247C100.33 8.78247 100.871 8.97762 101.301 9.36792C101.734 9.75822 101.965 10.2649 101.994 10.8879H101.054C101.025 10.512 100.882 10.204 100.624 9.96411C100.37 9.72062 100.055 9.59888 99.6786 9.59888C99.1738 9.59888 98.7817 9.78149 98.5024 10.1467C98.2267 10.5084 98.0888 11.033 98.0888 11.7205V11.9084C98.0888 12.578 98.2267 13.0937 98.5024 13.4553C98.7781 13.817 99.172 13.9978 99.684 13.9978ZM107.429 9.69556H105.479V14.7014H104.486V9.69556H102.574V8.88989H107.429V9.69556ZM108.487 14.7014V8.88989H110.754C111.527 8.88989 112.12 9.02596 112.532 9.2981C112.947 9.56665 113.155 9.96232 113.155 10.4851C113.155 10.7537 113.074 10.9972 112.913 11.2156C112.752 11.4304 112.514 11.5951 112.199 11.7097C112.55 11.7921 112.831 11.9532 113.042 12.1931C113.257 12.433 113.364 12.7195 113.364 13.0525C113.364 13.586 113.167 13.9942 112.773 14.2771C112.383 14.56 111.83 14.7014 111.114 14.7014H108.487ZM109.481 12.1501V13.9011H111.124C111.54 13.9011 111.85 13.8241 112.054 13.6702C112.261 13.5162 112.365 13.2996 112.365 13.0203C112.365 12.4402 111.939 12.1501 111.087 12.1501H109.481ZM109.481 11.3552H110.765C111.696 11.3552 112.161 11.0831 112.161 10.5388C112.161 9.99455 111.721 9.71346 110.84 9.69556H109.481V11.3552ZM116.517 13.2458L117.871 8.88989H118.934L116.598 15.5984C116.236 16.5652 115.661 17.0486 114.873 17.0486L114.685 17.0325L114.315 16.9626V16.157L114.583 16.1785C114.92 16.1785 115.181 16.1104 115.368 15.9744C115.557 15.8383 115.713 15.5894 115.835 15.2278L116.055 14.637L113.982 8.88989H115.067L116.517 13.2458ZM120.911 11.3552H122.307C122.382 10.5818 122.656 9.96053 123.129 9.49146C123.605 9.0188 124.205 8.78247 124.928 8.78247C125.687 8.78247 126.309 9.03849 126.792 9.55054C127.275 10.0626 127.537 10.7286 127.576 11.5486L127.581 11.8601C127.581 12.4259 127.47 12.9361 127.248 13.3909C127.026 13.8456 126.715 14.1965 126.314 14.4436C125.913 14.6871 125.455 14.8088 124.939 14.8088C124.191 14.8088 123.578 14.5653 123.102 14.0784C122.626 13.5878 122.359 12.9522 122.302 12.1716H120.911V14.7014H119.917V8.88989H120.911V11.3552ZM123.285 11.8601C123.285 12.5046 123.433 13.0221 123.73 13.4124C124.031 13.8027 124.434 13.9978 124.939 13.9978C125.444 13.9978 125.843 13.7991 126.137 13.4016C126.434 13.0042 126.582 12.4509 126.582 11.7419C126.582 11.1082 126.432 10.5925 126.131 10.1951C125.831 9.79761 125.429 9.59888 124.928 9.59888C124.434 9.59888 124.037 9.79403 123.736 10.1843C123.435 10.5746 123.285 11.1332 123.285 11.8601ZM129.832 8.88989V13.8904H131.959V8.88989H132.953V13.8904H135.074V8.88989H136.073V13.8904H136.89L136.793 16.4255H135.901V14.7014H128.833V8.88989H129.832ZM139.806 13.2458L141.16 8.88989H142.223L139.887 15.5984C139.525 16.5652 138.95 17.0486 138.163 17.0486L137.975 17.0325L137.604 16.9626V16.157L137.872 16.1785C138.209 16.1785 138.47 16.1104 138.657 15.9744C138.846 15.8383 139.002 15.5894 139.124 15.2278L139.344 14.637L137.271 8.88989H138.356L139.806 13.2458ZM144.2 11.3552H145.596C145.671 10.5818 145.945 9.96053 146.418 9.49146C146.894 9.0188 147.494 8.78247 148.217 8.78247C148.976 8.78247 149.598 9.03849 150.081 9.55054C150.564 10.0626 150.826 10.7286 150.865 11.5486L150.871 11.8601C150.871 12.4259 150.76 12.9361 150.538 13.3909C150.316 13.8456 150.004 14.1965 149.603 14.4436C149.202 14.6871 148.744 14.8088 148.228 14.8088C147.48 14.8088 146.867 14.5653 146.391 14.0784C145.915 13.5878 145.648 12.9522 145.591 12.1716H144.2V14.7014H143.206V8.88989H144.2V11.3552ZM146.574 11.8601C146.574 12.5046 146.722 13.0221 147.019 13.4124C147.32 13.8027 147.723 13.9978 148.228 13.9978C148.733 13.9978 149.132 13.7991 149.426 13.4016C149.723 13.0042 149.872 12.4509 149.872 11.7419C149.872 11.1082 149.721 10.5925 149.42 10.1951C149.12 9.79761 148.719 9.59888 148.217 9.59888C147.723 9.59888 147.326 9.79403 147.025 10.1843C146.724 10.5746 146.574 11.1332 146.574 11.8601Z" fill="#555555"/>
</svg>
