<svg width="170" height="22" viewBox="0 0 170 22" fill="none" xmlns="http://www.w3.org/2000/svg">
<rect x="0.690369" y="0.5" width="168.583" height="21" rx="1.5" fill="#FBE4E5" stroke="#E6B3B5"/>
<path d="M63.384 10.7173C63.384 11.4836 63.2551 12.1532 62.9973 12.7261C62.7395 13.2954 62.3743 13.7305 61.9016 14.0312C61.429 14.332 60.8775 14.4824 60.2473 14.4824C59.6314 14.4824 59.0854 14.332 58.6091 14.0312C58.1329 13.7269 57.7623 13.2954 57.4973 12.7368C57.2359 12.1746 57.1016 11.5247 57.0945 10.7871V10.2231C57.0945 9.47119 57.2252 8.80697 57.4866 8.23047C57.748 7.65397 58.1168 7.21354 58.593 6.90918C59.0728 6.60124 59.6207 6.44727 60.2366 6.44727C60.8632 6.44727 61.4146 6.59945 61.8909 6.90381C62.3707 7.20459 62.7395 7.64323 62.9973 8.21973C63.2551 8.79264 63.384 9.46045 63.384 10.2231V10.7173ZM62.3582 10.2124C62.3582 9.28499 62.172 8.57422 61.7996 8.08008C61.4272 7.58236 60.9062 7.3335 60.2366 7.3335C59.5849 7.3335 59.071 7.58236 58.6951 8.08008C58.3227 8.57422 58.1311 9.26172 58.1204 10.1426V10.7173C58.1204 11.616 58.3083 12.3232 58.6843 12.8389C59.0639 13.3509 59.5849 13.6069 60.2473 13.6069C60.9133 13.6069 61.429 13.3652 61.7942 12.8818C62.1594 12.3949 62.3474 11.6984 62.3582 10.7925V10.2124ZM69.0935 9.36914H67.1438V14.375H66.1501V9.36914H64.238V8.56348H69.0935V9.36914ZM71.8704 11.8989H71.1453V14.375H70.1462V8.56348H71.1453V11.0234H71.7952L73.7502 8.56348H74.9534L72.6545 11.3564L75.1467 14.375H73.8845L71.8704 11.8989ZM80.7649 8.56348V14.375H79.7659V9.38525H77.7893L77.6711 11.5605C77.6067 12.5596 77.4384 13.2739 77.1663 13.7036C76.8977 14.1333 76.4698 14.3571 75.8826 14.375H75.4851V13.4995L75.7698 13.478C76.092 13.4422 76.323 13.256 76.4626 12.9194C76.6023 12.5828 76.6918 11.9598 76.7312 11.0503L76.8386 8.56348H80.7649ZM82.0969 11.4155C82.0969 10.8462 82.2079 10.3341 82.4299 9.87939C82.6555 9.42464 82.967 9.07373 83.3645 8.82666C83.7655 8.57959 84.2221 8.45605 84.7341 8.45605C85.5255 8.45605 86.1646 8.72998 86.6516 9.27783C87.1422 9.82568 87.3875 10.5544 87.3875 11.4639V11.5337C87.3875 12.0994 87.2782 12.6079 87.0598 13.0591C86.845 13.5067 86.5352 13.8558 86.1306 14.1064C85.7296 14.3571 85.2677 14.4824 84.7449 14.4824C83.9571 14.4824 83.318 14.2085 82.8274 13.6606C82.3404 13.1128 82.0969 12.3877 82.0969 11.4854V11.4155ZM83.0959 11.5337C83.0959 12.1782 83.2445 12.6956 83.5417 13.0859C83.8425 13.4762 84.2436 13.6714 84.7449 13.6714C85.2498 13.6714 85.6508 13.4744 85.948 13.0806C86.2452 12.6831 86.3938 12.1281 86.3938 11.4155C86.3938 10.7782 86.2416 10.2625 85.9373 9.86865C85.6365 9.47119 85.2354 9.27246 84.7341 9.27246C84.2436 9.27246 83.8479 9.46761 83.5471 9.85791C83.2463 10.2482 83.0959 10.8068 83.0959 11.5337ZM93.3816 14.375H92.3879V11.8936H89.7185V14.375H88.7195V8.56348H89.7185V11.0825H92.3879V8.56348H93.3816V14.375ZM98.7419 8.56348H99.7356V14.375H98.7419V10.1372L96.0618 14.375H95.0681V8.56348H96.0618V12.8066L98.7419 8.56348ZM105.649 9.36914H103.699V14.375H102.706V9.36914H100.794V8.56348H105.649V9.36914ZM107.701 10.5669H109.21C109.869 10.5741 110.39 10.7459 110.773 11.0825C111.156 11.4191 111.348 11.8757 111.348 12.4521C111.348 13.0322 111.151 13.4977 110.757 13.8486C110.363 14.1995 109.833 14.375 109.167 14.375H106.707V8.56348H107.701V10.5669ZM107.701 11.3779V13.564H109.178C109.55 13.564 109.839 13.4691 110.043 13.2793C110.247 13.0859 110.349 12.8228 110.349 12.4897C110.349 12.1675 110.249 11.9043 110.048 11.7002C109.851 11.4925 109.574 11.3851 109.216 11.3779H107.701Z" fill="#555555"/>
</svg>
