<svg width="171" height="23" viewBox="0 0 171 23" fill="none" xmlns="http://www.w3.org/2000/svg">
<rect x="0.918091" y="0.826416" width="168.583" height="21" rx="1.5" fill="#F8F8F8" stroke="#DADADA"/>
<path d="M30.4995 8.9812C30.4995 8.56584 30.3473 8.23641 30.0429 7.99292C29.7421 7.74585 29.3178 7.62231 28.77 7.62231C28.3116 7.62231 27.9267 7.74943 27.6152 8.00366C27.3072 8.25431 27.1533 8.56584 27.1533 8.93823H26.122C26.122 8.52287 26.2348 8.15047 26.4604 7.82104C26.6896 7.49162 27.0082 7.2356 27.4164 7.05298C27.8246 6.86678 28.2758 6.77368 28.77 6.77368C29.6437 6.77368 30.3222 6.97062 30.8056 7.3645C31.289 7.7548 31.5307 8.29907 31.5307 8.99731C31.5307 9.35897 31.4197 9.6884 31.1977 9.9856C30.9757 10.2828 30.666 10.5173 30.2685 10.6892C31.1887 10.9972 31.6489 11.6077 31.6489 12.5208C31.6489 13.2226 31.3875 13.7794 30.8647 14.1912C30.3419 14.6029 29.6437 14.8088 28.77 14.8088C28.2508 14.8088 27.7781 14.7175 27.352 14.5349C26.9295 14.3487 26.6 14.0855 26.3637 13.7454C26.1274 13.4052 26.0092 13.0006 26.0092 12.5315H27.0405C27.0405 12.9433 27.2034 13.287 27.5292 13.5627C27.8551 13.8349 28.2687 13.9709 28.77 13.9709C29.3321 13.9709 29.7797 13.8403 30.1127 13.5789C30.4493 13.3175 30.6176 12.9719 30.6176 12.5422C30.6176 11.6256 30.0501 11.1583 28.915 11.1404H27.9482V10.2917H28.9096C29.4324 10.281 29.8281 10.1628 30.0966 9.93726C30.3652 9.71167 30.4995 9.39299 30.4995 8.9812ZM36.4506 14.7014C36.3933 14.5868 36.3468 14.3827 36.311 14.0891C35.8491 14.5689 35.2976 14.8088 34.6567 14.8088C34.0838 14.8088 33.6129 14.6477 33.2441 14.3254C32.8788 13.9996 32.6962 13.5878 32.6962 13.0901C32.6962 12.4849 32.9254 12.0159 33.3837 11.6829C33.8456 11.3463 34.4938 11.178 35.3281 11.178H36.2949V10.7214C36.2949 10.3741 36.191 10.0984 35.9833 9.89429C35.7757 9.6866 35.4695 9.58276 35.0649 9.58276C34.7104 9.58276 34.4132 9.67228 34.1733 9.85132C33.9334 10.0304 33.8134 10.247 33.8134 10.5012H32.8144C32.8144 10.2112 32.9164 9.93188 33.1205 9.66333C33.3282 9.39119 33.6075 9.17635 33.9584 9.0188C34.3129 8.86125 34.7014 8.78247 35.124 8.78247C35.7936 8.78247 36.3181 8.95076 36.6977 9.28735C37.0773 9.62036 37.2742 10.0805 37.2885 10.6677V13.3425C37.2885 13.8761 37.3565 14.3004 37.4926 14.6155V14.7014H36.4506ZM34.8017 13.9441C35.1132 13.9441 35.4086 13.8635 35.6879 13.7024C35.9672 13.5413 36.1695 13.3318 36.2949 13.074V11.8816H35.5161C34.2986 11.8816 33.6899 12.2379 33.6899 12.9504C33.6899 13.262 33.7937 13.5055 34.0014 13.6809C34.2091 13.8564 34.4759 13.9441 34.8017 13.9441ZM43.5995 14.7014H42.6059V9.71167H39.9311V14.7014H38.9321V8.88989H43.5995V14.7014ZM44.9316 11.7419C44.9316 11.1726 45.0426 10.6606 45.2646 10.2058C45.4902 9.75106 45.8017 9.40015 46.1992 9.15308C46.6002 8.90601 47.0567 8.78247 47.5688 8.78247C48.3601 8.78247 48.9993 9.0564 49.4863 9.60425C49.9768 10.1521 50.2221 10.8808 50.2221 11.7903V11.8601C50.2221 12.4259 50.1129 12.9343 49.8945 13.3855C49.6796 13.8331 49.3699 14.1822 48.9653 14.4329C48.5642 14.6835 48.1023 14.8088 47.5795 14.8088C46.7918 14.8088 46.1526 14.5349 45.662 13.9871C45.1751 13.4392 44.9316 12.7141 44.9316 11.8118V11.7419ZM45.9306 11.8601C45.9306 12.5046 46.0792 13.0221 46.3764 13.4124C46.6772 13.8027 47.0782 13.9978 47.5795 13.9978C48.0844 13.9978 48.4855 13.8009 48.7827 13.407C49.0799 13.0095 49.2285 12.4545 49.2285 11.7419C49.2285 11.1046 49.0763 10.5889 48.7719 10.1951C48.4711 9.79761 48.0701 9.59888 47.5688 9.59888C47.0782 9.59888 46.6826 9.79403 46.3818 10.1843C46.081 10.5746 45.9306 11.1332 45.9306 11.8601ZM56.1464 8.88989V14.7014H55.1474V9.71167H53.1708L53.0527 11.887C52.9882 12.886 52.8199 13.6003 52.5478 14.03C52.2792 14.4597 51.8513 14.6835 51.2641 14.7014H50.8666V13.8259L51.1513 13.8044C51.4736 13.7686 51.7045 13.5824 51.8442 13.2458C51.9838 12.9093 52.0733 12.2862 52.1127 11.3767L52.2202 8.88989H56.1464ZM62.4897 14.7014H61.496V12.22H58.8266V14.7014H57.8276V8.88989H58.8266V11.4089H61.496V8.88989H62.4897V14.7014ZM67.85 8.88989H68.8437V14.7014H67.85V10.4636L65.1699 14.7014H64.1762V8.88989H65.1699V13.1331L67.85 8.88989ZM74.7573 9.69556H72.8076V14.7014H71.8139V9.69556H69.9018V8.88989H74.7573V9.69556ZM76.809 10.8933H78.3183C78.9772 10.9005 79.4981 11.0723 79.8813 11.4089C80.2644 11.7455 80.456 12.2021 80.456 12.7786C80.456 13.3586 80.2591 13.8241 79.8652 14.175C79.4713 14.526 78.9413 14.7014 78.2753 14.7014H75.8154V8.88989H76.809V10.8933ZM76.809 11.7043V13.8904H78.2861C78.6585 13.8904 78.9467 13.7955 79.1508 13.6057C79.3549 13.4124 79.457 13.1492 79.457 12.8162C79.457 12.4939 79.3567 12.2307 79.1562 12.0266C78.9592 11.8189 78.6817 11.7115 78.3237 11.7043H76.809ZM89.1786 14.7014H88.185V9.71167H85.5102V14.7014H84.5112V8.88989H89.1786V14.7014ZM90.5107 11.7419C90.5107 11.1726 90.6217 10.6606 90.8437 10.2058C91.0693 9.75106 91.3808 9.40015 91.7783 9.15308C92.1793 8.90601 92.6358 8.78247 93.1479 8.78247C93.9392 8.78247 94.5784 9.0564 95.0654 9.60425C95.5559 10.1521 95.8012 10.8808 95.8012 11.7903V11.8601C95.8012 12.4259 95.692 12.9343 95.4736 13.3855C95.2587 13.8331 94.949 14.1822 94.5444 14.4329C94.1433 14.6835 93.6814 14.8088 93.1586 14.8088C92.3709 14.8088 91.7317 14.5349 91.2411 13.9871C90.7542 13.4392 90.5107 12.7141 90.5107 11.8118V11.7419ZM91.5097 11.8601C91.5097 12.5046 91.6583 13.0221 91.9555 13.4124C92.2563 13.8027 92.6573 13.9978 93.1586 13.9978C93.6635 13.9978 94.0646 13.8009 94.3618 13.407C94.659 13.0095 94.8076 12.4545 94.8076 11.7419C94.8076 11.1046 94.6554 10.5889 94.351 10.1951C94.0502 9.79761 93.6492 9.59888 93.1479 9.59888C92.6573 9.59888 92.2617 9.79403 91.9609 10.1843C91.6601 10.5746 91.5097 11.1332 91.5097 11.8601ZM100.861 8.88989V13.8904H102.988V8.88989H103.981V13.8904H106.103V8.88989H107.102V14.7014H99.8618V8.88989H100.861ZM112.258 14.7014C112.201 14.5868 112.154 14.3827 112.119 14.0891C111.657 14.5689 111.105 14.8088 110.464 14.8088C109.891 14.8088 109.421 14.6477 109.052 14.3254C108.686 13.9996 108.504 13.5878 108.504 13.0901C108.504 12.4849 108.733 12.0159 109.191 11.6829C109.653 11.3463 110.301 11.178 111.136 11.178H112.102V10.7214C112.102 10.3741 111.999 10.0984 111.791 9.89429C111.583 9.6866 111.277 9.58276 110.872 9.58276C110.518 9.58276 110.221 9.67228 109.981 9.85132C109.741 10.0304 109.621 10.247 109.621 10.5012H108.622C108.622 10.2112 108.724 9.93188 108.928 9.66333C109.136 9.39119 109.415 9.17635 109.766 9.0188C110.121 8.86125 110.509 8.78247 110.932 8.78247C111.601 8.78247 112.126 8.95076 112.505 9.28735C112.885 9.62036 113.082 10.0805 113.096 10.6677V13.3425C113.096 13.8761 113.164 14.3004 113.3 14.6155V14.7014H112.258ZM110.609 13.9441C110.921 13.9441 111.216 13.8635 111.496 13.7024C111.775 13.5413 111.977 13.3318 112.102 13.074V11.8816H111.324C110.106 11.8816 109.497 12.2379 109.497 12.9504C109.497 13.262 109.601 13.5055 109.809 13.6809C110.017 13.8564 110.283 13.9441 110.609 13.9441ZM117.205 9.2229C117.935 9.2229 118.519 9.46818 118.956 9.95874C119.396 10.4457 119.617 11.0885 119.617 11.887V11.9783C119.617 12.5261 119.511 13.0167 119.3 13.45C119.088 13.8796 118.784 14.2144 118.387 14.4543C117.993 14.6907 117.538 14.8088 117.022 14.8088C116.242 14.8088 115.613 14.5492 115.137 14.03C114.661 13.5072 114.423 12.8072 114.423 11.9299V11.4465C114.423 10.2255 114.648 9.25513 115.1 8.5354C115.554 7.81567 116.224 7.37703 117.108 7.21948C117.61 7.12996 117.948 7.02075 118.123 6.89185C118.299 6.76294 118.387 6.58569 118.387 6.36011H119.203C119.203 6.8077 119.101 7.15682 118.897 7.40747C118.696 7.65812 118.374 7.83537 117.93 7.93921L117.189 8.10571C116.598 8.24536 116.154 8.48169 115.857 8.8147C115.563 9.14412 115.372 9.58455 115.282 10.136C115.809 9.52726 116.449 9.2229 117.205 9.2229ZM117.012 10.0393C116.525 10.0393 116.138 10.204 115.852 10.5334C115.565 10.8593 115.422 11.3123 115.422 11.8923V11.9783C115.422 12.6013 115.565 13.0955 115.852 13.4607C116.142 13.8223 116.532 14.0032 117.022 14.0032C117.517 14.0032 117.907 13.8206 118.193 13.4553C118.48 13.0901 118.623 12.5566 118.623 11.8547C118.623 11.3069 118.478 10.8682 118.188 10.5388C117.901 10.2058 117.509 10.0393 117.012 10.0393ZM125.498 8.88989V14.7014H124.499V9.71167H122.522L122.404 11.887C122.34 12.886 122.171 13.6003 121.899 14.03C121.631 14.4597 121.203 14.6835 120.616 14.7014H120.218V13.8259L120.503 13.8044C120.825 13.7686 121.056 13.5824 121.196 13.2458C121.335 12.9093 121.425 12.2862 121.464 11.3767L121.572 8.88989H125.498ZM126.83 11.7419C126.83 11.1726 126.941 10.6606 127.163 10.2058C127.389 9.75106 127.7 9.40015 128.098 9.15308C128.499 8.90601 128.955 8.78247 129.467 8.78247C130.259 8.78247 130.898 9.0564 131.385 9.60425C131.875 10.1521 132.121 10.8808 132.121 11.7903V11.8601C132.121 12.4259 132.011 12.9343 131.793 13.3855C131.578 13.8331 131.268 14.1822 130.864 14.4329C130.463 14.6835 130.001 14.8088 129.478 14.8088C128.69 14.8088 128.051 14.5349 127.56 13.9871C127.074 13.4392 126.83 12.7141 126.83 11.8118V11.7419ZM127.829 11.8601C127.829 12.5046 127.978 13.0221 128.275 13.4124C128.576 13.8027 128.977 13.9978 129.478 13.9978C129.983 13.9978 130.384 13.8009 130.681 13.407C130.978 13.0095 131.127 12.4545 131.127 11.7419C131.127 11.1046 130.975 10.5889 130.67 10.1951C130.37 9.79761 129.969 9.59888 129.467 9.59888C128.977 9.59888 128.581 9.79403 128.28 10.1843C127.979 10.5746 127.829 11.1332 127.829 11.8601ZM138.115 14.7014H137.121V12.22H134.452V14.7014H133.453V8.88989H134.452V11.4089H137.121V8.88989H138.115V14.7014ZM141.617 13.2458L142.97 8.88989H144.034L141.697 15.5984C141.336 16.5652 140.761 17.0486 139.973 17.0486L139.785 17.0325L139.414 16.9626V16.157L139.683 16.1785C140.02 16.1785 140.281 16.1104 140.467 15.9744C140.657 15.8383 140.813 15.5894 140.935 15.2278L141.155 14.637L139.081 8.88989H140.166L141.617 13.2458Z" fill="#555555"/>
</svg>
