<svg width="126" height="23" viewBox="0 0 126 23" fill="none" xmlns="http://www.w3.org/2000/svg">
<rect x="0.918091" y="0.826416" width="124" height="21" rx="1.5" fill="#F8F8F8" stroke="#DADADA"/>
<path d="M16.0249 12.22C15.9282 13.0471 15.6221 13.6863 15.1064 14.1375C14.5944 14.585 13.9123 14.8088 13.0601 14.8088C12.1362 14.8088 11.395 14.4776 10.8364 13.8152C10.2814 13.1528 10.0039 12.2665 10.0039 11.1565V10.4045C10.0039 9.67765 10.1328 9.03849 10.3906 8.48706C10.652 7.93563 11.0208 7.5131 11.4971 7.21948C11.9733 6.92228 12.5247 6.77368 13.1514 6.77368C13.9821 6.77368 14.6481 7.00643 15.1494 7.47192C15.6507 7.93384 15.9425 8.57479 16.0249 9.39478H14.9883C14.8988 8.77173 14.7036 8.32056 14.4028 8.04126C14.1056 7.76196 13.6885 7.62231 13.1514 7.62231C12.4925 7.62231 11.9751 7.8658 11.5991 8.35278C11.2267 8.83976 11.0405 9.53263 11.0405 10.4314V11.1887C11.0405 12.0374 11.2178 12.7123 11.5723 13.2136C11.9268 13.7149 12.4227 13.9656 13.0601 13.9656C13.633 13.9656 14.0716 13.8367 14.376 13.5789C14.6839 13.3175 14.888 12.8645 14.9883 12.22H16.0249ZM19.0918 12.2253H18.3667V14.7014H17.3677V8.88989H18.3667V11.3499H19.0166L20.9717 8.88989H22.1748L19.876 11.6829L22.3682 14.7014H21.106L19.0918 12.2253ZM22.8408 11.7419C22.8408 11.1726 22.9518 10.6606 23.1738 10.2058C23.3994 9.75106 23.7109 9.40015 24.1084 9.15308C24.5094 8.90601 24.966 8.78247 25.478 8.78247C26.2694 8.78247 26.9085 9.0564 27.3955 9.60425C27.8861 10.1521 28.1313 10.8808 28.1313 11.7903V11.8601C28.1313 12.4259 28.0221 12.9343 27.8037 13.3855C27.5889 13.8331 27.2791 14.1822 26.8745 14.4329C26.4735 14.6835 26.0116 14.8088 25.4888 14.8088C24.701 14.8088 24.0618 14.5349 23.5713 13.9871C23.0843 13.4392 22.8408 12.7141 22.8408 11.8118V11.7419ZM23.8398 11.8601C23.8398 12.5046 23.9884 13.0221 24.2856 13.4124C24.5864 13.8027 24.9875 13.9978 25.4888 13.9978C25.9937 13.9978 26.3947 13.8009 26.6919 13.407C26.9891 13.0095 27.1377 12.4545 27.1377 11.7419C27.1377 11.1046 26.9855 10.5889 26.6812 10.1951C26.3804 9.79761 25.9793 9.59888 25.478 9.59888C24.9875 9.59888 24.5918 9.79403 24.291 10.1843C23.9902 10.5746 23.8398 11.1332 23.8398 11.8601ZM34.1309 14.7014H33.1372V9.71167H30.4624V14.7014H29.4634V8.88989H34.1309V14.7014ZM39.4858 8.88989H40.4795V14.7014H39.4858V10.4636L36.8057 14.7014H35.812V8.88989H36.8057V13.1331L39.4858 8.88989ZM46.9839 11.8601C46.9839 12.7445 46.7816 13.4571 46.377 13.9978C45.9723 14.5385 45.4245 14.8088 44.7334 14.8088C44.028 14.8088 43.473 14.585 43.0684 14.1375V16.9358H42.0747V8.88989H42.9824L43.0308 9.53442C43.4354 9.03312 43.9976 8.78247 44.7173 8.78247C45.4155 8.78247 45.967 9.04565 46.3716 9.57202C46.7798 10.0984 46.9839 10.8306 46.9839 11.7688V11.8601ZM45.9902 11.7473C45.9902 11.092 45.8506 10.5746 45.5713 10.1951C45.292 9.81551 44.9089 9.62573 44.4219 9.62573C43.8203 9.62573 43.3691 9.8925 43.0684 10.426V13.2029C43.3656 13.7328 43.8203 13.9978 44.4326 13.9978C44.9089 13.9978 45.2866 13.8098 45.5659 13.4338C45.8488 13.0543 45.9902 12.4921 45.9902 11.7473ZM47.9883 11.7419C47.9883 11.1726 48.0993 10.6606 48.3213 10.2058C48.5469 9.75106 48.8584 9.40015 49.2559 9.15308C49.6569 8.90601 50.1134 8.78247 50.6255 8.78247C51.4168 8.78247 52.056 9.0564 52.543 9.60425C53.0335 10.1521 53.2788 10.8808 53.2788 11.7903V11.8601C53.2788 12.4259 53.1696 12.9343 52.9512 13.3855C52.7363 13.8331 52.4266 14.1822 52.022 14.4329C51.6209 14.6835 51.159 14.8088 50.6362 14.8088C49.8485 14.8088 49.2093 14.5349 48.7188 13.9871C48.2318 13.4392 47.9883 12.7141 47.9883 11.8118V11.7419ZM48.9873 11.8601C48.9873 12.5046 49.1359 13.0221 49.4331 13.4124C49.7339 13.8027 50.1349 13.9978 50.6362 13.9978C51.1411 13.9978 51.5422 13.8009 51.8394 13.407C52.1366 13.0095 52.2852 12.4545 52.2852 11.7419C52.2852 11.1046 52.133 10.5889 51.8286 10.1951C51.5278 9.79761 51.1268 9.59888 50.6255 9.59888C50.1349 9.59888 49.7393 9.79403 49.4385 10.1843C49.1377 10.5746 48.9873 11.1332 48.9873 11.8601ZM54.6162 14.7014V8.88989H56.8828C57.6562 8.88989 58.2489 9.02596 58.6606 9.2981C59.076 9.56665 59.2837 9.96232 59.2837 10.4851C59.2837 10.7537 59.2031 10.9972 59.042 11.2156C58.8809 11.4304 58.6427 11.5951 58.3276 11.7097C58.6785 11.7921 58.9596 11.9532 59.1709 12.1931C59.3857 12.433 59.4932 12.7195 59.4932 13.0525C59.4932 13.586 59.2962 13.9942 58.9023 14.2771C58.512 14.56 57.9588 14.7014 57.2427 14.7014H54.6162ZM55.6099 12.1501V13.9011H57.2534C57.6688 13.9011 57.9785 13.8241 58.1826 13.6702C58.3903 13.5162 58.4941 13.2996 58.4941 13.0203C58.4941 12.4402 58.068 12.1501 57.2158 12.1501H55.6099ZM55.6099 11.3552H56.8936C57.8245 11.3552 58.29 11.0831 58.29 10.5388C58.29 9.99455 57.8496 9.71346 56.9688 9.69556H55.6099V11.3552ZM64.397 14.7014C64.3397 14.5868 64.2931 14.3827 64.2573 14.0891C63.7954 14.5689 63.244 14.8088 62.603 14.8088C62.0301 14.8088 61.5592 14.6477 61.1904 14.3254C60.8252 13.9996 60.6426 13.5878 60.6426 13.0901C60.6426 12.4849 60.8717 12.0159 61.3301 11.6829C61.792 11.3463 62.4401 11.178 63.2744 11.178H64.2412V10.7214C64.2412 10.3741 64.1374 10.0984 63.9297 9.89429C63.722 9.6866 63.4159 9.58276 63.0112 9.58276C62.6567 9.58276 62.3595 9.67228 62.1196 9.85132C61.8797 10.0304 61.7598 10.247 61.7598 10.5012H60.7607C60.7607 10.2112 60.8628 9.93188 61.0669 9.66333C61.2746 9.39119 61.5539 9.17635 61.9048 9.0188C62.2593 8.86125 62.6478 8.78247 63.0703 8.78247C63.7399 8.78247 64.2645 8.95076 64.644 9.28735C65.0236 9.62036 65.2205 10.0805 65.2349 10.6677V13.3425C65.2349 13.8761 65.3029 14.3004 65.439 14.6155V14.7014H64.397ZM62.748 13.9441C63.0596 13.9441 63.355 13.8635 63.6343 13.7024C63.9136 13.5413 64.1159 13.3318 64.2412 13.074V11.8816H63.4624C62.245 11.8816 61.6362 12.2379 61.6362 12.9504C61.6362 13.262 61.7401 13.5055 61.9478 13.6809C62.1554 13.8564 62.4222 13.9441 62.748 13.9441ZM71.0249 9.69556H69.0752V14.7014H68.0815V9.69556H66.1694V8.88989H71.0249V9.69556ZM73.0767 10.8933H74.5859C75.2448 10.9005 75.7658 11.0723 76.1489 11.4089C76.5321 11.7455 76.7236 12.2021 76.7236 12.7786C76.7236 13.3586 76.5267 13.8241 76.1328 14.175C75.7389 14.526 75.209 14.7014 74.543 14.7014H72.083V8.88989H73.0767V10.8933ZM73.0767 11.7043V13.8904H74.5537C74.9261 13.8904 75.2144 13.7955 75.4185 13.6057C75.6226 13.4124 75.7246 13.1492 75.7246 12.8162C75.7246 12.4939 75.6243 12.2307 75.4238 12.0266C75.2269 11.8189 74.9494 11.7115 74.5913 11.7043H73.0767ZM83.0239 13.9978C83.3784 13.9978 83.6882 13.8904 83.9531 13.6755C84.2181 13.4607 84.3649 13.1921 84.3936 12.8699H85.3335C85.3156 13.2029 85.201 13.5198 84.9897 13.8206C84.7785 14.1213 84.4956 14.3612 84.1411 14.5403C83.7902 14.7193 83.4178 14.8088 83.0239 14.8088C82.2326 14.8088 81.6024 14.5457 81.1333 14.0193C80.6678 13.4893 80.4351 12.766 80.4351 11.8494V11.6829C80.4351 11.1171 80.5389 10.614 80.7466 10.1736C80.9543 9.73315 81.2515 9.39119 81.6382 9.14771C82.0285 8.90422 82.4886 8.78247 83.0186 8.78247C83.6702 8.78247 84.2109 8.97762 84.6406 9.36792C85.0739 9.75822 85.3049 10.2649 85.3335 10.8879H84.3936C84.3649 10.512 84.2217 10.204 83.9639 9.96411C83.7096 9.72062 83.3945 9.59888 83.0186 9.59888C82.5137 9.59888 82.1216 9.78149 81.8423 10.1467C81.5666 10.5084 81.4287 11.033 81.4287 11.7205V11.9084C81.4287 12.578 81.5666 13.0937 81.8423 13.4553C82.118 13.817 82.5119 13.9978 83.0239 13.9978ZM90.769 9.69556H88.8193V14.7014H87.8257V9.69556H85.9136V8.88989H90.769V9.69556ZM96.645 11.8601C96.645 12.7445 96.4427 13.4571 96.0381 13.9978C95.6335 14.5385 95.0856 14.8088 94.3945 14.8088C93.6891 14.8088 93.1341 14.585 92.7295 14.1375V16.9358H91.7358V8.88989H92.6436L92.6919 9.53442C93.0965 9.03312 93.6587 8.78247 94.3784 8.78247C95.0767 8.78247 95.6281 9.04565 96.0327 9.57202C96.4409 10.0984 96.645 10.8306 96.645 11.7688V11.8601ZM95.6514 11.7473C95.6514 11.092 95.5117 10.5746 95.2324 10.1951C94.9531 9.81551 94.57 9.62573 94.083 9.62573C93.4814 9.62573 93.0303 9.8925 92.7295 10.426V13.2029C93.0267 13.7328 93.4814 13.9978 94.0938 13.9978C94.57 13.9978 94.9478 13.8098 95.2271 13.4338C95.5099 13.0543 95.6514 12.4921 95.6514 11.7473ZM97.6494 11.7419C97.6494 11.1726 97.7604 10.6606 97.9824 10.2058C98.208 9.75106 98.5195 9.40015 98.917 9.15308C99.318 8.90601 99.7746 8.78247 100.287 8.78247C101.078 8.78247 101.717 9.0564 102.204 9.60425C102.695 10.1521 102.94 10.8808 102.94 11.7903V11.8601C102.94 12.4259 102.831 12.9343 102.612 13.3855C102.397 13.8331 102.088 14.1822 101.683 14.4329C101.282 14.6835 100.82 14.8088 100.297 14.8088C99.5096 14.8088 98.8704 14.5349 98.3799 13.9871C97.8929 13.4392 97.6494 12.7141 97.6494 11.8118V11.7419ZM98.6484 11.8601C98.6484 12.5046 98.797 13.0221 99.0942 13.4124C99.395 13.8027 99.7961 13.9978 100.297 13.9978C100.802 13.9978 101.203 13.8009 101.5 13.407C101.798 13.0095 101.946 12.4545 101.946 11.7419C101.946 11.1046 101.794 10.5889 101.49 10.1951C101.189 9.79761 100.788 9.59888 100.287 9.59888C99.7961 9.59888 99.4004 9.79403 99.0996 10.1843C98.7988 10.5746 98.6484 11.1332 98.6484 11.8601ZM105.996 12.2253H105.271V14.7014H104.272V8.88989H105.271V11.3499H105.921L107.876 8.88989H109.079L106.78 11.6829L109.272 14.7014H108.01L105.996 12.2253ZM112.028 13.2458L113.381 8.88989H114.445L112.108 15.5984C111.747 16.5652 111.172 17.0486 110.384 17.0486L110.196 17.0325L109.826 16.9626V16.157L110.094 16.1785C110.431 16.1785 110.692 16.1104 110.878 15.9744C111.068 15.8383 111.224 15.5894 111.346 15.2278L111.566 14.637L109.493 8.88989H110.578L112.028 13.2458Z" fill="#555555"/>
</svg>
