<svg width="44" height="23" viewBox="0 0 44 23" fill="none" xmlns="http://www.w3.org/2000/svg">
<rect x="0.590088" y="1.43494" width="42" height="21" rx="1.5" fill="#F8F8F8" stroke="#DADADA"/>
<path fill-rule="evenodd" clip-rule="evenodd" d="M18.8859 7.5821C18.8859 7.07895 19.2938 6.67107 19.797 6.67107H24.1856C24.6887 6.67107 25.0966 7.07895 25.0966 7.5821L25.0966 7.5821V8.51126H27.7419V10.2134H26.7988V17.2752H25.9477V18.1263H18.0349V17.2752H17.1837L17.1837 10.2134H16.2407V8.51126H18.8859V7.5821ZM25.0966 16.4241V11.1056H24.3221V16.4241H25.0966ZM22.62 16.4241L22.62 11.1056H21.5721L21.5721 16.4241H22.62ZM19.87 16.4241H18.8859L18.8859 11.1056H19.87L19.87 16.4241ZM19.797 7.5821H24.1856V8.51126H19.797V7.5821Z" fill="#555555"/>
</svg>
