<svg width="104" height="22" viewBox="0 0 104 22" fill="none" xmlns="http://www.w3.org/2000/svg">
<rect x="0.5" y="0.5" width="103" height="21" rx="1.5" fill="#F8F8F8" stroke="#DADADA"/>
<path d="M33.2357 14.375H32.1991V7.40332H28.3427V14.375H27.3114V6.55469H33.2357V14.375ZM39.869 11.5337C39.869 12.4181 39.6667 13.1307 39.2621 13.6714C38.8575 14.2121 38.3096 14.4824 37.6185 14.4824C36.9131 14.4824 36.3581 14.2586 35.9535 13.811V16.6094H34.9598V8.56348H35.8676L35.9159 9.20801C36.3205 8.70671 36.8827 8.45605 37.6024 8.45605C38.3007 8.45605 38.8521 8.71924 39.2567 9.24561C39.6649 9.77197 39.869 10.5042 39.869 11.4424V11.5337ZM38.8754 11.4209C38.8754 10.7656 38.7357 10.2482 38.4564 9.86865C38.1771 9.4891 37.794 9.29932 37.307 9.29932C36.7054 9.29932 36.2543 9.56608 35.9535 10.0996V12.8765C36.2507 13.4064 36.7054 13.6714 37.3177 13.6714C37.794 13.6714 38.1718 13.4834 38.451 13.1074C38.7339 12.7279 38.8754 12.1657 38.8754 11.4209ZM40.8734 11.4155C40.8734 10.8462 40.9844 10.3341 41.2064 9.87939C41.432 9.42464 41.7435 9.07373 42.141 8.82666C42.542 8.57959 42.9986 8.45605 43.5106 8.45605C44.302 8.45605 44.9411 8.72998 45.4281 9.27783C45.9187 9.82568 46.1639 10.5544 46.1639 11.4639V11.5337C46.1639 12.0994 46.0547 12.6079 45.8363 13.0591C45.6215 13.5067 45.3117 13.8558 44.9071 14.1064C44.5061 14.3571 44.0441 14.4824 43.5214 14.4824C42.7336 14.4824 42.0944 14.2085 41.6039 13.6606C41.1169 13.1128 40.8734 12.3877 40.8734 11.4854V11.4155ZM41.8724 11.5337C41.8724 12.1782 42.021 12.6956 42.3182 13.0859C42.619 13.4762 43.0201 13.6714 43.5214 13.6714C44.0262 13.6714 44.4273 13.4744 44.7245 13.0806C45.0217 12.6831 45.1703 12.1281 45.1703 11.4155C45.1703 10.7782 45.0181 10.2625 44.7137 9.86865C44.413 9.47119 44.0119 9.27246 43.5106 9.27246C43.0201 9.27246 42.6244 9.46761 42.3236 9.85791C42.0228 10.2482 41.8724 10.8068 41.8724 11.5337ZM46.975 13.564L47.3187 13.1396C47.7054 12.6383 47.9257 11.8864 47.9794 10.8838L48.0707 8.56348H51.8143V13.564H52.5609V16.083H51.5673V14.375H47.5121V16.083H46.5184L46.5238 13.564H46.975ZM48.1512 13.564H50.8207V9.48193H49.0321L48.973 10.8677C48.9122 12.0243 48.6382 12.923 48.1512 13.564ZM53.3988 11.4155C53.3988 10.8462 53.5098 10.3341 53.7318 9.87939C53.9574 9.42464 54.2689 9.07373 54.6664 8.82666C55.0674 8.57959 55.524 8.45605 56.036 8.45605C56.8274 8.45605 57.4665 8.72998 57.9535 9.27783C58.4441 9.82568 58.6893 10.5544 58.6893 11.4639V11.5337C58.6893 12.0994 58.5801 12.6079 58.3617 13.0591C58.1469 13.5067 57.8371 13.8558 57.4325 14.1064C57.0315 14.3571 56.5695 14.4824 56.0468 14.4824C55.259 14.4824 54.6198 14.2085 54.1293 13.6606C53.6423 13.1128 53.3988 12.3877 53.3988 11.4854V11.4155ZM54.3978 11.5337C54.3978 12.1782 54.5464 12.6956 54.8436 13.0859C55.1444 13.4762 55.5455 13.6714 56.0468 13.6714C56.5516 13.6714 56.9527 13.4744 57.2499 13.0806C57.5471 12.6831 57.6957 12.1281 57.6957 11.4155C57.6957 10.7782 57.5435 10.2625 57.2391 9.86865C56.9384 9.47119 56.5373 9.27246 56.036 9.27246C55.5455 9.27246 55.1498 9.46761 54.849 9.85791C54.5482 10.2482 54.3978 10.8068 54.3978 11.5337ZM64.6136 8.56348V14.375H63.6146V9.38525H61.6381L61.5199 11.5605C61.4554 12.5596 61.2872 13.2739 61.015 13.7036C60.7465 14.1333 60.3186 14.3571 59.7313 14.375H59.3339V13.4995L59.6185 13.478C59.9408 13.4422 60.1718 13.256 60.3114 12.9194C60.451 12.5828 60.5406 11.9598 60.58 11.0503L60.6874 8.56348H64.6136ZM70.8441 11.8506H70.1459V14.375H69.1522V11.8506H68.454L66.8265 14.375H65.5697L67.6483 11.3672L65.7684 8.56348H66.9716L68.4701 10.9697H69.1522V8.56348H70.1459V10.9697H70.8226L72.3319 8.56348H73.535L71.6498 11.3726L73.7284 14.375H72.4716L70.8441 11.8506ZM78.3905 8.56348H79.3842V14.375H78.3905V10.1372L75.7103 14.375H74.7167V8.56348H75.7103V12.8066L78.3905 8.56348ZM85.2977 9.36914H83.348V14.375H82.3544V9.36914H80.4423V8.56348H85.2977V9.36914ZM87.3495 10.5669H88.8588C89.5176 10.5741 90.0386 10.7459 90.4218 11.0825C90.8049 11.4191 90.9965 11.8757 90.9965 12.4521C90.9965 13.0322 90.7995 13.4977 90.4056 13.8486C90.0118 14.1995 89.4818 14.375 88.8158 14.375H86.3558V8.56348H87.3495V10.5669ZM87.3495 11.3779V13.564H88.8265C89.1989 13.564 89.4872 13.4691 89.6913 13.2793C89.8954 13.0859 89.9974 12.8228 89.9974 12.4897C89.9974 12.1675 89.8972 11.9043 89.6967 11.7002C89.4997 11.4925 89.2222 11.3851 88.8641 11.3779H87.3495Z" fill="#555555"/>
<path d="M21.0936 8.60712L15.4767 14.0457L12.3562 10.9252" stroke="#555555" stroke-width="2"/>
</svg>
