<svg width="170" height="23" viewBox="0 0 170 23" fill="none" xmlns="http://www.w3.org/2000/svg">
<rect x="0.501465" y="1.10101" width="168.583" height="21" rx="1.5" fill="#ECF5DD" stroke="#C5D2B1"/>
<path d="M41.9046 9.2558C41.9046 8.84043 41.7524 8.51101 41.4481 8.26752C41.1473 8.02045 40.723 7.89691 40.1751 7.89691C39.7168 7.89691 39.3318 8.02403 39.0203 8.27826C38.7124 8.52891 38.5584 8.84043 38.5584 9.21283H37.5272C37.5272 8.79747 37.64 8.42507 37.8655 8.09564C38.0947 7.76622 38.4134 7.51019 38.8216 7.32758C39.2298 7.14138 39.681 7.04828 40.1751 7.04828C41.0488 7.04828 41.7274 7.24522 42.2108 7.6391C42.6942 8.0294 42.9359 8.57367 42.9359 9.27191C42.9359 9.63357 42.8248 9.96299 42.6028 10.2602C42.3808 10.5574 42.0711 10.7919 41.6736 10.9638C42.5939 11.2717 43.054 11.8823 43.054 12.7953C43.054 13.4972 42.7926 14.054 42.2698 14.4658C41.747 14.8775 41.0488 15.0834 40.1751 15.0834C39.6559 15.0834 39.1832 14.9921 38.7571 14.8095C38.3346 14.6233 38.0052 14.3601 37.7689 14.02C37.5325 13.6798 37.4144 13.2752 37.4144 12.8061H38.4456C38.4456 13.2179 38.6085 13.5616 38.9344 13.8373C39.2602 14.1095 39.6738 14.2455 40.1751 14.2455C40.7373 14.2455 41.1849 14.1148 41.5179 13.8535C41.8545 13.5921 42.0228 13.2465 42.0228 12.8168C42.0228 11.9002 41.4552 11.4329 40.3201 11.415H39.3533V10.5663H40.3148C40.8375 10.5556 41.2332 10.4374 41.5018 10.2119C41.7703 9.98627 41.9046 9.66758 41.9046 9.2558ZM47.8558 14.976C47.7985 14.8614 47.7519 14.6573 47.7161 14.3637C47.2542 14.8435 46.7028 15.0834 46.0618 15.0834C45.4889 15.0834 45.018 14.9223 44.6492 14.6C44.284 14.2742 44.1014 13.8624 44.1014 13.3647C44.1014 12.7595 44.3305 12.2905 44.7889 11.9575C45.2508 11.6209 45.8989 11.4526 46.7332 11.4526H47.7V10.996C47.7 10.6487 47.5962 10.373 47.3885 10.1689C47.1808 9.9612 46.8747 9.85736 46.47 9.85736C46.1155 9.85736 45.8183 9.94688 45.5784 10.1259C45.3385 10.305 45.2186 10.5216 45.2186 10.7758H44.2195C44.2195 10.4858 44.3216 10.2065 44.5257 9.93793C44.7334 9.66579 45.0127 9.45095 45.3636 9.2934C45.7181 9.13584 46.1066 9.05707 46.5291 9.05707C47.1987 9.05707 47.7233 9.22536 48.1028 9.56195C48.4824 9.89496 48.6793 10.3551 48.6937 10.9423V13.6171C48.6937 14.1507 48.7617 14.575 48.8978 14.8901V14.976H47.8558ZM46.2068 14.2187C46.5184 14.2187 46.8138 14.1381 47.0931 13.977C47.3724 13.8159 47.5747 13.6064 47.7 13.3486V12.1562H46.9212C45.7038 12.1562 45.095 12.5125 45.095 13.225C45.095 13.5366 45.1989 13.78 45.4066 13.9555C45.6142 14.131 45.881 14.2187 46.2068 14.2187ZM55.1605 12.1347C55.1605 13.0191 54.9582 13.7317 54.5535 14.2724C54.1489 14.8131 53.6011 15.0834 52.91 15.0834C52.2046 15.0834 51.6496 14.8596 51.2449 14.412V17.2104H50.2513V9.16449H51.159L51.2073 9.80902C51.612 9.30772 52.1741 9.05707 52.8939 9.05707C53.5921 9.05707 54.1435 9.32025 54.5482 9.84662C54.9564 10.373 55.1605 11.1052 55.1605 12.0434V12.1347ZM54.1668 12.0219C54.1668 11.3666 54.0272 10.8492 53.7479 10.4697C53.4686 10.0901 53.0854 9.90033 52.5984 9.90033C51.9969 9.90033 51.5457 10.1671 51.2449 10.7006V13.4775C51.5421 14.0074 51.9969 14.2724 52.6092 14.2724C53.0854 14.2724 53.4632 14.0844 53.7425 13.7084C54.0254 13.3289 54.1668 12.7667 54.1668 12.0219ZM58.8397 15.0834C58.0519 15.0834 57.4109 14.8256 56.9168 14.31C56.4227 13.7908 56.1756 13.0979 56.1756 12.2314V12.0488C56.1756 11.4723 56.2848 10.9584 56.5032 10.5073C56.7252 10.0525 57.0332 9.69802 57.4271 9.44379C57.8245 9.18597 58.2542 9.05707 58.7161 9.05707C59.4717 9.05707 60.0589 9.30593 60.4778 9.80365C60.8968 10.3014 61.1063 11.0139 61.1063 11.9413V12.3549H57.1693C57.1836 12.9278 57.3501 13.3915 57.6688 13.746C57.991 14.0969 58.3992 14.2724 58.8934 14.2724C59.2443 14.2724 59.5415 14.2008 59.785 14.0576C60.0285 13.9143 60.2415 13.7245 60.4241 13.4882L61.0311 13.9609C60.5441 14.7092 59.8136 15.0834 58.8397 15.0834ZM58.7161 9.87347C58.3151 9.87347 57.9785 10.0203 57.7064 10.3139C57.4342 10.6039 57.2659 11.0121 57.2015 11.5385H60.1126V11.4633C60.084 10.9584 59.9479 10.5681 59.7044 10.2924C59.4609 10.0131 59.1315 9.87347 58.7161 9.87347ZM66.0154 9.98627H63.3353V14.976H62.3362V9.16449H66.0154V9.98627ZM70.64 9.16449H71.6336V14.976H70.64V10.7382L67.9598 14.976H66.9661V9.16449H67.9598V13.4077L70.64 9.16449ZM75.5599 14.2724C75.9144 14.2724 76.2241 14.165 76.4891 13.9501C76.754 13.7353 76.9009 13.4667 76.9295 13.1445H77.8694C77.8515 13.4775 77.737 13.7944 77.5257 14.0952C77.3144 14.3959 77.0316 14.6358 76.6771 14.8149C76.3262 14.9939 75.9538 15.0834 75.5599 15.0834C74.7685 15.0834 74.1383 14.8203 73.6693 14.2939C73.2038 13.7639 72.971 13.0406 72.971 12.124V11.9575C72.971 11.3917 73.0748 10.8886 73.2825 10.4482C73.4902 10.0078 73.7874 9.66579 74.1741 9.4223C74.5644 9.17881 75.0246 9.05707 75.5545 9.05707C76.2062 9.05707 76.7469 9.25222 77.1766 9.64252C77.6098 10.0328 77.8408 10.5395 77.8694 11.1625H76.9295C76.9009 10.7866 76.7576 10.4786 76.4998 10.2387C76.2456 9.99522 75.9305 9.87347 75.5545 9.87347C75.0496 9.87347 74.6575 10.0561 74.3782 10.4213C74.1025 10.783 73.9647 11.3076 73.9647 11.9951V12.183C73.9647 12.8526 74.1025 13.3683 74.3782 13.7299C74.654 14.0916 75.0478 14.2724 75.5599 14.2724ZM83.305 9.97015H81.3553V14.976H80.3616V9.97015H78.4495V9.16449H83.305V9.97015ZM89.181 12.1347C89.181 13.0191 88.9787 13.7317 88.574 14.2724C88.1694 14.8131 87.6216 15.0834 86.9305 15.0834C86.2251 15.0834 85.6701 14.8596 85.2654 14.412V17.2104H84.2718V9.16449H85.1795L85.2278 9.80902C85.6325 9.30772 86.1946 9.05707 86.9144 9.05707C87.6126 9.05707 88.164 9.32025 88.5687 9.84662C88.9769 10.373 89.181 11.1052 89.181 12.0434V12.1347ZM88.1873 12.0219C88.1873 11.3666 88.0477 10.8492 87.7684 10.4697C87.4891 10.0901 87.1059 9.90033 86.619 9.90033C86.0174 9.90033 85.5662 10.1671 85.2654 10.7006V13.4775C85.5626 14.0074 86.0174 14.2724 86.6297 14.2724C87.1059 14.2724 87.4837 14.0844 87.763 13.7084C88.0459 13.3289 88.1873 12.7667 88.1873 12.0219ZM94.2083 9.16449H95.202V14.976H94.2083V10.7382L91.5281 14.976H90.5345V9.16449H91.5281V13.4077L94.2083 9.16449ZM101.706 12.1347C101.706 13.0191 101.504 13.7317 101.099 14.2724C100.695 14.8131 100.147 15.0834 99.4559 15.0834C98.7505 15.0834 98.1955 14.8596 97.7908 14.412V17.2104H96.7972V9.16449H97.7049L97.7532 9.80902C98.1579 9.30772 98.72 9.05707 99.4398 9.05707C100.138 9.05707 100.689 9.32025 101.094 9.84662C101.502 10.373 101.706 11.1052 101.706 12.0434V12.1347ZM100.713 12.0219C100.713 11.3666 100.573 10.8492 100.294 10.4697C100.014 10.0901 99.6313 9.90033 99.1443 9.90033C98.5428 9.90033 98.0916 10.1671 97.7908 10.7006V13.4775C98.088 14.0074 98.5428 14.2724 99.1551 14.2724C99.6313 14.2724 100.009 14.0844 100.288 13.7084C100.571 13.3289 100.713 12.7667 100.713 12.0219ZM102.711 12.0165C102.711 11.4472 102.822 10.9352 103.044 10.4804C103.269 10.0257 103.581 9.67474 103.978 9.42767C104.379 9.1806 104.836 9.05707 105.348 9.05707C106.139 9.05707 106.778 9.33099 107.265 9.87885C107.756 10.4267 108.001 11.1554 108.001 12.0649V12.1347C108.001 12.7005 107.892 13.2089 107.674 13.6601C107.459 14.1077 107.149 14.4568 106.744 14.7075C106.343 14.9581 105.881 15.0834 105.359 15.0834C104.571 15.0834 103.932 14.8095 103.441 14.2617C102.954 13.7138 102.711 12.9887 102.711 12.0864V12.0165ZM103.71 12.1347C103.71 12.7792 103.858 13.2967 104.156 13.687C104.456 14.0773 104.857 14.2724 105.359 14.2724C105.864 14.2724 106.265 14.0755 106.562 13.6816C106.859 13.2841 107.008 12.7291 107.008 12.0165C107.008 11.3792 106.855 10.8635 106.551 10.4697C106.25 10.0722 105.849 9.87347 105.348 9.87347C104.857 9.87347 104.462 10.0686 104.161 10.4589C103.86 10.8492 103.71 11.4078 103.71 12.1347ZM109.339 14.976V9.16449H111.605C112.379 9.16449 112.971 9.30056 113.383 9.57269C113.798 9.84125 114.006 10.2369 114.006 10.7597C114.006 11.0283 113.926 11.2717 113.764 11.4902C113.603 11.705 113.365 11.8697 113.05 11.9843C113.401 12.0667 113.682 12.2278 113.893 12.4677C114.108 12.7076 114.216 12.9941 114.216 13.3271C114.216 13.8606 114.019 14.2688 113.625 14.5517C113.235 14.8346 112.681 14.976 111.965 14.976H109.339ZM110.332 12.4247V14.1757H111.976C112.391 14.1757 112.701 14.0987 112.905 13.9448C113.113 13.7908 113.217 13.5742 113.217 13.2949C113.217 12.7148 112.791 12.4247 111.938 12.4247H110.332ZM110.332 11.6298H111.616C112.547 11.6298 113.013 11.3577 113.013 10.8134C113.013 10.2691 112.572 9.98806 111.691 9.97015H110.332V11.6298ZM119.119 14.976C119.062 14.8614 119.016 14.6573 118.98 14.3637C118.518 14.8435 117.966 15.0834 117.326 15.0834C116.753 15.0834 116.282 14.9223 115.913 14.6C115.548 14.2742 115.365 13.8624 115.365 13.3647C115.365 12.7595 115.594 12.2905 116.053 11.9575C116.514 11.6209 117.163 11.4526 117.997 11.4526H118.964V10.996C118.964 10.6487 118.86 10.373 118.652 10.1689C118.444 9.9612 118.138 9.85736 117.734 9.85736C117.379 9.85736 117.082 9.94688 116.842 10.1259C116.602 10.305 116.482 10.5216 116.482 10.7758H115.483C115.483 10.4858 115.585 10.2065 115.789 9.93793C115.997 9.66579 116.276 9.45095 116.627 9.2934C116.982 9.13584 117.37 9.05707 117.793 9.05707C118.462 9.05707 118.987 9.22536 119.367 9.56195C119.746 9.89496 119.943 10.3551 119.957 10.9423V13.6171C119.957 14.1507 120.025 14.575 120.161 14.8901V14.976H119.119ZM117.471 14.2187C117.782 14.2187 118.077 14.1381 118.357 13.977C118.636 13.8159 118.838 13.6064 118.964 13.3486V12.1562H118.185C116.967 12.1562 116.359 12.5125 116.359 13.225C116.359 13.5366 116.463 13.78 116.67 13.9555C116.878 14.131 117.145 14.2187 117.471 14.2187ZM125.747 9.97015H123.798V14.976H122.804V9.97015H120.892V9.16449H125.747V9.97015ZM127.799 11.1679H129.308C129.967 11.1751 130.488 11.3469 130.871 11.6835C131.255 12.0201 131.446 12.4767 131.446 13.0532C131.446 13.6332 131.249 14.0987 130.855 14.4496C130.461 14.8006 129.931 14.976 129.265 14.976H126.805V9.16449H127.799V11.1679ZM127.799 11.9789V14.165H129.276C129.649 14.165 129.937 14.0701 130.141 13.8803C130.345 13.687 130.447 13.4238 130.447 13.0908C130.447 12.7685 130.347 12.5053 130.146 12.3012C129.949 12.0935 129.672 11.9861 129.314 11.9789H127.799Z" fill="#555555"/>
</svg>
