<svg width="171" height="23" viewBox="0 0 171 23" fill="none" xmlns="http://www.w3.org/2000/svg">
<rect x="0.918091" y="0.826416" width="168.583" height="21" rx="1.5" fill="#F8F8F8" stroke="#DADADA"/>
<path d="M74.1677 14.7014H73.1311V7.72974H69.2747V14.7014H68.2434V6.8811H74.1677V14.7014ZM78.3035 14.8088C77.5157 14.8088 76.8748 14.551 76.3806 14.0354C75.8865 13.5162 75.6394 12.8233 75.6394 11.9568V11.7742C75.6394 11.1977 75.7486 10.6838 75.967 10.2327C76.189 9.77791 76.497 9.42342 76.8909 9.16919C77.2883 8.91138 77.718 8.78247 78.1799 8.78247C78.9355 8.78247 79.5227 9.03133 79.9417 9.52905C80.3606 10.0268 80.5701 10.7393 80.5701 11.6667V12.0803H76.6331C76.6474 12.6532 76.8139 13.1169 77.1326 13.4714C77.4548 13.8223 77.863 13.9978 78.3572 13.9978C78.7081 13.9978 79.0053 13.9262 79.2488 13.783C79.4923 13.6397 79.7053 13.45 79.8879 13.2136L80.4949 13.6863C80.0079 14.4347 79.2774 14.8088 78.3035 14.8088ZM78.1799 9.59888C77.7789 9.59888 77.4423 9.74569 77.1702 10.0393C76.898 10.3293 76.7297 10.7375 76.6653 11.2639H79.5764V11.1887C79.5478 10.6838 79.4117 10.2935 79.1682 10.0178C78.9247 9.73853 78.5953 9.59888 78.1799 9.59888ZM86.113 14.7014H85.114V12.5959C84.6772 12.7105 84.2296 12.7678 83.7712 12.7678C83.0444 12.7678 82.4893 12.5816 82.1062 12.2092C81.7266 11.8368 81.5333 11.3069 81.5261 10.6194V8.88452H82.5198V10.6516C82.5377 11.5181 82.9548 11.9514 83.7712 11.9514C84.2296 11.9514 84.6772 11.8941 85.114 11.7795V8.88989H86.113V14.7014ZM91.2961 14.7014C91.2389 14.5868 91.1923 14.3827 91.1565 14.0891C90.6946 14.5689 90.1431 14.8088 89.5022 14.8088C88.9293 14.8088 88.4584 14.6477 88.0896 14.3254C87.7244 13.9996 87.5417 13.5878 87.5417 13.0901C87.5417 12.4849 87.7709 12.0159 88.2292 11.6829C88.6912 11.3463 89.3393 11.178 90.1736 11.178H91.1404V10.7214C91.1404 10.3741 91.0365 10.0984 90.8289 9.89429C90.6212 9.6866 90.315 9.58276 89.9104 9.58276C89.5559 9.58276 89.2587 9.67228 89.0188 9.85132C88.7789 10.0304 88.6589 10.247 88.6589 10.5012H87.6599C87.6599 10.2112 87.762 9.93188 87.9661 9.66333C88.1737 9.39119 88.453 9.17635 88.804 9.0188C89.1584 8.86125 89.547 8.78247 89.9695 8.78247C90.6391 8.78247 91.1637 8.95076 91.5432 9.28735C91.9228 9.62036 92.1197 10.0805 92.134 10.6677V13.3425C92.134 13.8761 92.2021 14.3004 92.3381 14.6155V14.7014H91.2961ZM89.6472 13.9441C89.9587 13.9441 90.2542 13.8635 90.5334 13.7024C90.8127 13.5413 91.0151 13.3318 91.1404 13.074V11.8816H90.3616C89.1441 11.8816 88.5354 12.2379 88.5354 12.9504C88.5354 13.262 88.6392 13.5055 88.8469 13.6809C89.0546 13.8564 89.3214 13.9441 89.6472 13.9441ZM97.9241 9.69556H95.9744V14.7014H94.9807V9.69556H93.0686V8.88989H97.9241V9.69556ZM99.9758 10.8933H101.485C102.144 10.9005 102.665 11.0723 103.048 11.4089C103.431 11.7455 103.623 12.2021 103.623 12.7786C103.623 13.3586 103.426 13.8241 103.032 14.175C102.638 14.526 102.108 14.7014 101.442 14.7014H98.9822V8.88989H99.9758V10.8933ZM99.9758 11.7043V13.8904H101.453C101.825 13.8904 102.114 13.7955 102.318 13.6057C102.522 13.4124 102.624 13.1492 102.624 12.8162C102.624 12.4939 102.524 12.2307 102.323 12.0266C102.126 11.8189 101.849 11.7115 101.49 11.7043H99.9758Z" fill="#555555"/>
<path fill-rule="evenodd" clip-rule="evenodd" d="M52.3406 5.82642H52.3159V9.81342H51.3159C50.7636 9.81342 50.3159 10.2611 50.3159 10.8134V14.8134H52.3159V16.8264H53.3159V16.8134H59.3406V16.8264H60.3406V16.8134V15.8134V14.8134H62.3159V10.8134C62.3159 10.2611 61.8682 9.81342 61.3159 9.81342H60.3406V7.82642L58.3406 5.82642H53.3159H52.3406ZM53.3159 6.82642V10.8134H59.3406V8.82642H57.3406V6.82642H53.3159ZM60.3406 11.8134H61.3159V10.8134H60.3406V11.8134ZM59.3406 13.8134H53.3159V15.8134H59.3406V13.8134Z" fill="#555555"/>
<path d="M120.104 10.3304H114.112L117.108 13.3204L120.104 10.3304Z" fill="#555555"/>
</svg>
