<svg width="171" height="23" viewBox="0 0 171 23" fill="none" xmlns="http://www.w3.org/2000/svg">
<rect x="0.918091" y="1.33643" width="168.583" height="21" rx="1.5" fill="#E9F3FA" stroke="#AFC9DC"/>
<path d="M54.5292 12.73C54.4326 13.5571 54.1264 14.1963 53.6108 14.6475C53.0987 15.0951 52.4166 15.3188 51.5644 15.3188C50.6406 15.3188 49.8994 14.9876 49.3408 14.3252C48.7857 13.6628 48.5082 12.7765 48.5082 11.6665V10.9146C48.5082 10.1877 48.6371 9.5485 48.895 8.99707C49.1564 8.44564 49.5252 8.02311 50.0014 7.72949C50.4776 7.43229 51.0291 7.28369 51.6557 7.28369C52.4864 7.28369 53.1524 7.51644 53.6537 7.98193C54.155 8.44385 54.4469 9.0848 54.5292 9.90479H53.4926C53.4031 9.28174 53.2079 8.83057 52.9072 8.55127C52.61 8.27197 52.1928 8.13232 51.6557 8.13232C50.9968 8.13232 50.4794 8.37581 50.1035 8.86279C49.7311 9.34977 49.5449 10.0426 49.5449 10.9414V11.6987C49.5449 12.5474 49.7221 13.2223 50.0766 13.7236C50.4311 14.2249 50.927 14.4756 51.5644 14.4756C52.1373 14.4756 52.5759 14.3467 52.8803 14.0889C53.1883 13.8275 53.3924 13.3745 53.4926 12.73H54.5292ZM55.5229 12.252C55.5229 11.6826 55.6339 11.1706 55.8559 10.7158C56.0815 10.2611 56.393 9.91016 56.7905 9.66309C57.1915 9.41602 57.6481 9.29248 58.1601 9.29248C58.9514 9.29248 59.5906 9.56641 60.0776 10.1143C60.5681 10.6621 60.8134 11.3908 60.8134 12.3003V12.3701C60.8134 12.9359 60.7042 13.4443 60.4858 13.8955C60.2709 14.3431 59.9612 14.6922 59.5566 14.9429C59.1555 15.1935 58.6936 15.3188 58.1708 15.3188C57.3831 15.3188 56.7439 15.0449 56.2534 14.4971C55.7664 13.9492 55.5229 13.2241 55.5229 12.3218V12.252ZM56.5219 12.3701C56.5219 13.0146 56.6705 13.5321 56.9677 13.9224C57.2685 14.3127 57.6695 14.5078 58.1708 14.5078C58.6757 14.5078 59.0768 14.3109 59.374 13.917C59.6712 13.5195 59.8198 12.9645 59.8198 12.252C59.8198 11.6146 59.6676 11.099 59.3632 10.7051C59.0624 10.3076 58.6614 10.1089 58.1601 10.1089C57.6695 10.1089 57.2739 10.304 56.9731 10.6943C56.6723 11.0846 56.5219 11.6432 56.5219 12.3701ZM65.8139 10.2217H63.1337V15.2114H62.1347V9.3999H65.8139V10.2217ZM71.228 9.3999V15.2114H70.2289V10.2217H68.2524L68.1342 12.397C68.0698 13.396 67.9015 14.1104 67.6293 14.54C67.3608 14.9697 66.9329 15.1935 66.3456 15.2114H65.9482V14.3359L66.2328 14.3145C66.5551 14.2786 66.7861 14.0924 66.9257 13.7559C67.0654 13.4193 67.1549 12.7962 67.1943 11.8867L67.3017 9.3999H71.228ZM76.4111 15.2114C76.3538 15.0968 76.3072 14.8927 76.2714 14.5991C75.8095 15.0789 75.2581 15.3188 74.6171 15.3188C74.0442 15.3188 73.5733 15.1577 73.2045 14.8354C72.8393 14.5096 72.6567 14.0978 72.6567 13.6001C72.6567 12.995 72.8858 12.5259 73.3442 12.1929C73.8061 11.8563 74.4542 11.688 75.2885 11.688H76.2553V11.2314C76.2553 10.8841 76.1515 10.6084 75.9438 10.4043C75.7361 10.1966 75.43 10.0928 75.0253 10.0928C74.6708 10.0928 74.3736 10.1823 74.1337 10.3613C73.8938 10.5404 73.7739 10.757 73.7739 11.0112H72.7748C72.7748 10.7212 72.8769 10.4419 73.081 10.1733C73.2887 9.9012 73.568 9.68636 73.9189 9.52881C74.2734 9.37126 74.6619 9.29248 75.0844 9.29248C75.754 9.29248 76.2786 9.46077 76.6581 9.79736C77.0377 10.1304 77.2346 10.5905 77.249 11.1777V13.8525C77.249 14.3861 77.317 14.8104 77.4531 15.1255V15.2114H76.4111ZM74.7621 14.4541C75.0737 14.4541 75.3691 14.3735 75.6484 14.2124C75.9277 14.0513 76.13 13.8418 76.2553 13.584V12.3916H75.4765C74.2591 12.3916 73.6503 12.7479 73.6503 13.4604C73.6503 13.772 73.7542 14.0155 73.9619 14.1909C74.1695 14.3664 74.4363 14.4541 74.7621 14.4541ZM81.1376 14.5078C81.4921 14.5078 81.8019 14.4004 82.0668 14.1855C82.3318 13.9707 82.4786 13.7021 82.5073 13.3799H83.4472C83.4293 13.7129 83.3147 14.0298 83.1035 14.3306C82.8922 14.6313 82.6093 14.8713 82.2548 15.0503C81.9039 15.2293 81.5315 15.3188 81.1376 15.3188C80.3463 15.3188 79.7161 15.0557 79.247 14.5293C78.7815 13.9993 78.5488 13.276 78.5488 12.3594V12.1929C78.5488 11.6271 78.6526 11.124 78.8603 10.6836C79.068 10.2432 79.3652 9.9012 79.7519 9.65771C80.1422 9.41423 80.6023 9.29248 81.1323 9.29248C81.784 9.29248 82.3246 9.48763 82.7543 9.87793C83.1876 10.2682 83.4186 10.7749 83.4472 11.3979H82.5073C82.4786 11.022 82.3354 10.714 82.0776 10.4741C81.8233 10.2306 81.5082 10.1089 81.1323 10.1089C80.6274 10.1089 80.2353 10.2915 79.956 10.6567C79.6803 11.0184 79.5424 11.543 79.5424 12.2305V12.4185C79.5424 13.0881 79.6803 13.6037 79.956 13.9653C80.2317 14.327 80.6256 14.5078 81.1376 14.5078ZM84.3012 12.252C84.3012 11.6826 84.4122 11.1706 84.6342 10.7158C84.8598 10.2611 85.1713 9.91016 85.5688 9.66309C85.9698 9.41602 86.4264 9.29248 86.9384 9.29248C87.7298 9.29248 88.3689 9.56641 88.8559 10.1143C89.3465 10.6621 89.5917 11.3908 89.5917 12.3003V12.3701C89.5917 12.9359 89.4825 13.4443 89.2641 13.8955C89.0493 14.3431 88.7395 14.6922 88.3349 14.9429C87.9339 15.1935 87.4719 15.3188 86.9492 15.3188C86.1614 15.3188 85.5222 15.0449 85.0317 14.4971C84.5447 13.9492 84.3012 13.2241 84.3012 12.3218V12.252ZM85.3002 12.3701C85.3002 13.0146 85.4488 13.5321 85.746 13.9224C86.0468 14.3127 86.4479 14.5078 86.9492 14.5078C87.454 14.5078 87.8551 14.3109 88.1523 13.917C88.4495 13.5195 88.5981 12.9645 88.5981 12.252C88.5981 11.6146 88.4459 11.099 88.1415 10.7051C87.8408 10.3076 87.4397 10.1089 86.9384 10.1089C86.4479 10.1089 86.0522 10.304 85.7514 10.6943C85.4506 11.0846 85.3002 11.6432 85.3002 12.3701ZM90.9291 15.2114V9.3999H93.1957C93.9692 9.3999 94.5618 9.53597 94.9736 9.80811C95.3889 10.0767 95.5966 10.4723 95.5966 10.9951C95.5966 11.2637 95.5161 11.5072 95.3549 11.7256C95.1938 11.9404 94.9557 12.1051 94.6406 12.2197C94.9915 12.3021 95.2726 12.4632 95.4838 12.7031C95.6987 12.943 95.8061 13.2295 95.8061 13.5625C95.8061 14.096 95.6092 14.5042 95.2153 14.7871C94.825 15.07 94.2717 15.2114 93.5556 15.2114H90.9291ZM91.9228 12.6602V14.4111H93.5663C93.9817 14.4111 94.2914 14.3341 94.4955 14.1802C94.7032 14.0262 94.8071 13.8096 94.8071 13.5303C94.8071 12.9502 94.381 12.6602 93.5287 12.6602H91.9228ZM91.9228 11.8652H93.2065C94.1375 11.8652 94.603 11.5931 94.603 11.0488C94.603 10.5046 94.1625 10.2235 93.2817 10.2056H91.9228V11.8652ZM100.71 15.2114C100.653 15.0968 100.606 14.8927 100.57 14.5991C100.108 15.0789 99.5569 15.3188 98.916 15.3188C98.343 15.3188 97.8722 15.1577 97.5034 14.8354C97.1381 14.5096 96.9555 14.0978 96.9555 13.6001C96.9555 12.995 97.1847 12.5259 97.643 12.1929C98.1049 11.8563 98.753 11.688 99.5873 11.688H100.554V11.2314C100.554 10.8841 100.45 10.6084 100.243 10.4043C100.035 10.1966 99.7288 10.0928 99.3242 10.0928C98.9697 10.0928 98.6725 10.1823 98.4326 10.3613C98.1926 10.5404 98.0727 10.757 98.0727 11.0112H97.0737C97.0737 10.7212 97.1757 10.4419 97.3798 10.1733C97.5875 9.9012 97.8668 9.68636 98.2177 9.52881C98.5722 9.37126 98.9607 9.29248 99.3832 9.29248C100.053 9.29248 100.577 9.46077 100.957 9.79736C101.337 10.1304 101.533 10.5905 101.548 11.1777V13.8525C101.548 14.3861 101.616 14.8104 101.752 15.1255V15.2114H100.71ZM99.061 14.4541C99.3725 14.4541 99.6679 14.3735 99.9472 14.2124C100.227 14.0513 100.429 13.8418 100.554 13.584V12.3916H99.7753C98.5579 12.3916 97.9492 12.7479 97.9492 13.4604C97.9492 13.772 98.053 14.0155 98.2607 14.1909C98.4684 14.3664 98.7351 14.4541 99.061 14.4541ZM107.853 15.2114H106.86V12.73H104.19V15.2114H103.191V9.3999H104.19V11.9189H106.86V9.3999H107.853V15.2114ZM113.214 9.3999H114.207V15.2114H113.214V10.9736L110.534 15.2114H109.54V9.3999H110.534V13.6431L113.214 9.3999ZM118.214 15.3188C117.427 15.3188 116.786 15.061 116.291 14.5454C115.797 14.0262 115.55 13.3333 115.55 12.4668V12.2842C115.55 11.7077 115.659 11.1938 115.878 10.7427C116.1 10.2879 116.408 9.93343 116.802 9.6792C117.199 9.42139 117.629 9.29248 118.091 9.29248C118.846 9.29248 119.434 9.54134 119.852 10.0391C120.271 10.5368 120.481 11.2493 120.481 12.1768V12.5903H116.544C116.558 13.1632 116.725 13.627 117.043 13.9814C117.366 14.3324 117.774 14.5078 118.268 14.5078C118.619 14.5078 118.916 14.4362 119.16 14.293C119.403 14.1497 119.616 13.96 119.799 13.7236L120.406 14.1963C119.919 14.9447 119.188 15.3188 118.214 15.3188ZM118.091 10.1089C117.69 10.1089 117.353 10.2557 117.081 10.5493C116.809 10.8394 116.641 11.2476 116.576 11.7739H119.487V11.6987C119.459 11.1938 119.323 10.8035 119.079 10.5278C118.836 10.2485 118.506 10.1089 118.091 10.1089Z" fill="#555555"/>
</svg>
