<svg width="72" height="23" viewBox="0 0 72 23" fill="none" xmlns="http://www.w3.org/2000/svg">
<rect x="0.918091" y="0.826416" width="70" height="21" rx="1.5" fill="#F8F8F8" stroke="#DADADA"/>
<path d="M17.9925 16.6189H16.9666V14.7014H11.3538V16.6243H10.3226L10.3172 13.8582H10.9564C11.2929 13.4786 11.5597 12.9701 11.7567 12.3328C11.9572 11.6918 12.0825 10.99 12.1326 10.2273L12.3045 6.8811H16.9827V13.8582H18.0032L17.9925 16.6189ZM12.1326 13.8582H15.9461V7.72974H13.2982L13.1854 10.0286C13.1388 10.9273 13.0189 11.6936 12.8255 12.3274C12.6357 12.9612 12.4048 13.4714 12.1326 13.8582ZM18.8089 11.7419C18.8089 11.1726 18.9199 10.6606 19.1419 10.2058C19.3675 9.75106 19.679 9.40015 20.0765 9.15308C20.4775 8.90601 20.9341 8.78247 21.4461 8.78247C22.2374 8.78247 22.8766 9.0564 23.3636 9.60425C23.8541 10.1521 24.0994 10.8808 24.0994 11.7903V11.8601C24.0994 12.4259 23.9902 12.9343 23.7718 13.3855C23.5569 13.8331 23.2472 14.1822 22.8426 14.4329C22.4415 14.6835 21.9796 14.8088 21.4568 14.8088C20.6691 14.8088 20.0299 14.5349 19.5394 13.9871C19.0524 13.4392 18.8089 12.7141 18.8089 11.8118V11.7419ZM19.8079 11.8601C19.8079 12.5046 19.9565 13.0221 20.2537 13.4124C20.5545 13.8027 20.9555 13.9978 21.4568 13.9978C21.9617 13.9978 22.3628 13.8009 22.66 13.407C22.9572 13.0095 23.1058 12.4545 23.1058 11.7419C23.1058 11.1046 22.9536 10.5889 22.6492 10.1951C22.3484 9.79761 21.9474 9.59888 21.4461 9.59888C20.9555 9.59888 20.5599 9.79403 20.2591 10.1843C19.9583 10.5746 19.8079 11.1332 19.8079 11.8601ZM27.8968 9.2229C28.6273 9.2229 29.2109 9.46818 29.6478 9.95874C30.0882 10.4457 30.3084 11.0885 30.3084 11.887V11.9783C30.3084 12.5261 30.2028 13.0167 29.9915 13.45C29.7803 13.8796 29.4759 14.2144 29.0784 14.4543C28.6845 14.6907 28.2298 14.8088 27.7142 14.8088C26.9336 14.8088 26.3052 14.5492 25.8289 14.03C25.3527 13.5072 25.1146 12.8072 25.1146 11.9299V11.4465C25.1146 10.2255 25.3401 9.25513 25.7913 8.5354C26.2461 7.81567 26.9157 7.37703 27.8001 7.21948C28.3014 7.12996 28.6398 7.02075 28.8152 6.89185C28.9907 6.76294 29.0784 6.58569 29.0784 6.36011H29.8948C29.8948 6.8077 29.7928 7.15682 29.5887 7.40747C29.3882 7.65812 29.0659 7.83537 28.6219 7.93921L27.8807 8.10571C27.2899 8.24536 26.8458 8.48169 26.5486 8.8147C26.255 9.14412 26.0635 9.58455 25.9739 10.136C26.5003 9.52726 27.1413 9.2229 27.8968 9.2229ZM27.7034 10.0393C27.2165 10.0393 26.8297 10.204 26.5433 10.5334C26.2568 10.8593 26.1136 11.3123 26.1136 11.8923V11.9783C26.1136 12.6013 26.2568 13.0955 26.5433 13.4607C26.8333 13.8223 27.2236 14.0032 27.7142 14.0032C28.2083 14.0032 28.5986 13.8206 28.8851 13.4553C29.1715 13.0901 29.3148 12.5566 29.3148 11.8547C29.3148 11.3069 29.1697 10.8682 28.8797 10.5388C28.5932 10.2058 28.2012 10.0393 27.7034 10.0393ZM35.0135 14.7014C34.9562 14.5868 34.9096 14.3827 34.8738 14.0891C34.4119 14.5689 33.8605 14.8088 33.2195 14.8088C32.6466 14.8088 32.1758 14.6477 31.8069 14.3254C31.4417 13.9996 31.2591 13.5878 31.2591 13.0901C31.2591 12.4849 31.4883 12.0159 31.9466 11.6829C32.4085 11.3463 33.0566 11.178 33.8909 11.178H34.8577V10.7214C34.8577 10.3741 34.7539 10.0984 34.5462 9.89429C34.3385 9.6866 34.0324 9.58276 33.6277 9.58276C33.2733 9.58276 32.9761 9.67228 32.7361 9.85132C32.4962 10.0304 32.3763 10.247 32.3763 10.5012H31.3773C31.3773 10.2112 31.4793 9.93188 31.6834 9.66333C31.8911 9.39119 32.1704 9.17635 32.5213 9.0188C32.8758 8.86125 33.2643 8.78247 33.6868 8.78247C34.3564 8.78247 34.881 8.95076 35.2606 9.28735C35.6401 9.62036 35.8371 10.0805 35.8514 10.6677V13.3425C35.8514 13.8761 35.9194 14.3004 36.0555 14.6155V14.7014H35.0135ZM33.3646 13.9441C33.6761 13.9441 33.9715 13.8635 34.2508 13.7024C34.5301 13.5413 34.7324 13.3318 34.8577 13.074V11.8816H34.0789C32.8615 11.8816 32.2527 12.2379 32.2527 12.9504C32.2527 13.262 32.3566 13.5055 32.5643 13.6809C32.772 13.8564 33.0387 13.9441 33.3646 13.9441ZM37.5003 14.7014V8.88989H39.7669C40.5403 8.88989 41.133 9.02596 41.5447 9.2981C41.9601 9.56665 42.1678 9.96232 42.1678 10.4851C42.1678 10.7537 42.0872 10.9972 41.9261 11.2156C41.765 11.4304 41.5268 11.5951 41.2117 11.7097C41.5626 11.7921 41.8437 11.9532 42.055 12.1931C42.2698 12.433 42.3773 12.7195 42.3773 13.0525C42.3773 13.586 42.1803 13.9942 41.7864 14.2771C41.3961 14.56 40.8429 14.7014 40.1268 14.7014H37.5003ZM38.494 12.1501V13.9011H40.1375C40.5529 13.9011 40.8626 13.8241 41.0667 13.6702C41.2744 13.5162 41.3782 13.2996 41.3782 13.0203C41.3782 12.4402 40.9521 12.1501 40.0999 12.1501H38.494ZM38.494 11.3552H39.7776C40.7086 11.3552 41.1741 11.0831 41.1741 10.5388C41.1741 9.99455 40.7337 9.71346 39.8528 9.69556H38.494V11.3552ZM47.4529 8.88989H48.4466V14.7014H47.4529V10.4636L44.7728 14.7014H43.7791V8.88989H44.7728V13.1331L47.4529 8.88989ZM54.3602 9.69556H52.4105V14.7014H51.4168V9.69556H49.5047V8.88989H54.3602V9.69556ZM56.4119 10.8933H57.9212C58.5801 10.9005 59.1011 11.0723 59.4842 11.4089C59.8673 11.7455 60.0589 12.2021 60.0589 12.7786C60.0589 13.3586 59.862 13.8241 59.4681 14.175C59.0742 14.526 58.5443 14.7014 57.8782 14.7014H55.4183V8.88989H56.4119V10.8933ZM56.4119 11.7043V13.8904H57.889C58.2614 13.8904 58.5496 13.7955 58.7537 13.6057C58.9578 13.4124 59.0599 13.1492 59.0599 12.8162C59.0599 12.4939 58.9596 12.2307 58.7591 12.0266C58.5622 11.8189 58.2846 11.7115 57.9266 11.7043H56.4119Z" fill="#555555"/>
</svg>
