<svg width="116" height="22" viewBox="0 0 116 22" fill="none" xmlns="http://www.w3.org/2000/svg">
<rect x="0.5" y="0.5" width="115" height="21" rx="1.5" fill="#F8F8F8" stroke="#DADADA"/>
<path d="M15.9005 11.8936C15.8038 12.7207 15.4976 13.3599 14.982 13.811C14.47 14.2586 13.7878 14.4824 12.9356 14.4824C12.0118 14.4824 11.2706 14.1512 10.712 13.4888C10.157 12.8263 9.87947 11.9401 9.87947 10.8301V10.0781C9.87947 9.35124 10.0084 8.71208 10.2662 8.16064C10.5276 7.60921 10.8964 7.18669 11.3726 6.89307C11.8489 6.59587 12.4003 6.44727 13.0269 6.44727C13.8577 6.44727 14.5237 6.68001 15.025 7.14551C15.5263 7.60742 15.8181 8.24837 15.9005 9.06836H14.8638C14.7743 8.44531 14.5792 7.99414 14.2784 7.71484C13.9812 7.43555 13.564 7.2959 13.0269 7.2959C12.3681 7.2959 11.8507 7.53939 11.4747 8.02637C11.1023 8.51335 10.9161 9.20622 10.9161 10.105V10.8623C10.9161 11.7109 11.0933 12.3859 11.4478 12.8872C11.8023 13.3885 12.2983 13.6392 12.9356 13.6392C13.5085 13.6392 13.9472 13.5103 14.2515 13.2524C14.5595 12.991 14.7636 12.5381 14.8638 11.8936H15.9005ZM16.8941 11.4155C16.8941 10.8462 17.0051 10.3341 17.2271 9.87939C17.4527 9.42464 17.7642 9.07373 18.1617 8.82666C18.5627 8.57959 19.0193 8.45605 19.5313 8.45605C20.3227 8.45605 20.9618 8.72998 21.4488 9.27783C21.9394 9.82568 22.1846 10.5544 22.1846 11.4639V11.5337C22.1846 12.0994 22.0754 12.6079 21.857 13.0591C21.6422 13.5067 21.3324 13.8558 20.9278 14.1064C20.5268 14.3571 20.0649 14.4824 19.5421 14.4824C18.7543 14.4824 18.1151 14.2085 17.6246 13.6606C17.1376 13.1128 16.8941 12.3877 16.8941 11.4854V11.4155ZM17.8931 11.5337C17.8931 12.1782 18.0417 12.6956 18.3389 13.0859C18.6397 13.4762 19.0408 13.6714 19.5421 13.6714C20.047 13.6714 20.448 13.4744 20.7452 13.0806C21.0424 12.6831 21.191 12.1281 21.191 11.4155C21.191 10.7782 21.0388 10.2625 20.7345 9.86865C20.4337 9.47119 20.0326 9.27246 19.5313 9.27246C19.0408 9.27246 18.6451 9.46761 18.3443 9.85791C18.0435 10.2482 17.8931 10.8068 17.8931 11.5337ZM26.6265 10.1533C26.6265 9.88118 26.5227 9.66634 26.315 9.50879C26.1073 9.34766 25.8227 9.26709 25.461 9.26709C25.1101 9.26709 24.8165 9.3584 24.5802 9.54102C24.3474 9.72363 24.231 9.93848 24.231 10.1855H23.2428C23.2428 9.68066 23.454 9.26709 23.8765 8.94482C24.2991 8.62256 24.8272 8.46143 25.461 8.46143C26.1414 8.46143 26.6713 8.60824 27.0509 8.90186C27.4304 9.19189 27.6202 9.60726 27.6202 10.1479C27.6202 10.4093 27.5414 10.6493 27.3839 10.8677C27.2263 11.0861 27.0025 11.2598 26.7125 11.3887C27.3892 11.6178 27.7276 12.069 27.7276 12.7422C27.7276 13.2757 27.5217 13.6982 27.1099 14.0098C26.6982 14.3213 26.1485 14.4771 25.461 14.4771C24.7914 14.4771 24.2382 14.3141 23.8013 13.9883C23.3681 13.6589 23.1514 13.2148 23.1514 12.6562H24.1397C24.1397 12.9391 24.2651 13.1826 24.5157 13.3867C24.7699 13.5872 25.085 13.6875 25.461 13.6875C25.8406 13.6875 26.1467 13.5998 26.3795 13.4243C26.6122 13.2489 26.7286 13.0215 26.7286 12.7422C26.7286 12.4163 26.6301 12.1836 26.4332 12.0439C26.2398 11.9007 25.9373 11.8291 25.5255 11.8291H24.5318V10.9912H25.6114C26.2882 10.9733 26.6265 10.694 26.6265 10.1533ZM28.9683 13.564L29.3121 13.1396C29.6988 12.6383 29.919 11.8864 29.9727 10.8838L30.064 8.56348H33.8077V13.564H34.5543V16.083H33.5606V14.375H29.5054V16.083H28.5118L28.5172 13.564H28.9683ZM30.1446 13.564H32.814V9.48193H31.0255L30.9664 10.8677C30.9055 12.0243 30.6316 12.923 30.1446 13.564ZM39.2432 14.375C39.1859 14.2604 39.1394 14.0563 39.1036 13.7627C38.6417 14.2425 38.0902 14.4824 37.4493 14.4824C36.8764 14.4824 36.4055 14.3213 36.0367 13.999C35.6715 13.6732 35.4888 13.2614 35.4888 12.7637C35.4888 12.1585 35.718 11.6895 36.1763 11.3564C36.6383 11.0199 37.2864 10.8516 38.1207 10.8516H39.0875V10.395C39.0875 10.0477 38.9836 9.77197 38.776 9.56787C38.5683 9.36019 38.2621 9.25635 37.8575 9.25635C37.503 9.25635 37.2058 9.34587 36.9659 9.5249C36.726 9.70394 36.606 9.92057 36.606 10.1748H35.607C35.607 9.88477 35.7091 9.60547 35.9132 9.33691C36.1208 9.06478 36.4001 8.84993 36.7511 8.69238C37.1055 8.53483 37.4941 8.45605 37.9166 8.45605C38.5862 8.45605 39.1108 8.62435 39.4903 8.96094C39.8699 9.29395 40.0668 9.75407 40.0811 10.3413V13.0161C40.0811 13.5496 40.1492 13.974 40.2852 14.2891V14.375H39.2432ZM37.5943 13.6177C37.9058 13.6177 38.2012 13.5371 38.4805 13.376C38.7598 13.2148 38.9622 13.0054 39.0875 12.7476V11.5552H38.3087C37.0912 11.5552 36.4825 11.9115 36.4825 12.624C36.4825 12.9355 36.5863 13.179 36.794 13.3545C37.0017 13.5299 37.2685 13.6177 37.5943 13.6177ZM45.8712 9.36914H43.9215V14.375H42.9278V9.36914H41.0157V8.56348H45.8712V9.36914ZM47.9229 10.5669H49.4322C50.0911 10.5741 50.6121 10.7459 50.9952 11.0825C51.3783 11.4191 51.5699 11.8757 51.5699 12.4521C51.5699 13.0322 51.373 13.4977 50.9791 13.8486C50.5852 14.1995 50.0553 14.375 49.3892 14.375H46.9293V8.56348H47.9229V10.5669ZM47.9229 11.3779V13.564H49.4C49.7724 13.564 50.0606 13.4691 50.2647 13.2793C50.4688 13.0859 50.5709 12.8228 50.5709 12.4897C50.5709 12.1675 50.4706 11.9043 50.2701 11.7002C50.0732 11.4925 49.7956 11.3851 49.4376 11.3779H47.9229ZM55.4908 13.564L55.8345 13.1396C56.2213 12.6383 56.4415 11.8864 56.4952 10.8838L56.5865 8.56348H60.3302V13.564H61.0767V16.083H60.0831V14.375H56.0279V16.083H55.0343L55.0396 13.564H55.4908ZM56.6671 13.564H59.3365V9.48193H57.5479L57.4888 10.8677C57.428 12.0243 57.154 12.923 56.6671 13.564ZM61.9146 11.4155C61.9146 10.8462 62.0256 10.3341 62.2476 9.87939C62.4732 9.42464 62.7847 9.07373 63.1822 8.82666C63.5832 8.57959 64.0398 8.45605 64.5518 8.45605C65.3432 8.45605 65.9823 8.72998 66.4693 9.27783C66.9599 9.82568 67.2052 10.5544 67.2052 11.4639V11.5337C67.2052 12.0994 67.0959 12.6079 66.8775 13.0591C66.6627 13.5067 66.3529 13.8558 65.9483 14.1064C65.5473 14.3571 65.0854 14.4824 64.5626 14.4824C63.7748 14.4824 63.1357 14.2085 62.6451 13.6606C62.1581 13.1128 61.9146 12.3877 61.9146 11.4854V11.4155ZM62.9137 11.5337C62.9137 12.1782 63.0623 12.6956 63.3595 13.0859C63.6602 13.4762 64.0613 13.6714 64.5626 13.6714C65.0675 13.6714 65.4685 13.4744 65.7657 13.0806C66.0629 12.6831 66.2115 12.1281 66.2115 11.4155C66.2115 10.7782 66.0593 10.2625 65.755 9.86865C65.4542 9.47119 65.0531 9.27246 64.5518 9.27246C64.0613 9.27246 63.6656 9.46761 63.3648 9.85791C63.064 10.2482 62.9137 10.8068 62.9137 11.5337ZM70.2613 11.8989H69.5362V14.375H68.5372V8.56348H69.5362V11.0234H70.1861L72.1412 8.56348H73.3443L71.0455 11.3564L73.5377 14.375H72.2755L70.2613 11.8989ZM76.293 12.9194L77.6466 8.56348H78.71L76.3736 15.272C76.012 16.2388 75.4373 16.7222 74.6495 16.7222L74.4615 16.7061L74.0909 16.6362V15.8306L74.3595 15.8521C74.696 15.8521 74.9574 15.784 75.1436 15.6479C75.3334 15.5119 75.4892 15.263 75.6109 14.9014L75.8311 14.3105L73.7579 8.56348H74.8428L76.293 12.9194ZM82.9478 13.0591L84.9244 8.56348H86.1651V14.375H85.1715V10.1479L83.2916 14.375H82.6041L80.6866 10.0566V14.375H79.6929V8.56348H80.982L82.9478 13.0591ZM90.1773 14.4824C89.3896 14.4824 88.7486 14.2246 88.2545 13.709C87.7603 13.1898 87.5133 12.4969 87.5133 11.6304V11.4478C87.5133 10.8713 87.6225 10.3574 87.8409 9.90625C88.0629 9.4515 88.3708 9.09701 88.7647 8.84277C89.1622 8.58496 89.5919 8.45605 90.0538 8.45605C90.8093 8.45605 91.3966 8.70492 91.8155 9.20264C92.2345 9.70036 92.4439 10.4129 92.4439 11.3403V11.7539H88.5069C88.5212 12.3268 88.6877 12.7905 89.0064 13.145C89.3287 13.4959 89.7369 13.6714 90.231 13.6714C90.5819 13.6714 90.8791 13.5998 91.1226 13.4565C91.3661 13.3133 91.5792 13.1235 91.7618 12.8872L92.3687 13.3599C91.8817 14.1082 91.1513 14.4824 90.1773 14.4824ZM90.0538 9.27246C89.6527 9.27246 89.3162 9.41927 89.044 9.71289C88.7719 10.0029 88.6036 10.4111 88.5391 10.9375H91.4503V10.8623C91.4216 10.3574 91.2856 9.96712 91.0421 9.69141C90.7986 9.41211 90.4692 9.27246 90.0538 9.27246ZM98.3468 14.375H97.3531V11.8936H94.6837V14.375H93.6846V8.56348H94.6837V11.0825H97.3531V8.56348H98.3468V14.375ZM104.266 9.36914H102.316V14.375H101.322V9.36914H99.4102V8.56348H104.266V9.36914Z" fill="#555555"/>
</svg>
