<svg width="171" height="23" viewBox="0 0 171 23" fill="none" xmlns="http://www.w3.org/2000/svg">
<rect x="1.08484" y="0.826416" width="168.583" height="21" rx="1.5" fill="#F8F8F8" stroke="#DADADA"/>
<path d="M27.9373 11.0437C27.9373 11.81 27.8083 12.4796 27.5505 13.0525C27.2927 13.6218 26.9275 14.0569 26.4548 14.3577C25.9822 14.6584 25.4307 14.8088 24.8005 14.8088C24.1847 14.8088 23.6386 14.6584 23.1624 14.3577C22.6861 14.0533 22.3155 13.6218 22.0505 13.0632C21.7891 12.5011 21.6549 11.8512 21.6477 11.1135V10.5496C21.6477 9.79761 21.7784 9.13338 22.0398 8.55688C22.3012 7.98039 22.67 7.53996 23.1462 7.2356C23.6261 6.92765 24.1739 6.77368 24.7898 6.77368C25.4164 6.77368 25.9679 6.92586 26.4441 7.23022C26.9239 7.53101 27.2927 7.96965 27.5505 8.54614C27.8083 9.11906 27.9373 9.78687 27.9373 10.5496V11.0437ZM26.9114 10.5388C26.9114 9.61141 26.7252 8.90063 26.3528 8.40649C25.9804 7.90877 25.4594 7.65991 24.7898 7.65991C24.1381 7.65991 23.6243 7.90877 23.2483 8.40649C22.8759 8.90063 22.6843 9.58813 22.6736 10.469V11.0437C22.6736 11.9425 22.8616 12.6497 23.2375 13.1653C23.6171 13.6773 24.1381 13.9333 24.8005 13.9333C25.4666 13.9333 25.9822 13.6917 26.3474 13.2083C26.7126 12.7213 26.9006 12.0248 26.9114 11.1189V10.5388ZM33.6467 9.69556H31.697V14.7014H30.7034V9.69556H28.7913V8.88989H33.6467V9.69556ZM39.3669 14.7014H38.3733V9.71167H35.6985V14.7014H34.6995V8.88989H39.3669V14.7014ZM45.8713 11.8601C45.8713 12.7445 45.669 13.4571 45.2644 13.9978C44.8598 14.5385 44.3119 14.8088 43.6208 14.8088C42.9154 14.8088 42.3604 14.585 41.9558 14.1375V16.9358H40.9622V8.88989H41.8699L41.9182 9.53442C42.3228 9.03312 42.885 8.78247 43.6047 8.78247C44.303 8.78247 44.8544 9.04565 45.259 9.57202C45.6672 10.0984 45.8713 10.8306 45.8713 11.7688V11.8601ZM44.8777 11.7473C44.8777 11.092 44.738 10.5746 44.4587 10.1951C44.1794 9.81551 43.7963 9.62573 43.3093 9.62573C42.7078 9.62573 42.2566 9.8925 41.9558 10.426V13.2029C42.253 13.7328 42.7078 13.9978 43.3201 13.9978C43.7963 13.9978 44.1741 13.8098 44.4534 13.4338C44.7362 13.0543 44.8777 12.4921 44.8777 11.7473ZM50.7268 14.7014C50.6695 14.5868 50.623 14.3827 50.5872 14.0891C50.1252 14.5689 49.5738 14.8088 48.9329 14.8088C48.3599 14.8088 47.8891 14.6477 47.5203 14.3254C47.155 13.9996 46.9724 13.5878 46.9724 13.0901C46.9724 12.4849 47.2016 12.0159 47.6599 11.6829C48.1218 11.3463 48.7699 11.178 49.6042 11.178H50.571V10.7214C50.571 10.3741 50.4672 10.0984 50.2595 9.89429C50.0518 9.6866 49.7457 9.58276 49.3411 9.58276C48.9866 9.58276 48.6894 9.67228 48.4495 9.85132C48.2096 10.0304 48.0896 10.247 48.0896 10.5012H47.0906C47.0906 10.2112 47.1926 9.93188 47.3967 9.66333C47.6044 9.39119 47.8837 9.17635 48.2346 9.0188C48.5891 8.86125 48.9776 8.78247 49.4001 8.78247C50.0697 8.78247 50.5943 8.95076 50.9739 9.28735C51.3534 9.62036 51.5504 10.0805 51.5647 10.6677V13.3425C51.5647 13.8761 51.6327 14.3004 51.7688 14.6155V14.7014H50.7268ZM49.0779 13.9441C49.3894 13.9441 49.6848 13.8635 49.9641 13.7024C50.2434 13.5413 50.4457 13.3318 50.571 13.074V11.8816H49.7922C48.5748 11.8816 47.9661 12.2379 47.9661 12.9504C47.9661 13.262 48.0699 13.5055 48.2776 13.6809C48.4853 13.8564 48.752 13.9441 49.0779 13.9441ZM53.2136 14.7014V8.88989H55.4802C56.2537 8.88989 56.8463 9.02596 57.2581 9.2981C57.6734 9.56665 57.8811 9.96232 57.8811 10.4851C57.8811 10.7537 57.8005 10.9972 57.6394 11.2156C57.4783 11.4304 57.2402 11.5951 56.925 11.7097C57.276 11.7921 57.557 11.9532 57.7683 12.1931C57.9832 12.433 58.0906 12.7195 58.0906 13.0525C58.0906 13.586 57.8936 13.9942 57.4998 14.2771C57.1095 14.56 56.5562 14.7014 55.8401 14.7014H53.2136ZM54.2073 12.1501V13.9011H55.8508C56.2662 13.9011 56.5759 13.8241 56.78 13.6702C56.9877 13.5162 57.0916 13.2996 57.0916 13.0203C57.0916 12.4402 56.6654 12.1501 55.8132 12.1501H54.2073ZM54.2073 11.3552H55.491C56.422 11.3552 56.8875 11.0831 56.8875 10.5388C56.8875 9.99455 56.447 9.71346 55.5662 9.69556H54.2073V11.3552ZM63.1663 8.88989H64.1599V14.7014H63.1663V10.4636L60.4861 14.7014H59.4924V8.88989H60.4861V13.1331L63.1663 8.88989ZM70.0735 9.69556H68.1238V14.7014H67.1301V9.69556H65.218V8.88989H70.0735V9.69556ZM72.1252 10.8933H73.6345C74.2934 10.9005 74.8144 11.0723 75.1975 11.4089C75.5806 11.7455 75.7722 12.2021 75.7722 12.7786C75.7722 13.3586 75.5753 13.8241 75.1814 14.175C74.7875 14.526 74.2576 14.7014 73.5916 14.7014H71.1316V8.88989H72.1252V10.8933ZM72.1252 11.7043V13.8904H73.6023C73.9747 13.8904 74.2629 13.7955 74.467 13.6057C74.6711 13.4124 74.7732 13.1492 74.7732 12.8162C74.7732 12.4939 74.6729 12.2307 74.4724 12.0266C74.2755 11.8189 73.998 11.7115 73.6399 11.7043H72.1252ZM84.4949 14.7014H83.5012V9.71167H80.8264V14.7014H79.8274V8.88989H84.4949V14.7014ZM90.9993 11.8601C90.9993 12.7445 90.797 13.4571 90.3923 13.9978C89.9877 14.5385 89.4399 14.8088 88.7488 14.8088C88.0434 14.8088 87.4884 14.585 87.0837 14.1375V16.9358H86.0901V8.88989H86.9978L87.0461 9.53442C87.4508 9.03312 88.0129 8.78247 88.7327 8.78247C89.4309 8.78247 89.9823 9.04565 90.387 9.57202C90.7952 10.0984 90.9993 10.8306 90.9993 11.7688V11.8601ZM90.0056 11.7473C90.0056 11.092 89.866 10.5746 89.5867 10.1951C89.3074 9.81551 88.9242 9.62573 88.4373 9.62573C87.8357 9.62573 87.3845 9.8925 87.0837 10.426V13.2029C87.3809 13.7328 87.8357 13.9978 88.448 13.9978C88.9242 13.9978 89.302 13.8098 89.5813 13.4338C89.8642 13.0543 90.0056 12.4921 90.0056 11.7473ZM96.0266 8.88989H97.0203V14.7014H96.0266V10.4636L93.3464 14.7014H92.3528V8.88989H93.3464V13.1331L96.0266 8.88989ZM102.37 9.71167H99.6897V14.7014H98.6907V8.88989H102.37V9.71167ZM107.784 8.88989V14.7014H106.785V9.71167H104.808L104.69 11.887C104.626 12.886 104.457 13.6003 104.185 14.03C103.917 14.4597 103.489 14.6835 102.902 14.7014H102.504V13.8259L102.789 13.8044C103.111 13.7686 103.342 13.5824 103.482 13.2458C103.621 12.9093 103.711 12.2862 103.75 11.3767L103.858 8.88989H107.784ZM112.967 14.7014C112.91 14.5868 112.863 14.3827 112.827 14.0891C112.365 14.5689 111.814 14.8088 111.173 14.8088C110.6 14.8088 110.129 14.6477 109.76 14.3254C109.395 13.9996 109.213 13.5878 109.213 13.0901C109.213 12.4849 109.442 12.0159 109.9 11.6829C110.362 11.3463 111.01 11.178 111.844 11.178H112.811V10.7214C112.811 10.3741 112.707 10.0984 112.5 9.89429C112.292 9.6866 111.986 9.58276 111.581 9.58276C111.227 9.58276 110.93 9.67228 110.69 9.85132C110.45 10.0304 110.33 10.247 110.33 10.5012H109.331C109.331 10.2112 109.433 9.93188 109.637 9.66333C109.845 9.39119 110.124 9.17635 110.475 9.0188C110.829 8.86125 111.218 8.78247 111.64 8.78247C112.31 8.78247 112.835 8.95076 113.214 9.28735C113.594 9.62036 113.791 10.0805 113.805 10.6677V13.3425C113.805 13.8761 113.873 14.3004 114.009 14.6155V14.7014H112.967ZM111.318 13.9441C111.63 13.9441 111.925 13.8635 112.204 13.7024C112.484 13.5413 112.686 13.3318 112.811 13.074V11.8816H112.032C110.815 11.8816 110.206 12.2379 110.206 12.9504C110.206 13.262 110.31 13.5055 110.518 13.6809C110.726 13.8564 110.992 13.9441 111.318 13.9441ZM116.448 8.88989V13.8904H118.574V8.88989H119.568V13.8904H121.69V8.88989H122.689V14.7014H115.448V8.88989H116.448ZM126.669 14.8088C125.881 14.8088 125.24 14.551 124.746 14.0354C124.252 13.5162 124.005 12.8233 124.005 11.9568V11.7742C124.005 11.1977 124.114 10.6838 124.332 10.2327C124.554 9.77791 124.862 9.42342 125.256 9.16919C125.654 8.91138 126.083 8.78247 126.545 8.78247C127.301 8.78247 127.888 9.03133 128.307 9.52905C128.726 10.0268 128.935 10.7393 128.935 11.6667V12.0803H124.998C125.013 12.6532 125.179 13.1169 125.498 13.4714C125.82 13.8223 126.228 13.9978 126.722 13.9978C127.073 13.9978 127.371 13.9262 127.614 13.783C127.858 13.6397 128.071 13.45 128.253 13.2136L128.86 13.6863C128.373 14.4347 127.643 14.8088 126.669 14.8088ZM126.545 9.59888C126.144 9.59888 125.808 9.74569 125.535 10.0393C125.263 10.3293 125.095 10.7375 125.031 11.2639H127.942V11.1887C127.913 10.6838 127.777 10.2935 127.533 10.0178C127.29 9.73853 126.961 9.59888 126.545 9.59888ZM134.838 14.7014H133.844V12.22H131.175V14.7014H130.176V8.88989H131.175V11.4089H133.844V8.88989H134.838V14.7014ZM140.198 8.88989H141.192V14.7014H140.198V10.4636L137.518 14.7014H136.525V8.88989H137.518V13.1331L140.198 8.88989ZM147.229 8.88989V14.7014H146.23V12.4402H144.732L143.362 14.7014H142.288L143.749 12.2898C143.376 12.1537 143.09 11.9443 142.889 11.6614C142.692 11.3749 142.594 11.0419 142.594 10.6624C142.594 10.1324 142.793 9.7063 143.19 9.38403C143.588 9.05819 144.119 8.89347 144.785 8.88989H147.229ZM143.593 10.6731C143.593 10.956 143.69 11.1851 143.883 11.3606C144.076 11.5325 144.332 11.6202 144.651 11.6238H146.23V9.69556H144.802C144.433 9.69556 144.139 9.78687 143.921 9.96948C143.702 10.1485 143.593 10.3831 143.593 10.6731Z" fill="#555555"/>
</svg>
