<svg width="170" height="23" viewBox="0 0 170 23" fill="none" xmlns="http://www.w3.org/2000/svg">
<rect x="0.501465" y="1.33643" width="168.583" height="21" rx="1.5" fill="#E9F3FA" stroke="#AFC9DC"/>
<path d="M53.1517 11.5537C53.1517 12.32 53.0228 12.9896 52.765 13.5625C52.5071 14.1318 52.1419 14.5669 51.6693 14.8677C51.1966 15.1685 50.6452 15.3188 50.015 15.3188C49.3991 15.3188 48.853 15.1685 48.3768 14.8677C47.9005 14.5633 47.5299 14.1318 47.265 13.5732C47.0036 13.0111 46.8693 12.3612 46.8621 11.6235V11.0596C46.8621 10.3076 46.9928 9.64339 47.2542 9.06689C47.5156 8.4904 47.8844 8.04997 48.3607 7.74561C48.8405 7.43766 49.3883 7.28369 50.0042 7.28369C50.6308 7.28369 51.1823 7.43587 51.6585 7.74023C52.1383 8.04102 52.5071 8.47965 52.765 9.05615C53.0228 9.62907 53.1517 10.2969 53.1517 11.0596V11.5537ZM52.1258 11.0488C52.1258 10.1214 51.9396 9.41064 51.5672 8.9165C51.1948 8.41878 50.6738 8.16992 50.0042 8.16992C49.3525 8.16992 48.8387 8.41878 48.4627 8.9165C48.0903 9.41064 47.8987 10.0981 47.888 10.979V11.5537C47.888 12.4525 48.076 13.1597 48.452 13.6753C48.8315 14.1873 49.3525 14.4434 50.015 14.4434C50.681 14.4434 51.1966 14.2017 51.5618 13.7183C51.9271 13.2313 52.1151 12.5348 52.1258 11.6289V11.0488ZM57.7386 10.9897C57.7386 10.7176 57.6347 10.5028 57.4271 10.3452C57.2194 10.1841 56.9347 10.1035 56.5731 10.1035C56.2221 10.1035 55.9285 10.1948 55.6922 10.3774C55.4595 10.5601 55.3431 10.7749 55.3431 11.022H54.3548C54.3548 10.5171 54.5661 10.1035 54.9886 9.78125C55.4111 9.45898 55.9393 9.29785 56.5731 9.29785C57.2534 9.29785 57.7833 9.44466 58.1629 9.73828C58.5425 10.0283 58.7322 10.4437 58.7322 10.9844C58.7322 11.2458 58.6535 11.4857 58.4959 11.7041C58.3384 11.9225 58.1146 12.0962 57.8245 12.2251C58.5013 12.4543 58.8397 12.9054 58.8397 13.5786C58.8397 14.1121 58.6338 14.5347 58.222 14.8462C57.8102 15.1577 57.2606 15.3135 56.5731 15.3135C55.9035 15.3135 55.3502 15.1506 54.9134 14.8247C54.4801 14.4953 54.2635 14.0513 54.2635 13.4927H55.2518C55.2518 13.7756 55.3771 14.019 55.6277 14.2231C55.882 14.4237 56.1971 14.5239 56.5731 14.5239C56.9526 14.5239 57.2588 14.4362 57.4915 14.2607C57.7243 14.0853 57.8406 13.8579 57.8406 13.5786C57.8406 13.2528 57.7422 13.02 57.5452 12.8804C57.3519 12.7371 57.0493 12.6655 56.6375 12.6655H55.6439V11.8276H56.7234C57.4002 11.8097 57.7386 11.5304 57.7386 10.9897ZM64.8768 15.2114H63.8831V12.73H61.2137V15.2114H60.2147V9.3999H61.2137V11.9189H63.8831V9.3999H64.8768V15.2114ZM70.0652 15.2114C70.008 15.0968 69.9614 14.8927 69.9256 14.5991C69.4637 15.0789 68.9123 15.3188 68.2713 15.3188C67.6984 15.3188 67.2275 15.1577 66.8587 14.8354C66.4935 14.5096 66.3109 14.0978 66.3109 13.6001C66.3109 12.995 66.54 12.5259 66.9984 12.1929C67.4603 11.8563 68.1084 11.688 68.9427 11.688H69.9095V11.2314C69.9095 10.8841 69.8056 10.6084 69.598 10.4043C69.3903 10.1966 69.0841 10.0928 68.6795 10.0928C68.325 10.0928 68.0278 10.1823 67.7879 10.3613C67.548 10.5404 67.428 10.757 67.428 11.0112H66.429C66.429 10.7212 66.5311 10.4419 66.7352 10.1733C66.9429 9.9012 67.2221 9.68636 67.5731 9.52881C67.9276 9.37126 68.3161 9.29248 68.7386 9.29248C69.4082 9.29248 69.9328 9.46077 70.3123 9.79736C70.6919 10.1304 70.8888 10.5905 70.9031 11.1777V13.8525C70.9031 14.3861 70.9712 14.8104 71.1072 15.1255V15.2114H70.0652ZM68.4163 14.4541C68.7278 14.4541 69.0233 14.3735 69.3026 14.2124C69.5818 14.0513 69.7842 13.8418 69.9095 13.584V12.3916H69.1307C67.9132 12.3916 67.3045 12.7479 67.3045 13.4604C67.3045 13.772 67.4083 14.0155 67.616 14.1909C67.8237 14.3664 68.0905 14.4541 68.4163 14.4541ZM74.2708 12.7354H73.5457V15.2114H72.5467V9.3999H73.5457V11.8599H74.1956L76.1507 9.3999H77.3538L75.055 12.1929L77.5472 15.2114H76.285L74.2708 12.7354ZM78.0198 12.252C78.0198 11.6826 78.1308 11.1706 78.3528 10.7158C78.5784 10.2611 78.89 9.91016 79.2874 9.66309C79.6885 9.41602 80.145 9.29248 80.657 9.29248C81.4484 9.29248 82.0875 9.56641 82.5745 10.1143C83.0651 10.6621 83.3104 11.3908 83.3104 12.3003V12.3701C83.3104 12.9359 83.2012 13.4443 82.9827 13.8955C82.7679 14.3431 82.4582 14.6922 82.0535 14.9429C81.6525 15.1935 81.1906 15.3188 80.6678 15.3188C79.88 15.3188 79.2409 15.0449 78.7503 14.4971C78.2633 13.9492 78.0198 13.2241 78.0198 12.3218V12.252ZM79.0189 12.3701C79.0189 13.0146 79.1675 13.5321 79.4647 13.9224C79.7654 14.3127 80.1665 14.5078 80.6678 14.5078C81.1727 14.5078 81.5737 14.3109 81.8709 13.917C82.1681 13.5195 82.3167 12.9645 82.3167 12.252C82.3167 11.6146 82.1645 11.099 81.8602 10.7051C81.5594 10.3076 81.1583 10.1089 80.657 10.1089C80.1665 10.1089 79.7708 10.304 79.47 10.6943C79.1693 11.0846 79.0189 11.6432 79.0189 12.3701ZM87.9026 13.8955L89.8792 9.3999H91.1199V15.2114H90.1263V10.9844L88.2464 15.2114H87.5589L85.6414 10.8931V15.2114H84.6478V9.3999H85.9368L87.9026 13.8955ZM97.4847 9.3999V15.2114H96.4857V10.2217H94.5091L94.3909 12.397C94.3265 13.396 94.1582 14.1104 93.886 14.54C93.6175 14.9697 93.1896 15.1935 92.6024 15.2114H92.2049V14.3359L92.4896 14.3145C92.8118 14.2786 93.0428 14.0924 93.1824 13.7559C93.3221 13.4193 93.4116 12.7962 93.451 11.8867L93.5584 9.3999H97.4847ZM101.492 15.3188C100.704 15.3188 100.063 15.061 99.5687 14.5454C99.0745 14.0262 98.8275 13.3333 98.8275 12.4668V12.2842C98.8275 11.7077 98.9367 11.1938 99.1551 10.7427C99.3771 10.2879 99.685 9.93343 100.079 9.6792C100.476 9.42139 100.906 9.29248 101.368 9.29248C102.124 9.29248 102.711 9.54134 103.13 10.0391C103.549 10.5368 103.758 11.2493 103.758 12.1768V12.5903H99.8211C99.8354 13.1632 100.002 13.627 100.321 13.9814C100.643 14.3324 101.051 14.5078 101.545 14.5078C101.896 14.5078 102.193 14.4362 102.437 14.293C102.68 14.1497 102.893 13.96 103.076 13.7236L103.683 14.1963C103.196 14.9447 102.465 15.3188 101.492 15.3188ZM101.368 10.1089C100.967 10.1089 100.63 10.2557 100.358 10.5493C100.086 10.8394 99.9178 11.2476 99.8533 11.7739H102.764V11.6987C102.736 11.1938 102.6 10.8035 102.356 10.5278C102.113 10.2485 101.783 10.1089 101.368 10.1089ZM109.661 15.2114H108.667V12.73H105.998V15.2114H104.999V9.3999H105.998V11.9189H108.667V9.3999H109.661V15.2114ZM115.021 9.3999H116.015V15.2114H115.021V10.9736L112.341 15.2114H111.347V9.3999H112.341V13.6431L115.021 9.3999ZM120.022 15.3188C119.234 15.3188 118.593 15.061 118.099 14.5454C117.605 14.0262 117.358 13.3333 117.358 12.4668V12.2842C117.358 11.7077 117.467 11.1938 117.685 10.7427C117.907 10.2879 118.215 9.93343 118.609 9.6792C119.007 9.42139 119.436 9.29248 119.898 9.29248C120.654 9.29248 121.241 9.54134 121.66 10.0391C122.079 10.5368 122.288 11.2493 122.288 12.1768V12.5903H118.351C118.366 13.1632 118.532 13.627 118.851 13.9814C119.173 14.3324 119.581 14.5078 120.076 14.5078C120.426 14.5078 120.724 14.4362 120.967 14.293C121.211 14.1497 121.424 13.96 121.606 13.7236L122.213 14.1963C121.726 14.9447 120.996 15.3188 120.022 15.3188ZM119.898 10.1089C119.497 10.1089 119.161 10.2557 118.888 10.5493C118.616 10.8394 118.448 11.2476 118.384 11.7739H121.295V11.6987C121.266 11.1938 121.13 10.8035 120.887 10.5278C120.643 10.2485 120.314 10.1089 119.898 10.1089Z" fill="#555555"/>
</svg>
