<svg width="170" height="23" viewBox="0 0 170 23" fill="none" xmlns="http://www.w3.org/2000/svg">
<rect x="0.501465" y="1.10101" width="168.583" height="21" rx="1.5" fill="#ECF5DD" stroke="#C5D2B1"/>
<path d="M57.7918 12.4946C57.6951 13.3217 57.389 13.9609 56.8734 14.412C56.3613 14.8596 55.6792 15.0834 54.827 15.0834C53.9031 15.0834 53.1619 14.7522 52.6033 14.0898C52.0483 13.4273 51.7708 12.5411 51.7708 11.4311V10.6791C51.7708 9.95225 51.8997 9.31309 52.1575 8.76166C52.4189 8.21023 52.7877 7.7877 53.264 7.49408C53.7402 7.19688 54.2916 7.04828 54.9183 7.04828C55.749 7.04828 56.415 7.28103 56.9163 7.74652C57.4176 8.20844 57.7095 8.84939 57.7918 9.66937H56.7552C56.6657 9.04633 56.4705 8.59515 56.1697 8.31586C55.8725 8.03656 55.4554 7.89691 54.9183 7.89691C54.2594 7.89691 53.742 8.1404 53.366 8.62738C52.9936 9.11436 52.8074 9.80723 52.8074 10.706V11.4633C52.8074 12.312 52.9847 12.9869 53.3392 13.4882C53.6937 13.9895 54.1896 14.2402 54.827 14.2402C55.3999 14.2402 55.8385 14.1113 56.1429 13.8535C56.4508 13.5921 56.6549 13.1391 56.7552 12.4946H57.7918ZM58.7855 12.0165C58.7855 11.4472 58.8965 10.9352 59.1185 10.4804C59.3441 10.0257 59.6556 9.67474 60.053 9.42767C60.4541 9.1806 60.9106 9.05707 61.4227 9.05707C62.214 9.05707 62.8532 9.33099 63.3401 9.87885C63.8307 10.4267 64.076 11.1554 64.076 12.0649V12.1347C64.076 12.7005 63.9668 13.2089 63.7484 13.6601C63.5335 14.1077 63.2238 14.4568 62.8192 14.7075C62.4181 14.9581 61.9562 15.0834 61.4334 15.0834C60.6457 15.0834 60.0065 14.8095 59.5159 14.2617C59.029 13.7138 58.7855 12.9887 58.7855 12.0864V12.0165ZM59.7845 12.1347C59.7845 12.7792 59.9331 13.2967 60.2303 13.687C60.5311 14.0773 60.9321 14.2724 61.4334 14.2724C61.9383 14.2724 62.3393 14.0755 62.6365 13.6816C62.9337 13.2841 63.0823 12.7291 63.0823 12.0165C63.0823 11.3792 62.9302 10.8635 62.6258 10.4697C62.325 10.0722 61.924 9.87347 61.4227 9.87347C60.9321 9.87347 60.5364 10.0686 60.2357 10.4589C59.9349 10.8492 59.7845 11.4078 59.7845 12.1347ZM69.0765 9.98627H66.3963V14.976H65.3973V9.16449H69.0765V9.98627ZM74.4905 9.16449V14.976H73.4915V9.98627H71.515L71.3968 12.1616C71.3323 13.1606 71.164 13.8749 70.8919 14.3046C70.6234 14.7343 70.1955 14.9581 69.6082 14.976H69.2108V14.1005L69.4954 14.079C69.8177 14.0432 70.0486 13.857 70.1883 13.5204C70.3279 13.1839 70.4175 12.5608 70.4568 11.6513L70.5643 9.16449H74.4905ZM79.6736 14.976C79.6164 14.8614 79.5698 14.6573 79.534 14.3637C79.0721 14.8435 78.5207 15.0834 77.8797 15.0834C77.3068 15.0834 76.8359 14.9223 76.4671 14.6C76.1019 14.2742 75.9193 13.8624 75.9193 13.3647C75.9193 12.7595 76.1484 12.2905 76.6068 11.9575C77.0687 11.6209 77.7168 11.4526 78.5511 11.4526H79.5179V10.996C79.5179 10.6487 79.414 10.373 79.2064 10.1689C78.9987 9.9612 78.6925 9.85736 78.2879 9.85736C77.9334 9.85736 77.6362 9.94688 77.3963 10.1259C77.1564 10.305 77.0364 10.5216 77.0364 10.7758H76.0374C76.0374 10.4858 76.1395 10.2065 76.3436 9.93793C76.5512 9.66579 76.8305 9.45095 77.1815 9.2934C77.5359 9.13584 77.9245 9.05707 78.347 9.05707C79.0166 9.05707 79.5412 9.22536 79.9207 9.56195C80.3003 9.89496 80.4972 10.3551 80.5115 10.9423V13.6171C80.5115 14.1507 80.5796 14.575 80.7156 14.8901V14.976H79.6736ZM78.0247 14.2187C78.3362 14.2187 78.6317 14.1381 78.9109 13.977C79.1902 13.8159 79.3926 13.6064 79.5179 13.3486V12.1562H78.7391C77.5216 12.1562 76.9129 12.5125 76.9129 13.225C76.9129 13.5366 77.0167 13.78 77.2244 13.9555C77.4321 14.131 77.6989 14.2187 78.0247 14.2187ZM84.4002 14.2724C84.7547 14.2724 85.0644 14.165 85.3294 13.9501C85.5944 13.7353 85.7412 13.4667 85.7698 13.1445H86.7098C86.6919 13.4775 86.5773 13.7944 86.366 14.0952C86.1548 14.3959 85.8719 14.6358 85.5174 14.8149C85.1665 14.9939 84.7941 15.0834 84.4002 15.0834C83.6089 15.0834 82.9787 14.8203 82.5096 14.2939C82.0441 13.7639 81.8113 13.0406 81.8113 12.124V11.9575C81.8113 11.3917 81.9152 10.8886 82.1229 10.4482C82.3305 10.0078 82.6277 9.66579 83.0145 9.4223C83.4048 9.17881 83.8649 9.05707 84.3948 9.05707C85.0465 9.05707 85.5872 9.25222 86.0169 9.64252C86.4502 10.0328 86.6811 10.5395 86.7098 11.1625H85.7698C85.7412 10.7866 85.598 10.4786 85.3401 10.2387C85.0859 9.99522 84.7708 9.87347 84.3948 9.87347C83.89 9.87347 83.4979 10.0561 83.2186 10.4213C82.9429 10.783 82.805 11.3076 82.805 11.9951V12.183C82.805 12.8526 82.9429 13.3683 83.2186 13.7299C83.4943 14.0916 83.8882 14.2724 84.4002 14.2724ZM87.5638 12.0165C87.5638 11.4472 87.6748 10.9352 87.8968 10.4804C88.1224 10.0257 88.4339 9.67474 88.8314 9.42767C89.2324 9.1806 89.6889 9.05707 90.201 9.05707C90.9923 9.05707 91.6315 9.33099 92.1185 9.87885C92.609 10.4267 92.8543 11.1554 92.8543 12.0649V12.1347C92.8543 12.7005 92.7451 13.2089 92.5267 13.6601C92.3118 14.1077 92.0021 14.4568 91.5975 14.7075C91.1964 14.9581 90.7345 15.0834 90.2117 15.0834C89.424 15.0834 88.7848 14.8095 88.2943 14.2617C87.8073 13.7138 87.5638 12.9887 87.5638 12.0864V12.0165ZM88.5628 12.1347C88.5628 12.7792 88.7114 13.2967 89.0086 13.687C89.3094 14.0773 89.7104 14.2724 90.2117 14.2724C90.7166 14.2724 91.1177 14.0755 91.4149 13.6816C91.7121 13.2841 91.8607 12.7291 91.8607 12.0165C91.8607 11.3792 91.7085 10.8635 91.4041 10.4697C91.1033 10.0722 90.7023 9.87347 90.201 9.87347C89.7104 9.87347 89.3148 10.0686 89.014 10.4589C88.7132 10.8492 88.5628 11.4078 88.5628 12.1347ZM94.1917 14.976V9.16449H96.4583C97.2318 9.16449 97.8244 9.30056 98.2361 9.57269C98.6515 9.84125 98.8592 10.2369 98.8592 10.7597C98.8592 11.0283 98.7786 11.2717 98.6175 11.4902C98.4564 11.705 98.2182 11.8697 97.9031 11.9843C98.254 12.0667 98.5351 12.2278 98.7464 12.4677C98.9612 12.7076 99.0687 12.9941 99.0687 13.3271C99.0687 13.8606 98.8717 14.2688 98.4778 14.5517C98.0875 14.8346 97.5343 14.976 96.8182 14.976H94.1917ZM95.1854 12.4247V14.1757H96.8289C97.2443 14.1757 97.554 14.0987 97.7581 13.9448C97.9658 13.7908 98.0696 13.5742 98.0696 13.2949C98.0696 12.7148 97.6435 12.4247 96.7913 12.4247H95.1854ZM95.1854 11.6298H96.4691C97.4 11.6298 97.8655 11.3577 97.8655 10.8134C97.8655 10.2691 97.4251 9.98806 96.5443 9.97015H95.1854V11.6298ZM103.972 14.976C103.915 14.8614 103.869 14.6573 103.833 14.3637C103.371 14.8435 102.819 15.0834 102.179 15.0834C101.606 15.0834 101.135 14.9223 100.766 14.6C100.401 14.2742 100.218 13.8624 100.218 13.3647C100.218 12.7595 100.447 12.2905 100.906 11.9575C101.367 11.6209 102.016 11.4526 102.85 11.4526H103.817V10.996C103.817 10.6487 103.713 10.373 103.505 10.1689C103.298 9.9612 102.991 9.85736 102.587 9.85736C102.232 9.85736 101.935 9.94688 101.695 10.1259C101.455 10.305 101.335 10.5216 101.335 10.7758H100.336C100.336 10.4858 100.438 10.2065 100.642 9.93793C100.85 9.66579 101.129 9.45095 101.48 9.2934C101.835 9.13584 102.223 9.05707 102.646 9.05707C103.315 9.05707 103.84 9.22536 104.22 9.56195C104.599 9.89496 104.796 10.3551 104.81 10.9423V13.6171C104.81 14.1507 104.878 14.575 105.014 14.8901V14.976H103.972ZM102.324 14.2187C102.635 14.2187 102.93 14.1381 103.21 13.977C103.489 13.8159 103.691 13.6064 103.817 13.3486V12.1562H103.038C101.82 12.1562 101.212 12.5125 101.212 13.225C101.212 13.5366 101.316 13.78 101.523 13.9555C101.731 14.131 101.998 14.2187 102.324 14.2187ZM110.6 9.97015H108.651V14.976H107.657V9.97015H105.745V9.16449H110.6V9.97015ZM112.652 11.1679H114.161C114.82 11.1751 115.341 11.3469 115.724 11.6835C116.108 12.0201 116.299 12.4767 116.299 13.0532C116.299 13.6332 116.102 14.0987 115.708 14.4496C115.314 14.8006 114.784 14.976 114.118 14.976H111.659V9.16449H112.652V11.1679ZM112.652 11.9789V14.165H114.129C114.502 14.165 114.79 14.0701 114.994 13.8803C115.198 13.687 115.3 13.4238 115.3 13.0908C115.3 12.7685 115.2 12.5053 114.999 12.3012C114.802 12.0935 114.525 11.9861 114.167 11.9789H112.652Z" fill="#555555"/>
</svg>
