<svg width="73" height="23" viewBox="0 0 73 23" fill="none" xmlns="http://www.w3.org/2000/svg">
<rect x="0.918091" y="0.826416" width="71" height="21" rx="1.5" fill="#F8F8F8" stroke="#DADADA"/>
<path d="M19.1917 8.9812C19.1917 8.56584 19.0395 8.23641 18.7351 7.99292C18.4343 7.74585 18.01 7.62231 17.4622 7.62231C17.0038 7.62231 16.6189 7.74943 16.3074 8.00366C15.9994 8.25431 15.8455 8.56584 15.8455 8.93823H14.8142C14.8142 8.52287 14.927 8.15047 15.1526 7.82104C15.3818 7.49162 15.7004 7.2356 16.1086 7.05298C16.5168 6.86678 16.968 6.77368 17.4622 6.77368C18.3359 6.77368 19.0144 6.97062 19.4978 7.3645C19.9812 7.7548 20.2229 8.29907 20.2229 8.99731C20.2229 9.35897 20.1119 9.6884 19.8899 9.9856C19.6679 10.2828 19.3582 10.5173 18.9607 10.6892C19.8809 10.9972 20.3411 11.6077 20.3411 12.5208C20.3411 13.2226 20.0797 13.7794 19.5569 14.1912C19.0341 14.6029 18.3359 14.8088 17.4622 14.8088C16.943 14.8088 16.4703 14.7175 16.0442 14.5349C15.6217 14.3487 15.2922 14.0855 15.0559 13.7454C14.8196 13.4052 14.7014 13.0006 14.7014 12.5315H15.7327C15.7327 12.9433 15.8956 13.287 16.2214 13.5627C16.5473 13.8349 16.9609 13.9709 17.4622 13.9709C18.0243 13.9709 18.4719 13.8403 18.8049 13.5789C19.1415 13.3175 19.3098 12.9719 19.3098 12.5422C19.3098 11.6256 18.7423 11.1583 17.6072 11.1404H16.6404V10.2917H17.6018C18.1246 10.281 18.5203 10.1628 18.7888 9.93726C19.0574 9.71167 19.1917 9.39299 19.1917 8.9812ZM25.1428 14.7014C25.0855 14.5868 25.039 14.3827 25.0032 14.0891C24.5413 14.5689 23.9898 14.8088 23.3489 14.8088C22.776 14.8088 22.3051 14.6477 21.9363 14.3254C21.571 13.9996 21.3884 13.5878 21.3884 13.0901C21.3884 12.4849 21.6176 12.0159 22.0759 11.6829C22.5378 11.3463 23.186 11.178 24.0203 11.178H24.9871V10.7214C24.9871 10.3741 24.8832 10.0984 24.6755 9.89429C24.4679 9.6866 24.1617 9.58276 23.7571 9.58276C23.4026 9.58276 23.1054 9.67228 22.8655 9.85132C22.6256 10.0304 22.5056 10.247 22.5056 10.5012H21.5066C21.5066 10.2112 21.6086 9.93188 21.8127 9.66333C22.0204 9.39119 22.2997 9.17635 22.6506 9.0188C23.0051 8.86125 23.3936 8.78247 23.8162 8.78247C24.4858 8.78247 25.0103 8.95076 25.3899 9.28735C25.7694 9.62036 25.9664 10.0805 25.9807 10.6677V13.3425C25.9807 13.8761 26.0487 14.3004 26.1848 14.6155V14.7014H25.1428ZM23.4939 13.9441C23.8054 13.9441 24.1008 13.8635 24.3801 13.7024C24.6594 13.5413 24.8617 13.3318 24.9871 13.074V11.8816H24.2083C22.9908 11.8816 22.3821 12.2379 22.3821 12.9504C22.3821 13.262 22.4859 13.5055 22.6936 13.6809C22.9013 13.8564 23.1681 13.9441 23.4939 13.9441ZM29.3484 12.2253H28.6233V14.7014H27.6243V8.88989H28.6233V11.3499H29.2732L31.2283 8.88989H32.4314L30.1326 11.6829L32.6248 14.7014H31.3625L29.3484 12.2253ZM38.3879 11.8601C38.3879 12.7445 38.1856 13.4571 37.781 13.9978C37.3764 14.5385 36.8285 14.8088 36.1375 14.8088C35.432 14.8088 34.877 14.585 34.4724 14.1375V16.9358H33.4788V8.88989H34.3865L34.4348 9.53442C34.8394 9.03312 35.4016 8.78247 36.1213 8.78247C36.8196 8.78247 37.371 9.04565 37.7756 9.57202C38.1838 10.0984 38.3879 10.8306 38.3879 11.7688V11.8601ZM37.3943 11.7473C37.3943 11.092 37.2546 10.5746 36.9753 10.1951C36.696 9.81551 36.3129 9.62573 35.8259 9.62573C35.2244 9.62573 34.7732 9.8925 34.4724 10.426V13.2029C34.7696 13.7328 35.2244 13.9978 35.8367 13.9978C36.3129 13.9978 36.6907 13.8098 36.97 13.4338C37.2528 13.0543 37.3943 12.4921 37.3943 11.7473ZM40.7405 10.8933H42.2498C42.9086 10.9005 43.4296 11.0723 43.8127 11.4089C44.1959 11.7455 44.3875 12.2021 44.3875 12.7786C44.3875 13.3586 44.1905 13.8241 43.7966 14.175C43.4028 14.526 42.8728 14.7014 42.2068 14.7014H39.7468V8.88989H40.7405V10.8933ZM46.4607 14.7014H45.4617V8.88989H46.4607V14.7014ZM40.7405 11.7043V13.8904H42.2175C42.5899 13.8904 42.8782 13.7955 43.0823 13.6057C43.2864 13.4124 43.3884 13.1492 43.3884 12.8162C43.3884 12.4939 43.2882 12.2307 43.0876 12.0266C42.8907 11.8189 42.6132 11.7115 42.2551 11.7043H40.7405ZM52.5139 9.69556H50.5642V14.7014H49.5706V9.69556H47.6584V8.88989H52.5139V9.69556ZM54.5657 10.8933H56.075C56.7338 10.9005 57.2548 11.0723 57.6379 11.4089C58.0211 11.7455 58.2126 12.2021 58.2126 12.7786C58.2126 13.3586 58.0157 13.8241 57.6218 14.175C57.2279 14.526 56.698 14.7014 56.032 14.7014H53.572V8.88989H54.5657V10.8933ZM54.5657 11.7043V13.8904H56.0427C56.4151 13.8904 56.7034 13.7955 56.9075 13.6057C57.1116 13.4124 57.2136 13.1492 57.2136 12.8162C57.2136 12.4939 57.1134 12.2307 56.9128 12.0266C56.7159 11.8189 56.4384 11.7115 56.0803 11.7043H54.5657Z" fill="#555555"/>
</svg>
