<svg width="133" height="23" viewBox="0 0 133 23" fill="none" xmlns="http://www.w3.org/2000/svg">
<rect x="0.918091" y="0.826416" width="131" height="21" rx="1.5" fill="#F8F8F8" stroke="#DADADA"/>
<path d="M16.428 8.9812C16.428 8.56584 16.2758 8.23641 15.9714 7.99292C15.6707 7.74585 15.2463 7.62231 14.6985 7.62231C14.2402 7.62231 13.8552 7.74943 13.5437 8.00366C13.2358 8.25431 13.0818 8.56584 13.0818 8.93823H12.0505C12.0505 8.52287 12.1633 8.15047 12.3889 7.82104C12.6181 7.49162 12.9368 7.2356 13.345 7.05298C13.7532 6.86678 14.2043 6.77368 14.6985 6.77368C15.5722 6.77368 16.2507 6.97062 16.7341 7.3645C17.2175 7.7548 17.4592 8.29907 17.4592 8.99731C17.4592 9.35897 17.3482 9.6884 17.1262 9.9856C16.9042 10.2828 16.5945 10.5173 16.197 10.6892C17.1173 10.9972 17.5774 11.6077 17.5774 12.5208C17.5774 13.2226 17.316 13.7794 16.7932 14.1912C16.2704 14.6029 15.5722 14.8088 14.6985 14.8088C14.1793 14.8088 13.7066 14.7175 13.2805 14.5349C12.858 14.3487 12.5286 14.0855 12.2922 13.7454C12.0559 13.4052 11.9377 13.0006 11.9377 12.5315H12.969C12.969 12.9433 13.1319 13.287 13.4578 13.5627C13.7836 13.8349 14.1972 13.9709 14.6985 13.9709C15.2607 13.9709 15.7083 13.8403 16.0413 13.5789C16.3778 13.3175 16.5461 12.9719 16.5461 12.5422C16.5461 11.6256 15.9786 11.1583 14.8435 11.1404H13.8767V10.2917H14.8381C15.3609 10.281 15.7566 10.1628 16.0251 9.93726C16.2937 9.71167 16.428 9.39299 16.428 8.9812ZM22.3792 14.7014C22.3219 14.5868 22.2753 14.3827 22.2395 14.0891C21.7776 14.5689 21.2262 14.8088 20.5852 14.8088C20.0123 14.8088 19.5414 14.6477 19.1726 14.3254C18.8074 13.9996 18.6248 13.5878 18.6248 13.0901C18.6248 12.4849 18.8539 12.0159 19.3123 11.6829C19.7742 11.3463 20.4223 11.178 21.2566 11.178H22.2234V10.7214C22.2234 10.3741 22.1195 10.0984 21.9119 9.89429C21.7042 9.6866 21.398 9.58276 20.9934 9.58276C20.6389 9.58276 20.3417 9.67228 20.1018 9.85132C19.8619 10.0304 19.7419 10.247 19.7419 10.5012H18.7429C18.7429 10.2112 18.845 9.93188 19.0491 9.66333C19.2568 9.39119 19.5361 9.17635 19.887 9.0188C20.2415 8.86125 20.63 8.78247 21.0525 8.78247C21.7221 8.78247 22.2467 8.95076 22.6262 9.28735C23.0058 9.62036 23.2027 10.0805 23.217 10.6677V13.3425C23.217 13.8761 23.2851 14.3004 23.4211 14.6155V14.7014H22.3792ZM20.7302 13.9441C21.0417 13.9441 21.3372 13.8635 21.6165 13.7024C21.8958 13.5413 22.0981 13.3318 22.2234 13.074V11.8816H21.4446C20.2271 11.8816 19.6184 12.2379 19.6184 12.9504C19.6184 13.262 19.7222 13.5055 19.9299 13.6809C20.1376 13.8564 20.4044 13.9441 20.7302 13.9441ZM24.866 14.7014V8.88989H27.1326C27.906 8.88989 28.4986 9.02596 28.9104 9.2981C29.3258 9.56665 29.5334 9.96232 29.5334 10.4851C29.5334 10.7537 29.4529 10.9972 29.2917 11.2156C29.1306 11.4304 28.8925 11.5951 28.5774 11.7097C28.9283 11.7921 29.2094 11.9532 29.4207 12.1931C29.6355 12.433 29.7429 12.7195 29.7429 13.0525C29.7429 13.586 29.546 13.9942 29.1521 14.2771C28.7618 14.56 28.2086 14.7014 27.4924 14.7014H24.866ZM25.8596 12.1501V13.9011H27.5032C27.9185 13.9011 28.2283 13.8241 28.4324 13.6702C28.6401 13.5162 28.7439 13.2996 28.7439 13.0203C28.7439 12.4402 28.3178 12.1501 27.4656 12.1501H25.8596ZM25.8596 11.3552H27.1433C28.0743 11.3552 28.5398 11.0831 28.5398 10.5388C28.5398 9.99455 28.0994 9.71346 27.2185 9.69556H25.8596V11.3552ZM33.4705 14.8088C32.6827 14.8088 32.0417 14.551 31.5476 14.0354C31.0535 13.5162 30.8064 12.8233 30.8064 11.9568V11.7742C30.8064 11.1977 30.9156 10.6838 31.134 10.2327C31.356 9.77791 31.664 9.42342 32.0579 9.16919C32.4553 8.91138 32.885 8.78247 33.3469 8.78247C34.1025 8.78247 34.6897 9.03133 35.1086 9.52905C35.5276 10.0268 35.7371 10.7393 35.7371 11.6667V12.0803H31.8C31.8144 12.6532 31.9809 13.1169 32.2996 13.4714C32.6218 13.8223 33.03 13.9978 33.5242 13.9978C33.8751 13.9978 34.1723 13.9262 34.4158 13.783C34.6593 13.6397 34.8723 13.45 35.0549 13.2136L35.6619 13.6863C35.1749 14.4347 34.4444 14.8088 33.4705 14.8088ZM33.3469 9.59888C32.9459 9.59888 32.6093 9.74569 32.3372 10.0393C32.065 10.3293 31.8967 10.7375 31.8323 11.2639H34.7434V11.1887C34.7148 10.6838 34.5787 10.2935 34.3352 10.0178C34.0917 9.73853 33.7623 9.59888 33.3469 9.59888ZM41.801 11.8601C41.801 12.7445 41.5987 13.4571 41.1941 13.9978C40.7895 14.5385 40.2416 14.8088 39.5505 14.8088C38.8451 14.8088 38.2901 14.585 37.8855 14.1375V16.9358H36.8918V8.88989H37.7996L37.8479 9.53442C38.2525 9.03312 38.8147 8.78247 39.5344 8.78247C40.2327 8.78247 40.7841 9.04565 41.1887 9.57202C41.5969 10.0984 41.801 10.8306 41.801 11.7688V11.8601ZM40.8074 11.7473C40.8074 11.092 40.6677 10.5746 40.3884 10.1951C40.1091 9.81551 39.726 9.62573 39.239 9.62573C38.6375 9.62573 38.1863 9.8925 37.8855 10.426V13.2029C38.1827 13.7328 38.6375 13.9978 39.2498 13.9978C39.726 13.9978 40.1038 13.8098 40.3831 13.4338C40.6659 13.0543 40.8074 12.4921 40.8074 11.7473ZM44.1536 8.88989V13.8904H46.2805V8.88989H47.2742V13.8904H49.3958V8.88989H50.3948V14.7014H43.1545V8.88989H44.1536ZM55.7229 8.88989H56.7166V14.7014H55.7229V10.4636L53.0427 14.7014H52.0491V8.88989H53.0427V13.1331L55.7229 8.88989ZM62.6301 9.69556H60.6804V14.7014H59.6868V9.69556H57.7747V8.88989H62.6301V9.69556ZM64.6819 10.8933H66.1912C66.85 10.9005 67.371 11.0723 67.7542 11.4089C68.1373 11.7455 68.3289 12.2021 68.3289 12.7786C68.3289 13.3586 68.1319 13.8241 67.738 14.175C67.3442 14.526 66.8142 14.7014 66.1482 14.7014H63.6882V8.88989H64.6819V10.8933ZM64.6819 11.7043V13.8904H66.1589C66.5313 13.8904 66.8196 13.7955 67.0237 13.6057C67.2278 13.4124 67.3298 13.1492 67.3298 12.8162C67.3298 12.4939 67.2296 12.2307 67.0291 12.0266C66.8321 11.8189 66.5546 11.7115 66.1965 11.7043H64.6819ZM72.2498 13.8904L72.5935 13.4661C72.9802 12.9648 73.2004 12.2128 73.2542 11.2102L73.3455 8.88989H77.0891V13.8904H77.8357V16.4094H76.842V14.7014H72.7869V16.4094H71.7932L71.7986 13.8904H72.2498ZM73.426 13.8904H76.0955V9.80835H74.3069L74.2478 11.1941C74.1869 12.3507 73.913 13.2494 73.426 13.8904ZM81.3484 14.8088C80.5606 14.8088 79.9197 14.551 79.4255 14.0354C78.9314 13.5162 78.6843 12.8233 78.6843 11.9568V11.7742C78.6843 11.1977 78.7935 10.6838 79.012 10.2327C79.234 9.77791 79.5419 9.42342 79.9358 9.16919C80.3333 8.91138 80.7629 8.78247 81.2249 8.78247C81.9804 8.78247 82.5676 9.03133 82.9866 9.52905C83.4055 10.0268 83.615 10.7393 83.615 11.6667V12.0803H79.678C79.6923 12.6532 79.8588 13.1169 80.1775 13.4714C80.4998 13.8223 80.908 13.9978 81.4021 13.9978C81.753 13.9978 82.0502 13.9262 82.2937 13.783C82.5372 13.6397 82.7502 13.45 82.9329 13.2136L83.5398 13.6863C83.0528 14.4347 82.3223 14.8088 81.3484 14.8088ZM81.2249 9.59888C80.8238 9.59888 80.4872 9.74569 80.2151 10.0393C79.943 10.3293 79.7747 10.7375 79.7102 11.2639H82.6213V11.1887C82.5927 10.6838 82.4566 10.2935 82.2131 10.0178C81.9696 9.73853 81.6402 9.59888 81.2249 9.59888ZM88.5295 8.88989H89.5232V14.7014H88.5295V10.4636L85.8494 14.7014H84.8557V8.88989H85.8494V13.1331L88.5295 8.88989ZM88.7981 6.77368C88.7981 7.20695 88.6495 7.55607 88.3523 7.82104C88.0587 8.08244 87.672 8.21313 87.1921 8.21313C86.7123 8.21313 86.3238 8.08065 86.0266 7.81567C85.7294 7.5507 85.5808 7.20337 85.5808 6.77368H86.3918C86.3918 7.02433 86.4599 7.22127 86.5959 7.3645C86.732 7.50415 86.9307 7.57397 87.1921 7.57397C87.4428 7.57397 87.6379 7.50415 87.7776 7.3645C87.9208 7.22485 87.9924 7.02791 87.9924 6.77368H88.7981ZM93.4495 13.9978C93.804 13.9978 94.1137 13.8904 94.3787 13.6755C94.6436 13.4607 94.7904 13.1921 94.8191 12.8699H95.759C95.7411 13.2029 95.6265 13.5198 95.4153 13.8206C95.204 14.1213 94.9211 14.3612 94.5667 14.5403C94.2157 14.7193 93.8433 14.8088 93.4495 14.8088C92.6581 14.8088 92.0279 14.5457 91.5588 14.0193C91.0933 13.4893 90.8606 12.766 90.8606 11.8494V11.6829C90.8606 11.1171 90.9644 10.614 91.1721 10.1736C91.3798 9.73315 91.677 9.39119 92.0637 9.14771C92.454 8.90422 92.9141 8.78247 93.4441 8.78247C94.0958 8.78247 94.6365 8.97762 95.0662 9.36792C95.4994 9.75822 95.7304 10.2649 95.759 10.8879H94.8191C94.7904 10.512 94.6472 10.204 94.3894 9.96411C94.1352 9.72062 93.8201 9.59888 93.4441 9.59888C92.9392 9.59888 92.5471 9.78149 92.2678 10.1467C91.9921 10.5084 91.8542 11.033 91.8542 11.7205V11.9084C91.8542 12.578 91.9921 13.0937 92.2678 13.4553C92.5435 13.817 92.9374 13.9978 93.4495 13.9978ZM101.195 9.69556H99.2449V14.7014H98.2512V9.69556H96.3391V8.88989H101.195V9.69556ZM102.253 14.7014V8.88989H104.519C105.293 8.88989 105.885 9.02596 106.297 9.2981C106.712 9.56665 106.92 9.96232 106.92 10.4851C106.92 10.7537 106.84 10.9972 106.678 11.2156C106.517 11.4304 106.279 11.5951 105.964 11.7097C106.315 11.7921 106.596 11.9532 106.807 12.1931C107.022 12.433 107.13 12.7195 107.13 13.0525C107.13 13.586 106.933 13.9942 106.539 14.2771C106.149 14.56 105.595 14.7014 104.879 14.7014H102.253ZM103.246 12.1501V13.9011H104.89C105.305 13.9011 105.615 13.8241 105.819 13.6702C106.027 13.5162 106.131 13.2996 106.131 13.0203C106.131 12.4402 105.705 12.1501 104.852 12.1501H103.246ZM103.246 11.3552H104.53C105.461 11.3552 105.927 11.0831 105.927 10.5388C105.927 9.99455 105.486 9.71346 104.605 9.69556H103.246V11.3552ZM112.205 8.88989H113.199V14.7014H112.205V10.4636L109.525 14.7014H108.531V8.88989H109.525V13.1331L112.205 8.88989ZM119.236 8.88989V14.7014H118.237V12.4402H116.739L115.369 14.7014H114.295L115.756 12.2898C115.383 12.1537 115.097 11.9443 114.896 11.6614C114.699 11.3749 114.601 11.0419 114.601 10.6624C114.601 10.1324 114.8 9.7063 115.197 9.38403C115.594 9.05819 116.126 8.89347 116.792 8.88989H119.236ZM115.6 10.6731C115.6 10.956 115.697 11.1851 115.89 11.3606C116.083 11.5325 116.339 11.6202 116.658 11.6238H118.237V9.69556H116.808C116.44 9.69556 116.146 9.78687 115.927 9.96948C115.709 10.1485 115.6 10.3831 115.6 10.6731Z" fill="#555555"/>
</svg>
