<svg width="170" height="22" viewBox="0 0 170 22" fill="none" xmlns="http://www.w3.org/2000/svg">
<rect x="0.5" y="0.5" width="168.583" height="21" rx="1.5" fill="#FBE4E5" stroke="#E6B3B5"/>
<path d="M32.928 14.375V6.55469H35.4847C36.3333 6.55469 36.9707 6.73014 37.3968 7.08105C37.8265 7.43197 38.0413 7.95117 38.0413 8.63867C38.0413 9.00391 37.9375 9.32796 37.7298 9.61084C37.5221 9.89014 37.2392 10.1068 36.8812 10.2607C37.3037 10.3789 37.6367 10.6045 37.8802 10.9375C38.1273 11.2669 38.2508 11.6608 38.2508 12.1191C38.2508 12.821 38.0234 13.3724 37.5687 13.7734C37.1139 14.1745 36.4712 14.375 35.6404 14.375H32.928ZM33.9593 10.7173V13.5317H35.6619C36.1417 13.5317 36.5195 13.4082 36.7952 13.1611C37.0745 12.9105 37.2142 12.5667 37.2142 12.1299C37.2142 11.1882 36.7021 10.7173 35.678 10.7173H33.9593ZM33.9593 9.89014H35.5169C35.9681 9.89014 36.3279 9.77734 36.5965 9.55176C36.8686 9.32617 37.0047 9.02002 37.0047 8.6333C37.0047 8.20361 36.8794 7.89209 36.6287 7.69873C36.3781 7.50179 35.9967 7.40332 35.4847 7.40332H33.9593V9.89014ZM42.0374 14.4824C41.2497 14.4824 40.6087 14.2246 40.1146 13.709C39.6204 13.1898 39.3734 12.4969 39.3734 11.6304V11.4478C39.3734 10.8713 39.4826 10.3574 39.701 9.90625C39.923 9.4515 40.2309 9.09701 40.6248 8.84277C41.0223 8.58496 41.452 8.45605 41.9139 8.45605C42.6694 8.45605 43.2567 8.70492 43.6756 9.20264C44.0945 9.70036 44.304 10.4129 44.304 11.3403V11.7539H40.367C40.3813 12.3268 40.5478 12.7905 40.8665 13.145C41.1888 13.4959 41.597 13.6714 42.0911 13.6714C42.442 13.6714 42.7392 13.5998 42.9827 13.4565C43.2262 13.3133 43.4393 13.1235 43.6219 12.8872L44.2288 13.3599C43.7418 14.1082 43.0114 14.4824 42.0374 14.4824ZM41.9139 9.27246C41.5128 9.27246 41.1762 9.41927 40.9041 9.71289C40.632 10.0029 40.4637 10.4111 40.3992 10.9375H43.3104V10.8623C43.2817 10.3574 43.1457 9.96712 42.9022 9.69141C42.6587 9.41211 42.3292 9.27246 41.9139 9.27246ZM50.368 11.5337C50.368 12.4181 50.1657 13.1307 49.761 13.6714C49.3564 14.2121 48.8086 14.4824 48.1175 14.4824C47.4121 14.4824 46.8571 14.2586 46.4525 13.811V16.6094H45.4588V8.56348H46.3665L46.4149 9.20801C46.8195 8.70671 47.3817 8.45605 48.1014 8.45605C48.7996 8.45605 49.3511 8.71924 49.7557 9.24561C50.1639 9.77197 50.368 10.5042 50.368 11.4424V11.5337ZM49.3743 11.4209C49.3743 10.7656 49.2347 10.2482 48.9554 9.86865C48.6761 9.4891 48.2929 9.29932 47.806 9.29932C47.2044 9.29932 46.7532 9.56608 46.4525 10.0996V12.8765C46.7497 13.4064 47.2044 13.6714 47.8167 13.6714C48.2929 13.6714 48.6707 13.4834 48.95 13.1074C49.2329 12.7279 49.3743 12.1657 49.3743 11.4209ZM56.3836 14.375H55.39V11.8936H52.7205V14.375H51.7215V8.56348H52.7205V11.0825H55.39V8.56348H56.3836V14.375ZM59.8856 12.9194L61.2391 8.56348H62.3026L59.9661 15.272C59.6045 16.2388 59.0298 16.7222 58.242 16.7222L58.054 16.7061L57.6834 16.6362V15.8306L57.952 15.8521C58.2886 15.8521 58.5499 15.784 58.7361 15.6479C58.9259 15.5119 59.0817 15.263 59.2034 14.9014L59.4236 14.3105L57.3504 8.56348H58.4354L59.8856 12.9194ZM67.5125 9.36914H65.5628V14.375H64.5692V9.36914H62.657V8.56348H67.5125V9.36914ZM69.5643 10.5669H71.0735C71.7324 10.5741 72.2534 10.7459 72.6365 11.0825C73.0197 11.4191 73.2112 11.8757 73.2112 12.4521C73.2112 13.0322 73.0143 13.4977 72.6204 13.8486C72.2265 14.1995 71.6966 14.375 71.0306 14.375H68.5706V8.56348H69.5643V10.5669ZM69.5643 11.3779V13.564H71.0413C71.4137 13.564 71.702 13.4691 71.9061 13.2793C72.1102 13.0859 72.2122 12.8228 72.2122 12.4897C72.2122 12.1675 72.112 11.9043 71.9114 11.7002C71.7145 11.4925 71.437 11.3851 71.0789 11.3779H69.5643ZM80.9402 8.56348H81.9339V14.375H80.9402V10.1372L78.2601 14.375H77.2664V8.56348H78.2601V12.8066L80.9402 8.56348ZM88.2772 14.375H87.2835V11.8936H84.6141V14.375H83.6151V8.56348H84.6141V11.0825H87.2835V8.56348H88.2772V14.375ZM93.6375 8.56348H94.6312V14.375H93.6375V10.1372L90.9573 14.375H89.9637V8.56348H90.9573V12.8066L93.6375 8.56348ZM96.3123 8.56348H97.3113V13.564H99.9861V8.56348H100.98V13.564H101.673L101.576 16.0991H100.684V14.375H96.3123V8.56348ZM106.507 8.56348H107.5V14.375H106.507V10.1372L103.826 14.375H102.833V8.56348H103.826V12.8066L106.507 8.56348ZM112.683 14.375C112.626 14.2604 112.58 14.0563 112.544 13.7627C112.082 14.2425 111.53 14.4824 110.889 14.4824C110.317 14.4824 109.846 14.3213 109.477 13.999C109.112 13.6732 108.929 13.2614 108.929 12.7637C108.929 12.1585 109.158 11.6895 109.617 11.3564C110.078 11.0199 110.727 10.8516 111.561 10.8516H112.528V10.395C112.528 10.0477 112.424 9.77197 112.216 9.56787C112.008 9.36019 111.702 9.25635 111.298 9.25635C110.943 9.25635 110.646 9.34587 110.406 9.5249C110.166 9.70394 110.046 9.92057 110.046 10.1748H109.047C109.047 9.88477 109.149 9.60547 109.353 9.33691C109.561 9.06478 109.84 8.84993 110.191 8.69238C110.546 8.53483 110.934 8.45605 111.357 8.45605C112.026 8.45605 112.551 8.62435 112.93 8.96094C113.31 9.29395 113.507 9.75407 113.521 10.3413V13.0161C113.521 13.5496 113.589 13.974 113.725 14.2891V14.375H112.683ZM111.034 13.6177C111.346 13.6177 111.641 13.5371 111.921 13.376C112.2 13.2148 112.402 13.0054 112.528 12.7476V11.5552H111.749C110.531 11.5552 109.923 11.9115 109.923 12.624C109.923 12.9355 110.027 13.179 110.234 13.3545C110.442 13.5299 110.709 13.6177 111.034 13.6177ZM119.311 9.36914H117.362V14.375H116.368V9.36914H114.456V8.56348H119.311V9.36914ZM119.789 11.4155C119.789 10.8462 119.9 10.3341 120.122 9.87939C120.348 9.42464 120.659 9.07373 121.057 8.82666C121.458 8.57959 121.915 8.45605 122.427 8.45605C123.218 8.45605 123.857 8.72998 124.344 9.27783C124.835 9.82568 125.08 10.5544 125.08 11.4639V11.5337C125.08 12.0994 124.971 12.6079 124.752 13.0591C124.537 13.5067 124.228 13.8558 123.823 14.1064C123.422 14.3571 122.96 14.4824 122.437 14.4824C121.65 14.4824 121.01 14.2085 120.52 13.6606C120.033 13.1128 119.789 12.3877 119.789 11.4854V11.4155ZM120.788 11.5337C120.788 12.1782 120.937 12.6956 121.234 13.0859C121.535 13.4762 121.936 13.6714 122.437 13.6714C122.942 13.6714 123.343 13.4744 123.64 13.0806C123.938 12.6831 124.086 12.1281 124.086 11.4155C124.086 10.7782 123.934 10.2625 123.63 9.86865C123.329 9.47119 122.928 9.27246 122.427 9.27246C121.936 9.27246 121.54 9.46761 121.24 9.85791C120.939 10.2482 120.788 10.8068 120.788 11.5337ZM131.235 11.5337C131.235 12.4181 131.033 13.1307 130.628 13.6714C130.224 14.2121 129.676 14.4824 128.985 14.4824C128.279 14.4824 127.724 14.2586 127.32 13.811V16.6094H126.326V8.56348H127.234L127.282 9.20801C127.687 8.70671 128.249 8.45605 128.969 8.45605C129.667 8.45605 130.218 8.71924 130.623 9.24561C131.031 9.77197 131.235 10.5042 131.235 11.4424V11.5337ZM130.242 11.4209C130.242 10.7656 130.102 10.2482 129.823 9.86865C129.543 9.4891 129.16 9.29932 128.673 9.29932C128.072 9.29932 127.62 9.56608 127.32 10.0996V12.8765C127.617 13.4064 128.072 13.6714 128.684 13.6714C129.16 13.6714 129.538 13.4834 129.817 13.1074C130.1 12.7279 130.242 12.1657 130.242 11.4209ZM134.34 12.9194L135.693 8.56348H136.757L134.42 15.272C134.059 16.2388 133.484 16.7222 132.696 16.7222L132.508 16.7061L132.138 16.6362V15.8306L132.406 15.8521C132.743 15.8521 133.004 15.784 133.19 15.6479C133.38 15.5119 133.536 15.263 133.658 14.9014L133.878 14.3105L131.805 8.56348H132.889L134.34 12.9194Z" fill="#555555"/>
</svg>
