<svg width="79" height="23" viewBox="0 0 79 23" fill="none" xmlns="http://www.w3.org/2000/svg">
<path d="M0.918091 2.32642C0.918091 1.49799 1.58966 0.826416 2.41809 0.826416H76.4181C77.2465 0.826416 77.9181 1.49799 77.9181 2.32642V20.3264C77.9181 21.1548 77.2465 21.8264 76.4181 21.8264H2.41809C1.58966 21.8264 0.918091 21.1548 0.918091 20.3264V2.32642Z" fill="#F8F8F8" stroke="#DADADA"/>
<path d="M16.8669 16.6189H15.841V14.7014H10.2282V16.6243H9.19696L9.19159 13.8582H9.83075C10.1673 13.4786 10.4341 12.9701 10.631 12.3328C10.8316 11.6918 10.9569 10.99 11.007 10.2273L11.1789 6.8811H15.8571V13.8582H16.8776L16.8669 16.6189ZM11.007 13.8582H14.8205V7.72974H12.1725L12.0598 10.0286C12.0132 10.9273 11.8932 11.6936 11.6999 12.3274C11.5101 12.9612 11.2792 13.4714 11.007 13.8582ZM17.6833 11.7419C17.6833 11.1726 17.7943 10.6606 18.0163 10.2058C18.2419 9.75106 18.5534 9.40015 18.9509 9.15308C19.3519 8.90601 19.8085 8.78247 20.3205 8.78247C21.1118 8.78247 21.751 9.0564 22.238 9.60425C22.7285 10.1521 22.9738 10.8808 22.9738 11.7903V11.8601C22.9738 12.4259 22.8646 12.9343 22.6462 13.3855C22.4313 13.8331 22.1216 14.1822 21.717 14.4329C21.3159 14.6835 20.854 14.8088 20.3312 14.8088C19.5435 14.8088 18.9043 14.5349 18.4138 13.9871C17.9268 13.4392 17.6833 12.7141 17.6833 11.8118V11.7419ZM18.6823 11.8601C18.6823 12.5046 18.8309 13.0221 19.1281 13.4124C19.4289 13.8027 19.8299 13.9978 20.3312 13.9978C20.8361 13.9978 21.2372 13.8009 21.5344 13.407C21.8316 13.0095 21.9802 12.4545 21.9802 11.7419C21.9802 11.1046 21.828 10.5889 21.5236 10.1951C21.2228 9.79761 20.8218 9.59888 20.3205 9.59888C19.8299 9.59888 19.4343 9.79403 19.1335 10.1843C18.8327 10.5746 18.6823 11.1332 18.6823 11.8601ZM26.7712 9.2229C27.5016 9.2229 28.0853 9.46818 28.5222 9.95874C28.9626 10.4457 29.1828 11.0885 29.1828 11.887V11.9783C29.1828 12.5261 29.0772 13.0167 28.8659 13.45C28.6546 13.8796 28.3503 14.2144 27.9528 14.4543C27.5589 14.6907 27.1042 14.8088 26.5886 14.8088C25.808 14.8088 25.1795 14.5492 24.7033 14.03C24.2271 13.5072 23.989 12.8072 23.989 11.9299V11.4465C23.989 10.2255 24.2145 9.25513 24.6657 8.5354C25.1205 7.81567 25.7901 7.37703 26.6745 7.21948C27.1758 7.12996 27.5142 7.02075 27.6896 6.89185C27.8651 6.76294 27.9528 6.58569 27.9528 6.36011H28.7692C28.7692 6.8077 28.6672 7.15682 28.4631 7.40747C28.2626 7.65812 27.9403 7.83537 27.4963 7.93921L26.7551 8.10571C26.1642 8.24536 25.7202 8.48169 25.423 8.8147C25.1294 9.14412 24.9378 9.58455 24.8483 10.136C25.3747 9.52726 26.0156 9.2229 26.7712 9.2229ZM26.5778 10.0393C26.0908 10.0393 25.7041 10.204 25.4177 10.5334C25.1312 10.8593 24.988 11.3123 24.988 11.8923V11.9783C24.988 12.6013 25.1312 13.0955 25.4177 13.4607C25.7077 13.8223 26.098 14.0032 26.5886 14.0032C27.0827 14.0032 27.473 13.8206 27.7595 13.4553C28.0459 13.0901 28.1891 12.5566 28.1891 11.8547C28.1891 11.3069 28.0441 10.8682 27.7541 10.5388C27.4676 10.2058 27.0755 10.0393 26.5778 10.0393ZM33.8879 14.7014C33.8306 14.5868 33.784 14.3827 33.7482 14.0891C33.2863 14.5689 32.7349 14.8088 32.0939 14.8088C31.521 14.8088 31.0502 14.6477 30.6813 14.3254C30.3161 13.9996 30.1335 13.5878 30.1335 13.0901C30.1335 12.4849 30.3627 12.0159 30.821 11.6829C31.2829 11.3463 31.931 11.178 32.7653 11.178H33.7321V10.7214C33.7321 10.3741 33.6283 10.0984 33.4206 9.89429C33.2129 9.6866 32.9068 9.58276 32.5021 9.58276C32.1476 9.58276 31.8504 9.67228 31.6105 9.85132C31.3706 10.0304 31.2507 10.247 31.2507 10.5012H30.2516C30.2516 10.2112 30.3537 9.93188 30.5578 9.66333C30.7655 9.39119 31.0448 9.17635 31.3957 9.0188C31.7502 8.86125 32.1387 8.78247 32.5612 8.78247C33.2308 8.78247 33.7554 8.95076 34.1349 9.28735C34.5145 9.62036 34.7114 10.0805 34.7258 10.6677V13.3425C34.7258 13.8761 34.7938 14.3004 34.9299 14.6155V14.7014H33.8879ZM32.239 13.9441C32.5505 13.9441 32.8459 13.8635 33.1252 13.7024C33.4045 13.5413 33.6068 13.3318 33.7321 13.074V11.8816H32.9533C31.7359 11.8816 31.1271 12.2379 31.1271 12.9504C31.1271 13.262 31.231 13.5055 31.4387 13.6809C31.6463 13.8564 31.9131 13.9441 32.239 13.9441ZM36.3747 14.7014V8.88989H38.6413C39.4147 8.88989 40.0073 9.02596 40.4191 9.2981C40.8345 9.56665 41.0422 9.96232 41.0422 10.4851C41.0422 10.7537 40.9616 10.9972 40.8005 11.2156C40.6393 11.4304 40.4012 11.5951 40.0861 11.7097C40.437 11.7921 40.7181 11.9532 40.9294 12.1931C41.1442 12.433 41.2516 12.7195 41.2516 13.0525C41.2516 13.586 41.0547 13.9942 40.6608 14.2771C40.2705 14.56 39.7173 14.7014 39.0012 14.7014H36.3747ZM37.3683 12.1501V13.9011H39.0119C39.4273 13.9011 39.737 13.8241 39.9411 13.6702C40.1488 13.5162 40.2526 13.2996 40.2526 13.0203C40.2526 12.4402 39.8265 12.1501 38.9743 12.1501H37.3683ZM37.3683 11.3552H38.652C39.583 11.3552 40.0485 11.0831 40.0485 10.5388C40.0485 9.99455 39.6081 9.71346 38.7272 9.69556H37.3683V11.3552ZM46.3273 8.88989H47.321V14.7014H46.3273V10.4636L43.6472 14.7014H42.6535V8.88989H43.6472V13.1331L46.3273 8.88989ZM53.2346 9.69556H51.2849V14.7014H50.2912V9.69556H48.3791V8.88989H53.2346V9.69556ZM55.2863 10.8933H56.7956C57.4544 10.9005 57.9754 11.0723 58.3586 11.4089C58.7417 11.7455 58.9333 12.2021 58.9333 12.7786C58.9333 13.3586 58.7363 13.8241 58.3425 14.175C57.9486 14.526 57.4186 14.7014 56.7526 14.7014H54.2927V8.88989H55.2863V10.8933ZM55.2863 11.7043V13.8904H56.7634C57.1358 13.8904 57.424 13.7955 57.6281 13.6057C57.8322 13.4124 57.9343 13.1492 57.9343 12.8162C57.9343 12.4939 57.834 12.2307 57.6335 12.0266C57.4365 11.8189 57.159 11.7115 56.801 11.7043H55.2863Z" fill="#555555"/>
<path d="M70.4141 10.3304H64.4221L67.4181 13.3204L70.4141 10.3304Z" fill="#555555"/>
</svg>
