<svg width="52" height="23" viewBox="0 0 52 23" fill="none" xmlns="http://www.w3.org/2000/svg">
<rect x="0.668579" y="0.725769" width="50.499" height="22" rx="2" fill="white"/>
<path d="M8.61243 17.1432H7.58655V15.2258H1.97375V17.1486H0.942505L0.937134 14.3825H1.57629C1.91288 14.003 2.17965 13.4945 2.37659 12.8571C2.57711 12.2162 2.70243 11.5143 2.75256 10.7516L2.92444 7.40546H7.60266V14.3825H8.62317L8.61243 17.1432ZM2.75256 14.3825H6.56604V8.25409H3.91809L3.8053 10.5529C3.75875 11.4517 3.63879 12.218 3.44543 12.8517C3.25566 13.4855 3.0247 13.9958 2.75256 14.3825ZM9.42883 12.2663C9.42883 11.697 9.53984 11.1849 9.76184 10.7302C9.98743 10.2754 10.299 9.9245 10.6964 9.67743C11.0975 9.43036 11.554 9.30682 12.066 9.30682C12.8574 9.30682 13.4965 9.58075 13.9835 10.1286C14.4741 10.6765 14.7194 11.4051 14.7194 12.3146V12.3845C14.7194 12.9502 14.6101 13.4587 14.3917 13.9099C14.1769 14.3574 13.8671 14.7066 13.4625 14.9572C13.0615 15.2079 12.5996 15.3332 12.0768 15.3332C11.289 15.3332 10.6499 15.0593 10.1593 14.5114C9.67232 13.9636 9.42883 13.2385 9.42883 12.3361V12.2663ZM10.4279 12.3845C10.4279 13.029 10.5765 13.5464 10.8737 13.9367C11.1744 14.327 11.5755 14.5222 12.0768 14.5222C12.5817 14.5222 12.9827 14.3252 13.2799 13.9313C13.5771 13.5339 13.7257 12.9789 13.7257 12.2663C13.7257 11.6289 13.5735 11.1133 13.2692 10.7194C12.9684 10.322 12.5673 10.1232 12.066 10.1232C11.5755 10.1232 11.1798 10.3184 10.879 10.7087C10.5782 11.099 10.4279 11.6576 10.4279 12.3845ZM18.5167 9.74725C19.2472 9.74725 19.8309 9.99253 20.2677 10.4831C20.7081 10.9701 20.9283 11.6128 20.9283 12.4113V12.5026C20.9283 13.0505 20.8227 13.541 20.6115 13.9743C20.4002 14.404 20.0958 14.7388 19.6984 14.9787C19.3045 15.215 18.8497 15.3332 18.3341 15.3332C17.5535 15.3332 16.9251 15.0736 16.4489 14.5544C15.9726 14.0316 15.7345 13.3316 15.7345 12.4543V11.9709C15.7345 10.7499 15.9601 9.77948 16.4113 9.05975C16.866 8.34003 17.5356 7.90139 18.42 7.74384C18.9213 7.65432 19.2597 7.5451 19.4352 7.4162C19.6106 7.28729 19.6984 7.11005 19.6984 6.88446H20.5148C20.5148 7.33205 20.4127 7.68117 20.2086 7.93182C20.0081 8.18247 19.6858 8.35972 19.2418 8.46356L18.5006 8.63007C17.9098 8.76971 17.4658 9.00604 17.1686 9.33905C16.875 9.66848 16.6834 10.1089 16.5939 10.6603C17.1202 10.0516 17.7612 9.74725 18.5167 9.74725ZM18.3234 10.5637C17.8364 10.5637 17.4497 10.7284 17.1632 11.0578C16.8767 11.3836 16.7335 11.8366 16.7335 12.4167V12.5026C16.7335 13.1257 16.8767 13.6198 17.1632 13.985C17.4532 14.3467 17.8435 14.5275 18.3341 14.5275C18.8282 14.5275 19.2185 14.3449 19.505 13.9797C19.7915 13.6144 19.9347 13.0809 19.9347 12.3791C19.9347 11.8312 19.7897 11.3926 19.4996 11.0632C19.2132 10.7302 18.8211 10.5637 18.3234 10.5637ZM25.6334 15.2258C25.5761 15.1112 25.5296 14.9071 25.4938 14.6135C25.0319 15.0933 24.4804 15.3332 23.8395 15.3332C23.2666 15.3332 22.7957 15.1721 22.4269 14.8498C22.0616 14.5239 21.879 14.1122 21.879 13.6144C21.879 13.0093 22.1082 12.5402 22.5665 12.2072C23.0284 11.8706 23.6766 11.7023 24.5109 11.7023H25.4777V11.2458C25.4777 10.8985 25.3738 10.6227 25.1661 10.4186C24.9585 10.211 24.6523 10.1071 24.2477 10.1071C23.8932 10.1071 23.596 10.1966 23.3561 10.3757C23.1162 10.5547 22.9962 10.7713 22.9962 11.0256H21.9972C21.9972 10.7355 22.0992 10.4562 22.3033 10.1877C22.511 9.91555 22.7903 9.7007 23.1412 9.54315C23.4957 9.3856 23.8842 9.30682 24.3068 9.30682C24.9764 9.30682 25.5009 9.47512 25.8805 9.81171C26.2601 10.1447 26.457 10.6048 26.4713 11.1921V13.8669C26.4713 14.4004 26.5393 14.8247 26.6754 15.1398V15.2258H25.6334ZM23.9845 14.4684C24.296 14.4684 24.5914 14.3879 24.8707 14.2267C25.15 14.0656 25.3523 13.8561 25.4777 13.5983V12.4059H24.6989C23.4814 12.4059 22.8727 12.7622 22.8727 13.4748C22.8727 13.7863 22.9765 14.0298 23.1842 14.2053C23.3919 14.3807 23.6587 14.4684 23.9845 14.4684ZM28.1202 15.2258V9.41425H30.3868C31.1603 9.41425 31.7529 9.55031 32.1647 9.82245C32.58 10.091 32.7877 10.4867 32.7877 11.0095C32.7877 11.278 32.7072 11.5215 32.546 11.7399C32.3849 11.9548 32.1468 12.1195 31.8317 12.2341C32.1826 12.3164 32.4637 12.4776 32.6749 12.7175C32.8898 12.9574 32.9972 13.2438 32.9972 13.5768C32.9972 14.1104 32.8003 14.5186 32.4064 14.8015C32.0161 15.0843 31.4628 15.2258 30.7467 15.2258H28.1202ZM29.1139 12.6745V14.4255H30.7574C31.1728 14.4255 31.4825 14.3485 31.6866 14.1945C31.8943 14.0405 31.9982 13.8239 31.9982 13.5446C31.9982 12.9645 31.5721 12.6745 30.7198 12.6745H29.1139ZM29.1139 11.8796H30.3976C31.3286 11.8796 31.7941 11.6074 31.7941 11.0632C31.7941 10.5189 31.3536 10.2378 30.4728 10.2199H29.1139V11.8796ZM38.0729 9.41425H39.0665V15.2258H38.0729V10.988L35.3927 15.2258H34.399V9.41425H35.3927V13.6574L38.0729 9.41425ZM44.9801 10.2199H43.0304V15.2258H42.0367V10.2199H40.1246V9.41425H44.9801V10.2199ZM47.0319 11.4177H48.5411C49.2 11.4248 49.721 11.5967 50.1041 11.9333C50.4873 12.2699 50.6788 12.7264 50.6788 13.3029C50.6788 13.883 50.4819 14.3485 50.088 14.6994C49.6941 15.0503 49.1642 15.2258 48.4982 15.2258H46.0382V9.41425H47.0319V11.4177ZM47.0319 12.2287V14.4147H48.5089C48.8813 14.4147 49.1696 14.3198 49.3737 14.1301C49.5778 13.9367 49.6798 13.6735 49.6798 13.3405C49.6798 13.0182 49.5795 12.7551 49.379 12.551C49.1821 12.3433 48.9046 12.2359 48.5465 12.2287H47.0319Z" fill="#3F7ABE"/>
</svg>
