<svg width="126" height="23" viewBox="0 0 126 23" fill="none" xmlns="http://www.w3.org/2000/svg">
<rect x="0.918091" y="0.826416" width="124" height="21" rx="1.5" fill="#F8F8F8" stroke="#DADADA"/>
<path d="M18.0503 14.7014H17.0137V7.72974H13.1572V14.7014H12.126V6.8811H18.0503V14.7014ZM24.6836 11.8601C24.6836 12.7445 24.4813 13.4571 24.0767 13.9978C23.672 14.5385 23.1242 14.8088 22.4331 14.8088C21.7277 14.8088 21.1727 14.585 20.7681 14.1375V16.9358H19.7744V8.88989H20.6821L20.7305 9.53442C21.1351 9.03312 21.6973 8.78247 22.417 8.78247C23.1152 8.78247 23.6667 9.04565 24.0713 9.57202C24.4795 10.0984 24.6836 10.8306 24.6836 11.7688V11.8601ZM23.6899 11.7473C23.6899 11.092 23.5503 10.5746 23.271 10.1951C22.9917 9.81551 22.6086 9.62573 22.1216 9.62573C21.52 9.62573 21.0688 9.8925 20.7681 10.426V13.2029C21.0653 13.7328 21.52 13.9978 22.1323 13.9978C22.6086 13.9978 22.9863 13.8098 23.2656 13.4338C23.5485 13.0543 23.6899 12.4921 23.6899 11.7473ZM25.688 11.7419C25.688 11.1726 25.799 10.6606 26.021 10.2058C26.2466 9.75106 26.5581 9.40015 26.9556 9.15308C27.3566 8.90601 27.8132 8.78247 28.3252 8.78247C29.1165 8.78247 29.7557 9.0564 30.2427 9.60425C30.7332 10.1521 30.9785 10.8808 30.9785 11.7903V11.8601C30.9785 12.4259 30.8693 12.9343 30.6509 13.3855C30.436 13.8331 30.1263 14.1822 29.7217 14.4329C29.3206 14.6835 28.8587 14.8088 28.3359 14.8088C27.5482 14.8088 26.909 14.5349 26.4185 13.9871C25.9315 13.4392 25.688 12.7141 25.688 11.8118V11.7419ZM26.687 11.8601C26.687 12.5046 26.8356 13.0221 27.1328 13.4124C27.4336 13.8027 27.8346 13.9978 28.3359 13.9978C28.8408 13.9978 29.2419 13.8009 29.5391 13.407C29.8363 13.0095 29.9849 12.4545 29.9849 11.7419C29.9849 11.1046 29.8327 10.5889 29.5283 10.1951C29.2275 9.79761 28.8265 9.59888 28.3252 9.59888C27.8346 9.59888 27.439 9.79403 27.1382 10.1843C26.8374 10.5746 26.687 11.1332 26.687 11.8601ZM32.3159 14.7014V8.88989H34.5825C35.356 8.88989 35.9486 9.02596 36.3604 9.2981C36.7757 9.56665 36.9834 9.96232 36.9834 10.4851C36.9834 10.7537 36.9028 10.9972 36.7417 11.2156C36.5806 11.4304 36.3424 11.5951 36.0273 11.7097C36.3783 11.7921 36.6593 11.9532 36.8706 12.1931C37.0854 12.433 37.1929 12.7195 37.1929 13.0525C37.1929 13.586 36.9959 13.9942 36.6021 14.2771C36.2118 14.56 35.6585 14.7014 34.9424 14.7014H32.3159ZM33.3096 12.1501V13.9011H34.9531C35.3685 13.9011 35.6782 13.8241 35.8823 13.6702C36.09 13.5162 36.1938 13.2996 36.1938 13.0203C36.1938 12.4402 35.7677 12.1501 34.9155 12.1501H33.3096ZM33.3096 11.3552H34.5933C35.5243 11.3552 35.9897 11.0831 35.9897 10.5388C35.9897 9.99455 35.5493 9.71346 34.6685 9.69556H33.3096V11.3552ZM40.9204 14.8088C40.1326 14.8088 39.4917 14.551 38.9976 14.0354C38.5034 13.5162 38.2563 12.8233 38.2563 11.9568V11.7742C38.2563 11.1977 38.3656 10.6838 38.584 10.2327C38.806 9.77791 39.1139 9.42342 39.5078 9.16919C39.9053 8.91138 40.335 8.78247 40.7969 8.78247C41.5524 8.78247 42.1396 9.03133 42.5586 9.52905C42.9775 10.0268 43.187 10.7393 43.187 11.6667V12.0803H39.25C39.2643 12.6532 39.4308 13.1169 39.7495 13.4714C40.0718 13.8223 40.48 13.9978 40.9741 13.9978C41.325 13.9978 41.6222 13.9262 41.8657 13.783C42.1092 13.6397 42.3223 13.45 42.5049 13.2136L43.1118 13.6863C42.6248 14.4347 41.8944 14.8088 40.9204 14.8088ZM40.7969 9.59888C40.3958 9.59888 40.0592 9.74569 39.7871 10.0393C39.515 10.3293 39.3467 10.7375 39.2822 11.2639H42.1934V11.1887C42.1647 10.6838 42.0286 10.2935 41.7852 10.0178C41.5417 9.73853 41.2122 9.59888 40.7969 9.59888ZM49.251 11.8601C49.251 12.7445 49.0487 13.4571 48.644 13.9978C48.2394 14.5385 47.6916 14.8088 47.0005 14.8088C46.2951 14.8088 45.7401 14.585 45.3354 14.1375V16.9358H44.3418V8.88989H45.2495L45.2979 9.53442C45.7025 9.03312 46.2646 8.78247 46.9844 8.78247C47.6826 8.78247 48.234 9.04565 48.6387 9.57202C49.0469 10.0984 49.251 10.8306 49.251 11.7688V11.8601ZM48.2573 11.7473C48.2573 11.092 48.1177 10.5746 47.8384 10.1951C47.5591 9.81551 47.1759 9.62573 46.689 9.62573C46.0874 9.62573 45.6362 9.8925 45.3354 10.426V13.2029C45.6326 13.7328 46.0874 13.9978 46.6997 13.9978C47.1759 13.9978 47.5537 13.8098 47.833 13.4338C48.1159 13.0543 48.2573 12.4921 48.2573 11.7473ZM54.2783 8.88989H55.272V14.7014H54.2783V10.4636L51.5981 14.7014H50.6045V8.88989H51.5981V13.1331L54.2783 8.88989ZM61.1855 9.69556H59.2358V14.7014H58.2422V9.69556H56.3301V8.88989H61.1855V9.69556ZM63.2373 10.8933H64.7466C65.4054 10.9005 65.9264 11.0723 66.3096 11.4089C66.6927 11.7455 66.8843 12.2021 66.8843 12.7786C66.8843 13.3586 66.6873 13.8241 66.2935 14.175C65.8996 14.526 65.3696 14.7014 64.7036 14.7014H62.2437V8.88989H63.2373V10.8933ZM63.2373 11.7043V13.8904H64.7144C65.0868 13.8904 65.375 13.7955 65.5791 13.6057C65.7832 13.4124 65.8853 13.1492 65.8853 12.8162C65.8853 12.4939 65.785 12.2307 65.5845 12.0266C65.3875 11.8189 65.11 11.7115 64.752 11.7043H63.2373ZM75.6069 14.7014H74.6133V9.71167H71.9385V14.7014H70.9395V8.88989H75.6069V14.7014ZM76.939 11.7419C76.939 11.1726 77.05 10.6606 77.272 10.2058C77.4976 9.75106 77.8091 9.40015 78.2065 9.15308C78.6076 8.90601 79.0641 8.78247 79.5762 8.78247C80.3675 8.78247 81.0067 9.0564 81.4937 9.60425C81.9842 10.1521 82.2295 10.8808 82.2295 11.7903V11.8601C82.2295 12.4259 82.1203 12.9343 81.9019 13.3855C81.687 13.8331 81.3773 14.1822 80.9727 14.4329C80.5716 14.6835 80.1097 14.8088 79.5869 14.8088C78.7992 14.8088 78.16 14.5349 77.6694 13.9871C77.1825 13.4392 76.939 12.7141 76.939 11.8118V11.7419ZM77.938 11.8601C77.938 12.5046 78.0866 13.0221 78.3838 13.4124C78.6846 13.8027 79.0856 13.9978 79.5869 13.9978C80.0918 13.9978 80.4928 13.8009 80.79 13.407C81.0872 13.0095 81.2358 12.4545 81.2358 11.7419C81.2358 11.1046 81.0837 10.5889 80.7793 10.1951C80.4785 9.79761 80.0775 9.59888 79.5762 9.59888C79.0856 9.59888 78.6899 9.79403 78.3892 10.1843C78.0884 10.5746 77.938 11.1332 77.938 11.8601ZM83.0405 13.8904L83.3843 13.4661C83.771 12.9648 83.9912 12.2128 84.0449 11.2102L84.1362 8.88989H87.8799V13.8904H88.6265V16.4094H87.6328V14.7014H83.5776V16.4094H82.584L82.5894 13.8904H83.0405ZM84.2168 13.8904H86.8862V9.80835H85.0977L85.0386 11.1941C84.9777 12.3507 84.7038 13.2494 84.2168 13.8904ZM94.481 14.7014H93.4873V9.71167H90.8125V14.7014H89.8135V8.88989H94.481V14.7014ZM99.8359 8.88989H100.83V14.7014H99.8359V10.4636L97.1558 14.7014H96.1621V8.88989H97.1558V13.1331L99.8359 8.88989ZM104.756 13.9978C105.11 13.9978 105.42 13.8904 105.685 13.6755C105.95 13.4607 106.097 13.1921 106.125 12.8699H107.065C107.048 13.2029 106.933 13.5198 106.722 13.8206C106.51 14.1213 106.228 14.3612 105.873 14.5403C105.522 14.7193 105.15 14.8088 104.756 14.8088C103.965 14.8088 103.334 14.5457 102.865 14.0193C102.4 13.4893 102.167 12.766 102.167 11.8494V11.6829C102.167 11.1171 102.271 10.614 102.479 10.1736C102.686 9.73315 102.983 9.39119 103.37 9.14771C103.76 8.90422 104.221 8.78247 104.75 8.78247C105.402 8.78247 105.943 8.97762 106.373 9.36792C106.806 9.75822 107.037 10.2649 107.065 10.8879H106.125C106.097 10.512 105.954 10.204 105.696 9.96411C105.442 9.72062 105.126 9.59888 104.75 9.59888C104.246 9.59888 103.854 9.78149 103.574 10.1467C103.299 10.5084 103.161 11.033 103.161 11.7205V11.9084C103.161 12.578 103.299 13.0937 103.574 13.4553C103.85 13.817 104.244 13.9978 104.756 13.9978ZM111.942 8.88989H112.936V14.7014H111.942V10.4636L109.262 14.7014H108.269V8.88989H109.262V13.1331L111.942 8.88989Z" fill="#555555"/>
</svg>
