<svg width="23" height="23" viewBox="0 0 23 23" fill="none" xmlns="http://www.w3.org/2000/svg">
<path d="M0.710083 1.43494H20.2101C21.0385 1.43494 21.7101 2.10651 21.7101 2.93494V20.9349C21.7101 21.7634 21.0385 22.4349 20.2101 22.4349H0.710083V1.43494Z" fill="white" stroke="#D8D8D8"/>
<path fill-rule="evenodd" clip-rule="evenodd" d="M13.6901 11.1284C13.6901 13.0614 12.1231 14.6284 10.1901 14.6284C8.25707 14.6284 6.69006 13.0614 6.69006 11.1284C6.69006 9.19542 8.25707 7.62842 10.1901 7.62842C12.1231 7.62842 13.6901 9.19542 13.6901 11.1284ZM13.3946 14.9667C12.5269 15.6919 11.4094 16.1284 10.1901 16.1284C7.42864 16.1284 5.19006 13.8898 5.19006 11.1284C5.19006 8.36699 7.42864 6.12842 10.1901 6.12842C12.9515 6.12842 15.1901 8.36699 15.1901 11.1284C15.1901 12.1285 14.8964 13.06 14.3907 13.8414L17.2301 16.6808L16.1694 17.7415L13.3946 14.9667Z" fill="#A3A3A3"/>
</svg>
