<svg width="66" height="23" viewBox="0 0 66 23" fill="none" xmlns="http://www.w3.org/2000/svg">
<rect x="0.918091" y="0.826416" width="64" height="21" rx="1.5" fill="#F8F8F8" stroke="#DADADA"/>
<path d="M18.4185 12.22C18.3218 13.0471 18.0156 13.6863 17.5 14.1375C16.988 14.585 16.3058 14.8088 15.4536 14.8088C14.5298 14.8088 13.7886 14.4776 13.23 13.8152C12.675 13.1528 12.3975 12.2665 12.3975 11.1565V10.4045C12.3975 9.67765 12.5264 9.03849 12.7842 8.48706C13.0456 7.93563 13.4144 7.5131 13.8906 7.21948C14.3669 6.92228 14.9183 6.77368 15.5449 6.77368C16.3757 6.77368 17.0417 7.00643 17.543 7.47192C18.0443 7.93384 18.3361 8.57479 18.4185 9.39478H17.3818C17.2923 8.77173 17.0972 8.32056 16.7964 8.04126C16.4992 7.76196 16.082 7.62231 15.5449 7.62231C14.8861 7.62231 14.3687 7.8658 13.9927 8.35278C13.6203 8.83976 13.4341 9.53263 13.4341 10.4314V11.1887C13.4341 12.0374 13.6113 12.7123 13.9658 13.2136C14.3203 13.7149 14.8162 13.9656 15.4536 13.9656C16.0265 13.9656 16.4652 13.8367 16.7695 13.5789C17.0775 13.3175 17.2816 12.8645 17.3818 12.22H18.4185ZM19.4121 11.7419C19.4121 11.1726 19.5231 10.6606 19.7451 10.2058C19.9707 9.75106 20.2822 9.40015 20.6797 9.15308C21.0807 8.90601 21.5373 8.78247 22.0493 8.78247C22.8407 8.78247 23.4798 9.0564 23.9668 9.60425C24.4574 10.1521 24.7026 10.8808 24.7026 11.7903V11.8601C24.7026 12.4259 24.5934 12.9343 24.375 13.3855C24.1602 13.8331 23.8504 14.1822 23.4458 14.4329C23.0448 14.6835 22.5828 14.8088 22.0601 14.8088C21.2723 14.8088 20.6331 14.5349 20.1426 13.9871C19.6556 13.4392 19.4121 12.7141 19.4121 11.8118V11.7419ZM20.4111 11.8601C20.4111 12.5046 20.5597 13.0221 20.8569 13.4124C21.1577 13.8027 21.5588 13.9978 22.0601 13.9978C22.5649 13.9978 22.966 13.8009 23.2632 13.407C23.5604 13.0095 23.709 12.4545 23.709 11.7419C23.709 11.1046 23.5568 10.5889 23.2524 10.1951C22.9517 9.79761 22.5506 9.59888 22.0493 9.59888C21.5588 9.59888 21.1631 9.79403 20.8623 10.1843C20.5615 10.5746 20.4111 11.1332 20.4111 11.8601ZM29.1445 10.4797C29.1445 10.2076 29.0407 9.99276 28.833 9.83521C28.6253 9.67407 28.3407 9.59351 27.979 9.59351C27.6281 9.59351 27.3345 9.68481 27.0981 9.86743C26.8654 10.05 26.749 10.2649 26.749 10.512H25.7607C25.7607 10.0071 25.972 9.59351 26.3945 9.27124C26.8171 8.94897 27.3452 8.78784 27.979 8.78784C28.6593 8.78784 29.1893 8.93465 29.5688 9.22827C29.9484 9.51831 30.1382 9.93368 30.1382 10.4744C30.1382 10.7358 30.0594 10.9757 29.9019 11.1941C29.7443 11.4125 29.5205 11.5862 29.2305 11.7151C29.9072 11.9443 30.2456 12.3954 30.2456 13.0686C30.2456 13.6021 30.0397 14.0247 29.6279 14.3362C29.2161 14.6477 28.6665 14.8035 27.979 14.8035C27.3094 14.8035 26.7562 14.6405 26.3193 14.3147C25.8861 13.9853 25.6694 13.5413 25.6694 12.9827H26.6577C26.6577 13.2655 26.783 13.509 27.0337 13.7131C27.2879 13.9137 27.603 14.0139 27.979 14.0139C28.3586 14.0139 28.6647 13.9262 28.8975 13.7507C29.1302 13.5753 29.2466 13.3479 29.2466 13.0686C29.2466 12.7428 29.1481 12.51 28.9512 12.3704C28.7578 12.2271 28.4552 12.1555 28.0435 12.1555H27.0498V11.3176H28.1294C28.8062 11.2997 29.1445 11.0204 29.1445 10.4797ZM31.4863 13.8904L31.8301 13.4661C32.2168 12.9648 32.437 12.2128 32.4907 11.2102L32.582 8.88989H36.3257V13.8904H37.0723V16.4094H36.0786V14.7014H32.0234V16.4094H31.0298L31.0352 13.8904H31.4863ZM32.6626 13.8904H35.332V9.80835H33.5435L33.4844 11.1941C33.4235 12.3507 33.1496 13.2494 32.6626 13.8904ZM41.7612 14.7014C41.7039 14.5868 41.6574 14.3827 41.6216 14.0891C41.1597 14.5689 40.6082 14.8088 39.9673 14.8088C39.3944 14.8088 38.9235 14.6477 38.5547 14.3254C38.1895 13.9996 38.0068 13.5878 38.0068 13.0901C38.0068 12.4849 38.236 12.0159 38.6943 11.6829C39.1562 11.3463 39.8044 11.178 40.6387 11.178H41.6055V10.7214C41.6055 10.3741 41.5016 10.0984 41.2939 9.89429C41.0863 9.6866 40.7801 9.58276 40.3755 9.58276C40.021 9.58276 39.7238 9.67228 39.4839 9.85132C39.244 10.0304 39.124 10.247 39.124 10.5012H38.125C38.125 10.2112 38.2271 9.93188 38.4312 9.66333C38.6388 9.39119 38.9181 9.17635 39.269 9.0188C39.6235 8.86125 40.012 8.78247 40.4346 8.78247C41.1042 8.78247 41.6287 8.95076 42.0083 9.28735C42.3879 9.62036 42.5848 10.0805 42.5991 10.6677V13.3425C42.5991 13.8761 42.6672 14.3004 42.8032 14.6155V14.7014H41.7612ZM40.1123 13.9441C40.4238 13.9441 40.7192 13.8635 40.9985 13.7024C41.2778 13.5413 41.4801 13.3318 41.6055 13.074V11.8816H40.8267C39.6092 11.8816 39.0005 12.2379 39.0005 12.9504C39.0005 13.262 39.1043 13.5055 39.312 13.6809C39.5197 13.8564 39.7865 13.9441 40.1123 13.9441ZM48.3892 9.69556H46.4395V14.7014H45.4458V9.69556H43.5337V8.88989H48.3892V9.69556ZM50.4409 10.8933H51.9502C52.609 10.9005 53.13 11.0723 53.5132 11.4089C53.8963 11.7455 54.0879 12.2021 54.0879 12.7786C54.0879 13.3586 53.891 13.8241 53.4971 14.175C53.1032 14.526 52.5732 14.7014 51.9072 14.7014H49.4473V8.88989H50.4409V10.8933ZM50.4409 11.7043V13.8904H51.918C52.2904 13.8904 52.5786 13.7955 52.7827 13.6057C52.9868 13.4124 53.0889 13.1492 53.0889 12.8162C53.0889 12.4939 52.9886 12.2307 52.7881 12.0266C52.5911 11.8189 52.3136 11.7115 51.9556 11.7043H50.4409Z" fill="#555555"/>
</svg>
