<svg width="171" height="23" viewBox="0 0 171 23" fill="none" xmlns="http://www.w3.org/2000/svg">
<rect x="0.918091" y="0.826416" width="168.583" height="21" rx="1.5" fill="#F8F8F8" stroke="#DADADA"/>
<path d="M25.311 14.7014V6.8811H27.8677C28.7163 6.8811 29.3537 7.05656 29.7798 7.40747C30.2095 7.75838 30.4243 8.27759 30.4243 8.96509C30.4243 9.33032 30.3205 9.65438 30.1128 9.93726C29.9051 10.2166 29.6222 10.4332 29.2642 10.5872C29.6867 10.7053 30.0197 10.9309 30.2632 11.2639C30.5103 11.5933 30.6338 11.9872 30.6338 12.4456C30.6338 13.1474 30.4064 13.6988 29.9517 14.0999C29.4969 14.5009 28.8542 14.7014 28.0234 14.7014H25.311ZM26.3423 11.0437V13.8582H28.0449C28.5247 13.8582 28.9025 13.7346 29.1782 13.4875C29.4575 13.2369 29.5972 12.8931 29.5972 12.4563C29.5972 11.5146 29.0851 11.0437 28.061 11.0437H26.3423ZM26.3423 10.2166H27.8999C28.3511 10.2166 28.7109 10.1038 28.9795 9.87817C29.2516 9.65259 29.3877 9.34644 29.3877 8.95972C29.3877 8.53003 29.2624 8.21851 29.0117 8.02515C28.7611 7.82821 28.3797 7.72974 27.8677 7.72974H26.3423V10.2166ZM34.4204 14.8088C33.6326 14.8088 32.9917 14.551 32.4976 14.0354C32.0034 13.5162 31.7563 12.8233 31.7563 11.9568V11.7742C31.7563 11.1977 31.8656 10.6838 32.084 10.2327C32.306 9.77791 32.6139 9.42342 33.0078 9.16919C33.4053 8.91138 33.835 8.78247 34.2969 8.78247C35.0524 8.78247 35.6396 9.03133 36.0586 9.52905C36.4775 10.0268 36.687 10.7393 36.687 11.6667V12.0803H32.75C32.7643 12.6532 32.9308 13.1169 33.2495 13.4714C33.5718 13.8223 33.98 13.9978 34.4741 13.9978C34.825 13.9978 35.1222 13.9262 35.3657 13.783C35.6092 13.6397 35.8223 13.45 36.0049 13.2136L36.6118 13.6863C36.1248 14.4347 35.3944 14.8088 34.4204 14.8088ZM34.2969 9.59888C33.8958 9.59888 33.5592 9.74569 33.2871 10.0393C33.015 10.3293 32.8467 10.7375 32.7822 11.2639H35.6934V11.1887C35.6647 10.6838 35.5286 10.2935 35.2852 10.0178C35.0417 9.73853 34.7122 9.59888 34.2969 9.59888ZM42.751 11.8601C42.751 12.7445 42.5487 13.4571 42.144 13.9978C41.7394 14.5385 41.1916 14.8088 40.5005 14.8088C39.7951 14.8088 39.2401 14.585 38.8354 14.1375V16.9358H37.8418V8.88989H38.7495L38.7979 9.53442C39.2025 9.03312 39.7646 8.78247 40.4844 8.78247C41.1826 8.78247 41.734 9.04565 42.1387 9.57202C42.5469 10.0984 42.751 10.8306 42.751 11.7688V11.8601ZM41.7573 11.7473C41.7573 11.092 41.6177 10.5746 41.3384 10.1951C41.0591 9.81551 40.6759 9.62573 40.189 9.62573C39.5874 9.62573 39.1362 9.8925 38.8354 10.426V13.2029C39.1326 13.7328 39.5874 13.9978 40.1997 13.9978C40.6759 13.9978 41.0537 13.8098 41.333 13.4338C41.6159 13.0543 41.7573 12.4921 41.7573 11.7473ZM48.7666 14.7014H47.7729V12.22H45.1035V14.7014H44.1045V8.88989H45.1035V11.4089H47.7729V8.88989H48.7666V14.7014ZM52.2686 13.2458L53.6221 8.88989H54.6855L52.3491 15.5984C51.9875 16.5652 51.4128 17.0486 50.625 17.0486L50.437 17.0325L50.0664 16.9626V16.157L50.335 16.1785C50.6715 16.1785 50.9329 16.1104 51.1191 15.9744C51.3089 15.8383 51.4647 15.5894 51.5864 15.2278L51.8066 14.637L49.7334 8.88989H50.8184L52.2686 13.2458ZM59.8955 9.69556H57.9458V14.7014H56.9521V9.69556H55.04V8.88989H59.8955V9.69556ZM61.9473 10.8933H63.4565C64.1154 10.9005 64.6364 11.0723 65.0195 11.4089C65.4027 11.7455 65.5942 12.2021 65.5942 12.7786C65.5942 13.3586 65.3973 13.8241 65.0034 14.175C64.6095 14.526 64.0796 14.7014 63.4136 14.7014H60.9536V8.88989H61.9473V10.8933ZM61.9473 11.7043V13.8904H63.4243C63.7967 13.8904 64.085 13.7955 64.2891 13.6057C64.4932 13.4124 64.5952 13.1492 64.5952 12.8162C64.5952 12.4939 64.495 12.2307 64.2944 12.0266C64.0975 11.8189 63.82 11.7115 63.4619 11.7043H61.9473ZM69.6548 14.7014V8.88989H71.9214C72.6948 8.88989 73.2874 9.02596 73.6992 9.2981C74.1146 9.56665 74.3223 9.96232 74.3223 10.4851C74.3223 10.7537 74.2417 10.9972 74.0806 11.2156C73.9194 11.4304 73.6813 11.5951 73.3662 11.7097C73.7171 11.7921 73.9982 11.9532 74.2095 12.1931C74.4243 12.433 74.5317 12.7195 74.5317 13.0525C74.5317 13.586 74.3348 13.9942 73.9409 14.2771C73.5506 14.56 72.9974 14.7014 72.2812 14.7014H69.6548ZM70.6484 12.1501V13.9011H72.292C72.7074 13.9011 73.0171 13.8241 73.2212 13.6702C73.4289 13.5162 73.5327 13.2996 73.5327 13.0203C73.5327 12.4402 73.1066 12.1501 72.2544 12.1501H70.6484ZM70.6484 11.3552H71.9321C72.8631 11.3552 73.3286 11.0831 73.3286 10.5388C73.3286 9.99455 72.8882 9.71346 72.0073 9.69556H70.6484V11.3552ZM83.3296 14.7014H82.3359V9.71167H79.6611V14.7014H78.6621V8.88989H83.3296V14.7014ZM84.6616 11.7419C84.6616 11.1726 84.7726 10.6606 84.9946 10.2058C85.2202 9.75106 85.5317 9.40015 85.9292 9.15308C86.3302 8.90601 86.7868 8.78247 87.2988 8.78247C88.0902 8.78247 88.7293 9.0564 89.2163 9.60425C89.7069 10.1521 89.9521 10.8808 89.9521 11.7903V11.8601C89.9521 12.4259 89.8429 12.9343 89.6245 13.3855C89.4097 13.8331 89.0999 14.1822 88.6953 14.4329C88.2943 14.6835 87.8324 14.8088 87.3096 14.8088C86.5218 14.8088 85.8826 14.5349 85.3921 13.9871C84.9051 13.4392 84.6616 12.7141 84.6616 11.8118V11.7419ZM85.6606 11.8601C85.6606 12.5046 85.8092 13.0221 86.1064 13.4124C86.4072 13.8027 86.8083 13.9978 87.3096 13.9978C87.8145 13.9978 88.2155 13.8009 88.5127 13.407C88.8099 13.0095 88.9585 12.4545 88.9585 11.7419C88.9585 11.1046 88.8063 10.5889 88.502 10.1951C88.2012 9.79761 87.8001 9.59888 87.2988 9.59888C86.8083 9.59888 86.4126 9.79403 86.1118 10.1843C85.811 10.5746 85.6606 11.1332 85.6606 11.8601ZM95.8765 8.88989V14.7014H94.8774V9.71167H92.9009L92.7827 11.887C92.7183 12.886 92.55 13.6003 92.2778 14.03C92.0093 14.4597 91.5814 14.6835 90.9941 14.7014H90.5967V13.8259L90.8813 13.8044C91.2036 13.7686 91.4346 13.5824 91.5742 13.2458C91.7139 12.9093 91.8034 12.2862 91.8428 11.3767L91.9502 8.88989H95.8765ZM98.5566 10.8933H100.066C100.725 10.9005 101.246 11.0723 101.629 11.4089C102.012 11.7455 102.204 12.2021 102.204 12.7786C102.204 13.3586 102.007 13.8241 101.613 14.175C101.219 14.526 100.689 14.7014 100.023 14.7014H97.563V8.88989H98.5566V10.8933ZM98.5566 11.7043V13.8904H100.034C100.406 13.8904 100.694 13.7955 100.898 13.6057C101.103 13.4124 101.205 13.1492 101.205 12.8162C101.205 12.4939 101.104 12.2307 100.904 12.0266C100.707 11.8189 100.429 11.7115 100.071 11.7043H98.5566ZM106.64 10.4797C106.64 10.2076 106.536 9.99276 106.329 9.83521C106.121 9.67407 105.836 9.59351 105.475 9.59351C105.124 9.59351 104.83 9.68481 104.594 9.86743C104.361 10.05 104.245 10.2649 104.245 10.512H103.256C103.256 10.0071 103.468 9.59351 103.89 9.27124C104.313 8.94897 104.841 8.78784 105.475 8.78784C106.155 8.78784 106.685 8.93465 107.064 9.22827C107.444 9.51831 107.634 9.93368 107.634 10.4744C107.634 10.7358 107.555 10.9757 107.397 11.1941C107.24 11.4125 107.016 11.5862 106.726 11.7151C107.403 11.9443 107.741 12.3954 107.741 13.0686C107.741 13.6021 107.535 14.0247 107.124 14.3362C106.712 14.6477 106.162 14.8035 105.475 14.8035C104.805 14.8035 104.252 14.6405 103.815 14.3147C103.382 13.9853 103.165 13.5413 103.165 12.9827H104.153C104.153 13.2655 104.279 13.509 104.529 13.7131C104.784 13.9137 105.099 14.0139 105.475 14.0139C105.854 14.0139 106.16 13.9262 106.393 13.7507C106.626 13.5753 106.742 13.3479 106.742 13.0686C106.742 12.7428 106.644 12.51 106.447 12.3704C106.253 12.2271 105.951 12.1555 105.539 12.1555H104.545V11.3176H105.625C106.302 11.2997 106.64 11.0204 106.64 10.4797ZM108.767 11.7419C108.767 11.1726 108.878 10.6606 109.1 10.2058C109.326 9.75106 109.637 9.40015 110.035 9.15308C110.436 8.90601 110.892 8.78247 111.404 8.78247C112.196 8.78247 112.835 9.0564 113.322 9.60425C113.812 10.1521 114.058 10.8808 114.058 11.7903V11.8601C114.058 12.4259 113.948 12.9343 113.73 13.3855C113.515 13.8331 113.205 14.1822 112.801 14.4329C112.4 14.6835 111.938 14.8088 111.415 14.8088C110.627 14.8088 109.988 14.5349 109.498 13.9871C109.011 13.4392 108.767 12.7141 108.767 11.8118V11.7419ZM109.766 11.8601C109.766 12.5046 109.915 13.0221 110.212 13.4124C110.513 13.8027 110.914 13.9978 111.415 13.9978C111.92 13.9978 112.321 13.8009 112.618 13.407C112.915 13.0095 113.064 12.4545 113.064 11.7419C113.064 11.1046 112.912 10.5889 112.607 10.1951C112.307 9.79761 111.906 9.59888 111.404 9.59888C110.914 9.59888 110.518 9.79403 110.217 10.1843C109.917 10.5746 109.766 11.1332 109.766 11.8601ZM115.395 14.7014V8.88989H117.662C118.435 8.88989 119.028 9.02596 119.439 9.2981C119.855 9.56665 120.062 9.96232 120.062 10.4851C120.062 10.7537 119.982 10.9972 119.821 11.2156C119.66 11.4304 119.422 11.5951 119.106 11.7097C119.457 11.7921 119.738 11.9532 119.95 12.1931C120.165 12.433 120.272 12.7195 120.272 13.0525C120.272 13.586 120.075 13.9942 119.681 14.2771C119.291 14.56 118.738 14.7014 118.021 14.7014H115.395ZM116.389 12.1501V13.9011H118.032C118.448 13.9011 118.757 13.8241 118.961 13.6702C119.169 13.5162 119.273 13.2996 119.273 13.0203C119.273 12.4402 118.847 12.1501 117.995 12.1501H116.389ZM116.389 11.3552H117.672C118.603 11.3552 119.069 11.0831 119.069 10.5388C119.069 9.99455 118.628 9.71346 117.748 9.69556H116.389V11.3552ZM125.176 14.7014C125.118 14.5868 125.072 14.3827 125.036 14.0891C124.574 14.5689 124.023 14.8088 123.382 14.8088C122.809 14.8088 122.338 14.6477 121.969 14.3254C121.604 13.9996 121.421 13.5878 121.421 13.0901C121.421 12.4849 121.651 12.0159 122.109 11.6829C122.571 11.3463 123.219 11.178 124.053 11.178H125.02V10.7214C125.02 10.3741 124.916 10.0984 124.708 9.89429C124.501 9.6866 124.195 9.58276 123.79 9.58276C123.436 9.58276 123.138 9.67228 122.898 9.85132C122.659 10.0304 122.539 10.247 122.539 10.5012H121.54C121.54 10.2112 121.642 9.93188 121.846 9.66333C122.053 9.39119 122.333 9.17635 122.684 9.0188C123.038 8.86125 123.427 8.78247 123.849 8.78247C124.519 8.78247 125.043 8.95076 125.423 9.28735C125.802 9.62036 125.999 10.0805 126.014 10.6677V13.3425C126.014 13.8761 126.082 14.3004 126.218 14.6155V14.7014H125.176ZM123.527 13.9441C123.838 13.9441 124.134 13.8635 124.413 13.7024C124.692 13.5413 124.895 13.3318 125.02 13.074V11.8816H124.241C123.024 11.8816 122.415 12.2379 122.415 12.9504C122.415 13.262 122.519 13.5055 122.727 13.6809C122.934 13.8564 123.201 13.9441 123.527 13.9441ZM132.319 14.7014H131.326V12.22H128.656V14.7014H127.657V8.88989H128.656V11.4089H131.326V8.88989H132.319V14.7014ZM137.68 8.88989H138.673V14.7014H137.68V10.4636L135 14.7014H134.006V8.88989H135V13.1331L137.68 8.88989ZM142.68 14.8088C141.892 14.8088 141.251 14.551 140.757 14.0354C140.263 13.5162 140.016 12.8233 140.016 11.9568V11.7742C140.016 11.1977 140.125 10.6838 140.344 10.2327C140.566 9.77791 140.874 9.42342 141.268 9.16919C141.665 8.91138 142.095 8.78247 142.557 8.78247C143.312 8.78247 143.899 9.03133 144.318 9.52905C144.737 10.0268 144.947 10.7393 144.947 11.6667V12.0803H141.01C141.024 12.6532 141.191 13.1169 141.509 13.4714C141.832 13.8223 142.24 13.9978 142.734 13.9978C143.085 13.9978 143.382 13.9262 143.625 13.783C143.869 13.6397 144.082 13.45 144.265 13.2136L144.872 13.6863C144.385 14.4347 143.654 14.8088 142.68 14.8088ZM142.557 9.59888C142.156 9.59888 141.819 9.74569 141.547 10.0393C141.275 10.3293 141.106 10.7375 141.042 11.2639H143.953V11.1887C143.924 10.6838 143.788 10.2935 143.545 10.0178C143.301 9.73853 142.972 9.59888 142.557 9.59888Z" fill="#555555"/>
</svg>
