<svg width="171" height="23" viewBox="0 0 171 23" fill="none" xmlns="http://www.w3.org/2000/svg">
<rect x="1.44012" y="1.33643" width="168.583" height="21" rx="1.5" fill="#E9F3FA" stroke="#AFC9DC"/>
<path d="M57.979 12.1499V15.2114H56.9478V7.39111H59.832C60.6878 7.39111 61.3574 7.60954 61.8408 8.04639C62.3278 8.48324 62.5713 9.06152 62.5713 9.78125C62.5713 10.5404 62.3332 11.1258 61.8569 11.5376C61.3843 11.9458 60.7057 12.1499 59.8213 12.1499H57.979ZM57.979 11.3066H59.832C60.3835 11.3066 60.806 11.1777 61.0996 10.9199C61.3932 10.6585 61.54 10.2826 61.54 9.79199C61.54 9.3265 61.3932 8.9541 61.0996 8.6748C60.806 8.39551 60.4032 8.25049 59.8911 8.23975H57.979V11.3066ZM66.0679 15.3188C65.2801 15.3188 64.6392 15.061 64.145 14.5454C63.6509 14.0262 63.4038 13.3333 63.4038 12.4668V12.2842C63.4038 11.7077 63.513 11.1938 63.7314 10.7427C63.9535 10.2879 64.2614 9.93343 64.6553 9.6792C65.0527 9.42139 65.4824 9.29248 65.9443 9.29248C66.6999 9.29248 67.2871 9.54134 67.7061 10.0391C68.125 10.5368 68.3345 11.2493 68.3345 12.1768V12.5903H64.3975C64.4118 13.1632 64.5783 13.627 64.897 13.9814C65.2192 14.3324 65.6274 14.5078 66.1216 14.5078C66.4725 14.5078 66.7697 14.4362 67.0132 14.293C67.2567 14.1497 67.4697 13.96 67.6523 13.7236L68.2593 14.1963C67.7723 14.9447 67.0418 15.3188 66.0679 15.3188ZM65.9443 10.1089C65.5433 10.1089 65.2067 10.2557 64.9346 10.5493C64.6624 10.8394 64.4941 11.2476 64.4297 11.7739H67.3408V11.6987C67.3122 11.1938 67.1761 10.8035 66.9326 10.5278C66.6891 10.2485 66.3597 10.1089 65.9443 10.1089ZM72.6851 10.9897C72.6851 10.7176 72.5812 10.5028 72.3735 10.3452C72.1659 10.1841 71.8812 10.1035 71.5195 10.1035C71.1686 10.1035 70.875 10.1948 70.6387 10.3774C70.4059 10.5601 70.2896 10.7749 70.2896 11.022H69.3013C69.3013 10.5171 69.5125 10.1035 69.9351 9.78125C70.3576 9.45898 70.8857 9.29785 71.5195 9.29785C72.1999 9.29785 72.7298 9.44466 73.1094 9.73828C73.4889 10.0283 73.6787 10.4437 73.6787 10.9844C73.6787 11.2458 73.5999 11.4857 73.4424 11.7041C73.2848 11.9225 73.061 12.0962 72.771 12.2251C73.4478 12.4543 73.7861 12.9054 73.7861 13.5786C73.7861 14.1121 73.5802 14.5347 73.1685 14.8462C72.7567 15.1577 72.207 15.3135 71.5195 15.3135C70.8499 15.3135 70.2967 15.1506 69.8599 14.8247C69.4266 14.4953 69.21 14.0513 69.21 13.4927H70.1982C70.1982 13.7756 70.3236 14.019 70.5742 14.2231C70.8285 14.4237 71.1436 14.5239 71.5195 14.5239C71.8991 14.5239 72.2052 14.4362 72.438 14.2607C72.6707 14.0853 72.7871 13.8579 72.7871 13.5786C72.7871 13.2528 72.6886 13.02 72.4917 12.8804C72.2983 12.7371 71.9958 12.6655 71.584 12.6655H70.5903V11.8276H71.6699C72.3467 11.8097 72.6851 11.5304 72.6851 10.9897ZM74.812 12.252C74.812 11.6826 74.923 11.1706 75.145 10.7158C75.3706 10.2611 75.6821 9.91016 76.0796 9.66309C76.4806 9.41602 76.9372 9.29248 77.4492 9.29248C78.2406 9.29248 78.8797 9.56641 79.3667 10.1143C79.8573 10.6621 80.1025 11.3908 80.1025 12.3003V12.3701C80.1025 12.9359 79.9933 13.4443 79.7749 13.8955C79.5601 14.3431 79.2503 14.6922 78.8457 14.9429C78.4447 15.1935 77.9827 15.3188 77.46 15.3188C76.6722 15.3188 76.033 15.0449 75.5425 14.4971C75.0555 13.9492 74.812 13.2241 74.812 12.3218V12.252ZM75.811 12.3701C75.811 13.0146 75.9596 13.5321 76.2568 13.9224C76.5576 14.3127 76.9587 14.5078 77.46 14.5078C77.9648 14.5078 78.3659 14.3109 78.6631 13.917C78.9603 13.5195 79.1089 12.9645 79.1089 12.252C79.1089 11.6146 78.9567 11.099 78.6523 10.7051C78.3516 10.3076 77.9505 10.1089 77.4492 10.1089C76.9587 10.1089 76.563 10.304 76.2622 10.6943C75.9614 11.0846 75.811 11.6432 75.811 12.3701ZM86.0269 9.3999V15.2114H85.0278V10.2217H83.0513L82.9331 12.397C82.8687 13.396 82.7004 14.1104 82.4282 14.54C82.1597 14.9697 81.7318 15.1935 81.1445 15.2114H80.7471V14.3359L81.0317 14.3145C81.354 14.2786 81.585 14.0924 81.7246 13.7559C81.8643 13.4193 81.9538 12.7962 81.9932 11.8867L82.1006 9.3999H86.0269ZM88.707 11.8652H90.1035C90.1787 11.0918 90.4526 10.4705 90.9253 10.0015C91.4015 9.52881 92.0013 9.29248 92.7246 9.29248C93.4837 9.29248 94.105 9.5485 94.5884 10.0605C95.0718 10.5726 95.3332 11.2386 95.3726 12.0586L95.3779 12.3701C95.3779 12.9359 95.2669 13.4461 95.0449 13.9009C94.8229 14.3556 94.5114 14.7065 94.1104 14.9536C93.7093 15.1971 93.251 15.3188 92.7354 15.3188C91.987 15.3188 91.3747 15.0754 90.8984 14.5884C90.4222 14.0978 90.1554 13.4622 90.0981 12.6816H88.707V15.2114H87.7134V9.3999H88.707V11.8652ZM91.0811 12.3701C91.0811 13.0146 91.2297 13.5321 91.5269 13.9224C91.8276 14.3127 92.2305 14.5078 92.7354 14.5078C93.2402 14.5078 93.6395 14.3091 93.9331 13.9116C94.2303 13.5142 94.3789 12.9609 94.3789 12.252C94.3789 11.6182 94.2285 11.1025 93.9277 10.7051C93.627 10.3076 93.2259 10.1089 92.7246 10.1089C92.2305 10.1089 91.833 10.304 91.5322 10.6943C91.2314 11.0846 91.0811 11.6432 91.0811 12.3701ZM96.6885 9.3999H97.6875V14.4004H100.362V9.3999H101.356V14.4004H102.049L101.952 16.9355H101.061V15.2114H96.6885V9.3999ZM106.883 9.3999H107.876V15.2114H106.883V10.9736L104.203 15.2114H103.209V9.3999H104.203V13.6431L106.883 9.3999ZM113.914 9.3999V15.2114H112.915V12.9502H111.416L110.046 15.2114H108.972L110.433 12.7998C110.061 12.6637 109.774 12.4543 109.574 12.1714C109.377 11.8849 109.278 11.5519 109.278 11.1724C109.278 10.6424 109.477 10.2163 109.875 9.89404C110.272 9.5682 110.804 9.40348 111.47 9.3999H113.914ZM110.277 11.1831C110.277 11.466 110.374 11.6951 110.567 11.8706C110.761 12.0425 111.017 12.1302 111.335 12.1338H112.915V10.2056H111.486C111.117 10.2056 110.823 10.2969 110.605 10.4795C110.387 10.6585 110.277 10.8931 110.277 11.1831Z" fill="#555555"/>
</svg>
