<svg width="53" height="23" viewBox="0 0 53 23" fill="none" xmlns="http://www.w3.org/2000/svg">
<rect x="0.418091" y="0.725769" width="51.6899" height="22" rx="2" fill="white"/>
<path d="M6.56653 7.40546H7.59778V15.2258H6.56653V9.1994L2.71545 15.2258H1.67883V7.40546H2.71545V13.4318L6.56653 7.40546ZM12.5177 11.0041C12.5177 10.732 12.4139 10.5171 12.2062 10.3596C11.9985 10.1984 11.7138 10.1179 11.3522 10.1179C11.0013 10.1179 10.7076 10.2092 10.4713 10.3918C10.2386 10.5744 10.1222 10.7892 10.1222 11.0363H9.13391C9.13391 10.5314 9.34517 10.1179 9.7677 9.79559C10.1902 9.47333 10.7184 9.31219 11.3522 9.31219C12.0325 9.31219 12.5625 9.459 12.942 9.75262C13.3216 10.0427 13.5114 10.458 13.5114 10.9987C13.5114 11.2601 13.4326 11.5 13.275 11.7184C13.1175 11.9369 12.8937 12.1105 12.6036 12.2394C13.2804 12.4686 13.6188 12.9198 13.6188 13.593C13.6188 14.1265 13.4129 14.549 13.0011 14.8605C12.5893 15.1721 12.0397 15.3278 11.3522 15.3278C10.6826 15.3278 10.1294 15.1649 9.6925 14.8391C9.25924 14.5096 9.0426 14.0656 9.0426 13.507H10.0309C10.0309 13.7899 10.1562 14.0334 10.4069 14.2375C10.6611 14.438 10.9762 14.5383 11.3522 14.5383C11.7317 14.5383 12.0379 14.4505 12.2706 14.2751C12.5034 14.0996 12.6198 13.8723 12.6198 13.593C12.6198 13.2671 12.5213 13.0344 12.3243 12.8947C12.131 12.7515 11.8284 12.6799 11.4166 12.6799H10.423V11.842H11.5026C12.1793 11.8241 12.5177 11.5448 12.5177 11.0041ZM18.254 13.9099L20.2306 9.41425H21.4713V15.2258H20.4777V10.9987L18.5978 15.2258H17.9103L15.9928 10.9074V15.2258H14.9991V9.41425H16.2882L18.254 13.9099ZM25.4835 15.3332C24.6958 15.3332 24.0548 15.0754 23.5607 14.5598C23.0665 14.0405 22.8195 13.3477 22.8195 12.4811V12.2985C22.8195 11.722 22.9287 11.2082 23.1471 10.757C23.3691 10.3023 23.677 9.94777 24.0709 9.69354C24.4684 9.43573 24.8981 9.30682 25.36 9.30682C26.1155 9.30682 26.7028 9.55568 27.1217 10.0534C27.5406 10.5511 27.7501 11.2637 27.7501 12.1911V12.6047H23.8131C23.8274 13.1776 23.9939 13.6413 24.3126 13.9958C24.6349 14.3467 25.0431 14.5222 25.5372 14.5222C25.8881 14.5222 26.1853 14.4505 26.4288 14.3073C26.6723 14.1641 26.8854 13.9743 27.068 13.738L27.6749 14.2106C27.1879 14.959 26.4575 15.3332 25.4835 15.3332ZM25.36 10.1232C24.9589 10.1232 24.6224 10.27 24.3502 10.5637C24.0781 10.8537 23.9098 11.2619 23.8453 11.7883H26.7565V11.7131C26.7278 11.2082 26.5918 10.8179 26.3483 10.5422C26.1048 10.2629 25.7753 10.1232 25.36 10.1232ZM33.653 15.2258H32.6593V12.7443H29.9899V15.2258H28.9908V9.41425H29.9899V11.9333H32.6593V9.41425H33.653V15.2258ZM39.0133 9.41425H40.007V15.2258H39.0133V10.988L36.3331 15.2258H35.3395V9.41425H36.3331V13.6574L39.0133 9.41425ZM45.9205 10.2199H43.9708V15.2258H42.9772V10.2199H41.0651V9.41425H45.9205V10.2199ZM47.9723 11.4177H49.4816C50.1404 11.4248 50.6614 11.5967 51.0446 11.9333C51.4277 12.2699 51.6193 12.7264 51.6193 13.3029C51.6193 13.883 51.4223 14.3485 51.0284 14.6994C50.6346 15.0503 50.1046 15.2258 49.4386 15.2258H46.9786V9.41425H47.9723V11.4177ZM47.9723 12.2287V14.4147H49.4493C49.8217 14.4147 50.11 14.3198 50.3141 14.1301C50.5182 13.9367 50.6202 13.6735 50.6202 13.3405C50.6202 13.0182 50.52 12.7551 50.3195 12.551C50.1225 12.3433 49.845 12.2359 49.4869 12.2287H47.9723Z" fill="#3F7ABE"/>
</svg>
