<svg width="171" height="23" viewBox="0 0 171 23" fill="none" xmlns="http://www.w3.org/2000/svg">
<rect x="0.918091" y="1.10101" width="168.583" height="21" rx="1.5" fill="#ECF5DD" stroke="#C5D2B1"/>
<path d="M61.1469 11.6943L62.9462 7.1557H64.144L61.3779 13.6708C61.1917 14.0862 61.018 14.3816 60.8569 14.5571C60.6957 14.7289 60.506 14.8614 60.2875 14.9545C60.0727 15.044 59.8023 15.0888 59.4765 15.0888C59.1936 15.0888 59.0128 15.0727 58.934 15.0405L58.9662 14.2241L59.455 14.2455C59.831 14.2455 60.1103 14.0647 60.2929 13.7031L60.4272 13.4238L60.6313 12.9457L57.9672 7.1557H59.122L61.1469 11.6943ZM69.5419 9.97015H67.5922V14.976H66.5986V9.97015H64.6865V9.16449H69.5419V9.97015ZM70.6 14.976V9.16449H72.8666C73.6401 9.16449 74.2327 9.30056 74.6445 9.57269C75.0598 9.84125 75.2675 10.2369 75.2675 10.7597C75.2675 11.0283 75.187 11.2717 75.0258 11.4902C74.8647 11.705 74.6266 11.8697 74.3115 11.9843C74.6624 12.0667 74.9435 12.2278 75.1547 12.4677C75.3696 12.7076 75.477 12.9941 75.477 13.3271C75.477 13.8606 75.28 14.2688 74.8862 14.5517C74.4959 14.8346 73.9426 14.976 73.2265 14.976H70.6ZM71.5937 12.4247V14.1757H73.2372C73.6526 14.1757 73.9623 14.0987 74.1664 13.9448C74.3741 13.7908 74.478 13.5742 74.478 13.2949C74.478 12.7148 74.0519 12.4247 73.1996 12.4247H71.5937ZM71.5937 11.6298H72.8774C73.8084 11.6298 74.2739 11.3577 74.2739 10.8134C74.2739 10.2691 73.8334 9.98806 72.9526 9.97015H71.5937V11.6298ZM79.2045 15.0834C78.4168 15.0834 77.7758 14.8256 77.2817 14.31C76.7875 13.7908 76.5405 13.0979 76.5405 12.2314V12.0488C76.5405 11.4723 76.6497 10.9584 76.8681 10.5073C77.0901 10.0525 77.3981 9.69802 77.7919 9.44379C78.1894 9.18597 78.6191 9.05707 79.081 9.05707C79.8365 9.05707 80.4238 9.30593 80.8427 9.80365C81.2617 10.3014 81.4711 11.0139 81.4711 11.9413V12.3549H77.5341C77.5484 12.9278 77.7149 13.3915 78.0336 13.746C78.3559 14.0969 78.7641 14.2724 79.2582 14.2724C79.6092 14.2724 79.9064 14.2008 80.1498 14.0576C80.3933 13.9143 80.6064 13.7245 80.789 13.4882L81.3959 13.9609C80.909 14.7092 80.1785 15.0834 79.2045 15.0834ZM79.081 9.87347C78.68 9.87347 78.3434 10.0203 78.0712 10.3139C77.7991 10.6039 77.6308 11.0121 77.5663 11.5385H80.4775V11.4633C80.4488 10.9584 80.3128 10.5681 80.0693 10.2924C79.8258 10.0131 79.4964 9.87347 79.081 9.87347ZM87.5351 12.1347C87.5351 13.0191 87.3328 13.7317 86.9282 14.2724C86.5235 14.8131 85.9757 15.0834 85.2846 15.0834C84.5792 15.0834 84.0242 14.8596 83.6196 14.412V17.2104H82.6259V9.16449H83.5336L83.582 9.80902C83.9866 9.30772 84.5488 9.05707 85.2685 9.05707C85.9667 9.05707 86.5182 9.32025 86.9228 9.84662C87.331 10.373 87.5351 11.1052 87.5351 12.0434V12.1347ZM86.5414 12.0219C86.5414 11.3666 86.4018 10.8492 86.1225 10.4697C85.8432 10.0901 85.4601 9.90033 84.9731 9.90033C84.3715 9.90033 83.9203 10.1671 83.6196 10.7006V13.4775C83.9168 14.0074 84.3715 14.2724 84.9838 14.2724C85.4601 14.2724 85.8378 14.0844 86.1171 13.7084C86.4 13.3289 86.5414 12.7667 86.5414 12.0219ZM88.6577 14.165L89.0014 13.7407C89.3881 13.2394 89.6083 12.4874 89.662 11.4848L89.7534 9.16449H93.497V14.165H94.2436V16.684H93.2499V14.976H89.1948V16.684H88.2011L88.2065 14.165H88.6577ZM89.8339 14.165H92.5034V10.0829H90.7148L90.6557 11.4687C90.5948 12.6253 90.3209 13.524 89.8339 14.165ZM99.1044 9.16449H100.098V14.976H99.1044V10.7382L96.4243 14.976H95.4306V9.16449H96.4243V13.4077L99.1044 9.16449ZM106.012 9.97015H104.062V14.976H103.068V9.97015H101.156V9.16449H106.012V9.97015ZM108.063 11.1679H109.573C110.232 11.1751 110.753 11.3469 111.136 11.6835C111.519 12.0201 111.71 12.4767 111.71 13.0532C111.71 13.6332 111.513 14.0987 111.12 14.4496C110.726 14.8006 110.196 14.976 109.53 14.976H107.07V9.16449H108.063V11.1679ZM108.063 11.9789V14.165H109.54C109.913 14.165 110.201 14.0701 110.405 13.8803C110.609 13.687 110.711 13.4238 110.711 13.0908C110.711 12.7685 110.611 12.5053 110.411 12.3012C110.214 12.0935 109.936 11.9861 109.578 11.9789H108.063Z" fill="#555555"/>
</svg>
