<svg width="170" height="23" viewBox="0 0 170 23" fill="none" xmlns="http://www.w3.org/2000/svg">
<rect x="0.501465" y="1.10101" width="168.583" height="21" rx="1.5" fill="#ECF5DD" stroke="#C5D2B1"/>
<path d="M19.0613 11.3183C19.0613 12.0846 18.9324 12.7542 18.6746 13.3271C18.4168 13.8964 18.0516 14.3315 17.5789 14.6323C17.1063 14.933 16.5548 15.0834 15.9246 15.0834C15.3087 15.0834 14.7627 14.933 14.2864 14.6323C13.8102 14.3279 13.4396 13.8964 13.1746 13.3378C12.9132 12.7757 12.779 12.1258 12.7718 11.3881V10.8242C12.7718 10.0722 12.9025 9.40798 13.1639 8.83148C13.4253 8.25498 13.7941 7.81455 14.2703 7.51019C14.7501 7.20225 15.298 7.04828 15.9139 7.04828C16.5405 7.04828 17.0919 7.20046 17.5682 7.50482C18.048 7.8056 18.4168 8.24424 18.6746 8.82074C18.9324 9.39366 19.0613 10.0615 19.0613 10.8242V11.3183ZM18.0355 10.8134C18.0355 9.88601 17.8493 9.17523 17.4769 8.68109C17.1045 8.18337 16.5835 7.93451 15.9139 7.93451C15.2622 7.93451 14.7484 8.18337 14.3724 8.68109C14 9.17523 13.8084 9.86273 13.7977 10.7436V11.3183C13.7977 12.2171 13.9857 12.9243 14.3616 13.4399C14.7412 13.9519 15.2622 14.2079 15.9246 14.2079C16.5906 14.2079 17.1063 13.9662 17.4715 13.4828C17.8367 12.9959 18.0247 12.2994 18.0355 11.3935V10.8134ZM24.7708 9.97015H22.8211V14.976H21.8275V9.97015H19.9153V9.16449H24.7708V9.97015ZM30.491 14.976H29.4974V9.98627H26.8226V14.976H25.8235V9.16449H30.491V14.976ZM36.9954 12.1347C36.9954 13.0191 36.7931 13.7317 36.3885 14.2724C35.9839 14.8131 35.436 15.0834 34.7449 15.0834C34.0395 15.0834 33.4845 14.8596 33.0799 14.412V17.2104H32.0862V9.16449H32.994L33.0423 9.80902C33.4469 9.30772 34.0091 9.05707 34.7288 9.05707C35.4271 9.05707 35.9785 9.32025 36.3831 9.84662C36.7913 10.373 36.9954 11.1052 36.9954 12.0434V12.1347ZM36.0018 12.0219C36.0018 11.3666 35.8621 10.8492 35.5828 10.4697C35.3035 10.0901 34.9204 9.90033 34.4334 9.90033C33.8318 9.90033 33.3807 10.1671 33.0799 10.7006V13.4775C33.3771 14.0074 33.8318 14.2724 34.4442 14.2724C34.9204 14.2724 35.2982 14.0844 35.5775 13.7084C35.8603 13.3289 36.0018 12.7667 36.0018 12.0219ZM41.8509 14.976C41.7936 14.8614 41.747 14.6573 41.7112 14.3637C41.2493 14.8435 40.6979 15.0834 40.0569 15.0834C39.484 15.0834 39.0132 14.9223 38.6443 14.6C38.2791 14.2742 38.0965 13.8624 38.0965 13.3647C38.0965 12.7595 38.3257 12.2905 38.784 11.9575C39.2459 11.6209 39.894 11.4526 40.7283 11.4526H41.6951V10.996C41.6951 10.6487 41.5913 10.373 41.3836 10.1689C41.1759 9.9612 40.8698 9.85736 40.4651 9.85736C40.1107 9.85736 39.8135 9.94688 39.5735 10.1259C39.3336 10.305 39.2137 10.5216 39.2137 10.7758H38.2147C38.2147 10.4858 38.3167 10.2065 38.5208 9.93793C38.7285 9.66579 39.0078 9.45095 39.3587 9.2934C39.7132 9.13584 40.1017 9.05707 40.5242 9.05707C41.1938 9.05707 41.7184 9.22536 42.098 9.56195C42.4775 9.89496 42.6745 10.3551 42.6888 10.9423V13.6171C42.6888 14.1507 42.7568 14.575 42.8929 14.8901V14.976H41.8509ZM40.202 14.2187C40.5135 14.2187 40.8089 14.1381 41.0882 13.977C41.3675 13.8159 41.5698 13.6064 41.6951 13.3486V12.1562H40.9163C39.6989 12.1562 39.0901 12.5125 39.0901 13.225C39.0901 13.5366 39.194 13.78 39.4017 13.9555C39.6094 14.131 39.8761 14.2187 40.202 14.2187ZM44.3377 14.976V9.16449H46.6043C47.3777 9.16449 47.9704 9.30056 48.3821 9.57269C48.7975 9.84125 49.0052 10.2369 49.0052 10.7597C49.0052 11.0283 48.9246 11.2717 48.7635 11.4902C48.6024 11.705 48.3642 11.8697 48.0491 11.9843C48.4 12.0667 48.6811 12.2278 48.8924 12.4677C49.1072 12.7076 49.2147 12.9941 49.2147 13.3271C49.2147 13.8606 49.0177 14.2688 48.6238 14.5517C48.2335 14.8346 47.6803 14.976 46.9642 14.976H44.3377ZM45.3314 12.4247V14.1757H46.9749C47.3903 14.1757 47.7 14.0987 47.9041 13.9448C48.1118 13.7908 48.2156 13.5742 48.2156 13.2949C48.2156 12.7148 47.7895 12.4247 46.9373 12.4247H45.3314ZM45.3314 11.6298H46.6151C47.546 11.6298 48.0115 11.3577 48.0115 10.8134C48.0115 10.2691 47.5711 9.98806 46.6902 9.97015H45.3314V11.6298ZM54.2903 9.16449H55.284V14.976H54.2903V10.7382L51.6102 14.976H50.6165V9.16449H51.6102V13.4077L54.2903 9.16449ZM61.1976 9.97015H59.2479V14.976H58.2542V9.97015H56.3421V9.16449H61.1976V9.97015ZM63.2493 11.1679H64.7586C65.4175 11.1751 65.9385 11.3469 66.3216 11.6835C66.7047 12.0201 66.8963 12.4767 66.8963 13.0532C66.8963 13.6332 66.6994 14.0987 66.3055 14.4496C65.9116 14.8006 65.3817 14.976 64.7156 14.976H62.2557V9.16449H63.2493V11.1679ZM63.2493 11.9789V14.165H64.7264C65.0988 14.165 65.387 14.0701 65.5911 13.8803C65.7952 13.687 65.8973 13.4238 65.8973 13.0908C65.8973 12.7685 65.797 12.5053 65.5965 12.3012C65.3996 12.0935 65.122 11.9861 64.764 11.9789H63.2493ZM75.6136 14.976H74.6199V12.4946H71.9505V14.976H70.9515V9.16449H71.9505V11.6835H74.6199V9.16449H75.6136V14.976ZM80.8021 14.976C80.7448 14.8614 80.6982 14.6573 80.6624 14.3637C80.2005 14.8435 79.6491 15.0834 79.0081 15.0834C78.4352 15.0834 77.9643 14.9223 77.5955 14.6C77.2303 14.2742 77.0477 13.8624 77.0477 13.3647C77.0477 12.7595 77.2768 12.2905 77.7352 11.9575C78.1971 11.6209 78.8452 11.4526 79.6795 11.4526H80.6463V10.996C80.6463 10.6487 80.5425 10.373 80.3348 10.1689C80.1271 9.9612 79.8209 9.85736 79.4163 9.85736C79.0618 9.85736 78.7646 9.94688 78.5247 10.1259C78.2848 10.305 78.1649 10.5216 78.1649 10.7758H77.1658C77.1658 10.4858 77.2679 10.2065 77.472 9.93793C77.6797 9.66579 77.959 9.45095 78.3099 9.2934C78.6644 9.13584 79.0529 9.05707 79.4754 9.05707C80.145 9.05707 80.6696 9.22536 81.0491 9.56195C81.4287 9.89496 81.6256 10.3551 81.64 10.9423V13.6171C81.64 14.1507 81.708 14.575 81.8441 14.8901V14.976H80.8021ZM79.1531 14.2187C79.4647 14.2187 79.7601 14.1381 80.0394 13.977C80.3187 13.8159 80.521 13.6064 80.6463 13.3486V12.1562H79.8675C78.65 12.1562 78.0413 12.5125 78.0413 13.225C78.0413 13.5366 78.1452 13.78 78.3528 13.9555C78.5605 14.131 78.8273 14.2187 79.1531 14.2187ZM88.2571 14.2724C88.6116 14.2724 88.9214 14.165 89.1863 13.9501C89.4513 13.7353 89.5981 13.4667 89.6268 13.1445H90.5667C90.5488 13.4775 90.4342 13.7944 90.223 14.0952C90.0117 14.3959 89.7288 14.6358 89.3743 14.8149C89.0234 14.9939 88.651 15.0834 88.2571 15.0834C87.4658 15.0834 86.8356 14.8203 86.3665 14.2939C85.901 13.7639 85.6683 13.0406 85.6683 12.124V11.9575C85.6683 11.3917 85.7721 10.8886 85.9798 10.4482C86.1875 10.0078 86.4847 9.66579 86.8714 9.4223C87.2617 9.17881 87.7218 9.05707 88.2518 9.05707C88.9035 9.05707 89.4442 9.25222 89.8738 9.64252C90.3071 10.0328 90.5381 10.5395 90.5667 11.1625H89.6268C89.5981 10.7866 89.4549 10.4786 89.1971 10.2387C88.9429 9.99522 88.6277 9.87347 88.2518 9.87347C87.7469 9.87347 87.3548 10.0561 87.0755 10.4213C86.7998 10.783 86.6619 11.3076 86.6619 11.9951V12.183C86.6619 12.8526 86.7998 13.3683 87.0755 13.7299C87.3512 14.0916 87.7451 14.2724 88.2571 14.2724ZM91.4207 12.0165C91.4207 11.4472 91.5317 10.9352 91.7537 10.4804C91.9793 10.0257 92.2908 9.67474 92.6883 9.42767C93.0893 9.1806 93.5459 9.05707 94.0579 9.05707C94.8493 9.05707 95.4884 9.33099 95.9754 9.87885C96.466 10.4267 96.7112 11.1554 96.7112 12.0649V12.1347C96.7112 12.7005 96.602 13.2089 96.3836 13.6601C96.1688 14.1077 95.859 14.4568 95.4544 14.7075C95.0534 14.9581 94.5915 15.0834 94.0687 15.0834C93.2809 15.0834 92.6417 14.8095 92.1512 14.2617C91.6642 13.7138 91.4207 12.9887 91.4207 12.0864V12.0165ZM92.4197 12.1347C92.4197 12.7792 92.5683 13.2967 92.8655 13.687C93.1663 14.0773 93.5674 14.2724 94.0687 14.2724C94.5735 14.2724 94.9746 14.0755 95.2718 13.6816C95.569 13.2841 95.7176 12.7291 95.7176 12.0165C95.7176 11.3792 95.5654 10.8635 95.261 10.4697C94.9603 10.0722 94.5592 9.87347 94.0579 9.87347C93.5674 9.87347 93.1717 10.0686 92.8709 10.4589C92.5701 10.8492 92.4197 11.4078 92.4197 12.1347ZM101.712 9.98627H99.0316V14.976H98.0325V9.16449H101.712V9.98627ZM107.126 9.16449V14.976H106.127V9.98627H104.15L104.032 12.1616C103.968 13.1606 103.799 13.8749 103.527 14.3046C103.259 14.7343 102.831 14.9581 102.243 14.976H101.846V14.1005L102.131 14.079C102.453 14.0432 102.684 13.857 102.824 13.5204C102.963 13.1839 103.053 12.5608 103.092 11.6513L103.2 9.16449H107.126ZM112.309 14.976C112.252 14.8614 112.205 14.6573 112.169 14.3637C111.707 14.8435 111.156 15.0834 110.515 15.0834C109.942 15.0834 109.471 14.9223 109.102 14.6C108.737 14.2742 108.555 13.8624 108.555 13.3647C108.555 12.7595 108.784 12.2905 109.242 11.9575C109.704 11.6209 110.352 11.4526 111.186 11.4526H112.153V10.996C112.153 10.6487 112.049 10.373 111.842 10.1689C111.634 9.9612 111.328 9.85736 110.923 9.85736C110.569 9.85736 110.271 9.94688 110.032 10.1259C109.792 10.305 109.672 10.5216 109.672 10.7758H108.673C108.673 10.4858 108.775 10.2065 108.979 9.93793C109.187 9.66579 109.466 9.45095 109.817 9.2934C110.171 9.13584 110.56 9.05707 110.982 9.05707C111.652 9.05707 112.176 9.22536 112.556 9.56195C112.936 9.89496 113.132 10.3551 113.147 10.9423V13.6171C113.147 14.1507 113.215 14.575 113.351 14.8901V14.976H112.309ZM110.66 14.2187C110.971 14.2187 111.267 14.1381 111.546 13.977C111.826 13.8159 112.028 13.6064 112.153 13.3486V12.1562H111.374C110.157 12.1562 109.548 12.5125 109.548 13.225C109.548 13.5366 109.652 13.78 109.86 13.9555C110.067 14.131 110.334 14.2187 110.66 14.2187ZM117.035 14.2724C117.39 14.2724 117.7 14.165 117.965 13.9501C118.23 13.7353 118.376 13.4667 118.405 13.1445H119.345C119.327 13.4775 119.213 13.7944 119.001 14.0952C118.79 14.3959 118.507 14.6358 118.153 14.8149C117.802 14.9939 117.429 15.0834 117.035 15.0834C116.244 15.0834 115.614 14.8203 115.145 14.2939C114.679 13.7639 114.447 13.0406 114.447 12.124V11.9575C114.447 11.3917 114.55 10.8886 114.758 10.4482C114.966 10.0078 115.263 9.66579 115.65 9.4223C116.04 9.17881 116.5 9.05707 117.03 9.05707C117.682 9.05707 118.222 9.25222 118.652 9.64252C119.085 10.0328 119.316 10.5395 119.345 11.1625H118.405C118.376 10.7866 118.233 10.4786 117.975 10.2387C117.721 9.99522 117.406 9.87347 117.03 9.87347C116.525 9.87347 116.133 10.0561 115.854 10.4213C115.578 10.783 115.44 11.3076 115.44 11.9951V12.183C115.44 12.8526 115.578 13.3683 115.854 13.7299C116.13 14.0916 116.523 14.2724 117.035 14.2724ZM120.199 12.0165C120.199 11.4472 120.31 10.9352 120.532 10.4804C120.758 10.0257 121.069 9.67474 121.467 9.42767C121.868 9.1806 122.324 9.05707 122.836 9.05707C123.628 9.05707 124.267 9.33099 124.754 9.87885C125.244 10.4267 125.49 11.1554 125.49 12.0649V12.1347C125.49 12.7005 125.38 13.2089 125.162 13.6601C124.947 14.1077 124.637 14.4568 124.233 14.7075C123.832 14.9581 123.37 15.0834 122.847 15.0834C122.059 15.0834 121.42 14.8095 120.93 14.2617C120.443 13.7138 120.199 12.9887 120.199 12.0864V12.0165ZM121.198 12.1347C121.198 12.7792 121.347 13.2967 121.644 13.687C121.945 14.0773 122.346 14.2724 122.847 14.2724C123.352 14.2724 123.753 14.0755 124.05 13.6816C124.347 13.2841 124.496 12.7291 124.496 12.0165C124.496 11.3792 124.344 10.8635 124.039 10.4697C123.739 10.0722 123.338 9.87347 122.836 9.87347C122.346 9.87347 121.95 10.0686 121.649 10.4589C121.348 10.8492 121.198 11.4078 121.198 12.1347ZM126.827 14.976V9.16449H129.094C129.867 9.16449 130.46 9.30056 130.871 9.57269C131.287 9.84125 131.494 10.2369 131.494 10.7597C131.494 11.0283 131.414 11.2717 131.253 11.4902C131.092 11.705 130.853 11.8697 130.538 11.9843C130.889 12.0667 131.17 12.2278 131.382 12.4677C131.596 12.7076 131.704 12.9941 131.704 13.3271C131.704 13.8606 131.507 14.2688 131.113 14.5517C130.723 14.8346 130.17 14.976 129.453 14.976H126.827ZM127.821 12.4247V14.1757H129.464C129.88 14.1757 130.189 14.0987 130.393 13.9448C130.601 13.7908 130.705 13.5742 130.705 13.2949C130.705 12.7148 130.279 12.4247 129.427 12.4247H127.821ZM127.821 11.6298H129.104C130.035 11.6298 130.501 11.3577 130.501 10.8134C130.501 10.2691 130.06 9.98806 129.18 9.97015H127.821V11.6298ZM136.608 14.976C136.55 14.8614 136.504 14.6573 136.468 14.3637C136.006 14.8435 135.455 15.0834 134.814 15.0834C134.241 15.0834 133.77 14.9223 133.401 14.6C133.036 14.2742 132.853 13.8624 132.853 13.3647C132.853 12.7595 133.082 12.2905 133.541 11.9575C134.003 11.6209 134.651 11.4526 135.485 11.4526H136.452V10.996C136.452 10.6487 136.348 10.373 136.14 10.1689C135.933 9.9612 135.627 9.85736 135.222 9.85736C134.867 9.85736 134.57 9.94688 134.33 10.1259C134.09 10.305 133.971 10.5216 133.971 10.7758H132.971C132.971 10.4858 133.074 10.2065 133.278 9.93793C133.485 9.66579 133.765 9.45095 134.116 9.2934C134.47 9.13584 134.859 9.05707 135.281 9.05707C135.951 9.05707 136.475 9.22536 136.855 9.56195C137.234 9.89496 137.431 10.3551 137.446 10.9423V13.6171C137.446 14.1507 137.514 14.575 137.65 14.8901V14.976H136.608ZM134.959 14.2187C135.27 14.2187 135.566 14.1381 135.845 13.977C136.124 13.8159 136.327 13.6064 136.452 13.3486V12.1562H135.673C134.456 12.1562 133.847 12.5125 133.847 13.225C133.847 13.5366 133.951 13.78 134.159 13.9555C134.366 14.131 134.633 14.2187 134.959 14.2187ZM143.751 14.976H142.758V12.4946H140.088V14.976H139.089V9.16449H140.088V11.6835H142.758V9.16449H143.751V14.976ZM149.112 9.16449H150.105V14.976H149.112V10.7382L146.431 14.976H145.438V9.16449H146.431V13.4077L149.112 9.16449ZM154.112 15.0834C153.324 15.0834 152.683 14.8256 152.189 14.31C151.695 13.7908 151.448 13.0979 151.448 12.2314V12.0488C151.448 11.4723 151.557 10.9584 151.776 10.5073C151.998 10.0525 152.306 9.69802 152.7 9.44379C153.097 9.18597 153.527 9.05707 153.989 9.05707C154.744 9.05707 155.331 9.30593 155.75 9.80365C156.169 10.3014 156.379 11.0139 156.379 11.9413V12.3549H152.442C152.456 12.9278 152.623 13.3915 152.941 13.746C153.263 14.0969 153.672 14.2724 154.166 14.2724C154.517 14.2724 154.814 14.2008 155.057 14.0576C155.301 13.9143 155.514 13.7245 155.697 13.4882L156.304 13.9609C155.817 14.7092 155.086 15.0834 154.112 15.0834ZM153.989 9.87347C153.588 9.87347 153.251 10.0203 152.979 10.3139C152.707 10.6039 152.538 11.0121 152.474 11.5385H155.385V11.4633C155.356 10.9584 155.22 10.5681 154.977 10.2924C154.733 10.0131 154.404 9.87347 153.989 9.87347Z" fill="#555555"/>
</svg>
