<svg width="44" height="23" viewBox="0 0 44 23" fill="none" xmlns="http://www.w3.org/2000/svg">
<rect x="0.710083" y="1.43494" width="42" height="21" rx="1.5" fill="#F8F8F8" stroke="#DADADA"/>
<path fill-rule="evenodd" clip-rule="evenodd" d="M26.9111 8.7699L24.8752 6.73402C24.4847 6.3435 23.8515 6.3435 23.461 6.73402L22.5173 7.67768L25.9802 11.115L26.9111 10.1841C27.3016 9.79359 27.3016 9.16043 26.9111 8.7699ZM16.7067 14.9026L16.7067 15.8578H17.7874V16.9385H18.7426L18.7578 16.9232V14.8874H16.7219L16.7067 14.9026ZM17.9794 13.6299L18.4494 14.1L22.5016 10.0477L22.0299 9.57944L17.9794 13.6299ZM15.7067 14.4884V15.8578V17.9385H17.7874L19.1568 17.9385L24.7831 12.3123L25.4902 11.6052L24.7805 10.9007L22.0273 8.16784L15.7067 14.4884Z" fill="#555555"/>
</svg>
