<svg width="170" height="22" viewBox="0 0 170 22" fill="none" xmlns="http://www.w3.org/2000/svg">
<rect x="0.857117" y="0.5" width="168.583" height="21" rx="1.5" fill="#FBE4E5" stroke="#E6B3B5"/>
<path d="M33.2852 14.375V6.55469H35.8418C36.6904 6.55469 37.3278 6.73014 37.7539 7.08105C38.1836 7.43197 38.3984 7.95117 38.3984 8.63867C38.3984 9.00391 38.2946 9.32796 38.0869 9.61084C37.8792 9.89014 37.5964 10.1068 37.2383 10.2607C37.6608 10.3789 37.9938 10.6045 38.2373 10.9375C38.4844 11.2669 38.6079 11.6608 38.6079 12.1191C38.6079 12.821 38.3805 13.3724 37.9258 13.7734C37.471 14.1745 36.8283 14.375 35.9976 14.375H33.2852ZM34.3164 10.7173V13.5317H36.019C36.4989 13.5317 36.8766 13.4082 37.1523 13.1611C37.4316 12.9105 37.5713 12.5667 37.5713 12.1299C37.5713 11.1882 37.0592 10.7173 36.0352 10.7173H34.3164ZM34.3164 9.89014H35.874C36.3252 9.89014 36.6851 9.77734 36.9536 9.55176C37.2257 9.32617 37.3618 9.02002 37.3618 8.6333C37.3618 8.20361 37.2365 7.89209 36.9858 7.69873C36.7352 7.50179 36.3538 7.40332 35.8418 7.40332H34.3164V9.89014ZM42.3945 14.4824C41.6068 14.4824 40.9658 14.2246 40.4717 13.709C39.9775 13.1898 39.7305 12.4969 39.7305 11.6304V11.4478C39.7305 10.8713 39.8397 10.3574 40.0581 9.90625C40.2801 9.4515 40.5881 9.09701 40.9819 8.84277C41.3794 8.58496 41.8091 8.45605 42.271 8.45605C43.0265 8.45605 43.6138 8.70492 44.0327 9.20264C44.4517 9.70036 44.6611 10.4129 44.6611 11.3403V11.7539H40.7241C40.7384 12.3268 40.9049 12.7905 41.2236 13.145C41.5459 13.4959 41.9541 13.6714 42.4482 13.6714C42.7992 13.6714 43.0964 13.5998 43.3398 13.4565C43.5833 13.3133 43.7964 13.1235 43.979 12.8872L44.5859 13.3599C44.099 14.1082 43.3685 14.4824 42.3945 14.4824ZM42.271 9.27246C41.87 9.27246 41.5334 9.41927 41.2612 9.71289C40.9891 10.0029 40.8208 10.4111 40.7563 10.9375H43.6675V10.8623C43.6388 10.3574 43.5028 9.96712 43.2593 9.69141C43.0158 9.41211 42.6864 9.27246 42.271 9.27246ZM50.7251 11.5337C50.7251 12.4181 50.5228 13.1307 50.1182 13.6714C49.7135 14.2121 49.1657 14.4824 48.4746 14.4824C47.7692 14.4824 47.2142 14.2586 46.8096 13.811V16.6094H45.8159V8.56348H46.7236L46.772 9.20801C47.1766 8.70671 47.7388 8.45605 48.4585 8.45605C49.1567 8.45605 49.7082 8.71924 50.1128 9.24561C50.521 9.77197 50.7251 10.5042 50.7251 11.4424V11.5337ZM49.7314 11.4209C49.7314 10.7656 49.5918 10.2482 49.3125 9.86865C49.0332 9.4891 48.6501 9.29932 48.1631 9.29932C47.5615 9.29932 47.1104 9.56608 46.8096 10.0996V12.8765C47.1068 13.4064 47.5615 13.6714 48.1738 13.6714C48.6501 13.6714 49.0278 13.4834 49.3071 13.1074C49.59 12.7279 49.7314 12.1657 49.7314 11.4209ZM56.7407 14.375H55.7471V11.8936H53.0776V14.375H52.0786V8.56348H53.0776V11.0825H55.7471V8.56348H56.7407V14.375ZM60.2427 12.9194L61.5962 8.56348H62.6597L60.3232 15.272C59.9616 16.2388 59.3869 16.7222 58.5991 16.7222L58.4111 16.7061L58.0405 16.6362V15.8306L58.3091 15.8521C58.6457 15.8521 58.9071 15.784 59.0933 15.6479C59.283 15.5119 59.4388 15.263 59.5605 14.9014L59.7808 14.3105L57.7075 8.56348H58.7925L60.2427 12.9194ZM67.8696 9.36914H65.9199V14.375H64.9263V9.36914H63.0142V8.56348H67.8696V9.36914ZM69.9214 10.5669H71.4307C72.0895 10.5741 72.6105 10.7459 72.9937 11.0825C73.3768 11.4191 73.5684 11.8757 73.5684 12.4521C73.5684 13.0322 73.3714 13.4977 72.9775 13.8486C72.5837 14.1995 72.0537 14.375 71.3877 14.375H68.9277V8.56348H69.9214V10.5669ZM69.9214 11.3779V13.564H71.3984C71.7708 13.564 72.0591 13.4691 72.2632 13.2793C72.4673 13.0859 72.5693 12.8228 72.5693 12.4897C72.5693 12.1675 72.4691 11.9043 72.2686 11.7002C72.0716 11.4925 71.7941 11.3851 71.436 11.3779H69.9214ZM81.2974 8.56348H82.291V14.375H81.2974V10.1372L78.6172 14.375H77.6235V8.56348H78.6172V12.8066L81.2974 8.56348ZM88.6343 14.375H87.6406V11.8936H84.9712V14.375H83.9722V8.56348H84.9712V11.0825H87.6406V8.56348H88.6343V14.375ZM93.9946 8.56348H94.9883V14.375H93.9946V10.1372L91.3145 14.375H90.3208V8.56348H91.3145V12.8066L93.9946 8.56348ZM96.6694 8.56348H97.6685V13.564H100.343V8.56348H101.337V13.564H102.03L101.933 16.0991H101.042V14.375H96.6694V8.56348ZM106.864 8.56348H107.857V14.375H106.864V10.1372L104.184 14.375H103.19V8.56348H104.184V12.8066L106.864 8.56348ZM113.041 14.375C112.983 14.2604 112.937 14.0563 112.901 13.7627C112.439 14.2425 111.888 14.4824 111.247 14.4824C110.674 14.4824 110.203 14.3213 109.834 13.999C109.469 13.6732 109.286 13.2614 109.286 12.7637C109.286 12.1585 109.515 11.6895 109.974 11.3564C110.436 11.0199 111.084 10.8516 111.918 10.8516H112.885V10.395C112.885 10.0477 112.781 9.77197 112.573 9.56787C112.366 9.36019 112.059 9.25635 111.655 9.25635C111.3 9.25635 111.003 9.34587 110.763 9.5249C110.523 9.70394 110.403 9.92057 110.403 10.1748H109.404C109.404 9.88477 109.506 9.60547 109.71 9.33691C109.918 9.06478 110.197 8.84993 110.548 8.69238C110.903 8.53483 111.291 8.45605 111.714 8.45605C112.383 8.45605 112.908 8.62435 113.288 8.96094C113.667 9.29395 113.864 9.75407 113.878 10.3413V13.0161C113.878 13.5496 113.946 13.974 114.083 14.2891V14.375H113.041ZM111.392 13.6177C111.703 13.6177 111.999 13.5371 112.278 13.376C112.557 13.2148 112.759 13.0054 112.885 12.7476V11.5552H112.106C110.889 11.5552 110.28 11.9115 110.28 12.624C110.28 12.9355 110.384 13.179 110.591 13.3545C110.799 13.5299 111.066 13.6177 111.392 13.6177ZM119.668 9.36914H117.719V14.375H116.725V9.36914H114.813V8.56348H119.668V9.36914ZM120.146 11.4155C120.146 10.8462 120.257 10.3341 120.479 9.87939C120.705 9.42464 121.017 9.07373 121.414 8.82666C121.815 8.57959 122.272 8.45605 122.784 8.45605C123.575 8.45605 124.214 8.72998 124.701 9.27783C125.192 9.82568 125.437 10.5544 125.437 11.4639V11.5337C125.437 12.0994 125.328 12.6079 125.109 13.0591C124.895 13.5067 124.585 13.8558 124.18 14.1064C123.779 14.3571 123.317 14.4824 122.794 14.4824C122.007 14.4824 121.368 14.2085 120.877 13.6606C120.39 13.1128 120.146 12.3877 120.146 11.4854V11.4155ZM121.146 11.5337C121.146 12.1782 121.294 12.6956 121.591 13.0859C121.892 13.4762 122.293 13.6714 122.794 13.6714C123.299 13.6714 123.7 13.4744 123.998 13.0806C124.295 12.6831 124.443 12.1281 124.443 11.4155C124.443 10.7782 124.291 10.2625 123.987 9.86865C123.686 9.47119 123.285 9.27246 122.784 9.27246C122.293 9.27246 121.897 9.46761 121.597 9.85791C121.296 10.2482 121.146 10.8068 121.146 11.5337ZM131.592 11.5337C131.592 12.4181 131.39 13.1307 130.985 13.6714C130.581 14.2121 130.033 14.4824 129.342 14.4824C128.636 14.4824 128.081 14.2586 127.677 13.811V16.6094H126.683V8.56348H127.591L127.639 9.20801C128.044 8.70671 128.606 8.45605 129.326 8.45605C130.024 8.45605 130.575 8.71924 130.98 9.24561C131.388 9.77197 131.592 10.5042 131.592 11.4424V11.5337ZM130.599 11.4209C130.599 10.7656 130.459 10.2482 130.18 9.86865C129.9 9.4891 129.517 9.29932 129.03 9.29932C128.429 9.29932 127.978 9.56608 127.677 10.0996V12.8765C127.974 13.4064 128.429 13.6714 129.041 13.6714C129.517 13.6714 129.895 13.4834 130.174 13.1074C130.457 12.7279 130.599 12.1657 130.599 11.4209ZM134.697 12.9194L136.05 8.56348H137.114L134.777 15.272C134.416 16.2388 133.841 16.7222 133.053 16.7222L132.865 16.7061L132.495 16.6362V15.8306L132.763 15.8521C133.1 15.8521 133.361 15.784 133.547 15.6479C133.737 15.5119 133.893 15.263 134.015 14.9014L134.235 14.3105L132.162 8.56348H133.247L134.697 12.9194Z" fill="#555555"/>
</svg>
