<svg width="23" height="23" viewBox="0 0 23 23" fill="none" xmlns="http://www.w3.org/2000/svg">
<path d="M0.710083 1.43494H20.2101C21.0385 1.43494 21.7101 2.10651 21.7101 2.93494V20.9349C21.7101 21.7634 21.0385 22.4349 20.2101 22.4349H0.710083V1.43494Z" fill="white" stroke="#D8D8D8"/>
<path fill-rule="evenodd" clip-rule="evenodd" d="M9.68852 7.51054C8.93606 7.91113 8.36012 8.59957 8.10765 9.42894C8.05632 9.43348 8.00435 9.4358 7.95184 9.4358C6.98767 9.4358 6.20606 8.65419 6.20606 7.69002C6.20606 6.72584 6.98767 5.94423 7.95184 5.94423C8.85542 5.94423 9.59866 6.63069 9.68852 7.51054ZM14.3125 9.42894C14.06 8.59957 13.4841 7.91113 12.7316 7.51054C12.8215 6.63069 13.5647 5.94423 14.4683 5.94423C15.4325 5.94423 16.2141 6.72584 16.2141 7.69002C16.2141 8.65419 15.4325 9.4358 14.4683 9.4358C14.4158 9.4358 14.3638 9.43348 14.3125 9.42894ZM7.98735 10.0146C7.97554 10.0147 7.9637 10.0148 7.95184 10.0148C7.31241 10.0148 6.73327 9.75668 6.31296 9.33891C5.3676 9.52877 4.61231 10.2849 4.44858 11.2673C4.28854 12.2275 5.02904 13.1017 6.00254 13.1017H6.19241C6.7189 12.4472 7.44484 11.9666 8.27034 11.7445C8.07609 11.3284 7.96759 10.8641 7.96759 10.3746C7.96759 10.2529 7.9743 10.1328 7.98735 10.0146ZM13.3221 11.6022C13.3183 11.602 13.3144 11.6018 13.3106 11.6016C12.8847 12.3173 12.1034 12.7968 11.2101 12.7968C10.3212 12.7968 9.54318 12.322 9.11591 11.6121C9.11201 11.6123 9.10811 11.6125 9.10421 11.6127C8.8903 11.2497 8.76759 10.8264 8.76759 10.3746C8.76759 9.02563 9.86113 7.9321 11.2101 7.9321C12.559 7.9321 13.6526 9.02563 13.6526 10.3746C13.6526 10.8221 13.5322 11.2415 13.3221 11.6022ZM14.1543 11.7349C14.3457 11.3212 14.4526 10.8604 14.4526 10.3746C14.4526 10.2529 14.4459 10.1328 14.4328 10.0146C14.4446 10.0147 14.4565 10.0148 14.4683 10.0148C15.1077 10.0148 15.6869 9.75668 16.1072 9.33891C17.0525 9.52877 17.8078 10.2849 17.9716 11.2673C18.1316 12.2275 17.3911 13.1017 16.4176 13.1017H16.2365C15.7102 12.4429 14.9825 11.9587 14.1543 11.7349ZM8.87828 12.6277C9.46787 13.2377 10.2947 13.6171 11.2101 13.6171C12.1255 13.6171 12.9523 13.2377 13.5419 12.6277C14.8161 12.8123 15.8517 13.8014 16.0688 15.1034L16.151 15.5969C16.3542 16.8159 15.4141 17.9257 14.1782 17.9257H8.24194C7.00606 17.9257 6.06598 16.8159 6.26915 15.5969L6.3514 15.1034C6.5684 13.8014 7.60407 12.8123 8.87828 12.6277Z" fill="#A3A3A3"/>
</svg>
