<svg width="171" height="23" viewBox="0 0 171 23" fill="none" xmlns="http://www.w3.org/2000/svg">
<rect x="1.08484" y="1.10101" width="168.583" height="21" rx="1.5" fill="#ECF5DD" stroke="#C5D2B1"/>
<path d="M33.9265 14.976H32.8898V11.3613H28.9474V14.976H27.9162V7.1557H28.9474V10.518H32.8898V7.1557H33.9265V14.976ZM39.1901 14.976C39.1328 14.8614 39.0863 14.6573 39.0505 14.3637C38.5886 14.8435 38.0371 15.0834 37.3962 15.0834C36.8233 15.0834 36.3524 14.9223 35.9836 14.6C35.6183 14.2742 35.4357 13.8624 35.4357 13.3647C35.4357 12.7595 35.6649 12.2905 36.1232 11.9575C36.5851 11.6209 37.2333 11.4526 38.0676 11.4526H39.0344V10.996C39.0344 10.6487 38.9305 10.373 38.7228 10.1689C38.5152 9.9612 38.209 9.85736 37.8044 9.85736C37.4499 9.85736 37.1527 9.94688 36.9128 10.1259C36.6729 10.305 36.5529 10.5216 36.5529 10.7758H35.5539C35.5539 10.4858 35.6559 10.2065 35.86 9.93793C36.0677 9.66579 36.347 9.45095 36.6979 9.2934C37.0524 9.13584 37.4409 9.05707 37.8635 9.05707C38.5331 9.05707 39.0576 9.22536 39.4372 9.56195C39.8168 9.89496 40.0137 10.3551 40.028 10.9423V13.6171C40.028 14.1507 40.096 14.575 40.2321 14.8901V14.976H39.1901ZM37.5412 14.2187C37.8527 14.2187 38.1481 14.1381 38.4274 13.977C38.7067 13.8159 38.909 13.6064 39.0344 13.3486V12.1562H38.2556C37.0381 12.1562 36.4294 12.5125 36.4294 13.225C36.4294 13.5366 36.5332 13.78 36.7409 13.9555C36.9486 14.131 37.2154 14.2187 37.5412 14.2187ZM46.3498 9.16449V14.976H45.3508V9.98627H43.3742L43.256 12.1616C43.1916 13.1606 43.0233 13.8749 42.7512 14.3046C42.4826 14.7343 42.0547 14.9581 41.4675 14.976H41.07V14.1005L41.3547 14.079C41.6769 14.0432 41.9079 13.857 42.0475 13.5204C42.1872 13.1839 42.2767 12.5608 42.3161 11.6513L42.4235 9.16449H46.3498ZM47.6818 12.0165C47.6818 11.4472 47.7928 10.9352 48.0148 10.4804C48.2404 10.0257 48.5519 9.67474 48.9494 9.42767C49.3504 9.1806 49.807 9.05707 50.319 9.05707C51.1104 9.05707 51.7495 9.33099 52.2365 9.87885C52.7271 10.4267 52.9724 11.1554 52.9724 12.0649V12.1347C52.9724 12.7005 52.8631 13.2089 52.6447 13.6601C52.4299 14.1077 52.1201 14.4568 51.7155 14.7075C51.3145 14.9581 50.8526 15.0834 50.3298 15.0834C49.542 15.0834 48.9029 14.8095 48.4123 14.2617C47.9253 13.7138 47.6818 12.9887 47.6818 12.0864V12.0165ZM48.6808 12.1347C48.6808 12.7792 48.8294 13.2967 49.1266 13.687C49.4274 14.0773 49.8285 14.2724 50.3298 14.2724C50.8347 14.2724 51.2357 14.0755 51.5329 13.6816C51.8301 13.2841 51.9787 12.7291 51.9787 12.0165C51.9787 11.3792 51.8265 10.8635 51.5222 10.4697C51.2214 10.0722 50.8203 9.87347 50.319 9.87347C49.8285 9.87347 49.4328 10.0686 49.132 10.4589C48.8312 10.8492 48.6808 11.4078 48.6808 12.1347ZM58.7355 12.4516H58.0373V14.976H57.0436V12.4516H56.3454L54.718 14.976H53.4611L55.5397 11.9682L53.6599 9.16449H54.863L56.3615 11.5707H57.0436V9.16449H58.0373V11.5707H58.7141L60.2233 9.16449H61.4265L59.5412 11.9736L61.6198 14.976H60.363L58.7355 12.4516ZM66.2819 9.16449H67.2756V14.976H66.2819V10.7382L63.6017 14.976H62.6081V9.16449H63.6017V13.4077L66.2819 9.16449ZM73.1891 9.97015H71.2394V14.976H70.2458V9.97015H68.3337V9.16449H73.1891V9.97015ZM75.2409 11.1679H76.7502C77.409 11.1751 77.93 11.3469 78.3132 11.6835C78.6963 12.0201 78.8879 12.4767 78.8879 13.0532C78.8879 13.6332 78.6909 14.0987 78.2971 14.4496C77.9032 14.8006 77.3732 14.976 76.7072 14.976H74.2473V9.16449H75.2409V11.1679ZM75.2409 11.9789V14.165H76.718C77.0904 14.165 77.3786 14.0701 77.5827 13.8803C77.7868 13.687 77.8889 13.4238 77.8889 13.0908C77.8889 12.7685 77.7886 12.5053 77.5881 12.3012C77.3911 12.0935 77.1136 11.9861 76.7556 11.9789H75.2409ZM87.7663 12.1347C87.7663 13.0191 87.564 13.7317 87.1594 14.2724C86.7547 14.8131 86.2069 15.0834 85.5158 15.0834C84.8104 15.0834 84.2554 14.8596 83.8508 14.412V17.2104H82.8571V9.16449H83.7648L83.8132 9.80902C84.2178 9.30772 84.78 9.05707 85.4997 9.05707C86.1979 9.05707 86.7494 9.32025 87.154 9.84662C87.5622 10.373 87.7663 11.1052 87.7663 12.0434V12.1347ZM86.7726 12.0219C86.7726 11.3666 86.633 10.8492 86.3537 10.4697C86.0744 10.0901 85.6913 9.90033 85.2043 9.90033C84.6027 9.90033 84.1516 10.1671 83.8508 10.7006V13.4775C84.148 14.0074 84.6027 14.2724 85.215 14.2724C85.6913 14.2724 86.069 14.0844 86.3483 13.7084C86.6312 13.3289 86.7726 12.7667 86.7726 12.0219ZM91.4455 15.0834C90.6577 15.0834 90.0168 14.8256 89.5226 14.31C89.0285 13.7908 88.7814 13.0979 88.7814 12.2314V12.0488C88.7814 11.4723 88.8906 10.9584 89.1091 10.5073C89.3311 10.0525 89.639 9.69802 90.0329 9.44379C90.4304 9.18597 90.86 9.05707 91.322 9.05707C92.0775 9.05707 92.6647 9.30593 93.0837 9.80365C93.5026 10.3014 93.7121 11.0139 93.7121 11.9413V12.3549H89.7751C89.7894 12.9278 89.9559 13.3915 90.2746 13.746C90.5969 14.0969 91.0051 14.2724 91.4992 14.2724C91.8501 14.2724 92.1473 14.2008 92.3908 14.0576C92.6343 13.9143 92.8474 13.7245 93.03 13.4882L93.6369 13.9609C93.1499 14.7092 92.4195 15.0834 91.4455 15.0834ZM91.322 9.87347C90.9209 9.87347 90.5843 10.0203 90.3122 10.3139C90.0401 10.6039 89.8718 11.0121 89.8073 11.5385H92.7184V11.4633C92.6898 10.9584 92.5537 10.5681 92.3102 10.2924C92.0668 10.0131 91.7373 9.87347 91.322 9.87347ZM98.0627 10.7543C98.0627 10.4822 97.9588 10.2674 97.7512 10.1098C97.5435 9.94867 97.2588 9.8681 96.8972 9.8681C96.5462 9.8681 96.2526 9.95941 96.0163 10.142C95.7835 10.3246 95.6672 10.5395 95.6672 10.7866H94.6789C94.6789 10.2817 94.8902 9.8681 95.3127 9.54584C95.7352 9.22357 96.2634 9.06244 96.8972 9.06244C97.5775 9.06244 98.1074 9.20925 98.487 9.50287C98.8666 9.79291 99.0563 10.2083 99.0563 10.749C99.0563 11.0104 98.9776 11.2503 98.82 11.4687C98.6625 11.6871 98.4387 11.8608 98.1486 11.9897C98.8254 12.2189 99.1638 12.67 99.1638 13.3432C99.1638 13.8767 98.9579 14.2993 98.5461 14.6108C98.1343 14.9223 97.5847 15.0781 96.8972 15.0781C96.2276 15.0781 95.6743 14.9151 95.2375 14.5893C94.8042 14.2599 94.5876 13.8159 94.5876 13.2573H95.5759C95.5759 13.5401 95.7012 13.7836 95.9518 13.9877C96.2061 14.1883 96.5212 14.2885 96.8972 14.2885C97.2767 14.2885 97.5829 14.2008 97.8156 14.0253C98.0484 13.8499 98.1647 13.6225 98.1647 13.3432C98.1647 13.0174 98.0663 12.7846 97.8693 12.645C97.676 12.5017 97.3734 12.4301 96.9616 12.4301H95.968V11.5922H97.0475C97.7243 11.5743 98.0627 11.295 98.0627 10.7543ZM100.19 12.0165C100.19 11.4472 100.301 10.9352 100.523 10.4804C100.748 10.0257 101.06 9.67474 101.457 9.42767C101.858 9.1806 102.315 9.05707 102.827 9.05707C103.618 9.05707 104.257 9.33099 104.744 9.87885C105.235 10.4267 105.48 11.1554 105.48 12.0649V12.1347C105.48 12.7005 105.371 13.2089 105.153 13.6601C104.938 14.1077 104.628 14.4568 104.223 14.7075C103.822 14.9581 103.36 15.0834 102.838 15.0834C102.05 15.0834 101.411 14.8095 100.92 14.2617C100.433 13.7138 100.19 12.9887 100.19 12.0864V12.0165ZM101.189 12.1347C101.189 12.7792 101.337 13.2967 101.634 13.687C101.935 14.0773 102.336 14.2724 102.838 14.2724C103.342 14.2724 103.744 14.0755 104.041 13.6816C104.338 13.2841 104.487 12.7291 104.487 12.0165C104.487 11.3792 104.334 10.8635 104.03 10.4697C103.729 10.0722 103.328 9.87347 102.827 9.87347C102.336 9.87347 101.941 10.0686 101.64 10.4589C101.339 10.8492 101.189 11.4078 101.189 12.1347ZM111.404 9.16449V14.976H110.405V9.98627H108.429L108.311 12.1616C108.246 13.1606 108.078 13.8749 107.806 14.3046C107.537 14.7343 107.109 14.9581 106.522 14.976H106.125V14.1005L106.409 14.079C106.732 14.0432 106.963 13.857 107.102 13.5204C107.242 13.1839 107.331 12.5608 107.371 11.6513L107.478 9.16449H111.404ZM114.085 11.6298H115.481C115.556 10.8564 115.83 10.2351 116.303 9.76605C116.779 9.2934 117.379 9.05707 118.102 9.05707C118.861 9.05707 119.483 9.31309 119.966 9.82513C120.449 10.3372 120.711 11.0032 120.75 11.8232L120.756 12.1347C120.756 12.7005 120.645 13.2107 120.423 13.6655C120.201 14.1202 119.889 14.4711 119.488 14.7182C119.087 14.9617 118.629 15.0834 118.113 15.0834C117.365 15.0834 116.752 14.8399 116.276 14.353C115.8 13.8624 115.533 13.2268 115.476 12.4462H114.085V14.976H113.091V9.16449H114.085V11.6298ZM116.459 12.1347C116.459 12.7792 116.607 13.2967 116.904 13.687C117.205 14.0773 117.608 14.2724 118.113 14.2724C118.618 14.2724 119.017 14.0737 119.311 13.6762C119.608 13.2787 119.757 12.7255 119.757 12.0165C119.757 11.3828 119.606 10.8671 119.305 10.4697C119.005 10.0722 118.604 9.87347 118.102 9.87347C117.608 9.87347 117.211 10.0686 116.91 10.4589C116.609 10.8492 116.459 11.4078 116.459 12.1347ZM122.066 9.16449H123.065V14.165H125.74V9.16449H126.734V14.165H127.426L127.33 16.7001H126.438V14.976H122.066V9.16449ZM132.26 9.16449H133.254V14.976H132.26V10.7382L129.58 14.976H128.587V9.16449H129.58V13.4077L132.26 9.16449ZM135.934 11.6298H137.331C137.406 10.8564 137.68 10.2351 138.153 9.76605C138.629 9.2934 139.229 9.05707 139.952 9.05707C140.711 9.05707 141.332 9.31309 141.816 9.82513C142.299 10.3372 142.56 11.0032 142.6 11.8232L142.605 12.1347C142.605 12.7005 142.494 13.2107 142.272 13.6655C142.05 14.1202 141.739 14.4711 141.338 14.7182C140.937 14.9617 140.478 15.0834 139.963 15.0834C139.214 15.0834 138.602 14.8399 138.126 14.353C137.649 13.8624 137.383 13.2268 137.325 12.4462H135.934V14.976H134.941V9.16449H135.934V11.6298ZM138.308 12.1347C138.308 12.7792 138.457 13.2967 138.754 13.687C139.055 14.0773 139.458 14.2724 139.963 14.2724C140.467 14.2724 140.867 14.0737 141.16 13.6762C141.458 13.2787 141.606 12.7255 141.606 12.0165C141.606 11.3828 141.456 10.8671 141.155 10.4697C140.854 10.0722 140.453 9.87347 139.952 9.87347C139.458 9.87347 139.06 10.0686 138.759 10.4589C138.459 10.8492 138.308 11.4078 138.308 12.1347Z" fill="#555555"/>
</svg>
