<svg width="170" height="23" viewBox="0 0 170 23" fill="none" xmlns="http://www.w3.org/2000/svg">
<rect x="0.501404" y="0.826416" width="168.583" height="21" rx="1.5" fill="#F8F8F8" stroke="#DADADA"/>
<path d="M59.2585 6.8811H60.2898V14.7014H59.2585V8.67505L55.4075 14.7014H54.3708V6.8811H55.4075V12.9075L59.2585 6.8811ZM65.2097 10.4797C65.2097 10.2076 65.1059 9.99276 64.8982 9.83521C64.6905 9.67407 64.4058 9.59351 64.0442 9.59351C63.6933 9.59351 63.3997 9.68481 63.1633 9.86743C62.9306 10.05 62.8142 10.2649 62.8142 10.512H61.8259C61.8259 10.0071 62.0372 9.59351 62.4597 9.27124C62.8822 8.94897 63.4104 8.78784 64.0442 8.78784C64.7245 8.78784 65.2545 8.93465 65.634 9.22827C66.0136 9.51831 66.2034 9.93368 66.2034 10.4744C66.2034 10.7358 66.1246 10.9757 65.967 11.1941C65.8095 11.4125 65.5857 11.5862 65.2957 11.7151C65.9724 11.9443 66.3108 12.3954 66.3108 13.0686C66.3108 13.6021 66.1049 14.0247 65.6931 14.3362C65.2813 14.6477 64.7317 14.8035 64.0442 14.8035C63.3746 14.8035 62.8214 14.6405 62.3845 14.3147C61.9513 13.9853 61.7346 13.5413 61.7346 12.9827H62.7229C62.7229 13.2655 62.8482 13.509 63.0989 13.7131C63.3531 13.9137 63.6682 14.0139 64.0442 14.0139C64.4237 14.0139 64.7299 13.9262 64.9626 13.7507C65.1954 13.5753 65.3118 13.3479 65.3118 13.0686C65.3118 12.7428 65.2133 12.51 65.0164 12.3704C64.823 12.2271 64.5204 12.1555 64.1086 12.1555H63.115V11.3176H64.1946C64.8713 11.2997 65.2097 11.0204 65.2097 10.4797ZM71.4133 8.88989V13.8904H73.5403V8.88989H74.5339V13.8904H76.6555V8.88989H77.6545V14.7014H70.4143V8.88989H71.4133ZM82.8108 14.7014C82.7535 14.5868 82.7069 14.3827 82.6711 14.0891C82.2092 14.5689 81.6578 14.8088 81.0168 14.8088C80.4439 14.8088 79.9731 14.6477 79.6042 14.3254C79.239 13.9996 79.0564 13.5878 79.0564 13.0901C79.0564 12.4849 79.2856 12.0159 79.7439 11.6829C80.2058 11.3463 80.8539 11.178 81.6882 11.178H82.655V10.7214C82.655 10.3741 82.5512 10.0984 82.3435 9.89429C82.1358 9.6866 81.8297 9.58276 81.425 9.58276C81.0706 9.58276 80.7734 9.67228 80.5334 9.85132C80.2935 10.0304 80.1736 10.247 80.1736 10.5012H79.1746C79.1746 10.2112 79.2766 9.93188 79.4807 9.66333C79.6884 9.39119 79.9677 9.17635 80.3186 9.0188C80.6731 8.86125 81.0616 8.78247 81.4841 8.78247C82.1537 8.78247 82.6783 8.95076 83.0579 9.28735C83.4374 9.62036 83.6344 10.0805 83.6487 10.6677V13.3425C83.6487 13.8761 83.7167 14.3004 83.8528 14.6155V14.7014H82.8108ZM81.1619 13.9441C81.4734 13.9441 81.7688 13.8635 82.0481 13.7024C82.3274 13.5413 82.5297 13.3318 82.655 13.074V11.8816H81.8762C80.6588 11.8816 80.05 12.2379 80.05 12.9504C80.05 13.262 80.1539 13.5055 80.3616 13.6809C80.5693 13.8564 80.836 13.9441 81.1619 13.9441ZM87.7576 9.2229C88.488 9.2229 89.0717 9.46818 89.5085 9.95874C89.949 10.4457 90.1692 11.0885 90.1692 11.887V11.9783C90.1692 12.5261 90.0636 13.0167 89.8523 13.45C89.641 13.8796 89.3367 14.2144 88.9392 14.4543C88.5453 14.6907 88.0906 14.8088 87.575 14.8088C86.7944 14.8088 86.1659 14.5492 85.6897 14.03C85.2135 13.5072 84.9753 12.8072 84.9753 11.9299V11.4465C84.9753 10.2255 85.2009 9.25513 85.6521 8.5354C86.1069 7.81567 86.7764 7.37703 87.6609 7.21948C88.1622 7.12996 88.5006 7.02075 88.676 6.89185C88.8515 6.76294 88.9392 6.58569 88.9392 6.36011H89.7556C89.7556 6.8077 89.6536 7.15682 89.4495 7.40747C89.2489 7.65812 88.9267 7.83537 88.4827 7.93921L87.7415 8.10571C87.1506 8.24536 86.7066 8.48169 86.4094 8.8147C86.1158 9.14412 85.9242 9.58455 85.8347 10.136C86.3611 9.52726 87.002 9.2229 87.7576 9.2229ZM87.5642 10.0393C87.0772 10.0393 86.6905 10.204 86.4041 10.5334C86.1176 10.8593 85.9744 11.3123 85.9744 11.8923V11.9783C85.9744 12.6013 86.1176 13.0955 86.4041 13.4607C86.6941 13.8223 87.0844 14.0032 87.575 14.0032C88.0691 14.0032 88.4594 13.8206 88.7458 13.4553C89.0323 13.0901 89.1755 12.5566 89.1755 11.8547C89.1755 11.3069 89.0305 10.8682 88.7405 10.5388C88.454 10.2058 88.0619 10.0393 87.5642 10.0393ZM96.0505 8.88989V14.7014H95.0515V9.71167H93.075L92.9568 11.887C92.8923 12.886 92.724 13.6003 92.4519 14.03C92.1833 14.4597 91.7555 14.6835 91.1682 14.7014H90.7708V13.8259L91.0554 13.8044C91.3777 13.7686 91.6086 13.5824 91.7483 13.2458C91.8879 12.9093 91.9775 12.2862 92.0168 11.3767L92.1243 8.88989H96.0505ZM97.3826 11.7419C97.3826 11.1726 97.4936 10.6606 97.7156 10.2058C97.9412 9.75106 98.2527 9.40015 98.6501 9.15308C99.0512 8.90601 99.5077 8.78247 100.02 8.78247C100.811 8.78247 101.45 9.0564 101.937 9.60425C102.428 10.1521 102.673 10.8808 102.673 11.7903V11.8601C102.673 12.4259 102.564 12.9343 102.345 13.3855C102.131 13.8331 101.821 14.1822 101.416 14.4329C101.015 14.6835 100.553 14.8088 100.031 14.8088C99.2428 14.8088 98.6036 14.5349 98.113 13.9871C97.6261 13.4392 97.3826 12.7141 97.3826 11.8118V11.7419ZM98.3816 11.8601C98.3816 12.5046 98.5302 13.0221 98.8274 13.4124C99.1282 13.8027 99.5292 13.9978 100.031 13.9978C100.535 13.9978 100.936 13.8009 101.234 13.407C101.531 13.0095 101.679 12.4545 101.679 11.7419C101.679 11.1046 101.527 10.5889 101.223 10.1951C100.922 9.79761 100.521 9.59888 100.02 9.59888C99.5292 9.59888 99.1335 9.79403 98.8328 10.1843C98.532 10.5746 98.3816 11.1332 98.3816 11.8601ZM108.667 14.7014H107.674V12.22H105.004V14.7014H104.005V8.88989H105.004V11.4089H107.674V8.88989H108.667V14.7014ZM113.856 14.7014C113.798 14.5868 113.752 14.3827 113.716 14.0891C113.254 14.5689 112.703 14.8088 112.062 14.8088C111.489 14.8088 111.018 14.6477 110.649 14.3254C110.284 13.9996 110.101 13.5878 110.101 13.0901C110.101 12.4849 110.33 12.0159 110.789 11.6829C111.251 11.3463 111.899 11.178 112.733 11.178H113.7V10.7214C113.7 10.3741 113.596 10.0984 113.388 9.89429C113.181 9.6866 112.875 9.58276 112.47 9.58276C112.115 9.58276 111.818 9.67228 111.578 9.85132C111.338 10.0304 111.219 10.247 111.219 10.5012H110.219C110.219 10.2112 110.322 9.93188 110.526 9.66333C110.733 9.39119 111.013 9.17635 111.364 9.0188C111.718 8.86125 112.107 8.78247 112.529 8.78247C113.199 8.78247 113.723 8.95076 114.103 9.28735C114.482 9.62036 114.679 10.0805 114.694 10.6677V13.3425C114.694 13.8761 114.762 14.3004 114.898 14.6155V14.7014H113.856ZM112.207 13.9441C112.518 13.9441 112.814 13.8635 113.093 13.7024C113.372 13.5413 113.575 13.3318 113.7 13.074V11.8816H112.921C111.704 11.8816 111.095 12.2379 111.095 12.9504C111.095 13.262 111.199 13.5055 111.406 13.6809C111.614 13.8564 111.881 13.9441 112.207 13.9441Z" fill="#555555"/>
</svg>
