<svg width="117" height="23" viewBox="0 0 117 23" fill="none" xmlns="http://www.w3.org/2000/svg">
<rect x="0.918091" y="0.826416" width="115" height="21" rx="1.5" fill="#F8F8F8" stroke="#DADADA"/>
<path d="M16.3185 12.22C16.2219 13.0471 15.9157 13.6863 15.4001 14.1375C14.888 14.585 14.2059 14.8088 13.3537 14.8088C12.4299 14.8088 11.6887 14.4776 11.1301 13.8152C10.5751 13.1528 10.2975 12.2665 10.2975 11.1565V10.4045C10.2975 9.67765 10.4265 9.03849 10.6843 8.48706C10.9457 7.93563 11.3145 7.5131 11.7907 7.21948C12.2669 6.92228 12.8184 6.77368 13.445 6.77368C14.2757 6.77368 14.9418 7.00643 15.4431 7.47192C15.9444 7.93384 16.2362 8.57479 16.3185 9.39478H15.2819C15.1924 8.77173 14.9973 8.32056 14.6965 8.04126C14.3993 7.76196 13.9821 7.62231 13.445 7.62231C12.7862 7.62231 12.2687 7.8658 11.8928 8.35278C11.5204 8.83976 11.3342 9.53263 11.3342 10.4314V11.1887C11.3342 12.0374 11.5114 12.7123 11.8659 13.2136C12.2204 13.7149 12.7163 13.9656 13.3537 13.9656C13.9266 13.9656 14.3653 13.8367 14.6696 13.5789C14.9776 13.3175 15.1817 12.8645 15.2819 12.22H16.3185ZM17.3122 11.7419C17.3122 11.1726 17.4232 10.6606 17.6452 10.2058C17.8708 9.75106 18.1823 9.40015 18.5798 9.15308C18.9808 8.90601 19.4374 8.78247 19.9494 8.78247C20.7407 8.78247 21.3799 9.0564 21.8669 9.60425C22.3574 10.1521 22.6027 10.8808 22.6027 11.7903V11.8601C22.6027 12.4259 22.4935 12.9343 22.2751 13.3855C22.0602 13.8331 21.7505 14.1822 21.3459 14.4329C20.9448 14.6835 20.4829 14.8088 19.9601 14.8088C19.1724 14.8088 18.5332 14.5349 18.0427 13.9871C17.5557 13.4392 17.3122 12.7141 17.3122 11.8118V11.7419ZM18.3112 11.8601C18.3112 12.5046 18.4598 13.0221 18.757 13.4124C19.0578 13.8027 19.4588 13.9978 19.9601 13.9978C20.465 13.9978 20.8661 13.8009 21.1633 13.407C21.4605 13.0095 21.6091 12.4545 21.6091 11.7419C21.6091 11.1046 21.4569 10.5889 21.1525 10.1951C20.8517 9.79761 20.4507 9.59888 19.9494 9.59888C19.4588 9.59888 19.0632 9.79403 18.7624 10.1843C18.4616 10.5746 18.3112 11.1332 18.3112 11.8601ZM27.0446 10.4797C27.0446 10.2076 26.9408 9.99276 26.7331 9.83521C26.5254 9.67407 26.2407 9.59351 25.8791 9.59351C25.5282 9.59351 25.2346 9.68481 24.9982 9.86743C24.7655 10.05 24.6491 10.2649 24.6491 10.512H23.6608C23.6608 10.0071 23.8721 9.59351 24.2946 9.27124C24.7171 8.94897 25.2453 8.78784 25.8791 8.78784C26.5594 8.78784 27.0894 8.93465 27.4689 9.22827C27.8485 9.51831 28.0383 9.93368 28.0383 10.4744C28.0383 10.7358 27.9595 10.9757 27.8019 11.1941C27.6444 11.4125 27.4206 11.5862 27.1306 11.7151C27.8073 11.9443 28.1457 12.3954 28.1457 13.0686C28.1457 13.6021 27.9398 14.0247 27.528 14.3362C27.1162 14.6477 26.5666 14.8035 25.8791 14.8035C25.2095 14.8035 24.6563 14.6405 24.2194 14.3147C23.7862 13.9853 23.5695 13.5413 23.5695 12.9827H24.5578C24.5578 13.2655 24.6831 13.509 24.9338 13.7131C25.188 13.9137 25.5031 14.0139 25.8791 14.0139C26.2586 14.0139 26.5648 13.9262 26.7975 13.7507C27.0303 13.5753 27.1467 13.3479 27.1467 13.0686C27.1467 12.7428 27.0482 12.51 26.8513 12.3704C26.6579 12.2271 26.3553 12.1555 25.9435 12.1555H24.9499V11.3176H26.0295C26.7062 11.2997 27.0446 11.0204 27.0446 10.4797ZM29.3864 13.8904L29.7302 13.4661C30.1169 12.9648 30.3371 12.2128 30.3908 11.2102L30.4821 8.88989H34.2258V13.8904H34.9724V16.4094H33.9787V14.7014H29.9235V16.4094H28.9299L28.9352 13.8904H29.3864ZM30.5627 13.8904H33.2321V9.80835H31.4435L31.3845 11.1941C31.3236 12.3507 31.0497 13.2494 30.5627 13.8904ZM39.6613 14.7014C39.604 14.5868 39.5575 14.3827 39.5217 14.0891C39.0598 14.5689 38.5083 14.8088 37.8674 14.8088C37.2945 14.8088 36.8236 14.6477 36.4548 14.3254C36.0895 13.9996 35.9069 13.5878 35.9069 13.0901C35.9069 12.4849 36.1361 12.0159 36.5944 11.6829C37.0563 11.3463 37.7044 11.178 38.5388 11.178H39.5056V10.7214C39.5056 10.3741 39.4017 10.0984 39.194 9.89429C38.9863 9.6866 38.6802 9.58276 38.2756 9.58276C37.9211 9.58276 37.6239 9.67228 37.384 9.85132C37.1441 10.0304 37.0241 10.247 37.0241 10.5012H36.0251C36.0251 10.2112 36.1271 9.93188 36.3312 9.66333C36.5389 9.39119 36.8182 9.17635 37.1691 9.0188C37.5236 8.86125 37.9121 8.78247 38.3347 8.78247C39.0043 8.78247 39.5288 8.95076 39.9084 9.28735C40.2879 9.62036 40.4849 10.0805 40.4992 10.6677V13.3425C40.4992 13.8761 40.5672 14.3004 40.7033 14.6155V14.7014H39.6613ZM38.0124 13.9441C38.3239 13.9441 38.6193 13.8635 38.8986 13.7024C39.1779 13.5413 39.3802 13.3318 39.5056 13.074V11.8816H38.7267C37.5093 11.8816 36.9006 12.2379 36.9006 12.9504C36.9006 13.262 37.0044 13.5055 37.2121 13.6809C37.4198 13.8564 37.6865 13.9441 38.0124 13.9441ZM46.2892 9.69556H44.3395V14.7014H43.3459V9.69556H41.4338V8.88989H46.2892V9.69556ZM48.341 10.8933H49.8503C50.5091 10.9005 51.0301 11.0723 51.4133 11.4089C51.7964 11.7455 51.988 12.2021 51.988 12.7786C51.988 13.3586 51.791 13.8241 51.3972 14.175C51.0033 14.526 50.4733 14.7014 49.8073 14.7014H47.3474V8.88989H48.341V10.8933ZM48.341 11.7043V13.8904H49.8181C50.1905 13.8904 50.4787 13.7955 50.6828 13.6057C50.8869 13.4124 50.989 13.1492 50.989 12.8162C50.989 12.4939 50.8887 12.2307 50.6882 12.0266C50.4912 11.8189 50.2137 11.7115 49.8557 11.7043H48.341ZM55.9089 13.8904L56.2526 13.4661C56.6393 12.9648 56.8596 12.2128 56.9133 11.2102L57.0046 8.88989H60.7482V13.8904H61.4948V16.4094H60.5012V14.7014H56.446V16.4094H55.4523L55.4577 13.8904H55.9089ZM57.0851 13.8904H59.7546V9.80835H57.966L57.9069 11.1941C57.846 12.3507 57.5721 13.2494 57.0851 13.8904ZM62.3327 11.7419C62.3327 11.1726 62.4437 10.6606 62.6657 10.2058C62.8913 9.75106 63.2028 9.40015 63.6003 9.15308C64.0013 8.90601 64.4579 8.78247 64.9699 8.78247C65.7613 8.78247 66.4004 9.0564 66.8874 9.60425C67.378 10.1521 67.6232 10.8808 67.6232 11.7903V11.8601C67.6232 12.4259 67.514 12.9343 67.2956 13.3855C67.0807 13.8331 66.771 14.1822 66.3664 14.4329C65.9654 14.6835 65.5034 14.8088 64.9807 14.8088C64.1929 14.8088 63.5537 14.5349 63.0632 13.9871C62.5762 13.4392 62.3327 12.7141 62.3327 11.8118V11.7419ZM63.3317 11.8601C63.3317 12.5046 63.4803 13.0221 63.7775 13.4124C64.0783 13.8027 64.4793 13.9978 64.9807 13.9978C65.4855 13.9978 65.8866 13.8009 66.1838 13.407C66.481 13.0095 66.6296 12.4545 66.6296 11.7419C66.6296 11.1046 66.4774 10.5889 66.173 10.1951C65.8723 9.79761 65.4712 9.59888 64.9699 9.59888C64.4793 9.59888 64.0837 9.79403 63.7829 10.1843C63.4821 10.5746 63.3317 11.1332 63.3317 11.8601ZM70.6794 12.2253H69.9543V14.7014H68.9553V8.88989H69.9543V11.3499H70.6042L72.5593 8.88989H73.7624L71.4636 11.6829L73.9557 14.7014H72.6935L70.6794 12.2253ZM76.7111 13.2458L78.0646 8.88989H79.1281L76.7917 15.5984C76.43 16.5652 75.8553 17.0486 75.0676 17.0486L74.8796 17.0325L74.509 16.9626V16.157L74.7775 16.1785C75.1141 16.1785 75.3755 16.1104 75.5617 15.9744C75.7515 15.8383 75.9072 15.5894 76.029 15.2278L76.2492 14.637L74.176 8.88989H75.2609L76.7111 13.2458ZM83.3659 13.3855L85.3425 8.88989H86.5832V14.7014H85.5895V10.4744L83.7097 14.7014H83.0222L81.1047 10.3831V14.7014H80.111V8.88989H81.4001L83.3659 13.3855ZM90.5954 14.8088C89.8076 14.8088 89.1667 14.551 88.6725 14.0354C88.1784 13.5162 87.9313 12.8233 87.9313 11.9568V11.7742C87.9313 11.1977 88.0405 10.6838 88.259 10.2327C88.481 9.77791 88.7889 9.42342 89.1828 9.16919C89.5803 8.91138 90.0099 8.78247 90.4719 8.78247C91.2274 8.78247 91.8146 9.03133 92.2336 9.52905C92.6525 10.0268 92.862 10.7393 92.862 11.6667V12.0803H88.925C88.9393 12.6532 89.1058 13.1169 89.4245 13.4714C89.7468 13.8223 90.155 13.9978 90.6491 13.9978C91 13.9978 91.2972 13.9262 91.5407 13.783C91.7842 13.6397 91.9973 13.45 92.1799 13.2136L92.7868 13.6863C92.2998 14.4347 91.5694 14.8088 90.5954 14.8088ZM90.4719 9.59888C90.0708 9.59888 89.7342 9.74569 89.4621 10.0393C89.19 10.3293 89.0217 10.7375 88.9572 11.2639H91.8683V11.1887C91.8397 10.6838 91.7036 10.2935 91.4601 10.0178C91.2167 9.73853 90.8872 9.59888 90.4719 9.59888ZM98.7648 14.7014H97.7712V12.22H95.1017V14.7014H94.1027V8.88989H95.1017V11.4089H97.7712V8.88989H98.7648V14.7014ZM104.684 9.69556H102.734V14.7014H101.74V9.69556H99.8283V8.88989H104.684V9.69556Z" fill="#555555"/>
</svg>
