<svg width="171" height="23" viewBox="0 0 171 23" fill="none" xmlns="http://www.w3.org/2000/svg">
<rect x="1.08484" y="1.10101" width="168.583" height="21" rx="1.5" fill="#ECF5DD" stroke="#C5D2B1"/>
<path d="M53.5949 11.9145V14.976H52.5637V7.1557H55.4479C56.3037 7.1557 56.9733 7.37413 57.4567 7.81097C57.9437 8.24782 58.1872 8.82611 58.1872 9.54584C58.1872 10.305 57.9491 10.8904 57.4728 11.3022C57.0002 11.7104 56.3216 11.9145 55.4372 11.9145H53.5949ZM53.5949 11.0712H55.4479C55.9994 11.0712 56.4219 10.9423 56.7155 10.6845C57.0091 10.4231 57.1559 10.0471 57.1559 9.55658C57.1559 9.09108 57.0091 8.71869 56.7155 8.43939C56.4219 8.1601 56.0191 8.01508 55.507 8.00433H53.5949V11.0712ZM61.6838 15.0834C60.896 15.0834 60.2551 14.8256 59.7609 14.31C59.2668 13.7908 59.0197 13.0979 59.0197 12.2314V12.0488C59.0197 11.4723 59.1289 10.9584 59.3474 10.5073C59.5694 10.0525 59.8773 9.69802 60.2712 9.44379C60.6686 9.18597 61.0983 9.05707 61.5602 9.05707C62.3158 9.05707 62.903 9.30593 63.322 9.80365C63.7409 10.3014 63.9504 11.0139 63.9504 11.9413V12.3549H60.0134C60.0277 12.9278 60.1942 13.3915 60.5129 13.746C60.8351 14.0969 61.2433 14.2724 61.7375 14.2724C62.0884 14.2724 62.3856 14.2008 62.6291 14.0576C62.8726 13.9143 63.0856 13.7245 63.2682 13.4882L63.8752 13.9609C63.3882 14.7092 62.6577 15.0834 61.6838 15.0834ZM61.5602 9.87347C61.1592 9.87347 60.8226 10.0203 60.5505 10.3139C60.2783 10.6039 60.11 11.0121 60.0456 11.5385H62.9567V11.4633C62.9281 10.9584 62.792 10.5681 62.5485 10.2924C62.305 10.0131 61.9756 9.87347 61.5602 9.87347ZM68.8596 9.98627H66.1794V14.976H65.1804V9.16449H68.8596V9.98627ZM73.4841 9.16449H74.4777V14.976H73.4841V10.7382L70.8039 14.976H69.8102V9.16449H70.8039V13.4077L73.4841 9.16449ZM78.404 14.2724C78.7585 14.2724 79.0682 14.165 79.3332 13.9501C79.5982 13.7353 79.745 13.4667 79.7736 13.1445H80.7136C80.6957 13.4775 80.5811 13.7944 80.3698 14.0952C80.1585 14.3959 79.8757 14.6358 79.5212 14.8149C79.1703 14.9939 78.7979 15.0834 78.404 15.0834C77.6127 15.0834 76.9824 14.8203 76.5134 14.2939C76.0479 13.7639 75.8151 13.0406 75.8151 12.124V11.9575C75.8151 11.3917 75.919 10.8886 76.1266 10.4482C76.3343 10.0078 76.6315 9.66579 77.0182 9.4223C77.4085 9.17881 77.8687 9.05707 78.3986 9.05707C79.0503 9.05707 79.591 9.25222 80.0207 9.64252C80.454 10.0328 80.6849 10.5395 80.7136 11.1625H79.7736C79.745 10.7866 79.6017 10.4786 79.3439 10.2387C79.0897 9.99522 78.7746 9.87347 78.3986 9.87347C77.8937 9.87347 77.5016 10.0561 77.2224 10.4213C76.9466 10.783 76.8088 11.3076 76.8088 11.9951V12.183C76.8088 12.8526 76.9466 13.3683 77.2224 13.7299C77.4981 14.0916 77.8919 14.2724 78.404 14.2724ZM86.1491 9.97015H84.1994V14.976H83.2057V9.97015H81.2936V9.16449H86.1491V9.97015ZM92.0251 12.1347C92.0251 13.0191 91.8228 13.7317 91.4182 14.2724C91.0135 14.8131 90.4657 15.0834 89.7746 15.0834C89.0692 15.0834 88.5142 14.8596 88.1096 14.412V17.2104H87.1159V9.16449H88.0236L88.072 9.80902C88.4766 9.30772 89.0388 9.05707 89.7585 9.05707C90.4567 9.05707 91.0082 9.32025 91.4128 9.84662C91.821 10.373 92.0251 11.1052 92.0251 12.0434V12.1347ZM91.0314 12.0219C91.0314 11.3666 90.8918 10.8492 90.6125 10.4697C90.3332 10.0901 89.9501 9.90033 89.4631 9.90033C88.8615 9.90033 88.4103 10.1671 88.1096 10.7006V13.4775C88.4068 14.0074 88.8615 14.2724 89.4738 14.2724C89.9501 14.2724 90.3278 14.0844 90.6071 13.7084C90.89 13.3289 91.0314 12.7667 91.0314 12.0219ZM96.8806 14.976C96.8233 14.8614 96.7767 14.6573 96.7409 14.3637C96.279 14.8435 95.7276 15.0834 95.0866 15.0834C94.5137 15.0834 94.0428 14.9223 93.674 14.6C93.3088 14.2742 93.1262 13.8624 93.1262 13.3647C93.1262 12.7595 93.3553 12.2905 93.8137 11.9575C94.2756 11.6209 94.9237 11.4526 95.758 11.4526H96.7248V10.996C96.7248 10.6487 96.621 10.373 96.4133 10.1689C96.2056 9.9612 95.8994 9.85736 95.4948 9.85736C95.1403 9.85736 94.8431 9.94688 94.6032 10.1259C94.3633 10.305 94.2433 10.5216 94.2433 10.7758H93.2443C93.2443 10.4858 93.3464 10.2065 93.5505 9.93793C93.7582 9.66579 94.0375 9.45095 94.3884 9.2934C94.7429 9.13584 95.1314 9.05707 95.5539 9.05707C96.2235 9.05707 96.7481 9.22536 97.1276 9.56195C97.5072 9.89496 97.7041 10.3551 97.7184 10.9423V13.6171C97.7184 14.1507 97.7865 14.575 97.9225 14.8901V14.976H96.8806ZM95.2316 14.2187C95.5432 14.2187 95.8386 14.1381 96.1179 13.977C96.3972 13.8159 96.5995 13.6064 96.7248 13.3486V12.1562H95.946C94.7285 12.1562 94.1198 12.5125 94.1198 13.225C94.1198 13.5366 94.2237 13.78 94.4313 13.9555C94.639 14.131 94.9058 14.2187 95.2316 14.2187ZM99.362 9.16449H100.361V14.165H103.036V9.16449H104.029V14.165H104.722L104.626 16.7001H103.734V14.976H99.362V9.16449ZM109.556 9.16449H110.55V14.976H109.556V10.7382L106.876 14.976H105.883V9.16449H106.876V13.4077L109.556 9.16449ZM116.587 9.16449V14.976H115.588V12.7148H114.09L112.72 14.976H111.646L113.107 12.5644C112.734 12.4283 112.448 12.2189 112.247 11.936C112.05 11.6495 111.952 11.3165 111.952 10.937C111.952 10.407 112.151 9.9809 112.548 9.65863C112.945 9.33278 113.477 9.16807 114.143 9.16449H116.587ZM112.951 10.9477C112.951 11.2306 113.048 11.4597 113.241 11.6352C113.434 11.8071 113.69 11.8948 114.009 11.8984H115.588V9.97015H114.159C113.791 9.97015 113.497 10.0615 113.279 10.2441C113.06 10.4231 112.951 10.6577 112.951 10.9477Z" fill="#555555"/>
</svg>
