<svg width="46" height="23" viewBox="0 0 46 23" fill="none" xmlns="http://www.w3.org/2000/svg">
<rect x="0.710083" y="1.43494" width="43.88" height="21" rx="1.5" fill="#F8F8F8" stroke="#DADADA"/>
<path fill-rule="evenodd" clip-rule="evenodd" d="M10.4288 6.43494H10.4041V10.4219H9.40405C8.85177 10.4219 8.40405 10.8697 8.40405 11.4219V15.4219H10.4041V17.4349H11.4041V17.4219H17.4288V17.4349H18.4288V17.4219V16.4219V15.4219H20.4041V11.4219C20.4041 10.8697 19.9563 10.4219 19.4041 10.4219H18.4288V8.43494L16.4288 6.43494H11.4041H10.4288ZM11.4041 7.43494V11.4219H17.4288V9.43494H15.4288V7.43494H11.4041ZM18.4288 12.4219H19.4041V11.4219H18.4288V12.4219ZM17.4288 14.4219H11.4041V16.4219H17.4288V14.4219Z" fill="#555555"/>
<path d="M36.9712 10.939H30.9791L33.9752 13.929L36.9712 10.939Z" fill="#555555"/>
</svg>
