<svg width="78" height="23" viewBox="0 0 78 23" fill="none" xmlns="http://www.w3.org/2000/svg">
<rect x="0.918091" y="0.826416" width="76" height="21" rx="1.5" fill="#F8F8F8" stroke="#DADADA"/>
<path d="M17.6428 12.22C17.5461 13.0471 17.2399 13.6863 16.7243 14.1375C16.2123 14.585 15.5301 14.8088 14.6779 14.8088C13.7541 14.8088 13.0129 14.4776 12.4543 13.8152C11.8993 13.1528 11.6218 12.2665 11.6218 11.1565V10.4045C11.6218 9.67765 11.7507 9.03849 12.0085 8.48706C12.2699 7.93563 12.6387 7.5131 13.1149 7.21948C13.5912 6.92228 14.1426 6.77368 14.7692 6.77368C15.6 6.77368 16.266 7.00643 16.7673 7.47192C17.2686 7.93384 17.5604 8.57479 17.6428 9.39478H16.6061C16.5166 8.77173 16.3215 8.32056 16.0207 8.04126C15.7235 7.76196 15.3063 7.62231 14.7692 7.62231C14.1104 7.62231 13.593 7.8658 13.217 8.35278C12.8446 8.83976 12.6584 9.53263 12.6584 10.4314V11.1887C12.6584 12.0374 12.8356 12.7123 13.1901 13.2136C13.5446 13.7149 14.0405 13.9656 14.6779 13.9656C15.2508 13.9656 15.6895 13.8367 15.9938 13.5789C16.3018 13.3175 16.5059 12.8645 16.6061 12.22H17.6428ZM18.6364 11.7419C18.6364 11.1726 18.7474 10.6606 18.9694 10.2058C19.195 9.75106 19.5065 9.40015 19.904 9.15308C20.305 8.90601 20.7616 8.78247 21.2736 8.78247C22.065 8.78247 22.7041 9.0564 23.1911 9.60425C23.6817 10.1521 23.9269 10.8808 23.9269 11.7903V11.8601C23.9269 12.4259 23.8177 12.9343 23.5993 13.3855C23.3845 13.8331 23.0747 14.1822 22.6701 14.4329C22.2691 14.6835 21.8071 14.8088 21.2844 14.8088C20.4966 14.8088 19.8574 14.5349 19.3669 13.9871C18.8799 13.4392 18.6364 12.7141 18.6364 11.8118V11.7419ZM19.6354 11.8601C19.6354 12.5046 19.784 13.0221 20.0812 13.4124C20.382 13.8027 20.7831 13.9978 21.2844 13.9978C21.7892 13.9978 22.1903 13.8009 22.4875 13.407C22.7847 13.0095 22.9333 12.4545 22.9333 11.7419C22.9333 11.1046 22.7811 10.5889 22.4767 10.1951C22.176 9.79761 21.7749 9.59888 21.2736 9.59888C20.7831 9.59888 20.3874 9.79403 20.0866 10.1843C19.7858 10.5746 19.6354 11.1332 19.6354 11.8601ZM27.0046 11.0115L28.2936 8.88989H29.4538L27.5524 11.7634L29.5129 14.7014H28.3635L27.0207 12.5261L25.6779 14.7014H24.5231L26.4836 11.7634L24.5822 8.88989H25.7316L27.0046 11.0115ZM35.4211 11.8601C35.4211 12.7445 35.2188 13.4571 34.8141 13.9978C34.4095 14.5385 33.8617 14.8088 33.1706 14.8088C32.4652 14.8088 31.9102 14.585 31.5056 14.1375V16.9358H30.5119V8.88989H31.4196L31.468 9.53442C31.8726 9.03312 32.4348 8.78247 33.1545 8.78247C33.8527 8.78247 34.4042 9.04565 34.8088 9.57202C35.217 10.0984 35.4211 10.8306 35.4211 11.7688V11.8601ZM34.4274 11.7473C34.4274 11.092 34.2878 10.5746 34.0085 10.1951C33.7292 9.81551 33.346 9.62573 32.8591 9.62573C32.2575 9.62573 31.8063 9.8925 31.5056 10.426V13.2029C31.8028 13.7328 32.2575 13.9978 32.8698 13.9978C33.346 13.9978 33.7238 13.8098 34.0031 13.4338C34.286 13.0543 34.4274 12.4921 34.4274 11.7473ZM40.2766 14.7014C40.2193 14.5868 40.1727 14.3827 40.1369 14.0891C39.675 14.5689 39.1236 14.8088 38.4826 14.8088C37.9097 14.8088 37.4388 14.6477 37.07 14.3254C36.7048 13.9996 36.5222 13.5878 36.5222 13.0901C36.5222 12.4849 36.7513 12.0159 37.2097 11.6829C37.6716 11.3463 38.3197 11.178 39.154 11.178H40.1208V10.7214C40.1208 10.3741 40.0169 10.0984 39.8093 9.89429C39.6016 9.6866 39.2954 9.58276 38.8908 9.58276C38.5363 9.58276 38.2391 9.67228 37.9992 9.85132C37.7593 10.0304 37.6393 10.247 37.6393 10.5012H36.6403C36.6403 10.2112 36.7424 9.93188 36.9465 9.66333C37.1542 9.39119 37.4335 9.17635 37.7844 9.0188C38.1389 8.86125 38.5274 8.78247 38.9499 8.78247C39.6195 8.78247 40.1441 8.95076 40.5236 9.28735C40.9032 9.62036 41.1001 10.0805 41.1144 10.6677V13.3425C41.1144 13.8761 41.1825 14.3004 41.3185 14.6155V14.7014H40.2766ZM38.6276 13.9441C38.9391 13.9441 39.2346 13.8635 39.5139 13.7024C39.7932 13.5413 39.9955 13.3318 40.1208 13.074V11.8816H39.342C38.1245 11.8816 37.5158 12.2379 37.5158 12.9504C37.5158 13.262 37.6196 13.5055 37.8273 13.6809C38.035 13.8564 38.3018 13.9441 38.6276 13.9441ZM47.4201 14.7014H46.4265V12.22H43.757V14.7014H42.758V8.88989H43.757V11.4089H46.4265V8.88989H47.4201V14.7014ZM52.7805 8.88989H53.7741V14.7014H52.7805V10.4636L50.1003 14.7014H49.1066V8.88989H50.1003V13.1331L52.7805 8.88989ZM59.6877 9.69556H57.738V14.7014H56.7443V9.69556H54.8322V8.88989H59.6877V9.69556ZM61.7394 10.8933H63.2487C63.9076 10.9005 64.4286 11.0723 64.8117 11.4089C65.1948 11.7455 65.3864 12.2021 65.3864 12.7786C65.3864 13.3586 65.1895 13.8241 64.7956 14.175C64.4017 14.526 63.8718 14.7014 63.2057 14.7014H60.7458V8.88989H61.7394V10.8933ZM61.7394 11.7043V13.8904H63.2165C63.5889 13.8904 63.8771 13.7955 64.0812 13.6057C64.2853 13.4124 64.3874 13.1492 64.3874 12.8162C64.3874 12.4939 64.2871 12.2307 64.0866 12.0266C63.8897 11.8189 63.6122 11.7115 63.2541 11.7043H61.7394Z" fill="#555555"/>
</svg>
