<svg width="170" height="22" viewBox="0 0 170 22" fill="none" xmlns="http://www.w3.org/2000/svg">
<rect x="0.857056" y="0.5" width="168.583" height="21" rx="1.5" fill="#FBE4E5" stroke="#E6B3B5"/>
<path d="M43.6406 10.7173C43.6406 11.4836 43.5117 12.1532 43.2538 12.7261C42.996 13.2954 42.6308 13.7305 42.1581 14.0312C41.6855 14.332 41.1341 14.4824 40.5038 14.4824C39.888 14.4824 39.3419 14.332 38.8657 14.0312C38.3894 13.7269 38.0188 13.2954 37.7538 12.7368C37.4925 12.1746 37.3582 11.5247 37.351 10.7871V10.2231C37.351 9.47119 37.4817 8.80697 37.7431 8.23047C38.0045 7.65397 38.3733 7.21354 38.8495 6.90918C39.3294 6.60124 39.8772 6.44727 40.4931 6.44727C41.1197 6.44727 41.6712 6.59945 42.1474 6.90381C42.6272 7.20459 42.996 7.64323 43.2538 8.21973C43.5117 8.79264 43.6406 9.46045 43.6406 10.2231V10.7173ZM42.6147 10.2124C42.6147 9.28499 42.4285 8.57422 42.0561 8.08008C41.6837 7.58236 41.1627 7.3335 40.4931 7.3335C39.8414 7.3335 39.3276 7.58236 38.9516 8.08008C38.5792 8.57422 38.3876 9.26172 38.3769 10.1426V10.7173C38.3769 11.616 38.5649 12.3232 38.9409 12.8389C39.3204 13.3509 39.8414 13.6069 40.5038 13.6069C41.1699 13.6069 41.6855 13.3652 42.0507 12.8818C42.416 12.3949 42.6039 11.6984 42.6147 10.7925V10.2124ZM49.35 9.36914H47.4003V14.375H46.4067V9.36914H44.4946V8.56348H49.35V9.36914ZM53.663 13.0591L55.6396 8.56348H56.8803V14.375H55.8867V10.1479L54.0068 14.375H53.3193L51.4018 10.0566V14.375H50.4081V8.56348H51.6972L53.663 13.0591ZM60.8925 14.4824C60.1048 14.4824 59.4638 14.2246 58.9697 13.709C58.4755 13.1898 58.2285 12.4969 58.2285 11.6304V11.4478C58.2285 10.8713 58.3377 10.3574 58.5561 9.90625C58.7781 9.4515 59.086 9.09701 59.4799 8.84277C59.8774 8.58496 60.3071 8.45605 60.769 8.45605C61.5245 8.45605 62.1118 8.70492 62.5307 9.20264C62.9496 9.70036 63.1591 10.4129 63.1591 11.3403V11.7539H59.2221C59.2364 12.3268 59.4029 12.7905 59.7216 13.145C60.0439 13.4959 60.4521 13.6714 60.9462 13.6714C61.2971 13.6714 61.5943 13.5998 61.8378 13.4565C62.0813 13.3133 62.2944 13.1235 62.477 12.8872L63.0839 13.3599C62.5969 14.1082 61.8665 14.4824 60.8925 14.4824ZM60.769 9.27246C60.3679 9.27246 60.0314 9.41927 59.7592 9.71289C59.4871 10.0029 59.3188 10.4111 59.2543 10.9375H62.1655V10.8623C62.1368 10.3574 62.0008 9.96712 61.7573 9.69141C61.5138 9.41211 61.1843 9.27246 60.769 9.27246ZM69.062 14.375H68.0683V11.8936H65.3989V14.375H64.3998V8.56348H65.3989V11.0825H68.0683V8.56348H69.062V14.375ZM74.4223 8.56348H75.416V14.375H74.4223V10.1372L71.7421 14.375H70.7485V8.56348H71.7421V12.8066L74.4223 8.56348ZM81.3295 9.36914H79.3798V14.375H78.3862V9.36914H76.4741V8.56348H81.3295V9.36914ZM83.3813 10.5669H84.8906C85.5494 10.5741 86.0704 10.7459 86.4536 11.0825C86.8367 11.4191 87.0283 11.8757 87.0283 12.4521C87.0283 13.0322 86.8313 13.4977 86.4374 13.8486C86.0436 14.1995 85.5136 14.375 84.8476 14.375H82.3876V8.56348H83.3813V10.5669ZM83.3813 11.3779V13.564H84.8583C85.2307 13.564 85.519 13.4691 85.7231 13.2793C85.9272 13.0859 86.0292 12.8228 86.0292 12.4897C86.0292 12.1675 85.929 11.9043 85.7285 11.7002C85.5315 11.4925 85.254 11.3851 84.8959 11.3779H83.3813ZM95.7509 14.375H94.7573V9.38525H92.0825V14.375H91.0834V8.56348H95.7509V14.375ZM102.255 11.5337C102.255 12.4181 102.053 13.1307 101.648 13.6714C101.244 14.2121 100.696 14.4824 100.005 14.4824C99.2994 14.4824 98.7444 14.2586 98.3398 13.811V16.6094H97.3461V8.56348H98.2538L98.3022 9.20801C98.7068 8.70671 99.269 8.45605 99.9887 8.45605C100.687 8.45605 101.238 8.71924 101.643 9.24561C102.051 9.77197 102.255 10.5042 102.255 11.4424V11.5337ZM101.262 11.4209C101.262 10.7656 101.122 10.2482 100.843 9.86865C100.563 9.4891 100.18 9.29932 99.6933 9.29932C99.0917 9.29932 98.6406 9.56608 98.3398 10.0996V12.8765C98.637 13.4064 99.0917 13.6714 99.704 13.6714C100.18 13.6714 100.558 13.4834 100.837 13.1074C101.12 12.7279 101.262 12.1657 101.262 11.4209ZM103.26 11.4155C103.26 10.8462 103.371 10.3341 103.593 9.87939C103.818 9.42464 104.13 9.07373 104.527 8.82666C104.928 8.57959 105.385 8.45605 105.897 8.45605C106.688 8.45605 107.327 8.72998 107.814 9.27783C108.305 9.82568 108.55 10.5544 108.55 11.4639V11.5337C108.55 12.0994 108.441 12.6079 108.223 13.0591C108.008 13.5067 107.698 13.8558 107.293 14.1064C106.892 14.3571 106.43 14.4824 105.908 14.4824C105.12 14.4824 104.481 14.2085 103.99 13.6606C103.503 13.1128 103.26 12.3877 103.26 11.4854V11.4155ZM104.259 11.5337C104.259 12.1782 104.407 12.6956 104.705 13.0859C105.005 13.4762 105.406 13.6714 105.908 13.6714C106.413 13.6714 106.814 13.4744 107.111 13.0806C107.408 12.6831 107.557 12.1281 107.557 11.4155C107.557 10.7782 107.404 10.2625 107.1 9.86865C106.799 9.47119 106.398 9.27246 105.897 9.27246C105.406 9.27246 105.011 9.46761 104.71 9.85791C104.409 10.2482 104.259 10.8068 104.259 11.5337ZM109.882 8.56348H110.881V13.564H113.556V8.56348H114.55V13.564H115.243L115.146 16.0991H114.254V14.375H109.882V8.56348ZM118.728 14.4824C117.941 14.4824 117.3 14.2246 116.806 13.709C116.311 13.1898 116.064 12.4969 116.064 11.6304V11.4478C116.064 10.8713 116.174 10.3574 116.392 9.90625C116.614 9.4515 116.922 9.09701 117.316 8.84277C117.713 8.58496 118.143 8.45605 118.605 8.45605C119.36 8.45605 119.948 8.70492 120.367 9.20264C120.786 9.70036 120.995 10.4129 120.995 11.3403V11.7539H117.058C117.072 12.3268 117.239 12.7905 117.558 13.145C117.88 13.4959 118.288 13.6714 118.782 13.6714C119.133 13.6714 119.43 13.5998 119.674 13.4565C119.917 13.3133 120.13 13.1235 120.313 12.8872L120.92 13.3599C120.433 14.1082 119.702 14.4824 118.728 14.4824ZM118.605 9.27246C118.204 9.27246 117.867 9.41927 117.595 9.71289C117.323 10.0029 117.155 10.4111 117.09 10.9375H120.001V10.8623C119.973 10.3574 119.837 9.96712 119.593 9.69141C119.35 9.41211 119.02 9.27246 118.605 9.27246ZM124.481 13.6714C124.835 13.6714 125.145 13.564 125.41 13.3491C125.675 13.1343 125.822 12.8657 125.851 12.5435H126.79C126.773 12.8765 126.658 13.1934 126.447 13.4941C126.235 13.7949 125.953 14.0348 125.598 14.2139C125.247 14.3929 124.875 14.4824 124.481 14.4824C123.69 14.4824 123.059 14.2192 122.59 13.6929C122.125 13.1629 121.892 12.4396 121.892 11.5229V11.3564C121.892 10.7907 121.996 10.2876 122.204 9.84717C122.411 9.40674 122.708 9.06478 123.095 8.82129C123.485 8.5778 123.946 8.45605 124.476 8.45605C125.127 8.45605 125.668 8.6512 126.098 9.0415C126.531 9.4318 126.762 9.93848 126.79 10.5615H125.851C125.822 10.1855 125.679 9.8776 125.421 9.6377C125.167 9.39421 124.852 9.27246 124.476 9.27246C123.971 9.27246 123.579 9.45508 123.299 9.82031C123.024 10.182 122.886 10.7065 122.886 11.394V11.582C122.886 12.2516 123.024 12.7673 123.299 13.1289C123.575 13.4906 123.969 13.6714 124.481 13.6714ZM130.239 13.6714C130.593 13.6714 130.903 13.564 131.168 13.3491C131.433 13.1343 131.58 12.8657 131.608 12.5435H132.548C132.53 12.8765 132.416 13.1934 132.205 13.4941C131.993 13.7949 131.71 14.0348 131.356 14.2139C131.005 14.3929 130.633 14.4824 130.239 14.4824C129.447 14.4824 128.817 14.2192 128.348 13.6929C127.883 13.1629 127.65 12.4396 127.65 11.5229V11.3564C127.65 10.7907 127.754 10.2876 127.961 9.84717C128.169 9.40674 128.466 9.06478 128.853 8.82129C129.243 8.5778 129.703 8.45605 130.233 8.45605C130.885 8.45605 131.426 8.6512 131.855 9.0415C132.289 9.4318 132.52 9.93848 132.548 10.5615H131.608C131.58 10.1855 131.436 9.8776 131.179 9.6377C130.924 9.39421 130.609 9.27246 130.233 9.27246C129.728 9.27246 129.336 9.45508 129.057 9.82031C128.781 10.182 128.643 10.7065 128.643 11.394V11.582C128.643 12.2516 128.781 12.7673 129.057 13.1289C129.333 13.4906 129.727 13.6714 130.239 13.6714Z" fill="#555555"/>
</svg>
