<svg width="171" height="23" viewBox="0 0 171 23" fill="none" xmlns="http://www.w3.org/2000/svg">
<rect x="1.08478" y="0.826416" width="168.583" height="21" rx="1.5" fill="#F8F8F8" stroke="#DADADA"/>
<path d="M33.6788 6.8811H34.7101V14.7014H33.6788V8.67505L29.8278 14.7014H28.7911V6.8811H29.8278V12.9075L33.6788 6.8811ZM39.63 10.4797C39.63 10.2076 39.5262 9.99276 39.3185 9.83521C39.1108 9.67407 38.8261 9.59351 38.4645 9.59351C38.1136 9.59351 37.8199 9.68481 37.5836 9.86743C37.3509 10.05 37.2345 10.2649 37.2345 10.512H36.2462C36.2462 10.0071 36.4575 9.59351 36.88 9.27124C37.3025 8.94897 37.8307 8.78784 38.4645 8.78784C39.1448 8.78784 39.6748 8.93465 40.0543 9.22827C40.4339 9.51831 40.6237 9.93368 40.6237 10.4744C40.6237 10.7358 40.5449 10.9757 40.3873 11.1941C40.2298 11.4125 40.006 11.5862 39.7159 11.7151C40.3927 11.9443 40.7311 12.3954 40.7311 13.0686C40.7311 13.6021 40.5252 14.0247 40.1134 14.3362C39.7016 14.6477 39.152 14.8035 38.4645 14.8035C37.7949 14.8035 37.2417 14.6405 36.8048 14.3147C36.3715 13.9853 36.1549 13.5413 36.1549 12.9827H37.1432C37.1432 13.2655 37.2685 13.509 37.5192 13.7131C37.7734 13.9137 38.0885 14.0139 38.4645 14.0139C38.844 14.0139 39.1502 13.9262 39.3829 13.7507C39.6157 13.5753 39.7321 13.3479 39.7321 13.0686C39.7321 12.7428 39.6336 12.51 39.4366 12.3704C39.2433 12.2271 38.9407 12.1555 38.5289 12.1555H37.5353V11.3176H38.6149C39.2916 11.2997 39.63 11.0204 39.63 10.4797ZM45.3663 13.3855L47.3429 8.88989H48.5836V14.7014H47.59V10.4744L45.7101 14.7014H45.0226L43.1051 10.3831V14.7014H42.1115V8.88989H43.4005L45.3663 13.3855ZM52.5958 14.8088C51.8081 14.8088 51.1671 14.551 50.673 14.0354C50.1788 13.5162 49.9318 12.8233 49.9318 11.9568V11.7742C49.9318 11.1977 50.041 10.6838 50.2594 10.2327C50.4814 9.77791 50.7893 9.42342 51.1832 9.16919C51.5807 8.91138 52.0104 8.78247 52.4723 8.78247C53.2278 8.78247 53.8151 9.03133 54.234 9.52905C54.653 10.0268 54.8624 10.7393 54.8624 11.6667V12.0803H50.9254C50.9397 12.6532 51.1062 13.1169 51.4249 13.4714C51.7472 13.8223 52.1554 13.9978 52.6495 13.9978C53.0004 13.9978 53.2976 13.9262 53.5411 13.783C53.7846 13.6397 53.9977 13.45 54.1803 13.2136L54.7872 13.6863C54.3003 14.4347 53.5698 14.8088 52.5958 14.8088ZM52.4723 9.59888C52.0712 9.59888 51.7347 9.74569 51.4625 10.0393C51.1904 10.3293 51.0221 10.7375 50.9576 11.2639H53.8688V11.1887C53.8401 10.6838 53.7041 10.2935 53.4606 10.0178C53.2171 9.73853 52.8877 9.59888 52.4723 9.59888ZM60.7653 14.7014H59.7716V12.22H57.1022V14.7014H56.1031V8.88989H57.1022V11.4089H59.7716V8.88989H60.7653V14.7014ZM66.1256 8.88989H67.1193V14.7014H66.1256V10.4636L63.4454 14.7014H62.4518V8.88989H63.4454V13.1331L66.1256 8.88989ZM73.0328 9.69556H71.0831V14.7014H70.0895V9.69556H68.1774V8.88989H73.0328V9.69556ZM75.0846 10.8933H76.5939C77.2527 10.9005 77.7737 11.0723 78.1569 11.4089C78.54 11.7455 78.7316 12.2021 78.7316 12.7786C78.7316 13.3586 78.5346 13.8241 78.1407 14.175C77.7469 14.526 77.2169 14.7014 76.5509 14.7014H74.0909V8.88989H75.0846V10.8933ZM75.0846 11.7043V13.8904H76.5616C76.934 13.8904 77.2223 13.7955 77.4264 13.6057C77.6305 13.4124 77.7325 13.1492 77.7325 12.8162C77.7325 12.4939 77.6323 12.2307 77.4318 12.0266C77.2348 11.8189 76.9573 11.7115 76.5992 11.7043H75.0846ZM84.6022 13.2458L85.9557 8.88989H87.0192L84.6827 15.5984C84.3211 16.5652 83.7464 17.0486 82.9586 17.0486L82.7706 17.0325L82.4 16.9626V16.157L82.6686 16.1785C83.0052 16.1785 83.2666 16.1104 83.4528 15.9744C83.6425 15.8383 83.7983 15.5894 83.92 15.2278L84.1403 14.637L82.067 8.88989H83.152L84.6022 13.2458ZM92.299 14.7014H91.2999V12.5959C90.8631 12.7105 90.4155 12.7678 89.9572 12.7678C89.2303 12.7678 88.6753 12.5816 88.2921 12.2092C87.9126 11.8368 87.7192 11.3069 87.712 10.6194V8.88452H88.7057V10.6516C88.7236 11.5181 89.1407 11.9514 89.9572 11.9514C90.4155 11.9514 90.8631 11.8941 91.2999 11.7795V8.88989H92.299V14.7014ZM97.4821 14.7014C97.4248 14.5868 97.3782 14.3827 97.3424 14.0891C96.8805 14.5689 96.3291 14.8088 95.6881 14.8088C95.1152 14.8088 94.6443 14.6477 94.2755 14.3254C93.9103 13.9996 93.7277 13.5878 93.7277 13.0901C93.7277 12.4849 93.9568 12.0159 94.4152 11.6829C94.8771 11.3463 95.5252 11.178 96.3595 11.178H97.3263V10.7214C97.3263 10.3741 97.2225 10.0984 97.0148 9.89429C96.8071 9.6866 96.5009 9.58276 96.0963 9.58276C95.7418 9.58276 95.4446 9.67228 95.2047 9.85132C94.9648 10.0304 94.8448 10.247 94.8448 10.5012H93.8458C93.8458 10.2112 93.9479 9.93188 94.152 9.66333C94.3597 9.39119 94.639 9.17635 94.9899 9.0188C95.3444 8.86125 95.7329 8.78247 96.1554 8.78247C96.825 8.78247 97.3496 8.95076 97.7291 9.28735C98.1087 9.62036 98.3056 10.0805 98.3199 10.6677V13.3425C98.3199 13.8761 98.388 14.3004 98.524 14.6155V14.7014H97.4821ZM95.8331 13.9441C96.1447 13.9441 96.4401 13.8635 96.7194 13.7024C96.9987 13.5413 97.201 13.3318 97.3263 13.074V11.8816H96.5475C95.33 11.8816 94.7213 12.2379 94.7213 12.9504C94.7213 13.262 94.8252 13.5055 95.0328 13.6809C95.2405 13.8564 95.5073 13.9441 95.8331 13.9441ZM102.209 13.9978C102.563 13.9978 102.873 13.8904 103.138 13.6755C103.403 13.4607 103.55 13.1921 103.578 12.8699H104.518C104.5 13.2029 104.386 13.5198 104.174 13.8206C103.963 14.1213 103.68 14.3612 103.326 14.5403C102.975 14.7193 102.602 14.8088 102.209 14.8088C101.417 14.8088 100.787 14.5457 100.318 14.0193C99.8525 13.4893 99.6198 12.766 99.6198 11.8494V11.6829C99.6198 11.1171 99.7236 10.614 99.9313 10.1736C100.139 9.73315 100.436 9.39119 100.823 9.14771C101.213 8.90422 101.673 8.78247 102.203 8.78247C102.855 8.78247 103.396 8.97762 103.825 9.36792C104.259 9.75822 104.49 10.2649 104.518 10.8879H103.578C103.55 10.512 103.406 10.204 103.149 9.96411C102.894 9.72062 102.579 9.59888 102.203 9.59888C101.698 9.59888 101.306 9.78149 101.027 10.1467C100.751 10.5084 100.613 11.033 100.613 11.7205V11.9084C100.613 12.578 100.751 13.0937 101.027 13.4553C101.303 13.817 101.697 13.9978 102.209 13.9978ZM109.954 9.69556H108.004V14.7014H107.01V9.69556H105.098V8.88989H109.954V9.69556ZM115.669 14.7014H114.675V12.22H112.005V14.7014H111.006V8.88989H112.005V11.4089H114.675V8.88989H115.669V14.7014ZM121.029 8.88989H122.023V14.7014H121.029V10.4636L118.349 14.7014H117.355V8.88989H118.349V13.1331L121.029 8.88989ZM125.428 12.2253H124.703V14.7014H123.704V8.88989H124.703V11.3499H125.353L127.308 8.88989H128.511L126.212 11.6829L128.704 14.7014H127.442L125.428 12.2253ZM129.177 11.7419C129.177 11.1726 129.288 10.6606 129.51 10.2058C129.735 9.75106 130.047 9.40015 130.444 9.15308C130.845 8.90601 131.302 8.78247 131.814 8.78247C132.605 8.78247 133.245 9.0564 133.732 9.60425C134.222 10.1521 134.467 10.8808 134.467 11.7903V11.8601C134.467 12.4259 134.358 12.9343 134.14 13.3855C133.925 13.8331 133.615 14.1822 133.211 14.4329C132.81 14.6835 132.348 14.8088 131.825 14.8088C131.037 14.8088 130.398 14.5349 129.907 13.9871C129.42 13.4392 129.177 12.7141 129.177 11.8118V11.7419ZM130.176 11.8601C130.176 12.5046 130.325 13.0221 130.622 13.4124C130.922 13.8027 131.324 13.9978 131.825 13.9978C132.33 13.9978 132.731 13.8009 133.028 13.407C133.325 13.0095 133.474 12.4545 133.474 11.7419C133.474 11.1046 133.322 10.5889 133.017 10.1951C132.716 9.79761 132.315 9.59888 131.814 9.59888C131.324 9.59888 130.928 9.79403 130.627 10.1843C130.326 10.5746 130.176 11.1332 130.176 11.8601ZM135.805 14.7014V8.88989H138.071C138.845 8.88989 139.437 9.02596 139.849 9.2981C140.265 9.56665 140.472 9.96232 140.472 10.4851C140.472 10.7537 140.392 10.9972 140.231 11.2156C140.069 11.4304 139.831 11.5951 139.516 11.7097C139.867 11.7921 140.148 11.9532 140.359 12.1931C140.574 12.433 140.682 12.7195 140.682 13.0525C140.682 13.586 140.485 13.9942 140.091 14.2771C139.701 14.56 139.147 14.7014 138.431 14.7014H135.805ZM136.798 12.1501V13.9011H138.442C138.857 13.9011 139.167 13.8241 139.371 13.6702C139.579 13.5162 139.683 13.2996 139.683 13.0203C139.683 12.4402 139.257 12.1501 138.404 12.1501H136.798ZM136.798 11.3552H138.082C139.013 11.3552 139.479 11.0831 139.479 10.5388C139.479 9.99455 139.038 9.71346 138.157 9.69556H136.798V11.3552Z" fill="#555555"/>
</svg>
