<svg width="85" height="23" viewBox="0 0 85 23" fill="none" xmlns="http://www.w3.org/2000/svg">
<rect x="0.918091" y="0.826416" width="83" height="21" rx="1.5" fill="#F8F8F8" stroke="#DADADA"/>
<path d="M28.1226 14.7014V6.8811H30.6792C31.5278 6.8811 32.1652 7.05656 32.5913 7.40747C33.021 7.75838 33.2358 8.27759 33.2358 8.96509C33.2358 9.33032 33.132 9.65438 32.9243 9.93726C32.7166 10.2166 32.4338 10.4332 32.0757 10.5872C32.4982 10.7053 32.8312 10.9309 33.0747 11.2639C33.3218 11.5933 33.4453 11.9872 33.4453 12.4456C33.4453 13.1474 33.2179 13.6988 32.7632 14.0999C32.3084 14.5009 31.6657 14.7014 30.835 14.7014H28.1226ZM29.1538 11.0437V13.8582H30.8564C31.3363 13.8582 31.714 13.7346 31.9897 13.4875C32.269 13.2369 32.4087 12.8931 32.4087 12.4563C32.4087 11.5146 31.8966 11.0437 30.8726 11.0437H29.1538ZM29.1538 10.2166H30.7114C31.1626 10.2166 31.5225 10.1038 31.791 9.87817C32.0632 9.65259 32.1992 9.34644 32.1992 8.95972C32.1992 8.53003 32.0739 8.21851 31.8232 8.02515C31.5726 7.82821 31.1912 7.72974 30.6792 7.72974H29.1538V10.2166ZM35.9053 10.8933H37.4146C38.0734 10.9005 38.5944 11.0723 38.9775 11.4089C39.3607 11.7455 39.5522 12.2021 39.5522 12.7786C39.5522 13.3586 39.3553 13.8241 38.9614 14.175C38.5675 14.526 38.0376 14.7014 37.3716 14.7014H34.9116V8.88989H35.9053V10.8933ZM41.6255 14.7014H40.6265V8.88989H41.6255V14.7014ZM35.9053 11.7043V13.8904H37.3823C37.7547 13.8904 38.043 13.7955 38.2471 13.6057C38.4512 13.4124 38.5532 13.1492 38.5532 12.8162C38.5532 12.4939 38.453 12.2307 38.2524 12.0266C38.0555 11.8189 37.778 11.7115 37.4199 11.7043H35.9053ZM45.9116 9.2229C46.6421 9.2229 47.2257 9.46818 47.6626 9.95874C48.103 10.4457 48.3232 11.0885 48.3232 11.887V11.9783C48.3232 12.5261 48.2176 13.0167 48.0063 13.45C47.7951 13.8796 47.4907 14.2144 47.0933 14.4543C46.6994 14.6907 46.2446 14.8088 45.729 14.8088C44.9484 14.8088 44.32 14.5492 43.8438 14.03C43.3675 13.5072 43.1294 12.8072 43.1294 11.9299V11.4465C43.1294 10.2255 43.355 9.25513 43.8062 8.5354C44.2609 7.81567 44.9305 7.37703 45.8149 7.21948C46.3162 7.12996 46.6546 7.02075 46.8301 6.89185C47.0055 6.76294 47.0933 6.58569 47.0933 6.36011H47.9097C47.9097 6.8077 47.8076 7.15682 47.6035 7.40747C47.403 7.65812 47.0807 7.83537 46.6367 7.93921L45.8955 8.10571C45.3047 8.24536 44.8607 8.48169 44.5635 8.8147C44.2699 9.14412 44.0783 9.58455 43.9888 10.136C44.5151 9.52726 45.1561 9.2229 45.9116 9.2229ZM45.7183 10.0393C45.2313 10.0393 44.8446 10.204 44.5581 10.5334C44.2716 10.8593 44.1284 11.3123 44.1284 11.8923V11.9783C44.1284 12.6013 44.2716 13.0955 44.5581 13.4607C44.8481 13.8223 45.2384 14.0032 45.729 14.0032C46.2231 14.0032 46.6134 13.8206 46.8999 13.4553C47.1864 13.0901 47.3296 12.5566 47.3296 11.8547C47.3296 11.3069 47.1846 10.8682 46.8945 10.5388C46.6081 10.2058 46.216 10.0393 45.7183 10.0393ZM54.2529 11.8601C54.2529 12.7445 54.0506 13.4571 53.646 13.9978C53.2414 14.5385 52.6935 14.8088 52.0024 14.8088C51.297 14.8088 50.742 14.585 50.3374 14.1375V16.9358H49.3438V8.88989H50.2515L50.2998 9.53442C50.7044 9.03312 51.2666 8.78247 51.9863 8.78247C52.6846 8.78247 53.236 9.04565 53.6406 9.57202C54.0488 10.0984 54.2529 10.8306 54.2529 11.7688V11.8601ZM53.2593 11.7473C53.2593 11.092 53.1196 10.5746 52.8403 10.1951C52.561 9.81551 52.1779 9.62573 51.6909 9.62573C51.0894 9.62573 50.6382 9.8925 50.3374 10.426V13.2029C50.6346 13.7328 51.0894 13.9978 51.7017 13.9978C52.1779 13.9978 52.5557 13.8098 52.835 13.4338C53.1178 13.0543 53.2593 12.4921 53.2593 11.7473ZM59.1084 14.7014C59.0511 14.5868 59.0046 14.3827 58.9688 14.0891C58.5068 14.5689 57.9554 14.8088 57.3145 14.8088C56.7415 14.8088 56.2707 14.6477 55.9019 14.3254C55.5366 13.9996 55.354 13.5878 55.354 13.0901C55.354 12.4849 55.5832 12.0159 56.0415 11.6829C56.5034 11.3463 57.1515 11.178 57.9858 11.178H58.9526V10.7214C58.9526 10.3741 58.8488 10.0984 58.6411 9.89429C58.4334 9.6866 58.1273 9.58276 57.7227 9.58276C57.3682 9.58276 57.071 9.67228 56.8311 9.85132C56.5911 10.0304 56.4712 10.247 56.4712 10.5012H55.4722C55.4722 10.2112 55.5742 9.93188 55.7783 9.66333C55.986 9.39119 56.2653 9.17635 56.6162 9.0188C56.9707 8.86125 57.3592 8.78247 57.7817 8.78247C58.4513 8.78247 58.9759 8.95076 59.3555 9.28735C59.735 9.62036 59.932 10.0805 59.9463 10.6677V13.3425C59.9463 13.8761 60.0143 14.3004 60.1504 14.6155V14.7014H59.1084ZM57.4595 13.9441C57.771 13.9441 58.0664 13.8635 58.3457 13.7024C58.625 13.5413 58.8273 13.3318 58.9526 13.074V11.8816H58.1738C56.9564 11.8816 56.3477 12.2379 56.3477 12.9504C56.3477 13.262 56.4515 13.5055 56.6592 13.6809C56.8669 13.8564 57.1336 13.9441 57.4595 13.9441ZM65.7363 9.69556H63.7866V14.7014H62.793V9.69556H60.8809V8.88989H65.7363V9.69556ZM67.7881 10.8933H69.2974C69.9562 10.9005 70.4772 11.0723 70.8604 11.4089C71.2435 11.7455 71.4351 12.2021 71.4351 12.7786C71.4351 13.3586 71.2381 13.8241 70.8442 14.175C70.4504 14.526 69.9204 14.7014 69.2544 14.7014H66.7944V8.88989H67.7881V10.8933ZM67.7881 11.7043V13.8904H69.2651C69.6375 13.8904 69.9258 13.7955 70.1299 13.6057C70.334 13.4124 70.436 13.1492 70.436 12.8162C70.436 12.4939 70.3358 12.2307 70.1353 12.0266C69.9383 11.8189 69.6608 11.7115 69.3027 11.7043H67.7881Z" fill="#555555"/>
<path d="M21.5103 8.60712L15.8934 14.0457L12.7729 10.9252" stroke="#555555" stroke-width="2"/>
</svg>
