<svg width="171" height="23" viewBox="0 0 171 23" fill="none" xmlns="http://www.w3.org/2000/svg">
<rect x="1.25" y="1.10101" width="168.583" height="21" rx="1.5" fill="#ECF5DD" stroke="#C5D2B1"/>
<path d="M56.7147 14.976V7.1557H59.2713C60.1199 7.1557 60.7573 7.33116 61.1834 7.68207C61.6131 8.03298 61.8279 8.55219 61.8279 9.23969C61.8279 9.60492 61.7241 9.92898 61.5164 10.2119C61.3087 10.4911 61.0259 10.7078 60.6678 10.8618C61.0903 10.9799 61.4233 11.2055 61.6668 11.5385C61.9139 11.8679 62.0374 12.2618 62.0374 12.7202C62.0374 13.422 61.81 13.9734 61.3553 14.3745C60.9005 14.7755 60.2578 14.976 59.4271 14.976H56.7147ZM57.7459 11.3183V14.1328H59.4485C59.9284 14.1328 60.3061 14.0092 60.5818 13.7621C60.8611 13.5115 61.0008 13.1677 61.0008 12.7309C61.0008 11.7892 60.4887 11.3183 59.4647 11.3183H57.7459ZM57.7459 10.4911H59.3035C59.7547 10.4911 60.1146 10.3784 60.3831 10.1528C60.6553 9.92719 60.7913 9.62103 60.7913 9.23431C60.7913 8.80463 60.666 8.4931 60.4153 8.29974C60.1647 8.1028 59.7833 8.00433 59.2713 8.00433H57.7459V10.4911ZM64.4974 11.1679H66.0067C66.6655 11.1751 67.1865 11.3469 67.5696 11.6835C67.9528 12.0201 68.1443 12.4767 68.1443 13.0532C68.1443 13.6332 67.9474 14.0987 67.5535 14.4496C67.1596 14.8006 66.6297 14.976 65.9637 14.976H63.5037V9.16449H64.4974V11.1679ZM70.2176 14.976H69.2186V9.16449H70.2176V14.976ZM64.4974 11.9789V14.165H65.9744C66.3468 14.165 66.6351 14.0701 66.8392 13.8803C67.0433 13.687 67.1453 13.4238 67.1453 13.0908C67.1453 12.7685 67.0451 12.5053 66.8445 12.3012C66.6476 12.0935 66.3701 11.9861 66.012 11.9789H64.4974ZM76.7059 14.976H75.7122V9.98627H73.0374V14.976H72.0384V9.16449H76.7059V14.976ZM78.0379 12.0165C78.0379 11.4472 78.1489 10.9352 78.3709 10.4804C78.5965 10.0257 78.908 9.67474 79.3055 9.42767C79.7065 9.1806 80.1631 9.05707 80.6751 9.05707C81.4665 9.05707 82.1056 9.33099 82.5926 9.87885C83.0832 10.4267 83.3284 11.1554 83.3284 12.0649V12.1347C83.3284 12.7005 83.2192 13.2089 83.0008 13.6601C82.7859 14.1077 82.4762 14.4568 82.0716 14.7075C81.6706 14.9581 81.2086 15.0834 80.6859 15.0834C79.8981 15.0834 79.2589 14.8095 78.7684 14.2617C78.2814 13.7138 78.0379 12.9887 78.0379 12.0864V12.0165ZM79.0369 12.1347C79.0369 12.7792 79.1855 13.2967 79.4827 13.687C79.7835 14.0773 80.1845 14.2724 80.6859 14.2724C81.1907 14.2724 81.5918 14.0755 81.889 13.6816C82.1862 13.2841 82.3348 12.7291 82.3348 12.0165C82.3348 11.3792 82.1826 10.8635 81.8782 10.4697C81.5775 10.0722 81.1764 9.87347 80.6751 9.87347C80.1845 9.87347 79.7889 10.0686 79.4881 10.4589C79.1873 10.8492 79.0369 11.4078 79.0369 12.1347ZM89.2527 9.16449V14.976H88.2537V9.98627H86.2772L86.159 12.1616C86.0945 13.1606 85.9262 13.8749 85.6541 14.3046C85.3856 14.7343 84.9577 14.9581 84.3704 14.976H83.973V14.1005L84.2576 14.079C84.5799 14.0432 84.8109 13.857 84.9505 13.5204C85.0901 13.1839 85.1797 12.5608 85.2191 11.6513L85.3265 9.16449H89.2527ZM95.596 14.976H94.6024V12.4946H91.9329V14.976H90.9339V9.16449H91.9329V11.6835H94.6024V9.16449H95.596V14.976ZM99.6082 15.0834C98.8205 15.0834 98.1795 14.8256 97.6854 14.31C97.1912 13.7908 96.9442 13.0979 96.9442 12.2314V12.0488C96.9442 11.4723 97.0534 10.9584 97.2718 10.5073C97.4938 10.0525 97.8017 9.69802 98.1956 9.44379C98.5931 9.18597 99.0228 9.05707 99.4847 9.05707C100.24 9.05707 100.827 9.30593 101.246 9.80365C101.665 10.3014 101.875 11.0139 101.875 11.9413V12.3549H97.9378C97.9521 12.9278 98.1186 13.3915 98.4373 13.746C98.7596 14.0969 99.1678 14.2724 99.6619 14.2724C100.013 14.2724 100.31 14.2008 100.554 14.0576C100.797 13.9143 101.01 13.7245 101.193 13.4882L101.8 13.9609C101.313 14.7092 100.582 15.0834 99.6082 15.0834ZM99.4847 9.87347C99.0836 9.87347 98.747 10.0203 98.4749 10.3139C98.2028 10.6039 98.0345 11.0121 97.97 11.5385H100.881V11.4633C100.853 10.9584 100.716 10.5681 100.473 10.2924C100.229 10.0131 99.9 9.87347 99.4847 9.87347ZM107.778 14.976H106.784V12.4946H104.115V14.976H103.116V9.16449H104.115V11.6835H106.784V9.16449H107.778V14.976ZM112.966 14.976C112.909 14.8614 112.862 14.6573 112.826 14.3637C112.365 14.8435 111.813 15.0834 111.172 15.0834C110.599 15.0834 110.128 14.9223 109.76 14.6C109.394 14.2742 109.212 13.8624 109.212 13.3647C109.212 12.7595 109.441 12.2905 109.899 11.9575C110.361 11.6209 111.009 11.4526 111.844 11.4526H112.81V10.996C112.81 10.6487 112.707 10.373 112.499 10.1689C112.291 9.9612 111.985 9.85736 111.58 9.85736C111.226 9.85736 110.929 9.94688 110.689 10.1259C110.449 10.305 110.329 10.5216 110.329 10.7758H109.33C109.33 10.4858 109.432 10.2065 109.636 9.93793C109.844 9.66579 110.123 9.45095 110.474 9.2934C110.828 9.13584 111.217 9.05707 111.639 9.05707C112.309 9.05707 112.834 9.22536 113.213 9.56195C113.593 9.89496 113.79 10.3551 113.804 10.9423V13.6171C113.804 14.1507 113.872 14.575 114.008 14.8901V14.976H112.966ZM111.317 14.2187C111.629 14.2187 111.924 14.1381 112.203 13.977C112.483 13.8159 112.685 13.6064 112.81 13.3486V12.1562H112.032C110.814 12.1562 110.205 12.5125 110.205 13.225C110.205 13.5366 110.309 13.78 110.517 13.9555C110.725 14.131 110.991 14.2187 111.317 14.2187Z" fill="#555555"/>
</svg>
