<svg width="171" height="23" viewBox="0 0 171 23" fill="none" xmlns="http://www.w3.org/2000/svg">
<rect x="1.25" y="1.10101" width="168.583" height="21" rx="1.5" fill="#ECF5DD" stroke="#C5D2B1"/>
<path d="M60.9734 9.2558C60.9734 8.84043 60.8213 8.51101 60.5169 8.26752C60.2161 8.02045 59.7918 7.89691 59.244 7.89691C58.7856 7.89691 58.4007 8.02403 58.0892 8.27826C57.7812 8.52891 57.6273 8.84043 57.6273 9.21283H56.596C56.596 8.79747 56.7088 8.42507 56.9344 8.09564C57.1636 7.76622 57.4822 7.51019 57.8904 7.32758C58.2986 7.14138 58.7498 7.04828 59.244 7.04828C60.1177 7.04828 60.7962 7.24522 61.2796 7.6391C61.763 8.0294 62.0047 8.57367 62.0047 9.27191C62.0047 9.63357 61.8937 9.96299 61.6717 10.2602C61.4497 10.5574 61.14 10.7919 60.7425 10.9638C61.6627 11.2717 62.1229 11.8823 62.1229 12.7953C62.1229 13.4972 61.8615 14.054 61.3387 14.4658C60.8159 14.8775 60.1177 15.0834 59.244 15.0834C58.7248 15.0834 58.2521 14.9921 57.826 14.8095C57.4035 14.6233 57.074 14.3601 56.8377 14.02C56.6014 13.6798 56.4832 13.2752 56.4832 12.8061H57.5145C57.5145 13.2179 57.6774 13.5616 58.0032 13.8373C58.3291 14.1095 58.7427 14.2455 59.244 14.2455C59.8061 14.2455 60.2537 14.1148 60.5867 13.8535C60.9233 13.5921 61.0916 13.2465 61.0916 12.8168C61.0916 11.9002 60.5241 11.4329 59.389 11.415H58.4222V10.5663H59.3836C59.9064 10.5556 60.3021 10.4374 60.5706 10.2119C60.8392 9.98627 60.9734 9.66758 60.9734 9.2558ZM66.9246 14.976C66.8673 14.8614 66.8208 14.6573 66.785 14.3637C66.3231 14.8435 65.7716 15.0834 65.1307 15.0834C64.5578 15.0834 64.0869 14.9223 63.7181 14.6C63.3528 14.2742 63.1702 13.8624 63.1702 13.3647C63.1702 12.7595 63.3994 12.2905 63.8577 11.9575C64.3196 11.6209 64.9678 11.4526 65.8021 11.4526H66.7689V10.996C66.7689 10.6487 66.665 10.373 66.4573 10.1689C66.2497 9.9612 65.9435 9.85736 65.5389 9.85736C65.1844 9.85736 64.8872 9.94688 64.6473 10.1259C64.4074 10.305 64.2874 10.5216 64.2874 10.7758H63.2884C63.2884 10.4858 63.3904 10.2065 63.5945 9.93793C63.8022 9.66579 64.0815 9.45095 64.4324 9.2934C64.7869 9.13584 65.1754 9.05707 65.598 9.05707C66.2676 9.05707 66.7921 9.22536 67.1717 9.56195C67.5512 9.89496 67.7482 10.3551 67.7625 10.9423V13.6171C67.7625 14.1507 67.8305 14.575 67.9666 14.8901V14.976H66.9246ZM65.2757 14.2187C65.5872 14.2187 65.8826 14.1381 66.1619 13.977C66.4412 13.8159 66.6435 13.6064 66.7689 13.3486V12.1562H65.9901C64.7726 12.1562 64.1639 12.5125 64.1639 13.225C64.1639 13.5366 64.2677 13.78 64.4754 13.9555C64.6831 14.131 64.9498 14.2187 65.2757 14.2187ZM69.4114 14.976V9.16449H71.678C72.4515 9.16449 73.0441 9.30056 73.4559 9.57269C73.8712 9.84125 74.0789 10.2369 74.0789 10.7597C74.0789 11.0283 73.9984 11.2717 73.8372 11.4902C73.6761 11.705 73.438 11.8697 73.1229 11.9843C73.4738 12.0667 73.7549 12.2278 73.9661 12.4677C74.181 12.7076 74.2884 12.9941 74.2884 13.3271C74.2884 13.8606 74.0915 14.2688 73.6976 14.5517C73.3073 14.8346 72.754 14.976 72.0379 14.976H69.4114ZM70.4051 12.4247V14.1757H72.0486C72.464 14.1757 72.7737 14.0987 72.9778 13.9448C73.1855 13.7908 73.2894 13.5742 73.2894 13.2949C73.2894 12.7148 72.8633 12.4247 72.011 12.4247H70.4051ZM70.4051 11.6298H71.6888C72.6198 11.6298 73.0853 11.3577 73.0853 10.8134C73.0853 10.2691 72.6448 9.98806 71.764 9.97015H70.4051V11.6298ZM78.0159 15.0834C77.2282 15.0834 76.5872 14.8256 76.0931 14.31C75.5989 13.7908 75.3519 13.0979 75.3519 12.2314V12.0488C75.3519 11.4723 75.4611 10.9584 75.6795 10.5073C75.9015 10.0525 76.2095 9.69802 76.6033 9.44379C77.0008 9.18597 77.4305 9.05707 77.8924 9.05707C78.6479 9.05707 79.2352 9.30593 79.6541 9.80365C80.0731 10.3014 80.2825 11.0139 80.2825 11.9413V12.3549H76.3455C76.3598 12.9278 76.5263 13.3915 76.845 13.746C77.1673 14.0969 77.5755 14.2724 78.0696 14.2724C78.4206 14.2724 78.7178 14.2008 78.9612 14.0576C79.2047 13.9143 79.4178 13.7245 79.6004 13.4882L80.2073 13.9609C79.7204 14.7092 78.9899 15.0834 78.0159 15.0834ZM77.8924 9.87347C77.4914 9.87347 77.1548 10.0203 76.8826 10.3139C76.6105 10.6039 76.4422 11.0121 76.3777 11.5385H79.2889V11.4633C79.2602 10.9584 79.1242 10.5681 78.8807 10.2924C78.6372 10.0131 78.3078 9.87347 77.8924 9.87347ZM86.3465 12.1347C86.3465 13.0191 86.1442 13.7317 85.7396 14.2724C85.3349 14.8131 84.7871 15.0834 84.096 15.0834C83.3906 15.0834 82.8356 14.8596 82.431 14.412V17.2104H81.4373V9.16449H82.345L82.3934 9.80902C82.798 9.30772 83.3602 9.05707 84.0799 9.05707C84.7781 9.05707 85.3296 9.32025 85.7342 9.84662C86.1424 10.373 86.3465 11.1052 86.3465 12.0434V12.1347ZM85.3528 12.0219C85.3528 11.3666 85.2132 10.8492 84.9339 10.4697C84.6546 10.0901 84.2715 9.90033 83.7845 9.90033C83.1829 9.90033 82.7318 10.1671 82.431 10.7006V13.4775C82.7282 14.0074 83.1829 14.2724 83.7952 14.2724C84.2715 14.2724 84.6492 14.0844 84.9285 13.7084C85.2114 13.3289 85.3528 12.7667 85.3528 12.0219ZM88.699 9.16449V14.165H90.826V9.16449H91.8196V14.165H93.9412V9.16449H94.9402V14.976H87.7V9.16449H88.699ZM100.268 9.16449H101.262V14.976H100.268V10.7382L97.5882 14.976H96.5945V9.16449H97.5882V13.4077L100.268 9.16449ZM107.176 9.97015H105.226V14.976H104.232V9.97015H102.32V9.16449H107.176V9.97015ZM109.227 11.1679H110.737C111.395 11.1751 111.916 11.3469 112.3 11.6835C112.683 12.0201 112.874 12.4767 112.874 13.0532C112.874 13.6332 112.677 14.0987 112.284 14.4496C111.89 14.8006 111.36 14.976 110.694 14.976H108.234V9.16449H109.227V11.1679ZM109.227 11.9789V14.165H110.704C111.077 14.165 111.365 14.0701 111.569 13.8803C111.773 13.687 111.875 13.4238 111.875 13.0908C111.875 12.7685 111.775 12.5053 111.575 12.3012C111.378 12.0935 111.1 11.9861 110.742 11.9789H109.227Z" fill="#555555"/>
</svg>
