<svg width="170" height="23" viewBox="0 0 170 23" fill="none" xmlns="http://www.w3.org/2000/svg">
<rect x="0.668213" y="1.10101" width="168.583" height="21" rx="1.5" fill="#ECF5DD" stroke="#C5D2B1"/>
<path d="M33.5098 14.976H32.4731V11.3613H28.5308V14.976H27.4995V7.1557H28.5308V10.518H32.4731V7.1557H33.5098V14.976ZM38.7734 14.976C38.7161 14.8614 38.6696 14.6573 38.6338 14.3637C38.1719 14.8435 37.6204 15.0834 36.9795 15.0834C36.4066 15.0834 35.9357 14.9223 35.5669 14.6C35.2017 14.2742 35.019 13.8624 35.019 13.3647C35.019 12.7595 35.2482 12.2905 35.7065 11.9575C36.1685 11.6209 36.8166 11.4526 37.6509 11.4526H38.6177V10.996C38.6177 10.6487 38.5138 10.373 38.3062 10.1689C38.0985 9.9612 37.7923 9.85736 37.3877 9.85736C37.0332 9.85736 36.736 9.94688 36.4961 10.1259C36.2562 10.305 36.1362 10.5216 36.1362 10.7758H35.1372C35.1372 10.4858 35.2393 10.2065 35.4434 9.93793C35.651 9.66579 35.9303 9.45095 36.2812 9.2934C36.6357 9.13584 37.0243 9.05707 37.4468 9.05707C38.1164 9.05707 38.641 9.22536 39.0205 9.56195C39.4001 9.89496 39.597 10.3551 39.6113 10.9423V13.6171C39.6113 14.1507 39.6794 14.575 39.8154 14.8901V14.976H38.7734ZM37.1245 14.2187C37.436 14.2187 37.7314 14.1381 38.0107 13.977C38.29 13.8159 38.4924 13.6064 38.6177 13.3486V12.1562H37.8389C36.6214 12.1562 36.0127 12.5125 36.0127 13.225C36.0127 13.5366 36.1165 13.78 36.3242 13.9555C36.5319 14.131 36.7987 14.2187 37.1245 14.2187ZM45.9331 9.16449V14.976H44.9341V9.98627H42.9575L42.8394 12.1616C42.7749 13.1606 42.6066 13.8749 42.3345 14.3046C42.0659 14.7343 41.638 14.9581 41.0508 14.976H40.6533V14.1005L40.938 14.079C41.2603 14.0432 41.4912 13.857 41.6309 13.5204C41.7705 13.1839 41.86 12.5608 41.8994 11.6513L42.0068 9.16449H45.9331ZM47.2651 12.0165C47.2651 11.4472 47.3761 10.9352 47.5981 10.4804C47.8237 10.0257 48.1353 9.67474 48.5327 9.42767C48.9338 9.1806 49.3903 9.05707 49.9023 9.05707C50.6937 9.05707 51.3328 9.33099 51.8198 9.87885C52.3104 10.4267 52.5557 11.1554 52.5557 12.0649V12.1347C52.5557 12.7005 52.4465 13.2089 52.228 13.6601C52.0132 14.1077 51.7035 14.4568 51.2988 14.7075C50.8978 14.9581 50.4359 15.0834 49.9131 15.0834C49.1253 15.0834 48.4862 14.8095 47.9956 14.2617C47.5086 13.7138 47.2651 12.9887 47.2651 12.0864V12.0165ZM48.2642 12.1347C48.2642 12.7792 48.4128 13.2967 48.71 13.687C49.0107 14.0773 49.4118 14.2724 49.9131 14.2724C50.418 14.2724 50.819 14.0755 51.1162 13.6816C51.4134 13.2841 51.562 12.7291 51.562 12.0165C51.562 11.3792 51.4098 10.8635 51.1055 10.4697C50.8047 10.0722 50.4036 9.87347 49.9023 9.87347C49.4118 9.87347 49.0161 10.0686 48.7153 10.4589C48.4146 10.8492 48.2642 11.4078 48.2642 12.1347ZM58.3188 12.4516H57.6206V14.976H56.627V12.4516H55.9287L54.3013 14.976H53.0444L55.123 11.9682L53.2432 9.16449H54.4463L55.9448 11.5707H56.627V9.16449H57.6206V11.5707H58.2974L59.8066 9.16449H61.0098L59.1245 11.9736L61.2031 14.976H59.9463L58.3188 12.4516ZM65.8652 9.16449H66.8589V14.976H65.8652V10.7382L63.1851 14.976H62.1914V9.16449H63.1851V13.4077L65.8652 9.16449ZM72.7725 9.97015H70.8228V14.976H69.8291V9.97015H67.917V9.16449H72.7725V9.97015ZM74.8242 11.1679H76.3335C76.9924 11.1751 77.5133 11.3469 77.8965 11.6835C78.2796 12.0201 78.4712 12.4767 78.4712 13.0532C78.4712 13.6332 78.2743 14.0987 77.8804 14.4496C77.4865 14.8006 76.9565 14.976 76.2905 14.976H73.8306V9.16449H74.8242V11.1679ZM74.8242 11.9789V14.165H76.3013C76.6737 14.165 76.9619 14.0701 77.166 13.8803C77.3701 13.687 77.4722 13.4238 77.4722 13.0908C77.4722 12.7685 77.3719 12.5053 77.1714 12.3012C76.9744 12.0935 76.6969 11.9861 76.3389 11.9789H74.8242ZM87.3496 12.1347C87.3496 13.0191 87.1473 13.7317 86.7427 14.2724C86.3381 14.8131 85.7902 15.0834 85.0991 15.0834C84.3937 15.0834 83.8387 14.8596 83.4341 14.412V17.2104H82.4404V9.16449H83.3481L83.3965 9.80902C83.8011 9.30772 84.3633 9.05707 85.083 9.05707C85.7812 9.05707 86.3327 9.32025 86.7373 9.84662C87.1455 10.373 87.3496 11.1052 87.3496 12.0434V12.1347ZM86.356 12.0219C86.356 11.3666 86.2163 10.8492 85.937 10.4697C85.6577 10.0901 85.2746 9.90033 84.7876 9.90033C84.186 9.90033 83.7349 10.1671 83.4341 10.7006V13.4775C83.7313 14.0074 84.186 14.2724 84.7983 14.2724C85.2746 14.2724 85.6523 14.0844 85.9316 13.7084C86.2145 13.3289 86.356 12.7667 86.356 12.0219ZM91.0288 15.0834C90.241 15.0834 89.6001 14.8256 89.106 14.31C88.6118 13.7908 88.3647 13.0979 88.3647 12.2314V12.0488C88.3647 11.4723 88.474 10.9584 88.6924 10.5073C88.9144 10.0525 89.2223 9.69802 89.6162 9.44379C90.0137 9.18597 90.4434 9.05707 90.9053 9.05707C91.6608 9.05707 92.248 9.30593 92.667 9.80365C93.0859 10.3014 93.2954 11.0139 93.2954 11.9413V12.3549H89.3584C89.3727 12.9278 89.5392 13.3915 89.8579 13.746C90.1802 14.0969 90.5884 14.2724 91.0825 14.2724C91.4334 14.2724 91.7306 14.2008 91.9741 14.0576C92.2176 13.9143 92.4307 13.7245 92.6133 13.4882L93.2202 13.9609C92.7332 14.7092 92.0028 15.0834 91.0288 15.0834ZM90.9053 9.87347C90.5042 9.87347 90.1676 10.0203 89.8955 10.3139C89.6234 10.6039 89.4551 11.0121 89.3906 11.5385H92.3018V11.4633C92.2731 10.9584 92.137 10.5681 91.8936 10.2924C91.6501 10.0131 91.3206 9.87347 90.9053 9.87347ZM97.646 10.7543C97.646 10.4822 97.5422 10.2674 97.3345 10.1098C97.1268 9.94867 96.8421 9.8681 96.4805 9.8681C96.1296 9.8681 95.8359 9.95941 95.5996 10.142C95.3669 10.3246 95.2505 10.5395 95.2505 10.7866H94.2622C94.2622 10.2817 94.4735 9.8681 94.896 9.54584C95.3185 9.22357 95.8467 9.06244 96.4805 9.06244C97.1608 9.06244 97.6908 9.20925 98.0703 9.50287C98.4499 9.79291 98.6396 10.2083 98.6396 10.749C98.6396 11.0104 98.5609 11.2503 98.4033 11.4687C98.2458 11.6871 98.022 11.8608 97.7319 11.9897C98.4087 12.2189 98.7471 12.67 98.7471 13.3432C98.7471 13.8767 98.5412 14.2993 98.1294 14.6108C97.7176 14.9223 97.168 15.0781 96.4805 15.0781C95.8109 15.0781 95.2576 14.9151 94.8208 14.5893C94.3875 14.2599 94.1709 13.8159 94.1709 13.2573H95.1592C95.1592 13.5401 95.2845 13.7836 95.5352 13.9877C95.7894 14.1883 96.1045 14.2885 96.4805 14.2885C96.86 14.2885 97.1662 14.2008 97.3989 14.0253C97.6317 13.8499 97.748 13.6225 97.748 13.3432C97.748 13.0174 97.6496 12.7846 97.4526 12.645C97.2593 12.5017 96.9567 12.4301 96.5449 12.4301H95.5513V11.5922H96.6309C97.3076 11.5743 97.646 11.295 97.646 10.7543ZM99.7729 12.0165C99.7729 11.4472 99.884 10.9352 100.106 10.4804C100.332 10.0257 100.643 9.67474 101.041 9.42767C101.442 9.1806 101.898 9.05707 102.41 9.05707C103.201 9.05707 103.841 9.33099 104.328 9.87885C104.818 10.4267 105.063 11.1554 105.063 12.0649V12.1347C105.063 12.7005 104.954 13.2089 104.736 13.6601C104.521 14.1077 104.211 14.4568 103.807 14.7075C103.406 14.9581 102.944 15.0834 102.421 15.0834C101.633 15.0834 100.994 14.8095 100.503 14.2617C100.016 13.7138 99.7729 12.9887 99.7729 12.0864V12.0165ZM100.772 12.1347C100.772 12.7792 100.921 13.2967 101.218 13.687C101.519 14.0773 101.92 14.2724 102.421 14.2724C102.926 14.2724 103.327 14.0755 103.624 13.6816C103.921 13.2841 104.07 12.7291 104.07 12.0165C104.07 11.3792 103.918 10.8635 103.613 10.4697C103.312 10.0722 102.911 9.87347 102.41 9.87347C101.92 9.87347 101.524 10.0686 101.223 10.4589C100.922 10.8492 100.772 11.4078 100.772 12.1347ZM110.988 9.16449V14.976H109.989V9.98627H108.012L107.894 12.1616C107.83 13.1606 107.661 13.8749 107.389 14.3046C107.121 14.7343 106.693 14.9581 106.105 14.976H105.708V14.1005L105.993 14.079C106.315 14.0432 106.546 13.857 106.686 13.5204C106.825 13.1839 106.915 12.5608 106.954 11.6513L107.062 9.16449H110.988ZM113.668 11.6298H115.064C115.14 10.8564 115.414 10.2351 115.886 9.76605C116.362 9.2934 116.962 9.05707 117.686 9.05707C118.445 9.05707 119.066 9.31309 119.549 9.82513C120.033 10.3372 120.294 11.0032 120.333 11.8232L120.339 12.1347C120.339 12.7005 120.228 13.2107 120.006 13.6655C119.784 14.1202 119.472 14.4711 119.071 14.7182C118.67 14.9617 118.212 15.0834 117.696 15.0834C116.948 15.0834 116.336 14.8399 115.859 14.353C115.383 13.8624 115.116 13.2268 115.059 12.4462H113.668V14.976H112.674V9.16449H113.668V11.6298ZM116.042 12.1347C116.042 12.7792 116.191 13.2967 116.488 13.687C116.789 14.0773 117.191 14.2724 117.696 14.2724C118.201 14.2724 118.6 14.0737 118.894 13.6762C119.191 13.2787 119.34 12.7255 119.34 12.0165C119.34 11.3828 119.189 10.8671 118.889 10.4697C118.588 10.0722 118.187 9.87347 117.686 9.87347C117.191 9.87347 116.794 10.0686 116.493 10.4589C116.192 10.8492 116.042 11.4078 116.042 12.1347ZM121.649 9.16449H122.648V14.165H125.323V9.16449H126.317V14.165H127.01L126.913 16.7001H126.021V14.976H121.649V9.16449ZM131.844 9.16449H132.837V14.976H131.844V10.7382L129.164 14.976H128.17V9.16449H129.164V13.4077L131.844 9.16449ZM135.518 11.6298H136.914C136.989 10.8564 137.263 10.2351 137.736 9.76605C138.212 9.2934 138.812 9.05707 139.535 9.05707C140.294 9.05707 140.916 9.31309 141.399 9.82513C141.882 10.3372 142.144 11.0032 142.183 11.8232L142.188 12.1347C142.188 12.7005 142.077 13.2107 141.855 13.6655C141.633 14.1202 141.322 14.4711 140.921 14.7182C140.52 14.9617 140.062 15.0834 139.546 15.0834C138.798 15.0834 138.185 14.8399 137.709 14.353C137.233 13.8624 136.966 13.2268 136.909 12.4462H135.518V14.976H134.524V9.16449H135.518V11.6298ZM137.892 12.1347C137.892 12.7792 138.04 13.2967 138.337 13.687C138.638 14.0773 139.041 14.2724 139.546 14.2724C140.051 14.2724 140.45 14.0737 140.744 13.6762C141.041 13.2787 141.189 12.7255 141.189 12.0165C141.189 11.3828 141.039 10.8671 140.738 10.4697C140.438 10.0722 140.036 9.87347 139.535 9.87347C139.041 9.87347 138.644 10.0686 138.343 10.4589C138.042 10.8492 137.892 11.4078 137.892 12.1347Z" fill="#555555"/>
</svg>
