<svg width="171" height="23" viewBox="0 0 171 23" fill="none" xmlns="http://www.w3.org/2000/svg">
<rect x="0.918091" y="1.10101" width="168.583" height="21" rx="1.5" fill="#ECF5DD" stroke="#C5D2B1"/>
<path d="M42.3212 9.2558C42.3212 8.84043 42.169 8.51101 41.8647 8.26752C41.5639 8.02045 41.1396 7.89691 40.5917 7.89691C40.1334 7.89691 39.7485 8.02403 39.437 8.27826C39.129 8.52891 38.975 8.84043 38.975 9.21283H37.9438C37.9438 8.79747 38.0566 8.42507 38.2822 8.09564C38.5113 7.76622 38.83 7.51019 39.2382 7.32758C39.6464 7.14138 40.0976 7.04828 40.5917 7.04828C41.4654 7.04828 42.144 7.24522 42.6274 7.6391C43.1108 8.0294 43.3525 8.57367 43.3525 9.27191C43.3525 9.63357 43.2415 9.96299 43.0195 10.2602C42.7975 10.5574 42.4877 10.7919 42.0903 10.9638C43.0105 11.2717 43.4706 11.8823 43.4706 12.7953C43.4706 13.4972 43.2092 14.054 42.6865 14.4658C42.1637 14.8775 41.4654 15.0834 40.5917 15.0834C40.0725 15.0834 39.5999 14.9921 39.1738 14.8095C38.7512 14.6233 38.4218 14.3601 38.1855 14.02C37.9492 13.6798 37.831 13.2752 37.831 12.8061H38.8622C38.8622 13.2179 39.0252 13.5616 39.351 13.8373C39.6769 14.1095 40.0904 14.2455 40.5917 14.2455C41.1539 14.2455 41.6015 14.1148 41.9345 13.8535C42.2711 13.5921 42.4394 13.2465 42.4394 12.8168C42.4394 11.9002 41.8718 11.4329 40.7368 11.415H39.77V10.5663H40.7314C41.2542 10.5556 41.6498 10.4374 41.9184 10.2119C42.187 9.98627 42.3212 9.66758 42.3212 9.2558ZM48.2724 14.976C48.2151 14.8614 48.1686 14.6573 48.1328 14.3637C47.6708 14.8435 47.1194 15.0834 46.4785 15.0834C45.9055 15.0834 45.4347 14.9223 45.0659 14.6C44.7006 14.2742 44.518 13.8624 44.518 13.3647C44.518 12.7595 44.7472 12.2905 45.2055 11.9575C45.6674 11.6209 46.3155 11.4526 47.1498 11.4526H48.1166V10.996C48.1166 10.6487 48.0128 10.373 47.8051 10.1689C47.5974 9.9612 47.2913 9.85736 46.8867 9.85736C46.5322 9.85736 46.235 9.94688 45.9951 10.1259C45.7551 10.305 45.6352 10.5216 45.6352 10.7758H44.6362C44.6362 10.4858 44.7382 10.2065 44.9423 9.93793C45.15 9.66579 45.4293 9.45095 45.7802 9.2934C46.1347 9.13584 46.5232 9.05707 46.9457 9.05707C47.6153 9.05707 48.1399 9.22536 48.5195 9.56195C48.899 9.89496 49.096 10.3551 49.1103 10.9423V13.6171C49.1103 14.1507 49.1783 14.575 49.3144 14.8901V14.976H48.2724ZM46.6235 14.2187C46.935 14.2187 47.2304 14.1381 47.5097 13.977C47.789 13.8159 47.9913 13.6064 48.1166 13.3486V12.1562H47.3378C46.1204 12.1562 45.5117 12.5125 45.5117 13.225C45.5117 13.5366 45.6155 13.78 45.8232 13.9555C46.0309 14.131 46.2976 14.2187 46.6235 14.2187ZM55.5771 12.1347C55.5771 13.0191 55.3748 13.7317 54.9702 14.2724C54.5655 14.8131 54.0177 15.0834 53.3266 15.0834C52.6212 15.0834 52.0662 14.8596 51.6616 14.412V17.2104H50.6679V9.16449H51.5756L51.624 9.80902C52.0286 9.30772 52.5908 9.05707 53.3105 9.05707C54.0087 9.05707 54.5602 9.32025 54.9648 9.84662C55.373 10.373 55.5771 11.1052 55.5771 12.0434V12.1347ZM54.5834 12.0219C54.5834 11.3666 54.4438 10.8492 54.1645 10.4697C53.8852 10.0901 53.5021 9.90033 53.0151 9.90033C52.4135 9.90033 51.9623 10.1671 51.6616 10.7006V13.4775C51.9588 14.0074 52.4135 14.2724 53.0258 14.2724C53.5021 14.2724 53.8798 14.0844 54.1591 13.7084C54.442 13.3289 54.5834 12.7667 54.5834 12.0219ZM59.2563 15.0834C58.4685 15.0834 57.8276 14.8256 57.3334 14.31C56.8393 13.7908 56.5922 13.0979 56.5922 12.2314V12.0488C56.5922 11.4723 56.7014 10.9584 56.9199 10.5073C57.1419 10.0525 57.4498 9.69802 57.8437 9.44379C58.2411 9.18597 58.6708 9.05707 59.1328 9.05707C59.8883 9.05707 60.4755 9.30593 60.8945 9.80365C61.3134 10.3014 61.5229 11.0139 61.5229 11.9413V12.3549H57.5859C57.6002 12.9278 57.7667 13.3915 58.0854 13.746C58.4077 14.0969 58.8159 14.2724 59.31 14.2724C59.6609 14.2724 59.9581 14.2008 60.2016 14.0576C60.4451 13.9143 60.6581 13.7245 60.8408 13.4882L61.4477 13.9609C60.9607 14.7092 60.2302 15.0834 59.2563 15.0834ZM59.1328 9.87347C58.7317 9.87347 58.3951 10.0203 58.123 10.3139C57.8509 10.6039 57.6826 11.0121 57.6181 11.5385H60.5292V11.4633C60.5006 10.9584 60.3645 10.5681 60.121 10.2924C59.8775 10.0131 59.5481 9.87347 59.1328 9.87347ZM66.4321 9.98627H63.7519V14.976H62.7529V9.16449H66.4321V9.98627ZM71.0566 9.16449H72.0502V14.976H71.0566V10.7382L68.3764 14.976H67.3828V9.16449H68.3764V13.4077L71.0566 9.16449ZM75.9765 14.2724C76.331 14.2724 76.6407 14.165 76.9057 13.9501C77.1707 13.7353 77.3175 13.4667 77.3461 13.1445H78.2861C78.2682 13.4775 78.1536 13.7944 77.9423 14.0952C77.7311 14.3959 77.4482 14.6358 77.0937 14.8149C76.7428 14.9939 76.3704 15.0834 75.9765 15.0834C75.1852 15.0834 74.555 14.8203 74.0859 14.2939C73.6204 13.7639 73.3876 13.0406 73.3876 12.124V11.9575C73.3876 11.3917 73.4915 10.8886 73.6992 10.4482C73.9068 10.0078 74.204 9.66579 74.5908 9.4223C74.9811 9.17881 75.4412 9.05707 75.9711 9.05707C76.6228 9.05707 77.1635 9.25222 77.5932 9.64252C78.0265 10.0328 78.2574 10.5395 78.2861 11.1625H77.3461C77.3175 10.7866 77.1743 10.4786 76.9164 10.2387C76.6622 9.99522 76.3471 9.87347 75.9711 9.87347C75.4662 9.87347 75.0742 10.0561 74.7949 10.4213C74.5191 10.783 74.3813 11.3076 74.3813 11.9951V12.183C74.3813 12.8526 74.5191 13.3683 74.7949 13.7299C75.0706 14.0916 75.4645 14.2724 75.9765 14.2724ZM83.7216 9.97015H81.7719V14.976H80.7783V9.97015H78.8661V9.16449H83.7216V9.97015ZM89.5976 12.1347C89.5976 13.0191 89.3953 13.7317 88.9907 14.2724C88.586 14.8131 88.0382 15.0834 87.3471 15.0834C86.6417 15.0834 86.0867 14.8596 85.6821 14.412V17.2104H84.6884V9.16449H85.5961L85.6445 9.80902C86.0491 9.30772 86.6113 9.05707 87.331 9.05707C88.0292 9.05707 88.5807 9.32025 88.9853 9.84662C89.3935 10.373 89.5976 11.1052 89.5976 12.0434V12.1347ZM88.6039 12.0219C88.6039 11.3666 88.4643 10.8492 88.185 10.4697C87.9057 10.0901 87.5226 9.90033 87.0356 9.90033C86.434 9.90033 85.9828 10.1671 85.6821 10.7006V13.4775C85.9793 14.0074 86.434 14.2724 87.0463 14.2724C87.5226 14.2724 87.9003 14.0844 88.1796 13.7084C88.4625 13.3289 88.6039 12.7667 88.6039 12.0219ZM94.6249 9.16449H95.6186V14.976H94.6249V10.7382L91.9448 14.976H90.9511V9.16449H91.9448V13.4077L94.6249 9.16449ZM102.123 12.1347C102.123 13.0191 101.921 13.7317 101.516 14.2724C101.111 14.8131 100.564 15.0834 99.8725 15.0834C99.1671 15.0834 98.6121 14.8596 98.2075 14.412V17.2104H97.2138V9.16449H98.1215L98.1699 9.80902C98.5745 9.30772 99.1367 9.05707 99.8564 9.05707C100.555 9.05707 101.106 9.32025 101.511 9.84662C101.919 10.373 102.123 11.1052 102.123 12.0434V12.1347ZM101.129 12.0219C101.129 11.3666 100.99 10.8492 100.71 10.4697C100.431 10.0901 100.048 9.90033 99.561 9.90033C98.9594 9.90033 98.5082 10.1671 98.2075 10.7006V13.4775C98.5047 14.0074 98.9594 14.2724 99.5717 14.2724C100.048 14.2724 100.426 14.0844 100.705 13.7084C100.988 13.3289 101.129 12.7667 101.129 12.0219ZM103.127 12.0165C103.127 11.4472 103.238 10.9352 103.46 10.4804C103.686 10.0257 103.997 9.67474 104.395 9.42767C104.796 9.1806 105.253 9.05707 105.765 9.05707C106.556 9.05707 107.195 9.33099 107.682 9.87885C108.173 10.4267 108.418 11.1554 108.418 12.0649V12.1347C108.418 12.7005 108.309 13.2089 108.09 13.6601C107.875 14.1077 107.566 14.4568 107.161 14.7075C106.76 14.9581 106.298 15.0834 105.775 15.0834C104.988 15.0834 104.348 14.8095 103.858 14.2617C103.371 13.7138 103.127 12.9887 103.127 12.0864V12.0165ZM104.126 12.1347C104.126 12.7792 104.275 13.2967 104.572 13.687C104.873 14.0773 105.274 14.2724 105.775 14.2724C106.28 14.2724 106.681 14.0755 106.978 13.6816C107.276 13.2841 107.424 12.7291 107.424 12.0165C107.424 11.3792 107.272 10.8635 106.968 10.4697C106.667 10.0722 106.266 9.87347 105.765 9.87347C105.274 9.87347 104.878 10.0686 104.578 10.4589C104.277 10.8492 104.126 11.4078 104.126 12.1347ZM109.755 14.976V9.16449H112.022C112.795 9.16449 113.388 9.30056 113.8 9.57269C114.215 9.84125 114.423 10.2369 114.423 10.7597C114.423 11.0283 114.342 11.2717 114.181 11.4902C114.02 11.705 113.782 11.8697 113.467 11.9843C113.818 12.0667 114.099 12.2278 114.31 12.4677C114.525 12.7076 114.632 12.9941 114.632 13.3271C114.632 13.8606 114.435 14.2688 114.041 14.5517C113.651 14.8346 113.098 14.976 112.382 14.976H109.755ZM110.749 12.4247V14.1757H112.393C112.808 14.1757 113.118 14.0987 113.322 13.9448C113.529 13.7908 113.633 13.5742 113.633 13.2949C113.633 12.7148 113.207 12.4247 112.355 12.4247H110.749ZM110.749 11.6298H112.033C112.964 11.6298 113.429 11.3577 113.429 10.8134C113.429 10.2691 112.989 9.98806 112.108 9.97015H110.749V11.6298ZM119.536 14.976C119.479 14.8614 119.432 14.6573 119.396 14.3637C118.935 14.8435 118.383 15.0834 117.742 15.0834C117.169 15.0834 116.698 14.9223 116.33 14.6C115.964 14.2742 115.782 13.8624 115.782 13.3647C115.782 12.7595 116.011 12.2905 116.469 11.9575C116.931 11.6209 117.579 11.4526 118.414 11.4526H119.38V10.996C119.38 10.6487 119.276 10.373 119.069 10.1689C118.861 9.9612 118.555 9.85736 118.15 9.85736C117.796 9.85736 117.499 9.94688 117.259 10.1259C117.019 10.305 116.899 10.5216 116.899 10.7758H115.9C115.9 10.4858 116.002 10.2065 116.206 9.93793C116.414 9.66579 116.693 9.45095 117.044 9.2934C117.398 9.13584 117.787 9.05707 118.209 9.05707C118.879 9.05707 119.404 9.22536 119.783 9.56195C120.163 9.89496 120.36 10.3551 120.374 10.9423V13.6171C120.374 14.1507 120.442 14.575 120.578 14.8901V14.976H119.536ZM117.887 14.2187C118.199 14.2187 118.494 14.1381 118.773 13.977C119.053 13.8159 119.255 13.6064 119.38 13.3486V12.1562H118.602C117.384 12.1562 116.775 12.5125 116.775 13.225C116.775 13.5366 116.879 13.78 117.087 13.9555C117.295 14.131 117.561 14.2187 117.887 14.2187ZM126.164 9.97015H124.214V14.976H123.221V9.97015H121.309V9.16449H126.164V9.97015ZM128.216 11.1679H129.725C130.384 11.1751 130.905 11.3469 131.288 11.6835C131.671 12.0201 131.863 12.4767 131.863 13.0532C131.863 13.6332 131.666 14.0987 131.272 14.4496C130.878 14.8006 130.348 14.976 129.682 14.976H127.222V9.16449H128.216V11.1679ZM128.216 11.9789V14.165H129.693C130.065 14.165 130.353 14.0701 130.558 13.8803C130.762 13.687 130.864 13.4238 130.864 13.0908C130.864 12.7685 130.763 12.5053 130.563 12.3012C130.366 12.0935 130.088 11.9861 129.73 11.9789H128.216Z" fill="#555555"/>
</svg>
