<svg width="170" height="23" viewBox="0 0 170 23" fill="none" xmlns="http://www.w3.org/2000/svg">
<rect x="0.668213" y="1.10101" width="168.583" height="21" rx="1.5" fill="#ECF5DD" stroke="#C5D2B1"/>
<path d="M23.3477 11.3183C23.3477 12.0846 23.2188 12.7542 22.9609 13.3271C22.7031 13.8964 22.3379 14.3315 21.8652 14.6323C21.3926 14.933 20.8411 15.0834 20.2109 15.0834C19.5951 15.0834 19.049 14.933 18.5728 14.6323C18.0965 14.3279 17.7259 13.8964 17.4609 13.3378C17.1995 12.7757 17.0653 12.1258 17.0581 11.3881V10.8242C17.0581 10.0722 17.1888 9.40798 17.4502 8.83148C17.7116 8.25498 18.0804 7.81455 18.5566 7.51019C19.0365 7.20225 19.5843 7.04828 20.2002 7.04828C20.8268 7.04828 21.3783 7.20046 21.8545 7.50482C22.3343 7.8056 22.7031 8.24424 22.9609 8.82074C23.2188 9.39366 23.3477 10.0615 23.3477 10.8242V11.3183ZM22.3218 10.8134C22.3218 9.88601 22.1356 9.17523 21.7632 8.68109C21.3908 8.18337 20.8698 7.93451 20.2002 7.93451C19.5485 7.93451 19.0347 8.18337 18.6587 8.68109C18.2863 9.17523 18.0947 9.86273 18.084 10.7436V11.3183C18.084 12.2171 18.272 12.9243 18.6479 13.4399C19.0275 13.9519 19.5485 14.2079 20.2109 14.2079C20.877 14.2079 21.3926 13.9662 21.7578 13.4828C22.123 12.9959 22.311 12.2994 22.3218 11.3935V10.8134ZM27.9346 10.7543C27.9346 10.4822 27.8307 10.2674 27.623 10.1098C27.4154 9.94867 27.1307 9.8681 26.769 9.8681C26.4181 9.8681 26.1245 9.95941 25.8882 10.142C25.6554 10.3246 25.5391 10.5395 25.5391 10.7866H24.5508C24.5508 10.2817 24.762 9.8681 25.1846 9.54584C25.6071 9.22357 26.1353 9.06244 26.769 9.06244C27.4494 9.06244 27.9793 9.20925 28.3589 9.50287C28.7384 9.79291 28.9282 10.2083 28.9282 10.749C28.9282 11.0104 28.8494 11.2503 28.6919 11.4687C28.5343 11.6871 28.3105 11.8608 28.0205 11.9897C28.6973 12.2189 29.0356 12.67 29.0356 13.3432C29.0356 13.8767 28.8298 14.2993 28.418 14.6108C28.0062 14.9223 27.4565 15.0781 26.769 15.0781C26.0994 15.0781 25.5462 14.9151 25.1094 14.5893C24.6761 14.2599 24.4595 13.8159 24.4595 13.2573H25.4478C25.4478 13.5401 25.5731 13.7836 25.8237 13.9877C26.078 14.1883 26.3931 14.2885 26.769 14.2885C27.1486 14.2885 27.4548 14.2008 27.6875 14.0253C27.9202 13.8499 28.0366 13.6225 28.0366 13.3432C28.0366 13.0174 27.9382 12.7846 27.7412 12.645C27.5479 12.5017 27.2453 12.4301 26.8335 12.4301H25.8398V11.5922H26.9194C27.5962 11.5743 27.9346 11.295 27.9346 10.7543ZM35.0728 14.976H34.0791V12.4946H31.4097V14.976H30.4106V9.16449H31.4097V11.6835H34.0791V9.16449H35.0728V14.976ZM40.2612 14.976C40.2039 14.8614 40.1574 14.6573 40.1216 14.3637C39.6597 14.8435 39.1082 15.0834 38.4673 15.0834C37.8944 15.0834 37.4235 14.9223 37.0547 14.6C36.6895 14.2742 36.5068 13.8624 36.5068 13.3647C36.5068 12.7595 36.736 12.2905 37.1943 11.9575C37.6562 11.6209 38.3044 11.4526 39.1387 11.4526H40.1055V10.996C40.1055 10.6487 40.0016 10.373 39.7939 10.1689C39.5863 9.9612 39.2801 9.85736 38.8755 9.85736C38.521 9.85736 38.2238 9.94688 37.9839 10.1259C37.744 10.305 37.624 10.5216 37.624 10.7758H36.625C36.625 10.4858 36.7271 10.2065 36.9312 9.93793C37.1388 9.66579 37.4181 9.45095 37.769 9.2934C38.1235 9.13584 38.512 9.05707 38.9346 9.05707C39.6042 9.05707 40.1287 9.22536 40.5083 9.56195C40.8879 9.89496 41.0848 10.3551 41.0991 10.9423V13.6171C41.0991 14.1507 41.1672 14.575 41.3032 14.8901V14.976H40.2612ZM38.6123 14.2187C38.9238 14.2187 39.2192 14.1381 39.4985 13.977C39.7778 13.8159 39.9801 13.6064 40.1055 13.3486V12.1562H39.3267C38.1092 12.1562 37.5005 12.5125 37.5005 13.225C37.5005 13.5366 37.6043 13.78 37.812 13.9555C38.0197 14.131 38.2865 14.2187 38.6123 14.2187ZM44.4668 12.4999H43.7417V14.976H42.7427V9.16449H43.7417V11.6245H44.3916L46.3467 9.16449H47.5498L45.251 11.9575L47.7432 14.976H46.481L44.4668 12.4999ZM48.2158 12.0165C48.2158 11.4472 48.3268 10.9352 48.5488 10.4804C48.7744 10.0257 49.0859 9.67474 49.4834 9.42767C49.8844 9.1806 50.341 9.05707 50.853 9.05707C51.6444 9.05707 52.2835 9.33099 52.7705 9.87885C53.2611 10.4267 53.5063 11.1554 53.5063 12.0649V12.1347C53.5063 12.7005 53.3971 13.2089 53.1787 13.6601C52.9639 14.1077 52.6541 14.4568 52.2495 14.7075C51.8485 14.9581 51.3866 15.0834 50.8638 15.0834C50.076 15.0834 49.4368 14.8095 48.9463 14.2617C48.4593 13.7138 48.2158 12.9887 48.2158 12.0864V12.0165ZM49.2148 12.1347C49.2148 12.7792 49.3634 13.2967 49.6606 13.687C49.9614 14.0773 50.3625 14.2724 50.8638 14.2724C51.3687 14.2724 51.7697 14.0755 52.0669 13.6816C52.3641 13.2841 52.5127 12.7291 52.5127 12.0165C52.5127 11.3792 52.3605 10.8635 52.0562 10.4697C51.7554 10.0722 51.3543 9.87347 50.853 9.87347C50.3625 9.87347 49.9668 10.0686 49.666 10.4589C49.3652 10.8492 49.2148 11.4078 49.2148 12.1347ZM58.0986 13.6601L60.0752 9.16449H61.3159V14.976H60.3223V10.749L58.4424 14.976H57.7549L55.8374 10.6577V14.976H54.8438V9.16449H56.1328L58.0986 13.6601ZM67.6807 9.16449V14.976H66.6816V9.98627H64.7051L64.5869 12.1616C64.5225 13.1606 64.3542 13.8749 64.082 14.3046C63.8135 14.7343 63.3856 14.9581 62.7983 14.976H62.4009V14.1005L62.6855 14.079C63.0078 14.0432 63.2388 13.857 63.3784 13.5204C63.5181 13.1839 63.6076 12.5608 63.647 11.6513L63.7544 9.16449H67.6807ZM71.6875 15.0834C70.8997 15.0834 70.2588 14.8256 69.7646 14.31C69.2705 13.7908 69.0234 13.0979 69.0234 12.2314V12.0488C69.0234 11.4723 69.1326 10.9584 69.3511 10.5073C69.5731 10.0525 69.881 9.69802 70.2749 9.44379C70.6724 9.18597 71.1021 9.05707 71.564 9.05707C72.3195 9.05707 72.9067 9.30593 73.3257 9.80365C73.7446 10.3014 73.9541 11.0139 73.9541 11.9413V12.3549H70.0171C70.0314 12.9278 70.1979 13.3915 70.5166 13.746C70.8389 14.0969 71.2471 14.2724 71.7412 14.2724C72.0921 14.2724 72.3893 14.2008 72.6328 14.0576C72.8763 13.9143 73.0894 13.7245 73.272 13.4882L73.8789 13.9609C73.3919 14.7092 72.6615 15.0834 71.6875 15.0834ZM71.564 9.87347C71.1629 9.87347 70.8263 10.0203 70.5542 10.3139C70.2821 10.6039 70.1138 11.0121 70.0493 11.5385H72.9604V11.4633C72.9318 10.9584 72.7957 10.5681 72.5522 10.2924C72.3088 10.0131 71.9793 9.87347 71.564 9.87347ZM79.8569 14.976H78.8633V12.4946H76.1938V14.976H75.1948V9.16449H76.1938V11.6835H78.8633V9.16449H79.8569V14.976ZM85.2173 9.16449H86.2109V14.976H85.2173V10.7382L82.5371 14.976H81.5435V9.16449H82.5371V13.4077L85.2173 9.16449ZM90.2178 15.0834C89.43 15.0834 88.7891 14.8256 88.2949 14.31C87.8008 13.7908 87.5537 13.0979 87.5537 12.2314V12.0488C87.5537 11.4723 87.6629 10.9584 87.8813 10.5073C88.1034 10.0525 88.4113 9.69802 88.8052 9.44379C89.2026 9.18597 89.6323 9.05707 90.0942 9.05707C90.8498 9.05707 91.437 9.30593 91.856 9.80365C92.2749 10.3014 92.4844 11.0139 92.4844 11.9413V12.3549H88.5474C88.5617 12.9278 88.7282 13.3915 89.0469 13.746C89.3691 14.0969 89.7773 14.2724 90.2715 14.2724C90.6224 14.2724 90.9196 14.2008 91.1631 14.0576C91.4066 13.9143 91.6196 13.7245 91.8022 13.4882L92.4092 13.9609C91.9222 14.7092 91.1917 15.0834 90.2178 15.0834ZM90.0942 9.87347C89.6932 9.87347 89.3566 10.0203 89.0845 10.3139C88.8123 10.6039 88.644 11.0121 88.5796 11.5385H91.4907V11.4633C91.4621 10.9584 91.326 10.5681 91.0825 10.2924C90.839 10.0131 90.5096 9.87347 90.0942 9.87347ZM99.5635 10.7543C99.5635 10.4822 99.4596 10.2674 99.252 10.1098C99.0443 9.94867 98.7596 9.8681 98.3979 9.8681C98.047 9.8681 97.7534 9.95941 97.5171 10.142C97.2843 10.3246 97.168 10.5395 97.168 10.7866H96.1797C96.1797 10.2817 96.391 9.8681 96.8135 9.54584C97.236 9.22357 97.7642 9.06244 98.3979 9.06244C99.0783 9.06244 99.6082 9.20925 99.9878 9.50287C100.367 9.79291 100.557 10.2083 100.557 10.749C100.557 11.0104 100.478 11.2503 100.321 11.4687C100.163 11.6871 99.9395 11.8608 99.6494 11.9897C100.326 12.2189 100.665 12.67 100.665 13.3432C100.665 13.8767 100.459 14.2993 100.047 14.6108C99.6351 14.9223 99.0854 15.0781 98.3979 15.0781C97.7284 15.0781 97.1751 14.9151 96.7383 14.5893C96.305 14.2599 96.0884 13.8159 96.0884 13.2573H97.0767C97.0767 13.5401 97.202 13.7836 97.4526 13.9877C97.7069 14.1883 98.022 14.2885 98.3979 14.2885C98.7775 14.2885 99.0837 14.2008 99.3164 14.0253C99.5492 13.8499 99.6655 13.6225 99.6655 13.3432C99.6655 13.0174 99.5671 12.7846 99.3701 12.645C99.1768 12.5017 98.8742 12.4301 98.4624 12.4301H97.4688V11.5922H98.5483C99.2251 11.5743 99.5635 11.295 99.5635 10.7543ZM105.542 14.976C105.484 14.8614 105.438 14.6573 105.402 14.3637C104.94 14.8435 104.389 15.0834 103.748 15.0834C103.175 15.0834 102.704 14.9223 102.335 14.6C101.97 14.2742 101.787 13.8624 101.787 13.3647C101.787 12.7595 102.016 12.2905 102.475 11.9575C102.937 11.6209 103.585 11.4526 104.419 11.4526H105.386V10.996C105.386 10.6487 105.282 10.373 105.074 10.1689C104.867 9.9612 104.56 9.85736 104.156 9.85736C103.801 9.85736 103.504 9.94688 103.264 10.1259C103.024 10.305 102.904 10.5216 102.904 10.7758H101.905C101.905 10.4858 102.007 10.2065 102.211 9.93793C102.419 9.66579 102.698 9.45095 103.049 9.2934C103.404 9.13584 103.792 9.05707 104.215 9.05707C104.884 9.05707 105.409 9.22536 105.789 9.56195C106.168 9.89496 106.365 10.3551 106.379 10.9423V13.6171C106.379 14.1507 106.447 14.575 106.583 14.8901V14.976H105.542ZM103.893 14.2187C104.204 14.2187 104.5 14.1381 104.779 13.977C105.058 13.8159 105.26 13.6064 105.386 13.3486V12.1562H104.607C103.389 12.1562 102.781 12.5125 102.781 13.225C102.781 13.5366 102.885 13.78 103.092 13.9555C103.3 14.131 103.567 14.2187 103.893 14.2187ZM108.028 14.976V9.16449H110.295C111.068 9.16449 111.661 9.30056 112.073 9.57269C112.488 9.84125 112.696 10.2369 112.696 10.7597C112.696 11.0283 112.615 11.2717 112.454 11.4902C112.293 11.705 112.055 11.8697 111.74 11.9843C112.091 12.0667 112.372 12.2278 112.583 12.4677C112.798 12.7076 112.905 12.9941 112.905 13.3271C112.905 13.8606 112.708 14.2688 112.314 14.5517C111.924 14.8346 111.371 14.976 110.655 14.976H108.028ZM109.022 12.4247V14.1757H110.666C111.081 14.1757 111.391 14.0987 111.595 13.9448C111.802 13.7908 111.906 13.5742 111.906 13.2949C111.906 12.7148 111.48 12.4247 110.628 12.4247H109.022ZM109.022 11.6298H110.306C111.237 11.6298 111.702 11.3577 111.702 10.8134C111.702 10.2691 111.262 9.98806 110.381 9.97015H109.022V11.6298ZM116.633 15.0834C115.845 15.0834 115.204 14.8256 114.71 14.31C114.216 13.7908 113.969 13.0979 113.969 12.2314V12.0488C113.969 11.4723 114.078 10.9584 114.296 10.5073C114.518 10.0525 114.826 9.69802 115.22 9.44379C115.618 9.18597 116.047 9.05707 116.509 9.05707C117.265 9.05707 117.852 9.30593 118.271 9.80365C118.69 10.3014 118.899 11.0139 118.899 11.9413V12.3549H114.962C114.977 12.9278 115.143 13.3915 115.462 13.746C115.784 14.0969 116.192 14.2724 116.687 14.2724C117.037 14.2724 117.335 14.2008 117.578 14.0576C117.822 13.9143 118.035 13.7245 118.217 13.4882L118.824 13.9609C118.337 14.7092 117.607 15.0834 116.633 15.0834ZM116.509 9.87347C116.108 9.87347 115.772 10.0203 115.5 10.3139C115.227 10.6039 115.059 11.0121 114.995 11.5385H117.906V11.4633C117.877 10.9584 117.741 10.5681 117.498 10.2924C117.254 10.0131 116.925 9.87347 116.509 9.87347ZM124.963 12.1347C124.963 13.0191 124.761 13.7317 124.356 14.2724C123.952 14.8131 123.404 15.0834 122.713 15.0834C122.007 15.0834 121.452 14.8596 121.048 14.412V17.2104H120.054V9.16449H120.962L121.01 9.80902C121.415 9.30772 121.977 9.05707 122.697 9.05707C123.395 9.05707 123.946 9.32025 124.351 9.84662C124.759 10.373 124.963 11.1052 124.963 12.0434V12.1347ZM123.97 12.0219C123.97 11.3666 123.83 10.8492 123.551 10.4697C123.271 10.0901 122.888 9.90033 122.401 9.90033C121.8 9.90033 121.349 10.1671 121.048 10.7006V13.4775C121.345 14.0074 121.8 14.2724 122.412 14.2724C122.888 14.2724 123.266 14.0844 123.545 13.7084C123.828 13.3289 123.97 12.7667 123.97 12.0219ZM127.316 9.16449V14.165H129.443V9.16449H130.437V14.165H132.558V9.16449H133.557V14.976H126.317V9.16449H127.316ZM137.537 15.0834C136.749 15.0834 136.108 14.8256 135.614 14.31C135.12 13.7908 134.873 13.0979 134.873 12.2314V12.0488C134.873 11.4723 134.982 10.9584 135.201 10.5073C135.423 10.0525 135.731 9.69802 136.125 9.44379C136.522 9.18597 136.952 9.05707 137.414 9.05707C138.169 9.05707 138.756 9.30593 139.175 9.80365C139.594 10.3014 139.804 11.0139 139.804 11.9413V12.3549H135.867C135.881 12.9278 136.048 13.3915 136.366 13.746C136.688 14.0969 137.097 14.2724 137.591 14.2724C137.942 14.2724 138.239 14.2008 138.482 14.0576C138.726 13.9143 138.939 13.7245 139.122 13.4882L139.729 13.9609C139.242 14.7092 138.511 15.0834 137.537 15.0834ZM137.414 9.87347C137.013 9.87347 136.676 10.0203 136.404 10.3139C136.132 10.6039 135.963 11.0121 135.899 11.5385H138.81V11.4633C138.781 10.9584 138.645 10.5681 138.402 10.2924C138.158 10.0131 137.829 9.87347 137.414 9.87347ZM145.707 14.976H144.713V12.4946H142.043V14.976H141.044V9.16449H142.043V11.6835H144.713V9.16449H145.707V14.976ZM147.044 12.0165C147.044 11.4472 147.155 10.9352 147.377 10.4804C147.603 10.0257 147.914 9.67474 148.312 9.42767C148.713 9.1806 149.169 9.05707 149.681 9.05707C150.472 9.05707 151.112 9.33099 151.599 9.87885C152.089 10.4267 152.334 11.1554 152.334 12.0649V12.1347C152.334 12.7005 152.225 13.2089 152.007 13.6601C151.792 14.1077 151.482 14.4568 151.078 14.7075C150.677 14.9581 150.215 15.0834 149.692 15.0834C148.904 15.0834 148.265 14.8095 147.774 14.2617C147.287 13.7138 147.044 12.9887 147.044 12.0864V12.0165ZM148.043 12.1347C148.043 12.7792 148.192 13.2967 148.489 13.687C148.79 14.0773 149.191 14.2724 149.692 14.2724C150.197 14.2724 150.598 14.0755 150.895 13.6816C151.192 13.2841 151.341 12.7291 151.341 12.0165C151.341 11.3792 151.189 10.8635 150.884 10.4697C150.583 10.0722 150.182 9.87347 149.681 9.87347C149.191 9.87347 148.795 10.0686 148.494 10.4589C148.193 10.8492 148.043 11.4078 148.043 12.1347Z" fill="#555555"/>
</svg>
