<svg width="45" height="23" viewBox="0 0 45 23" fill="none" xmlns="http://www.w3.org/2000/svg">
<rect x="0.890747" y="0.725769" width="43.0547" height="22" rx="2" fill="white"/>
<path d="M4.48401 11.944L6.28333 7.40546H7.48108L4.71497 13.9206C4.52877 14.336 4.3551 14.6314 4.19397 14.8068C4.03284 14.9787 3.84306 15.1112 3.62463 15.2043C3.40979 15.2938 3.13944 15.3386 2.8136 15.3386C2.53072 15.3386 2.34989 15.3224 2.27112 15.2902L2.30334 14.4738L2.79211 14.4953C3.16809 14.4953 3.44739 14.3145 3.63 13.9528L3.76428 13.6735L3.96838 13.1955L1.30432 7.40546H2.45911L4.48401 11.944ZM8.06116 14.4147L8.40491 13.9904C8.79163 13.4891 9.01184 12.7372 9.06555 11.7346L9.15686 9.41425H12.9005V14.4147H13.6471V16.9338H12.6534V15.2258H8.59827V16.9338H7.60461L7.60999 14.4147H8.06116ZM9.23743 14.4147H11.9069V10.3327H10.1183L10.0592 11.7184C9.99833 12.875 9.72441 13.7738 9.23743 14.4147ZM18.3361 15.2258C18.2788 15.1112 18.2322 14.9071 18.1964 14.6135C17.7345 15.0933 17.1831 15.3332 16.5421 15.3332C15.9692 15.3332 15.4983 15.1721 15.1295 14.8498C14.7643 14.5239 14.5817 14.1122 14.5817 13.6144C14.5817 13.0093 14.8108 12.5402 15.2692 12.2072C15.7311 11.8706 16.3792 11.7023 17.2135 11.7023H18.1803V11.2458C18.1803 10.8985 18.0765 10.6227 17.8688 10.4186C17.6611 10.211 17.3549 10.1071 16.9503 10.1071C16.5958 10.1071 16.2986 10.1966 16.0587 10.3757C15.8188 10.5547 15.6989 10.7713 15.6989 11.0256H14.6998C14.6998 10.7355 14.8019 10.4562 15.006 10.1877C15.2137 9.91555 15.493 9.7007 15.8439 9.54315C16.1984 9.3856 16.5869 9.30682 17.0094 9.30682C17.679 9.30682 18.2036 9.47512 18.5831 9.81171C18.9627 10.1447 19.1596 10.6048 19.174 11.1921V13.8669C19.174 14.4004 19.242 14.8247 19.3781 15.1398V15.2258H18.3361ZM16.6871 14.4684C16.9987 14.4684 17.2941 14.3879 17.5734 14.2267C17.8527 14.0656 18.055 13.8561 18.1803 13.5983V12.4059H17.4015C16.184 12.4059 15.5753 12.7622 15.5753 13.4748C15.5753 13.7863 15.6792 14.0298 15.8868 14.2053C16.0945 14.3807 16.3613 14.4684 16.6871 14.4684ZM25.4957 9.41425V15.2258H24.4967V10.236H22.5201L22.402 12.4113C22.3375 13.4103 22.1692 14.1247 21.8971 14.5544C21.6285 14.9841 21.2006 15.2079 20.6134 15.2258H20.2159V14.3503L20.5006 14.3288C20.8229 14.293 21.0538 14.1068 21.1935 13.7702C21.3331 13.4336 21.4226 12.8106 21.462 11.9011L21.5695 9.41425H25.4957ZM30.8507 9.41425H31.8444V15.2258H30.8507V10.988L28.1705 15.2258H27.1769V9.41425H28.1705V13.6574L30.8507 9.41425ZM37.7579 10.2199H35.8082V15.2258H34.8146V10.2199H32.9025V9.41425H37.7579V10.2199ZM39.8097 11.4177H41.319C41.9778 11.4248 42.4988 11.5967 42.882 11.9333C43.2651 12.2699 43.4567 12.7264 43.4567 13.3029C43.4567 13.883 43.2597 14.3485 42.8658 14.6994C42.472 15.0503 41.942 15.2258 41.276 15.2258H38.816V9.41425H39.8097V11.4177ZM39.8097 12.2287V14.4147H41.2867C41.6591 14.4147 41.9474 14.3198 42.1515 14.1301C42.3556 13.9367 42.4576 13.6735 42.4576 13.3405C42.4576 13.0182 42.3574 12.7551 42.1569 12.551C41.9599 12.3433 41.6824 12.2359 41.3243 12.2287H39.8097Z" fill="#3F7ABE"/>
</svg>
