<svg width="160" height="23" viewBox="0 0 160 23" fill="none" xmlns="http://www.w3.org/2000/svg">
<rect x="0.501526" y="0.826416" width="158" height="21" rx="1.5" fill="#F8F8F8" stroke="#DADADA"/>
<path d="M36.0294 12.22C35.9327 13.0471 35.6265 13.6863 35.1109 14.1375C34.5989 14.585 33.9167 14.8088 33.0645 14.8088C32.1407 14.8088 31.3995 14.4776 30.8409 13.8152C30.2859 13.1528 30.0084 12.2665 30.0084 11.1565V10.4045C30.0084 9.67765 30.1373 9.03849 30.3951 8.48706C30.6565 7.93563 31.0253 7.5131 31.5015 7.21948C31.9778 6.92228 32.5292 6.77368 33.1558 6.77368C33.9866 6.77368 34.6526 7.00643 35.1539 7.47192C35.6552 7.93384 35.947 8.57479 36.0294 9.39478H34.9927C34.9032 8.77173 34.7081 8.32056 34.4073 8.04126C34.1101 7.76196 33.6929 7.62231 33.1558 7.62231C32.497 7.62231 31.9796 7.8658 31.6036 8.35278C31.2312 8.83976 31.045 9.53263 31.045 10.4314V11.1887C31.045 12.0374 31.2222 12.7123 31.5767 13.2136C31.9312 13.7149 32.4271 13.9656 33.0645 13.9656C33.6374 13.9656 34.0761 13.8367 34.3804 13.5789C34.6884 13.3175 34.8925 12.8645 34.9927 12.22H36.0294ZM41.0406 9.71167H38.3604V14.7014H37.3614V8.88989H41.0406V9.71167ZM44.2095 14.8088C43.4218 14.8088 42.7808 14.551 42.2867 14.0354C41.7925 13.5162 41.5455 12.8233 41.5455 11.9568V11.7742C41.5455 11.1977 41.6547 10.6838 41.8731 10.2327C42.0951 9.77791 42.4031 9.42342 42.7969 9.16919C43.1944 8.91138 43.6241 8.78247 44.086 8.78247C44.8415 8.78247 45.4288 9.03133 45.8477 9.52905C46.2667 10.0268 46.4761 10.7393 46.4761 11.6667V12.0803H42.5391C42.5534 12.6532 42.72 13.1169 43.0386 13.4714C43.3609 13.8223 43.7691 13.9978 44.2632 13.9978C44.6142 13.9978 44.9114 13.9262 45.1548 13.783C45.3983 13.6397 45.6114 13.45 45.794 13.2136L46.4009 13.6863C45.914 14.4347 45.1835 14.8088 44.2095 14.8088ZM44.086 9.59888C43.685 9.59888 43.3484 9.74569 43.0762 10.0393C42.8041 10.3293 42.6358 10.7375 42.5714 11.2639H45.4825V11.1887C45.4538 10.6838 45.3178 10.2935 45.0743 10.0178C44.8308 9.73853 44.5014 9.59888 44.086 9.59888ZM52.379 14.7014H51.3853V12.22H48.7159V14.7014H47.7169V8.88989H48.7159V11.4089H51.3853V8.88989H52.379V14.7014ZM56.3912 14.8088C55.6034 14.8088 54.9625 14.551 54.4683 14.0354C53.9742 13.5162 53.7271 12.8233 53.7271 11.9568V11.7742C53.7271 11.1977 53.8363 10.6838 54.0547 10.2327C54.2768 9.77791 54.5847 9.42342 54.9786 9.16919C55.376 8.91138 55.8057 8.78247 56.2676 8.78247C57.0232 8.78247 57.6104 9.03133 58.0294 9.52905C58.4483 10.0268 58.6578 10.7393 58.6578 11.6667V12.0803H54.7208C54.7351 12.6532 54.9016 13.1169 55.2203 13.4714C55.5425 13.8223 55.9507 13.9978 56.4449 13.9978C56.7958 13.9978 57.093 13.9262 57.3365 13.783C57.58 13.6397 57.793 13.45 57.9756 13.2136L58.5826 13.6863C58.0956 14.4347 57.3651 14.8088 56.3912 14.8088ZM56.2676 9.59888C55.8666 9.59888 55.53 9.74569 55.2579 10.0393C54.9857 10.3293 54.8174 10.7375 54.753 11.2639H57.6641V11.1887C57.6355 10.6838 57.4994 10.2935 57.2559 10.0178C57.0124 9.73853 56.683 9.59888 56.2676 9.59888ZM64.7217 11.8601C64.7217 12.7445 64.5194 13.4571 64.1148 13.9978C63.7102 14.5385 63.1623 14.8088 62.4713 14.8088C61.7658 14.8088 61.2108 14.585 60.8062 14.1375V16.9358H59.8126V8.88989H60.7203L60.7686 9.53442C61.1732 9.03312 61.7354 8.78247 62.4551 8.78247C63.1534 8.78247 63.7048 9.04565 64.1094 9.57202C64.5176 10.0984 64.7217 10.8306 64.7217 11.7688V11.8601ZM63.7281 11.7473C63.7281 11.092 63.5884 10.5746 63.3091 10.1951C63.0298 9.81551 62.6467 9.62573 62.1597 9.62573C61.5582 9.62573 61.107 9.8925 60.8062 10.426V13.2029C61.1034 13.7328 61.5582 13.9978 62.1705 13.9978C62.6467 13.9978 63.0245 13.8098 63.3038 13.4338C63.5866 13.0543 63.7281 12.4921 63.7281 11.7473ZM69.7491 8.88989H70.7427V14.7014H69.7491V10.4636L67.0689 14.7014H66.0753V8.88989H67.0689V13.1331L69.7491 8.88989ZM77.2471 11.8601C77.2471 12.7445 77.0448 13.4571 76.6402 13.9978C76.2356 14.5385 75.6877 14.8088 74.9966 14.8088C74.2912 14.8088 73.7362 14.585 73.3316 14.1375V16.9358H72.338V8.88989H73.2457L73.294 9.53442C73.6986 9.03312 74.2608 8.78247 74.9805 8.78247C75.6788 8.78247 76.2302 9.04565 76.6348 9.57202C77.043 10.0984 77.2471 10.8306 77.2471 11.7688V11.8601ZM76.2535 11.7473C76.2535 11.092 76.1138 10.5746 75.8345 10.1951C75.5552 9.81551 75.1721 9.62573 74.6851 9.62573C74.0836 9.62573 73.6324 9.8925 73.3316 10.426V13.2029C73.6288 13.7328 74.0836 13.9978 74.6959 13.9978C75.1721 13.9978 75.5499 13.8098 75.8292 13.4338C76.112 13.0543 76.2535 12.4921 76.2535 11.7473ZM78.2515 11.7419C78.2515 11.1726 78.3625 10.6606 78.5845 10.2058C78.8101 9.75106 79.1216 9.40015 79.5191 9.15308C79.9201 8.90601 80.3767 8.78247 80.8887 8.78247C81.6801 8.78247 82.3192 9.0564 82.8062 9.60425C83.2968 10.1521 83.5421 10.8808 83.5421 11.7903V11.8601C83.5421 12.4259 83.4328 12.9343 83.2144 13.3855C82.9996 13.8331 82.6898 14.1822 82.2852 14.4329C81.8842 14.6835 81.4223 14.8088 80.8995 14.8088C80.1117 14.8088 79.4726 14.5349 78.982 13.9871C78.495 13.4392 78.2515 12.7141 78.2515 11.8118V11.7419ZM79.2505 11.8601C79.2505 12.5046 79.3991 13.0221 79.6964 13.4124C79.9971 13.8027 80.3982 13.9978 80.8995 13.9978C81.4044 13.9978 81.8054 13.8009 82.1026 13.407C82.3998 13.0095 82.5484 12.4545 82.5484 11.7419C82.5484 11.1046 82.3962 10.5889 82.0919 10.1951C81.7911 9.79761 81.39 9.59888 80.8887 9.59888C80.3982 9.59888 80.0025 9.79403 79.7017 10.1843C79.4009 10.5746 79.2505 11.1332 79.2505 11.8601ZM84.8795 14.7014V8.88989H87.1461C87.9195 8.88989 88.5121 9.02596 88.9239 9.2981C89.3393 9.56665 89.5469 9.96232 89.5469 10.4851C89.5469 10.7537 89.4664 10.9972 89.3052 11.2156C89.1441 11.4304 88.906 11.5951 88.5909 11.7097C88.9418 11.7921 89.2229 11.9532 89.4341 12.1931C89.649 12.433 89.7564 12.7195 89.7564 13.0525C89.7564 13.586 89.5595 13.9942 89.1656 14.2771C88.7753 14.56 88.2221 14.7014 87.5059 14.7014H84.8795ZM85.8731 12.1501V13.9011H87.5167C87.932 13.9011 88.2418 13.8241 88.4459 13.6702C88.6535 13.5162 88.7574 13.2996 88.7574 13.0203C88.7574 12.4402 88.3313 12.1501 87.4791 12.1501H85.8731ZM85.8731 11.3552H87.1568C88.0878 11.3552 88.5533 11.0831 88.5533 10.5388C88.5533 9.99455 88.1129 9.71346 87.232 9.69556H85.8731V11.3552ZM94.6602 14.7014C94.6029 14.5868 94.5564 14.3827 94.5206 14.0891C94.0587 14.5689 93.5072 14.8088 92.8663 14.8088C92.2934 14.8088 91.8225 14.6477 91.4537 14.3254C91.0884 13.9996 90.9058 13.5878 90.9058 13.0901C90.9058 12.4849 91.135 12.0159 91.5933 11.6829C92.0552 11.3463 92.7033 11.178 93.5377 11.178H94.5045V10.7214C94.5045 10.3741 94.4006 10.0984 94.1929 9.89429C93.9852 9.6866 93.6791 9.58276 93.2745 9.58276C92.92 9.58276 92.6228 9.67228 92.3829 9.85132C92.143 10.0304 92.023 10.247 92.023 10.5012H91.024C91.024 10.2112 91.126 9.93188 91.3301 9.66333C91.5378 9.39119 91.8171 9.17635 92.168 9.0188C92.5225 8.86125 92.911 8.78247 93.3336 8.78247C94.0032 8.78247 94.5277 8.95076 94.9073 9.28735C95.2868 9.62036 95.4838 10.0805 95.4981 10.6677V13.3425C95.4981 13.8761 95.5661 14.3004 95.7022 14.6155V14.7014H94.6602ZM93.0113 13.9441C93.3228 13.9441 93.6182 13.8635 93.8975 13.7024C94.1768 13.5413 94.3791 13.3318 94.5045 13.074V11.8816H93.7256C92.5082 11.8816 91.8995 12.2379 91.8995 12.9504C91.8995 13.262 92.0033 13.5055 92.211 13.6809C92.4187 13.8564 92.6854 13.9441 93.0113 13.9441ZM101.288 9.69556H99.3384V14.7014H98.3448V9.69556H96.4327V8.88989H101.288V9.69556ZM103.34 10.8933H104.849C105.508 10.9005 106.029 11.0723 106.412 11.4089C106.795 11.7455 106.987 12.2021 106.987 12.7786C106.987 13.3586 106.79 13.8241 106.396 14.175C106.002 14.526 105.472 14.7014 104.806 14.7014H102.346V8.88989H103.34V10.8933ZM103.34 11.7043V13.8904H104.817C105.189 13.8904 105.478 13.7955 105.682 13.6057C105.886 13.4124 105.988 13.1492 105.988 12.8162C105.988 12.4939 105.888 12.2307 105.687 12.0266C105.49 11.8189 105.213 11.7115 104.855 11.7043H103.34ZM117.085 11.0437C117.085 11.7992 116.965 12.4509 116.725 12.9988C116.485 13.5431 116.148 13.9692 115.715 14.2771L117.111 15.3728L116.408 16.0227L114.759 14.7122C114.501 14.7766 114.229 14.8088 113.942 14.8088C113.327 14.8088 112.78 14.6584 112.304 14.3577C111.828 14.0533 111.457 13.6218 111.192 13.0632C110.931 12.5011 110.797 11.8512 110.79 11.1135V10.5496C110.79 9.79761 110.92 9.13338 111.182 8.55688C111.443 7.98039 111.812 7.53996 112.288 7.2356C112.768 6.92765 113.316 6.77368 113.932 6.77368C114.562 6.77368 115.115 6.92586 115.591 7.23022C116.071 7.53459 116.44 7.97323 116.698 8.54614C116.956 9.11548 117.085 9.78149 117.085 10.5442V11.0437ZM116.053 10.5388C116.053 9.61857 115.869 8.90959 115.5 8.41187C115.135 7.91056 114.612 7.65991 113.932 7.65991C113.284 7.65991 112.772 7.90877 112.396 8.40649C112.023 8.90063 111.832 9.58813 111.821 10.469V11.0437C111.821 11.9389 112.007 12.6443 112.379 13.1599C112.755 13.6755 113.276 13.9333 113.942 13.9333C114.608 13.9333 115.124 13.6917 115.489 13.2083C115.855 12.7213 116.043 12.0248 116.053 11.1189V10.5388ZM121.543 11.5378H119.706V14.7014H118.669V6.8811H121.258C122.139 6.8811 122.815 7.08162 123.288 7.48267C123.764 7.88371 124.003 8.46737 124.003 9.23364C124.003 9.72062 123.87 10.1449 123.605 10.5066C123.344 10.8682 122.978 11.1386 122.509 11.3176L124.346 14.637V14.7014H123.24L121.543 11.5378ZM119.706 10.6946H121.29C121.802 10.6946 122.209 10.5621 122.509 10.2971C122.814 10.0321 122.966 9.67765 122.966 9.23364C122.966 8.75024 122.821 8.37964 122.531 8.12183C122.244 7.86401 121.829 7.73332 121.285 7.72974H119.706V10.6946ZM127.365 11.7849H124.744V10.9739H127.365V11.7849ZM130.147 12.2253H129.422V14.7014H128.423V8.88989H129.422V11.3499H130.072L132.027 8.88989H133.23L130.931 11.6829L133.423 14.7014H132.161L130.147 12.2253ZM133.896 11.7419C133.896 11.1726 134.007 10.6606 134.229 10.2058C134.455 9.75106 134.766 9.40015 135.164 9.15308C135.565 8.90601 136.021 8.78247 136.533 8.78247C137.325 8.78247 137.964 9.0564 138.451 9.60425C138.941 10.1521 139.187 10.8808 139.187 11.7903V11.8601C139.187 12.4259 139.077 12.9343 138.859 13.3855C138.644 13.8331 138.334 14.1822 137.93 14.4329C137.529 14.6835 137.067 14.8088 136.544 14.8088C135.756 14.8088 135.117 14.5349 134.627 13.9871C134.14 13.4392 133.896 12.7141 133.896 11.8118V11.7419ZM134.895 11.8601C134.895 12.5046 135.044 13.0221 135.341 13.4124C135.642 13.8027 136.043 13.9978 136.544 13.9978C137.049 13.9978 137.45 13.8009 137.747 13.407C138.044 13.0095 138.193 12.4545 138.193 11.7419C138.193 11.1046 138.041 10.5889 137.736 10.1951C137.436 9.79761 137.035 9.59888 136.533 9.59888C136.043 9.59888 135.647 9.79403 135.346 10.1843C135.045 10.5746 134.895 11.1332 134.895 11.8601ZM139.998 13.8904L140.341 13.4661C140.728 12.9648 140.948 12.2128 141.002 11.2102L141.093 8.88989H144.837V13.8904H145.584V16.4094H144.59V14.7014H140.535V16.4094H139.541L139.546 13.8904H139.998ZM141.174 13.8904H143.843V9.80835H142.055L141.996 11.1941C141.935 12.3507 141.661 13.2494 141.174 13.8904Z" fill="#555555"/>
<rect x="12.2353" y="5.56364" width="3.57748" height="3.57748" stroke="#373737" stroke-width="0.8"/>
<rect x="12.2353" y="13.5117" width="3.57748" height="3.57748" stroke="#373737" stroke-width="0.8"/>
<rect x="20.1718" y="5.56364" width="3.57748" height="3.57748" stroke="#373737" stroke-width="0.8"/>
<rect x="13.5811" y="6.90936" width="0.886015" height="0.886015" fill="#373737"/>
<rect x="17.1063" y="5.16364" width="0.886015" height="0.886015" fill="#373737"/>
<rect x="17.9922" y="6.04965" width="0.886015" height="0.886015" fill="#373737"/>
<rect x="17.9922" y="6.90936" width="0.886015" height="0.886015" fill="#373737"/>
<rect x="17.1063" y="6.90936" width="0.886015" height="0.886015" fill="#373737"/>
<rect x="17.1063" y="7.79538" width="0.886015" height="0.886015" fill="#373737"/>
<rect x="17.9922" y="8.6814" width="0.886015" height="0.886015" fill="#373737"/>
<rect x="17.9922" y="9.56741" width="0.886015" height="0.886015" fill="#373737"/>
<rect x="17.9922" y="10.4404" width="0.886015" height="0.886015" fill="#373737"/>
<rect x="17.1063" y="10.4404" width="0.886015" height="0.886015" fill="#373737"/>
<rect x="16.2203" y="10.4404" width="0.886015" height="0.886015" fill="#373737"/>
<rect x="15.3343" y="10.4404" width="0.886015" height="0.886015" fill="#373737"/>
<rect x="14.4483" y="10.4404" width="0.886015" height="0.886015" fill="#373737"/>
<rect x="13.5623" y="10.4404" width="0.886015" height="0.886015" fill="#373737"/>
<rect x="11.8353" y="10.4404" width="0.886015" height="0.886015" fill="#373737"/>
<rect x="13.5623" y="11.3264" width="0.886015" height="0.886015" fill="#373737"/>
<rect x="17.0875" y="11.3264" width="0.886015" height="0.886015" fill="#373737"/>
<rect x="17.0875" y="13.1117" width="0.886015" height="0.886015" fill="#373737"/>
<rect x="17.9735" y="13.9977" width="0.886015" height="0.886015" fill="#373737"/>
<rect x="17.1176" y="14.8311" width="0.886015" height="0.886015" fill="#373737"/>
<rect x="17.1176" y="15.7172" width="0.886015" height="0.886015" fill="#373737"/>
<rect x="18.0036" y="16.6032" width="0.886015" height="0.886015" fill="#373737"/>
<rect x="18.8671" y="13.9977" width="0.886015" height="0.886015" fill="#373737"/>
<rect x="19.7606" y="13.9977" width="0.886015" height="0.886015" fill="#373737"/>
<rect x="19.7606" y="13.1117" width="0.886015" height="0.886015" fill="#373737"/>
<rect x="21.5175" y="13.1117" width="0.886015" height="0.886015" fill="#373737"/>
<rect x="22.4036" y="13.1117" width="0.886015" height="0.886015" fill="#373737"/>
<rect x="22.4036" y="13.9714" width="0.886015" height="0.886015" fill="#373737"/>
<rect x="23.2896" y="13.9714" width="0.886015" height="0.886015" fill="#373737"/>
<rect x="23.2896" y="16.5769" width="0.886015" height="0.886015" fill="#373737"/>
<rect x="21.5175" y="16.5769" width="0.886015" height="0.886015" fill="#373737"/>
<rect x="20.6315" y="15.6909" width="0.886015" height="0.886015" fill="#373737"/>
<rect x="19.7455" y="15.6909" width="0.886015" height="0.886015" fill="#373737"/>
<rect x="19.7455" y="16.5769" width="0.886015" height="0.886015" fill="#373737"/>
<rect x="22.4036" y="14.8311" width="0.886015" height="0.886015" fill="#373737"/>
<rect x="21.5175" y="14.8311" width="0.886015" height="0.886015" fill="#373737"/>
<rect x="22.4036" y="15.6909" width="0.886015" height="0.886015" fill="#373737"/>
<rect x="18.8782" y="11.3264" width="0.886015" height="0.886015" fill="#373737"/>
<rect x="12.6951" y="11.3264" width="0.886015" height="0.886015" fill="#373737"/>
<rect x="16.2203" y="11.3264" width="0.886015" height="0.886015" fill="#373737"/>
<rect x="18.8858" y="10.4404" width="0.886015" height="0.886015" fill="#373737"/>
<rect x="19.7794" y="10.4404" width="0.886015" height="0.886015" fill="#373737"/>
<rect x="20.6729" y="10.4404" width="0.886015" height="0.886015" fill="#373737"/>
<rect x="22.4036" y="10.4404" width="0.886015" height="0.886015" fill="#373737"/>
<rect x="22.4036" y="11.3264" width="0.886015" height="0.886015" fill="#373737"/>
<rect x="23.2896" y="11.3264" width="0.886015" height="0.886015" fill="#373737"/>
<rect x="21.5175" y="11.3264" width="0.886015" height="0.886015" fill="#373737"/>
<rect x="13.5811" y="14.8575" width="0.886015" height="0.886015" fill="#373737"/>
<rect x="21.5175" y="6.90936" width="0.886015" height="0.886015" fill="#373737"/>
</svg>
