<svg width="103" height="22" viewBox="0 0 103 22" fill="none" xmlns="http://www.w3.org/2000/svg">
<rect x="0.418091" width="102" height="22" rx="2" fill="#3F7ABE"/>
<path d="M17.553 14.375H16.5164V7.40332H12.66V14.375H11.6287V6.55469H17.553V14.375ZM24.1863 11.5337C24.1863 12.4181 23.984 13.1307 23.5794 13.6714C23.1748 14.2121 22.6269 14.4824 21.9359 14.4824C21.2304 14.4824 20.6754 14.2586 20.2708 13.811V16.6094H19.2772V8.56348H20.1849L20.2332 9.20801C20.6378 8.70671 21.2 8.45605 21.9197 8.45605C22.618 8.45605 23.1694 8.71924 23.574 9.24561C23.9822 9.77197 24.1863 10.5042 24.1863 11.4424V11.5337ZM23.1927 11.4209C23.1927 10.7656 23.053 10.2482 22.7737 9.86865C22.4944 9.4891 22.1113 9.29932 21.6243 9.29932C21.0228 9.29932 20.5716 9.56608 20.2708 10.0996V12.8765C20.568 13.4064 21.0228 13.6714 21.6351 13.6714C22.1113 13.6714 22.4891 13.4834 22.7684 13.1074C23.0512 12.7279 23.1927 12.1657 23.1927 11.4209ZM29.2137 8.56348H30.2073V14.375H29.2137V10.1372L26.5335 14.375H25.5399V8.56348H26.5335V12.8066L29.2137 8.56348ZM35.1487 13.0591L37.1253 8.56348H38.366V14.375H37.3724V10.1479L35.4925 14.375H34.805L32.8875 10.0566V14.375H31.8939V8.56348H33.1829L35.1487 13.0591ZM42.3782 14.4824C41.5905 14.4824 40.9495 14.2246 40.4554 13.709C39.9612 13.1898 39.7142 12.4969 39.7142 11.6304V11.4478C39.7142 10.8713 39.8234 10.3574 40.0418 9.90625C40.2638 9.4515 40.5718 9.09701 40.9656 8.84277C41.3631 8.58496 41.7928 8.45605 42.2547 8.45605C43.0102 8.45605 43.5975 8.70492 44.0164 9.20264C44.4354 9.70036 44.6448 10.4129 44.6448 11.3403V11.7539H40.7078C40.7221 12.3268 40.8887 12.7905 41.2073 13.145C41.5296 13.4959 41.9378 13.6714 42.4319 13.6714C42.7829 13.6714 43.0801 13.5998 43.3235 13.4565C43.567 13.3133 43.7801 13.1235 43.9627 12.8872L44.5696 13.3599C44.0827 14.1082 43.3522 14.4824 42.3782 14.4824ZM42.2547 9.27246C41.8537 9.27246 41.5171 9.41927 41.2449 9.71289C40.9728 10.0029 40.8045 10.4111 40.7401 10.9375H43.6512V10.8623C43.6225 10.3574 43.4865 9.96712 43.243 9.69141C42.9995 9.41211 42.6701 9.27246 42.2547 9.27246ZM50.5477 14.375H49.554V11.8936H46.8846V14.375H45.8856V8.56348H46.8846V11.0825H49.554V8.56348H50.5477V14.375ZM55.908 8.56348H56.9017V14.375H55.908V10.1372L53.2278 14.375H52.2342V8.56348H53.2278V12.8066L55.908 8.56348ZM62.8152 9.36914H60.8655V14.375H59.8719V9.36914H57.9598V8.56348H62.8152V9.36914ZM64.867 10.5669H66.3763C67.0351 10.5741 67.5561 10.7459 67.9393 11.0825C68.3224 11.4191 68.514 11.8757 68.514 12.4521C68.514 13.0322 68.317 13.4977 67.9232 13.8486C67.5293 14.1995 66.9993 14.375 66.3333 14.375H63.8734V8.56348H64.867V10.5669ZM64.867 11.3779V13.564H66.3441C66.7165 13.564 67.0047 13.4691 67.2088 13.2793C67.4129 13.0859 67.515 12.8228 67.515 12.4897C67.515 12.1675 67.4147 11.9043 67.2142 11.7002C67.0172 11.4925 66.7397 11.3851 66.3817 11.3779H64.867Z" fill="white"/>
<path d="M93.2957 9.505H87.3036L90.2996 12.495L93.2957 9.505Z" fill="white"/>
<rect x="77.4129" width="1" height="22" fill="#75A2CF"/>
</svg>
