<svg width="101" height="23" viewBox="0 0 101 23" fill="none" xmlns="http://www.w3.org/2000/svg">
<path d="M0.501465 2.32642C0.501465 1.49799 1.17304 0.826416 2.00146 0.826416H98.0015C98.8299 0.826416 99.5015 1.49799 99.5015 2.32642V20.3264C99.5015 21.1548 98.8299 21.8264 98.0015 21.8264H2.00146C1.17304 21.8264 0.501465 21.1548 0.501465 20.3264V2.32642Z" fill="#F8F8F8" stroke="#DADADA"/>
<path d="M35.9503 16.6189H34.9244V14.7014H29.3116V16.6243H28.2803L28.275 13.8582H28.9141C29.2507 13.4786 29.5175 12.9701 29.7144 12.3328C29.9149 11.6918 30.0403 10.99 30.0904 10.2273L30.2623 6.8811H34.9405V13.8582H35.961L35.9503 16.6189ZM30.0904 13.8582H33.9039V7.72974H31.2559L31.1431 10.0286C31.0966 10.9273 30.9766 11.6936 30.7833 12.3274C30.5935 12.9612 30.3625 13.4714 30.0904 13.8582ZM36.7667 11.7419C36.7667 11.1726 36.8777 10.6606 37.0997 10.2058C37.3253 9.75106 37.6368 9.40015 38.0342 9.15308C38.4353 8.90601 38.8918 8.78247 39.4039 8.78247C40.1952 8.78247 40.8344 9.0564 41.3214 9.60425C41.8119 10.1521 42.0572 10.8808 42.0572 11.7903V11.8601C42.0572 12.4259 41.948 12.9343 41.7296 13.3855C41.5147 13.8331 41.205 14.1822 40.8004 14.4329C40.3993 14.6835 39.9374 14.8088 39.4146 14.8088C38.6269 14.8088 37.9877 14.5349 37.4971 13.9871C37.0102 13.4392 36.7667 12.7141 36.7667 11.8118V11.7419ZM37.7657 11.8601C37.7657 12.5046 37.9143 13.0221 38.2115 13.4124C38.5123 13.8027 38.9133 13.9978 39.4146 13.9978C39.9195 13.9978 40.3205 13.8009 40.6177 13.407C40.9149 13.0095 41.0635 12.4545 41.0635 11.7419C41.0635 11.1046 40.9114 10.5889 40.607 10.1951C40.3062 9.79761 39.9052 9.59888 39.4039 9.59888C38.9133 9.59888 38.5176 9.79403 38.2169 10.1843C37.9161 10.5746 37.7657 11.1332 37.7657 11.8601ZM45.8546 9.2229C46.585 9.2229 47.1687 9.46818 47.6055 9.95874C48.046 10.4457 48.2662 11.0885 48.2662 11.887V11.9783C48.2662 12.5261 48.1605 13.0167 47.9493 13.45C47.738 13.8796 47.4337 14.2144 47.0362 14.4543C46.6423 14.6907 46.1876 14.8088 45.6719 14.8088C44.8913 14.8088 44.2629 14.5492 43.7867 14.03C43.3104 13.5072 43.0723 12.8072 43.0723 11.9299V11.4465C43.0723 10.2255 43.2979 9.25513 43.7491 8.5354C44.2038 7.81567 44.8734 7.37703 45.7579 7.21948C46.2592 7.12996 46.5976 7.02075 46.773 6.89185C46.9485 6.76294 47.0362 6.58569 47.0362 6.36011H47.8526C47.8526 6.8077 47.7505 7.15682 47.5464 7.40747C47.3459 7.65812 47.0237 7.83537 46.5797 7.93921L45.8384 8.10571C45.2476 8.24536 44.8036 8.48169 44.5064 8.8147C44.2128 9.14412 44.0212 9.58455 43.9317 10.136C44.4581 9.52726 45.099 9.2229 45.8546 9.2229ZM45.6612 10.0393C45.1742 10.0393 44.7875 10.204 44.501 10.5334C44.2146 10.8593 44.0714 11.3123 44.0714 11.8923V11.9783C44.0714 12.6013 44.2146 13.0955 44.501 13.4607C44.7911 13.8223 45.1814 14.0032 45.6719 14.0032C46.1661 14.0032 46.5564 13.8206 46.8428 13.4553C47.1293 13.0901 47.2725 12.5566 47.2725 11.8547C47.2725 11.3069 47.1275 10.8682 46.8375 10.5388C46.551 10.2058 46.1589 10.0393 45.6612 10.0393ZM52.9713 14.7014C52.914 14.5868 52.8674 14.3827 52.8316 14.0891C52.3697 14.5689 51.8183 14.8088 51.1773 14.8088C50.6044 14.8088 50.1335 14.6477 49.7647 14.3254C49.3995 13.9996 49.2169 13.5878 49.2169 13.0901C49.2169 12.4849 49.446 12.0159 49.9044 11.6829C50.3663 11.3463 51.0144 11.178 51.8487 11.178H52.8155V10.7214C52.8155 10.3741 52.7116 10.0984 52.504 9.89429C52.2963 9.6866 51.9901 9.58276 51.5855 9.58276C51.231 9.58276 50.9338 9.67228 50.6939 9.85132C50.454 10.0304 50.334 10.247 50.334 10.5012H49.335C49.335 10.2112 49.4371 9.93188 49.6412 9.66333C49.8489 9.39119 50.1282 9.17635 50.4791 9.0188C50.8336 8.86125 51.2221 8.78247 51.6446 8.78247C52.3142 8.78247 52.8388 8.95076 53.2183 9.28735C53.5979 9.62036 53.7948 10.0805 53.8091 10.6677V13.3425C53.8091 13.8761 53.8772 14.3004 54.0132 14.6155V14.7014H52.9713ZM51.3223 13.9441C51.6339 13.9441 51.9293 13.8635 52.2086 13.7024C52.4879 13.5413 52.6902 13.3318 52.8155 13.074V11.8816H52.0367C50.8192 11.8816 50.2105 12.2379 50.2105 12.9504C50.2105 13.262 50.3144 13.5055 50.522 13.6809C50.7297 13.8564 50.9965 13.9441 51.3223 13.9441ZM55.4581 14.7014V8.88989H57.7247C58.4981 8.88989 59.0907 9.02596 59.5025 9.2981C59.9179 9.56665 60.1255 9.96232 60.1255 10.4851C60.1255 10.7537 60.045 10.9972 59.8839 11.2156C59.7227 11.4304 59.4846 11.5951 59.1695 11.7097C59.5204 11.7921 59.8015 11.9532 60.0128 12.1931C60.2276 12.433 60.335 12.7195 60.335 13.0525C60.335 13.586 60.1381 13.9942 59.7442 14.2771C59.3539 14.56 58.8007 14.7014 58.0845 14.7014H55.4581ZM56.4517 12.1501V13.9011H58.0953C58.5106 13.9011 58.8204 13.8241 59.0245 13.6702C59.2322 13.5162 59.336 13.2996 59.336 13.0203C59.336 12.4402 58.9099 12.1501 58.0577 12.1501H56.4517ZM56.4517 11.3552H57.7354C58.6664 11.3552 59.1319 11.0831 59.1319 10.5388C59.1319 9.99455 58.6915 9.71346 57.8106 9.69556H56.4517V11.3552ZM65.4107 8.88989H66.4044V14.7014H65.4107V10.4636L62.7305 14.7014H61.7369V8.88989H62.7305V13.1331L65.4107 8.88989ZM72.3179 9.69556H70.3682V14.7014H69.3746V9.69556H67.4625V8.88989H72.3179V9.69556ZM74.3697 10.8933H75.879C76.5378 10.9005 77.0588 11.0723 77.442 11.4089C77.8251 11.7455 78.0167 12.2021 78.0167 12.7786C78.0167 13.3586 77.8197 13.8241 77.4258 14.175C77.032 14.526 76.502 14.7014 75.836 14.7014H73.376V8.88989H74.3697V10.8933ZM74.3697 11.7043V13.8904H75.8467C76.2191 13.8904 76.5074 13.7955 76.7115 13.6057C76.9156 13.4124 77.0176 13.1492 77.0176 12.8162C77.0176 12.4939 76.9174 12.2307 76.7169 12.0266C76.5199 11.8189 76.2424 11.7115 75.8843 11.7043H74.3697Z" fill="#555555"/>
<path d="M89.4975 10.3304H83.5054L86.5015 13.3204L89.4975 10.3304Z" fill="#555555"/>
<path fill-rule="evenodd" clip-rule="evenodd" d="M14.6324 11.1891C16.1511 11.1891 17.3824 9.95793 17.3824 8.43915C17.3824 6.92036 16.1511 5.68915 14.6324 5.68915C13.1136 5.68915 11.8824 6.92036 11.8824 8.43915C11.8824 9.95793 13.1136 11.1891 14.6324 11.1891ZM9.21459 13.4705C9.44527 12.0864 10.6011 11.0559 11.9851 10.9696C12.6518 11.6669 13.5914 12.1013 14.6324 12.1013C15.6734 12.1013 16.6129 11.6669 17.2797 10.9696C18.6637 11.0559 19.8195 12.0864 20.0502 13.4705L20.2443 14.6349C20.4474 15.8539 19.5073 16.9637 18.2714 16.9637H10.9933C9.75741 16.9637 8.81734 15.8539 9.0205 14.6349L9.21459 13.4705Z" fill="#555555"/>
</svg>
