<svg width="69" height="22" viewBox="0 0 69 22" fill="none" xmlns="http://www.w3.org/2000/svg">
<rect x="0.418091" width="68" height="22" rx="2" fill="#3F7ABE"/>
<path d="M13.2861 14.375V6.55469H15.8427C16.6913 6.55469 17.3287 6.73014 17.7548 7.08105C18.1845 7.43197 18.3994 7.95117 18.3994 8.63867C18.3994 9.00391 18.2955 9.32796 18.0878 9.61084C17.8801 9.89014 17.5973 10.1068 17.2392 10.2607C17.6617 10.3789 17.9947 10.6045 18.2382 10.9375C18.4853 11.2669 18.6088 11.6608 18.6088 12.1191C18.6088 12.821 18.3814 13.3724 17.9267 13.7734C17.4719 14.1745 16.8292 14.375 15.9985 14.375H13.2861ZM14.3173 10.7173V13.5317H16.02C16.4998 13.5317 16.8775 13.4082 17.1533 13.1611C17.4326 12.9105 17.5722 12.5667 17.5722 12.1299C17.5722 11.1882 17.0602 10.7173 16.0361 10.7173H14.3173ZM14.3173 9.89014H15.8749C16.3261 9.89014 16.686 9.77734 16.9545 9.55176C17.2267 9.32617 17.3627 9.02002 17.3627 8.6333C17.3627 8.20361 17.2374 7.89209 16.9868 7.69873C16.7361 7.50179 16.3548 7.40332 15.8427 7.40332H14.3173V9.89014ZM21.0688 10.5669H22.5781C23.2369 10.5741 23.7579 10.7459 24.1411 11.0825C24.5242 11.4191 24.7158 11.8757 24.7158 12.4521C24.7158 13.0322 24.5188 13.4977 24.1249 13.8486C23.7311 14.1995 23.2011 14.375 22.5351 14.375H20.0751V8.56348H21.0688V10.5669ZM26.789 14.375H25.79V8.56348H26.789V14.375ZM21.0688 11.3779V13.564H22.5458C22.9182 13.564 23.2065 13.4691 23.4106 13.2793C23.6147 13.0859 23.7167 12.8228 23.7167 12.4897C23.7167 12.1675 23.6165 11.9043 23.416 11.7002C23.219 11.4925 22.9415 11.3851 22.5834 11.3779H21.0688ZM31.0751 8.89648C31.8056 8.89648 32.3893 9.14176 32.8261 9.63232C33.2665 10.1193 33.4868 10.762 33.4868 11.5605V11.6519C33.4868 12.1997 33.3811 12.6903 33.1699 13.1235C32.9586 13.5532 32.6542 13.888 32.2568 14.1279C31.8629 14.3643 31.4081 14.4824 30.8925 14.4824C30.1119 14.4824 29.4835 14.2228 29.0073 13.7036C28.531 13.1808 28.2929 12.4808 28.2929 11.6035V11.1201C28.2929 9.89909 28.5185 8.92871 28.9697 8.20898C29.4244 7.48926 30.094 7.05062 30.9785 6.89307C31.4798 6.80355 31.8181 6.69434 31.9936 6.56543C32.169 6.43652 32.2568 6.25928 32.2568 6.03369H33.0732C33.0732 6.48128 32.9711 6.8304 32.767 7.08105C32.5665 7.33171 32.2442 7.50895 31.8002 7.61279L31.059 7.7793C30.4682 7.91895 30.0242 8.15527 29.727 8.48828C29.4334 8.81771 29.2418 9.25814 29.1523 9.80957C29.6786 9.20085 30.3196 8.89648 31.0751 8.89648ZM30.8818 9.71289C30.3948 9.71289 30.0081 9.8776 29.7216 10.207C29.4352 10.5329 29.2919 10.9858 29.2919 11.5659V11.6519C29.2919 12.2749 29.4352 12.769 29.7216 13.1343C30.0117 13.4959 30.402 13.6768 30.8925 13.6768C31.3867 13.6768 31.777 13.4941 32.0634 13.1289C32.3499 12.7637 32.4931 12.2301 32.4931 11.5283C32.4931 10.9805 32.3481 10.5418 32.058 10.2124C31.7716 9.87939 31.3795 9.71289 30.8818 9.71289ZM39.4164 11.5337C39.4164 12.4181 39.2141 13.1307 38.8095 13.6714C38.4049 14.2121 37.857 14.4824 37.166 14.4824C36.4606 14.4824 35.9055 14.2586 35.5009 13.811V16.6094H34.5073V8.56348H35.415L35.4633 9.20801C35.8679 8.70671 36.4301 8.45605 37.1498 8.45605C37.8481 8.45605 38.3995 8.71924 38.8041 9.24561C39.2123 9.77197 39.4164 10.5042 39.4164 11.4424V11.5337ZM38.4228 11.4209C38.4228 10.7656 38.2831 10.2482 38.0038 9.86865C37.7245 9.4891 37.3414 9.29932 36.8544 9.29932C36.2529 9.29932 35.8017 9.56608 35.5009 10.0996V12.8765C35.7981 13.4064 36.2529 13.6714 36.8652 13.6714C37.3414 13.6714 37.7192 13.4834 37.9985 13.1074C38.2814 12.7279 38.4228 12.1657 38.4228 11.4209ZM44.2719 14.375C44.2146 14.2604 44.1681 14.0563 44.1323 13.7627C43.6703 14.2425 43.1189 14.4824 42.478 14.4824C41.905 14.4824 41.4342 14.3213 41.0654 13.999C40.7001 13.6732 40.5175 13.2614 40.5175 12.7637C40.5175 12.1585 40.7467 11.6895 41.205 11.3564C41.6669 11.0199 42.315 10.8516 43.1494 10.8516H44.1161V10.395C44.1161 10.0477 44.0123 9.77197 43.8046 9.56787C43.5969 9.36019 43.2908 9.25635 42.8862 9.25635C42.5317 9.25635 42.2345 9.34587 41.9946 9.5249C41.7547 9.70394 41.6347 9.92057 41.6347 10.1748H40.6357C40.6357 9.88477 40.7377 9.60547 40.9418 9.33691C41.1495 9.06478 41.4288 8.84993 41.7797 8.69238C42.1342 8.53483 42.5227 8.45605 42.9453 8.45605C43.6148 8.45605 44.1394 8.62435 44.519 8.96094C44.8985 9.29395 45.0955 9.75407 45.1098 10.3413V13.0161C45.1098 13.5496 45.1778 13.974 45.3139 14.2891V14.375H44.2719ZM42.623 13.6177C42.9345 13.6177 43.2299 13.5371 43.5092 13.376C43.7885 13.2148 43.9908 13.0054 44.1161 12.7476V11.5552H43.3373C42.1199 11.5552 41.5112 11.9115 41.5112 12.624C41.5112 12.9355 41.615 13.179 41.8227 13.3545C42.0304 13.5299 42.2971 13.6177 42.623 13.6177ZM50.8998 9.36914H48.9501V14.375H47.9565V9.36914H46.0444V8.56348H50.8998V9.36914ZM52.9516 10.5669H54.4609C55.1197 10.5741 55.6407 10.7459 56.0239 11.0825C56.407 11.4191 56.5986 11.8757 56.5986 12.4521C56.5986 13.0322 56.4016 13.4977 56.0078 13.8486C55.6139 14.1995 55.0839 14.375 54.4179 14.375H51.9579V8.56348H52.9516V10.5669ZM52.9516 11.3779V13.564H54.4286C54.801 13.564 55.0893 13.4691 55.2934 13.2793C55.4975 13.0859 55.5995 12.8228 55.5995 12.4897C55.5995 12.1675 55.4993 11.9043 55.2988 11.7002C55.1018 11.4925 54.8243 11.3851 54.4662 11.3779H52.9516Z" fill="white"/>
</svg>
