<svg width="140" height="23" viewBox="0 0 140 23" fill="none" xmlns="http://www.w3.org/2000/svg">
<rect x="0.501404" y="0.826416" width="138" height="21" rx="1.5" fill="#F8F8F8" stroke="#DADADA"/>
<path d="M53.5019 11.1887H52.5512V14.7014H51.52V6.8811H52.5512V10.3293H53.3569L56.0908 6.8811H57.3745L54.3881 10.6731L57.5947 14.7014H56.3325L53.5019 11.1887ZM61.9721 14.7014C61.9148 14.5868 61.8683 14.3827 61.8325 14.0891C61.3705 14.5689 60.8191 14.8088 60.1782 14.8088C59.6052 14.8088 59.1344 14.6477 58.7656 14.3254C58.4003 13.9996 58.2177 13.5878 58.2177 13.0901C58.2177 12.4849 58.4469 12.0159 58.9052 11.6829C59.3671 11.3463 60.0152 11.178 60.8495 11.178H61.8163V10.7214C61.8163 10.3741 61.7125 10.0984 61.5048 9.89429C61.2971 9.6866 60.991 9.58276 60.5864 9.58276C60.2319 9.58276 59.9347 9.67228 59.6948 9.85132C59.4549 10.0304 59.3349 10.247 59.3349 10.5012H58.3359C58.3359 10.2112 58.4379 9.93188 58.642 9.66333C58.8497 9.39119 59.129 9.17635 59.4799 9.0188C59.8344 8.86125 60.2229 8.78247 60.6454 8.78247C61.315 8.78247 61.8396 8.95076 62.2192 9.28735C62.5987 9.62036 62.7957 10.0805 62.81 10.6677V13.3425C62.81 13.8761 62.878 14.3004 63.0141 14.6155V14.7014H61.9721ZM60.3232 13.9441C60.6347 13.9441 60.9301 13.8635 61.2094 13.7024C61.4887 13.5413 61.691 13.3318 61.8163 13.074V11.8816H61.0375C59.8201 11.8816 59.2114 12.2379 59.2114 12.9504C59.2114 13.262 59.3152 13.5055 59.5229 13.6809C59.7306 13.8564 59.9973 13.9441 60.3232 13.9441ZM69.1318 8.88989V14.7014H68.1328V9.71167H66.1562L66.038 11.887C65.9736 12.886 65.8053 13.6003 65.5331 14.03C65.2646 14.4597 64.8367 14.6835 64.2495 14.7014H63.852V13.8259L64.1367 13.8044C64.4589 13.7686 64.6899 13.5824 64.8295 13.2458C64.9692 12.9093 65.0587 12.2862 65.0981 11.3767L65.2055 8.88989H69.1318ZM73.1386 14.8088C72.3509 14.8088 71.7099 14.551 71.2158 14.0354C70.7216 13.5162 70.4745 12.8233 70.4745 11.9568V11.7742C70.4745 11.1977 70.5838 10.6838 70.8022 10.2327C71.0242 9.77791 71.3321 9.42342 71.726 9.16919C72.1235 8.91138 72.5532 8.78247 73.0151 8.78247C73.7706 8.78247 74.3578 9.03133 74.7768 9.52905C75.1957 10.0268 75.4052 10.7393 75.4052 11.6667V12.0803H71.4682C71.4825 12.6532 71.649 13.1169 71.9677 13.4714C72.29 13.8223 72.6982 13.9978 73.1923 13.9978C73.5432 13.9978 73.8404 13.9262 74.0839 13.783C74.3274 13.6397 74.5405 13.45 74.7231 13.2136L75.33 13.6863C74.843 14.4347 74.1126 14.8088 73.1386 14.8088ZM73.0151 9.59888C72.614 9.59888 72.2774 9.74569 72.0053 10.0393C71.7332 10.3293 71.5649 10.7375 71.5004 11.2639H74.4116V11.1887C74.3829 10.6838 74.2468 10.2935 74.0034 10.0178C73.7599 9.73853 73.4304 9.59888 73.0151 9.59888ZM81.308 14.7014H80.3144V12.22H77.645V14.7014H76.6459V8.88989H77.645V11.4089H80.3144V8.88989H81.308V14.7014ZM82.8603 13.8904L83.204 13.4661C83.5908 12.9648 83.811 12.2128 83.8647 11.2102L83.956 8.88989H87.6996V13.8904H88.4462V16.4094H87.4526V14.7014H83.3974V16.4094H82.4037L82.4091 13.8904H82.8603ZM84.0366 13.8904H86.706V9.80835H84.9174L84.8583 11.1941C84.7975 12.3507 84.5235 13.2494 84.0366 13.8904ZM93.1352 14.7014C93.0779 14.5868 93.0314 14.3827 92.9955 14.0891C92.5336 14.5689 91.9822 14.8088 91.3412 14.8088C90.7683 14.8088 90.2975 14.6477 89.9286 14.3254C89.5634 13.9996 89.3808 13.5878 89.3808 13.0901C89.3808 12.4849 89.61 12.0159 90.0683 11.6829C90.5302 11.3463 91.1783 11.178 92.0126 11.178H92.9794V10.7214C92.9794 10.3741 92.8756 10.0984 92.6679 9.89429C92.4602 9.6866 92.1541 9.58276 91.7495 9.58276C91.395 9.58276 91.0978 9.67228 90.8578 9.85132C90.6179 10.0304 90.498 10.247 90.498 10.5012H89.499C89.499 10.2112 89.601 9.93188 89.8051 9.66333C90.0128 9.39119 90.2921 9.17635 90.643 9.0188C90.9975 8.86125 91.386 8.78247 91.8085 8.78247C92.4781 8.78247 93.0027 8.95076 93.3823 9.28735C93.7618 9.62036 93.9588 10.0805 93.9731 10.6677V13.3425C93.9731 13.8761 94.0411 14.3004 94.1772 14.6155V14.7014H93.1352ZM91.4863 13.9441C91.7978 13.9441 92.0932 13.8635 92.3725 13.7024C92.6518 13.5413 92.8541 13.3318 92.9794 13.074V11.8816H92.2006C90.9832 11.8816 90.3745 12.2379 90.3745 12.9504C90.3745 13.262 90.4783 13.5055 90.686 13.6809C90.8937 13.8564 91.1604 13.9441 91.4863 13.9441ZM100.44 11.8601C100.44 12.7445 100.238 13.4571 99.8329 13.9978C99.4283 14.5385 98.8805 14.8088 98.1894 14.8088C97.484 14.8088 96.929 14.585 96.5244 14.1375V16.9358H95.5307V8.88989H96.4384L96.4868 9.53442C96.8914 9.03312 97.4536 8.78247 98.1733 8.78247C98.8715 8.78247 99.423 9.04565 99.8276 9.57202C100.236 10.0984 100.44 10.8306 100.44 11.7688V11.8601ZM99.4462 11.7473C99.4462 11.092 99.3066 10.5746 99.0273 10.1951C98.748 9.81551 98.3648 9.62573 97.8779 9.62573C97.2763 9.62573 96.8251 9.8925 96.5244 10.426V13.2029C96.8216 13.7328 97.2763 13.9978 97.8886 13.9978C98.3648 13.9978 98.7426 13.8098 99.0219 13.4338C99.3048 13.0543 99.4462 12.4921 99.4462 11.7473ZM102.792 10.8933H104.302C104.961 10.9005 105.482 11.0723 105.865 11.4089C106.248 11.7455 106.439 12.2021 106.439 12.7786C106.439 13.3586 106.242 13.8241 105.849 14.175C105.455 14.526 104.925 14.7014 104.259 14.7014H101.799V8.88989H102.792V10.8933ZM102.792 11.7043V13.8904H104.269C104.642 13.8904 104.93 13.7955 105.134 13.6057C105.338 13.4124 105.44 13.1492 105.44 12.8162C105.44 12.4939 105.34 12.2307 105.14 12.0266C104.943 11.8189 104.665 11.7115 104.307 11.7043H102.792Z" fill="#555555"/>
<path d="M37.8874 14.7415C37.8284 15.2462 37.6416 15.6363 37.3269 15.9116C37.0144 16.1847 36.5982 16.3213 36.0781 16.3213C35.5144 16.3213 35.0621 16.1192 34.7212 15.7149C34.3825 15.3107 34.2131 14.7699 34.2131 14.0925V13.6336C34.2131 13.19 34.2918 12.8 34.4491 12.4635C34.6086 12.127 34.8337 11.8692 35.1243 11.69C35.4149 11.5086 35.7514 11.4179 36.1338 11.4179C36.6408 11.4179 37.0472 11.56 37.3531 11.844C37.659 12.1259 37.8371 12.517 37.8874 13.0174H37.2548C37.2002 12.6372 37.0811 12.3619 36.8975 12.1915C36.7162 12.021 36.4616 11.9358 36.1338 11.9358C35.7318 11.9358 35.416 12.0844 35.1866 12.3816C34.9594 12.6787 34.8457 13.1016 34.8457 13.65V14.1122C34.8457 14.63 34.9539 15.0419 35.1702 15.3478C35.3865 15.6537 35.6892 15.8067 36.0781 15.8067C36.4277 15.8067 36.6954 15.728 36.8811 15.5707C37.0691 15.4112 37.1936 15.1348 37.2548 14.7415H37.8874Z" fill="#555555"/>
<path d="M40.8438 16.2557C40.8088 16.1858 40.7804 16.0613 40.7586 15.8821C40.4767 16.1749 40.1402 16.3213 39.7491 16.3213C39.3995 16.3213 39.1121 16.223 38.8871 16.0263C38.6642 15.8275 38.5527 15.5762 38.5527 15.2724C38.5527 14.9032 38.6926 14.6169 38.9723 14.4137C39.2541 14.2083 39.6497 14.1056 40.1588 14.1056H40.7488V13.827C40.7488 13.615 40.6854 13.4468 40.5586 13.3222C40.4319 13.1955 40.2451 13.1321 39.9982 13.1321C39.7818 13.1321 39.6005 13.1868 39.4541 13.296C39.3077 13.4053 39.2345 13.5375 39.2345 13.6926H38.6248C38.6248 13.5156 38.6871 13.3452 38.8117 13.1813C38.9384 13.0152 39.1088 12.8841 39.323 12.788C39.5393 12.6918 39.7764 12.6438 40.0342 12.6438C40.4428 12.6438 40.763 12.7465 40.9946 12.9519C41.2262 13.1551 41.3464 13.4359 41.3551 13.7942V15.4265C41.3551 15.7521 41.3966 16.011 41.4797 16.2033V16.2557H40.8438ZM39.8376 15.7936C40.0277 15.7936 40.2079 15.7444 40.3784 15.6461C40.5488 15.5478 40.6723 15.4199 40.7488 15.2626V14.535H40.2735C39.5306 14.535 39.1591 14.7524 39.1591 15.1872C39.1591 15.3773 39.2225 15.5259 39.3492 15.633C39.4759 15.74 39.6387 15.7936 39.8376 15.7936Z" fill="#555555"/>
<path d="M42.9644 16.2557H42.3581V11.2213H42.9644V16.2557Z" fill="#555555"/>
<path d="M33.385 16.2557H32.7787V11.2213H33.385V16.2557Z" fill="#555555"/>
<rect x="31.4542" y="5.23209" width="13" height="13" rx="1.5" stroke="#CDCFCE"/>
<path d="M30.9542 6.73209C30.9542 5.62752 31.8497 4.73209 32.9542 4.73209H42.9542C44.0588 4.73209 44.9542 5.62752 44.9542 6.73209V9.13462H30.9542V6.73209Z" fill="url(#paint0_radial)"/>
<path d="M30.9542 7.73209H44.9542V9.13462H30.9542V7.73209Z" fill="#9D3C43"/>
<defs>
<radialGradient id="paint0_radial" cx="0" cy="0" r="1" gradientUnits="userSpaceOnUse" gradientTransform="translate(37.9542 8.05995) rotate(90) scale(3.11187 9.8957)">
<stop offset="0.338542" stop-color="#FFB5B4"/>
<stop offset="0.643214" stop-color="#D97680"/>
<stop offset="1" stop-color="#D56F7A"/>
</radialGradient>
</defs>
</svg>
