<svg width="23" height="23" viewBox="0 0 23 23" fill="none" xmlns="http://www.w3.org/2000/svg">
<rect x="22.2101" y="22.9349" width="22" height="22" rx="2" transform="rotate(-180 22.2101 22.9349)" fill="#EDF2FC"/>
<mask id="path-2-inside-1" fill="white">
<path fill-rule="evenodd" clip-rule="evenodd" d="M5.1982 19.571C5.58868 19.9616 6.22177 19.9616 6.61225 19.571L11.5123 14.6699L16.4123 19.571C16.8028 19.9616 17.4359 19.9616 17.8263 19.571L19.2158 18.1812C19.6063 17.7906 19.6063 17.1574 19.2158 16.7668L14.3158 11.8657L19.2158 6.96458C19.6063 6.57401 19.6063 5.94077 19.2158 5.5502L17.8263 4.16042C17.4359 3.76985 16.8028 3.76985 16.4123 4.16042L11.5123 9.06154L6.61225 4.16042C6.22177 3.76985 5.58868 3.76985 5.1982 4.16042L3.80873 5.5502C3.41825 5.94077 3.41825 6.57401 3.80873 6.96458L8.70875 11.8657L3.80873 16.7668C3.41825 17.1574 3.41825 17.7906 3.80873 18.1812L5.1982 19.571Z"/>
</mask>
<g filter="url(#filter0_i)">
<path fill-rule="evenodd" clip-rule="evenodd" d="M5.1982 19.571C5.58868 19.9616 6.22177 19.9616 6.61225 19.571L11.5123 14.6699L16.4123 19.571C16.8028 19.9616 17.4359 19.9616 17.8263 19.571L19.2158 18.1812C19.6063 17.7906 19.6063 17.1574 19.2158 16.7668L14.3158 11.8657L19.2158 6.96458C19.6063 6.57401 19.6063 5.94077 19.2158 5.5502L17.8263 4.16042C17.4359 3.76985 16.8028 3.76985 16.4123 4.16042L11.5123 9.06154L6.61225 4.16042C6.22177 3.76985 5.58868 3.76985 5.1982 4.16042L3.80873 5.5502C3.41825 5.94077 3.41825 6.57401 3.80873 6.96458L8.70875 11.8657L3.80873 16.7668C3.41825 17.1574 3.41825 17.7906 3.80873 18.1812L5.1982 19.571Z" fill="url(#paint0_linear)"/>
</g>
<path d="M6.61225 19.571L7.178 20.1366H7.178L6.61225 19.571ZM5.1982 19.571L5.76395 19.0054L5.1982 19.571ZM11.5123 14.6699L12.078 14.1042L11.5123 13.5384L10.9465 14.1042L11.5123 14.6699ZM16.4123 19.571L16.978 19.0054H16.978L16.4123 19.571ZM17.8263 19.571L18.3921 20.1366L18.3921 20.1366L17.8263 19.571ZM19.2158 18.1812L18.6501 17.6156L19.2158 18.1812ZM19.2158 16.7668L19.7816 16.2012L19.2158 16.7668ZM14.3158 11.8657L13.75 11.3001L13.1845 11.8657L13.75 12.4313L14.3158 11.8657ZM19.2158 6.96458L19.7816 7.5302L19.2158 6.96458ZM19.2158 5.5502L18.6501 6.11582V6.11582L19.2158 5.5502ZM17.8263 4.16042L17.2606 4.72604V4.72604L17.8263 4.16042ZM16.4123 4.16042L15.8465 3.5948V3.5948L16.4123 4.16042ZM11.5123 9.06154L10.9465 9.62717L11.5123 10.193L12.078 9.62717L11.5123 9.06154ZM6.61225 4.16042L7.178 3.5948V3.5948L6.61225 4.16042ZM5.1982 4.16042L4.63245 3.5948V3.5948L5.1982 4.16042ZM3.80873 5.5502L4.37448 6.11582L4.37448 6.11582L3.80873 5.5502ZM3.80873 6.96458L4.37448 6.39896H4.37448L3.80873 6.96458ZM8.70875 11.8657L9.27449 12.4313L9.83999 11.8657L9.27449 11.3001L8.70875 11.8657ZM3.80873 16.7668L3.24298 16.2012H3.24298L3.80873 16.7668ZM3.80873 18.1812L3.24298 18.7468H3.24298L3.80873 18.1812ZM6.0465 19.0054C5.96845 19.0834 5.84199 19.0834 5.76395 19.0054L4.63245 20.1366C5.33536 20.8397 6.47509 20.8397 7.178 20.1366L6.0465 19.0054ZM10.9465 14.1042L6.0465 19.0054L7.178 20.1366L12.078 15.2355L10.9465 14.1042ZM16.978 19.0054L12.078 14.1042L10.9465 15.2355L15.8465 20.1366L16.978 19.0054ZM17.2606 19.0054C17.1825 19.0834 17.0561 19.0834 16.978 19.0054L15.8465 20.1366C16.5494 20.8397 17.6892 20.8397 18.3921 20.1366L17.2606 19.0054ZM18.6501 17.6156L17.2606 19.0054L18.3921 20.1366L19.7816 18.7468L18.6501 17.6156ZM18.6501 17.3325C18.7282 17.4106 18.7282 17.5374 18.6501 17.6156L19.7816 18.7468C20.4844 18.0439 20.4844 16.9042 19.7816 16.2012L18.6501 17.3325ZM13.75 12.4313L18.6501 17.3325L19.7816 16.2012L14.8815 11.3001L13.75 12.4313ZM18.6501 6.39895L13.75 11.3001L14.8815 12.4313L19.7816 7.5302L18.6501 6.39895ZM18.6501 6.11582C18.7282 6.19399 18.7282 6.32079 18.6501 6.39895L19.7816 7.5302C20.4844 6.82722 20.4844 5.68755 19.7816 4.98458L18.6501 6.11582ZM17.2606 4.72604L18.6501 6.11582L19.7816 4.98458L18.3921 3.5948L17.2606 4.72604ZM16.978 4.72604C17.0561 4.64798 17.1825 4.64798 17.2606 4.72604L18.3921 3.5948C17.6892 2.89172 16.5494 2.89173 15.8465 3.5948L16.978 4.72604ZM12.078 9.62717L16.978 4.72604L15.8465 3.5948L10.9465 8.49592L12.078 9.62717ZM6.0465 4.72604L10.9465 9.62717L12.078 8.49592L7.178 3.5948L6.0465 4.72604ZM5.76395 4.72604C5.84199 4.64798 5.96846 4.64798 6.0465 4.72604L7.178 3.5948C6.47509 2.89172 5.33536 2.89173 4.63245 3.5948L5.76395 4.72604ZM4.37448 6.11582L5.76395 4.72604L4.63245 3.5948L3.24298 4.98458L4.37448 6.11582ZM4.37448 6.39896C4.29633 6.32079 4.29633 6.19399 4.37448 6.11582L3.24298 4.98458C2.54017 5.68756 2.54017 6.82723 3.24298 7.5302L4.37448 6.39896ZM9.27449 11.3001L4.37448 6.39896L3.24298 7.5302L8.143 12.4313L9.27449 11.3001ZM4.37448 17.3325L9.27449 12.4313L8.143 11.3001L3.24298 16.2012L4.37448 17.3325ZM4.37448 17.6156C4.29633 17.5374 4.29633 17.4106 4.37448 17.3325L3.24298 16.2012C2.54016 16.9042 2.54017 18.0439 3.24298 18.7468L4.37448 17.6156ZM5.76395 19.0054L4.37448 17.6156L3.24298 18.7468L4.63245 20.1366L5.76395 19.0054Z" fill="#A3A1A0" mask="url(#path-2-inside-1)"/>
<defs>
<filter id="filter0_i" x="3.51587" y="3.86749" width="15.9928" height="16.9964" filterUnits="userSpaceOnUse" color-interpolation-filters="sRGB">
<feFlood flood-opacity="0" result="BackgroundImageFix"/>
<feBlend mode="normal" in="SourceGraphic" in2="BackgroundImageFix" result="shape"/>
<feColorMatrix in="SourceAlpha" type="matrix" values="0 0 0 0 0 0 0 0 0 0 0 0 0 0 0 0 0 0 127 0" result="hardAlpha"/>
<feOffset dy="2"/>
<feGaussianBlur stdDeviation="0.5"/>
<feComposite in2="hardAlpha" operator="arithmetic" k2="-1" k3="1"/>
<feColorMatrix type="matrix" values="0 0 0 0 1 0 0 0 0 1 0 0 0 0 1 0 0 0 0.35 0"/>
<feBlend mode="normal" in2="shape" result="effect1_innerShadow"/>
</filter>
<linearGradient id="paint0_linear" x1="11.5123" y1="3.86749" x2="11.5123" y2="19.8639" gradientUnits="userSpaceOnUse">
<stop stop-color="#CBCAC9"/>
<stop offset="1" stop-color="#BAB8B8"/>
</linearGradient>
</defs>
</svg>
