<svg width="140" height="23" viewBox="0 0 140 23" fill="none" xmlns="http://www.w3.org/2000/svg">
<rect x="0.501404" y="0.826416" width="138" height="21" rx="1.5" fill="#F8F8F8" stroke="#DADADA"/>
<path d="M50.5961 12.22C50.4995 13.0471 50.1933 13.6863 49.6777 14.1375C49.1656 14.585 48.4835 14.8088 47.6313 14.8088C46.7075 14.8088 45.9662 14.4776 45.4077 13.8152C44.8526 13.1528 44.5751 12.2665 44.5751 11.1565V10.4045C44.5751 9.67765 44.704 9.03849 44.9619 8.48706C45.2232 7.93563 45.5921 7.5131 46.0683 7.21948C46.5445 6.92228 47.096 6.77368 47.7226 6.77368C48.5533 6.77368 49.2193 7.00643 49.7206 7.47192C50.2219 7.93384 50.5138 8.57479 50.5961 9.39478H49.5595C49.47 8.77173 49.2748 8.32056 48.9741 8.04126C48.6769 7.76196 48.2597 7.62231 47.7226 7.62231C47.0637 7.62231 46.5463 7.8658 46.1703 8.35278C45.798 8.83976 45.6118 9.53263 45.6118 10.4314V11.1887C45.6118 12.0374 45.789 12.7123 46.1435 13.2136C46.498 13.7149 46.9939 13.9656 47.6313 13.9656C48.2042 13.9656 48.6428 13.8367 48.9472 13.5789C49.2551 13.3175 49.4592 12.8645 49.5595 12.22H50.5961ZM55.1992 13.3855L57.1757 8.88989H58.4164V14.7014H57.4228V10.4744L55.5429 14.7014H54.8554L52.9379 10.3831V14.7014H51.9443V8.88989H53.2333L55.1992 13.3855ZM62.4286 14.8088C61.6409 14.8088 60.9999 14.551 60.5058 14.0354C60.0117 13.5162 59.7646 12.8233 59.7646 11.9568V11.7742C59.7646 11.1977 59.8738 10.6838 60.0922 10.2327C60.3142 9.77791 60.6222 9.42342 61.0161 9.16919C61.4135 8.91138 61.8432 8.78247 62.3051 8.78247C63.0606 8.78247 63.6479 9.03133 64.0668 9.52905C64.4858 10.0268 64.6953 10.7393 64.6953 11.6667V12.0803H60.7582C60.7726 12.6532 60.9391 13.1169 61.2578 13.4714C61.58 13.8223 61.9882 13.9978 62.4824 13.9978C62.8333 13.9978 63.1305 13.9262 63.374 13.783C63.6175 13.6397 63.8305 13.45 64.0131 13.2136L64.6201 13.6863C64.1331 14.4347 63.4026 14.8088 62.4286 14.8088ZM62.3051 9.59888C61.9041 9.59888 61.5675 9.74569 61.2953 10.0393C61.0232 10.3293 60.8549 10.7375 60.7905 11.2639H63.7016V11.1887C63.673 10.6838 63.5369 10.2935 63.2934 10.0178C63.0499 9.73853 62.7205 9.59888 62.3051 9.59888ZM70.5981 14.7014H69.6044V12.22H66.935V14.7014H65.936V8.88989H66.935V11.4089H69.6044V8.88989H70.5981V14.7014ZM75.9584 8.88989H76.9521V14.7014H75.9584V10.4636L73.2783 14.7014H72.2846V8.88989H73.2783V13.1331L75.9584 8.88989ZM82.8657 9.69556H80.916V14.7014H79.9223V9.69556H78.0102V8.88989H82.8657V9.69556ZM84.9174 10.8933H86.4267C87.0856 10.9005 87.6065 11.0723 87.9897 11.4089C88.3728 11.7455 88.5644 12.2021 88.5644 12.7786C88.5644 13.3586 88.3675 13.8241 87.9736 14.175C87.5797 14.526 87.0497 14.7014 86.3837 14.7014H83.9238V8.88989H84.9174V10.8933ZM84.9174 11.7043V13.8904H86.3945C86.7669 13.8904 87.0551 13.7955 87.2592 13.6057C87.4633 13.4124 87.5654 13.1492 87.5654 12.8162C87.5654 12.4939 87.4651 12.2307 87.2646 12.0266C87.0676 11.8189 86.7901 11.7115 86.4321 11.7043H84.9174ZM97.1098 11.0867H93.7206V13.8582H97.6577V14.7014H92.6894V6.8811H97.6039V7.72974H93.7206V10.2434H97.1098V11.0867ZM99.7202 8.88989L99.747 9.53442C100.173 9.03312 100.748 8.78247 101.471 8.78247C102.284 8.78247 102.837 9.09399 103.131 9.71704C103.324 9.43774 103.575 9.21216 103.883 9.04028C104.194 8.86841 104.561 8.78247 104.984 8.78247C106.259 8.78247 106.907 9.45744 106.928 10.8074V14.7014H105.935V10.8665C105.935 10.4511 105.84 10.1414 105.65 9.93726C105.46 9.72957 105.141 9.62573 104.694 9.62573C104.325 9.62573 104.019 9.73674 103.775 9.95874C103.532 10.1772 103.39 10.4726 103.351 10.845V14.7014H102.352V10.8933C102.352 10.0483 101.938 9.62573 101.111 9.62573C100.46 9.62573 100.014 9.90324 99.7739 10.4583V14.7014H98.7802V8.88989H99.7202ZM112.02 14.7014C111.963 14.5868 111.916 14.3827 111.88 14.0891C111.418 14.5689 110.867 14.8088 110.226 14.8088C109.653 14.8088 109.182 14.6477 108.813 14.3254C108.448 13.9996 108.266 13.5878 108.266 13.0901C108.266 12.4849 108.495 12.0159 108.953 11.6829C109.415 11.3463 110.063 11.178 110.897 11.178H111.864V10.7214C111.864 10.3741 111.76 10.0984 111.553 9.89429C111.345 9.6866 111.039 9.58276 110.634 9.58276C110.28 9.58276 109.983 9.67228 109.743 9.85132C109.503 10.0304 109.383 10.247 109.383 10.5012H108.384C108.384 10.2112 108.486 9.93188 108.69 9.66333C108.898 9.39119 109.177 9.17635 109.528 9.0188C109.882 8.86125 110.271 8.78247 110.693 8.78247C111.363 8.78247 111.887 8.95076 112.267 9.28735C112.647 9.62036 112.844 10.0805 112.858 10.6677V13.3425C112.858 13.8761 112.926 14.3004 113.062 14.6155V14.7014H112.02ZM110.371 13.9441C110.683 13.9441 110.978 13.8635 111.257 13.7024C111.537 13.5413 111.739 13.3318 111.864 13.074V11.8816H111.085C109.868 11.8816 109.259 12.2379 109.259 12.9504C109.259 13.262 109.363 13.5055 109.571 13.6809C109.778 13.8564 110.045 13.9441 110.371 13.9441ZM115.495 14.7014H114.501V8.88989H115.495V14.7014ZM114.421 7.34839C114.421 7.18726 114.469 7.05119 114.566 6.94019C114.666 6.82918 114.813 6.77368 115.006 6.77368C115.2 6.77368 115.346 6.82918 115.447 6.94019C115.547 7.05119 115.597 7.18726 115.597 7.34839C115.597 7.50952 115.547 7.6438 115.447 7.75122C115.346 7.85864 115.2 7.91235 115.006 7.91235C114.813 7.91235 114.666 7.85864 114.566 7.75122C114.469 7.6438 114.421 7.50952 114.421 7.34839ZM118.17 14.7014H117.176V6.45142H118.17V14.7014Z" fill="#555555"/>
<rect x="22.0859" y="4.5" width="11.1883" height="13.8685" fill="url(#paint0_linear)" stroke="url(#paint1_linear)"/>
<rect x="22.0859" y="4.5" width="11.1883" height="13.8685" stroke="#BCCCD3"/>
<rect x="21.5859" y="4" width="12.1883" height="1" fill="#A3B0B6"/>
<rect x="21.5859" y="17.8685" width="12.1883" height="1" fill="#A3B0B6"/>
<rect x="32.8593" y="15.3411" width="0.880512" height="0.880512" fill="#B18216"/>
<rect x="31.9788" y="14.4606" width="0.880512" height="0.880512" fill="#C79816"/>
<rect x="31.0983" y="13.5801" width="0.880512" height="0.880512" fill="#E0B117"/>
<rect x="31.9788" y="12.6996" width="0.880512" height="0.880512" fill="#E0B117"/>
<rect x="32.8593" y="11.819" width="0.880512" height="0.880512" fill="#E0B117"/>
<rect x="33.7398" y="10.9385" width="0.880512" height="0.880512" fill="#E0B117"/>
<rect x="34.6203" y="10.058" width="0.880512" height="0.880512" fill="#E0B117"/>
<rect x="33.7398" y="14.4606" width="0.880512" height="0.880512" fill="#B18216"/>
<rect x="34.6203" y="13.5801" width="0.880512" height="0.880512" fill="#B18216"/>
<rect x="35.5008" y="12.6996" width="0.880512" height="0.880512" fill="#B18216"/>
<rect x="36.3813" y="11.819" width="0.880512" height="0.880512" fill="#B18216"/>
<rect x="37.2618" y="10.9385" width="0.880512" height="0.880512" fill="#737373"/>
<rect x="38.1304" y="10.058" width="0.880512" height="0.880512" fill="#737373"/>
<rect x="38.1304" y="9.17746" width="0.880512" height="0.880512" fill="#DF7373"/>
<rect x="37.2618" y="8.29694" width="0.880512" height="0.880512" fill="#FE7373"/>
<rect x="36.3813" y="8.29694" width="0.880512" height="0.880512" fill="#A1A1A1"/>
<rect x="35.5008" y="9.17697" width="0.880512" height="0.880512" fill="#A1A1A1"/>
<rect x="36.3813" y="9.17746" width="0.880512" height="0.880512" fill="#DFDFDF"/>
<rect x="36.3813" y="10.058" width="0.880512" height="0.880512" fill="#8A8A8A"/>
<rect x="37.2499" y="9.17746" width="0.880512" height="0.880512" fill="#8A8A8A"/>
<rect x="36.3813" y="10.9385" width="0.880512" height="0.880512" fill="#FED016"/>
<rect x="35.5008" y="10.058" width="0.880512" height="0.880512" fill="#FEFEDF"/>
<rect x="35.5008" y="10.9381" width="0.880512" height="0.880512" fill="#FEE67A"/>
<rect x="34.6432" y="11.8184" width="0.880512" height="0.880512" fill="#FEE67A"/>
<rect x="33.7857" y="12.6987" width="0.880512" height="0.880512" fill="#FEE67A"/>
<rect x="32.9282" y="13.579" width="0.880512" height="0.880512" fill="#FEE67A"/>
<rect x="31.9788" y="15.3411" width="0.880512" height="0.880512" fill="#FEA173"/>
<rect x="31.0983" y="15.3411" width="0.880512" height="0.880512" fill="#FFC5A2"/>
<rect x="31.0983" y="16.2227" width="0.880512" height="0.880512" fill="#A24545"/>
<rect x="31.9788" y="16.2227" width="0.880512" height="0.880512" fill="#CF7345"/>
<rect x="30.2178" y="16.2227" width="0.880512" height="0.880512" fill="#454545"/>
<rect x="30.2178" y="15.3411" width="0.880512" height="0.880512" fill="#E78B5D"/>
<rect x="30.2178" y="14.4595" width="0.880512" height="0.880512" fill="#FFA274"/>
<rect x="31.0983" y="14.4595" width="0.880512" height="0.880512" fill="#FFE7D1"/>
<rect x="34.6318" y="10.9383" width="0.880512" height="0.880512" fill="#FEFEDF"/>
<rect x="33.7628" y="11.8186" width="0.880512" height="0.880512" fill="#FEFEDF"/>
<rect x="32.8937" y="12.6989" width="0.880512" height="0.880512" fill="#FEFEDF"/>
<rect x="32.0247" y="13.5792" width="0.880512" height="0.880512" fill="#FEFEDF"/>
<rect x="35.5008" y="11.819" width="0.880512" height="0.880512" fill="#FED016"/>
<rect x="34.6203" y="12.6996" width="0.880512" height="0.880512" fill="#FED016"/>
<rect x="33.7398" y="13.5801" width="0.880512" height="0.880512" fill="#FED016"/>
<rect x="32.8593" y="14.4606" width="0.880512" height="0.880512" fill="#FED016"/>
<rect x="37.2618" y="10.058" width="0.880512" height="0.880512" fill="#C0C0C0"/>
<rect x="28.1203" y="13.579" width="0.880512" height="0.880512" fill="#7F8A96"/>
<rect x="28.1203" y="6.53333" width="0.880512" height="0.880512" fill="#7F8A96"/>
<rect x="28.1203" y="11.8182" width="0.880512" height="0.880512" fill="#7F8A96"/>
<rect x="28.1203" y="10.9385" width="0.880512" height="0.880512" fill="#7F8A96"/>
<rect x="28.1203" y="10.0588" width="0.880512" height="0.880512" fill="#7F8A96"/>
<rect x="28.1203" y="9.17917" width="0.880512" height="0.880512" fill="#7F8A96"/>
<rect x="28.1203" y="8.2995" width="0.880512" height="0.880512" fill="#7F8A96"/>
<rect x="27.2398" y="8.2995" width="0.880512" height="0.880512" fill="#7F8A96"/>
<rect x="26.3593" y="8.2995" width="0.880512" height="0.880512" fill="#7F8A96"/>
<rect x="25.4788" y="9.18002" width="0.880512" height="0.880512" fill="#7F8A96"/>
<rect x="25.4788" y="10.0561" width="0.880512" height="0.880512" fill="#7F8A96"/>
<rect x="25.4788" y="10.9321" width="0.880512" height="0.880512" fill="#7F8A96"/>
<rect x="29.0008" y="6.53333" width="0.880512" height="0.880512" fill="#7F8A96"/>
<rect x="29.0008" y="11.8182" width="0.880512" height="0.880512" fill="#7F8A96"/>
<rect x="27.2398" y="13.579" width="0.880512" height="0.880512" fill="#7F8A96"/>
<rect x="27.2398" y="6.53333" width="0.880512" height="0.880512" fill="#7F8A96"/>
<rect x="27.2398" y="11.8182" width="0.880512" height="0.880512" fill="#7F8A96"/>
<rect x="26.3593" y="13.579" width="0.880512" height="0.880512" fill="#7F8A96"/>
<rect x="26.3593" y="6.53333" width="0.880512" height="0.880512" fill="#7F8A96"/>
<rect x="26.3593" y="11.8182" width="0.880512" height="0.880512" fill="#7F8A96"/>
<rect x="25.4788" y="13.579" width="0.880512" height="0.880512" fill="#7F8A96"/>
<rect x="25.4788" y="6.53333" width="0.880512" height="0.880512" fill="#7F8A96"/>
<rect x="24.5983" y="12.6996" width="0.880512" height="0.880512" fill="#7F8A96"/>
<rect x="24.5983" y="7.41385" width="0.880512" height="0.880512" fill="#7F8A96"/>
<rect x="29.8813" y="7.41385" width="0.880512" height="0.880512" fill="#7F8A96"/>
<rect x="29.8813" y="11.819" width="0.880512" height="0.880512" fill="#7F8A96"/>
<rect x="23.7178" y="11.819" width="0.880512" height="0.880512" fill="#7F8A96"/>
<rect x="23.7178" y="10.9379" width="0.880512" height="0.880512" fill="#7F8A96"/>
<rect x="30.7618" y="10.9379" width="0.880512" height="0.880512" fill="#7F8A96"/>
<rect x="23.7178" y="10.0567" width="0.880512" height="0.880512" fill="#7F8A96"/>
<rect x="30.7618" y="10.0567" width="0.880512" height="0.880512" fill="#7F8A96"/>
<rect x="23.7178" y="9.17554" width="0.880512" height="0.880512" fill="#7F8A96"/>
<rect x="30.7618" y="9.17554" width="0.880512" height="0.880512" fill="#7F8A96"/>
<rect x="23.7178" y="8.29437" width="0.880512" height="0.880512" fill="#7F8A96"/>
<rect x="30.7618" y="8.29437" width="0.880512" height="0.880512" fill="#7F8A96"/>
<defs>
<linearGradient id="paint0_linear" x1="33.7742" y1="4" x2="22.543" y2="19.5593" gradientUnits="userSpaceOnUse">
<stop offset="0.0572917" stop-color="#CEDADE"/>
<stop offset="0.702054" stop-color="white"/>
</linearGradient>
<linearGradient id="paint1_linear" x1="32.7144" y1="5.01664" x2="22.4703" y2="19.4942" gradientUnits="userSpaceOnUse">
<stop stop-color="#CED7DB"/>
<stop offset="0.853517" stop-color="#F0F4F6"/>
</linearGradient>
</defs>
</svg>
