<svg width="70" height="23" viewBox="0 0 70 23" fill="none" xmlns="http://www.w3.org/2000/svg">
<rect x="0.418091" y="0.725769" width="69" height="22" rx="2" fill="white"/>
<path d="M7.36438 15.2258H6.32776V8.25409H2.47131V15.2258H1.44006V7.40546H7.36438V15.2258ZM13.9977 12.3845C13.9977 13.2689 13.7954 13.9815 13.3907 14.5222C12.9861 15.0628 12.4383 15.3332 11.7472 15.3332C11.0418 15.3332 10.4868 15.1094 10.0822 14.6618V17.4601H9.0885V9.41425H9.99622L10.0446 10.0588C10.4492 9.55747 11.0114 9.30682 11.7311 9.30682C12.4293 9.30682 12.9808 9.57001 13.3854 10.0964C13.7936 10.6227 13.9977 11.355 13.9977 12.2932V12.3845ZM13.004 12.2717C13.004 11.6164 12.8644 11.099 12.5851 10.7194C12.3058 10.3399 11.9226 10.1501 11.4357 10.1501C10.8341 10.1501 10.3829 10.4168 10.0822 10.9504V13.7272C10.3794 14.2572 10.8341 14.5222 11.4464 14.5222C11.9226 14.5222 12.3004 14.3342 12.5797 13.9582C12.8626 13.5786 13.004 13.0165 13.004 12.2717ZM15.0021 12.2663C15.0021 11.697 15.1131 11.1849 15.3351 10.7302C15.5607 10.2754 15.8722 9.9245 16.2697 9.67743C16.6707 9.43036 17.1272 9.30682 17.6393 9.30682C18.4306 9.30682 19.0698 9.58075 19.5568 10.1286C20.0473 10.6765 20.2926 11.4051 20.2926 12.3146V12.3845C20.2926 12.9502 20.1834 13.4587 19.965 13.9099C19.7501 14.3574 19.4404 14.7066 19.0358 14.9572C18.6347 15.2079 18.1728 15.3332 17.65 15.3332C16.8623 15.3332 16.2231 15.0593 15.7325 14.5114C15.2456 13.9636 15.0021 13.2385 15.0021 12.3361V12.2663ZM16.0011 12.3845C16.0011 13.029 16.1497 13.5464 16.4469 13.9367C16.7477 14.327 17.1487 14.5222 17.65 14.5222C18.1549 14.5222 18.5559 14.3252 18.8531 13.9313C19.1503 13.5339 19.299 12.9789 19.299 12.2663C19.299 11.6289 19.1468 11.1133 18.8424 10.7194C18.5416 10.322 18.1406 10.1232 17.6393 10.1232C17.1487 10.1232 16.7531 10.3184 16.4523 10.7087C16.1515 11.099 16.0011 11.6576 16.0011 12.3845ZM23.8698 14.5222C24.2242 14.5222 24.534 14.4147 24.799 14.1999C25.0639 13.985 25.2107 13.7165 25.2394 13.3942H26.1793C26.1614 13.7272 26.0468 14.0441 25.8356 14.3449C25.6243 14.6457 25.3414 14.8856 24.9869 15.0646C24.636 15.2437 24.2636 15.3332 23.8698 15.3332C23.0784 15.3332 22.4482 15.07 21.9791 14.5436C21.5136 14.0137 21.2809 13.2904 21.2809 12.3737V12.2072C21.2809 11.6415 21.3847 11.1384 21.5924 10.6979C21.8001 10.2575 22.0973 9.91555 22.484 9.67206C22.8743 9.42857 23.3344 9.30682 23.8644 9.30682C24.5161 9.30682 25.0568 9.50197 25.4865 9.89227C25.9197 10.2826 26.1507 10.7892 26.1793 11.4123H25.2394C25.2107 11.0363 25.0675 10.7284 24.8097 10.4885C24.5555 10.245 24.2404 10.1232 23.8644 10.1232C23.3595 10.1232 22.9674 10.3058 22.6881 10.6711C22.4124 11.0327 22.2745 11.5573 22.2745 12.2448V12.4328C22.2745 13.1024 22.4124 13.618 22.6881 13.9797C22.9638 14.3413 23.3577 14.5222 23.8698 14.5222ZM30.6427 13.9099L32.6193 9.41425H33.86V15.2258H32.8663V10.9987L30.9865 15.2258H30.299L28.3815 10.9074V15.2258H27.3878V9.41425H28.6769L30.6427 13.9099ZM35.1974 12.2663C35.1974 11.697 35.3084 11.1849 35.5304 10.7302C35.756 10.2754 36.0675 9.9245 36.465 9.67743C36.866 9.43036 37.3226 9.30682 37.8346 9.30682C38.6259 9.30682 39.2651 9.58075 39.7521 10.1286C40.2426 10.6765 40.4879 11.4051 40.4879 12.3146V12.3845C40.4879 12.9502 40.3787 13.4587 40.1603 13.9099C39.9454 14.3574 39.6357 14.7066 39.2311 14.9572C38.83 15.2079 38.3681 15.3332 37.8453 15.3332C37.0576 15.3332 36.4184 15.0593 35.9279 14.5114C35.4409 13.9636 35.1974 13.2385 35.1974 12.3361V12.2663ZM36.1964 12.3845C36.1964 13.029 36.345 13.5464 36.6422 13.9367C36.943 14.327 37.344 14.5222 37.8453 14.5222C38.3502 14.5222 38.7513 14.3252 39.0485 13.9313C39.3457 13.5339 39.4943 12.9789 39.4943 12.2663C39.4943 11.6289 39.3421 11.1133 39.0377 10.7194C38.7369 10.322 38.3359 10.1232 37.8346 10.1232C37.344 10.1232 36.9484 10.3184 36.6476 10.7087C36.3468 11.099 36.1964 11.6576 36.1964 12.3845ZM45.9342 10.2199H43.9845V15.2258H42.9908V10.2199H41.0787V9.41425H45.9342V10.2199ZM51.8102 12.3845C51.8102 13.2689 51.6079 13.9815 51.2032 14.5222C50.7986 15.0628 50.2508 15.3332 49.5597 15.3332C48.8543 15.3332 48.2993 15.1094 47.8947 14.6618V17.4601H46.901V9.41425H47.8087L47.8571 10.0588C48.2617 9.55747 48.8239 9.30682 49.5436 9.30682C50.2418 9.30682 50.7933 9.57001 51.1979 10.0964C51.6061 10.6227 51.8102 11.355 51.8102 12.2932V12.3845ZM50.8165 12.2717C50.8165 11.6164 50.6769 11.099 50.3976 10.7194C50.1183 10.3399 49.7351 10.1501 49.2482 10.1501C48.6466 10.1501 48.1954 10.4168 47.8947 10.9504V13.7272C48.1919 14.2572 48.6466 14.5222 49.2589 14.5222C49.7351 14.5222 50.1129 14.3342 50.3922 13.9582C50.6751 13.5786 50.8165 13.0165 50.8165 12.2717ZM55.4894 15.3332C54.7016 15.3332 54.0607 15.0754 53.5665 14.5598C53.0724 14.0405 52.8253 13.3477 52.8253 12.4811V12.2985C52.8253 11.722 52.9345 11.2082 53.153 10.757C53.375 10.3023 53.6829 9.94777 54.0768 9.69354C54.4742 9.43573 54.9039 9.30682 55.3658 9.30682C56.1214 9.30682 56.7086 9.55568 57.1276 10.0534C57.5465 10.5511 57.756 11.2637 57.756 12.1911V12.6047H53.819C53.8333 13.1776 53.9998 13.6413 54.3185 13.9958C54.6407 14.3467 55.049 14.5222 55.5431 14.5222C55.894 14.5222 56.1912 14.4505 56.4347 14.3073C56.6782 14.1641 56.8912 13.9743 57.0739 13.738L57.6808 14.2106C57.1938 14.959 56.4633 15.3332 55.4894 15.3332ZM55.3658 10.1232C54.9648 10.1232 54.6282 10.27 54.3561 10.5637C54.0839 10.8537 53.9156 11.2619 53.8512 11.7883H56.7623V11.7131C56.7337 11.2082 56.5976 10.8179 56.3541 10.5422C56.1106 10.2629 55.7812 10.1232 55.3658 10.1232ZM63.1647 10.2199H61.215V15.2258H60.2213V10.2199H58.3092V9.41425H63.1647V10.2199ZM65.2164 11.4177H66.7257C67.3846 11.4248 67.9056 11.5967 68.2887 11.9333C68.6718 12.2699 68.8634 12.7264 68.8634 13.3029C68.8634 13.883 68.6665 14.3485 68.2726 14.6994C67.8787 15.0503 67.3488 15.2258 66.6827 15.2258H64.2228V9.41425H65.2164V11.4177ZM65.2164 12.2287V14.4147H66.6935C67.0659 14.4147 67.3541 14.3198 67.5582 14.1301C67.7623 13.9367 67.8644 13.6735 67.8644 13.3405C67.8644 13.0182 67.7641 12.7551 67.5636 12.551C67.3667 12.3433 67.0892 12.2359 66.7311 12.2287H65.2164Z" fill="#3F7ABE"/>
</svg>
