<svg width="23" height="23" viewBox="0 0 23 23" fill="none" xmlns="http://www.w3.org/2000/svg">
<rect x="22.2101" y="22.9349" width="22" height="22" rx="2" transform="rotate(-180 22.2101 22.9349)" fill="white"/>
<path fill-rule="evenodd" clip-rule="evenodd" d="M11.2101 18.9349C15.0761 18.9349 18.2101 15.8009 18.2101 11.9349C18.2101 8.06894 15.0761 4.93494 11.2101 4.93494C7.34409 4.93494 4.21008 8.06894 4.21008 11.9349C4.21008 15.8009 7.34409 18.9349 11.2101 18.9349ZM11.2101 19.9349C15.6284 19.9349 19.2101 16.3532 19.2101 11.9349C19.2101 7.51666 15.6284 3.93494 11.2101 3.93494C6.79181 3.93494 3.21008 7.51666 3.21008 11.9349C3.21008 16.3532 6.79181 19.9349 11.2101 19.9349Z" fill="#DADADA"/>
<mask id="mask0" mask-type="alpha" maskUnits="userSpaceOnUse" x="4" y="4" width="15" height="15">
<path fill-rule="evenodd" clip-rule="evenodd" d="M11.2101 18.9349C15.0761 18.9349 18.2101 15.8009 18.2101 11.9349C18.2101 8.06894 15.0761 4.93494 11.2101 4.93494C7.34409 4.93494 4.21008 8.06894 4.21008 11.9349C4.21008 15.8009 7.34409 18.9349 11.2101 18.9349Z" fill="#DADADA"/>
</mask>
<g mask="url(#mask0)">
<rect x="5.2243" y="15.9445" width="11.6996" height="0.99651" fill="#191919"/>
<rect x="5.2243" y="12.9357" width="11.6996" height="0.99651" fill="#191919"/>
<rect x="5.2243" y="9.92725" width="11.6996" height="0.99651" fill="#191919"/>
<rect x="8.70813" y="16.9411" width="8.53051" height="0.99651" transform="rotate(-90 8.70813 16.9411)" fill="#191919"/>
<rect x="12.7155" y="16.9411" width="8.53051" height="0.99651" transform="rotate(-90 12.7155 16.9411)" fill="#191919"/>
<rect x="16.723" y="16.9411" width="8.53051" height="0.99651" transform="rotate(-90 16.723 16.9411)" fill="#191919"/>
<rect x="4.70062" y="16.9411" width="8.53051" height="0.99651" transform="rotate(-90 4.70062 16.9411)" fill="#191919"/>
<rect x="5.2243" y="6.92882" width="11.6996" height="2.00033" fill="#191919"/>
</g>
</svg>
