<svg width="70" height="23" viewBox="0 0 70 23" fill="none" xmlns="http://www.w3.org/2000/svg">
<rect x="0.918091" y="0.826416" width="67.9033" height="21" rx="1.5" fill="#F8F8F8" stroke="#DADADA"/>
<path d="M35.467 14.7014H34.4304V11.0867H30.488V14.7014H29.4568V6.8811H30.488V10.2434H34.4304V6.8811H35.467V14.7014ZM40.7307 14.7014C40.6734 14.5868 40.6269 14.3827 40.5911 14.0891C40.1292 14.5689 39.5777 14.8088 38.9368 14.8088C38.3639 14.8088 37.893 14.6477 37.5242 14.3254C37.1589 13.9996 36.9763 13.5878 36.9763 13.0901C36.9763 12.4849 37.2055 12.0159 37.6638 11.6829C38.1257 11.3463 38.7738 11.178 39.6082 11.178H40.575V10.7214C40.575 10.3741 40.4711 10.0984 40.2634 9.89429C40.0557 9.6866 39.7496 9.58276 39.345 9.58276C38.9905 9.58276 38.6933 9.67228 38.4534 9.85132C38.2135 10.0304 38.0935 10.247 38.0935 10.5012H37.0945C37.0945 10.2112 37.1965 9.93188 37.4006 9.66333C37.6083 9.39119 37.8876 9.17635 38.2385 9.0188C38.593 8.86125 38.9815 8.78247 39.4041 8.78247C40.0736 8.78247 40.5982 8.95076 40.9778 9.28735C41.3573 9.62036 41.5543 10.0805 41.5686 10.6677V13.3425C41.5686 13.8761 41.6366 14.3004 41.7727 14.6155V14.7014H40.7307ZM39.0818 13.9441C39.3933 13.9441 39.6887 13.8635 39.968 13.7024C40.2473 13.5413 40.4496 13.3318 40.575 13.074V11.8816H39.7961C38.5787 11.8816 37.97 12.2379 37.97 12.9504C37.97 13.262 38.0738 13.5055 38.2815 13.6809C38.4892 13.8564 38.7559 13.9441 39.0818 13.9441ZM46.886 8.88989H47.8796V14.7014H46.886V10.4636L44.2058 14.7014H43.2122V8.88989H44.2058V13.1331L46.886 8.88989ZM47.1545 6.77368C47.1545 7.20695 47.0059 7.55607 46.7087 7.82104C46.4151 8.08244 46.0284 8.21313 45.5486 8.21313C45.0688 8.21313 44.6803 8.08065 44.3831 7.81567C44.0859 7.5507 43.9373 7.20337 43.9373 6.77368H44.7483C44.7483 7.02433 44.8163 7.22127 44.9524 7.3645C45.0885 7.50415 45.2872 7.57397 45.5486 7.57397C45.7992 7.57397 45.9944 7.50415 46.134 7.3645C46.2773 7.22485 46.3489 7.02791 46.3489 6.77368H47.1545ZM53.7932 9.69556H51.8435V14.7014H50.8499V9.69556H48.9377V8.88989H53.7932V9.69556ZM58.5198 8.88989H59.5134V14.7014H58.5198V10.4636L55.8396 14.7014H54.8459V8.88989H55.8396V13.1331L58.5198 8.88989Z" fill="#555555"/>
<path fill-rule="evenodd" clip-rule="evenodd" d="M21.3939 10.3264C21.3939 12.2594 19.8269 13.8264 17.8939 13.8264C15.9609 13.8264 14.3939 12.2594 14.3939 10.3264C14.3939 8.39342 15.9609 6.82642 17.8939 6.82642C19.8269 6.82642 21.3939 8.39342 21.3939 10.3264ZM21.0984 14.1647C20.2307 14.8899 19.1132 15.3264 17.8939 15.3264C15.1324 15.3264 12.8939 13.0878 12.8939 10.3264C12.8939 7.56499 15.1324 5.32642 17.8939 5.32642C20.6553 5.32642 22.8939 7.56499 22.8939 10.3264C22.8939 11.3265 22.6002 12.258 22.0945 13.0394L24.9339 15.8788L23.8732 16.9394L21.0984 14.1647Z" fill="#555555"/>
</svg>
