<svg width="89" height="23" viewBox="0 0 89 23" fill="none" xmlns="http://www.w3.org/2000/svg">
<path d="M0.501465 2.32642C0.501465 1.49799 1.17304 0.826416 2.00146 0.826416H86.0015C86.8299 0.826416 87.5015 1.49799 87.5015 2.32642V20.3264C87.5015 21.1548 86.8299 21.8264 86.0015 21.8264H2.00146C1.17304 21.8264 0.501465 21.1548 0.501465 20.3264V2.32642Z" fill="#F8F8F8" stroke="#DADADA"/>
<path d="M17.4674 14.7014H16.4308V11.0867H12.4884V14.7014H11.4572V6.8811H12.4884V10.2434H16.4308V6.8811H17.4674V14.7014ZM22.7311 14.7014C22.6738 14.5868 22.6272 14.3827 22.5914 14.0891C22.1295 14.5689 21.5781 14.8088 20.9371 14.8088C20.3642 14.8088 19.8934 14.6477 19.5245 14.3254C19.1593 13.9996 18.9767 13.5878 18.9767 13.0901C18.9767 12.4849 19.2059 12.0159 19.6642 11.6829C20.1261 11.3463 20.7742 11.178 21.6085 11.178H22.5753V10.7214C22.5753 10.3741 22.4715 10.0984 22.2638 9.89429C22.0561 9.6866 21.75 9.58276 21.3453 9.58276C20.9908 9.58276 20.6936 9.67228 20.4537 9.85132C20.2138 10.0304 20.0939 10.247 20.0939 10.5012H19.0948C19.0948 10.2112 19.1969 9.93188 19.401 9.66333C19.6087 9.39119 19.888 9.17635 20.2389 9.0188C20.5934 8.86125 20.9819 8.78247 21.4044 8.78247C22.074 8.78247 22.5986 8.95076 22.9781 9.28735C23.3577 9.62036 23.5546 10.0805 23.569 10.6677V13.3425C23.569 13.8761 23.637 14.3004 23.7731 14.6155V14.7014H22.7311ZM21.0822 13.9441C21.3937 13.9441 21.6891 13.8635 21.9684 13.7024C22.2477 13.5413 22.45 13.3318 22.5753 13.074V11.8816H21.7965C20.5791 11.8816 19.9703 12.2379 19.9703 12.9504C19.9703 13.262 20.0742 13.5055 20.2819 13.6809C20.4895 13.8564 20.7563 13.9441 21.0822 13.9441ZM27.4576 13.9978C27.8121 13.9978 28.1219 13.8904 28.3868 13.6755C28.6518 13.4607 28.7986 13.1921 28.8273 12.8699H29.7672C29.7493 13.2029 29.6347 13.5198 29.4235 13.8206C29.2122 14.1213 28.9293 14.3612 28.5748 14.5403C28.2239 14.7193 27.8515 14.8088 27.4576 14.8088C26.6663 14.8088 26.0361 14.5457 25.567 14.0193C25.1015 13.4893 24.8688 12.766 24.8688 11.8494V11.6829C24.8688 11.1171 24.9726 10.614 25.1803 10.1736C25.388 9.73315 25.6852 9.39119 26.0719 9.14771C26.4622 8.90422 26.9223 8.78247 27.4523 8.78247C28.104 8.78247 28.6447 8.97762 29.0743 9.36792C29.5076 9.75822 29.7386 10.2649 29.7672 10.8879H28.8273C28.7986 10.512 28.6554 10.204 28.3976 9.96411C28.1434 9.72062 27.8282 9.59888 27.4523 9.59888C26.9474 9.59888 26.5553 9.78149 26.276 10.1467C26.0003 10.5084 25.8624 11.033 25.8624 11.7205V11.9084C25.8624 12.578 26.0003 13.0937 26.276 13.4553C26.5517 13.817 26.9456 13.9978 27.4576 13.9978ZM35.2028 9.69556H33.2531V14.7014H32.2594V9.69556H30.3473V8.88989H35.2028V9.69556ZM41.0787 11.8601C41.0787 12.7445 40.8764 13.4571 40.4718 13.9978C40.0672 14.5385 39.5193 14.8088 38.8282 14.8088C38.1228 14.8088 37.5678 14.585 37.1632 14.1375V16.9358H36.1696V8.88989H37.0773L37.1256 9.53442C37.5302 9.03312 38.0924 8.78247 38.8121 8.78247C39.5104 8.78247 40.0618 9.04565 40.4664 9.57202C40.8746 10.0984 41.0787 10.8306 41.0787 11.7688V11.8601ZM40.0851 11.7473C40.0851 11.092 39.9454 10.5746 39.6661 10.1951C39.3868 9.81551 39.0037 9.62573 38.5167 9.62573C37.9152 9.62573 37.464 9.8925 37.1632 10.426V13.2029C37.4604 13.7328 37.9152 13.9978 38.5275 13.9978C39.0037 13.9978 39.3815 13.8098 39.6608 13.4338C39.9436 13.0543 40.0851 12.4921 40.0851 11.7473ZM42.0831 11.7419C42.0831 11.1726 42.1941 10.6606 42.4161 10.2058C42.6417 9.75106 42.9532 9.40015 43.3507 9.15308C43.7517 8.90601 44.2083 8.78247 44.7203 8.78247C45.5117 8.78247 46.1508 9.0564 46.6378 9.60425C47.1284 10.1521 47.3737 10.8808 47.3737 11.7903V11.8601C47.3737 12.4259 47.2644 12.9343 47.046 13.3855C46.8312 13.8331 46.5214 14.1822 46.1168 14.4329C45.7158 14.6835 45.2539 14.8088 44.7311 14.8088C43.9433 14.8088 43.3042 14.5349 42.8136 13.9871C42.3266 13.4392 42.0831 12.7141 42.0831 11.8118V11.7419ZM43.0822 11.8601C43.0822 12.5046 43.2308 13.0221 43.528 13.4124C43.8287 13.8027 44.2298 13.9978 44.7311 13.9978C45.236 13.9978 45.637 13.8009 45.9342 13.407C46.2314 13.0095 46.38 12.4545 46.38 11.7419C46.38 11.1046 46.2278 10.5889 45.9235 10.1951C45.6227 9.79761 45.2216 9.59888 44.7203 9.59888C44.2298 9.59888 43.8341 9.79403 43.5333 10.1843C43.2325 10.5746 43.0822 11.1332 43.0822 11.8601ZM52.3795 8.88989H53.3732V14.7014H52.3795V10.4636L49.6993 14.7014H48.7057V8.88989H49.6993V13.1331L52.3795 8.88989ZM52.6481 6.77368C52.6481 7.20695 52.4995 7.55607 52.2023 7.82104C51.9087 8.08244 51.5219 8.21313 51.0421 8.21313C50.5623 8.21313 50.1738 8.08065 49.8766 7.81567C49.5794 7.5507 49.4308 7.20337 49.4308 6.77368H50.2418C50.2418 7.02433 50.3099 7.22127 50.4459 7.3645C50.582 7.50415 50.7807 7.57397 51.0421 7.57397C51.2928 7.57397 51.4879 7.50415 51.6276 7.3645C51.7708 7.22485 51.8424 7.02791 51.8424 6.77368H52.6481ZM56.7784 12.2253H56.0533V14.7014H55.0543V8.88989H56.0533V11.3499H56.7032L58.6583 8.88989H59.8615L57.5626 11.6829L60.0548 14.7014H58.7926L56.7784 12.2253ZM64.6686 8.88989H65.6622V14.7014H64.6686V10.4636L61.9884 14.7014H60.9948V8.88989H61.9884V13.1331L64.6686 8.88989Z" fill="#555555"/>
<path d="M77.4976 10.3304H71.5055L74.5015 13.3204L77.4976 10.3304Z" fill="#555555"/>
</svg>
