<svg width="44" height="23" viewBox="0 0 44 23" fill="none" xmlns="http://www.w3.org/2000/svg">
<rect x="0.590088" y="1.43494" width="42" height="21" rx="1.5" fill="#F8F8F8" stroke="#DADADA"/>
<path d="M29.2869 9.66692H25.8872V6.12256" stroke="#555555"/>
<path d="M19.7388 16.5875V7.12256C19.7388 6.57027 20.1865 6.12256 20.7388 6.12256H25.8872L29.2869 9.66692V16.5875C29.2869 17.1398 28.8391 17.5875 28.2869 17.5875H20.7388C20.1865 17.5875 19.7388 17.1398 19.7388 16.5875Z" stroke="#555555"/>
<rect x="13.8933" y="10.0794" width="9.66794" height="9.66794" rx="2" fill="#555555"/>
<path fill-rule="evenodd" clip-rule="evenodd" d="M16.6354 13.6416H17.4612V14.4674H18.3649V12.7379H18.3648H17.4612H16.6354L16.6354 13.6416ZM19.2391 12.7379H20.1428V12.7379L20.9685 12.7379L20.9685 13.6416H20.1428V14.4674H19.2391V13.6416V12.7379V12.7379ZM19.2391 17.1071H20.1428V17.1071H20.9685L20.9685 16.2034H20.1428V15.3776H19.2391V14.4674H18.3648V15.3776H17.4612V16.2034H16.6354L16.6354 17.1071H17.4612H18.3648H18.3649V15.3776H19.2391V16.2034V17.1071V17.1071Z" fill="#F8F8F8"/>
</svg>
