<svg width="44" height="23" viewBox="0 0 44 23" fill="none" xmlns="http://www.w3.org/2000/svg">
<rect x="0.590088" y="1.43494" width="42" height="21" rx="1.5" fill="#F8F8F8" stroke="#DADADA"/>
<path fill-rule="evenodd" clip-rule="evenodd" d="M21.6417 16.1273C22.8583 16.1273 23.946 15.5756 24.6683 14.7087H26.4619C25.5534 16.4436 23.7358 17.6273 21.6417 17.6273C18.6387 17.6273 16.2042 15.1929 16.2042 12.1898C16.2042 9.18676 18.6387 6.7523 21.6417 6.7523C23.17 6.7523 24.5509 7.38275 25.5388 8.39775L26.976 6.96051V11.1299C26.976 11.1299 26.976 11.1299 26.976 11.13H26.976H25.435H22.8066L24.478 9.45855C23.7617 8.71493 22.7558 8.2523 21.6417 8.2523C19.4671 8.2523 17.7042 10.0152 17.7042 12.1898C17.7042 14.3645 19.4671 16.1273 21.6417 16.1273Z" fill="#555555"/>
</svg>
