<svg width="73" height="23" viewBox="0 0 73 23" fill="none" xmlns="http://www.w3.org/2000/svg">
<path d="M0.501465 2.32642C0.501465 1.49799 1.17304 0.826416 2.00146 0.826416H70.0015C70.8299 0.826416 71.5015 1.49799 71.5015 2.32642V20.3264C71.5015 21.1548 70.8299 21.8264 70.0015 21.8264H2.00147C1.17304 21.8264 0.501465 21.1548 0.501465 20.3264V2.32642Z" fill="#F8F8F8" stroke="#DADADA"/>
<path d="M14.2925 7.66528H14.459C15.0498 7.66886 15.5887 7.80672 16.0757 8.07886C16.5627 8.35099 16.9404 8.72697 17.209 9.20679C17.4811 9.68302 17.6172 10.2166 17.6172 10.8074C17.6172 11.4018 17.4811 11.9407 17.209 12.4241C16.9368 12.9075 16.5609 13.2852 16.0811 13.5574C15.6012 13.8259 15.0677 13.9638 14.4805 13.9709H14.2925V15.0237H13.2935V13.9709H13.1431C12.5451 13.9709 12.0008 13.8349 11.5103 13.5627C11.0233 13.2906 10.6437 12.9146 10.3716 12.4348C10.103 11.955 9.96875 11.4161 9.96875 10.8181C9.96875 10.2201 10.103 9.68123 10.3716 9.20142C10.6437 8.7216 11.0233 8.34562 11.5103 8.07349C12.0008 7.80135 12.5451 7.66528 13.1431 7.66528H13.2935V6.55884H14.2925V7.66528ZM13.1431 8.47632C12.4699 8.47632 11.9364 8.684 11.5425 9.09937C11.1522 9.51115 10.957 10.0841 10.957 10.8181C10.957 11.5557 11.1522 12.1305 11.5425 12.5422C11.9328 12.9504 12.4699 13.1545 13.1538 13.1545H13.2935V8.47632H13.1431ZM14.2925 8.47632V13.1545H14.4429C15.1268 13.1545 15.6603 12.9451 16.0435 12.5261C16.4302 12.1036 16.6235 11.5307 16.6235 10.8074C16.6235 10.0912 16.4302 9.52368 16.0435 9.10474C15.6603 8.68579 15.1196 8.47632 14.4214 8.47632H14.2925ZM22.521 8.88989H23.5146V14.7014H22.521V10.4636L19.8408 14.7014H18.8472V8.88989H19.8408V13.1331L22.521 8.88989ZM29.874 8.88989V14.7014H28.875V9.71167H26.8984L26.7803 11.887C26.7158 12.886 26.5475 13.6003 26.2754 14.03C26.0068 14.4597 25.5789 14.6835 24.9917 14.7014H24.5942V13.8259L24.8789 13.8044C25.2012 13.7686 25.4321 13.5824 25.5718 13.2458C25.7114 12.9093 25.8009 12.2862 25.8403 11.3767L25.9478 8.88989H29.874ZM32.5542 10.8933H34.0635C34.7223 10.9005 35.2433 11.0723 35.6265 11.4089C36.0096 11.7455 36.2012 12.2021 36.2012 12.7786C36.2012 13.3586 36.0042 13.8241 35.6104 14.175C35.2165 14.526 34.6865 14.7014 34.0205 14.7014H31.5605V8.88989H32.5542V10.8933ZM32.5542 11.7043V13.8904H34.0312C34.4036 13.8904 34.6919 13.7955 34.896 13.6057C35.1001 13.4124 35.2021 13.1492 35.2021 12.8162C35.2021 12.4939 35.1019 12.2307 34.9014 12.0266C34.7044 11.8189 34.4269 11.7115 34.0688 11.7043H32.5542ZM41.3843 9.69556H39.4346V14.7014H38.4409V9.69556H36.5288V8.88989H41.3843V9.69556ZM47.2603 11.8601C47.2603 12.7445 47.0579 13.4571 46.6533 13.9978C46.2487 14.5385 45.7008 14.8088 45.0098 14.8088C44.3044 14.8088 43.7493 14.585 43.3447 14.1375V16.9358H42.3511V8.88989H43.2588L43.3071 9.53442C43.7118 9.03312 44.2739 8.78247 44.9937 8.78247C45.6919 8.78247 46.2433 9.04565 46.6479 9.57202C47.0562 10.0984 47.2603 10.8306 47.2603 11.7688V11.8601ZM46.2666 11.7473C46.2666 11.092 46.127 10.5746 45.8477 10.1951C45.5684 9.81551 45.1852 9.62573 44.6982 9.62573C44.0967 9.62573 43.6455 9.8925 43.3447 10.426V13.2029C43.6419 13.7328 44.0967 13.9978 44.709 13.9978C45.1852 13.9978 45.563 13.8098 45.8423 13.4338C46.1252 13.0543 46.2666 12.4921 46.2666 11.7473Z" fill="#555555"/>
<path d="M64.7679 10.3304H58.7759L61.7719 13.3204L64.7679 10.3304Z" fill="#555555"/>
</svg>
