<svg width="73" height="23" viewBox="0 0 73 23" fill="none" xmlns="http://www.w3.org/2000/svg">
<rect x="0.918091" y="0.826416" width="71" height="21" rx="1.5" fill="#F8F8F8" stroke="#DADADA"/>
<path d="M18.3806 11.0437C18.3806 11.81 18.2517 12.4796 17.9939 13.0525C17.7361 13.6218 17.3708 14.0569 16.8982 14.3577C16.4255 14.6584 15.8741 14.8088 15.2439 14.8088C14.628 14.8088 14.0819 14.6584 13.6057 14.3577C13.1295 14.0533 12.7589 13.6218 12.4939 13.0632C12.2325 12.5011 12.0982 11.8512 12.0911 11.1135V10.5496C12.0911 9.79761 12.2218 9.13338 12.4832 8.55688C12.7445 7.98039 13.1134 7.53996 13.5896 7.2356C14.0694 6.92765 14.6173 6.77368 15.2332 6.77368C15.8598 6.77368 16.4112 6.92586 16.8875 7.23022C17.3673 7.53101 17.7361 7.96965 17.9939 8.54614C18.2517 9.11906 18.3806 9.78687 18.3806 10.5496V11.0437ZM17.3547 10.5388C17.3547 9.61141 17.1685 8.90063 16.7961 8.40649C16.4237 7.90877 15.9028 7.65991 15.2332 7.65991C14.5815 7.65991 14.0676 7.90877 13.6917 8.40649C13.3193 8.90063 13.1277 9.58813 13.1169 10.469V11.0437C13.1169 11.9425 13.3049 12.6497 13.6809 13.1653C14.0605 13.6773 14.5815 13.9333 15.2439 13.9333C15.9099 13.9333 16.4255 13.6917 16.7908 13.2083C17.156 12.7213 17.344 12.0248 17.3547 11.1189V10.5388ZM22.323 9.2229C23.0535 9.2229 23.6371 9.46818 24.074 9.95874C24.5144 10.4457 24.7346 11.0885 24.7346 11.887V11.9783C24.7346 12.5261 24.629 13.0167 24.4177 13.45C24.2065 13.8796 23.9021 14.2144 23.5046 14.4543C23.1108 14.6907 22.656 14.8088 22.1404 14.8088C21.3598 14.8088 20.7314 14.5492 20.2551 14.03C19.7789 13.5072 19.5408 12.8072 19.5408 11.9299V11.4465C19.5408 10.2255 19.7664 9.25513 20.2175 8.5354C20.6723 7.81567 21.3419 7.37703 22.2263 7.21948C22.7276 7.12996 23.066 7.02075 23.2415 6.89185C23.4169 6.76294 23.5046 6.58569 23.5046 6.36011H24.321C24.321 6.8077 24.219 7.15682 24.0149 7.40747C23.8144 7.65812 23.4921 7.83537 23.0481 7.93921L22.3069 8.10571C21.7161 8.24536 21.2721 8.48169 20.9749 8.8147C20.6812 9.14412 20.4897 9.58455 20.4001 10.136C20.9265 9.52726 21.5675 9.2229 22.323 9.2229ZM22.1296 10.0393C21.6427 10.0393 21.2559 10.204 20.9695 10.5334C20.683 10.8593 20.5398 11.3123 20.5398 11.8923V11.9783C20.5398 12.6013 20.683 13.0955 20.9695 13.4607C21.2595 13.8223 21.6498 14.0032 22.1404 14.0032C22.6345 14.0032 23.0248 13.8206 23.3113 13.4553C23.5977 13.0901 23.741 12.5566 23.741 11.8547C23.741 11.3069 23.5959 10.8682 23.3059 10.5388C23.0194 10.2058 22.6274 10.0393 22.1296 10.0393ZM30.5032 14.7014H29.5095V12.22H26.8401V14.7014H25.8411V8.88989H26.8401V11.4089H29.5095V8.88989H30.5032V14.7014ZM31.8406 11.7419C31.8406 11.1726 31.9516 10.6606 32.1736 10.2058C32.3992 9.75106 32.7107 9.40015 33.1082 9.15308C33.5092 8.90601 33.9657 8.78247 34.4778 8.78247C35.2691 8.78247 35.9083 9.0564 36.3953 9.60425C36.8858 10.1521 37.1311 10.8808 37.1311 11.7903V11.8601C37.1311 12.4259 37.0219 12.9343 36.8035 13.3855C36.5886 13.8331 36.2789 14.1822 35.8743 14.4329C35.4732 14.6835 35.0113 14.8088 34.4885 14.8088C33.7008 14.8088 33.0616 14.5349 32.571 13.9871C32.0841 13.4392 31.8406 12.7141 31.8406 11.8118V11.7419ZM32.8396 11.8601C32.8396 12.5046 32.9882 13.0221 33.2854 13.4124C33.5862 13.8027 33.9872 13.9978 34.4885 13.9978C34.9934 13.9978 35.3944 13.8009 35.6917 13.407C35.9889 13.0095 36.1375 12.4545 36.1375 11.7419C36.1375 11.1046 35.9853 10.5889 35.6809 10.1951C35.3801 9.79761 34.9791 9.59888 34.4778 9.59888C33.9872 9.59888 33.5916 9.79403 33.2908 10.1843C32.99 10.5746 32.8396 11.1332 32.8396 11.8601ZM38.4685 14.7014V8.88989H40.7351C41.5085 8.88989 42.1012 9.02596 42.5129 9.2981C42.9283 9.56665 43.136 9.96232 43.136 10.4851C43.136 10.7537 43.0554 10.9972 42.8943 11.2156C42.7332 11.4304 42.495 11.5951 42.1799 11.7097C42.5308 11.7921 42.8119 11.9532 43.0232 12.1931C43.238 12.433 43.3455 12.7195 43.3455 13.0525C43.3455 13.586 43.1485 13.9942 42.7546 14.2771C42.3643 14.56 41.8111 14.7014 41.095 14.7014H38.4685ZM39.4622 12.1501V13.9011H41.1057C41.5211 13.9011 41.8308 13.8241 42.0349 13.6702C42.2426 13.5162 42.3464 13.2996 42.3464 13.0203C42.3464 12.4402 41.9203 12.1501 41.0681 12.1501H39.4622ZM39.4622 11.3552H40.7458C41.6768 11.3552 42.1423 11.0831 42.1423 10.5388C42.1423 9.99455 41.7019 9.71346 40.821 9.69556H39.4622V11.3552ZM48.4211 8.88989H49.4148V14.7014H48.4211V10.4636L45.741 14.7014H44.7473V8.88989H45.741V13.1331L48.4211 8.88989ZM55.3284 9.69556H53.3787V14.7014H52.385V9.69556H50.4729V8.88989H55.3284V9.69556ZM57.3801 10.8933H58.8894C59.5483 10.9005 60.0693 11.0723 60.4524 11.4089C60.8355 11.7455 61.0271 12.2021 61.0271 12.7786C61.0271 13.3586 60.8302 13.8241 60.4363 14.175C60.0424 14.526 59.5125 14.7014 58.8464 14.7014H56.3865V8.88989H57.3801V10.8933ZM57.3801 11.7043V13.8904H58.8572C59.2296 13.8904 59.5178 13.7955 59.7219 13.6057C59.926 13.4124 60.0281 13.1492 60.0281 12.8162C60.0281 12.4939 59.9278 12.2307 59.7273 12.0266C59.5304 11.8189 59.2528 11.7115 58.8948 11.7043H57.3801Z" fill="#555555"/>
</svg>
