<svg width="47" height="22" viewBox="0 0 47 22" fill="none" xmlns="http://www.w3.org/2000/svg">
<rect x="0.418091" width="46" height="22" rx="2" fill="#3F7ABE"/>
<path d="M23.2807 10.7173C23.2807 11.4836 23.1518 12.1532 22.894 12.7261C22.6362 13.2954 22.2709 13.7305 21.7983 14.0312C21.3256 14.332 20.7742 14.4824 20.144 14.4824C19.5281 14.4824 18.982 14.332 18.5058 14.0312C18.0296 13.7269 17.659 13.2954 17.394 12.7368C17.1326 12.1746 16.9983 11.5247 16.9911 10.7871V10.2231C16.9911 9.47119 17.1218 8.80697 17.3832 8.23047C17.6446 7.65397 18.0134 7.21354 18.4897 6.90918C18.9695 6.60124 19.5174 6.44727 20.1332 6.44727C20.7599 6.44727 21.3113 6.59945 21.7875 6.90381C22.2674 7.20459 22.6362 7.64323 22.894 8.21973C23.1518 8.79264 23.2807 9.46045 23.2807 10.2231V10.7173ZM22.2548 10.2124C22.2548 9.28499 22.0686 8.57422 21.6962 8.08008C21.3238 7.58236 20.8028 7.3335 20.1332 7.3335C19.4815 7.3335 18.9677 7.58236 18.5917 8.08008C18.2193 8.57422 18.0278 9.26172 18.017 10.1426V10.7173C18.017 11.616 18.205 12.3232 18.581 12.8389C18.9606 13.3509 19.4815 13.6069 20.144 13.6069C20.81 13.6069 21.3256 13.3652 21.6909 12.8818C22.0561 12.3949 22.2441 11.6984 22.2548 10.7925V10.2124ZM26.8149 10.7388L25.8588 11.7324V14.375H24.8276V6.55469H25.8588V10.4219L29.3339 6.55469H30.58L27.5024 10.0083L30.8217 14.375H29.5864L26.8149 10.7388Z" fill="white"/>
</svg>
