<svg width="171" height="22" viewBox="0 0 171 22" fill="none" xmlns="http://www.w3.org/2000/svg">
<rect x="1.44043" y="0.5" width="168.583" height="21" rx="1.5" fill="#FBE4E5" stroke="#E6B3B5"/>
<path d="M29.2004 14.375V6.55469H31.7571C32.6057 6.55469 33.2431 6.73014 33.6692 7.08105C34.0989 7.43197 34.3137 7.95117 34.3137 8.63867C34.3137 9.00391 34.2099 9.32796 34.0022 9.61084C33.7945 9.89014 33.5116 10.1068 33.1536 10.2607C33.5761 10.3789 33.9091 10.6045 34.1526 10.9375C34.3997 11.2669 34.5232 11.6608 34.5232 12.1191C34.5232 12.821 34.2958 13.3724 33.8411 13.7734C33.3863 14.1745 32.7436 14.375 31.9128 14.375H29.2004ZM30.2317 10.7173V13.5317H31.9343C32.4141 13.5317 32.7919 13.4082 33.0676 13.1611C33.3469 12.9105 33.4866 12.5667 33.4866 12.1299C33.4866 11.1882 32.9745 10.7173 31.9504 10.7173H30.2317ZM30.2317 9.89014H31.7893C32.2405 9.89014 32.6003 9.77734 32.8689 9.55176C33.141 9.32617 33.2771 9.02002 33.2771 8.6333C33.2771 8.20361 33.1518 7.89209 32.9011 7.69873C32.6505 7.50179 32.2691 7.40332 31.7571 7.40332H30.2317V9.89014ZM38.3098 14.4824C37.5221 14.4824 36.8811 14.2246 36.387 13.709C35.8928 13.1898 35.6458 12.4969 35.6458 11.6304V11.4478C35.6458 10.8713 35.755 10.3574 35.9734 9.90625C36.1954 9.4515 36.5033 9.09701 36.8972 8.84277C37.2947 8.58496 37.7244 8.45605 38.1863 8.45605C38.9418 8.45605 39.5291 8.70492 39.948 9.20264C40.3669 9.70036 40.5764 10.4129 40.5764 11.3403V11.7539H36.6394C36.6537 12.3268 36.8202 12.7905 37.1389 13.145C37.4612 13.4959 37.8694 13.6714 38.3635 13.6714C38.7144 13.6714 39.0116 13.5998 39.2551 13.4565C39.4986 13.3133 39.7117 13.1235 39.8943 12.8872L40.5012 13.3599C40.0142 14.1082 39.2838 14.4824 38.3098 14.4824ZM38.1863 9.27246C37.7852 9.27246 37.4486 9.41927 37.1765 9.71289C36.9044 10.0029 36.7361 10.4111 36.6716 10.9375H39.5828V10.8623C39.5541 10.3574 39.4181 9.96712 39.1746 9.69141C38.9311 9.41211 38.6016 9.27246 38.1863 9.27246ZM46.6404 11.5337C46.6404 12.4181 46.4381 13.1307 46.0334 13.6714C45.6288 14.2121 45.081 14.4824 44.3899 14.4824C43.6845 14.4824 43.1295 14.2586 42.7249 13.811V16.6094H41.7312V8.56348H42.6389L42.6873 9.20801C43.0919 8.70671 43.6541 8.45605 44.3738 8.45605C45.072 8.45605 45.6235 8.71924 46.0281 9.24561C46.4363 9.77197 46.6404 10.5042 46.6404 11.4424V11.5337ZM45.6467 11.4209C45.6467 10.7656 45.5071 10.2482 45.2278 9.86865C44.9485 9.4891 44.5653 9.29932 44.0784 9.29932C43.4768 9.29932 43.0256 9.56608 42.7249 10.0996V12.8765C43.0221 13.4064 43.4768 13.6714 44.0891 13.6714C44.5653 13.6714 44.9431 13.4834 45.2224 13.1074C45.5053 12.7279 45.6467 12.1657 45.6467 11.4209ZM52.656 14.375H51.6624V11.8936H48.9929V14.375H47.9939V8.56348H48.9929V11.0825H51.6624V8.56348H52.656V14.375ZM56.158 12.9194L57.5115 8.56348H58.575L56.2385 15.272C55.8769 16.2388 55.3022 16.7222 54.5144 16.7222L54.3264 16.7061L53.9558 16.6362V15.8306L54.2244 15.8521C54.561 15.8521 54.8223 15.784 55.0085 15.6479C55.1983 15.5119 55.3541 15.263 55.4758 14.9014L55.696 14.3105L53.6228 8.56348H54.7078L56.158 12.9194ZM63.7849 9.36914H61.8352V14.375H60.8416V9.36914H58.9294V8.56348H63.7849V9.36914ZM65.8367 10.5669H67.3459C68.0048 10.5741 68.5258 10.7459 68.9089 11.0825C69.2921 11.4191 69.4836 11.8757 69.4836 12.4521C69.4836 13.0322 69.2867 13.4977 68.8928 13.8486C68.4989 14.1995 67.969 14.375 67.303 14.375H64.843V8.56348H65.8367V10.5669ZM65.8367 11.3779V13.564H67.3137C67.6861 13.564 67.9744 13.4691 68.1785 13.2793C68.3826 13.0859 68.4846 12.8228 68.4846 12.4897C68.4846 12.1675 68.3844 11.9043 68.1838 11.7002C67.9869 11.4925 67.7094 11.3851 67.3513 11.3779H65.8367ZM78.2009 14.375H77.2073V11.8936H74.5378V14.375H73.5388V8.56348H74.5378V11.0825H77.2073V8.56348H78.2009V14.375ZM83.3894 14.375C83.3321 14.2604 83.2856 14.0563 83.2498 13.7627C82.7878 14.2425 82.2364 14.4824 81.5955 14.4824C81.0225 14.4824 80.5517 14.3213 80.1829 13.999C79.8176 13.6732 79.635 13.2614 79.635 12.7637C79.635 12.1585 79.8642 11.6895 80.3225 11.3564C80.7844 11.0199 81.4325 10.8516 82.2668 10.8516H83.2336V10.395C83.2336 10.0477 83.1298 9.77197 82.9221 9.56787C82.7144 9.36019 82.4083 9.25635 82.0037 9.25635C81.6492 9.25635 81.352 9.34587 81.1121 9.5249C80.8722 9.70394 80.7522 9.92057 80.7522 10.1748H79.7532C79.7532 9.88477 79.8552 9.60547 80.0593 9.33691C80.267 9.06478 80.5463 8.84993 80.8972 8.69238C81.2517 8.53483 81.6402 8.45605 82.0627 8.45605C82.7323 8.45605 83.2569 8.62435 83.6365 8.96094C84.016 9.29395 84.213 9.75407 84.2273 10.3413V13.0161C84.2273 13.5496 84.2953 13.974 84.4314 14.2891V14.375H83.3894ZM81.7405 13.6177C82.052 13.6177 82.3474 13.5371 82.6267 13.376C82.906 13.2148 83.1083 13.0054 83.2336 12.7476V11.5552H82.4548C81.2374 11.5552 80.6287 11.9115 80.6287 12.624C80.6287 12.9355 80.7325 13.179 80.9402 13.3545C81.1479 13.5299 81.4146 13.6177 81.7405 13.6177ZM88.4651 13.564L88.8088 13.1396C89.1956 12.6383 89.4158 11.8864 89.4695 10.8838L89.5608 8.56348H93.3044V13.564H94.051V16.083H93.0574V14.375H89.0022V16.083H88.0085L88.0139 13.564H88.4651ZM89.6414 13.564H92.3108V9.48193H90.5222L90.4631 10.8677C90.4023 12.0243 90.1283 12.923 89.6414 13.564ZM94.8889 11.4155C94.8889 10.8462 94.9999 10.3341 95.2219 9.87939C95.4475 9.42464 95.759 9.07373 96.1565 8.82666C96.5575 8.57959 97.0141 8.45605 97.5261 8.45605C98.3175 8.45605 98.9566 8.72998 99.4436 9.27783C99.9342 9.82568 100.179 10.5544 100.179 11.4639V11.5337C100.179 12.0994 100.07 12.6079 99.8518 13.0591C99.637 13.5067 99.3272 13.8558 98.9226 14.1064C98.5216 14.3571 98.0597 14.4824 97.5369 14.4824C96.7491 14.4824 96.1099 14.2085 95.6194 13.6606C95.1324 13.1128 94.8889 12.3877 94.8889 11.4854V11.4155ZM95.8879 11.5337C95.8879 12.1782 96.0365 12.6956 96.3337 13.0859C96.6345 13.4762 97.0356 13.6714 97.5369 13.6714C98.0417 13.6714 98.4428 13.4744 98.74 13.0806C99.0372 12.6831 99.1858 12.1281 99.1858 11.4155C99.1858 10.7782 99.0336 10.2625 98.7292 9.86865C98.4285 9.47119 98.0274 9.27246 97.5261 9.27246C97.0356 9.27246 96.6399 9.46761 96.3391 9.85791C96.0383 10.2482 95.8879 10.8068 95.8879 11.5337ZM106.335 11.5337C106.335 12.4181 106.132 13.1307 105.728 13.6714C105.323 14.2121 104.775 14.4824 104.084 14.4824C103.379 14.4824 102.824 14.2586 102.419 13.811V16.6094H101.426V8.56348H102.333L102.382 9.20801C102.786 8.70671 103.348 8.45605 104.068 8.45605C104.766 8.45605 105.318 8.71924 105.722 9.24561C106.131 9.77197 106.335 10.5042 106.335 11.4424V11.5337ZM105.341 11.4209C105.341 10.7656 105.201 10.2482 104.922 9.86865C104.643 9.4891 104.26 9.29932 103.773 9.29932C103.171 9.29932 102.72 9.56608 102.419 10.0996V12.8765C102.716 13.4064 103.171 13.6714 103.783 13.6714C104.26 13.6714 104.637 13.4834 104.917 13.1074C105.2 12.7279 105.341 12.1657 105.341 11.4209ZM111.19 14.375C111.133 14.2604 111.086 14.0563 111.051 13.7627C110.589 14.2425 110.037 14.4824 109.396 14.4824C108.823 14.4824 108.352 14.3213 107.984 13.999C107.618 13.6732 107.436 13.2614 107.436 12.7637C107.436 12.1585 107.665 11.6895 108.123 11.3564C108.585 11.0199 109.233 10.8516 110.068 10.8516H111.034V10.395C111.034 10.0477 110.931 9.77197 110.723 9.56787C110.515 9.36019 110.209 9.25635 109.804 9.25635C109.45 9.25635 109.153 9.34587 108.913 9.5249C108.673 9.70394 108.553 9.92057 108.553 10.1748H107.554C107.554 9.88477 107.656 9.60547 107.86 9.33691C108.068 9.06478 108.347 8.84993 108.698 8.69238C109.052 8.53483 109.441 8.45605 109.864 8.45605C110.533 8.45605 111.058 8.62435 111.437 8.96094C111.817 9.29395 112.014 9.75407 112.028 10.3413V13.0161C112.028 13.5496 112.096 13.974 112.232 14.2891V14.375H111.19ZM109.541 13.6177C109.853 13.6177 110.148 13.5371 110.427 13.376C110.707 13.2148 110.909 13.0054 111.034 12.7476V11.5552H110.256C109.038 11.5552 108.429 11.9115 108.429 12.624C108.429 12.9355 108.533 13.179 108.741 13.3545C108.949 13.5299 109.215 13.6177 109.541 13.6177ZM116.137 8.89648C116.867 8.89648 117.451 9.14176 117.888 9.63232C118.328 10.1193 118.549 10.762 118.549 11.5605V11.6519C118.549 12.1997 118.443 12.6903 118.232 13.1235C118.02 13.5532 117.716 13.888 117.319 14.1279C116.925 14.3643 116.47 14.4824 115.954 14.4824C115.174 14.4824 114.545 14.2228 114.069 13.7036C113.593 13.1808 113.355 12.4808 113.355 11.6035V11.1201C113.355 9.89909 113.58 8.92871 114.031 8.20898C114.486 7.48926 115.156 7.05062 116.04 6.89307C116.542 6.80355 116.88 6.69434 117.055 6.56543C117.231 6.43652 117.319 6.25928 117.319 6.03369H118.135C118.135 6.48128 118.033 6.8304 117.829 7.08105C117.628 7.33171 117.306 7.50895 116.862 7.61279L116.121 7.7793C115.53 7.91895 115.086 8.15527 114.789 8.48828C114.495 8.81771 114.304 9.25814 114.214 9.80957C114.74 9.20085 115.381 8.89648 116.137 8.89648ZM115.944 9.71289C115.457 9.71289 115.07 9.8776 114.783 10.207C114.497 10.5329 114.354 10.9858 114.354 11.5659V11.6519C114.354 12.2749 114.497 12.769 114.783 13.1343C115.073 13.4959 115.464 13.6768 115.954 13.6768C116.448 13.6768 116.839 13.4941 117.125 13.1289C117.412 12.7637 117.555 12.2301 117.555 11.5283C117.555 10.9805 117.41 10.5418 117.12 10.2124C116.833 9.87939 116.441 9.71289 115.944 9.71289ZM119.403 11.4155C119.403 10.8462 119.514 10.3341 119.736 9.87939C119.961 9.42464 120.273 9.07373 120.67 8.82666C121.071 8.57959 121.528 8.45605 122.04 8.45605C122.831 8.45605 123.47 8.72998 123.957 9.27783C124.448 9.82568 124.693 10.5544 124.693 11.4639V11.5337C124.693 12.0994 124.584 12.6079 124.365 13.0591C124.151 13.5067 123.841 13.8558 123.436 14.1064C123.035 14.3571 122.573 14.4824 122.051 14.4824C121.263 14.4824 120.624 14.2085 120.133 13.6606C119.646 13.1128 119.403 12.3877 119.403 11.4854V11.4155ZM120.402 11.5337C120.402 12.1782 120.55 12.6956 120.847 13.0859C121.148 13.4762 121.549 13.6714 122.051 13.6714C122.555 13.6714 122.956 13.4744 123.254 13.0806C123.551 12.6831 123.699 12.1281 123.699 11.4155C123.699 10.7782 123.547 10.2625 123.243 9.86865C122.942 9.47119 122.541 9.27246 122.04 9.27246C121.549 9.27246 121.154 9.46761 120.853 9.85791C120.552 10.2482 120.402 10.8068 120.402 11.5337ZM130.139 9.36914H128.19V14.375H127.196V9.36914H125.284V8.56348H130.139V9.36914ZM132.916 11.8989H132.191V14.375H131.192V8.56348H132.191V11.0234H132.841L134.796 8.56348H135.999L133.7 11.3564L136.193 14.375H134.93L132.916 11.8989ZM138.948 12.9194L140.302 8.56348H141.365L139.029 15.272C138.667 16.2388 138.092 16.7222 137.304 16.7222L137.116 16.7061L136.746 16.6362V15.8306L137.014 15.8521C137.351 15.8521 137.612 15.784 137.799 15.6479C137.988 15.5119 138.144 15.263 138.266 14.9014L138.486 14.3105L136.413 8.56348H137.498L138.948 12.9194Z" fill="#555555"/>
</svg>
