<svg width="137" height="21" viewBox="0 0 137 21" fill="none" xmlns="http://www.w3.org/2000/svg">
<path d="M22.3147 9.45762H20.4978L19.5498 7.6145H27.1337L26.1857 9.45762H24.4082V17.5752H22.3147V9.45762Z" fill="white"/>
<path d="M35.824 7.6145V9.49683H31.8346V11.4968H35.5475V13.3791H31.8346V15.6536H35.9425V17.5752H29.6621V7.6145H35.824Z" fill="white"/>
<path d="M40.3637 10.0459H38.4677C38.3887 9.30085 38.7442 8.55576 39.3367 8.08518C40.0082 7.6146 40.8377 7.37931 41.6671 7.41852C42.5361 7.37931 43.4051 7.65381 44.0766 8.20283C44.6691 8.71263 44.9851 9.45771 44.9851 10.242C44.9851 10.6342 44.8666 11.0263 44.6691 11.34C44.4716 11.693 44.1556 11.9675 43.8396 12.1636C44.9061 12.5557 45.5776 13.5753 45.5381 14.6733C45.5776 15.5361 45.1826 16.3596 44.5111 16.9086C43.6816 17.4968 42.6941 17.8106 41.6671 17.7321C40.7192 17.7713 39.7712 17.4968 39.0207 16.8694C38.3887 16.3204 38.0332 15.4576 38.0332 14.3596H39.9687C39.9292 14.791 40.1267 15.2224 40.4427 15.4969C40.7586 15.7714 41.1931 15.9282 41.6276 15.9282C42.0621 15.9674 42.5361 15.8106 42.8521 15.5361C43.1681 15.2616 43.3261 14.9086 43.3261 14.4773C43.3261 14.0851 43.1681 13.693 42.8521 13.4577C42.4966 13.1832 42.0621 13.0263 41.6276 13.0655H40.9561V11.34H41.6671C42.0226 11.34 42.3386 11.2224 42.6151 10.9871C42.8521 10.791 43.0101 10.4773 43.0101 10.1636C43.0101 9.84987 42.8916 9.49693 42.6151 9.30085C42.3386 9.10478 42.0226 8.98713 41.6671 8.98713C41.3511 8.98713 40.9956 9.06556 40.7192 9.22242C40.5217 9.49693 40.3637 9.77144 40.3637 10.0459Z" fill="white"/>
<path d="M54.4664 11.8891L48.7785 17.6145H48.1465V7.61465H50.2794V13.2616L55.9278 7.57544H56.5993V17.5753H54.4664V11.8891Z" fill="white"/>
<path d="M59.0479 12.6334C59.0479 11.0256 59.5613 9.80995 60.5883 8.86879C61.5758 7.96684 62.8793 7.49625 64.2222 7.53547C65.2887 7.53547 66.3157 7.84919 67.2242 8.43742C68.1327 9.06486 68.7252 10.006 68.8831 11.0648H66.7897C66.3552 9.96681 65.5257 9.45702 64.2222 9.45702C63.3928 9.4178 62.6423 9.73152 62.0893 10.359C61.5363 10.9864 61.2203 11.8099 61.2598 12.6727C61.2203 13.4962 61.5363 14.2805 62.0893 14.9079C62.6423 15.4962 63.3928 15.8491 64.2222 15.8099C64.8147 15.8099 65.4072 15.653 65.8812 15.3393C66.3552 15.0256 66.7107 14.555 66.8292 14.006H68.8831C68.7647 15.104 68.1722 16.1236 67.2637 16.7903C66.3947 17.4177 65.3282 17.7314 64.2222 17.7314C63.5508 17.7314 62.9188 17.6138 62.2868 17.4177C61.6943 17.1824 61.1413 16.8687 60.6673 16.4765C60.1538 16.0452 59.7588 15.4962 59.5218 14.8687C59.2058 14.1236 59.0479 13.3785 59.0479 12.6334Z" fill="white"/>
<path d="M18.0086 4.94774H17.9296L17.5741 5.02617L17.2976 5.06539H17.1396C16.9816 5.06539 16.8631 5.06539 16.7051 5.06539H16.6261C14.1772 5.06539 12.0442 3.3007 11.6492 0.869357H17.4556L15.9546 3.84971H16.1916C16.3891 3.84971 16.6261 3.8105 16.8236 3.8105L18.7591 0.124268H0.273438L2.80139 5.14382H6.9883V19.4182L7.0278 19.3397C7.1463 19.1437 7.2253 18.9868 7.3438 18.7907L7.3833 18.7515C10.3852 13.5359 14.0982 8.86926 18.4431 4.83009L18.0086 4.94774ZM6.9883 4.3203H3.27538L1.53741 0.908572H11.4122C11.0172 2.43797 9.16076 8.94769 7.77829 13.8888V4.3203H6.9883Z" fill="white"/>
<path d="M11.2552 19.3401H7.77924V18.6735C7.50275 18.948 7.22625 19.2225 6.98926 19.5362V20.1244H12.0452V14.752C11.7687 14.948 11.5317 15.1833 11.2552 15.4186V19.3401Z" fill="white"/>
<circle cx="72.3541" cy="16.7598" r="1.22518" fill="white"/>
<path d="M76.4619 12.7589C76.4619 11.3998 76.9106 10.2672 77.808 9.36109C78.7054 8.455 79.8467 8.00195 81.232 8.00195C82.6434 8.00195 83.7847 8.4245 84.6559 9.26961L83.8457 10.5242C83.5059 10.2367 83.1051 10.0014 82.6434 9.81849C82.1903 9.63553 81.746 9.54405 81.3104 9.54405C80.3346 9.54405 79.5722 9.84898 79.0234 10.4588C78.4745 11.0687 78.2 11.8267 78.2 12.7328C78.2 13.6476 78.4788 14.4317 79.0364 15.0851C79.594 15.7298 80.3564 16.0522 81.3234 16.0522C82.3166 16.0522 83.214 15.6601 84.0156 14.876L84.9042 16.0914C83.9197 17.0933 82.7043 17.5943 81.2581 17.5943C79.8205 17.5943 78.6618 17.1369 77.7818 16.2221C76.9019 15.3073 76.4619 14.1529 76.4619 12.7589Z" fill="white"/>
<path d="M86.3525 17.4375V8.15878H93.8669V17.4375H92.1811V9.60939H88.0383V17.4375H86.3525Z" fill="white"/>
<path d="M96.1157 17.4375V8.15878H99.6964C100.568 8.15878 101.278 8.43757 101.827 8.99517C102.376 9.55276 102.65 10.2802 102.65 11.1776C102.65 12.075 102.376 12.8112 101.827 13.3862C101.278 13.9525 100.568 14.2357 99.6964 14.2357H97.8015V17.4375H96.1157ZM97.8015 12.772H99.3828C99.8707 12.772 100.25 12.6282 100.52 12.3407C100.799 12.0532 100.938 11.6655 100.938 11.1776C100.938 10.6984 100.799 10.3195 100.52 10.0407C100.25 9.75314 99.8794 9.60939 99.4089 9.60939H97.8015V12.772Z" fill="white"/>
<path d="M102.626 17.4375L105.88 8.15878H107.657L110.912 17.4375H109.186L108.389 15.059H105.135L104.351 17.4375H102.626ZM105.553 13.6868H107.971L107.148 11.2038L106.782 9.76621H106.756C106.616 10.3761 106.494 10.8553 106.39 11.2038L105.553 13.6868Z" fill="white"/>
<path d="M112.145 17.4375V8.15878H115.451C116.314 8.15878 117.007 8.37223 117.529 8.79914C118.061 9.21733 118.327 9.80106 118.327 10.5503C118.327 10.9859 118.226 11.378 118.026 11.7265C117.826 12.075 117.551 12.3451 117.203 12.5368V12.5629C117.691 12.7023 118.061 12.9767 118.313 13.3862C118.575 13.7957 118.706 14.2487 118.706 14.7453C118.706 15.6253 118.401 16.2962 117.791 16.7579C117.181 17.211 116.419 17.4375 115.504 17.4375H112.145ZM113.831 11.9487H115.465C115.822 11.9487 116.101 11.8398 116.301 11.622C116.51 11.3954 116.615 11.1079 116.615 10.7594C116.615 10.4196 116.51 10.1452 116.301 9.93611C116.101 9.7183 115.813 9.60939 115.438 9.60939H113.831V11.9487ZM113.831 15.9869H115.634C116.053 15.9869 116.379 15.8649 116.615 15.6209C116.859 15.3683 116.98 15.0416 116.98 14.6408C116.98 14.2487 116.859 13.9307 116.615 13.6868C116.379 13.4341 116.053 13.3078 115.634 13.3078H113.831V15.9869Z" fill="white"/>
<path d="M120.415 17.4375V8.15878H122.101V11.9356H123.303L125.486 8.15878H127.315L124.688 12.576V12.6021L127.472 17.4375H125.564L123.303 13.3862H122.101V17.4375H120.415Z" fill="white"/>
<path d="M127.729 17.4375L130.984 8.15878H132.761L136.015 17.4375H134.29L133.493 15.059H130.239L129.455 17.4375H127.729ZM130.657 13.6868H133.075L132.251 11.2038L131.885 9.76621H131.859C131.72 10.3761 131.598 10.8553 131.493 11.2038L130.657 13.6868Z" fill="white"/>
</svg>
