<svg width="171" height="23" viewBox="0 0 171 23" fill="none" xmlns="http://www.w3.org/2000/svg">
<rect x="1.34808" y="1.33643" width="168.583" height="21" rx="1.5" fill="#E9F3FA" stroke="#AFC9DC"/>
<path d="M26.9119 12.73C26.8152 13.5571 26.509 14.1963 25.9934 14.6475C25.4814 15.0951 24.7992 15.3188 23.947 15.3188C23.0232 15.3188 22.282 14.9876 21.7234 14.3252C21.1684 13.6628 20.8909 12.7765 20.8909 11.6665V10.9146C20.8909 10.1877 21.0198 9.5485 21.2776 8.99707C21.539 8.44564 21.9078 8.02311 22.384 7.72949C22.8603 7.43229 23.4117 7.28369 24.0383 7.28369C24.8691 7.28369 25.5351 7.51644 26.0364 7.98193C26.5377 8.44385 26.8295 9.0848 26.9119 9.90479H25.8752C25.7857 9.28174 25.5906 8.83057 25.2898 8.55127C24.9926 8.27197 24.5754 8.13232 24.0383 8.13232C23.3795 8.13232 22.8621 8.37581 22.4861 8.86279C22.1137 9.34977 21.9275 10.0426 21.9275 10.9414V11.6987C21.9275 12.5474 22.1047 13.2223 22.4592 13.7236C22.8137 14.2249 23.3097 14.4756 23.947 14.4756C24.5199 14.4756 24.9586 14.3467 25.2629 14.0889C25.5709 13.8275 25.775 13.3745 25.8752 12.73H26.9119ZM27.9055 12.252C27.9055 11.6826 28.0165 11.1706 28.2385 10.7158C28.4641 10.2611 28.7756 9.91016 29.1731 9.66309C29.5741 9.41602 30.0307 9.29248 30.5427 9.29248C31.3341 9.29248 31.9732 9.56641 32.4602 10.1143C32.9508 10.6621 33.196 11.3908 33.196 12.3003V12.3701C33.196 12.9359 33.0868 13.4443 32.8684 13.8955C32.6536 14.3431 32.3438 14.6922 31.9392 14.9429C31.5382 15.1935 31.0763 15.3188 30.5535 15.3188C29.7657 15.3188 29.1265 15.0449 28.636 14.4971C28.149 13.9492 27.9055 13.2241 27.9055 12.3218V12.252ZM28.9045 12.3701C28.9045 13.0146 29.0531 13.5321 29.3503 13.9224C29.6511 14.3127 30.0522 14.5078 30.5535 14.5078C31.0583 14.5078 31.4594 14.3109 31.7566 13.917C32.0538 13.5195 32.2024 12.9645 32.2024 12.252C32.2024 11.6146 32.0502 11.099 31.7458 10.7051C31.4451 10.3076 31.044 10.1089 30.5427 10.1089C30.0522 10.1089 29.6565 10.304 29.3557 10.6943C29.0549 11.0846 28.9045 11.6432 28.9045 12.3701ZM38.1965 10.2217H35.5164V15.2114H34.5173V9.3999H38.1965V10.2217ZM43.6106 9.3999V15.2114H42.6116V10.2217H40.635L40.5168 12.397C40.4524 13.396 40.2841 14.1104 40.012 14.54C39.7434 14.9697 39.3155 15.1935 38.7283 15.2114H38.3308V14.3359L38.6155 14.3145C38.9377 14.2786 39.1687 14.0924 39.3083 13.7559C39.448 13.4193 39.5375 12.7962 39.5769 11.8867L39.6843 9.3999H43.6106ZM48.7937 15.2114C48.7364 15.0968 48.6899 14.8927 48.6541 14.5991C48.1921 15.0789 47.6407 15.3188 46.9998 15.3188C46.4268 15.3188 45.956 15.1577 45.5872 14.8354C45.2219 14.5096 45.0393 14.0978 45.0393 13.6001C45.0393 12.995 45.2685 12.5259 45.7268 12.1929C46.1887 11.8563 46.8368 11.688 47.6711 11.688H48.6379V11.2314C48.6379 10.8841 48.5341 10.6084 48.3264 10.4043C48.1187 10.1966 47.8126 10.0928 47.408 10.0928C47.0535 10.0928 46.7563 10.1823 46.5164 10.3613C46.2764 10.5404 46.1565 10.757 46.1565 11.0112H45.1575C45.1575 10.7212 45.2595 10.4419 45.4636 10.1733C45.6713 9.9012 45.9506 9.68636 46.3015 9.52881C46.656 9.37126 47.0445 9.29248 47.467 9.29248C48.1366 9.29248 48.6612 9.46077 49.0408 9.79736C49.4203 10.1304 49.6173 10.5905 49.6316 11.1777V13.8525C49.6316 14.3861 49.6996 14.8104 49.8357 15.1255V15.2114H48.7937ZM47.1448 14.4541C47.4563 14.4541 47.7517 14.3735 48.031 14.2124C48.3103 14.0513 48.5126 13.8418 48.6379 13.584V12.3916H47.8591C46.6417 12.3916 46.033 12.7479 46.033 13.4604C46.033 13.772 46.1368 14.0155 46.3445 14.1909C46.5522 14.3664 46.8189 14.4541 47.1448 14.4541ZM53.5203 14.5078C53.8748 14.5078 54.1845 14.4004 54.4495 14.1855C54.7144 13.9707 54.8612 13.7021 54.8899 13.3799H55.8298C55.8119 13.7129 55.6973 14.0298 55.4861 14.3306C55.2748 14.6313 54.9919 14.8713 54.6375 15.0503C54.2865 15.2293 53.9141 15.3188 53.5203 15.3188C52.7289 15.3188 52.0987 15.0557 51.6296 14.5293C51.1641 13.9993 50.9314 13.276 50.9314 12.3594V12.1929C50.9314 11.6271 51.0352 11.124 51.2429 10.6836C51.4506 10.2432 51.7478 9.9012 52.1345 9.65771C52.5248 9.41423 52.9849 9.29248 53.5149 9.29248C54.1666 9.29248 54.7073 9.48763 55.137 9.87793C55.5702 10.2682 55.8012 10.7749 55.8298 11.3979H54.8899C54.8612 11.022 54.718 10.714 54.4602 10.4741C54.206 10.2306 53.8909 10.1089 53.5149 10.1089C53.01 10.1089 52.6179 10.2915 52.3386 10.6567C52.0629 11.0184 51.925 11.543 51.925 12.2305V12.4185C51.925 13.0881 52.0629 13.6037 52.3386 13.9653C52.6143 14.327 53.0082 14.5078 53.5203 14.5078ZM56.6838 12.252C56.6838 11.6826 56.7948 11.1706 57.0168 10.7158C57.2424 10.2611 57.554 9.91016 57.9514 9.66309C58.3525 9.41602 58.809 9.29248 59.321 9.29248C60.1124 9.29248 60.7515 9.56641 61.2385 10.1143C61.7291 10.6621 61.9744 11.3908 61.9744 12.3003V12.3701C61.9744 12.9359 61.8652 13.4443 61.6467 13.8955C61.4319 14.3431 61.1222 14.6922 60.7175 14.9429C60.3165 15.1935 59.8546 15.3188 59.3318 15.3188C58.544 15.3188 57.9049 15.0449 57.4143 14.4971C56.9273 13.9492 56.6838 13.2241 56.6838 12.3218V12.252ZM57.6829 12.3701C57.6829 13.0146 57.8315 13.5321 58.1287 13.9224C58.4294 14.3127 58.8305 14.5078 59.3318 14.5078C59.8367 14.5078 60.2377 14.3109 60.5349 13.917C60.8321 13.5195 60.9807 12.9645 60.9807 12.252C60.9807 11.6146 60.8285 11.099 60.5242 10.7051C60.2234 10.3076 59.8223 10.1089 59.321 10.1089C58.8305 10.1089 58.4348 10.304 58.134 10.6943C57.8333 11.0846 57.6829 11.6432 57.6829 12.3701ZM63.3118 15.2114V9.3999H65.5784C66.3518 9.3999 66.9444 9.53597 67.3562 9.80811C67.7716 10.0767 67.9792 10.4723 67.9792 10.9951C67.9792 11.2637 67.8987 11.5072 67.7375 11.7256C67.5764 11.9404 67.3383 12.1051 67.0232 12.2197C67.3741 12.3021 67.6552 12.4632 67.8665 12.7031C68.0813 12.943 68.1887 13.2295 68.1887 13.5625C68.1887 14.096 67.9918 14.5042 67.5979 14.7871C67.2076 15.07 66.6544 15.2114 65.9382 15.2114H63.3118ZM64.3054 12.6602V14.4111H65.949C66.3643 14.4111 66.6741 14.3341 66.8782 14.1802C67.0859 14.0262 67.1897 13.8096 67.1897 13.5303C67.1897 12.9502 66.7636 12.6602 65.9114 12.6602H64.3054ZM64.3054 11.8652H65.5891C66.5201 11.8652 66.9856 11.5931 66.9856 11.0488C66.9856 10.5046 66.5452 10.2235 65.6643 10.2056H64.3054V11.8652ZM73.0925 15.2114C73.0352 15.0968 72.9887 14.8927 72.9529 14.5991C72.491 15.0789 71.9395 15.3188 71.2986 15.3188C70.7257 15.3188 70.2548 15.1577 69.886 14.8354C69.5208 14.5096 69.3381 14.0978 69.3381 13.6001C69.3381 12.995 69.5673 12.5259 70.0256 12.1929C70.4875 11.8563 71.1357 11.688 71.97 11.688H72.9368V11.2314C72.9368 10.8841 72.8329 10.6084 72.6252 10.4043C72.4176 10.1966 72.1114 10.0928 71.7068 10.0928C71.3523 10.0928 71.0551 10.1823 70.8152 10.3613C70.5753 10.5404 70.4553 10.757 70.4553 11.0112H69.4563C69.4563 10.7212 69.5583 10.4419 69.7625 10.1733C69.9701 9.9012 70.2494 9.68636 70.6003 9.52881C70.9548 9.37126 71.3433 9.29248 71.7659 9.29248C72.4355 9.29248 72.96 9.46077 73.3396 9.79736C73.7192 10.1304 73.9161 10.5905 73.9304 11.1777V13.8525C73.9304 14.3861 73.9985 14.8104 74.1345 15.1255V15.2114H73.0925ZM71.4436 14.4541C71.7551 14.4541 72.0505 14.3735 72.3298 14.2124C72.6091 14.0513 72.8114 13.8418 72.9368 13.584V12.3916H72.158C70.9405 12.3916 70.3318 12.7479 70.3318 13.4604C70.3318 13.772 70.4356 14.0155 70.6433 14.1909C70.851 14.3664 71.1178 14.4541 71.4436 14.4541ZM80.2361 15.2114H79.2424V12.73H76.573V15.2114H75.574V9.3999H76.573V11.9189H79.2424V9.3999H80.2361V15.2114ZM85.5964 9.3999H86.5901V15.2114H85.5964V10.9736L82.9163 15.2114H81.9226V9.3999H82.9163V13.6431L85.5964 9.3999ZM90.5969 15.3188C89.8092 15.3188 89.1682 15.061 88.6741 14.5454C88.1799 14.0262 87.9329 13.3333 87.9329 12.4668V12.2842C87.9329 11.7077 88.0421 11.1938 88.2605 10.7427C88.4825 10.2879 88.7904 9.93343 89.1843 9.6792C89.5818 9.42139 90.0115 9.29248 90.4734 9.29248C91.2289 9.29248 91.8162 9.54134 92.2351 10.0391C92.6541 10.5368 92.8635 11.2493 92.8635 12.1768V12.5903H88.9265C88.9408 13.1632 89.1073 13.627 89.426 13.9814C89.7483 14.3324 90.1565 14.5078 90.6506 14.5078C91.0015 14.5078 91.2987 14.4362 91.5422 14.293C91.7857 14.1497 91.9988 13.96 92.1814 13.7236L92.7883 14.1963C92.3014 14.9447 91.5709 15.3188 90.5969 15.3188ZM90.4734 10.1089C90.0723 10.1089 89.7358 10.2557 89.4636 10.5493C89.1915 10.8394 89.0232 11.2476 88.9587 11.7739H91.8699V11.6987C91.8412 11.1938 91.7052 10.8035 91.4617 10.5278C91.2182 10.2485 90.8888 10.1089 90.4734 10.1089ZM101.5 15.2114H100.507V10.2217H97.8318V15.2114H96.8328V9.3999H101.5V15.2114ZM108.005 12.3701C108.005 13.2546 107.802 13.9671 107.398 14.5078C106.993 15.0485 106.445 15.3188 105.754 15.3188C105.049 15.3188 104.494 15.0951 104.089 14.6475V17.4458H103.095V9.3999H104.003L104.052 10.0444C104.456 9.54313 105.018 9.29248 105.738 9.29248C106.436 9.29248 106.988 9.55566 107.392 10.082C107.801 10.6084 108.005 11.3407 108.005 12.2788V12.3701ZM107.011 12.2573C107.011 11.6021 106.871 11.0846 106.592 10.7051C106.313 10.3255 105.93 10.1357 105.443 10.1357C104.841 10.1357 104.39 10.4025 104.089 10.936V13.7129C104.386 14.2428 104.841 14.5078 105.453 14.5078C105.93 14.5078 106.307 14.3198 106.587 13.9438C106.87 13.5643 107.011 13.0021 107.011 12.2573ZM109.009 12.252C109.009 11.6826 109.12 11.1706 109.342 10.7158C109.568 10.2611 109.879 9.91016 110.277 9.66309C110.678 9.41602 111.134 9.29248 111.646 9.29248C112.438 9.29248 113.077 9.56641 113.564 10.1143C114.054 10.6621 114.3 11.3908 114.3 12.3003V12.3701C114.3 12.9359 114.19 13.4443 113.972 13.8955C113.757 14.3431 113.447 14.6922 113.043 14.9429C112.642 15.1935 112.18 15.3188 111.657 15.3188C110.869 15.3188 110.23 15.0449 109.74 14.4971C109.253 13.9492 109.009 13.2241 109.009 12.3218V12.252ZM110.008 12.3701C110.008 13.0146 110.157 13.5321 110.454 13.9224C110.755 14.3127 111.156 14.5078 111.657 14.5078C112.162 14.5078 112.563 14.3109 112.86 13.917C113.157 13.5195 113.306 12.9645 113.306 12.252C113.306 11.6146 113.154 11.099 112.849 10.7051C112.549 10.3076 112.148 10.1089 111.646 10.1089C111.156 10.1089 110.76 10.304 110.459 10.6943C110.158 11.0846 110.008 11.6432 110.008 12.3701ZM119.746 10.2056H117.796V15.2114H116.802V10.2056H114.89V9.3999H119.746V10.2056ZM120.224 12.252C120.224 11.6826 120.335 11.1706 120.557 10.7158C120.782 10.2611 121.094 9.91016 121.491 9.66309C121.892 9.41602 122.349 9.29248 122.861 9.29248C123.652 9.29248 124.292 9.56641 124.779 10.1143C125.269 10.6621 125.514 11.3908 125.514 12.3003V12.3701C125.514 12.9359 125.405 13.4443 125.187 13.8955C124.972 14.3431 124.662 14.6922 124.258 14.9429C123.857 15.1935 123.395 15.3188 122.872 15.3188C122.084 15.3188 121.445 15.0449 120.954 14.4971C120.467 13.9492 120.224 13.2241 120.224 12.3218V12.252ZM121.223 12.3701C121.223 13.0146 121.372 13.5321 121.669 13.9224C121.969 14.3127 122.371 14.5078 122.872 14.5078C123.377 14.5078 123.778 14.3109 124.075 13.917C124.372 13.5195 124.521 12.9645 124.521 12.252C124.521 11.6146 124.369 11.099 124.064 10.7051C123.763 10.3076 123.362 10.1089 122.861 10.1089C122.371 10.1089 121.975 10.304 121.674 10.6943C121.373 11.0846 121.223 11.6432 121.223 12.3701ZM128.571 12.7354H127.845V15.2114H126.846V9.3999H127.845V11.8599H128.495L130.45 9.3999H131.654L129.355 12.1929L131.847 15.2114H130.585L128.571 12.7354ZM132.32 12.252C132.32 11.6826 132.431 11.1706 132.653 10.7158C132.878 10.2611 133.19 9.91016 133.587 9.66309C133.988 9.41602 134.445 9.29248 134.957 9.29248C135.748 9.29248 136.387 9.56641 136.874 10.1143C137.365 10.6621 137.61 11.3908 137.61 12.3003V12.3701C137.61 12.9359 137.501 13.4443 137.282 13.8955C137.068 14.3431 136.758 14.6922 136.353 14.9429C135.952 15.1935 135.49 15.3188 134.968 15.3188C134.18 15.3188 133.541 15.0449 133.05 14.4971C132.563 13.9492 132.32 13.2241 132.32 12.3218V12.252ZM133.319 12.3701C133.319 13.0146 133.467 13.5321 133.764 13.9224C134.065 14.3127 134.466 14.5078 134.968 14.5078C135.472 14.5078 135.873 14.3109 136.171 13.917C136.468 13.5195 136.616 12.9645 136.616 12.252C136.616 11.6146 136.464 11.099 136.16 10.7051C135.859 10.3076 135.458 10.1089 134.957 10.1089C134.466 10.1089 134.071 10.304 133.77 10.6943C133.469 11.0846 133.319 11.6432 133.319 12.3701ZM143.534 9.3999V15.2114H142.535V10.2217H140.559L140.441 12.397C140.376 13.396 140.208 14.1104 139.936 14.54C139.667 14.9697 139.239 15.1935 138.652 15.2114H138.255V14.3359L138.539 14.3145C138.862 14.2786 139.093 14.0924 139.232 13.7559C139.372 13.4193 139.461 12.7962 139.501 11.8867L139.608 9.3999H143.534ZM148.718 15.2114C148.66 15.0968 148.614 14.8927 148.578 14.5991C148.116 15.0789 147.565 15.3188 146.924 15.3188C146.351 15.3188 145.88 15.1577 145.511 14.8354C145.146 14.5096 144.963 14.0978 144.963 13.6001C144.963 12.995 145.192 12.5259 145.651 12.1929C146.113 11.8563 146.761 11.688 147.595 11.688H148.562V11.2314C148.562 10.8841 148.458 10.6084 148.25 10.4043C148.043 10.1966 147.736 10.0928 147.332 10.0928C146.977 10.0928 146.68 10.1823 146.44 10.3613C146.2 10.5404 146.08 10.757 146.08 11.0112H145.081C145.081 10.7212 145.183 10.4419 145.387 10.1733C145.595 9.9012 145.874 9.68636 146.225 9.52881C146.58 9.37126 146.968 9.29248 147.391 9.29248C148.06 9.29248 148.585 9.46077 148.965 9.79736C149.344 10.1304 149.541 10.5905 149.555 11.1777V13.8525C149.555 14.3861 149.623 14.8104 149.76 15.1255V15.2114H148.718ZM147.069 14.4541C147.38 14.4541 147.676 14.3735 147.955 14.2124C148.234 14.0513 148.436 13.8418 148.562 13.584V12.3916H147.783C146.566 12.3916 145.957 12.7479 145.957 13.4604C145.957 13.772 146.061 14.0155 146.268 14.1909C146.476 14.3664 146.743 14.4541 147.069 14.4541Z" fill="#555555"/>
</svg>
