<svg width="131" height="23" viewBox="0 0 131 23" fill="none" xmlns="http://www.w3.org/2000/svg">
<rect x="0.501465" y="0.826416" width="129.583" height="21" rx="1.5" fill="#F8F8F8" stroke="#DADADA"/>
<path d="M39.676 14.7014H38.6394V7.72974H34.783V14.7014H33.7517V6.8811H39.676V14.7014ZM41.137 11.7419C41.137 11.1726 41.248 10.6606 41.47 10.2058C41.6956 9.75106 42.0071 9.40015 42.4045 9.15308C42.8056 8.90601 43.2621 8.78247 43.7742 8.78247C44.5655 8.78247 45.2047 9.0564 45.6917 9.60425C46.1822 10.1521 46.4275 10.8808 46.4275 11.7903V11.8601C46.4275 12.4259 46.3183 12.9343 46.0999 13.3855C45.885 13.8331 45.5753 14.1822 45.1707 14.4329C44.7696 14.6835 44.3077 14.8088 43.7849 14.8088C42.9972 14.8088 42.358 14.5349 41.8674 13.9871C41.3805 13.4392 41.137 12.7141 41.137 11.8118V11.7419ZM42.136 11.8601C42.136 12.5046 42.2846 13.0221 42.5818 13.4124C42.8826 13.8027 43.2836 13.9978 43.7849 13.9978C44.2898 13.9978 44.6908 13.8009 44.988 13.407C45.2852 13.0095 45.4338 12.4545 45.4338 11.7419C45.4338 11.1046 45.2817 10.5889 44.9773 10.1951C44.6765 9.79761 44.2755 9.59888 43.7742 9.59888C43.2836 9.59888 42.8879 9.79403 42.5872 10.1843C42.2864 10.5746 42.136 11.1332 42.136 11.8601ZM52.3518 8.88989V14.7014H51.3528V9.71167H49.3762L49.2581 11.887C49.1936 12.886 49.0253 13.6003 48.7532 14.03C48.4846 14.4597 48.0567 14.6835 47.4695 14.7014H47.072V13.8259L47.3567 13.8044C47.679 13.7686 47.9099 13.5824 48.0496 13.2458C48.1892 12.9093 48.2787 12.2862 48.3181 11.3767L48.4255 8.88989H52.3518ZM55.8484 13.2458L57.2019 8.88989H58.2654L55.929 15.5984C55.5673 16.5652 54.9926 17.0486 54.2048 17.0486L54.0168 17.0325L53.6462 16.9626V16.157L53.9148 16.1785C54.2514 16.1785 54.5128 16.1104 54.699 15.9744C54.8888 15.8383 55.0445 15.5894 55.1663 15.2278L55.3865 14.637L53.3132 8.88989H54.3982L55.8484 13.2458ZM63.5452 14.7014H62.5461V12.5959C62.1093 12.7105 61.6617 12.7678 61.2034 12.7678C60.4765 12.7678 59.9215 12.5816 59.5383 12.2092C59.1588 11.8368 58.9654 11.3069 58.9583 10.6194V8.88452H59.9519V10.6516C59.9698 11.5181 60.387 11.9514 61.2034 11.9514C61.6617 11.9514 62.1093 11.8941 62.5461 11.7795V8.88989H63.5452V14.7014ZM68.9001 8.88989H69.8938V14.7014H68.9001V10.4636L66.22 14.7014H65.2263V8.88989H66.22V13.1331L68.9001 8.88989ZM75.8074 9.69556H73.8577V14.7014H72.864V9.69556H70.9519V8.88989H75.8074V9.69556ZM77.8591 10.8933H79.3684C80.0273 10.9005 80.5483 11.0723 80.9314 11.4089C81.3145 11.7455 81.5061 12.2021 81.5061 12.7786C81.5061 13.3586 81.3092 13.8241 80.9153 14.175C80.5214 14.526 79.9915 14.7014 79.3254 14.7014H76.8655V8.88989H77.8591V10.8933ZM77.8591 11.7043V13.8904H79.3362C79.7086 13.8904 79.9968 13.7955 80.2009 13.6057C80.405 13.4124 80.5071 13.1492 80.5071 12.8162C80.5071 12.4939 80.4068 12.2307 80.2063 12.0266C80.0094 11.8189 79.7319 11.7115 79.3738 11.7043H77.8591ZM90.2234 14.7014H89.2297V12.22H86.5603V14.7014H85.5613V8.88989H86.5603V11.4089H89.2297V8.88989H90.2234V14.7014ZM91.5608 11.7419C91.5608 11.1726 91.6718 10.6606 91.8938 10.2058C92.1194 9.75106 92.4309 9.40015 92.8284 9.15308C93.2294 8.90601 93.686 8.78247 94.198 8.78247C94.9893 8.78247 95.6285 9.0564 96.1155 9.60425C96.606 10.1521 96.8513 10.8808 96.8513 11.7903V11.8601C96.8513 12.4259 96.7421 12.9343 96.5237 13.3855C96.3088 13.8331 95.9991 14.1822 95.5945 14.4329C95.1934 14.6835 94.7315 14.8088 94.2087 14.8088C93.421 14.8088 92.7818 14.5349 92.2913 13.9871C91.8043 13.4392 91.5608 12.7141 91.5608 11.8118V11.7419ZM92.5598 11.8601C92.5598 12.5046 92.7084 13.0221 93.0056 13.4124C93.3064 13.8027 93.7074 13.9978 94.2087 13.9978C94.7136 13.9978 95.1147 13.8009 95.4119 13.407C95.7091 13.0095 95.8577 12.4545 95.8577 11.7419C95.8577 11.1046 95.7055 10.5889 95.4011 10.1951C95.1003 9.79761 94.6993 9.59888 94.198 9.59888C93.7074 9.59888 93.3118 9.79403 93.011 10.1843C92.7102 10.5746 92.5598 11.1332 92.5598 11.8601ZM101.444 13.3855L103.42 8.88989H104.661V14.7014H103.667V10.4744L101.787 14.7014H101.1L99.1824 10.3831V14.7014H98.1887V8.88989H99.4778L101.444 13.3855ZM108.673 14.8088C107.885 14.8088 107.244 14.551 106.75 14.0354C106.256 13.5162 106.009 12.8233 106.009 11.9568V11.7742C106.009 11.1977 106.118 10.6838 106.337 10.2327C106.559 9.77791 106.867 9.42342 107.26 9.16919C107.658 8.91138 108.088 8.78247 108.55 8.78247C109.305 8.78247 109.892 9.03133 110.311 9.52905C110.73 10.0268 110.94 10.7393 110.94 11.6667V12.0803H107.003C107.017 12.6532 107.184 13.1169 107.502 13.4714C107.824 13.8223 108.233 13.9978 108.727 13.9978C109.078 13.9978 109.375 13.9262 109.618 13.783C109.862 13.6397 110.075 13.45 110.258 13.2136L110.865 13.6863C110.378 14.4347 109.647 14.8088 108.673 14.8088ZM108.55 9.59888C108.149 9.59888 107.812 9.74569 107.54 10.0393C107.268 10.3293 107.099 10.7375 107.035 11.2639H109.946V11.1887C109.917 10.6838 109.781 10.2935 109.538 10.0178C109.294 9.73853 108.965 9.59888 108.55 9.59888ZM117.004 11.8601C117.004 12.7445 116.801 13.4571 116.397 13.9978C115.992 14.5385 115.444 14.8088 114.753 14.8088C114.048 14.8088 113.493 14.585 113.088 14.1375V16.9358H112.094V8.88989H113.002L113.051 9.53442C113.455 9.03312 114.017 8.78247 114.737 8.78247C115.435 8.78247 115.987 9.04565 116.391 9.57202C116.8 10.0984 117.004 10.8306 117.004 11.7688V11.8601ZM116.01 11.7473C116.01 11.092 115.87 10.5746 115.591 10.1951C115.312 9.81551 114.929 9.62573 114.442 9.62573C113.84 9.62573 113.389 9.8925 113.088 10.426V13.2029C113.385 13.7328 113.84 13.9978 114.452 13.9978C114.929 13.9978 115.306 13.8098 115.586 13.4338C115.869 13.0543 116.01 12.4921 116.01 11.7473Z" fill="#555555"/>
<rect x="13.0894" y="4.32642" width="11" height="14" fill="white" stroke="#B7C6CD"/>
<path d="M14.0894 5.32642H23.0894V17.3264H14.0894V5.32642Z" fill="url(#paint0_linear)" stroke="url(#paint1_linear)"/>
<path fill-rule="evenodd" clip-rule="evenodd" d="M18.606 7.36316H17.6801V9.1379L15.917 9.1379L15.917 10.0638H16.7985V11.813H15.0238V12.7389H15.917V14.4902H16.8429V12.7389L18.606 12.7389V14.4902H19.532V12.7389H21.2617V11.813H20.4135V10.0638H22.1548V9.1379H21.2951V7.36316H20.3692V9.1379L18.606 9.1379V7.36316ZM19.4876 10.0638L17.7245 10.0638V11.813L19.4876 11.813V10.0638Z" fill="#949EA8"/>
<rect x="12.5894" y="3.82642" width="12" height="1" fill="#A3B0B6"/>
<rect x="12.5894" y="17.8264" width="12" height="1" fill="#A3B0B6"/>
<defs>
<linearGradient id="paint0_linear" x1="23.5894" y1="4.82642" x2="13.5894" y2="17.8264" gradientUnits="userSpaceOnUse">
<stop stop-color="#E0E6E8"/>
<stop offset="0.702054" stop-color="white"/>
</linearGradient>
<linearGradient id="paint1_linear" x1="26.1502" y1="1.06464" x2="13.5894" y2="17.8264" gradientUnits="userSpaceOnUse">
<stop stop-color="#CED7DB"/>
<stop offset="0.853517" stop-color="#F0F4F6"/>
</linearGradient>
</defs>
</svg>
