<svg width="170" height="23" viewBox="0 0 170 23" fill="none" xmlns="http://www.w3.org/2000/svg">
<rect x="0.668213" y="0.826416" width="168.583" height="21" rx="1.5" fill="#F8F8F8" stroke="#DADADA"/>
<path d="M51.2393 14.7014H50.2026V7.72974H46.3462V14.7014H45.3149V6.8811H51.2393V14.7014ZM55.375 14.8088C54.5872 14.8088 53.9463 14.551 53.4521 14.0354C52.958 13.5162 52.7109 12.8233 52.7109 11.9568V11.7742C52.7109 11.1977 52.8201 10.6838 53.0386 10.2327C53.2606 9.77791 53.5685 9.42342 53.9624 9.16919C54.3599 8.91138 54.7896 8.78247 55.2515 8.78247C56.007 8.78247 56.5942 9.03133 57.0132 9.52905C57.4321 10.0268 57.6416 10.7393 57.6416 11.6667V12.0803H53.7046C53.7189 12.6532 53.8854 13.1169 54.2041 13.4714C54.5264 13.8223 54.9346 13.9978 55.4287 13.9978C55.7796 13.9978 56.0768 13.9262 56.3203 13.783C56.5638 13.6397 56.7769 13.45 56.9595 13.2136L57.5664 13.6863C57.0794 14.4347 56.349 14.8088 55.375 14.8088ZM55.2515 9.59888C54.8504 9.59888 54.5138 9.74569 54.2417 10.0393C53.9696 10.3293 53.8013 10.7375 53.7368 11.2639H56.6479V11.1887C56.6193 10.6838 56.4832 10.2935 56.2397 10.0178C55.9963 9.73853 55.6668 9.59888 55.2515 9.59888ZM63.7056 11.8601C63.7056 12.7445 63.5033 13.4571 63.0986 13.9978C62.694 14.5385 62.1462 14.8088 61.4551 14.8088C60.7497 14.8088 60.1947 14.585 59.79 14.1375V16.9358H58.7964V8.88989H59.7041L59.7524 9.53442C60.1571 9.03312 60.7192 8.78247 61.439 8.78247C62.1372 8.78247 62.6886 9.04565 63.0933 9.57202C63.5015 10.0984 63.7056 10.8306 63.7056 11.7688V11.8601ZM62.7119 11.7473C62.7119 11.092 62.5723 10.5746 62.293 10.1951C62.0137 9.81551 61.6305 9.62573 61.1436 9.62573C60.542 9.62573 60.0908 9.8925 59.79 10.426V13.2029C60.0872 13.7328 60.542 13.9978 61.1543 13.9978C61.6305 13.9978 62.0083 13.8098 62.2876 13.4338C62.5705 13.0543 62.7119 12.4921 62.7119 11.7473ZM67.3848 14.8088C66.597 14.8088 65.9561 14.551 65.4619 14.0354C64.9678 13.5162 64.7207 12.8233 64.7207 11.9568V11.7742C64.7207 11.1977 64.8299 10.6838 65.0483 10.2327C65.2703 9.77791 65.5783 9.42342 65.9722 9.16919C66.3696 8.91138 66.7993 8.78247 67.2612 8.78247C68.0168 8.78247 68.604 9.03133 69.0229 9.52905C69.4419 10.0268 69.6514 10.7393 69.6514 11.6667V12.0803H65.7144C65.7287 12.6532 65.8952 13.1169 66.2139 13.4714C66.5361 13.8223 66.9443 13.9978 67.4385 13.9978C67.7894 13.9978 68.0866 13.9262 68.3301 13.783C68.5736 13.6397 68.7866 13.45 68.9692 13.2136L69.5762 13.6863C69.0892 14.4347 68.3587 14.8088 67.3848 14.8088ZM67.2612 9.59888C66.8602 9.59888 66.5236 9.74569 66.2515 10.0393C65.9793 10.3293 65.811 10.7375 65.7466 11.2639H68.6577V11.1887C68.6291 10.6838 68.493 10.2935 68.2495 10.0178C68.006 9.73853 67.6766 9.59888 67.2612 9.59888ZM75.5542 14.7014H74.5605V12.22H71.8911V14.7014H70.8921V8.88989H71.8911V11.4089H74.5605V8.88989H75.5542V14.7014ZM80.7427 14.7014C80.6854 14.5868 80.6388 14.3827 80.603 14.0891C80.1411 14.5689 79.5897 14.8088 78.9487 14.8088C78.3758 14.8088 77.9049 14.6477 77.5361 14.3254C77.1709 13.9996 76.9883 13.5878 76.9883 13.0901C76.9883 12.4849 77.2174 12.0159 77.6758 11.6829C78.1377 11.3463 78.7858 11.178 79.6201 11.178H80.5869V10.7214C80.5869 10.3741 80.4831 10.0984 80.2754 9.89429C80.0677 9.6866 79.7616 9.58276 79.3569 9.58276C79.0024 9.58276 78.7052 9.67228 78.4653 9.85132C78.2254 10.0304 78.1055 10.247 78.1055 10.5012H77.1064C77.1064 10.2112 77.2085 9.93188 77.4126 9.66333C77.6203 9.39119 77.8996 9.17635 78.2505 9.0188C78.605 8.86125 78.9935 8.78247 79.416 8.78247C80.0856 8.78247 80.6102 8.95076 80.9897 9.28735C81.3693 9.62036 81.5662 10.0805 81.5806 10.6677V13.3425C81.5806 13.8761 81.6486 14.3004 81.7847 14.6155V14.7014H80.7427ZM79.0938 13.9441C79.4053 13.9441 79.7007 13.8635 79.98 13.7024C80.2593 13.5413 80.4616 13.3318 80.5869 13.074V11.8816H79.8081C78.5907 11.8816 77.9819 12.2379 77.9819 12.9504C77.9819 13.262 78.0858 13.5055 78.2935 13.6809C78.5011 13.8564 78.7679 13.9441 79.0938 13.9441ZM86.334 10.4797C86.334 10.2076 86.2301 9.99276 86.0225 9.83521C85.8148 9.67407 85.5301 9.59351 85.1685 9.59351C84.8175 9.59351 84.5239 9.68481 84.2876 9.86743C84.0549 10.05 83.9385 10.2649 83.9385 10.512H82.9502C82.9502 10.0071 83.1615 9.59351 83.584 9.27124C84.0065 8.94897 84.5347 8.78784 85.1685 8.78784C85.8488 8.78784 86.3787 8.93465 86.7583 9.22827C87.1379 9.51831 87.3276 9.93368 87.3276 10.4744C87.3276 10.7358 87.2489 10.9757 87.0913 11.1941C86.9338 11.4125 86.71 11.5862 86.4199 11.7151C87.0967 11.9443 87.4351 12.3954 87.4351 13.0686C87.4351 13.6021 87.2292 14.0247 86.8174 14.3362C86.4056 14.6477 85.856 14.8035 85.1685 14.8035C84.4989 14.8035 83.9456 14.6405 83.5088 14.3147C83.0755 13.9853 82.8589 13.5413 82.8589 12.9827H83.8472C83.8472 13.2655 83.9725 13.509 84.2231 13.7131C84.4774 13.9137 84.7925 14.0139 85.1685 14.0139C85.548 14.0139 85.8542 13.9262 86.0869 13.7507C86.3197 13.5753 86.436 13.3479 86.436 13.0686C86.436 12.7428 86.3376 12.51 86.1406 12.3704C85.9473 12.2271 85.6447 12.1555 85.2329 12.1555H84.2393V11.3176H85.3188C85.9956 11.2997 86.334 11.0204 86.334 10.4797ZM93.4722 14.7014H92.4785V12.22H89.8091V14.7014H88.8101V8.88989H89.8091V11.4089H92.4785V8.88989H93.4722V14.7014ZM98.6606 14.7014C98.6034 14.5868 98.5568 14.3827 98.521 14.0891C98.0591 14.5689 97.5076 14.8088 96.8667 14.8088C96.2938 14.8088 95.8229 14.6477 95.4541 14.3254C95.0889 13.9996 94.9062 13.5878 94.9062 13.0901C94.9062 12.4849 95.1354 12.0159 95.5938 11.6829C96.0557 11.3463 96.7038 11.178 97.5381 11.178H98.5049V10.7214C98.5049 10.3741 98.401 10.0984 98.1934 9.89429C97.9857 9.6866 97.6795 9.58276 97.2749 9.58276C96.9204 9.58276 96.6232 9.67228 96.3833 9.85132C96.1434 10.0304 96.0234 10.247 96.0234 10.5012H95.0244C95.0244 10.2112 95.1265 9.93188 95.3306 9.66333C95.5382 9.39119 95.8175 9.17635 96.1685 9.0188C96.5229 8.86125 96.9115 8.78247 97.334 8.78247C98.0036 8.78247 98.5282 8.95076 98.9077 9.28735C99.2873 9.62036 99.4842 10.0805 99.4985 10.6677V13.3425C99.4985 13.8761 99.5666 14.3004 99.7026 14.6155V14.7014H98.6606ZM97.0117 13.9441C97.3232 13.9441 97.6187 13.8635 97.8979 13.7024C98.1772 13.5413 98.3796 13.3318 98.5049 13.074V11.8816H97.7261C96.5086 11.8816 95.8999 12.2379 95.8999 12.9504C95.8999 13.262 96.0037 13.5055 96.2114 13.6809C96.4191 13.8564 96.6859 13.9441 97.0117 13.9441ZM105.444 14.7014H104.445V12.5959C104.008 12.7105 103.561 12.7678 103.103 12.7678C102.376 12.7678 101.821 12.5816 101.438 12.2092C101.058 11.8368 100.865 11.3069 100.857 10.6194V8.88452H101.851V10.6516C101.869 11.5181 102.286 11.9514 103.103 11.9514C103.561 11.9514 104.008 11.8941 104.445 11.7795V8.88989H105.444V14.7014ZM110.799 8.88989H111.793V14.7014H110.799V10.4636L108.119 14.7014H107.125V8.88989H108.119V13.1331L110.799 8.88989ZM117.707 9.69556H115.757V14.7014H114.763V9.69556H112.851V8.88989H117.707V9.69556ZM119.758 10.8933H121.268C121.926 10.9005 122.447 11.0723 122.831 11.4089C123.214 11.7455 123.405 12.2021 123.405 12.7786C123.405 13.3586 123.208 13.8241 122.814 14.175C122.421 14.526 121.891 14.7014 121.225 14.7014H118.765V8.88989H119.758V10.8933ZM119.758 11.7043V13.8904H121.235C121.608 13.8904 121.896 13.7955 122.1 13.6057C122.304 13.4124 122.406 13.1492 122.406 12.8162C122.406 12.4939 122.306 12.2307 122.105 12.0266C121.909 11.8189 121.631 11.7115 121.273 11.7043H119.758Z" fill="#555555"/>
</svg>
