<svg width="140" height="23" viewBox="0 0 140 23" fill="none" xmlns="http://www.w3.org/2000/svg">
<rect x="1.08472" y="0.826416" width="138" height="21" rx="1.5" fill="#F8F8F8" stroke="#DADADA"/>
<path d="M45.4167 12.22C45.3201 13.0471 45.0139 13.6863 44.4983 14.1375C43.9862 14.585 43.3041 14.8088 42.4519 14.8088C41.5281 14.8088 40.7869 14.4776 40.2283 13.8152C39.6733 13.1528 39.3958 12.2665 39.3958 11.1565V10.4045C39.3958 9.67765 39.5247 9.03849 39.7825 8.48706C40.0439 7.93563 40.4127 7.5131 40.8889 7.21948C41.3652 6.92228 41.9166 6.77368 42.5432 6.77368C43.3739 6.77368 44.04 7.00643 44.5413 7.47192C45.0426 7.93384 45.3344 8.57479 45.4167 9.39478H44.3801C44.2906 8.77173 44.0955 8.32056 43.7947 8.04126C43.4975 7.76196 43.0803 7.62231 42.5432 7.62231C41.8844 7.62231 41.3669 7.8658 40.991 8.35278C40.6186 8.83976 40.4324 9.53263 40.4324 10.4314V11.1887C40.4324 12.0374 40.6096 12.7123 40.9641 13.2136C41.3186 13.7149 41.8145 13.9656 42.4519 13.9656C43.0248 13.9656 43.4635 13.8367 43.7678 13.5789C44.0758 13.3175 44.2799 12.8645 44.3801 12.22H45.4167ZM50.0198 13.3855L51.9963 8.88989H53.2371V14.7014H52.2434V10.4744L50.3635 14.7014H49.676L47.7585 10.3831V14.7014H46.7649V8.88989H48.054L50.0198 13.3855ZM57.2493 14.8088C56.4615 14.8088 55.8206 14.551 55.3264 14.0354C54.8323 13.5162 54.5852 12.8233 54.5852 11.9568V11.7742C54.5852 11.1977 54.6944 10.6838 54.9128 10.2327C55.1348 9.77791 55.4428 9.42342 55.8367 9.16919C56.2341 8.91138 56.6638 8.78247 57.1257 8.78247C57.8813 8.78247 58.4685 9.03133 58.8875 9.52905C59.3064 10.0268 59.5159 10.7393 59.5159 11.6667V12.0803H55.5789C55.5932 12.6532 55.7597 13.1169 56.0784 13.4714C56.4006 13.8223 56.8088 13.9978 57.303 13.9978C57.6539 13.9978 57.9511 13.9262 58.1946 13.783C58.4381 13.6397 58.6511 13.45 58.8337 13.2136L59.4407 13.6863C58.9537 14.4347 58.2232 14.8088 57.2493 14.8088ZM57.1257 9.59888C56.7247 9.59888 56.3881 9.74569 56.116 10.0393C55.8438 10.3293 55.6755 10.7375 55.6111 11.2639H58.5222V11.1887C58.4936 10.6838 58.3575 10.2935 58.114 10.0178C57.8705 9.73853 57.5411 9.59888 57.1257 9.59888ZM65.4187 14.7014H64.425V12.22H61.7556V14.7014H60.7566V8.88989H61.7556V11.4089H64.425V8.88989H65.4187V14.7014ZM70.7791 8.88989H71.7727V14.7014H70.7791V10.4636L68.0989 14.7014H67.1052V8.88989H68.0989V13.1331L70.7791 8.88989ZM77.6863 9.69556H75.7366V14.7014H74.7429V9.69556H72.8308V8.88989H77.6863V9.69556ZM79.738 10.8933H81.2473C81.9062 10.9005 82.4272 11.0723 82.8103 11.4089C83.1934 11.7455 83.385 12.2021 83.385 12.7786C83.385 13.3586 83.1881 13.8241 82.7942 14.175C82.4003 14.526 81.8704 14.7014 81.2043 14.7014H78.7444V8.88989H79.738V10.8933ZM79.738 11.7043V13.8904H81.2151C81.5875 13.8904 81.8757 13.7955 82.0798 13.6057C82.2839 13.4124 82.386 13.1492 82.386 12.8162C82.386 12.4939 82.2857 12.2307 82.0852 12.0266C81.8883 11.8189 81.6108 11.7115 81.2527 11.7043H79.738ZM92.1077 14.7014H91.114V9.71167H88.4392V14.7014H87.4402V8.88989H92.1077V14.7014ZM97.2908 14.7014C97.2335 14.5868 97.1869 14.3827 97.1511 14.0891C96.6892 14.5689 96.1378 14.8088 95.4968 14.8088C94.9239 14.8088 94.453 14.6477 94.0842 14.3254C93.719 13.9996 93.5364 13.5878 93.5364 13.0901C93.5364 12.4849 93.7655 12.0159 94.2239 11.6829C94.6858 11.3463 95.3339 11.178 96.1682 11.178H97.135V10.7214C97.135 10.3741 97.0312 10.0984 96.8235 9.89429C96.6158 9.6866 96.3097 9.58276 95.905 9.58276C95.5505 9.58276 95.2533 9.67228 95.0134 9.85132C94.7735 10.0304 94.6536 10.247 94.6536 10.5012H93.6545C93.6545 10.2112 93.7566 9.93188 93.9607 9.66333C94.1684 9.39119 94.4477 9.17635 94.7986 9.0188C95.1531 8.86125 95.5416 8.78247 95.9641 8.78247C96.6337 8.78247 97.1583 8.95076 97.5378 9.28735C97.9174 9.62036 98.1143 10.0805 98.1287 10.6677V13.3425C98.1287 13.8761 98.1967 14.3004 98.3328 14.6155V14.7014H97.2908ZM95.6418 13.9441C95.9534 13.9441 96.2488 13.8635 96.5281 13.7024C96.8074 13.5413 97.0097 13.3318 97.135 13.074V11.8816H96.3562C95.1388 11.8816 94.53 12.2379 94.53 12.9504C94.53 13.262 94.6339 13.5055 94.8416 13.6809C95.0492 13.8564 95.316 13.9441 95.6418 13.9441ZM104.595 11.8601C104.595 12.7445 104.393 13.4571 103.989 13.9978C103.584 14.5385 103.036 14.8088 102.345 14.8088C101.64 14.8088 101.085 14.585 100.68 14.1375V16.9358H99.6863V8.88989H100.594L100.642 9.53442C101.047 9.03312 101.609 8.78247 102.329 8.78247C103.027 8.78247 103.579 9.04565 103.983 9.57202C104.391 10.0984 104.595 10.8306 104.595 11.7688V11.8601ZM103.602 11.7473C103.602 11.092 103.462 10.5746 103.183 10.1951C102.904 9.81551 102.52 9.62573 102.033 9.62573C101.432 9.62573 100.981 9.8925 100.68 10.426V13.2029C100.977 13.7328 101.432 13.9978 102.044 13.9978C102.52 13.9978 102.898 13.8098 103.177 13.4338C103.46 13.0543 103.602 12.4921 103.602 11.7473ZM105.6 11.7419C105.6 11.1726 105.711 10.6606 105.933 10.2058C106.158 9.75106 106.47 9.40015 106.867 9.15308C107.268 8.90601 107.725 8.78247 108.237 8.78247C109.028 8.78247 109.668 9.0564 110.155 9.60425C110.645 10.1521 110.89 10.8808 110.89 11.7903V11.8601C110.89 12.4259 110.781 12.9343 110.563 13.3855C110.348 13.8331 110.038 14.1822 109.634 14.4329C109.233 14.6835 108.771 14.8088 108.248 14.8088C107.46 14.8088 106.821 14.5349 106.33 13.9871C105.843 13.4392 105.6 12.7141 105.6 11.8118V11.7419ZM106.599 11.8601C106.599 12.5046 106.747 13.0221 107.045 13.4124C107.345 13.8027 107.747 13.9978 108.248 13.9978C108.753 13.9978 109.154 13.8009 109.451 13.407C109.748 13.0095 109.897 12.4545 109.897 11.7419C109.897 11.1046 109.745 10.5889 109.44 10.1951C109.139 9.79761 108.738 9.59888 108.237 9.59888C107.747 9.59888 107.351 9.79403 107.05 10.1843C106.749 10.5746 106.599 11.1332 106.599 11.8601ZM116.815 8.88989V14.7014H115.816V9.71167H113.839L113.721 11.887C113.656 12.886 113.488 13.6003 113.216 14.03C112.948 14.4597 112.52 14.6835 111.932 14.7014H111.535V13.8259L111.82 13.8044C112.142 13.7686 112.373 13.5824 112.512 13.2458C112.652 12.9093 112.742 12.2862 112.781 11.3767L112.888 8.88989H116.815ZM119.495 10.8933H121.004C121.663 10.9005 122.184 11.0723 122.567 11.4089C122.95 11.7455 123.142 12.2021 123.142 12.7786C123.142 13.3586 122.945 13.8241 122.551 14.175C122.157 14.526 121.627 14.7014 120.961 14.7014H118.501V8.88989H119.495V10.8933ZM119.495 11.7043V13.8904H120.972C121.344 13.8904 121.633 13.7955 121.837 13.6057C122.041 13.4124 122.143 13.1492 122.143 12.8162C122.143 12.4939 122.043 12.2307 121.842 12.0266C121.645 11.8189 121.368 11.7115 121.01 11.7043H119.495Z" fill="#555555"/>
<path fill-rule="evenodd" clip-rule="evenodd" d="M20.8121 8.00527C19.6266 9.19072 19.6266 11.1127 20.8121 12.2982C21.9975 13.4836 23.9195 13.4836 25.1049 12.2982L25.5457 11.8574L30.7793 17.091C31.0136 17.3253 31.3935 17.3253 31.6279 17.091C31.8622 16.8567 31.8622 16.4768 31.6279 16.2425L29.2993 13.9139L30.0378 13.1753L30.8578 13.9953C31.0921 14.2296 31.472 14.2296 31.7064 13.9953C31.9407 13.761 31.9407 13.3811 31.7063 13.1468L29.2179 10.6584C28.9836 10.4241 28.6037 10.4241 28.3694 10.6584C28.1351 10.8927 28.1351 11.2726 28.3694 11.507L29.1893 12.3268L28.4507 13.0654L26.3942 11.0089L26.8351 10.5681C28.0205 9.3826 28.0205 7.46061 26.8351 6.27516C25.6496 5.08972 23.7276 5.08971 22.5422 6.27516L20.8121 8.00527ZM25.5455 10.1605L25.9865 9.71953C26.7033 9.00271 26.7033 7.84051 25.9865 7.12369C25.2697 6.40687 24.1075 6.40687 23.3907 7.12369L22.9541 7.56026L23.1697 7.77583C23.404 8.01014 23.404 8.39004 23.1697 8.62435C22.9354 8.85867 22.5555 8.85867 22.3212 8.62435L22.1056 8.40879L21.6606 8.8538C20.9438 9.57062 20.9438 10.7328 21.6606 11.4496C22.3774 12.1665 23.5396 12.1665 24.2564 11.4496L24.6973 11.0087C24.4751 10.7736 24.4791 10.4028 24.7093 10.1725C24.9396 9.9423 25.3104 9.9383 25.5455 10.1605Z" fill="#555555"/>
</svg>
