<svg width="23" height="23" viewBox="0 0 23 23" fill="none" xmlns="http://www.w3.org/2000/svg">
<rect x="22.2101" y="22.9349" width="22" height="22" rx="2" transform="rotate(-180 22.2101 22.9349)" fill="white"/>
<path d="M11.3594 5.56939C11.5113 5.29271 11.9088 5.29271 12.0607 5.56939L13.6796 8.5183C13.852 8.83224 14.1555 9.0528 14.5074 9.1197L17.8122 9.7481C18.1223 9.80706 18.2451 10.1851 18.0289 10.4151L15.7246 12.866C15.4793 13.1269 15.3633 13.4838 15.4084 13.8391L15.832 17.1763C15.8718 17.4895 15.5502 17.7231 15.2647 17.5885L12.2217 16.1544C11.8977 16.0017 11.5225 16.0017 11.1985 16.1544L8.15546 17.5885C7.86995 17.7231 7.54837 17.4895 7.58812 17.1763L8.01173 13.8391C8.05682 13.4838 7.94087 13.1269 7.69555 12.866L5.39124 10.4151C5.17504 10.1851 5.29787 9.80706 5.60794 9.7481L8.91279 9.1197C9.26463 9.0528 9.5682 8.83225 9.74055 8.5183L11.3594 5.56939Z" fill="url(#paint0_linear)" stroke="#C79B63" stroke-width="0.8"/>
<defs>
<linearGradient id="paint0_linear" x1="11.7101" y1="4.09949" x2="11.7101" y2="18.4722" gradientUnits="userSpaceOnUse">
<stop stop-color="#FFF7E6"/>
<stop offset="0.5" stop-color="#F9C441"/>
<stop offset="1" stop-color="#FFE5AD"/>
</linearGradient>
</defs>
</svg>
