<svg width="165" height="23" viewBox="0 0 165 23" fill="none" xmlns="http://www.w3.org/2000/svg">
<path d="M0.501465 2.32642C0.501465 1.49799 1.17304 0.826416 2.00146 0.826416H162.001C162.83 0.826416 163.501 1.49799 163.501 2.32642V20.3264C163.501 21.1548 162.83 21.8264 162.001 21.8264H2.00146C1.17304 21.8264 0.501465 21.1548 0.501465 20.3264V2.32642Z" fill="#F8F8F8" stroke="#DADADA"/>
<path d="M19.7314 14.7014H18.6948V7.72974H14.8384V14.7014H13.8071V6.8811H19.7314V14.7014ZM26.3647 11.8601C26.3647 12.7445 26.1624 13.4571 25.7578 13.9978C25.3532 14.5385 24.8053 14.8088 24.1143 14.8088C23.4089 14.8088 22.8538 14.585 22.4492 14.1375V16.9358H21.4556V8.88989H22.3633L22.4116 9.53442C22.8162 9.03312 23.3784 8.78247 24.0981 8.78247C24.7964 8.78247 25.3478 9.04565 25.7524 9.57202C26.1606 10.0984 26.3647 10.8306 26.3647 11.7688V11.8601ZM25.3711 11.7473C25.3711 11.092 25.2314 10.5746 24.9521 10.1951C24.6729 9.81551 24.2897 9.62573 23.8027 9.62573C23.2012 9.62573 22.75 9.8925 22.4492 10.426V13.2029C22.7464 13.7328 23.2012 13.9978 23.8135 13.9978C24.2897 13.9978 24.6675 13.8098 24.9468 13.4338C25.2297 13.0543 25.3711 12.4921 25.3711 11.7473ZM30.0439 14.8088C29.2562 14.8088 28.6152 14.551 28.1211 14.0354C27.627 13.5162 27.3799 12.8233 27.3799 11.9568V11.7742C27.3799 11.1977 27.4891 10.6838 27.7075 10.2327C27.9295 9.77791 28.2375 9.42342 28.6313 9.16919C29.0288 8.91138 29.4585 8.78247 29.9204 8.78247C30.6759 8.78247 31.2632 9.03133 31.6821 9.52905C32.1011 10.0268 32.3105 10.7393 32.3105 11.6667V12.0803H28.3735C28.3879 12.6532 28.5544 13.1169 28.873 13.4714C29.1953 13.8223 29.6035 13.9978 30.0977 13.9978C30.4486 13.9978 30.7458 13.9262 30.9893 13.783C31.2327 13.6397 31.4458 13.45 31.6284 13.2136L32.2354 13.6863C31.7484 14.4347 31.0179 14.8088 30.0439 14.8088ZM29.9204 9.59888C29.5194 9.59888 29.1828 9.74569 28.9106 10.0393C28.6385 10.3293 28.4702 10.7375 28.4058 11.2639H31.3169V11.1887C31.2882 10.6838 31.1522 10.2935 30.9087 10.0178C30.6652 9.73853 30.3358 9.59888 29.9204 9.59888ZM35.2754 12.2253H34.5503V14.7014H33.5513V8.88989H34.5503V11.3499H35.2002L37.1553 8.88989H38.3584L36.0596 11.6829L38.5518 14.7014H37.2896L35.2754 12.2253ZM44.3149 11.8601C44.3149 12.7445 44.1126 13.4571 43.708 13.9978C43.3034 14.5385 42.7555 14.8088 42.0645 14.8088C41.359 14.8088 40.804 14.585 40.3994 14.1375V16.9358H39.4058V8.88989H40.3135L40.3618 9.53442C40.7664 9.03312 41.3286 8.78247 42.0483 8.78247C42.7466 8.78247 43.298 9.04565 43.7026 9.57202C44.1108 10.0984 44.3149 10.8306 44.3149 11.7688V11.8601ZM43.3213 11.7473C43.3213 11.092 43.1816 10.5746 42.9023 10.1951C42.623 9.81551 42.2399 9.62573 41.7529 9.62573C41.1514 9.62573 40.7002 9.8925 40.3994 10.426V13.2029C40.6966 13.7328 41.1514 13.9978 41.7637 13.9978C42.2399 13.9978 42.6177 13.8098 42.897 13.4338C43.1799 13.0543 43.3213 12.4921 43.3213 11.7473ZM49.1704 14.7014C49.1131 14.5868 49.0666 14.3827 49.0308 14.0891C48.5688 14.5689 48.0174 14.8088 47.3765 14.8088C46.8035 14.8088 46.3327 14.6477 45.9639 14.3254C45.5986 13.9996 45.416 13.5878 45.416 13.0901C45.416 12.4849 45.6452 12.0159 46.1035 11.6829C46.5654 11.3463 47.2135 11.178 48.0479 11.178H49.0146V10.7214C49.0146 10.3741 48.9108 10.0984 48.7031 9.89429C48.4954 9.6866 48.1893 9.58276 47.7847 9.58276C47.4302 9.58276 47.133 9.67228 46.8931 9.85132C46.6532 10.0304 46.5332 10.247 46.5332 10.5012H45.5342C45.5342 10.2112 45.6362 9.93188 45.8403 9.66333C46.048 9.39119 46.3273 9.17635 46.6782 9.0188C47.0327 8.86125 47.4212 8.78247 47.8438 8.78247C48.5133 8.78247 49.0379 8.95076 49.4175 9.28735C49.797 9.62036 49.994 10.0805 50.0083 10.6677V13.3425C50.0083 13.8761 50.0763 14.3004 50.2124 14.6155V14.7014H49.1704ZM47.5215 13.9441C47.833 13.9441 48.1284 13.8635 48.4077 13.7024C48.687 13.5413 48.8893 13.3318 49.0146 13.074V11.8816H48.2358C47.0184 11.8816 46.4097 12.2379 46.4097 12.9504C46.4097 13.262 46.5135 13.5055 46.7212 13.6809C46.9289 13.8564 47.1956 13.9441 47.5215 13.9441ZM55.7983 9.69556H53.8486V14.7014H52.855V9.69556H50.9429V8.88989H55.7983V9.69556ZM60.5249 8.88989H61.5186V14.7014H60.5249V10.4636L57.8447 14.7014H56.8511V8.88989H57.8447V13.1331L60.5249 8.88989ZM67.4321 9.69556H65.4824V14.7014H64.4888V9.69556H62.5767V8.88989H67.4321V9.69556ZM69.4839 10.8933H70.9932C71.652 10.9005 72.173 11.0723 72.5562 11.4089C72.9393 11.7455 73.1309 12.2021 73.1309 12.7786C73.1309 13.3586 72.9339 13.8241 72.54 14.175C72.1462 14.526 71.6162 14.7014 70.9502 14.7014H68.4902V8.88989H69.4839V10.8933ZM69.4839 11.7043V13.8904H70.9609C71.3333 13.8904 71.6216 13.7955 71.8257 13.6057C72.0298 13.4124 72.1318 13.1492 72.1318 12.8162C72.1318 12.4939 72.0316 12.2307 71.8311 12.0266C71.6341 11.8189 71.3566 11.7115 70.9985 11.7043H69.4839ZM81.8481 14.7014H80.8545V12.22H78.1851V14.7014H77.186V8.88989H78.1851V11.4089H80.8545V8.88989H81.8481V14.7014ZM87.0366 14.7014C86.9793 14.5868 86.9328 14.3827 86.897 14.0891C86.4351 14.5689 85.8836 14.8088 85.2427 14.8088C84.6698 14.8088 84.1989 14.6477 83.8301 14.3254C83.4648 13.9996 83.2822 13.5878 83.2822 13.0901C83.2822 12.4849 83.5114 12.0159 83.9697 11.6829C84.4316 11.3463 85.0798 11.178 85.9141 11.178H86.8809V10.7214C86.8809 10.3741 86.777 10.0984 86.5693 9.89429C86.3617 9.6866 86.0555 9.58276 85.6509 9.58276C85.2964 9.58276 84.9992 9.67228 84.7593 9.85132C84.5194 10.0304 84.3994 10.247 84.3994 10.5012H83.4004C83.4004 10.2112 83.5024 9.93188 83.7065 9.66333C83.9142 9.39119 84.1935 9.17635 84.5444 9.0188C84.8989 8.86125 85.2874 8.78247 85.71 8.78247C86.3796 8.78247 86.9041 8.95076 87.2837 9.28735C87.6632 9.62036 87.8602 10.0805 87.8745 10.6677V13.3425C87.8745 13.8761 87.9425 14.3004 88.0786 14.6155V14.7014H87.0366ZM85.3877 13.9441C85.6992 13.9441 85.9946 13.8635 86.2739 13.7024C86.5532 13.5413 86.7555 13.3318 86.8809 13.074V11.8816H86.1021C84.8846 11.8816 84.2759 12.2379 84.2759 12.9504C84.2759 13.262 84.3797 13.5055 84.5874 13.6809C84.7951 13.8564 85.0618 13.9441 85.3877 13.9441ZM91.9834 9.2229C92.7139 9.2229 93.2975 9.46818 93.7344 9.95874C94.1748 10.4457 94.395 11.0885 94.395 11.887V11.9783C94.395 12.5261 94.2894 13.0167 94.0781 13.45C93.8669 13.8796 93.5625 14.2144 93.165 14.4543C92.7712 14.6907 92.3164 14.8088 91.8008 14.8088C91.0202 14.8088 90.3918 14.5492 89.9155 14.03C89.4393 13.5072 89.2012 12.8072 89.2012 11.9299V11.4465C89.2012 10.2255 89.4268 9.25513 89.8779 8.5354C90.3327 7.81567 91.0023 7.37703 91.8867 7.21948C92.388 7.12996 92.7264 7.02075 92.9019 6.89185C93.0773 6.76294 93.165 6.58569 93.165 6.36011H93.9814C93.9814 6.8077 93.8794 7.15682 93.6753 7.40747C93.4748 7.65812 93.1525 7.83537 92.7085 7.93921L91.9673 8.10571C91.3765 8.24536 90.9325 8.48169 90.6353 8.8147C90.3416 9.14412 90.1501 9.58455 90.0605 10.136C90.5869 9.52726 91.2279 9.2229 91.9834 9.2229ZM91.79 10.0393C91.3031 10.0393 90.9163 10.204 90.6299 10.5334C90.3434 10.8593 90.2002 11.3123 90.2002 11.8923V11.9783C90.2002 12.6013 90.3434 13.0955 90.6299 13.4607C90.9199 13.8223 91.3102 14.0032 91.8008 14.0032C92.2949 14.0032 92.6852 13.8206 92.9717 13.4553C93.2581 13.0901 93.4014 12.5566 93.4014 11.8547C93.4014 11.3069 93.2563 10.8682 92.9663 10.5388C92.6799 10.2058 92.2878 10.0393 91.79 10.0393ZM100.276 8.88989V14.7014H99.2773V9.71167H97.3008L97.1826 11.887C97.1182 12.886 96.9499 13.6003 96.6777 14.03C96.4092 14.4597 95.9813 14.6835 95.394 14.7014H94.9966V13.8259L95.2812 13.8044C95.6035 13.7686 95.8345 13.5824 95.9741 13.2458C96.1138 12.9093 96.2033 12.2862 96.2427 11.3767L96.3501 8.88989H100.276ZM102.957 11.3552H104.353C104.428 10.5818 104.702 9.96053 105.175 9.49146C105.651 9.0188 106.251 8.78247 106.974 8.78247C107.733 8.78247 108.354 9.03849 108.838 9.55054C109.321 10.0626 109.583 10.7286 109.622 11.5486L109.627 11.8601C109.627 12.4259 109.516 12.9361 109.294 13.3909C109.072 13.8456 108.761 14.1965 108.36 14.4436C107.959 14.6871 107.5 14.8088 106.985 14.8088C106.236 14.8088 105.624 14.5653 105.148 14.0784C104.672 13.5878 104.405 12.9522 104.348 12.1716H102.957V14.7014H101.963V8.88989H102.957V11.3552ZM105.331 11.8601C105.331 12.5046 105.479 13.0221 105.776 13.4124C106.077 13.8027 106.48 13.9978 106.985 13.9978C107.49 13.9978 107.889 13.7991 108.183 13.4016C108.48 13.0042 108.628 12.4509 108.628 11.7419C108.628 11.1082 108.478 10.5925 108.177 10.1951C107.876 9.79761 107.475 9.59888 106.974 9.59888C106.48 9.59888 106.083 9.79403 105.782 10.1843C105.481 10.5746 105.331 11.1332 105.331 11.8601ZM110.707 13.8904L111.051 13.4661C111.438 12.9648 111.658 12.2128 111.711 11.2102L111.803 8.88989H115.546V13.8904H116.293V16.4094H115.299V14.7014H111.244V16.4094H110.25L110.256 13.8904H110.707ZM111.883 13.8904H114.553V9.80835H112.764L112.705 11.1941C112.644 12.3507 112.37 13.2494 111.883 13.8904ZM119.806 14.8088C119.018 14.8088 118.377 14.551 117.883 14.0354C117.389 13.5162 117.142 12.8233 117.142 11.9568V11.7742C117.142 11.1977 117.251 10.6838 117.469 10.2327C117.691 9.77791 117.999 9.42342 118.393 9.16919C118.791 8.91138 119.22 8.78247 119.682 8.78247C120.438 8.78247 121.025 9.03133 121.444 9.52905C121.863 10.0268 122.072 10.7393 122.072 11.6667V12.0803H118.135C118.15 12.6532 118.316 13.1169 118.635 13.4714C118.957 13.8223 119.365 13.9978 119.859 13.9978C120.21 13.9978 120.507 13.9262 120.751 13.783C120.994 13.6397 121.208 13.45 121.39 13.2136L121.997 13.6863C121.51 14.4347 120.78 14.8088 119.806 14.8088ZM119.682 9.59888C119.281 9.59888 118.944 9.74569 118.672 10.0393C118.4 10.3293 118.232 10.7375 118.167 11.2639H121.079V11.1887C121.05 10.6838 120.914 10.2935 120.67 10.0178C120.427 9.73853 120.097 9.59888 119.682 9.59888ZM127.975 14.7014H126.981V12.22H124.312V14.7014H123.313V8.88989H124.312V11.4089H126.981V8.88989H127.975V14.7014ZM133.335 8.88989H134.329V14.7014H133.335V10.4636L130.655 14.7014H129.662V8.88989H130.655V13.1331L133.335 8.88989ZM138.336 14.8088C137.548 14.8088 136.907 14.551 136.413 14.0354C135.919 13.5162 135.672 12.8233 135.672 11.9568V11.7742C135.672 11.1977 135.781 10.6838 136 10.2327C136.222 9.77791 136.529 9.42342 136.923 9.16919C137.321 8.91138 137.75 8.78247 138.212 8.78247C138.968 8.78247 139.555 9.03133 139.974 9.52905C140.393 10.0268 140.603 10.7393 140.603 11.6667V12.0803H136.666C136.68 12.6532 136.846 13.1169 137.165 13.4714C137.487 13.8223 137.896 13.9978 138.39 13.9978C138.741 13.9978 139.038 13.9262 139.281 13.783C139.525 13.6397 139.738 13.45 139.92 13.2136L140.527 13.6863C140.04 14.4347 139.31 14.8088 138.336 14.8088ZM138.212 9.59888C137.811 9.59888 137.475 9.74569 137.203 10.0393C136.931 10.3293 136.762 10.7375 136.698 11.2639H139.609V11.1887C139.58 10.6838 139.444 10.2935 139.201 10.0178C138.957 9.73853 138.628 9.59888 138.212 9.59888Z" fill="#555555"/>
<path d="M151.997 10.3304H146.005L149.001 13.3204L151.997 10.3304Z" fill="#555555"/>
</svg>
