<svg width="170" height="23" viewBox="0 0 170 23" fill="none" xmlns="http://www.w3.org/2000/svg">
<rect x="0.501465" y="0.826416" width="168.583" height="21" rx="1.5" fill="#F8F8F8" stroke="#DADADA"/>
<path d="M73.7511 14.7014H72.7145V7.72974H68.858V14.7014H67.8268V6.8811H73.7511V14.7014ZM77.8868 14.8088C77.0991 14.8088 76.4581 14.551 75.964 14.0354C75.4698 13.5162 75.2228 12.8233 75.2228 11.9568V11.7742C75.2228 11.1977 75.332 10.6838 75.5504 10.2327C75.7724 9.77791 76.0804 9.42342 76.4742 9.16919C76.8717 8.91138 77.3014 8.78247 77.7633 8.78247C78.5188 8.78247 79.1061 9.03133 79.525 9.52905C79.944 10.0268 80.1534 10.7393 80.1534 11.6667V12.0803H76.2164C76.2308 12.6532 76.3973 13.1169 76.7159 13.4714C77.0382 13.8223 77.4464 13.9978 77.9406 13.9978C78.2915 13.9978 78.5887 13.9262 78.8322 13.783C79.0756 13.6397 79.2887 13.45 79.4713 13.2136L80.0782 13.6863C79.5913 14.4347 78.8608 14.8088 77.8868 14.8088ZM77.7633 9.59888C77.3623 9.59888 77.0257 9.74569 76.7535 10.0393C76.4814 10.3293 76.3131 10.7375 76.2487 11.2639H79.1598V11.1887C79.1311 10.6838 78.9951 10.2935 78.7516 10.0178C78.5081 9.73853 78.1787 9.59888 77.7633 9.59888ZM85.6964 14.7014H84.6974V12.5959C84.2605 12.7105 83.8129 12.7678 83.3546 12.7678C82.6277 12.7678 82.0727 12.5816 81.6896 12.2092C81.31 11.8368 81.1167 11.3069 81.1095 10.6194V8.88452H82.1031V10.6516C82.1211 11.5181 82.5382 11.9514 83.3546 11.9514C83.8129 11.9514 84.2605 11.8941 84.6974 11.7795V8.88989H85.6964V14.7014ZM90.8795 14.7014C90.8222 14.5868 90.7757 14.3827 90.7399 14.0891C90.278 14.5689 89.7265 14.8088 89.0856 14.8088C88.5127 14.8088 88.0418 14.6477 87.673 14.3254C87.3077 13.9996 87.1251 13.5878 87.1251 13.0901C87.1251 12.4849 87.3543 12.0159 87.8126 11.6829C88.2745 11.3463 88.9226 11.178 89.757 11.178H90.7238V10.7214C90.7238 10.3741 90.6199 10.0984 90.4122 9.89429C90.2045 9.6866 89.8984 9.58276 89.4938 9.58276C89.1393 9.58276 88.8421 9.67228 88.6022 9.85132C88.3623 10.0304 88.2423 10.247 88.2423 10.5012H87.2433C87.2433 10.2112 87.3453 9.93188 87.5494 9.66333C87.7571 9.39119 88.0364 9.17635 88.3873 9.0188C88.7418 8.86125 89.1303 8.78247 89.5529 8.78247C90.2225 8.78247 90.747 8.95076 91.1266 9.28735C91.5061 9.62036 91.7031 10.0805 91.7174 10.6677V13.3425C91.7174 13.8761 91.7854 14.3004 91.9215 14.6155V14.7014H90.8795ZM89.2306 13.9441C89.5421 13.9441 89.8375 13.8635 90.1168 13.7024C90.3961 13.5413 90.5984 13.3318 90.7238 13.074V11.8816H89.9449C88.7275 11.8816 88.1188 12.2379 88.1188 12.9504C88.1188 13.262 88.2226 13.5055 88.4303 13.6809C88.638 13.8564 88.9047 13.9441 89.2306 13.9441ZM97.5074 9.69556H95.5577V14.7014H94.5641V9.69556H92.652V8.88989H97.5074V9.69556ZM99.5592 10.8933H101.068C101.727 10.9005 102.248 11.0723 102.631 11.4089C103.015 11.7455 103.206 12.2021 103.206 12.7786C103.206 13.3586 103.009 13.8241 102.615 14.175C102.221 14.526 101.692 14.7014 101.026 14.7014H98.5656V8.88989H99.5592V10.8933ZM99.5592 11.7043V13.8904H101.036C101.409 13.8904 101.697 13.7955 101.901 13.6057C102.105 13.4124 102.207 13.1492 102.207 12.8162C102.207 12.4939 102.107 12.2307 101.906 12.0266C101.709 11.8189 101.432 11.7115 101.074 11.7043H99.5592Z" fill="#555555"/>
<path fill-rule="evenodd" clip-rule="evenodd" d="M51.924 5.82642H51.8993V9.81342H50.8993C50.347 9.81342 49.8993 10.2611 49.8993 10.8134V14.8134H51.8993V16.8264H52.8993V16.8134H58.924V16.8264H59.924V16.8134V15.8134V14.8134H61.8993V10.8134C61.8993 10.2611 61.4516 9.81342 60.8993 9.81342H59.924V7.82642L57.924 5.82642H52.8993H51.924ZM52.8993 6.82642V10.8134H58.924V8.82642H56.924V6.82642H52.8993ZM59.924 11.8134H60.8993V10.8134H59.924V11.8134ZM58.924 13.8134H52.8993V15.8134H58.924V13.8134Z" fill="#555555"/>
<path d="M119.687 10.3304H113.695L116.691 13.3204L119.687 10.3304Z" fill="#555555"/>
</svg>
