<svg width="103" height="22" viewBox="0 0 103 22" fill="none" xmlns="http://www.w3.org/2000/svg">
<rect x="0.418091" width="102" height="22" rx="2" fill="#3F7ABE"/>
<path d="M17.9571 14.375H16.9205V7.40332H13.064V14.375H12.0328V6.55469H17.9571V14.375ZM22.0928 14.4824C21.3051 14.4824 20.6641 14.2246 20.17 13.709C19.6758 13.1898 19.4288 12.4969 19.4288 11.6304V11.4478C19.4288 10.8713 19.538 10.3574 19.7564 9.90625C19.9784 9.4515 20.2864 9.09701 20.6802 8.84277C21.0777 8.58496 21.5074 8.45605 21.9693 8.45605C22.7248 8.45605 23.3121 8.70492 23.731 9.20264C24.15 9.70036 24.3594 10.4129 24.3594 11.3403V11.7539H20.4224C20.4367 12.3268 20.6033 12.7905 20.9219 13.145C21.2442 13.4959 21.6524 13.6714 22.1465 13.6714C22.4975 13.6714 22.7947 13.5998 23.0381 13.4565C23.2816 13.3133 23.4947 13.1235 23.6773 12.8872L24.2842 13.3599C23.7973 14.1082 23.0668 14.4824 22.0928 14.4824ZM21.9693 9.27246C21.5683 9.27246 21.2317 9.41927 20.9595 9.71289C20.6874 10.0029 20.5191 10.4111 20.4547 10.9375H23.3658V10.8623C23.3371 10.3574 23.2011 9.96712 22.9576 9.69141C22.7141 9.41211 22.3847 9.27246 21.9693 9.27246ZM29.9024 14.375H28.9034V12.2695C28.4665 12.3841 28.0189 12.4414 27.5606 12.4414C26.8337 12.4414 26.2787 12.2552 25.8956 11.8828C25.516 11.5104 25.3227 10.9805 25.3155 10.293V8.55811H26.3091V10.3252C26.327 11.1917 26.7442 11.625 27.5606 11.625C28.0189 11.625 28.4665 11.5677 28.9034 11.4531V8.56348H29.9024V14.375ZM35.0855 14.375C35.0282 14.2604 34.9817 14.0563 34.9459 13.7627C34.4839 14.2425 33.9325 14.4824 33.2916 14.4824C32.7186 14.4824 32.2478 14.3213 31.879 13.999C31.5137 13.6732 31.3311 13.2614 31.3311 12.7637C31.3311 12.1585 31.5603 11.6895 32.0186 11.3564C32.4805 11.0199 33.1286 10.8516 33.963 10.8516H34.9297V10.395C34.9297 10.0477 34.8259 9.77197 34.6182 9.56787C34.4105 9.36019 34.1044 9.25635 33.6998 9.25635C33.3453 9.25635 33.0481 9.34587 32.8082 9.5249C32.5683 9.70394 32.4483 9.92057 32.4483 10.1748H31.4493C31.4493 9.88477 31.5513 9.60547 31.7554 9.33691C31.9631 9.06478 32.2424 8.84993 32.5933 8.69238C32.9478 8.53483 33.3363 8.45605 33.7589 8.45605C34.4284 8.45605 34.953 8.62435 35.3326 8.96094C35.7121 9.29395 35.9091 9.75407 35.9234 10.3413V13.0161C35.9234 13.5496 35.9914 13.974 36.1275 14.2891V14.375H35.0855ZM33.4366 13.6177C33.7481 13.6177 34.0435 13.5371 34.3228 13.376C34.6021 13.2148 34.8044 13.0054 34.9297 12.7476V11.5552H34.1509C32.9335 11.5552 32.3248 11.9115 32.3248 12.624C32.3248 12.9355 32.4286 13.179 32.6363 13.3545C32.844 13.5299 33.1107 13.6177 33.4366 13.6177ZM41.7134 9.36914H39.7637V14.375H38.7701V9.36914H36.858V8.56348H41.7134V9.36914ZM46.1822 14.375C46.1249 14.2604 46.0783 14.0563 46.0425 13.7627C45.5806 14.2425 45.0292 14.4824 44.3882 14.4824C43.8153 14.4824 43.3445 14.3213 42.9756 13.999C42.6104 13.6732 42.4278 13.2614 42.4278 12.7637C42.4278 12.1585 42.657 11.6895 43.1153 11.3564C43.5772 11.0199 44.2253 10.8516 45.0596 10.8516H46.0264V10.395C46.0264 10.0477 45.9226 9.77197 45.7149 9.56787C45.5072 9.36019 45.2011 9.25635 44.7964 9.25635C44.442 9.25635 44.1448 9.34587 43.9048 9.5249C43.6649 9.70394 43.545 9.92057 43.545 10.1748H42.546C42.546 9.88477 42.648 9.60547 42.8521 9.33691C43.0598 9.06478 43.3391 8.84993 43.69 8.69238C44.0445 8.53483 44.433 8.45605 44.8555 8.45605C45.5251 8.45605 46.0497 8.62435 46.4293 8.96094C46.8088 9.29395 47.0058 9.75407 47.0201 10.3413V13.0161C47.0201 13.5496 47.0881 13.974 47.2242 14.2891V14.375H46.1822ZM44.5333 13.6177C44.8448 13.6177 45.1402 13.5371 45.4195 13.376C45.6988 13.2148 45.9011 13.0054 46.0264 12.7476V11.5552H45.2476C44.0302 11.5552 43.4214 11.9115 43.4214 12.624C43.4214 12.9355 43.5253 13.179 43.733 13.3545C43.9407 13.5299 44.2074 13.6177 44.5333 13.6177ZM52.8101 9.36914H50.8604V14.375H49.8668V9.36914H47.9547V8.56348H52.8101V9.36914ZM54.8619 10.5669H56.3712C57.03 10.5741 57.551 10.7459 57.9341 11.0825C58.3173 11.4191 58.5089 11.8757 58.5089 12.4521C58.5089 13.0322 58.3119 13.4977 57.918 13.8486C57.5241 14.1995 56.9942 14.375 56.3282 14.375H53.8682V8.56348H54.8619V10.5669ZM54.8619 11.3779V13.564H56.3389C56.7113 13.564 56.9996 13.4691 57.2037 13.2793C57.4078 13.0859 57.5098 12.8228 57.5098 12.4897C57.5098 12.1675 57.4096 11.9043 57.209 11.7002C57.0121 11.4925 56.7346 11.3851 56.3765 11.3779H54.8619ZM62.2149 11.4155C62.2149 10.8462 62.3259 10.3341 62.5479 9.87939C62.7735 9.42464 63.085 9.07373 63.4825 8.82666C63.8835 8.57959 64.3401 8.45605 64.8521 8.45605C65.6435 8.45605 66.2826 8.72998 66.7696 9.27783C67.2602 9.82568 67.5054 10.5544 67.5054 11.4639V11.5337C67.5054 12.0994 67.3962 12.6079 67.1778 13.0591C66.963 13.5067 66.6532 13.8558 66.2486 14.1064C65.8476 14.3571 65.3856 14.4824 64.8629 14.4824C64.0751 14.4824 63.4359 14.2085 62.9454 13.6606C62.4584 13.1128 62.2149 12.3877 62.2149 11.4854V11.4155ZM63.2139 11.5337C63.2139 12.1782 63.3625 12.6956 63.6597 13.0859C63.9605 13.4762 64.3616 13.6714 64.8629 13.6714C65.3677 13.6714 65.7688 13.4744 66.066 13.0806C66.3632 12.6831 66.5118 12.1281 66.5118 11.4155C66.5118 10.7782 66.3596 10.2625 66.0552 9.86865C65.7545 9.47119 65.3534 9.27246 64.8521 9.27246C64.3616 9.27246 63.9659 9.46761 63.6651 9.85791C63.3643 10.2482 63.2139 10.8068 63.2139 11.5337ZM72.9517 9.36914H71.002V14.375H70.0084V9.36914H68.0963V8.56348H72.9517V9.36914ZM78.3067 14.375H77.3077V12.2695C76.8708 12.3841 76.4232 12.4414 75.9649 12.4414C75.238 12.4414 74.683 12.2552 74.2999 11.8828C73.9203 11.5104 73.7269 10.9805 73.7198 10.293V8.55811H74.7134V10.3252C74.7313 11.1917 75.1485 11.625 75.9649 11.625C76.4232 11.625 76.8708 11.5677 77.3077 11.4531V8.56348H78.3067V14.375ZM82.3135 14.4824C81.5258 14.4824 80.8848 14.2246 80.3907 13.709C79.8965 13.1898 79.6495 12.4969 79.6495 11.6304V11.4478C79.6495 10.8713 79.7587 10.3574 79.9771 9.90625C80.1991 9.4515 80.5071 9.09701 80.9009 8.84277C81.2984 8.58496 81.7281 8.45605 82.19 8.45605C82.9455 8.45605 83.5328 8.70492 83.9517 9.20264C84.3707 9.70036 84.5801 10.4129 84.5801 11.3403V11.7539H80.6431C80.6575 12.3268 80.824 12.7905 81.1426 13.145C81.4649 13.4959 81.8731 13.6714 82.3672 13.6714C82.7182 13.6714 83.0154 13.5998 83.2589 13.4565C83.5023 13.3133 83.7154 13.1235 83.898 12.8872L84.5049 13.3599C84.018 14.1082 83.2875 14.4824 82.3135 14.4824ZM82.19 9.27246C81.789 9.27246 81.4524 9.41927 81.1802 9.71289C80.9081 10.0029 80.7398 10.4111 80.6754 10.9375H83.5865V10.8623C83.5578 10.3574 83.4218 9.96712 83.1783 9.69141C82.9348 9.41211 82.6054 9.27246 82.19 9.27246ZM89.9888 9.36914H88.0391V14.375H87.0455V9.36914H85.1334V8.56348H89.9888V9.36914Z" fill="white"/>
</svg>
