<svg width="19" height="23" viewBox="0 0 19 23" fill="none" xmlns="http://www.w3.org/2000/svg">
<rect x="0.210083" y="0.934937" width="18" height="22" rx="2" fill="white"/>
<path fill-rule="evenodd" clip-rule="evenodd" d="M9.21008 16.9349C11.9715 16.9349 14.2101 14.6964 14.2101 11.9349C14.2101 9.17351 11.9715 6.93494 9.21008 6.93494C6.44865 6.93494 4.21008 9.17351 4.21008 11.9349C4.21008 14.6964 6.44865 16.9349 9.21008 16.9349ZM9.21008 18.9349C13.0761 18.9349 16.2101 15.8009 16.2101 11.9349C16.2101 8.06894 13.0761 4.93494 9.21008 4.93494C5.34409 4.93494 2.21008 8.06894 2.21008 11.9349C2.21008 15.8009 5.34409 18.9349 9.21008 18.9349ZM8.9776 8.50352H10.4776V11.8986V13.3986H8.9776H6.58252V11.8986H8.9776V8.50352Z" fill="#A3A3A3"/>
</svg>
