<svg width="171" height="23" viewBox="0 0 171 23" fill="none" xmlns="http://www.w3.org/2000/svg">
<rect x="1.24908" y="0.826416" width="168.583" height="21" rx="1.5" fill="#F8F8F8" stroke="#DADADA"/>
<path d="M51.8744 14.7014H50.8378V7.72974H46.9813V14.7014H45.9501V6.8811H51.8744V14.7014ZM56.0101 14.8088C55.2224 14.8088 54.5814 14.551 54.0873 14.0354C53.5931 13.5162 53.3461 12.8233 53.3461 11.9568V11.7742C53.3461 11.1977 53.4553 10.6838 53.6737 10.2327C53.8957 9.77791 54.2036 9.42342 54.5975 9.16919C54.995 8.91138 55.4247 8.78247 55.8866 8.78247C56.6421 8.78247 57.2294 9.03133 57.6483 9.52905C58.0673 10.0268 58.2767 10.7393 58.2767 11.6667V12.0803H54.3397C54.354 12.6532 54.5205 13.1169 54.8392 13.4714C55.1615 13.8223 55.5697 13.9978 56.0638 13.9978C56.4147 13.9978 56.7119 13.9262 56.9554 13.783C57.1989 13.6397 57.412 13.45 57.5946 13.2136L58.2015 13.6863C57.7146 14.4347 56.9841 14.8088 56.0101 14.8088ZM55.8866 9.59888C55.4855 9.59888 55.149 9.74569 54.8768 10.0393C54.6047 10.3293 54.4364 10.7375 54.3719 11.2639H57.2831V11.1887C57.2544 10.6838 57.1184 10.2935 56.8749 10.0178C56.6314 9.73853 56.302 9.59888 55.8866 9.59888ZM64.3407 11.8601C64.3407 12.7445 64.1384 13.4571 63.7338 13.9978C63.3291 14.5385 62.7813 14.8088 62.0902 14.8088C61.3848 14.8088 60.8298 14.585 60.4252 14.1375V16.9358H59.4315V8.88989H60.3392L60.3876 9.53442C60.7922 9.03312 61.3544 8.78247 62.0741 8.78247C62.7723 8.78247 63.3238 9.04565 63.7284 9.57202C64.1366 10.0984 64.3407 10.8306 64.3407 11.7688V11.8601ZM63.347 11.7473C63.347 11.092 63.2074 10.5746 62.9281 10.1951C62.6488 9.81551 62.2657 9.62573 61.7787 9.62573C61.1771 9.62573 60.7259 9.8925 60.4252 10.426V13.2029C60.7224 13.7328 61.1771 13.9978 61.7894 13.9978C62.2657 13.9978 62.6434 13.8098 62.9227 13.4338C63.2056 13.0543 63.347 12.4921 63.347 11.7473ZM68.0199 14.8088C67.2321 14.8088 66.5912 14.551 66.097 14.0354C65.6029 13.5162 65.3558 12.8233 65.3558 11.9568V11.7742C65.3558 11.1977 65.465 10.6838 65.6835 10.2327C65.9055 9.77791 66.2134 9.42342 66.6073 9.16919C67.0048 8.91138 67.4344 8.78247 67.8964 8.78247C68.6519 8.78247 69.2391 9.03133 69.6581 9.52905C70.077 10.0268 70.2865 10.7393 70.2865 11.6667V12.0803H66.3495C66.3638 12.6532 66.5303 13.1169 66.849 13.4714C67.1713 13.8223 67.5795 13.9978 68.0736 13.9978C68.4245 13.9978 68.7217 13.9262 68.9652 13.783C69.2087 13.6397 69.4217 13.45 69.6044 13.2136L70.2113 13.6863C69.7243 14.4347 68.9938 14.8088 68.0199 14.8088ZM67.8964 9.59888C67.4953 9.59888 67.1587 9.74569 66.8866 10.0393C66.6145 10.3293 66.4462 10.7375 66.3817 11.2639H69.2928V11.1887C69.2642 10.6838 69.1281 10.2935 68.8846 10.0178C68.6411 9.73853 68.3117 9.59888 67.8964 9.59888ZM76.1893 14.7014H75.1957V12.22H72.5262V14.7014H71.5272V8.88989H72.5262V11.4089H75.1957V8.88989H76.1893V14.7014ZM81.3778 14.7014C81.3205 14.5868 81.274 14.3827 81.2382 14.0891C80.7762 14.5689 80.2248 14.8088 79.5839 14.8088C79.0109 14.8088 78.5401 14.6477 78.1713 14.3254C77.806 13.9996 77.6234 13.5878 77.6234 13.0901C77.6234 12.4849 77.8526 12.0159 78.3109 11.6829C78.7728 11.3463 79.4209 11.178 80.2552 11.178H81.222V10.7214C81.222 10.3741 81.1182 10.0984 80.9105 9.89429C80.7028 9.6866 80.3967 9.58276 79.9921 9.58276C79.6376 9.58276 79.3404 9.67228 79.1005 9.85132C78.8605 10.0304 78.7406 10.247 78.7406 10.5012H77.7416C77.7416 10.2112 77.8436 9.93188 78.0477 9.66333C78.2554 9.39119 78.5347 9.17635 78.8856 9.0188C79.2401 8.86125 79.6286 8.78247 80.0511 8.78247C80.7207 8.78247 81.2453 8.95076 81.6249 9.28735C82.0044 9.62036 82.2014 10.0805 82.2157 10.6677V13.3425C82.2157 13.8761 82.2837 14.3004 82.4198 14.6155V14.7014H81.3778ZM79.7289 13.9441C80.0404 13.9441 80.3358 13.8635 80.6151 13.7024C80.8944 13.5413 81.0967 13.3318 81.222 13.074V11.8816H80.4432C79.2258 11.8816 78.6171 12.2379 78.6171 12.9504C78.6171 13.262 78.7209 13.5055 78.9286 13.6809C79.1363 13.8564 79.403 13.9441 79.7289 13.9441ZM88.5267 14.7014H87.5331V9.71167H84.8583V14.7014H83.8592V8.88989H88.5267V14.7014ZM95.0311 11.8601C95.0311 12.7445 94.8288 13.4571 94.4242 13.9978C94.0196 14.5385 93.4717 14.8088 92.7806 14.8088C92.0752 14.8088 91.5202 14.585 91.1156 14.1375V16.9358H90.1219V8.88989H91.0297L91.078 9.53442C91.4826 9.03312 92.0448 8.78247 92.7645 8.78247C93.4628 8.78247 94.0142 9.04565 94.4188 9.57202C94.827 10.0984 95.0311 10.8306 95.0311 11.7688V11.8601ZM94.0375 11.7473C94.0375 11.092 93.8978 10.5746 93.6185 10.1951C93.3392 9.81551 92.9561 9.62573 92.4691 9.62573C91.8675 9.62573 91.4164 9.8925 91.1156 10.426V13.2029C91.4128 13.7328 91.8675 13.9978 92.4799 13.9978C92.9561 13.9978 93.3339 13.8098 93.6132 13.4338C93.896 13.0543 94.0375 12.4921 94.0375 11.7473ZM99.8866 14.7014C99.8293 14.5868 99.7827 14.3827 99.7469 14.0891C99.285 14.5689 98.7336 14.8088 98.0926 14.8088C97.5197 14.8088 97.0489 14.6477 96.68 14.3254C96.3148 13.9996 96.1322 13.5878 96.1322 13.0901C96.1322 12.4849 96.3614 12.0159 96.8197 11.6829C97.2816 11.3463 97.9297 11.178 98.764 11.178H99.7308V10.7214C99.7308 10.3741 99.627 10.0984 99.4193 9.89429C99.2116 9.6866 98.9055 9.58276 98.5008 9.58276C98.1464 9.58276 97.8492 9.67228 97.6092 9.85132C97.3693 10.0304 97.2494 10.247 97.2494 10.5012H96.2504C96.2504 10.2112 96.3524 9.93188 96.5565 9.66333C96.7642 9.39119 97.0435 9.17635 97.3944 9.0188C97.7489 8.86125 98.1374 8.78247 98.5599 8.78247C99.2295 8.78247 99.7541 8.95076 100.134 9.28735C100.513 9.62036 100.71 10.0805 100.724 10.6677V13.3425C100.724 13.8761 100.793 14.3004 100.929 14.6155V14.7014H99.8866ZM98.2377 13.9441C98.5492 13.9441 98.8446 13.8635 99.1239 13.7024C99.4032 13.5413 99.6055 13.3318 99.7308 13.074V11.8816H98.952C97.7346 11.8816 97.1258 12.2379 97.1258 12.9504C97.1258 13.262 97.2297 13.5055 97.4374 13.6809C97.6451 13.8564 97.9118 13.9441 98.2377 13.9441ZM102.373 14.7014V8.88989H104.64C105.413 8.88989 106.006 9.02596 106.418 9.2981C106.833 9.56665 107.041 9.96232 107.041 10.4851C107.041 10.7537 106.96 10.9972 106.799 11.2156C106.638 11.4304 106.4 11.5951 106.085 11.7097C106.436 11.7921 106.717 11.9532 106.928 12.1931C107.143 12.433 107.25 12.7195 107.25 13.0525C107.25 13.586 107.053 13.9942 106.66 14.2771C106.269 14.56 105.716 14.7014 105 14.7014H102.373ZM103.367 12.1501V13.9011H105.011C105.426 13.9011 105.736 13.8241 105.94 13.6702C106.147 13.5162 106.251 13.2996 106.251 13.0203C106.251 12.4402 105.825 12.1501 104.973 12.1501H103.367ZM103.367 11.3552H104.651C105.582 11.3552 106.047 11.0831 106.047 10.5388C106.047 9.99455 105.607 9.71346 104.726 9.69556H103.367V11.3552ZM112.326 8.88989H113.32V14.7014H112.326V10.4636L109.646 14.7014H108.652V8.88989H109.646V13.1331L112.326 8.88989ZM119.233 9.69556H117.284V14.7014H116.29V9.69556H114.378V8.88989H119.233V9.69556ZM121.285 10.8933H122.794C123.453 10.9005 123.974 11.0723 124.357 11.4089C124.74 11.7455 124.932 12.2021 124.932 12.7786C124.932 13.3586 124.735 13.8241 124.341 14.175C123.947 14.526 123.417 14.7014 122.751 14.7014H120.291V8.88989H121.285V10.8933ZM121.285 11.7043V13.8904H122.762C123.134 13.8904 123.423 13.7955 123.627 13.6057C123.831 13.4124 123.933 13.1492 123.933 12.8162C123.933 12.4939 123.833 12.2307 123.632 12.0266C123.435 11.8189 123.158 11.7115 122.8 11.7043H121.285Z" fill="#555555"/>
</svg>
